<svg width="351" height="117" viewBox="0 0 351 117" preserveAspectRatio="none" fill="none" xmlns="http://www.w3.org/2000/svg">
<mask id="path-1-inside-1" fill="white">
<path fill-rule="evenodd" clip-rule="evenodd" d="M351 0H32L0 107H279.733L289.134 116.401L298.534 107H319L351 0Z"/>
</mask>
<path fill-rule="evenodd" clip-rule="evenodd" d="M351 0H32L0 107H279.733L289.134 116.401L298.534 107H319L351 0Z" fill="#FCAF17"/>
<path d="M32 0V-2H30.5106L30.0839 -0.573053L32 0ZM351 0L352.916 0.573053L353.686 -2H351V0ZM0 107L-1.91614 106.427L-2.68566 109H0V107ZM279.733 107L281.147 105.586L280.561 105H279.733V107ZM289.134 116.401L287.719 117.815L289.134 119.229L290.548 117.815L289.134 116.401ZM298.534 107V105H297.706L297.12 105.586L298.534 107ZM319 107V109H320.489L320.916 107.573L319 107ZM32 2H351V-2H32V2ZM1.91614 107.573L33.9161 0.573053L30.0839 -0.573053L-1.91614 106.427L1.91614 107.573ZM279.733 105H0V109H279.733V105ZM290.548 114.986L281.147 105.586L278.319 108.414L287.719 117.815L290.548 114.986ZM297.12 105.586L287.719 114.986L290.548 117.815L299.948 108.414L297.12 105.586ZM319 105H298.534V109H319V105ZM349.084 -0.573053L317.084 106.427L320.916 107.573L352.916 0.573053L349.084 -0.573053Z" fill="white" mask="url(#path-1-inside-1)"/>
</svg>
