<svg width="124" height="46" viewBox="0 0 124 46" fill="none" xmlns="http://www.w3.org/2000/svg">
<g filter="url(#filter0_f)">
<rect x="10" y="45" width="100" height="1" fill="white" fill-opacity="0.8"/>
</g>
<path d="M62.2193 16.7666H61.9646C60.8861 16.7666 59.7568 15.9042 59.4412 14.8411L58.4982 11.6605C58.1832 10.5973 58.8013 9.73495 59.8804 9.73495H60.1351C61.2129 9.73495 62.3435 10.5973 62.6578 11.6605L63.6015 14.8411C63.9164 15.9042 63.2977 16.7666 62.2193 16.7666Z" fill="#2E4E5E"/>
<path d="M60.1453 9.91113H59.9733C59.1483 9.91113 58.2836 9.25195 58.0426 8.43851C57.8009 7.62445 58.2749 6.96465 59.0999 6.96465H59.2719C60.0969 6.96465 60.9616 7.62445 61.2033 8.43851C61.4437 9.25195 60.9709 9.91113 60.1453 9.91113Z" fill="#2E4E5E"/>
<path d="M41.8659 16.8657H41.6106C40.5322 16.8657 39.4028 16.0033 39.0873 14.9408L38.1449 11.7602C37.8293 10.6965 38.4481 9.83407 39.5265 9.83407H39.7812C40.859 9.83407 41.9896 10.6965 42.3045 11.7602L43.2475 14.9408C43.5625 16.0033 42.9437 16.8657 41.8659 16.8657Z" fill="#2E4E5E"/>
<path d="M38.9051 8.10391L41.2403 14.9336H36.4749L35.0244 9.67194L38.3684 7.69502L38.9051 8.10391Z" fill="#2E4E5E"/>
<path d="M10.1868 34.8936C12.0747 35.556 22.5384 35.894 24.5387 35.894H84.9137H102.82C105.621 35.894 108.416 35.6097 111.16 35.0465L116.551 33.9396C118.719 33.4945 120.274 31.5914 120.274 29.3853V26.414C120.274 23.851 119.058 22.2285 117.116 20.5502C116.058 19.6358 114.778 19.0144 113.403 18.748L92.0924 13.7906C90.3766 13.4585 88.705 12.9257 87.114 12.2027L73.617 6.07124C69.6673 4.27771 65.3772 3.34903 61.0374 3.34903H37.7264C36.6113 3.34903 35.5049 3.5448 34.4582 3.92767L23.3211 12.909C22.0675 13.9194 20.5754 14.5941 18.9876 14.8667L12.0977 15.9961C7.57589 16.9632 5.30786 20.3867 5.1656 21.2491C4.97613 22.3921 4.83944 23.1813 4.92206 24.439L5.28238 29.9688C5.40041 31.7724 6.58567 33.3312 8.29462 33.9314L10.1868 34.8936Z" fill="#9AC8D4"/>
<path d="M86.5149 35.897H41.0869V32.0687H86.5149V35.897Z" fill="#789CA6"/>
<path d="M117.116 20.5501C116.058 19.6357 114.778 19.0143 113.403 18.7479L92.0925 13.7904C90.3767 13.4584 88.705 12.9256 87.1141 12.2026L73.617 6.07112C69.6674 4.27759 65.3773 3.34891 61.0375 3.34891H37.7265C36.6114 3.34891 35.505 3.54468 34.4583 3.92755L23.3212 12.9089C22.0676 13.9193 20.5761 14.594 18.9877 14.8666L12.0978 15.996C7.70332 16.963 5.30794 20.3866 5.16568 21.2489C4.98988 22.3065 4.86251 23.0673 4.9091 24.17C4.9414 23.4934 5.04082 22.8944 5.16568 22.146C5.30794 21.2843 8.25496 18.002 12.0978 16.8924L18.9877 15.7643C20.5761 15.4904 22.0676 14.8164 23.3212 13.8059L34.4583 4.82463C35.505 4.44114 36.6114 4.24537 37.7265 4.24537H61.0375C65.3773 4.24537 69.6674 5.17404 73.617 6.9682L87.6937 13.065C89.2852 13.788 90.3767 14.3555 92.0925 14.6875L113.403 19.645C114.778 19.9108 116.058 20.5322 117.116 21.4466C119.058 23.1261 120.274 24.7479 120.274 27.311V26.4139C120.274 23.8508 119.058 22.2284 117.116 20.5501Z" fill="#A7D9E6"/>
<path d="M39.4092 5.47476C39.6702 5.14951 40.0534 4.94816 40.4715 4.9209C41.2188 4.8732 42.2016 4.83665 42.7054 4.83665H60.2248L65.1392 5.24244C67.8837 5.46919 70.5369 6.32785 72.8919 7.75091L82.699 13.6761C83.1923 13.9735 82.968 14.7311 82.3909 14.7126L36.5721 14.5459C36.405 14.5273 36.2796 14.4654 36.2833 14.2975L36.4753 10.545C36.5001 9.59896 36.8337 8.68763 37.4263 7.94792L39.4092 5.47476Z" fill="#312A20"/>
<path d="M58.9003 14L58.6406 4.8415L58.9525 4.8316L59.2121 13.9901L58.9003 14Z" fill="#312A20"/>
<path d="M5.1288 27.9527L5.42323 28.5376C6.36064 30.4037 8.24416 31.6122 10.3358 31.6904L20.4094 32.0682L19.9453 36.0049L14.1072 35.6881C14.0183 35.6832 13.9295 35.6741 13.8407 35.661L7.45834 34.6932C6.06248 34.482 4.95235 33.414 4.68958 32.0304L4.28952 29.924C4.20628 29.4868 4.3119 29.0352 4.58026 28.679L5.1288 27.9527Z" fill="#789CA6"/>
<path d="M120.453 27.9532L120.16 28.5381C119.225 30.4042 117.279 32.1909 115.194 32.2688H105.349L105.833 35.897C114.715 35.4137 118.306 34.6671 118.13 34.6937C119.522 34.4825 120.629 33.4145 120.89 32.0309L121.289 29.9245C121.372 29.4873 121.267 29.0357 120.999 28.6795L120.453 27.9532Z" fill="#789CA6"/>
<path d="M41.8581 35.894C41.8581 35.894 42.3066 32.6303 40.994 29.8083C39.8553 27.3588 36.9629 23.8541 32.302 23.385C27.0248 22.8541 23.1447 25.2098 21.0705 29.2367C19.3709 32.5362 19.9448 36.0051 19.9448 36.0051L21.6252 36.3574L41.8581 35.894Z" fill="#201600"/>
<path d="M100.28 25.1586C95.0573 22.3886 88.9675 24.7261 86.4249 29.0858C85.595 30.5095 85.1949 31.785 85.0595 32.9498C84.9738 33.6826 84.9434 35.897 84.9434 35.897C84.9434 35.897 104.576 35.897 105.832 35.897C105.832 35.897 105.953 34.4161 105.883 33.6325C105.623 30.7168 104.113 27.1911 100.28 25.1586Z" fill="#201600"/>
<path d="M80.3589 20.2202L42.5662 19.1186C42.5662 19.1186 41.9531 20.1365 44.4584 21.121C45.7586 21.6321 46.8103 21.3874 50.8252 21.3396C53.1448 21.3118 73.4864 22.0695 75.6035 22.2504C76.9733 22.3681 77.6784 22.3823 78.4791 22.1128C80.9671 21.2734 80.3589 20.2202 80.3589 20.2202Z" fill="#92BEC9"/>
<path d="M81.7803 26.3871L47.941 26.1719C47.941 26.1719 46.2252 26.9248 53.2406 27.6532C56.8833 28.0313 74.2742 27.9865 76.5161 27.787C83.4837 27.1663 81.7803 26.3871 81.7803 26.3871Z" fill="#92BEC9"/>
<path d="M21.9629 34.3406C21.9629 29.4024 25.9772 25.3989 30.9288 25.3989C35.8805 25.3989 39.8948 29.4024 39.8948 34.3406C39.8948 39.2794 35.8805 43.2822 30.9288 43.2822C25.9772 43.2822 21.9629 39.2794 21.9629 34.3406Z" fill="#312A20"/>
<path d="M24.2539 34.3405C24.2539 30.6636 27.2426 27.6831 30.9295 27.6831C34.6164 27.6831 37.6044 30.6636 37.6044 34.3405C37.6044 38.0173 34.6164 40.998 30.9295 40.998C27.2426 40.998 24.2539 38.0173 24.2539 34.3405Z" fill="#7F7E7C"/>
<path d="M30.9295 40.998C34.6164 40.998 37.6044 38.0173 37.6044 34.3405H24.2539C24.2539 38.0173 27.2426 40.998 30.9295 40.998Z" fill="#706F6E"/>
<path d="M33.1275 28.8213C32.4069 28.5804 31.6378 28.4448 30.8358 28.4448C30.0786 28.4448 29.3493 28.562 28.6641 28.778L30.9066 33.251L33.1275 28.8213Z" fill="#4D4D4B"/>
<path d="M33.1275 39.6962C32.4069 39.9365 31.6378 40.0723 30.8358 40.0723C30.0786 40.0723 29.3493 39.9551 28.6641 39.7395L30.9066 35.2653L33.1275 39.6962Z" fill="#4D4D4B"/>
<path d="M36.7311 33.4556C36.5782 32.7134 36.3099 31.9818 35.9073 31.2897C35.5278 30.6375 35.06 30.0668 34.5289 29.5831L31.7744 33.7622L36.7311 33.4556Z" fill="#4D4D4B"/>
<path d="M27.2995 38.9126C26.7292 38.4107 26.2254 37.8153 25.8228 37.124C25.4427 36.471 25.1787 35.7825 25.0215 35.0832L30.0272 34.7734L27.2995 38.9126Z" fill="#4D4D4B"/>
<path d="M34.7711 38.6831C35.309 38.1485 35.7756 37.5234 36.1346 36.8074C36.4732 36.1331 36.695 35.4301 36.8087 34.722L31.793 34.7189L34.7711 38.6831Z" fill="#4D4D4B"/>
<path d="M25.0215 33.8142C25.1277 33.064 25.3507 32.3174 25.7098 31.6026C26.0484 30.9274 26.4801 30.3294 26.9802 29.8139L29.9874 33.8174L25.0215 33.8142Z" fill="#4D4D4B"/>
<path d="M27.9199 34.3407C27.9199 32.6828 29.2673 31.3391 30.9297 31.3391C32.5915 31.3391 33.9395 32.6828 33.9395 34.3407C33.9395 35.9984 32.5915 37.3423 30.9297 37.3423C29.2673 37.3423 27.9199 35.9984 27.9199 34.3407Z" fill="#5E5E5C"/>
<path d="M30.084 34.3407C30.084 33.8753 30.4623 33.4981 30.9295 33.4981C31.396 33.4981 31.7749 33.8753 31.7749 34.3407C31.7749 34.8066 31.396 35.1831 30.9295 35.1831C30.4623 35.1831 30.084 34.8066 30.084 34.3407Z" fill="#4D4D4B"/>
<path d="M28.1455 34.3405C28.1455 34.1483 28.302 33.9918 28.4946 33.9918C28.6884 33.9918 28.845 34.1483 28.845 34.3405C28.845 34.5331 28.6884 34.6899 28.4946 34.6899C28.302 34.6899 28.1455 34.5331 28.1455 34.3405Z" fill="#4D4D4B"/>
<path d="M28.1455 34.3405C28.1455 34.1483 28.302 33.9918 28.4946 33.9918C28.6884 33.9918 28.845 34.1483 28.845 34.3405C28.845 34.5331 28.6884 34.6899 28.4946 34.6899C28.302 34.6899 28.1455 34.5331 28.1455 34.3405Z" fill="#4D4D4B"/>
<path d="M28.1455 34.3405C28.1455 34.1483 28.302 33.9918 28.4946 33.9918C28.6884 33.9918 28.845 34.1483 28.845 34.3405C28.845 34.5331 28.6884 34.6899 28.4946 34.6899C28.302 34.6899 28.1455 34.5331 28.1455 34.3405Z" fill="#4D4D4B"/>
<path d="M28.1455 34.3405C28.1455 34.1483 28.302 33.9918 28.4946 33.9918C28.6884 33.9918 28.845 34.1483 28.845 34.3405C28.845 34.5331 28.6884 34.6899 28.4946 34.6899C28.302 34.6899 28.1455 34.5331 28.1455 34.3405Z" fill="#4D4D4B"/>
<path d="M28.1455 34.3405C28.1455 34.1483 28.302 33.9918 28.4946 33.9918C28.6884 33.9918 28.845 34.1483 28.845 34.3405C28.845 34.5331 28.6884 34.6899 28.4946 34.6899C28.302 34.6899 28.1455 34.5331 28.1455 34.3405Z" fill="#4D4D4B"/>
<path d="M28.1455 34.3405C28.1455 34.1483 28.302 33.9918 28.4946 33.9918C28.6884 33.9918 28.845 34.1483 28.845 34.3405C28.845 34.5331 28.6884 34.6899 28.4946 34.6899C28.302 34.6899 28.1455 34.5331 28.1455 34.3405Z" fill="#4D4D4B"/>
<path d="M28.1455 34.3405C28.1455 34.1483 28.302 33.9918 28.4946 33.9918C28.6884 33.9918 28.845 34.1483 28.845 34.3405C28.845 34.5331 28.6884 34.6899 28.4946 34.6899C28.302 34.6899 28.1455 34.5331 28.1455 34.3405Z" fill="#4D4D4B"/>
<path d="M28.1455 34.3405C28.1455 34.1483 28.302 33.9918 28.4946 33.9918C28.6884 33.9918 28.845 34.1483 28.845 34.3405C28.845 34.5331 28.6884 34.6899 28.4946 34.6899C28.302 34.6899 28.1455 34.5331 28.1455 34.3405Z" fill="#4D4D4B"/>
<path d="M28.1455 34.3405C28.1455 34.1483 28.302 33.9918 28.4946 33.9918C28.6884 33.9918 28.845 34.1483 28.845 34.3405C28.845 34.5331 28.6884 34.6899 28.4946 34.6899C28.302 34.6899 28.1455 34.5331 28.1455 34.3405Z" fill="#4D4D4B"/>
<path d="M28.1455 34.3405C28.1455 34.1483 28.302 33.9918 28.4946 33.9918C28.6884 33.9918 28.845 34.1483 28.845 34.3405C28.845 34.5331 28.6884 34.6899 28.4946 34.6899C28.302 34.6899 28.1455 34.5331 28.1455 34.3405Z" fill="#4D4D4B"/>
<path d="M28.1455 34.3405C28.1455 34.1483 28.302 33.9918 28.4946 33.9918C28.6884 33.9918 28.845 34.1483 28.845 34.3405C28.845 34.5331 28.6884 34.6899 28.4946 34.6899C28.302 34.6899 28.1455 34.5331 28.1455 34.3405Z" fill="#4D4D4B"/>
<path d="M28.1455 34.3405C28.1455 34.1483 28.302 33.9918 28.4946 33.9918C28.6884 33.9918 28.845 34.1483 28.845 34.3405C28.845 34.5331 28.6884 34.6899 28.4946 34.6899C28.302 34.6899 28.1455 34.5331 28.1455 34.3405Z" fill="#4D4D4B"/>
<path d="M30.9296 26.9193C33.8574 26.9193 36.4261 28.4389 37.8915 30.7299C38.6134 31.8586 38.9569 31.5967 38.3264 30.3335C36.9684 27.6175 34.1512 25.7725 30.9296 25.7725C27.6266 25.7725 24.7479 27.7121 23.4328 30.5409C22.8688 31.7545 23.1713 32.0813 23.7906 31.0186C25.2207 28.5671 27.8801 26.9193 30.9296 26.9193Z" fill="#48443E"/>
<path d="M28.9139 15.1461C25.0449 14.9887 15.7864 18.0622 14.1408 20.9133C13.6084 21.8351 14.4589 23.3319 15.1341 22.9708C20.1616 20.2807 32.3405 16.6329 40.4286 22.7067C42.2258 24.0555 43.7155 23.2043 40.2255 20.9653C40.2255 20.9653 35.1247 17.4879 36.8386 17.5387L79.6029 18.7939C80.7664 18.8279 81.8921 19.2145 82.8307 19.9022C83.2867 20.2361 84.1676 21.3946 86.0268 20.1822C89.7318 17.7661 94.9207 18.7604 99.4786 19.6209C102.467 20.1853 104.405 21.3284 105.65 22.4732C107.411 24.0932 106.919 22.9919 106.134 21.9888C101.893 16.5667 88.5291 17.561 28.9139 15.1461Z" fill="#A7D9E6"/>
<path d="M120.274 26.4186C120.274 24.8792 119.828 23.6808 119.057 22.6041L119.572 25.4187L119.216 28.9865C119.149 29.6649 119.498 30.3168 120.101 30.6377C120.213 30.2387 120.274 29.8205 120.274 29.3899V26.4186Z" fill="#48443E"/>
<path d="M89.3512 26.0435H89.04V22.7749C89.04 20.8897 87.5627 19.9858 85.9997 19.0286C85.076 18.463 84.1212 17.8781 83.5255 17.0758L81.8389 14.8053L82.0892 14.6207L83.7764 16.8918C84.3361 17.6458 85.2238 18.1885 86.1625 18.7634C87.7304 19.7231 89.3512 20.7162 89.3512 22.7749V26.0435Z" fill="#789CA6"/>
<path d="M58.5141 35.8984L57.9004 14.7174L58.2122 14.7088L58.826 35.8885L58.5141 35.8984Z" fill="#789CA6"/>
<path d="M38.7383 26.7778C38.1984 24.3995 36.6665 22.3519 34.5327 21.1612L33.1784 20.4035C32.0167 19.7313 31.4633 18.4842 31.7335 17.1473C32.0118 15.7676 33.0846 14.7608 34.4649 14.5836L36.2634 14.3532L36.3037 14.6611L34.5041 14.8916C33.2585 15.0514 32.2913 15.9609 32.0385 17.2086C31.8484 18.1509 32.0888 19.4141 33.335 20.134L33.3114 20.3L33.3871 20.1644L34.6849 20.8898C36.8951 22.1233 38.483 24.2453 39.042 26.7096L38.7383 26.7778Z" fill="#789CA6"/>
<path d="M19.7857 27.2846L7.70193 27.0697C7.70193 27.0697 7.08881 27.8231 9.59478 28.551C10.8944 28.9295 17.1052 28.8843 17.9053 28.6848C20.3939 28.0639 19.7857 27.2846 19.7857 27.2846Z" fill="#789CA6"/>
<path d="M108.962 20.4229L86.9229 14.2889L87.0061 13.9897L109.046 20.1249L108.962 20.4229Z" fill="#789CA6"/>
<path d="M109.86 19.6946L117.294 22.3778C117.887 22.586 117.936 24.2512 117.536 24.6916C117.39 24.8528 117.181 24.931 116.96 24.9068L110.447 24.2098C110.13 24.1757 109.84 23.939 109.71 23.6094C109.646 23.7773 108.971 22.0897 108.925 20.9139C108.896 20.1952 109.229 19.4729 109.86 19.6946Z" fill="#789CA6"/>
<path d="M117.102 23.0205H117.722V22.2454H117.102V23.0205Z" fill="#DAF8FE"/>
<path d="M117.036 23.9219C117.011 23.9219 116.985 23.9201 116.959 23.9175L110.447 23.22C110.129 23.1859 109.839 22.9492 109.709 22.6196L108.979 20.7667L109.476 22.0262C109.549 22.0466 109.622 22.0677 109.699 22.0739L117.63 22.7479C117.666 22.8304 117.697 22.9219 117.721 23.0206C117.76 23.2646 117.705 23.5163 117.536 23.7019C117.407 23.8439 117.229 23.9219 117.036 23.9219ZM117.592 22.67C117.554 22.6025 117.508 22.5385 117.455 22.481C117.507 22.5318 117.553 22.5954 117.592 22.67ZM108.969 20.7413C108.967 20.7338 108.964 20.7264 108.962 20.7196C108.964 20.7264 108.967 20.7338 108.969 20.7413ZM108.956 20.7016C108.956 20.7004 108.955 20.6998 108.955 20.6985C108.955 20.6998 108.956 20.7004 108.956 20.7016Z" fill="#CEF3FE"/>
<path d="M109.843 19.689C109.76 19.6617 109.68 19.6493 109.604 19.6493C109.68 19.6493 109.76 19.6617 109.843 19.689Z" fill="#DAF8FE"/>
<path d="M108.933 20.6172C108.917 20.5459 108.909 20.4759 108.909 20.4078C108.909 20.4759 108.917 20.5459 108.933 20.6172ZM108.965 20.1017C109.069 19.8353 109.307 19.652 109.597 19.6495C109.307 19.652 109.069 19.8353 108.965 20.1017Z" fill="#F2FEFF"/>
<path d="M108.909 20.4077C108.909 20.2987 108.929 20.1952 108.965 20.1017C108.929 20.1952 108.909 20.2987 108.909 20.4077Z" fill="#CEF3FE"/>
<path d="M109.853 19.6924H109.852C109.85 19.6917 109.847 19.6911 109.845 19.6904C109.845 19.6897 109.845 19.6904 109.845 19.6897C109.847 19.6911 109.85 19.6917 109.853 19.6924ZM109.845 19.6897C109.844 19.6897 109.843 19.6897 109.843 19.6891C109.843 19.6897 109.844 19.6897 109.845 19.6897Z" fill="#F2FEFF"/>
<path d="M109.861 19.6948C109.858 19.6942 109.855 19.6935 109.852 19.6922H109.853C109.855 19.6935 109.858 19.6942 109.861 19.6948ZM109.845 19.6902C109.845 19.6895 109.845 19.6895 109.845 19.6895C109.845 19.6895 109.845 19.6895 109.845 19.6895C109.845 19.6902 109.845 19.6895 109.845 19.6902Z" fill="#CEF3FE"/>
<path d="M117.633 22.7476H117.631C117.619 22.7202 117.606 22.6943 117.593 22.6697C117.607 22.6948 117.621 22.721 117.633 22.7476ZM117.456 22.4807C117.407 22.4335 117.353 22.3982 117.294 22.3778L109.86 19.6946L117.102 22.2452C117.241 22.2941 117.36 22.3771 117.456 22.4807ZM108.933 20.6171C108.917 20.5458 108.909 20.4758 108.909 20.4077L108.963 20.4225C108.95 20.4857 108.94 20.5508 108.933 20.6171ZM109.028 20.1884L109.046 20.1245L108.965 20.1016C109.069 19.8352 109.307 19.6518 109.597 19.6494C109.599 19.6494 109.601 19.6494 109.603 19.6494C109.604 19.6494 109.604 19.6494 109.604 19.6494C109.681 19.6494 109.761 19.6617 109.843 19.689C109.844 19.6896 109.845 19.6896 109.845 19.6896C109.771 19.6655 109.702 19.6537 109.637 19.6537C109.349 19.6537 109.143 19.8761 109.028 20.1884ZM109.852 19.6921C109.85 19.6915 109.848 19.6909 109.846 19.6902C109.848 19.6909 109.85 19.6915 109.852 19.6921Z" fill="#FAFFFF"/>
<path d="M108.963 20.4229L108.909 20.408C108.909 20.2989 108.929 20.1955 108.965 20.1019L109.046 20.1249L109.028 20.1887C109.002 20.2624 108.979 20.3411 108.963 20.4229Z" fill="#EDFDFF"/>
<path d="M117.63 22.7476L109.699 22.0736C109.622 22.0674 109.549 22.0463 109.476 22.0259L108.979 20.7664C108.975 20.7577 108.972 20.7496 108.969 20.741C108.967 20.7335 108.964 20.7261 108.962 20.7193C108.96 20.7131 108.958 20.7075 108.956 20.7013C108.956 20.7001 108.955 20.6995 108.955 20.6982C108.946 20.671 108.939 20.6437 108.933 20.6171C108.939 20.5508 108.949 20.4857 108.962 20.4225C108.979 20.3407 109.001 20.2621 109.028 20.1883C109.143 19.8761 109.348 19.6537 109.636 19.6537C109.701 19.6537 109.771 19.6655 109.845 19.6896C109.845 19.6896 109.845 19.6896 109.845 19.6902C109.847 19.6909 109.85 19.6915 109.851 19.6921C109.854 19.6933 109.857 19.694 109.859 19.6946L117.294 22.3778C117.353 22.3982 117.406 22.4335 117.455 22.4807C117.508 22.5382 117.554 22.6022 117.592 22.6697C117.605 22.6943 117.618 22.7202 117.63 22.7476Z" fill="#EDFDFF"/>
<path d="M109.892 32.5522L109.583 32.5205L110.481 23.9047L110.791 23.937L109.892 32.5522Z" fill="#789CA6"/>
<path d="M86.5146 34.3405C86.5146 29.3668 90.5575 25.3343 95.5452 25.3343C100.532 25.3343 104.576 29.3668 104.576 34.3405C104.576 39.3147 100.532 43.3467 95.5452 43.3467C90.5575 43.3467 86.5146 39.3147 86.5146 34.3405Z" fill="#312A20"/>
<path d="M88.8223 34.3407C88.8223 30.6378 91.832 27.6355 95.5456 27.6355C99.2586 27.6355 102.269 30.6378 102.269 34.3407C102.269 38.0443 99.2586 41.0459 95.5456 41.0459C91.832 41.0459 88.8223 38.0443 88.8223 34.3407Z" fill="#7F7E7C"/>
<path d="M95.5456 41.0459C99.2586 41.0459 102.269 38.0443 102.269 34.3407H88.8223C88.8223 38.0443 91.832 41.0459 95.5456 41.0459Z" fill="#706F6E"/>
<path d="M97.8483 28.7816C97.1221 28.5394 96.348 28.4024 95.5398 28.4024C94.7776 28.4024 94.0427 28.5207 93.3525 28.7376L95.6113 33.2441L97.8483 28.7816Z" fill="#4D4D4B"/>
<path d="M97.8483 39.7348C97.1221 39.9775 96.348 40.1138 95.5398 40.1138C94.7776 40.1138 94.0427 39.9957 93.3525 39.7789L95.6113 35.273L97.8483 39.7348Z" fill="#4D4D4B"/>
<path d="M101.479 33.4502C101.325 32.7019 101.055 31.9653 100.65 31.2683C100.266 30.6103 99.7962 30.036 99.2607 29.5492L96.4863 33.7588L101.479 33.4502Z" fill="#4D4D4B"/>
<path d="M91.9794 38.9453C91.4047 38.4405 90.8966 37.8408 90.4915 37.1438C90.1095 36.4865 89.843 35.7932 89.6846 35.0887L94.727 34.7766L91.9794 38.9453Z" fill="#4D4D4B"/>
<path d="M99.5041 38.7148C100.047 38.1752 100.516 37.5464 100.878 36.826C101.219 36.1457 101.442 35.4381 101.557 34.7245L96.5049 34.722L99.5041 38.7148Z" fill="#4D4D4B"/>
<path d="M89.6836 33.8111C89.7917 33.055 90.0159 32.3032 90.3775 31.5825C90.7185 30.9022 91.154 30.3008 91.6572 29.7815L94.6862 33.8135L89.6836 33.8111Z" fill="#4D4D4B"/>
<path d="M92.6035 34.3404C92.6035 32.6708 93.9603 31.3171 95.6338 31.3171C97.3086 31.3171 98.6653 32.6708 98.6653 34.3404C98.6653 36.01 97.3086 37.3638 95.6338 37.3638C93.9603 37.3638 92.6035 36.01 92.6035 34.3404Z" fill="#5E5E5C"/>
<path d="M95.5452 26.8652C98.4941 26.8652 101.081 28.3955 102.557 30.7039C103.285 31.8406 103.631 31.5768 102.995 30.3049C101.628 27.569 98.7898 25.7104 95.5452 25.7104C92.218 25.7104 89.3188 27.6644 87.9944 30.5137C87.4266 31.736 87.731 32.0642 88.3547 30.995C89.7946 28.5249 92.4739 26.8652 95.5452 26.8652Z" fill="#48443E"/>
<path d="M94.7832 34.3407C94.7832 33.8717 95.1646 33.492 95.6343 33.492C96.1052 33.492 96.4866 33.8717 96.4866 34.3407C96.4866 34.8097 96.1052 35.1895 95.6343 35.1895C95.1646 35.1895 94.7832 34.8097 94.7832 34.3407Z" fill="#4D4D4B"/>
<path d="M92.8311 34.3403C92.8311 34.1465 92.9888 33.9889 93.1833 33.9889C93.3777 33.9889 93.5355 34.1465 93.5355 34.3403C93.5355 34.5348 93.3777 34.6914 93.1833 34.6914C92.9888 34.6914 92.8311 34.5348 92.8311 34.3403Z" fill="#4D4D4B"/>
<path d="M92.8311 34.3403C92.8311 34.1465 92.9888 33.9889 93.1833 33.9889C93.3777 33.9889 93.5355 34.1465 93.5355 34.3403C93.5355 34.5348 93.3777 34.6914 93.1833 34.6914C92.9888 34.6914 92.8311 34.5348 92.8311 34.3403Z" fill="#4D4D4B"/>
<path d="M92.8311 34.3403C92.8311 34.1465 92.9888 33.9889 93.1833 33.9889C93.3777 33.9889 93.5355 34.1465 93.5355 34.3403C93.5355 34.5348 93.3777 34.6914 93.1833 34.6914C92.9888 34.6914 92.8311 34.5348 92.8311 34.3403Z" fill="#4D4D4B"/>
<path d="M92.8311 34.3403C92.8311 34.1465 92.9888 33.9889 93.1833 33.9889C93.3777 33.9889 93.5355 34.1465 93.5355 34.3403C93.5355 34.5348 93.3777 34.6914 93.1833 34.6914C92.9888 34.6914 92.8311 34.5348 92.8311 34.3403Z" fill="#4D4D4B"/>
<path d="M92.8311 34.3403C92.8311 34.1465 92.9888 33.9889 93.1833 33.9889C93.3777 33.9889 93.5355 34.1465 93.5355 34.3403C93.5355 34.5348 93.3777 34.6914 93.1833 34.6914C92.9888 34.6914 92.8311 34.5348 92.8311 34.3403Z" fill="#4D4D4B"/>
<path d="M92.8311 34.3403C92.8311 34.1465 92.9888 33.9889 93.1833 33.9889C93.3777 33.9889 93.5355 34.1465 93.5355 34.3403C93.5355 34.5348 93.3777 34.6914 93.1833 34.6914C92.9888 34.6914 92.8311 34.5348 92.8311 34.3403Z" fill="#4D4D4B"/>
<path d="M92.8311 34.3403C92.8311 34.1465 92.9888 33.9889 93.1833 33.9889C93.3777 33.9889 93.5355 34.1465 93.5355 34.3403C93.5355 34.5348 93.3777 34.6914 93.1833 34.6914C92.9888 34.6914 92.8311 34.5348 92.8311 34.3403Z" fill="#4D4D4B"/>
<path d="M92.8311 34.3403C92.8311 34.1465 92.9888 33.9889 93.1833 33.9889C93.3777 33.9889 93.5355 34.1465 93.5355 34.3403C93.5355 34.5348 93.3777 34.6914 93.1833 34.6914C92.9888 34.6914 92.8311 34.5348 92.8311 34.3403Z" fill="#4D4D4B"/>
<path d="M92.8311 34.3403C92.8311 34.1465 92.9888 33.9889 93.1833 33.9889C93.3777 33.9889 93.5355 34.1465 93.5355 34.3403C93.5355 34.5348 93.3777 34.6914 93.1833 34.6914C92.9888 34.6914 92.8311 34.5348 92.8311 34.3403Z" fill="#4D4D4B"/>
<path d="M92.8311 34.3403C92.8311 34.1465 92.9888 33.9889 93.1833 33.9889C93.3777 33.9889 93.5355 34.1465 93.5355 34.3403C93.5355 34.5348 93.3777 34.6914 93.1833 34.6914C92.9888 34.6914 92.8311 34.5348 92.8311 34.3403Z" fill="#4D4D4B"/>
<path d="M92.8311 34.3403C92.8311 34.1465 92.9888 33.9889 93.1833 33.9889C93.3777 33.9889 93.5355 34.1465 93.5355 34.3403C93.5355 34.5348 93.3777 34.6914 93.1833 34.6914C92.9888 34.6914 92.8311 34.5348 92.8311 34.3403Z" fill="#4D4D4B"/>
<path d="M92.8311 34.3403C92.8311 34.1465 92.9888 33.9889 93.1833 33.9889C93.3777 33.9889 93.5355 34.1465 93.5355 34.3403C93.5355 34.5348 93.3777 34.6914 93.1833 34.6914C92.9888 34.6914 92.8311 34.5348 92.8311 34.3403Z" fill="#4D4D4B"/>
<path d="M117.649 22.9028L117.617 22.5938L119.04 22.4493L119.073 22.7586L117.649 22.9028Z" fill="#789CA6"/>
<path d="M20.4062 14.5068H26.0636C26.8538 14.5068 27.6123 14.2064 28.1869 13.6661L35.7073 6.58989C36.377 5.95983 35.9297 4.83662 35.0091 4.83662H33.2635L20.4062 14.5068Z" fill="#312A20"/>
<path d="M23.8367 17.1186C23.2702 17.1186 22.8093 17.5783 22.8093 18.1433V19.041C22.8093 19.606 23.2702 20.0651 23.8367 20.0651H25.4531C26.0197 20.0651 26.4806 19.606 26.4806 19.041V18.1433C26.4806 17.5783 26.0197 17.1186 25.4531 17.1186H23.8367ZM25.4531 20.3755H23.8367C23.0987 20.3755 22.498 19.777 22.498 19.041V18.1433C22.498 17.4067 23.0987 16.8082 23.8367 16.8082H25.4531C26.1918 16.8082 26.7925 17.4067 26.7925 18.1433V19.041C26.7925 19.777 26.1918 20.3755 25.4531 20.3755Z" fill="#789CA6"/>
<path d="M7.85509 25.0455L12.3825 23.6709C12.7683 23.5538 13.0522 23.1158 13.0522 22.6838V22.2223C13.0522 21.7942 12.4856 20.9133 12.1055 20.9133L7.9601 21.4492C6.82391 21.4492 5.69765 22.1765 5.66038 23.0816L5.12861 23.887C5.0901 24.812 6.68349 25.4012 7.85509 25.0455Z" fill="#789CA6"/>
<path d="M7.36625 24.5103L11.8936 23.135C12.2788 23.0185 12.5627 22.5805 12.5627 22.1481V21.6866C12.5627 21.2591 12.2825 20.9134 11.9017 20.9134H7.47059C6.3344 20.9134 5.20877 21.6407 5.17026 22.5464L5.12989 23.5285C5.09137 24.4534 6.19402 24.866 7.36625 24.5103Z" fill="#D90502"/>
<path d="M9.56351 19.7764H5.96484V19.4654H9.56351C12.1689 19.4654 14.7891 18.8824 17.1411 17.779C18.3953 17.1905 19.2805 16.7493 19.7738 16.4656C20.6472 15.9625 21.3517 15.7129 22.0592 15.6534L26.3425 15.3337C28.9745 15.115 31.4209 13.8023 33.0534 11.7305L39.7333 3.2523L39.9787 3.44497L33.2988 11.9226C31.6128 14.0618 29.0857 15.418 26.3667 15.6429L22.0841 15.9625C21.4256 16.0177 20.7609 16.2562 19.9291 16.7351C19.429 17.0226 18.5351 17.4686 17.274 18.0603C14.8805 19.1822 12.2142 19.7764 9.56351 19.7764Z" fill="#789CA6"/>
<path d="M34.5042 6.57473L34.6539 6.59766L34.8602 6.40374C35.2025 6.08345 34.9739 5.511 34.5042 5.51286L32.3505 5.52154L30.9385 6.58217L34.5042 6.57473Z" fill="#2E4E5E"/>
<path d="M59.18 13.8711H79.2749L78.2064 11.7288L72.3074 8.29658C69.9586 6.93113 67.2706 6.09415 64.5329 5.87608L58.9346 5.48144L59.18 13.8711Z" fill="#3D687D"/>
<path d="M65.1256 6.93883C68.1521 7.15629 71.1246 7.99388 73.7219 9.35933L78.0201 11.6206L72.3074 8.29683C69.9586 6.93139 67.2706 6.09441 64.5329 5.87634L58.9346 5.4817L58.9656 6.54542L65.1256 6.93883Z" fill="#2E4E5E"/>
<path d="M72.4985 12.0147C72.2562 11.8958 71.6884 11.9856 71.4195 12.3164L69.7627 14.0375L71.1679 14.0542L72.5557 12.6119C72.6985 12.4632 72.7613 12.143 72.4985 12.0147Z" fill="#2E4E5E"/>
<path d="M79.5572 13.0095H77.0239L74.918 14.2646H79.8175L79.5572 13.0095Z" fill="#2E4E5E"/>
<path d="M71.7701 13.0095L73.9475 14.0546H72.4094L70.9893 14.2646L71.7701 13.0095Z" fill="#2E4E5E"/>
<path d="M75.4899 10.2891L73.7225 9.35915C73.315 9.14479 72.8976 8.94345 72.4727 8.75511L72.6845 8.51597L75.5725 10.1961L75.4899 10.2891Z" fill="#6096AD"/>
<path d="M71.2342 13.8711H69.9229L71.4193 12.3167C71.6132 12.0782 71.9623 11.9648 72.2331 11.9648C72.3381 11.9648 72.4307 11.9822 72.4984 12.015C72.7612 12.1432 72.6984 12.4635 72.5555 12.6122L72.0462 13.1419L71.7703 13.0093L71.2342 13.8711Z" fill="#6096AD"/>
<path d="M72.3172 13.8711H71.2344L71.7705 13.0093L72.0463 13.1419L72.6893 13.4504L72.3172 13.8711Z" fill="#6096AD"/>
<path d="M66.9444 13.8711H66.1387L71.1432 8.22038C71.3457 8.2941 71.5463 8.3703 71.7457 8.4496L66.9444 13.8711Z" fill="#6BA6BD"/>
<path d="M71.7451 8.44971C71.5457 8.37041 71.3451 8.29421 71.1426 8.22048L71.4768 7.84319C71.6613 7.93736 71.8433 8.03463 72.0235 8.13561L71.7451 8.44971Z" fill="#6096AD"/>
<path d="M62.8505 12.312L62.6573 11.6609C62.397 10.7812 61.5782 10.039 60.6924 9.80911L60.7129 9.78619C60.9471 9.66848 61.1167 9.47519 61.2024 9.23295L63.3357 6.82422L65.1254 6.93884C65.877 6.99274 66.6262 7.08505 67.3661 7.21391L62.8505 12.312Z" fill="#6BA6BD"/>
<path d="M67.3663 7.21387C66.6265 7.08501 65.8773 6.9927 65.1257 6.9388L63.3359 6.82418L64.1969 5.85214L64.533 5.87631C65.7077 5.96986 66.8731 6.17739 68.0062 6.49149L67.3663 7.21387Z" fill="#6096AD"/>
<path d="M61.4695 13.8711H59.1798L59.1133 11.5919L60.6924 9.80885C61.5782 10.0387 62.397 10.7809 62.6573 11.6606L62.8505 12.3117L61.4695 13.8711Z" fill="#6096AD"/>
<path d="M60.7129 9.78613L61.2024 9.23289C61.1167 9.47513 60.9471 9.66842 60.7129 9.78613Z" fill="#6096AD"/>
<path d="M59.0647 9.93896L59.0566 9.65584C59.161 9.7147 59.2697 9.76426 59.3809 9.80391C59.2666 9.83799 59.161 9.88321 59.0647 9.93896Z" fill="#6BA6BD"/>
<path d="M61.1159 8.20557C61.0296 8.01785 60.9115 7.84252 60.7705 7.68516L61.6296 6.71498L62.3925 6.76392L61.1159 8.20557Z" fill="#6BA6BD"/>
<path d="M62.3927 6.76416L61.6299 6.71521L62.5002 5.73264L63.2587 5.78654L62.3927 6.76416Z" fill="#6096AD"/>
<path d="M59.0816 10.502L59.0654 9.9388C59.1617 9.88305 59.2673 9.83783 59.3816 9.80375C59.4655 9.83411 59.5506 9.85826 59.6363 9.87561L59.0816 10.502Z" fill="#6096AD"/>
<path d="M59.6359 9.87598C59.5501 9.85863 59.465 9.83447 59.3812 9.80412C59.27 9.76447 59.1612 9.7149 59.0569 9.65605L59.0557 9.62135L60.7702 7.68532C60.9112 7.84268 61.0292 8.01801 61.1156 8.20573L59.6359 9.87598Z" fill="#6096AD"/>
<path d="M42.3692 5.47215C41.7536 5.47215 41.138 5.50684 40.5243 5.57499C40.2838 5.60225 40.0627 5.73111 39.9117 5.93307L37.8978 8.62245C37.5493 9.12798 37.3803 9.72707 37.3529 10.3522L37.102 13.5025C37.0933 13.689 37.2231 13.85 37.3977 13.8711C37.3977 13.8711 44.4329 13.8606 44.7534 13.8711H56.3366L56.9447 5.47215H42.3692Z" fill="#3D687D"/>
<path d="M41.0602 6.53415H56.8682L56.9452 5.47228H42.3697C41.7541 5.47228 41.1385 5.50697 40.5247 5.57512C40.2843 5.60238 40.0631 5.73124 39.9122 5.9332L39.4053 6.61035C39.955 6.56389 40.5073 6.53415 41.0602 6.53415Z" fill="#2E4E5E"/>
<path d="M39.7919 10.0107H39.6198C38.7948 10.0107 37.9307 9.35094 37.6891 8.5375C37.4474 7.72344 37.9214 7.06426 38.7464 7.06426H38.919C39.744 7.06426 40.6081 7.72344 40.8498 8.5375C41.0908 9.35094 40.6175 10.0107 39.7919 10.0107Z" fill="#2E4E5E"/>
<path d="M50.1506 13.8711H45.7754L52.2733 6.53402H56.6485L50.1506 13.8711ZM56.8876 6.26453L56.9448 5.47215L56.8876 6.26391V6.26453Z" fill="#6BA6BD"/>
<path d="M56.6486 6.53418H52.2734L53.214 5.47231H56.9449L56.8878 6.26469L56.6486 6.53418Z" fill="#6096AD"/>
<path d="M44.7776 13.8711H44.7533C44.6943 13.8692 44.4061 13.868 43.9756 13.8674L50.4703 6.53402H51.2754L44.7776 13.8711Z" fill="#6BA6BD"/>
<path d="M51.2758 6.53418H50.4707L51.4106 5.47231H52.2163L51.2758 6.53418Z" fill="#6096AD"/>
<path d="M42.3197 11.8105L42.3048 11.7604C42.042 10.8738 41.214 10.1273 40.3213 9.90302C40.804 9.68495 41.0332 9.15525 40.8499 8.53758C40.8493 8.53572 40.8487 8.53387 40.8481 8.53201L42.6179 6.53403H46.9931L42.3197 11.8105Z" fill="#6BA6BD"/>
<path d="M46.9934 6.53418H42.6182L43.5587 5.47231H47.9339L46.9934 6.53418Z" fill="#6096AD"/>
<path d="M40.7715 13.5596L39.5576 10.0097C39.5787 10.0103 39.5999 10.0109 39.6204 10.0109H39.7925C39.9906 10.0109 40.1689 9.9725 40.3217 9.90311C41.2144 10.1274 42.0425 10.8739 42.3052 11.7605L42.3202 11.8106L40.7715 13.5596Z" fill="#6096AD"/>
<path d="M39.7925 10.0107H39.6205C39.6 10.0107 39.5788 10.0101 39.5577 10.0095L39.5527 9.99525L40.8486 8.53193C40.8492 8.53379 40.8498 8.53564 40.8505 8.5375C41.0337 9.15517 40.8045 9.68487 40.3218 9.90294C40.169 9.97233 39.9907 10.0107 39.7925 10.0107Z" fill="#6096AD"/>
<path d="M37.3977 13.8711C37.2231 13.85 37.0933 13.689 37.102 13.5025L37.1666 12.6884L39.552 9.99533L39.557 10.0096L40.7709 13.5595L40.4975 13.8674C38.87 13.8692 37.3977 13.8711 37.3977 13.8711Z" fill="#6096AD"/>
<path d="M40.4652 7.83887C40.3354 7.68584 40.1838 7.54831 40.0186 7.4337L40.8137 6.536C40.8957 6.53477 40.9777 6.53414 41.0603 6.53414H41.6207L40.4652 7.83887Z" fill="#6BA6BD"/>
<path d="M40.8135 6.53613L41.7447 5.48417C41.9534 5.47673 42.1615 5.4724 42.3696 5.4724H42.5609L41.6204 6.53427H41.0601C40.9775 6.53427 40.8955 6.53489 40.8135 6.53613Z" fill="#6096AD"/>
<path d="M39.275 9.18262L39.0508 8.52654L40.0186 7.43369C40.1838 7.5483 40.3354 7.68583 40.4653 7.83886L39.275 9.18262Z" fill="#6096AD"/>
<path d="M37.2656 11.4507L37.3451 10.4514L39.0504 8.52651L39.2746 9.18259L37.2656 11.4507Z" fill="#6096AD"/>
<path d="M32.3501 5.52218L34.5038 5.51351C34.9735 5.51165 35.2027 6.0841 34.8598 6.40439L28.2253 12.6176C27.3866 13.402 26.2796 13.8394 25.1285 13.8394H21.2695L32.3501 5.52218Z" fill="#3D687D"/>
<path d="M34.5038 5.51351L32.3501 5.52218L21.2695 13.8394H25.1291C26.2796 13.8394 27.3866 13.402 28.2253 12.6176L34.8598 6.40439C35.2021 6.0841 34.9735 5.51165 34.5038 5.51351Z" fill="#3D687D"/>
<path d="M28.1249 10.8584H25.2412L32.3504 5.52179L32.8523 5.51993L28.1249 10.8584Z" fill="#6BA6BD"/>
<path d="M25.1291 13.8394H21.2695L25.241 10.8588H28.1246L25.4975 13.8245C25.3757 13.8344 25.2527 13.8394 25.1291 13.8394Z" fill="#6096AD"/>
<path d="M77.3013 12.1728L79.9446 15.75H78.3313C77.9356 15.75 77.5604 15.5747 77.3075 15.2717L76.2148 13.9614L77.3013 12.1728Z" fill="#312A20"/>
<path d="M75.1334 10.5882H74.5078V12.8594H77.4107C77.4107 11.6048 76.3919 10.5882 75.1334 10.5882Z" fill="#A7D9E6"/>
<path d="M75.1334 15.1309C76.3919 15.1309 77.4107 14.1142 77.4107 12.8597H74.5078V15.1309H75.1334Z" fill="#789CA6"/>
<path d="M87.4123 14.2127C87.99 13.9959 89.0287 13.4371 89.5089 13.1279C89.0753 12.6397 75.7739 6.27842 70.4346 4.83678C71.0968 6.85087 82.9141 12.8076 84.838 14.0901C85.4896 14.5243 86.4569 14.5702 87.4123 14.2127Z" fill="#312A20"/>
<path d="M87.605 13.6207C88.1828 13.4045 88.735 13.1908 89.2127 12.9231C87.1472 11.5992 75.2199 6.12379 71.3057 5.09227C72.1182 6.52586 83 12.2447 85.0301 13.4974C85.6966 13.91 86.6496 13.9788 87.605 13.6207Z" fill="#3D687D"/>
<path d="M89.2077 12.9258C89.2096 12.9252 89.2115 12.9239 89.2127 12.9233C89.2115 12.9239 89.2096 12.9252 89.2077 12.9258ZM89.2127 12.9233C87.1472 11.5994 75.2199 6.12398 71.3057 5.09247C75.2199 6.08805 87.1776 11.5876 89.2127 12.9233Z" fill="#3D687D"/>
<path d="M89.1997 12.9307C89.2022 12.9288 89.2053 12.9276 89.2077 12.9257C89.2053 12.9276 89.2022 12.9288 89.1997 12.9307ZM72.7046 6.29613C72.7034 6.2949 72.7015 6.29427 72.6997 6.29303C72.7015 6.29427 72.7034 6.29552 72.7046 6.29613ZM71.3075 5.09549C71.3069 5.09425 71.3063 5.09363 71.3057 5.09239C71.3063 5.09363 71.3069 5.09425 71.3075 5.09549Z" fill="#62818D"/>
<path d="M88.425 13.2881C86.2427 11.7535 77.4258 7.80526 72.7046 6.29609C72.7034 6.29547 72.7015 6.29423 72.6997 6.29299C72.0617 5.84135 71.4504 5.34325 71.3075 5.09544C71.3069 5.0942 71.3063 5.09358 71.3057 5.09234C75.2199 6.12385 87.1472 11.5992 89.2127 12.9232C89.2115 12.9238 89.2096 12.925 89.2077 12.9257C89.2053 12.9275 89.2022 12.9288 89.1997 12.9306C88.9605 13.0632 88.6909 13.1704 88.425 13.2881Z" fill="#6BA6BD"/>
<path d="M63.2762 19.3496H61.0864C60.5633 19.3496 60.1396 18.9265 60.1396 18.4042C60.1396 17.8832 60.5633 17.4594 61.0864 17.4594H63.2762C63.7992 17.4594 64.2235 17.8832 64.2235 18.4042C64.2235 18.9265 63.7992 19.3496 63.2762 19.3496Z" fill="#A2DFFC"/>
<path d="M61.0866 17.6167C60.6517 17.6167 60.2976 17.9698 60.2976 18.4041C60.2976 18.839 60.6517 19.1921 61.0866 19.1921H63.2764C63.7112 19.1921 64.0659 18.839 64.0659 18.4041C64.0659 17.9698 63.7112 17.6167 63.2764 17.6167H61.0866ZM63.2764 19.5068H61.0866C60.4772 19.5068 59.9814 19.0124 59.9814 18.4041C59.9814 17.7963 60.4772 17.3019 61.0866 17.3019H63.2764C63.8858 17.3019 64.3815 17.7963 64.3815 18.4041C64.3815 19.0124 63.8858 19.5068 63.2764 19.5068Z" fill="#789CA6"/>
<path d="M61.087 19.3496H63.2768C63.7998 19.3496 64.2241 18.9265 64.2241 18.4042H60.1396C60.1396 18.9265 60.5639 19.3496 61.087 19.3496Z" fill="#789CA6"/>
<path d="M55.9978 19.3496H53.8087C53.2856 19.3496 52.8613 18.9265 52.8613 18.4042C52.8613 17.8832 53.2856 17.4594 53.8087 17.4594H55.9978C56.5215 17.4594 56.9452 17.8832 56.9452 18.4042C56.9452 18.9265 56.5215 19.3496 55.9978 19.3496Z" fill="#A2DFFC"/>
<path d="M53.8083 17.6167C53.3728 17.6167 53.0187 17.9698 53.0187 18.4041C53.0187 18.839 53.3728 19.1921 53.8083 19.1921H55.9974C56.4329 19.1921 56.7864 18.839 56.7864 18.4041C56.7864 17.9698 56.4329 17.6167 55.9974 17.6167H53.8083ZM55.9974 19.5068H53.8083C53.1989 19.5068 52.7031 19.0124 52.7031 18.4041C52.7031 17.7963 53.1989 17.3019 53.8083 17.3019H55.9974C56.6068 17.3019 57.1025 17.7963 57.1025 18.4041C57.1025 19.0124 56.6068 19.5068 55.9974 19.5068Z" fill="#789CA6"/>
<path d="M53.8087 19.3496H55.9978C56.5215 19.3496 56.9452 18.9265 56.9452 18.4042H52.8613C52.8613 18.9265 53.2856 19.3496 53.8087 19.3496Z" fill="#789CA6"/>
<defs>
<filter id="filter0_f" x="0" y="35" width="120" height="21" filterUnits="userSpaceOnUse" color-interpolation-filters="sRGB">
<feFlood flood-opacity="0" result="BackgroundImageFix"/>
<feBlend mode="normal" in="SourceGraphic" in2="BackgroundImageFix" result="shape"/>
<feGaussianBlur stdDeviation="5" result="effect1_foregroundBlur"/>
</filter>
</defs>
</svg>
