<svg width="30" height="30" viewBox="0 0 30 30" fill="none" xmlns="http://www.w3.org/2000/svg">
<path fill-rule="evenodd" clip-rule="evenodd" d="M7.0451 7.04499C7.41121 6.67888 8.0048 6.67888 8.37092 7.04499L22.955 21.6291C23.3211 21.9952 23.3211 22.5888 22.955 22.9549C22.5889 23.321 21.9953 23.321 21.6292 22.9549L7.0451 8.37082C6.67898 8.0047 6.67898 7.41111 7.0451 7.04499Z" fill="black"/>
<path fill-rule="evenodd" clip-rule="evenodd" d="M22.9549 7.04499C23.321 7.41111 23.321 8.0047 22.9549 8.37082L8.37083 22.9549C8.00471 23.321 7.41112 23.321 7.045 22.9549C6.67889 22.5888 6.67889 21.9952 7.045 21.6291L21.6291 7.04499C21.9952 6.67888 22.5888 6.67888 22.9549 7.04499Z" fill="black"/>
</svg>
