<svg width="1439" height="52" viewBox="0 0 1439 52"  preserveAspectRatio="none" fill="none" xmlns="http://www.w3.org/2000/svg">
<g clip-path="url(#clip0)">
<path d="M1346.6 52H1338.02L1357.16 -14H1365.74L1346.6 52Z" fill="#FCAF17"/>
<path d="M1419.86 52H1411.28L1430.42 -14H1439L1419.86 52Z" fill="#FCAF17"/>
<path d="M1273.34 52H1264.76L1283.9 -14H1292.48L1273.34 52Z" fill="#FCAF17"/>
<path d="M1200.08 52H1191.5L1210.64 -14H1219.22L1200.08 52Z" fill="#FCAF17"/>
<path d="M1126.82 52H1118.24L1137.38 -14H1145.96L1126.82 52Z" fill="#FCAF17"/>
<path d="M1053.56 52H1044.98L1064.12 -14H1072.7L1053.56 52Z" fill="#FCAF17"/>
<path d="M980.3 52H971.72L990.86 -14H999.44L980.3 52Z" fill="#FCAF17"/>
<path d="M907.04 52H898.46L917.6 -14H926.18L907.04 52Z" fill="#FCAF17"/>
<path d="M833.78 52H825.2L844.34 -14H852.92L833.78 52Z" fill="#FCAF17"/>
<path d="M760.52 52H751.94L771.08 -14H779.66L760.52 52Z" fill="#FCAF17"/>
<path d="M687.26 52H678.68L697.82 -14H706.4L687.26 52Z" fill="#FCAF17"/>
<path d="M614 52H605.42L624.56 -14H633.14L614 52Z" fill="#FCAF17"/>
<path d="M540.74 52H532.16L551.3 -14H559.88L540.74 52Z" fill="#FCAF17"/>
<path d="M467.48 52H458.9L478.04 -14H486.62L467.48 52Z" fill="#FCAF17"/>
<path d="M394.22 52H385.64L404.78 -14H413.36L394.22 52Z" fill="#FCAF17"/>
<path d="M320.96 52H312.38L331.52 -14H340.1L320.96 52Z" fill="#FCAF17"/>
<path d="M247.7 52H239.12L258.26 -14H266.84L247.7 52Z" fill="#FCAF17"/>
<path d="M174.44 52H165.86L185 -14H193.58L174.44 52Z" fill="#FCAF17"/>
<path d="M1322.18 52H1313.6L1332.74 -14H1341.32L1322.18 52Z" fill="#FCAF17"/>
<path d="M1395.44 52H1386.86L1406 -14H1414.58L1395.44 52Z" fill="#FCAF17"/>
<path d="M1248.92 52H1240.34L1259.48 -14H1268.06L1248.92 52Z" fill="#FCAF17"/>
<path d="M1175.66 52H1167.08L1186.22 -14H1194.8L1175.66 52Z" fill="#FCAF17"/>
<path d="M1102.4 52H1093.82L1112.96 -14H1121.54L1102.4 52Z" fill="#FCAF17"/>
<path d="M1029.14 52H1020.56L1039.7 -14H1048.28L1029.14 52Z" fill="#FCAF17"/>
<path d="M955.88 52H947.3L966.44 -14H975.02L955.88 52Z" fill="#FCAF17"/>
<path d="M882.62 52H874.04L893.18 -14H901.76L882.62 52Z" fill="#FCAF17"/>
<path d="M809.36 52H800.78L819.92 -14H828.5L809.36 52Z" fill="#FCAF17"/>
<path d="M736.1 52H727.52L746.66 -14H755.24L736.1 52Z" fill="#FCAF17"/>
<path d="M662.84 52H654.26L673.4 -14H681.98L662.84 52Z" fill="#FCAF17"/>
<path d="M589.58 52H581L600.14 -14H608.72L589.58 52Z" fill="#FCAF17"/>
<path d="M516.32 52H507.74L526.88 -14H535.46L516.32 52Z" fill="#FCAF17"/>
<path d="M443.06 52H434.48L453.62 -14H462.2L443.06 52Z" fill="#FCAF17"/>
<path d="M369.8 52H361.22L380.36 -14H388.94L369.8 52Z" fill="#FCAF17"/>
<path d="M296.54 52H287.96L307.1 -14H315.68L296.54 52Z" fill="#FCAF17"/>
<path d="M223.28 52H214.7L233.84 -14H242.42L223.28 52Z" fill="#FCAF17"/>
<path d="M150.02 52H141.44L160.58 -14H169.16L150.02 52Z" fill="#FCAF17"/>
<path d="M1297.76 52H1289.18L1308.32 -14H1316.9L1297.76 52Z" fill="#FCAF17"/>
<path d="M1371.02 52H1362.44L1381.58 -14H1390.16L1371.02 52Z" fill="#FCAF17"/>
<path d="M1224.5 52H1215.92L1235.06 -14H1243.64L1224.5 52Z" fill="#FCAF17"/>
<path d="M1151.24 52H1142.66L1161.8 -14H1170.38L1151.24 52Z" fill="#FCAF17"/>
<path d="M1077.98 52H1069.4L1088.54 -14H1097.12L1077.98 52Z" fill="#FCAF17"/>
<path d="M1004.72 52H996.14L1015.28 -14H1023.86L1004.72 52Z" fill="#FCAF17"/>
<path d="M931.46 52H922.88L942.02 -14H950.6L931.46 52Z" fill="#FCAF17"/>
<path d="M858.2 52H849.62L868.76 -14H877.34L858.2 52Z" fill="#FCAF17"/>
<path d="M784.94 52H776.36L795.5 -14H804.08L784.94 52Z" fill="#FCAF17"/>
<path d="M711.68 52H703.1L722.24 -14H730.82L711.68 52Z" fill="#FCAF17"/>
<path d="M638.42 52H629.84L648.98 -14H657.56L638.42 52Z" fill="#FCAF17"/>
<path d="M565.16 52H556.58L575.72 -14H584.3L565.16 52Z" fill="#FCAF17"/>
<path d="M491.9 52H483.32L502.46 -14H511.04L491.9 52Z" fill="#FCAF17"/>
<path d="M418.64 52H410.06L429.2 -14H437.78L418.64 52Z" fill="#FCAF17"/>
<path d="M345.38 52H336.8L355.94 -14H364.52L345.38 52Z" fill="#FCAF17"/>
<path d="M272.12 52H263.54L282.68 -14H291.26L272.12 52Z" fill="#FCAF17"/>
<path d="M198.86 52H190.28L209.42 -14H218L198.86 52Z" fill="#FCAF17"/>
<path d="M125.6 52H117.02L136.16 -14H144.74L125.6 52Z" fill="#FCAF17"/>
<path d="M100.86 52H92.28L111.42 -14H120L100.86 52Z" fill="#FCAF17"/>
<path d="M76.1198 52H67.5398L86.6798 -14H95.2598L76.1198 52Z" fill="#FCAF17"/>
<path d="M51.3795 52H42.7995L61.9395 -14H70.5195L51.3795 52Z" fill="#FCAF17"/>
<path d="M26.6403 52H18.0603L37.2003 -14H45.7803L26.6403 52Z" fill="#FCAF17"/>
<path d="M1.90004 52H-6.67996L12.46 -14H21.04L1.90004 52Z" fill="#FCAF17"/>
</g>
<defs>
<clipPath id="clip0">
<rect width="1439" height="52" fill="white" transform="translate(1439 52) rotate(-180)"/>
</clipPath>
</defs>
</svg>
