<svg width="149" height="25" viewBox="0 0 149 25" fill="none" xmlns="http://www.w3.org/2000/svg">
<path d="M6.75238 24.6583H0.265625L5.98971 9.4467H12.5065L10.2202 15.5372H15.1671L9.44252 0.324955H15.9443L25.1214 24.6583H18.6046L17.4689 21.6134H7.88862L6.75238 24.6583Z" fill="#FCAF17"/>
<path d="M24.6436 15.5374V0.325338H30.7712V15.5374C30.7712 16.3787 31.07 17.0944 31.6678 17.6837C32.2658 18.2728 32.9885 18.5674 33.8354 18.5674C34.6821 18.5674 35.4024 18.2728 35.9948 17.6837C36.5875 17.0944 36.8844 16.3787 36.8844 15.5374V0.325338H43.012V15.5374C43.012 17.1911 42.6033 18.719 41.7867 20.1198C40.9693 21.5218 39.8558 22.6286 38.4462 23.44C37.0364 24.2522 35.4995 24.6584 33.8354 24.6584C32.5897 24.6584 31.399 24.4183 30.2633 23.9379C29.1273 23.4581 28.1484 22.8117 27.3262 21.9993C26.5044 21.1873 25.8515 20.2165 25.3687 19.0877C24.8849 17.9585 24.6436 16.7748 24.6436 15.5374Z" fill="#FCAF17"/>
<path d="M46.3737 15.5374V9.44636H52.5019V15.5374C52.5019 16.3787 52.8002 17.0944 53.3984 17.6837C53.996 18.2728 54.7187 18.5674 55.5654 18.5674H58.6146V24.6584H55.5654C54.3199 24.6584 53.1297 24.4183 51.9934 23.9379C50.8579 23.4581 49.8786 22.8117 49.0568 21.9993C48.2346 21.1873 47.5821 20.2165 47.0989 19.0877C46.6154 17.9585 46.3737 16.7748 46.3737 15.5374ZM44.8496 0.325338H60.1544V6.40097H44.8496V0.325338Z" fill="#FCAF17"/>
<path d="M61.425 9.44658H67.9866C67.7568 9.79287 67.5602 10.2638 67.3958 10.8575C67.2312 11.4514 67.1392 11.9967 67.1195 12.4915C67.1195 14.1654 67.7198 15.5968 68.9202 16.7856C70.1211 17.9737 71.5636 18.5676 73.2478 18.5676C74.9314 18.5676 76.3708 17.9737 77.5669 16.7856C78.7627 15.5968 79.3602 14.1654 79.3602 12.4915C79.3602 10.818 78.7627 9.38473 77.5669 8.19064C76.3708 6.99751 74.9314 6.40095 73.2478 6.40095H62.7101C63.7064 4.72748 65.2337 3.29611 67.2915 2.10755C69.3487 0.919477 71.3343 0.325079 73.2478 0.325079C74.9113 0.325079 76.4984 0.647547 78.0075 1.2908C79.5174 1.93477 80.8175 2.79845 81.909 3.88329C82.9995 4.96765 83.8689 6.25992 84.5168 7.76012C85.1647 9.2608 85.4882 10.838 85.4882 12.4915C85.4882 14.1462 85.1647 15.7229 84.5168 17.2229C83.8689 18.7235 82.9995 20.0158 81.909 21.1009C80.8175 22.1852 79.5174 23.0494 78.0075 23.6929C76.4984 24.3366 74.9113 24.6581 73.2478 24.6581C71.583 24.6581 69.9966 24.3366 68.4868 23.6929C66.9777 23.0494 65.677 22.1852 64.5858 21.1009C63.4948 20.0158 62.6254 18.7235 61.978 17.2229C61.3303 15.7229 61.0068 14.1462 61.0068 12.4915C61.0068 11.4119 61.1458 10.3969 61.425 9.44658Z" fill="#FCAF17"/>
<path d="M86.9531 14.4083V10.4862L94.6054 0.325132H102.258L93.0658 12.4915L102.258 24.6582H94.6655L86.9531 14.4083Z" fill="#FCAF17"/>
<path d="M103.004 9.44664H109.132V24.6582H103.004V9.44664ZM103.004 0.325138H109.132V6.40077H103.004V0.325138Z" fill="#FCAF17"/>
<path d="M110.657 24.6584V0.325108H122.898C124.273 0.325108 125.548 0.666586 126.724 1.34978C127.9 2.03346 128.832 2.95972 129.519 4.1283C130.207 5.2964 130.551 6.56437 130.551 7.93125C130.551 9.29765 130.207 10.5661 129.519 11.7337C128.832 12.903 127.9 13.829 126.724 14.5122C125.548 15.1954 124.273 15.5374 122.898 15.5374H118.31V9.44685H122.898C123.276 9.44685 123.628 9.28826 123.952 8.97085C124.275 8.6544 124.437 8.30762 124.437 7.93125C124.437 7.55488 124.275 7.2057 123.952 6.88371C123.628 6.56173 123.276 6.40073 122.898 6.40073H116.785V24.6584H110.657Z" fill="#FCAF17"/>
<path d="M131.716 15.5374V9.44636H140.908C141.336 9.44636 141.697 9.30029 141.991 9.0079C142.285 8.71576 142.432 8.35743 142.432 7.93077C142.432 7.5053 142.285 7.14385 141.991 6.84689C141.697 6.54921 141.336 6.40097 140.908 6.40097H131.716V0.325338H140.908C143.02 0.325338 144.824 1.06846 146.318 2.55349C147.812 4.03901 148.56 5.8316 148.56 7.93077C148.56 8.63394 148.406 9.43144 148.097 10.323C147.788 11.2142 147.419 11.9373 146.991 12.492C147.419 13.0465 147.788 13.7691 148.097 14.6607C148.406 15.5518 148.56 16.3493 148.56 17.0523V24.6584H142.432V17.0523C142.432 16.6268 142.285 16.2675 141.991 15.9754C141.697 15.6835 141.336 15.5374 140.908 15.5374H131.716Z" fill="#FCAF17"/>
</svg>
