<svg width="380" height="224" viewBox="0 0 380 224" fill="none" xmlns="http://www.w3.org/2000/svg">
<path d="M54.4385 108.074H82.0825V81.3016H54.4385V108.074ZM84.9345 110.928H51.5851V78.4455H84.9345V110.928Z" fill="#E2E2E2"/>
<path d="M82.5145 110.525L52.0172 80.8961L54.0065 78.8494L84.5039 108.477L82.5145 110.525Z" fill="#E2E2E2"/>
<path d="M54.0065 110.525L52.0172 108.477L82.5145 78.8494L84.5039 80.8961L54.0065 110.525Z" fill="#E2E2E2"/>
<path d="M54.4385 137.588H82.0825V110.815H54.4385V137.588ZM84.9345 140.444H51.5851V107.96H84.9345V140.444Z" fill="#E2E2E2"/>
<path d="M82.5145 140.039L52.0172 110.412L54.0065 108.364L84.5039 137.992L82.5145 140.039Z" fill="#E2E2E2"/>
<path d="M54.0065 140.039L52.0172 137.992L82.5145 108.364L84.5039 110.412L54.0065 140.039Z" fill="#E2E2E2"/>
<path d="M54.4385 167.103H82.0825V140.331H54.4385V167.103ZM84.9345 169.958H51.5851V137.475H84.9345V169.958Z" fill="#E2E2E2"/>
<path d="M82.5145 169.555L52.0172 139.925L54.0065 137.879L84.5039 167.507L82.5145 169.555Z" fill="#E2E2E2"/>
<path d="M54.0065 169.555L52.0172 167.507L82.5145 137.879L84.5039 139.925L54.0065 169.555Z" fill="#E2E2E2"/>
<path d="M54.4385 196.616H82.0825V169.844H54.4385V196.616ZM84.9345 199.472H51.5851V166.989H84.9345V199.472Z" fill="#E2E2E2"/>
<path d="M82.5145 199.068L52.0172 169.44L54.0065 167.393L84.5039 197.02L82.5145 199.068Z" fill="#E2E2E2"/>
<path d="M54.0065 199.068L52.0172 197.02L82.5145 167.393L84.5039 169.44L54.0065 199.068Z" fill="#E2E2E2"/>
<path d="M309.195 108.074H336.837V81.3016H309.195V108.074ZM339.692 110.928H306.34V78.4455H339.692V110.928Z" fill="#E2E2E2"/>
<path d="M337.269 110.525L306.772 80.8961L308.761 78.8494L339.259 108.477L337.269 110.525Z" fill="#E2E2E2"/>
<path d="M308.761 110.525L306.772 108.477L337.269 78.8494L339.259 80.8961L308.761 110.525Z" fill="#E2E2E2"/>
<path d="M309.195 137.588H336.837V110.815H309.195V137.588ZM339.692 140.444H306.34V107.96H339.692V140.444Z" fill="#E2E2E2"/>
<path d="M337.269 140.039L306.772 110.412L308.761 108.364L339.259 137.992L337.269 140.039Z" fill="#E2E2E2"/>
<path d="M308.761 140.039L306.772 137.992L337.269 108.364L339.259 110.412L308.761 140.039Z" fill="#E2E2E2"/>
<path d="M309.195 167.103H336.837V140.331H309.195V167.103ZM339.692 169.958H306.34V137.475H339.692V169.958Z" fill="#E2E2E2"/>
<path d="M337.269 169.555L306.772 139.925L308.761 137.879L339.26 167.507L337.269 169.555Z" fill="#E2E2E2"/>
<path d="M308.761 169.555L306.772 167.507L337.269 137.879L339.26 139.925L308.761 169.555Z" fill="#E2E2E2"/>
<path d="M309.195 196.616H336.837V169.844H309.195V196.616ZM339.692 199.472H306.34V166.989H339.692V199.472Z" fill="#E2E2E2"/>
<path d="M337.269 199.068L306.772 169.44L308.761 167.393L339.259 197.02L337.269 199.068Z" fill="#E2E2E2"/>
<path d="M308.761 199.068L306.772 197.02L337.269 167.393L339.259 169.44L308.761 199.068Z" fill="#E2E2E2"/>
<path d="M5.53997 77.128H62.3693V28.1186H5.53997V77.128ZM67.9107 82.668H0V22.5786H67.9107V82.668Z" fill="#C9C8C8"/>
<path d="M63.316 81.9827L0.946655 27.4334L4.59334 23.264L66.964 77.8133L63.316 81.9827Z" fill="#C9C8C8"/>
<path d="M67.9107 77.128H124.739V28.1186H67.9107V77.128ZM130.279 82.668H62.3693V22.5786H130.279V82.668Z" fill="#C9C8C8"/>
<path d="M46.6986 81.9827L43.0506 77.8133L105.42 23.264L109.067 27.4334L46.6986 81.9827Z" fill="#C9C8C8"/>
<path d="M130.279 77.128H187.109V28.1186H130.279V77.128ZM192.648 82.668H124.739V22.5786H192.648V82.668Z" fill="#C9C8C8"/>
<path d="M188.055 81.9827L125.685 27.4334L129.332 23.264L191.701 77.8133L188.055 81.9827Z" fill="#C9C8C8"/>
<path d="M192.648 77.128H249.477V28.1186H192.648V77.128ZM255.017 82.668H187.109V22.5786H255.017V82.668Z" fill="#C9C8C8"/>
<path d="M191.701 81.9827L188.055 77.8133L250.424 23.264L254.071 27.4334L191.701 81.9827Z" fill="#C9C8C8"/>
<path d="M255.017 77.128H311.848V28.1186H255.017V77.128ZM317.387 82.668H249.477V22.5786H317.387V82.668Z" fill="#C9C8C8"/>
<path d="M312.795 81.9827L250.424 27.4334L254.071 23.264L316.441 77.8133L312.795 81.9827Z" fill="#C9C8C8"/>
<path d="M317.387 77.128H374.216V28.1186H317.387V77.128ZM379.756 82.668H311.848V22.5786H379.756V82.668Z" fill="#C9C8C8"/>
<path d="M316.441 81.9827L312.795 77.8133L375.163 23.264L378.809 27.4334L316.441 81.9827Z" fill="#C9C8C8"/>
<path d="M261.542 157.933C257.95 159.516 253.39 163.124 250.926 170.329L237.017 176.751L167.057 174.74L161.192 167.976L149.084 154.207L140.66 145.931V135.116L154.973 116.195C154.973 116.195 186.733 116.195 202.369 116.195C218.008 116.195 233.818 129.035 241.078 133.592C248.339 138.149 248.338 138.149 248.338 138.149C249.04 140.208 250.112 142.967 251.264 144.105C253.19 146.009 259.99 148.603 261 152.732C261.598 155.177 261.645 156.085 261.542 157.933ZM320.804 150.144C318.532 148.176 315.784 146.839 312.833 146.267L267.095 135.597C263.411 134.883 259.822 133.735 256.408 132.179L227.44 118.984C218.962 115.123 209.754 113.124 200.438 113.124H150.407C148.012 113.124 145.638 113.547 143.39 114.371L119.488 133.699C116.797 135.875 113.594 137.325 110.185 137.913L95.3971 140.343C85.6945 142.425 80.8238 149.793 80.5185 151.648C80.1118 154.108 79.8198 155.808 79.9958 158.513L80.7705 170.416C81.0225 174.296 83.5665 177.652 87.2345 178.943L91.2971 181.013C95.3491 182.439 117.805 183.167 122.1 183.167H251.687H290.117C296.132 183.167 302.129 182.556 308.02 181.343L319.592 178.96C324.243 178.003 327.58 173.908 327.58 169.16V162.765C327.58 157.249 324.972 153.757 320.804 150.144Z" fill="#9AC8D4"/>
<path d="M297.231 153.24C292.091 146.651 280.7 144.465 248.719 142.875L254.969 148.831C262.849 144.329 273.523 146.36 282.947 148.145C289.361 149.36 293.52 151.819 296.193 154.283C299.975 157.771 298.916 155.399 297.231 153.24Z" fill="#A7D9E6"/>
<path d="M320.804 150.144C318.532 148.176 315.784 146.839 312.833 146.267L267.095 135.597C263.411 134.883 259.823 133.735 256.408 132.179L227.44 118.984C218.963 115.123 209.755 113.124 200.439 113.124H150.405C148.012 113.124 145.639 113.545 143.391 114.371L119.488 133.7C116.797 135.875 113.595 137.325 110.185 137.913L95.3973 140.343C85.9653 142.425 80.8239 149.793 80.5186 151.648C80.1426 153.925 79.8706 155.561 79.9706 157.936C80.0373 156.48 80.2519 155.191 80.5186 153.579C80.8239 151.724 87.1493 144.66 95.3973 142.273L110.185 139.844C113.595 139.256 116.797 137.805 119.488 135.629L143.391 116.301C145.639 115.476 148.012 115.055 150.405 115.055H200.439C209.755 115.055 218.963 117.053 227.44 120.915L257.653 134.035C261.069 135.591 263.411 136.812 267.095 137.528L312.833 148.197C315.784 148.769 318.532 150.107 320.804 152.075C324.972 155.688 327.58 159.179 327.58 164.696V162.765C327.58 157.249 324.972 153.757 320.804 150.144Z" fill="#A7D9E6"/>
<path d="M80.4385 166.076L81.0705 167.335C83.0838 171.351 87.1252 173.952 91.6145 174.122L113.237 174.934L112.24 183.406L99.7092 182.724C99.5185 182.714 99.3279 182.695 99.1399 182.666L85.4399 180.584C82.4425 180.128 80.0598 177.831 79.4958 174.852L78.6385 170.319C78.4598 169.377 78.6865 168.406 79.2612 167.64L80.4385 166.076Z" fill="#789CA6"/>
<path d="M327.964 166.076L327.335 167.335C325.328 171.351 321.152 175.197 316.679 175.365H295.547L296.587 183.172C315.648 182.133 323.357 180.527 322.98 180.584C325.967 180.128 328.341 177.831 328.904 174.852L329.759 170.319C329.937 169.377 329.711 168.405 329.137 167.64L327.964 166.076Z" fill="#789CA6"/>
<path d="M285.92 160.061C274.003 154.101 260.108 159.132 254.308 168.515C252.413 171.579 251.499 174.323 251.191 176.831C250.996 178.407 250.925 183.172 250.925 183.172C250.925 183.172 295.721 183.172 298.591 183.172C298.591 183.172 298.864 179.987 298.704 178.3C298.111 172.025 294.665 164.437 285.92 160.061Z" fill="#37484D"/>
<path d="M327.58 162.775C327.58 159.46 326.624 156.882 324.968 154.564L326.076 160.622L325.312 168.302C325.167 169.76 325.917 171.164 327.209 171.854C327.449 170.995 327.58 170.095 327.58 169.17V162.775Z" fill="#48443E"/>
<path d="M111.899 164.639L85.9626 164.175C85.9626 164.175 84.6466 165.796 90.0252 167.364C92.8159 168.177 106.147 168.081 107.864 167.652C113.204 166.316 111.899 164.639 111.899 164.639Z" fill="#789CA6"/>
<path d="M303.304 149.871L255.997 136.67L256.177 136.026L303.483 149.228L303.304 149.871Z" fill="#789CA6"/>
<path d="M305.228 148.304L321.184 154.077C322.459 154.527 322.563 158.109 321.704 159.057C321.391 159.404 320.941 159.572 320.467 159.521L306.489 158.02C305.809 157.948 305.185 157.439 304.907 156.729C304.769 157.091 303.32 153.459 303.22 150.928C303.159 149.381 303.873 147.825 305.228 148.304Z" fill="#789CA6"/>
<path d="M322.101 155.458C322.049 155.248 321.985 155.051 321.907 154.874L321.913 154.875C321.884 154.811 321.851 154.748 321.816 154.688C321.733 154.538 321.64 154.408 321.536 154.304C321.349 154.102 321.123 153.935 320.857 153.826C321.544 154.107 321.993 154.768 322.101 155.458Z" fill="#DAF8FE"/>
<path d="M320.633 157.4C320.578 157.4 320.522 157.397 320.466 157.391L306.489 155.889C305.809 155.816 305.185 155.308 304.907 154.597L304.405 153.32C304.562 153.365 304.72 153.409 304.885 153.423L321.907 154.873C321.985 155.051 322.049 155.248 322.101 155.457C322.184 155.984 322.068 156.525 321.704 156.927C321.428 157.233 321.045 157.4 320.633 157.4ZM321.816 154.688C321.736 154.551 321.642 154.421 321.536 154.304C321.64 154.408 321.733 154.537 321.816 154.688Z" fill="#CEF3FE"/>
<path d="M305.209 148.297C305.205 148.296 305.201 148.295 305.197 148.293C305.201 148.295 305.205 148.296 305.209 148.297ZM305.196 148.293C305.017 148.233 304.844 148.205 304.679 148.205C304.844 148.205 305.017 148.233 305.196 148.293Z" fill="#DAF8FE"/>
<path d="M320.857 153.825C320.829 153.813 320.8 153.803 320.771 153.792C320.8 153.803 320.829 153.813 320.857 153.825Z" fill="#F2FEFF"/>
<path d="M304.405 153.32C304.404 153.32 304.404 153.32 304.404 153.32L303.34 150.611C303.335 150.597 303.329 150.584 303.325 150.571C303.329 150.584 303.335 150.597 303.34 150.611L304.405 153.32Z" fill="#CEF3FE"/>
<path d="M303.24 150.285C303.205 150.133 303.188 149.983 303.188 149.839C303.188 149.983 303.205 150.133 303.24 150.285ZM303.308 149.179C303.529 148.607 304.04 148.211 304.663 148.205C304.04 148.211 303.529 148.607 303.308 149.179Z" fill="#F2FEFF"/>
<path d="M303.188 149.839C303.187 149.603 303.229 149.38 303.308 149.179C303.229 149.38 303.187 149.603 303.188 149.839Z" fill="#CEF3FE"/>
<path d="M303.301 150.504C303.276 150.431 303.256 150.357 303.24 150.285C303.256 150.357 303.276 150.431 303.301 150.504Z" fill="#CEF3FE"/>
<path d="M321.913 154.875L321.907 154.873C321.879 154.809 321.848 154.747 321.816 154.688C321.851 154.748 321.884 154.811 321.913 154.875ZM321.536 154.304C321.431 154.2 321.313 154.123 321.184 154.077L305.228 148.304L320.771 153.792C320.8 153.803 320.829 153.813 320.857 153.825C321.123 153.935 321.349 154.101 321.536 154.304ZM303.24 150.285C303.205 150.133 303.188 149.983 303.188 149.839L303.304 149.871C303.275 150.005 303.253 150.144 303.24 150.285ZM303.448 149.351L303.483 149.228L303.308 149.179C303.529 148.607 304.04 148.211 304.663 148.205C304.667 148.205 304.671 148.205 304.676 148.205C304.676 148.205 304.677 148.205 304.679 148.205C304.844 148.205 305.017 148.233 305.196 148.293C305.037 148.24 304.889 148.216 304.748 148.216C304.135 148.216 303.695 148.688 303.448 149.351ZM305.212 148.299C305.207 148.297 305.203 148.295 305.197 148.293C305.201 148.295 305.205 148.296 305.209 148.297C305.211 148.297 305.211 148.299 305.212 148.299Z" fill="#FAFFFF"/>
<path d="M303.304 149.871L303.188 149.839C303.187 149.603 303.229 149.38 303.308 149.179L303.483 149.228L303.448 149.351C303.388 149.515 303.339 149.688 303.303 149.871" fill="#EDFDFF"/>
<path d="M321.907 154.874L304.885 153.423C304.72 153.41 304.563 153.366 304.405 153.32L303.34 150.611C303.335 150.598 303.329 150.584 303.325 150.571C303.316 150.548 303.309 150.527 303.301 150.504C303.276 150.431 303.256 150.358 303.24 150.286C303.253 150.144 303.274 150.006 303.302 149.871C303.338 149.688 303.388 149.515 303.448 149.351C303.695 148.688 304.135 148.216 304.748 148.216C304.889 148.216 305.037 148.24 305.196 148.294H305.197C305.202 148.295 305.207 148.298 305.212 148.299C305.217 148.3 305.223 148.303 305.228 148.304L321.184 154.078C321.313 154.123 321.43 154.2 321.536 154.304C321.642 154.422 321.736 154.551 321.816 154.688C321.848 154.747 321.879 154.81 321.907 154.874Z" fill="#EDFDFF"/>
<path d="M305.299 175.976L304.633 175.907L306.561 157.365L307.227 157.435L305.299 175.976Z" fill="#789CA6"/>
<path d="M321.946 155.208L321.877 154.543L324.933 154.231L325.001 154.897L321.946 155.208Z" fill="#789CA6"/>
<path d="M113.229 137.139H125.373C127.068 137.139 128.699 136.492 129.929 135.329L146.071 120.099C147.509 118.743 146.548 116.325 144.572 116.325H140.825L113.229 137.139Z" fill="#263236"/>
<path d="M120.592 142.76C119.377 142.76 118.388 143.75 118.388 144.966V146.896C118.388 148.112 119.377 149.1 120.592 149.1H124.063C125.279 149.1 126.268 148.112 126.268 146.896V144.966C126.268 143.75 125.279 142.76 124.063 142.76H120.592ZM124.063 149.77H120.592C119.008 149.77 117.719 148.482 117.719 146.896V144.966C117.719 143.38 119.008 142.091 120.592 142.091H124.063C125.647 142.091 126.936 143.38 126.936 144.966V146.896C126.936 148.482 125.647 149.77 124.063 149.77Z" fill="#789CA6"/>
<path d="M86.2919 159.82L96.0092 156.861C96.8359 156.609 97.4452 155.667 97.4452 154.736V153.743C97.4452 152.823 96.2292 150.927 95.4132 150.927L86.5158 152.08C84.0785 152.08 81.6598 153.644 81.5798 155.593L80.4385 157.325C80.3572 159.316 83.7759 160.585 86.2919 159.82Z" fill="#789CA6"/>
<path d="M85.2412 158.667L94.9586 155.708C95.7866 155.456 96.3959 154.513 96.3959 153.584V152.591C96.3959 151.669 95.7932 150.927 94.9772 150.927H85.4665C83.0278 150.927 80.6105 152.492 80.5305 154.441L80.4412 156.555C80.3585 158.545 82.7265 159.433 85.2412 158.667Z" fill="#D90502"/>
<path d="M235.346 132.115L241.02 139.815H237.557C236.707 139.815 235.903 139.437 235.36 138.784L233.015 135.965L235.346 132.115Z" fill="#312A20"/>
<path d="M230.696 128.704H229.352V133.592H235.584C235.584 130.893 233.395 128.704 230.696 128.704Z" fill="#A7D9E6"/>
<path d="M230.696 138.48C233.395 138.48 235.584 136.292 235.584 133.592H229.352V138.48H230.696Z" fill="#789CA6"/>
<path d="M257.049 136.504C258.289 136.039 260.517 134.835 261.549 134.171C260.617 133.119 232.069 119.428 220.608 116.325C222.032 120.66 247.393 133.481 251.524 136.24C252.923 137.175 254.999 137.275 257.049 136.504Z" fill="#263236"/>
<path d="M159.275 183.167C159.275 183.167 160.237 176.144 157.42 170.07C154.976 164.799 148.767 157.256 138.764 156.247C127.437 155.103 119.109 160.174 114.656 168.839C111.008 175.942 112.24 183.406 112.24 183.406L159.275 183.167Z" fill="#37484D"/>
<path d="M114.656 173.835C119.109 165.168 127.437 160.098 138.764 161.242C148.766 162.251 154.976 169.793 157.42 175.064C158.616 177.644 159.128 180.394 159.324 182.704C159.479 181.067 159.815 175.233 157.42 170.069C154.976 164.799 148.766 157.256 138.764 156.247C127.437 155.103 119.109 160.172 114.656 168.839C111.657 174.676 111.956 180.749 112.156 182.729C112.395 180.136 113.056 176.949 114.656 173.835Z" fill="#263236"/>
<path d="M128.241 175.472C128.241 171.333 131.596 167.977 135.736 167.977C139.876 167.977 143.232 171.333 143.232 175.472C143.232 179.612 139.876 182.968 135.736 182.968C131.596 182.968 128.241 179.612 128.241 175.472Z" fill="#263236"/>
<path d="M253.543 173.835C257.996 165.168 266.324 160.098 277.651 161.242C287.653 162.251 293.864 169.793 296.308 175.064C297.504 177.644 298.015 180.394 298.211 182.704C298.367 181.067 298.701 175.233 296.308 170.069C293.864 164.799 287.653 157.256 277.651 156.247C266.324 155.103 257.996 160.172 253.543 168.839C250.544 174.676 250.843 180.749 251.044 182.729C251.281 180.136 251.943 176.949 253.543 173.835Z" fill="#263236"/>
<path d="M267.128 175.472C267.128 171.333 270.482 167.977 274.624 167.977C278.762 167.977 282.118 171.333 282.118 175.472C282.118 179.612 278.762 182.968 274.624 182.968C270.482 182.968 267.128 179.612 267.128 175.472Z" fill="#263236"/>
<path d="M202.369 116.195C186.733 116.195 154.973 116.195 154.973 116.195L140.66 135.116V145.931L149.084 154.207L161.192 167.977L167.057 174.74L237.017 176.751L250.925 170.329C253.391 163.124 257.951 159.516 261.543 157.933C261.647 156.085 261.598 155.177 261 152.732C259.99 148.603 253.19 146.009 251.264 144.105C250.112 142.967 249.04 140.208 248.338 138.149C248.338 138.149 248.339 138.149 241.079 133.592C233.819 129.035 218.008 116.195 202.369 116.195ZM202.369 117.133C215.194 117.133 228.47 126.191 236.402 131.601C238.006 132.697 239.392 133.643 240.58 134.388L247.559 138.769C248.625 141.837 249.623 143.803 250.604 144.773C251.281 145.443 252.389 146.124 253.672 146.913C256.261 148.505 259.485 150.488 260.089 152.956C260.611 155.091 260.688 155.972 260.633 157.319C257.661 158.756 252.857 162.141 250.172 169.644L236.823 175.805L167.496 173.813L161.896 167.357L149.788 153.587L141.599 145.536V135.431L155.44 117.133H202.369Z" fill="#263236"/>
<path d="M250.925 170.329H163.953C163.645 169.497 163.272 168.701 162.815 167.977C159.296 162.391 153.508 153.799 148.143 151.016C142.776 148.233 142.557 146.443 142.44 143.153C142.417 142.496 142.359 141.78 142.279 141.055C141.915 137.721 142.748 134.303 144.933 131.759C145.146 131.513 145.349 131.261 145.536 131.008C147.093 128.903 157.038 116.376 157.172 116.209L152.509 116.195C152.509 116.195 142.429 128.888 140.862 131.008C139.293 133.128 136.644 135.116 136.644 135.116C133.86 136.827 129.78 139.289 126.936 139.485C122.248 139.809 116.112 139.696 112.953 141.523C109.796 143.349 101.534 147.432 95.9078 148.016C90.7918 148.547 83.6945 148.496 82.4438 148.481C81.2691 149.967 80.6225 151.244 80.5185 151.876C80.1118 154.336 79.8198 156.035 79.9958 158.741L80.4785 166.141L81.0705 167.324C83.0838 171.34 87.1252 173.941 91.6145 174.111L104.054 174.519C107.7 174.639 110.846 172.301 112.152 168.897C112.274 168.58 112.411 168.271 112.561 167.977C117.015 159.311 125.578 152.44 139.768 154.192C140.618 154.297 141.434 154.428 142.232 154.603C143.285 154.796 145.081 155.255 146.76 156.176C149.709 157.795 152.619 160.571 152.768 160.713C153.716 161.747 155.662 164.044 158.141 167.977C158.688 168.845 159.108 169.816 159.445 170.829C159.679 171.585 160.11 173.164 160.393 175.244C160.873 179.421 160.369 183.172 160.369 183.172H248.716C248.716 183.157 248.708 181.992 248.746 181.044C249.009 178.347 248.665 175.048 250.925 170.329Z" fill="#263236"/>
<path d="M32.5438 203.543C32.5438 201.531 34.1758 199.897 36.1905 199.897C38.2025 199.897 39.8345 201.531 39.8345 203.543C39.8345 205.556 38.2025 207.188 36.1905 207.188C34.1758 207.188 32.5438 205.556 32.5438 203.543Z" fill="#201600"/>
<path d="M32.5438 203.543C32.5438 201.531 34.1758 199.897 36.1905 199.897C38.2025 199.897 39.8345 201.531 39.8345 203.543C39.8345 205.556 38.2025 207.188 36.1905 207.188C34.1758 207.188 32.5438 205.556 32.5438 203.543Z" fill="#201600"/>
<path d="M32.5438 203.543C32.5438 201.531 34.1758 199.897 36.1905 199.897C38.2025 199.897 39.8345 201.531 39.8345 203.543C39.8345 205.556 38.2025 207.188 36.1905 207.188C34.1758 207.188 32.5438 205.556 32.5438 203.543Z" fill="#201600"/>
<path d="M55.5906 184.141H347.953C358.668 184.141 367.355 192.828 367.355 203.543C367.355 214.257 358.668 222.945 347.953 222.945H55.5906C44.8759 222.945 36.1906 214.257 36.1906 203.543C36.1906 192.828 44.8759 184.141 55.5906 184.141Z" fill="#BA7000"/>
<path d="M55.5905 185.183C45.4679 185.183 37.2319 193.42 37.2319 203.543C37.2319 213.667 45.4679 221.903 55.5905 221.903H347.953C358.077 221.903 366.312 213.667 366.312 203.543C366.312 193.42 358.077 185.183 347.953 185.183H55.5905ZM347.953 223.985H55.5905C44.3185 223.985 35.1479 214.815 35.1479 203.543C35.1479 192.271 44.3185 183.1 55.5905 183.1H347.953C359.224 183.1 368.396 192.271 368.396 203.543C368.396 214.815 359.224 223.985 347.953 223.985Z" fill="#201600"/>
<path d="M55.5905 217.736C47.7638 217.736 41.3972 211.369 41.3972 203.543C41.3972 195.717 47.7638 189.351 55.5905 189.351H347.953C355.78 189.351 362.146 195.717 362.146 203.543C362.146 211.369 355.78 217.736 347.953 217.736H55.5905Z" fill="#FFB413"/>
<path d="M55.5905 190.392C48.3385 190.392 42.4399 196.291 42.4399 203.544C42.4399 210.795 48.3385 216.695 55.5905 216.695H347.953C355.205 216.695 361.104 210.795 361.104 203.544C361.104 196.291 355.205 190.392 347.953 190.392H55.5905ZM347.953 218.777H55.5905C47.1905 218.777 40.3559 211.944 40.3559 203.544C40.3559 195.143 47.1905 188.309 55.5905 188.309H347.953C356.355 188.309 363.189 195.143 363.189 203.544C363.189 211.944 356.355 218.777 347.953 218.777Z" fill="#201600"/>
<path d="M55.5905 215.653C48.9132 215.653 43.4799 210.223 43.4799 203.543C43.4799 196.865 48.9132 191.433 55.5905 191.433H347.953C354.632 191.433 360.064 196.865 360.064 203.543C360.064 210.223 354.632 215.653 347.953 215.653H55.5905Z" fill="#FFB413"/>
<path d="M48.6732 203.676C48.6732 199.505 52.0532 196.124 56.2239 196.124C60.3945 196.124 63.7745 199.505 63.7745 203.676C63.7745 207.847 60.3945 211.227 56.2239 211.227C52.0532 211.227 48.6732 207.847 48.6732 203.676Z" fill="#FFB413"/>
<path d="M56.2239 197.167C52.6346 197.167 49.7146 200.087 49.7146 203.676C49.7146 207.265 52.6346 210.185 56.2239 210.185C59.8132 210.185 62.7346 207.265 62.7346 203.676C62.7346 200.087 59.8132 197.167 56.2239 197.167ZM56.2239 212.268C51.4866 212.268 47.6319 208.415 47.6319 203.676C47.6319 198.937 51.4866 195.084 56.2239 195.084C60.9626 195.084 64.8172 198.937 64.8172 203.676C64.8172 208.415 60.9626 212.268 56.2239 212.268Z" fill="#201600"/>
<path d="M52.7532 203.676C52.7532 201.757 54.3079 200.204 56.2239 200.204C58.1425 200.204 59.6972 201.757 59.6972 203.676C59.6972 205.593 58.1425 207.147 56.2239 207.147C54.3079 207.147 52.7532 205.593 52.7532 203.676Z" fill="#201600"/>
<path d="M340.791 203.676C340.791 199.505 344.171 196.124 348.341 196.124C352.512 196.124 355.892 199.505 355.892 203.676C355.892 207.847 352.512 211.227 348.341 211.227C344.171 211.227 340.791 207.847 340.791 203.676Z" fill="#FFB413"/>
<path d="M348.341 197.167C344.752 197.167 341.832 200.087 341.832 203.676C341.832 207.265 344.752 210.185 348.341 210.185C351.931 210.185 354.852 207.265 354.852 203.676C354.852 200.087 351.931 197.167 348.341 197.167ZM348.341 212.268C343.603 212.268 339.749 208.415 339.749 203.676C339.749 198.937 343.603 195.084 348.341 195.084C353.08 195.084 356.935 198.937 356.935 203.676C356.935 208.415 353.08 212.268 348.341 212.268Z" fill="#201600"/>
<path d="M344.869 203.676C344.869 201.757 346.424 200.204 348.341 200.204C350.259 200.204 351.813 201.757 351.813 203.676C351.813 205.593 350.259 207.147 348.341 207.147C346.424 207.147 344.869 205.593 344.869 203.676Z" fill="#201600"/>
<path d="M251.624 203.676C251.624 197.806 256.383 193.046 262.255 193.046C268.124 193.046 272.883 197.806 272.883 203.676C272.883 209.547 268.124 214.307 262.255 214.307C256.383 214.307 251.624 209.547 251.624 203.676Z" fill="#FFB413"/>
<path d="M262.255 194.087C256.967 194.087 252.665 198.389 252.665 203.676C252.665 208.963 256.967 213.264 262.255 213.264C267.54 213.264 271.841 208.963 271.841 203.676C271.841 198.389 267.54 194.087 262.255 194.087ZM262.255 215.347C255.816 215.347 250.581 210.112 250.581 203.676C250.581 197.24 255.816 192.004 262.255 192.004C268.689 192.004 273.925 197.24 273.925 203.676C273.925 210.112 268.689 215.347 262.255 215.347Z" fill="#201600"/>
<path d="M257.367 203.676C257.367 200.977 259.555 198.788 262.255 198.788C264.952 198.788 267.141 200.977 267.141 203.676C267.141 206.375 264.952 208.563 262.255 208.563C259.555 208.563 257.367 206.375 257.367 203.676Z" fill="#201600"/>
<path d="M135.869 203.676C135.869 197.806 140.629 193.046 146.5 193.046C152.371 193.046 157.131 197.806 157.131 203.676C157.131 209.547 152.371 214.307 146.5 214.307C140.629 214.307 135.869 209.547 135.869 203.676Z" fill="#FFB413"/>
<path d="M146.5 194.087C141.213 194.087 136.913 198.389 136.913 203.676C136.913 208.963 141.213 213.264 146.5 213.264C151.788 213.264 156.088 208.963 156.088 203.676C156.088 198.389 151.788 194.087 146.5 194.087ZM146.5 215.347C140.065 215.347 134.829 210.112 134.829 203.676C134.829 197.24 140.065 192.004 146.5 192.004C152.936 192.004 158.172 197.24 158.172 203.676C158.172 210.112 152.936 215.347 146.5 215.347Z" fill="#201600"/>
<path d="M141.613 203.676C141.613 200.977 143.801 198.788 146.5 198.788C149.2 198.788 151.388 200.977 151.388 203.676C151.388 206.375 149.2 208.563 146.5 208.563C143.801 208.563 141.613 206.375 141.613 203.676Z" fill="#201600"/>
<path d="M196.066 182.729H194.349V116.167H196.066V182.729Z" fill="#789CA6"/>
<path d="M45.5092 105.723L60.1719 104.472L60.0319 102.813C59.9212 101.519 58.9825 100.447 57.7185 100.171L51.1119 98.7227C47.9746 98.0347 45.0719 100.595 45.3465 103.811L45.5092 105.723Z" fill="#1D1811"/>
<path d="M57.6799 104.815L63.2146 113.812L63.9492 113.36C64.5239 113.005 64.8012 112.316 64.6332 111.661L62.2359 105.799C61.8185 104.171 59.9532 103.413 58.5292 104.292L57.6799 104.815Z" fill="#494642"/>
<path d="M58.3159 104.407L63.8519 113.404L64.5866 112.949C65.1599 112.596 65.4372 111.907 65.2692 111.252L62.8718 105.389C62.4558 103.761 60.5905 103.004 59.1652 103.883L58.3159 104.407Z" fill="#1D1811"/>
<path d="M59.3532 100.291C57.5386 100.349 56.1172 101.873 56.1772 103.695C56.2372 105.516 57.7559 106.945 59.5679 106.887C61.3812 106.828 62.8025 105.304 62.7439 103.483C62.6839 101.661 61.1652 100.232 59.3532 100.291Z" fill="#FFB413"/>
<path d="M59.4199 102.357C58.7426 102.379 58.2105 102.948 58.2332 103.628C58.2558 104.309 58.8225 104.843 59.4998 104.821C60.1785 104.799 60.7092 104.229 60.6866 103.549C60.6639 102.868 60.0972 102.335 59.4199 102.357Z" fill="#1D1811"/>
<path d="M118.593 109.829L112.276 118.196L112.963 118.719C113.497 119.128 114.235 119.14 114.78 118.749L119.333 114.425C120.688 113.457 120.713 111.448 119.384 110.433L118.593 109.829Z" fill="#494642"/>
<path d="M113.361 98.8254L119.824 112.045L121.307 111.323C122.464 110.759 123.116 109.503 122.915 108.225L121.863 101.552C121.363 98.3814 117.944 96.5894 115.071 97.9908L113.361 98.8254Z" fill="#1D1811"/>
<path d="M119.213 110.293L112.896 118.66L113.581 119.183C114.116 119.591 114.853 119.604 115.399 119.213L119.953 114.891C121.308 113.921 121.332 111.912 120.004 110.897L119.213 110.293Z" fill="#1D1811"/>
<path d="M123.393 109.791C122.682 108.121 120.758 107.34 119.096 108.045C117.434 108.751 116.662 110.675 117.372 112.343C118.082 114.012 120.005 114.795 121.668 114.089C123.33 113.384 124.102 111.46 123.393 109.791Z" fill="#FFB413"/>
<path d="M121.508 87.8374C121.243 87.2147 120.524 86.9214 119.903 87.1854C119.281 87.4494 118.992 88.1681 119.257 88.7907C119.524 89.4147 120.243 89.7067 120.864 89.444C121.484 89.18 121.772 88.4614 121.508 87.8374Z" fill="#1D1811"/>
<path d="M112.643 104.128C112.528 100.94 111.44 96.3202 111.382 96.0455C108.598 97.7562 104.52 100.219 101.676 100.415C96.9865 100.739 90.8518 100.626 87.6932 102.452C84.5345 104.28 76.2732 108.363 70.6465 108.946C65.5318 109.478 58.4332 109.426 57.1839 109.412C56.0092 110.896 55.3625 112.174 55.2572 112.806C54.8518 115.266 54.5598 116.966 54.7358 119.671L55.2172 127.071L55.8105 128.254C57.8225 132.27 61.8652 134.871 66.3545 135.04L85.5625 135.671C85.9492 133.742 86.2439 130.964 87.3012 128.907C91.7545 120.24 98.6225 113.994 113.996 115.855C114.859 115.959 115.687 116.094 116.495 116.274L118.525 112.082L118.366 111.991C113 109.208 112.759 107.418 112.643 104.128Z" fill="#9AC8D4"/>
<path d="M112.11 99.6602C110.173 99.5828 108.213 99.5042 106.229 99.4228C105.887 99.4095 105.497 99.4242 105.118 99.4335C103.889 99.9522 102.701 100.324 101.676 100.395C100.232 100.495 98.6505 100.558 97.0625 100.643C88.0078 102.791 77.0572 107.43 74.5212 111.838C73.3798 113.819 75.2025 117.042 76.6518 116.264C84.3052 112.159 99.6718 107.027 114.154 109.043C112.837 107.579 112.713 106.126 112.643 104.11C112.592 102.734 112.361 101.104 112.11 99.6602Z" fill="#A7D9E6"/>
<path d="M85.4572 125.193L58.9958 124.583C58.9958 124.583 57.6545 126.719 63.1412 128.784C65.9878 129.857 79.5879 129.731 81.3399 129.164C86.7892 127.404 85.4572 125.193 85.4572 125.193Z" fill="#789CA6"/>
<path d="M55.6799 126.946L56.2292 128.043C58.1666 131.907 62.0532 134.408 66.3706 134.571L85.1772 135.188C85.2332 134.891 85.2879 134.578 85.3439 134.254C85.6452 132.526 86.0212 130.374 86.8825 128.692C90.6212 121.42 97.0879 113.342 114.052 115.388C114.836 115.483 115.553 115.598 116.232 115.738L117.908 112.28C112.609 109.48 112.295 107.551 112.173 104.146C112.109 102.371 111.717 99.7736 111.067 96.7896C107.881 98.7296 104.361 100.699 101.708 100.883C100.788 100.947 99.8132 100.994 98.8159 101.04C94.8585 101.231 90.3706 101.446 87.9292 102.859C85.1359 104.475 76.5932 108.802 70.6959 109.414C65.8479 109.916 59.2052 109.9 57.4119 109.883C56.3679 111.238 55.8052 112.378 55.7212 112.882L55.6999 113.014C55.3132 115.35 55.0346 117.038 55.2039 119.64L55.6799 126.946ZM85.9452 136.151L66.3385 135.508C61.6759 135.334 57.4799 132.634 55.3919 128.464L54.7492 127.102L54.2665 119.702C54.0905 116.991 54.3759 115.258 54.7732 112.862L54.7946 112.728C54.9306 111.907 55.7052 110.524 56.8146 109.12L56.9586 108.94L57.1892 108.943C58.5399 108.956 65.5612 109.002 70.5986 108.479C76.3332 107.884 84.7146 103.634 87.4599 102.046C90.0985 100.519 94.7052 100.299 98.7719 100.103C99.7612 100.056 100.731 100.01 101.644 99.9469C104.457 99.7535 108.639 97.1829 111.137 95.6455L111.704 95.2976L111.869 96.0749C112.601 99.3269 113.041 102.18 113.111 104.111C113.219 107.15 113.279 108.824 118.583 111.574L119.063 111.856L118.949 112.286L116.756 116.811L116.392 116.731C115.636 116.563 114.833 116.428 113.939 116.32C97.6465 114.347 91.5385 121.684 87.7185 129.122C86.9212 130.676 86.5746 132.663 86.2679 134.415C86.1866 134.892 86.1052 135.347 86.0226 135.762L85.9452 136.151Z" fill="#789CA6"/>
<path d="M51.8719 72.4414C51.7546 70.8627 51.5226 69.0267 51.276 67.0814C50.32 59.5414 49.1333 50.1547 53.2426 45.5347C60.0893 37.8374 65.024 38.7294 73.192 40.2054C74.14 40.3774 75.1319 40.5574 76.1799 40.7321L75.9853 41.8987C74.9319 41.7214 73.9333 41.5414 72.9826 41.3694C64.9559 39.9214 60.5346 39.1201 54.124 46.3214C50.372 50.5387 51.524 59.6294 52.448 66.9334C52.6973 68.8934 52.9306 70.7427 53.0506 72.3521L51.8719 72.4414Z" fill="#CB3124"/>
<path d="M58.0065 64.4268C57.8879 62.8481 57.6559 61.0121 57.4105 59.0681C56.4545 51.5268 55.2665 42.1401 59.3772 37.5201C66.2239 29.8214 71.1586 30.7148 79.3279 32.1908C80.2746 32.3628 81.2666 32.5427 82.3146 32.7174L82.1212 33.8841C81.0679 33.7081 80.0705 33.5268 79.1185 33.3548C71.0905 31.9067 66.6692 31.1041 60.2599 38.3068C56.5065 42.5241 57.6572 51.6148 58.5839 58.9201C58.8306 60.8801 59.0652 62.7294 59.1852 64.3374L58.0065 64.4268Z" fill="#11A4EE"/>
<path d="M90.2465 56.7041C87.4118 56.7041 84.4772 55.8561 80.9078 54.8254C79.9825 54.5588 79.0132 54.2788 77.9879 53.9974L78.3025 52.8574C79.3318 53.1401 80.3065 53.4214 81.2358 53.6908C89.0705 55.9521 93.3892 57.2014 100.5 50.6908C104.664 46.8788 104.448 37.7174 104.276 30.3561C104.229 28.3828 104.185 26.5174 104.229 24.9068L105.411 24.9401C105.368 26.5214 105.412 28.3708 105.457 30.3294C105.636 37.9294 105.859 47.3881 101.299 51.5628C97.0985 55.4094 93.7505 56.7041 90.2465 56.7041Z" fill="#CB3124"/>
<path d="M49.4239 100.86L48.2692 100.612C48.4918 99.5668 48.7185 98.5774 48.9332 97.6348C50.7532 89.6814 51.7546 85.3001 44.8559 78.5708L45.6799 77.7241C53.0532 84.9174 51.9359 89.8041 50.0879 97.8974C49.8719 98.8361 49.6465 99.8201 49.4239 100.86Z" fill="#CB3124"/>
<path d="M50.7786 112.66L60.5399 116.593L60.2199 117.395C59.9706 118.02 59.3412 118.409 58.6692 118.355L52.5132 116.984C50.8452 116.848 49.7866 115.137 50.4079 113.584L50.7786 112.66Z" fill="#494642"/>
<path d="M49.6105 100.531L50.8625 115.194L49.2105 115.335C47.9225 115.446 46.7118 114.702 46.2265 113.503L43.6905 107.236C42.4838 104.259 44.5065 100.967 47.7051 100.694L49.6105 100.531Z" fill="#1D1811"/>
<path d="M50.4839 113.376L60.2465 117.31L59.9252 118.111C59.6759 118.736 59.0465 119.125 58.3745 119.071L52.2185 117.7C50.5518 117.564 49.4919 115.853 50.1145 114.3L50.4839 113.376Z" fill="#1D1811"/>
<path d="M46.6226 115.092C46.3719 113.296 47.6279 111.637 49.4239 111.388C51.2212 111.139 52.8785 112.393 53.1292 114.189C53.3772 115.987 52.1239 117.645 50.3265 117.893C48.5305 118.144 46.8706 116.889 46.6226 115.092Z" fill="#FFB413"/>
<path d="M48.6599 114.809C48.5665 114.139 49.0345 113.519 49.7065 113.425C50.3772 113.332 50.9972 113.801 51.0905 114.472C51.1839 115.144 50.7145 115.763 50.0438 115.856C49.3718 115.949 48.7532 115.48 48.6599 114.809Z" fill="#1D1811"/>
<path d="M39.7572 95.6255L41.3358 84.5682C41.6878 82.1042 43.9719 80.3908 46.4345 80.7428C48.8985 81.0962 50.6105 83.3788 50.2585 85.8415L48.6798 96.9002C48.3278 99.3642 46.0452 101.076 43.5812 100.724C41.1172 100.372 39.4052 98.0895 39.7572 95.6255Z" fill="#1D1811"/>
<path d="M74.4399 59.8015L50.8586 89.4015C48.5026 92.3588 44.1972 92.8468 41.2399 90.4908C38.2826 88.1362 37.7959 83.8295 40.1506 80.8722L63.7332 51.2709C66.0892 48.3149 70.3959 47.8268 73.3519 50.1828C76.3092 52.5375 76.7959 56.8442 74.4399 59.8015Z" fill="#FFA000"/>
<path d="M67.4518 53.4121L48.3679 77.3655C47.8492 78.0175 46.8999 78.1242 46.2479 77.6055C45.5945 77.0855 45.4878 76.1361 46.0078 75.4828L65.0905 51.5295C65.6092 50.8775 66.5599 50.7708 67.2119 51.2895C67.8652 51.8095 67.9718 52.7588 67.4518 53.4121Z" fill="#FFD375"/>
<path d="M42.2011 89.2828C39.8971 87.4482 39.5172 84.0909 41.3532 81.7869C43.1891 79.4829 46.5451 79.1029 48.8491 80.9389C51.1531 82.7749 51.5345 86.1309 49.6985 88.4349C47.8625 90.7402 44.5051 91.1188 42.2011 89.2828Z" fill="#1D1811"/>
<path d="M45.5625 91.6868C44.1345 91.6868 42.6972 91.2214 41.4932 90.2641C40.1292 89.1761 39.2692 87.6201 39.0718 85.8814C38.8745 84.1428 39.3665 82.4348 40.4518 81.0708C40.5905 80.8961 40.8439 80.8681 41.0199 81.0055C41.1932 81.1455 41.2212 81.3988 41.0839 81.5721C40.1292 82.7681 39.6999 84.2668 39.8705 85.7908C40.0439 87.3161 40.7985 88.6801 41.9959 89.6348C44.4705 91.6054 48.0865 91.1948 50.0572 88.7214C50.1958 88.5468 50.4478 88.5201 50.6238 88.6574C50.7985 88.7961 50.8252 89.0494 50.6878 89.2228C49.3972 90.8428 47.4879 91.6868 45.5625 91.6868Z" fill="#FFA000"/>
<path d="M37.4239 99.636C37.8599 95.948 41.2013 93.3119 44.8893 93.7479C48.5773 94.1826 51.2119 97.5253 50.7773 101.213C50.3413 104.9 46.9986 107.537 43.312 107.101C39.624 106.665 36.9866 103.323 37.4239 99.636Z" fill="#FFB413"/>
<path d="M41.6052 100.129C41.7678 98.752 43.0172 97.7667 44.3946 97.9294C45.7719 98.092 46.7572 99.3414 46.5946 100.719C46.4319 102.097 45.1839 103.083 43.8065 102.919C42.4265 102.756 41.4425 101.507 41.6052 100.129Z" fill="#1D1811"/>
<path d="M66.2839 65.1653C66.4866 65.3253 66.5225 65.62 66.3625 65.8227C66.2012 66.0267 65.9065 66.06 65.7025 65.9C65.4999 65.74 65.4665 65.4453 65.6265 65.2413C65.7865 65.0387 66.0812 65.004 66.2839 65.1653Z" fill="#1D1811"/>
<path d="M65.3932 66.2921C65.5959 66.4534 65.6319 66.7481 65.4706 66.9508C65.3106 67.1534 65.0159 67.1881 64.8132 67.0281C64.6092 66.8668 64.5746 66.5721 64.7346 66.3694C64.8959 66.1668 65.1906 66.1321 65.3932 66.2921Z" fill="#1D1811"/>
<path d="M64.5025 67.42C64.7052 67.5814 64.7398 67.876 64.5798 68.0787C64.4198 68.2814 64.1238 68.316 63.9212 68.156C63.7172 67.996 63.6838 67.7 63.8438 67.4974C64.0038 67.2947 64.2998 67.26 64.5025 67.42Z" fill="#1D1811"/>
<path d="M63.6106 68.5482C63.8132 68.7082 63.8492 69.0029 63.6879 69.2069C63.5279 69.4095 63.2332 69.4442 63.0306 69.2842C62.8266 69.1229 62.7919 68.8282 62.9519 68.6255C63.1132 68.4229 63.4079 68.3882 63.6106 68.5482Z" fill="#1D1811"/>
<path d="M62.7199 69.6762C62.9239 69.8362 62.9572 70.1321 62.7972 70.3348C62.6372 70.5375 62.3412 70.5721 62.1385 70.4121C61.9345 70.2521 61.9013 69.9561 62.0613 69.7535C62.2213 69.5508 62.5173 69.5162 62.7199 69.6762Z" fill="#1D1811"/>
<path d="M61.8279 70.8041C62.0319 70.9641 62.0665 71.2587 61.9065 71.4627C61.7452 71.6654 61.4505 71.7001 61.2478 71.5401C61.0438 71.3787 61.0092 71.0854 61.1705 70.8814C61.3305 70.6787 61.6252 70.6441 61.8279 70.8041Z" fill="#1D1811"/>
<path d="M65.2785 64.3694C65.4812 64.5307 65.5172 64.8254 65.3572 65.0294C65.1959 65.2321 64.9012 65.2667 64.6985 65.1054C64.4945 64.9454 64.4599 64.6507 64.6212 64.448C64.7812 64.244 65.0759 64.2094 65.2785 64.3694Z" fill="#1D1811"/>
<path d="M64.3878 65.4988C64.5905 65.6588 64.6252 65.9535 64.4652 66.1562C64.3052 66.3602 64.0105 66.3935 63.8078 66.2335C63.6025 66.0735 63.5692 65.7788 63.7292 65.5748C63.8905 65.3722 64.1852 65.3375 64.3878 65.4988Z" fill="#1D1811"/>
<path d="M63.4958 66.6254C63.7012 66.7867 63.7345 67.0813 63.5745 67.284C63.4145 67.488 63.1185 67.5227 62.9158 67.3614C62.7118 67.2014 62.6785 66.9067 62.8385 66.7027C62.9985 66.5 63.2932 66.4654 63.4958 66.6254Z" fill="#1D1811"/>
<path d="M62.6052 67.7533C62.8092 67.9146 62.8439 68.2093 62.6825 68.4119C62.5225 68.6146 62.2279 68.6493 62.0252 68.4893C61.8212 68.3293 61.7865 68.0346 61.9465 67.8306C62.1078 67.628 62.4025 67.5933 62.6052 67.7533Z" fill="#1D1811"/>
<path d="M61.7146 68.8815C61.9186 69.0428 61.952 69.3375 61.792 69.5415C61.632 69.7429 61.3359 69.7788 61.1332 69.6175C60.9292 69.4575 60.896 69.1629 61.056 68.9589C61.216 68.7562 61.5119 68.7215 61.7146 68.8815Z" fill="#1D1811"/>
<path d="M60.8225 70.0094C61.0265 70.1707 61.0611 70.4654 60.8998 70.6681C60.7398 70.8707 60.4452 70.9054 60.2425 70.7454C60.0385 70.5854 60.0038 70.2907 60.1638 70.0867C60.3251 69.884 60.6199 69.8494 60.8225 70.0094Z" fill="#1D1811"/>
<path d="M64.2732 63.5761C64.4772 63.7361 64.5118 64.032 64.3518 64.2347C64.1905 64.4374 63.8958 64.472 63.6932 64.312C63.4892 64.1507 63.4545 63.856 63.6158 63.6534C63.7758 63.4507 64.0705 63.4147 64.2732 63.5761Z" fill="#1D1811"/>
<path d="M63.3826 64.704C63.5866 64.864 63.6199 65.1586 63.4599 65.3626C63.2999 65.5653 63.0039 65.6 62.8012 65.44C62.5972 65.2786 62.5639 64.9839 62.7239 64.7813C62.8839 64.5773 63.1799 64.5426 63.3826 64.704Z" fill="#1D1811"/>
<path d="M62.4905 65.8322C62.6945 65.9922 62.7292 66.2868 62.5692 66.4908C62.4078 66.6935 62.1132 66.7282 61.9105 66.5668C61.7065 66.4068 61.6718 66.1122 61.8332 65.9095C61.9932 65.7055 62.2879 65.6722 62.4905 65.8322Z" fill="#1D1811"/>
<path d="M61.5998 66.9602C61.8038 67.1202 61.8371 67.4148 61.6771 67.6175C61.5171 67.8215 61.2225 67.8562 61.0199 67.6962C60.8159 67.5348 60.7811 67.2402 60.9411 67.0362C61.1011 66.8335 61.3971 66.7988 61.5998 66.9602Z" fill="#1D1811"/>
<path d="M60.7092 68.0868C60.9119 68.2481 60.9466 68.5428 60.7866 68.7454C60.6252 68.9494 60.3306 68.9841 60.1279 68.8228C59.9239 68.6628 59.8906 68.3681 60.0506 68.1655C60.2106 67.9615 60.5052 67.9268 60.7092 68.0868Z" fill="#1D1811"/>
<path d="M59.8172 69.2161C60.0212 69.3761 60.0559 69.6708 59.8945 69.8748C59.7345 70.0761 59.4398 70.1121 59.2372 69.9508C59.0345 69.7908 58.9985 69.4961 59.1585 69.2934C59.3199 69.0894 59.6145 69.0548 59.8172 69.2161Z" fill="#1D1811"/>
<path d="M63.2679 62.7813C63.4719 62.9427 63.5065 63.2374 63.3452 63.44C63.1852 63.6427 62.8905 63.6773 62.6878 63.5173C62.4838 63.3573 62.4492 63.0627 62.6092 62.8587C62.7705 62.656 63.0652 62.6213 63.2679 62.7813Z" fill="#1D1811"/>
<path d="M62.3772 63.9096C62.5812 64.0696 62.6145 64.3655 62.4545 64.5682C62.2945 64.7709 61.9985 64.8055 61.7959 64.6455C61.5919 64.4842 61.5585 64.1895 61.7185 63.9869C61.8785 63.7842 62.1745 63.7482 62.3772 63.9096Z" fill="#1D1811"/>
<path d="M61.4852 65.0375C61.6892 65.1988 61.7239 65.4935 61.5639 65.6961C61.4025 65.8988 61.1079 65.9335 60.9052 65.7735C60.7012 65.6121 60.6666 65.3174 60.8279 65.1148C60.9879 64.9121 61.2826 64.8775 61.4852 65.0375Z" fill="#1D1811"/>
<path d="M60.5945 66.1654C60.7985 66.3254 60.8318 66.62 60.6718 66.824C60.5118 67.0267 60.2172 67.0614 60.0132 66.9014C59.8105 66.7401 59.7758 66.4454 59.9358 66.2427C60.0958 66.0387 60.3919 66.0054 60.5945 66.1654Z" fill="#1D1811"/>
<path d="M59.7025 67.2933C59.9065 67.4533 59.9412 67.748 59.7812 67.952C59.6199 68.1546 59.3252 68.1893 59.1225 68.0293C58.9199 67.868 58.8852 67.5733 59.0452 67.3707C59.2052 67.1667 59.4998 67.1333 59.7025 67.2933Z" fill="#1D1811"/>
<path d="M58.8132 68.4214C59.0158 68.5814 59.0506 68.876 58.8892 69.0787C58.7292 69.2827 58.4345 69.3174 58.2319 69.1574C58.0292 68.996 57.9932 68.7014 58.1532 68.4987C58.3146 68.2947 58.6092 68.26 58.8132 68.4214Z" fill="#1D1811"/>
<path d="M113.06 97.8601C112.548 96.9281 112.051 96.0508 111.576 95.2121C107.481 87.9934 105.012 83.6361 109.968 74.6348L111.001 75.2041C106.363 83.6268 108.579 87.5361 112.603 94.6308C113.08 95.4734 113.581 96.3561 114.095 97.2921L113.06 97.8601Z" fill="#CB3124"/>
<path d="M122.06 98.3162L120.951 97.9202C124.188 88.8548 121.379 85.3508 116.279 78.9868C115.673 78.2335 115.04 77.4428 114.384 76.6015L115.313 75.8762C115.967 76.7122 116.597 77.5002 117.199 78.2495C122.388 84.7242 125.52 88.6322 122.06 98.3162Z" fill="#11A4EE"/>
<path d="M119.531 101.184L106.365 107.607L105.635 106.112C105.064 104.944 105.313 103.545 106.252 102.661L111.149 98.0414C113.477 95.8467 117.271 96.56 118.688 99.4587L119.531 101.184Z" fill="#1D1811"/>
<path d="M108.671 106.628L108.565 117.176L107.704 117.164C107.033 117.153 106.442 116.704 106.249 116.056L105.284 109.8C104.805 108.191 106.009 106.587 107.677 106.612L108.671 106.628Z" fill="#494642"/>
<path d="M107.916 106.603L107.812 117.152L106.951 117.139C106.279 117.128 105.689 116.679 105.495 116.031L104.531 109.775C104.049 108.165 105.255 106.56 106.924 106.587L107.916 106.603Z" fill="#1D1811"/>
<path d="M104.918 103.6C106.496 102.724 108.493 103.304 109.377 104.897C110.262 106.491 109.701 108.493 108.121 109.369C106.543 110.247 104.547 109.667 103.661 108.073C102.777 106.48 103.34 104.477 104.918 103.6Z" fill="#FFB413"/>
<path d="M105.923 105.408C106.512 105.08 107.257 105.297 107.588 105.892C107.919 106.487 107.708 107.235 107.119 107.563C106.529 107.891 105.783 107.673 105.452 107.079C105.121 106.483 105.332 105.735 105.923 105.408Z" fill="#1D1811"/>
<path d="M120.769 90.0761L116.08 79.9401C115.035 77.6814 112.365 76.6961 110.117 77.7401C107.869 78.7841 106.896 81.4601 107.941 83.7187L112.632 93.8547C113.677 96.1134 116.347 97.0987 118.593 96.0547C120.841 95.0107 121.815 92.3347 120.769 90.0761Z" fill="#1D1811"/>
<path d="M81.5505 58.7055L107.291 86.3588C109.863 89.1201 114.173 89.2681 116.921 86.6868C119.668 84.1068 119.812 79.7748 117.241 77.0121L91.4998 49.3601C88.9278 46.5975 84.6172 46.4508 81.8692 49.0321C79.1225 51.6121 78.9799 55.9428 81.5505 58.7055Z" fill="#FFA000"/>
<path d="M87.9798 51.7867L108.809 74.1628C109.376 74.7721 110.326 74.8054 110.933 74.2361C111.538 73.6668 111.57 72.7108 111.004 72.1014L90.1745 49.7241C89.6065 49.1161 88.6558 49.0841 88.0491 49.6521C87.4438 50.2214 87.4131 51.1774 87.9798 51.7867Z" fill="#FFD375"/>
<path d="M115.871 85.56C118.013 83.548 118.124 80.172 116.12 78.0187C114.117 75.8653 110.757 75.752 108.615 77.7627C106.473 79.7747 106.363 83.1507 108.367 85.304C110.369 87.456 113.729 87.5707 115.871 85.56Z" fill="#1D1811"/>
<path d="M112.212 88.2388L111.988 88.2348C110.248 88.1761 108.633 87.4428 107.445 86.1668C107.295 86.0041 107.304 85.7494 107.466 85.5988C107.629 85.4481 107.88 85.4561 108.035 85.6188C109.075 86.7374 110.488 87.3814 112.016 87.4321C113.563 87.4814 114.992 86.9374 116.102 85.8934C118.403 83.7334 118.524 80.0947 116.369 77.7814C116.219 77.6201 116.228 77.3654 116.391 77.2147C116.555 77.0641 116.807 77.0721 116.959 77.2348C119.412 79.8694 119.275 84.0174 116.652 86.4787C115.439 87.6187 113.869 88.2388 112.212 88.2388Z" fill="#FFA000"/>
<path d="M123.31 91.8267C121.042 88.8854 116.835 88.332 113.909 90.5907C110.983 92.8507 110.449 97.0667 112.715 100.007C114.981 102.949 119.19 103.501 122.116 101.243C125.041 98.9827 125.576 94.768 123.31 91.8267Z" fill="#FFB413"/>
<path d="M119.992 94.3881C119.145 93.2894 117.573 93.0828 116.48 93.9268C115.387 94.7708 115.187 96.3467 116.033 97.4454C116.88 98.5441 118.452 98.7508 119.545 97.9068C120.639 97.0628 120.839 95.4867 119.992 94.3881Z" fill="#1D1811"/>
<path d="M93.9013 67.7895C93.7119 67.9655 93.7013 68.2628 93.8759 68.4535C94.0506 68.6415 94.3466 68.6535 94.5346 68.4775C94.7239 68.3015 94.7359 68.0055 94.5599 67.8148C94.3853 67.6255 94.0906 67.6148 93.9013 67.7895Z" fill="#1D1811"/>
<path d="M94.8732 68.844C94.6852 69.02 94.6745 69.3161 94.8492 69.5067C95.0252 69.6961 95.3199 69.708 95.5092 69.532C95.6986 69.356 95.7079 69.06 95.5346 68.8694C95.3586 68.6787 95.0626 68.668 94.8732 68.844Z" fill="#1D1811"/>
<path d="M95.8479 69.8989C95.6586 70.0749 95.6466 70.3709 95.8226 70.5602C95.9986 70.7509 96.2932 70.7629 96.4825 70.5869C96.6719 70.4095 96.6826 70.1135 96.5066 69.9242C96.3319 69.7335 96.0359 69.7216 95.8479 69.8989Z" fill="#1D1811"/>
<path d="M96.8213 70.9533C96.6333 71.128 96.6212 71.4253 96.7972 71.6146C96.9719 71.8053 97.2666 71.816 97.456 71.64C97.6453 71.464 97.6559 71.1666 97.4799 70.9786C97.3053 70.788 97.0106 70.776 96.8213 70.9533Z" fill="#1D1811"/>
<path d="M97.7946 72.0067C97.6053 72.1827 97.5946 72.4787 97.7692 72.6693C97.9452 72.86 98.2412 72.8707 98.4292 72.6947C98.6186 72.5187 98.6292 72.2213 98.4546 72.032C98.2786 71.8413 97.9826 71.8307 97.7946 72.0067Z" fill="#1D1811"/>
<path d="M98.7679 73.0616C98.5799 73.2376 98.5678 73.5336 98.7438 73.7242C98.9198 73.9136 99.2132 73.9242 99.4025 73.7482C99.5918 73.5736 99.6025 73.2762 99.4265 73.0869C99.2532 72.8962 98.9572 72.8856 98.7679 73.0616Z" fill="#1D1811"/>
<path d="M94.8359 66.9187C94.6465 67.0961 94.6359 67.3907 94.8119 67.5814C94.9852 67.7707 95.2812 67.7828 95.4706 67.6068C95.6586 67.4308 95.6706 67.1347 95.4946 66.9441C95.3186 66.7534 95.0252 66.7427 94.8359 66.9187Z" fill="#1D1811"/>
<path d="M95.8092 67.9735C95.6199 68.1495 95.6092 68.4455 95.7839 68.6361C95.9599 68.8255 96.2559 68.8361 96.4439 68.6615C96.6332 68.4841 96.6439 68.1881 96.4692 67.9988C96.2932 67.8081 95.9972 67.7975 95.8092 67.9735Z" fill="#1D1811"/>
<path d="M96.7825 69.0268C96.5932 69.2028 96.5825 69.5001 96.7572 69.6908C96.9332 69.8801 97.2279 69.8908 97.4172 69.7148C97.6052 69.5388 97.6172 69.2428 97.4412 69.0534C97.2665 68.8628 96.9718 68.8521 96.7825 69.0268Z" fill="#1D1811"/>
<path d="M97.7559 70.0813C97.5666 70.2573 97.5559 70.5547 97.7319 70.744C97.9065 70.9333 98.2012 70.9454 98.3905 70.7694C98.5799 70.5934 98.5905 70.2974 98.4158 70.1067C98.2398 69.9174 97.9452 69.9053 97.7559 70.0813Z" fill="#1D1811"/>
<path d="M98.7292 71.136C98.5399 71.312 98.5306 71.6094 98.7039 71.7987C98.8799 71.988 99.1759 72 99.3652 71.824C99.5532 71.6467 99.5639 71.3507 99.3893 71.1614C99.2133 70.972 98.9186 70.96 98.7292 71.136Z" fill="#1D1811"/>
<path d="M99.7025 72.1907C99.5145 72.3667 99.5025 72.6627 99.6785 72.8533C99.8545 73.0427 100.148 73.0547 100.337 72.8773C100.526 72.7013 100.537 72.4053 100.362 72.216C100.188 72.0253 99.8918 72.0147 99.7025 72.1907Z" fill="#1D1811"/>
<path d="M95.7691 66.0481C95.5811 66.2241 95.5705 66.5201 95.7465 66.7108C95.9212 66.9001 96.2158 66.9122 96.4051 66.7362C96.5931 66.5602 96.6052 66.2628 96.4292 66.0735C96.2545 65.8842 95.9598 65.8721 95.7691 66.0481Z" fill="#1D1811"/>
<path d="M96.7439 67.1027C96.5545 67.2787 96.5439 67.5747 96.7185 67.7641C96.8945 67.9547 97.1906 67.9654 97.3786 67.7894C97.5679 67.6147 97.5785 67.3174 97.4039 67.1267C97.2279 66.9374 96.9319 66.9267 96.7439 67.1027Z" fill="#1D1811"/>
<path d="M97.7173 68.1561C97.5293 68.3321 97.5172 68.6294 97.6932 68.8187C97.8679 69.0081 98.1626 69.0201 98.3519 68.8441C98.5399 68.6681 98.5519 68.3721 98.3759 68.1814C98.2013 67.9921 97.9066 67.9801 97.7173 68.1561Z" fill="#1D1811"/>
<path d="M98.6905 69.2107C98.5012 69.3867 98.4905 69.6828 98.6665 69.8734C98.8412 70.0628 99.1372 70.0747 99.3252 69.8987C99.5146 69.7214 99.5252 69.4254 99.3505 69.2361C99.1745 69.0467 98.8785 69.0347 98.6905 69.2107Z" fill="#1D1811"/>
<path d="M99.6638 70.2654C99.4758 70.4414 99.4652 70.7374 99.6398 70.9267C99.8145 71.1174 100.11 71.128 100.3 70.9534C100.488 70.776 100.499 70.48 100.323 70.2907C100.148 70.1 99.8531 70.0894 99.6638 70.2654Z" fill="#1D1811"/>
<path d="M100.638 71.3187C100.449 71.496 100.437 71.792 100.613 71.9813C100.788 72.172 101.084 72.1827 101.272 72.0067C101.461 71.8307 101.473 71.5347 101.297 71.344C101.121 71.1547 100.826 71.1427 100.638 71.3187Z" fill="#1D1811"/>
<path d="M96.7039 65.1774C96.5159 65.3534 96.5052 65.6494 96.6812 65.8388C96.8559 66.0294 97.1506 66.0414 97.3399 65.8654C97.5292 65.6894 97.5399 65.3921 97.3652 65.2014C97.1892 65.0121 96.8932 65.0014 96.7039 65.1774Z" fill="#1D1811"/>
<path d="M97.6786 66.2321C97.4892 66.4068 97.4799 66.7041 97.6532 66.8935C97.8292 67.0841 98.1252 67.0948 98.3132 66.9188C98.5025 66.7428 98.5132 66.4454 98.3372 66.2574C98.1626 66.0668 97.8679 66.0548 97.6786 66.2321Z" fill="#1D1811"/>
<path d="M98.6519 67.2854C98.4639 67.4614 98.4519 67.7574 98.6279 67.9481C98.8026 68.1374 99.0972 68.1495 99.2866 67.9735C99.4759 67.7975 99.4866 67.5001 99.3119 67.3108C99.1372 67.1201 98.8412 67.1094 98.6519 67.2854Z" fill="#1D1811"/>
<path d="M99.6252 68.3401C99.4359 68.5161 99.4252 68.8121 99.5998 69.0028C99.7758 69.1921 100.072 69.2028 100.26 69.0268C100.449 68.8521 100.46 68.5548 100.285 68.3655C100.109 68.1748 99.8132 68.1641 99.6252 68.3401Z" fill="#1D1811"/>
<path d="M100.599 69.3935C100.411 69.5708 100.399 69.8668 100.575 70.0575C100.751 70.2455 101.044 70.2575 101.235 70.0815C101.424 69.9055 101.433 69.6095 101.257 69.4201C101.084 69.2295 100.788 69.2188 100.599 69.3935Z" fill="#1D1811"/>
<path d="M101.573 70.4481C101.384 70.6241 101.372 70.9214 101.548 71.1107C101.723 71.3014 102.019 71.3121 102.207 71.1361C102.396 70.9601 102.408 70.6641 102.232 70.4734C102.056 70.2841 101.761 70.2721 101.573 70.4481Z" fill="#1D1811"/>
<path d="M192.235 15.7095V21.0962H60.6745V15.7095C60.6745 10.3909 64.9865 6.07751 70.3065 6.07751H182.603C187.923 6.07751 192.235 10.3909 192.235 15.7095Z" fill="#BA7000"/>
<path d="M192.235 18.672V29.176C192.235 31.9374 189.996 34.176 187.235 34.176H60.6745V18.672C60.6745 13.3534 64.9865 9.04136 70.3065 9.04136H182.603C187.923 9.04136 192.235 13.3534 192.235 18.672Z" fill="#FFB413"/>
<path d="M59.5638 55.9801V30.0882H97.8039V55.9801C97.8039 59.2015 95.1918 61.8135 91.9692 61.8135H65.3972C62.1758 61.8135 59.5638 59.2015 59.5638 55.9801Z" fill="#FFB413"/>
<path d="M141.513 10.6547H183.237C185.688 10.6547 187.675 12.6414 187.675 15.0921V26.7294C187.675 29.1801 185.688 31.1667 183.237 31.1667H141.513C139.061 31.1667 137.075 29.1801 137.075 26.7294V15.0921C137.075 12.6414 139.061 10.6547 141.513 10.6547Z" fill="#1D1811"/>
<path d="M72.8572 20.6387L81.5013 11.9947C81.9306 11.564 82.6292 11.564 83.0599 11.9947C83.4892 12.424 83.4892 13.1227 83.0599 13.5534L74.4159 22.196C73.9852 22.6267 73.2879 22.6267 72.8572 22.196C72.4266 21.7667 72.4266 21.0681 72.8572 20.6387Z" fill="#BA7000"/>
<path d="M78.2812 20.6387L86.9238 11.9947C87.3558 11.564 88.0532 11.564 88.4825 11.9947C88.9145 12.424 88.9145 13.1227 88.4825 13.5534L79.8398 22.196C79.4092 22.6267 78.7105 22.6267 78.2812 22.196C77.8505 21.7667 77.8505 21.0681 78.2812 20.6387Z" fill="#BA7000"/>
<path d="M83.7052 20.6387L92.3492 11.9947C92.7785 11.564 93.4772 11.564 93.9079 11.9947C94.3385 12.424 94.3385 13.1227 93.9079 13.5534L85.2639 22.196C84.8332 22.6267 84.1359 22.6267 83.7052 22.196C83.2745 21.7667 83.2745 21.0681 83.7052 20.6387Z" fill="#BA7000"/>
<path d="M89.1292 20.6387L97.7732 11.9947C98.2025 11.564 98.9012 11.564 99.3319 11.9947C99.7612 12.424 99.7612 13.1227 99.3319 13.5534L90.6878 22.196C90.2572 22.6267 89.5599 22.6267 89.1292 22.196C88.6999 21.7667 88.6999 21.0681 89.1292 20.6387Z" fill="#BA7000"/>
<path d="M94.5533 20.6387L103.197 11.9947C103.628 11.564 104.325 11.564 104.756 11.9947C105.187 12.424 105.187 13.1227 104.756 13.5534L96.1119 22.196C95.6813 22.6267 94.9826 22.6267 94.5533 22.196C94.1226 21.7667 94.1226 21.0681 94.5533 20.6387Z" fill="#BA7000"/>
<path d="M99.9785 20.6387L108.621 11.9947C109.052 11.564 109.75 11.564 110.18 11.9947C110.61 12.424 110.61 13.1227 110.18 13.5534L101.536 22.196C101.105 22.6267 100.408 22.6267 99.9785 22.196C99.5465 21.7667 99.5465 21.0681 99.9785 20.6387Z" fill="#BA7000"/>
<path d="M105.401 20.6387L114.045 11.9947C114.476 11.564 115.173 11.564 115.604 11.9947C116.035 12.424 116.035 13.1227 115.604 13.5534L106.96 22.196C106.531 22.6267 105.832 22.6267 105.401 22.196C104.972 21.7667 104.972 21.0681 105.401 20.6387Z" fill="#BA7000"/>
<path d="M110.825 20.6387L119.469 11.9947C119.9 11.564 120.597 11.564 121.029 11.9947C121.459 12.424 121.459 13.1227 121.029 13.5534L112.384 22.196C111.955 22.6267 111.257 22.6267 110.825 22.196C110.395 21.7667 110.395 21.0681 110.825 20.6387Z" fill="#BA7000"/>
<path d="M116.251 20.6387L124.893 11.9947C125.324 11.564 126.023 11.564 126.452 11.9947C126.883 12.424 126.883 13.1227 126.452 13.5534L117.809 22.196C117.377 22.6267 116.68 22.6267 116.251 22.196C115.819 21.7667 115.819 21.0681 116.251 20.6387Z" fill="#BA7000"/>
<path d="M67.5798 14.8722L70.4571 11.9949C70.8878 11.5642 71.5865 11.5642 72.0158 11.9949C72.4465 12.4242 72.4465 13.1229 72.0158 13.5536L69.1385 16.4309C68.7065 16.8616 68.0091 16.8616 67.5798 16.4309C67.1478 16.0002 67.1478 15.3029 67.5798 14.8722Z" fill="#BA7000"/>
<path d="M67.2372 20.6387L75.8812 11.9947C76.3119 11.564 77.0092 11.564 77.4399 11.9947C77.8692 12.424 77.8692 13.1227 77.4399 13.5534L68.7959 22.196C68.3665 22.6267 67.6679 22.6267 67.2372 22.196C66.8079 21.7667 66.8079 21.0681 67.2372 20.6387Z" fill="#BA7000"/>
<path d="M121.985 20.6387L130.629 11.9947C131.06 11.564 131.757 11.564 132.188 11.9947C132.619 12.424 132.619 13.1227 132.188 13.5534L123.544 22.196C123.113 22.6267 122.416 22.6267 121.985 22.196C121.555 21.7667 121.555 21.0681 121.985 20.6387Z" fill="#BA7000"/>
<path d="M127.797 20.6387L130.759 17.6747C131.191 17.2454 131.888 17.2454 132.317 17.6747C132.749 18.1054 132.749 18.8027 132.317 19.2334L129.356 22.196C128.925 22.6267 128.227 22.6267 127.797 22.196C127.367 21.7667 127.367 21.0681 127.797 20.6387Z" fill="#BA7000"/>
<path d="M64.3159 53.6027L68.9292 48.9893C69.1585 48.7587 69.5319 48.7587 69.7599 48.9893C69.9905 49.2187 69.9905 49.5907 69.7599 49.8213L65.1465 54.4347C64.9185 54.664 64.5452 54.664 64.3159 54.4347C64.0865 54.204 64.0865 53.832 64.3159 53.6027Z" fill="#BA7000"/>
<path d="M67.2105 53.6027L71.8239 48.9893C72.0532 48.7587 72.4252 48.7587 72.6559 48.9893C72.8852 49.2187 72.8852 49.5907 72.6559 49.8213L68.0426 54.4347C67.8132 54.664 67.4399 54.664 67.2105 54.4347C66.9799 54.204 66.9799 53.832 67.2105 53.6027Z" fill="#BA7000"/>
<path d="M70.1052 53.6027L74.7185 48.9893C74.9478 48.7587 75.3199 48.7587 75.5505 48.9893C75.7799 49.2187 75.7799 49.5907 75.5505 49.8213L70.9372 54.4347C70.7065 54.664 70.3345 54.664 70.1052 54.4347C69.8758 54.204 69.8758 53.832 70.1052 53.6027Z" fill="#BA7000"/>
<path d="M72.9998 53.6027L77.6132 48.9893C77.8425 48.7587 78.2159 48.7587 78.4452 48.9893C78.6745 49.2187 78.6745 49.5907 78.4452 49.8213L73.8319 54.4347C73.6025 54.664 73.2305 54.664 72.9998 54.4347C72.7705 54.204 72.7705 53.832 72.9998 53.6027Z" fill="#BA7000"/>
<path d="M75.8945 53.6027L80.5078 48.9893C80.7385 48.7587 81.1105 48.7587 81.3398 48.9893C81.5705 49.2187 81.5705 49.5907 81.3398 49.8213L76.7265 54.4347C76.4972 54.664 76.1252 54.664 75.8945 54.4347C75.6652 54.204 75.6652 53.832 75.8945 53.6027Z" fill="#BA7000"/>
<path d="M78.7906 53.6027L83.4025 48.9893C83.6332 48.7587 84.0052 48.7587 84.2346 48.9893C84.4652 49.2187 84.4652 49.5907 84.2346 49.8213L79.6226 54.4347C79.3919 54.664 79.0199 54.664 78.7906 54.4347C78.5599 54.204 78.5599 53.832 78.7906 53.6027Z" fill="#BA7000"/>
<path d="M81.6853 53.6027L86.2986 48.9893C86.5279 48.7587 86.8999 48.7587 87.1306 48.9893C87.3599 49.2187 87.3599 49.5907 87.1306 49.8213L82.5173 54.4347C82.2866 54.664 81.9146 54.664 81.6853 54.4347C81.4546 54.204 81.4546 53.832 81.6853 53.6027Z" fill="#BA7000"/>
<path d="M84.5798 53.6027L89.1932 48.9893C89.4225 48.7587 89.7945 48.7587 90.0252 48.9893C90.2545 49.2187 90.2545 49.5907 90.0252 49.8213L85.4119 54.4347C85.1812 54.664 84.8092 54.664 84.5798 54.4347C84.3505 54.204 84.3505 53.832 84.5798 53.6027Z" fill="#BA7000"/>
<path d="M87.4746 53.6027L92.0879 48.9893C92.3159 48.7587 92.6906 48.7587 92.9199 48.9893C93.1479 49.2187 93.1479 49.5907 92.9199 49.8213L88.3066 54.4347C88.0772 54.664 87.7039 54.664 87.4746 54.4347C87.2452 54.204 87.2452 53.832 87.4746 53.6027Z" fill="#BA7000"/>
<path d="M61.4985 50.5253L63.0345 48.9893C63.2639 48.7586 63.6372 48.7586 63.8679 48.9893C64.0959 49.2186 64.0959 49.5906 63.8679 49.8213L62.3305 51.3573C62.1012 51.5866 61.7292 51.5866 61.4985 51.3573C61.2692 51.1266 61.2692 50.7546 61.4985 50.5253Z" fill="#BA7000"/>
<path d="M61.3158 53.6027L65.9292 48.9893C66.1598 48.7587 66.5332 48.7587 66.7612 48.9893C66.9919 49.2187 66.9919 49.5907 66.7612 49.8213L62.1479 54.4347C61.9199 54.664 61.5465 54.664 61.3158 54.4347C61.0878 54.204 61.0878 53.832 61.3158 53.6027Z" fill="#BA7000"/>
<path d="M90.5345 53.6027L95.1478 48.9893C95.3771 48.7587 95.7504 48.7587 95.9798 48.9893C96.2091 49.2187 96.2091 49.5907 95.9798 49.8213L91.3678 54.4347C91.1385 54.664 90.7638 54.664 90.5345 54.4347C90.3065 54.204 90.3065 53.832 90.5345 53.6027Z" fill="#BA7000"/>
<path d="M93.6372 53.6027L95.2172 52.0213C95.4479 51.7907 95.8199 51.7907 96.0492 52.0213C96.2799 52.2507 96.2799 52.6227 96.0492 52.8533L94.4692 54.4347C94.2398 54.664 93.8679 54.664 93.6372 54.4347C93.4079 54.204 93.4079 53.832 93.6372 53.6027Z" fill="#BA7000"/>
<path d="M78.2812 44.3921C66.0425 44.3921 56.0865 34.4361 56.0865 22.1961C56.0865 9.95743 66.0425 6.86646e-05 78.2812 6.86646e-05C90.5199 6.86646e-05 100.477 9.95743 100.477 22.1961C100.477 34.4361 90.5199 44.3921 78.2812 44.3921Z" fill="#BA7000"/>
<path d="M58.4506 22.1962C58.4506 11.2442 67.3279 2.36553 78.2812 2.36553C89.2332 2.36553 98.1119 11.2442 98.1119 22.1962C98.1119 33.1495 89.2332 42.0269 78.2812 42.0269C67.3279 42.0269 58.4506 33.1495 58.4506 22.1962Z" fill="#FFB413"/>
<path d="M70.3478 22.1961C70.3478 17.8147 73.8998 14.2641 78.2812 14.2641C82.6612 14.2641 86.2131 17.8147 86.2131 22.1961C86.2131 26.5774 82.6612 30.1294 78.2812 30.1294C73.8998 30.1294 70.3478 26.5774 70.3478 22.1961Z" fill="#1D1811"/>
<path d="M72.9066 22.1961C72.9066 19.2295 75.3132 16.8228 78.2812 16.8228C81.2492 16.8228 83.6545 19.2295 83.6545 22.1961C83.6545 25.1655 81.2492 27.5708 78.2812 27.5708C75.3132 27.5708 72.9066 25.1655 72.9066 22.1961Z" fill="#FFB413"/>
<path d="M65.5012 32.5842C65.5012 31.8215 66.1185 31.2042 66.8798 31.2042C67.6425 31.2042 68.2598 31.8215 68.2598 32.5842C68.2598 33.3455 67.6425 33.9629 66.8798 33.9629C66.1185 33.9629 65.5012 33.3455 65.5012 32.5842Z" fill="#1D1811"/>
<path d="M72.8132 37.0707C72.8132 36.3094 73.4305 35.692 74.1932 35.692C74.9545 35.692 75.5718 36.3094 75.5718 37.0707C75.5718 37.8334 74.9545 38.4507 74.1932 38.4507C73.4305 38.4507 72.8132 37.8334 72.8132 37.0707Z" fill="#1D1811"/>
<path d="M81.7225 36.8508C81.7225 36.0881 82.3411 35.4722 83.1025 35.4722C83.8651 35.4722 84.4812 36.0881 84.4812 36.8508C84.4812 37.6121 83.8651 38.2295 83.1025 38.2295C82.3411 38.2295 81.7225 37.6121 81.7225 36.8508Z" fill="#1D1811"/>
<path d="M88.7852 32.0282C88.7852 31.2669 89.4025 30.6495 90.1639 30.6495C90.9252 30.6495 91.5426 31.2669 91.5426 32.0282C91.5426 32.7895 90.9252 33.4082 90.1639 33.4082C89.4025 33.4082 88.7852 32.7895 88.7852 32.0282Z" fill="#1D1811"/>
<path d="M92.2092 24.0854C92.2092 23.3228 92.8265 22.7055 93.5892 22.7055C94.3505 22.7055 94.9678 23.3228 94.9678 24.0854C94.9678 24.8468 94.3505 25.4641 93.5892 25.4641C92.8265 25.4641 92.2092 24.8468 92.2092 24.0854Z" fill="#1D1811"/>
<path d="M90.7265 15.3522C90.7265 14.5908 91.3438 13.9735 92.1051 13.9735C92.8678 13.9735 93.4839 14.5908 93.4839 15.3522C93.4839 16.1148 92.8678 16.7322 92.1051 16.7322C91.3438 16.7322 90.7265 16.1148 90.7265 15.3522Z" fill="#1D1811"/>
<path d="M84.9799 9.05736C84.9799 8.29469 85.5972 7.67734 86.3599 7.67734C87.1212 7.67734 87.7385 8.29469 87.7385 9.05736C87.7385 9.81869 87.1212 10.436 86.3599 10.436C85.5972 10.436 84.9799 9.81869 84.9799 9.05736Z" fill="#1D1811"/>
<path d="M76.4972 6.77868C76.4972 6.01735 77.1146 5.4 77.8759 5.4C78.6386 5.4 79.2572 6.01735 79.2572 6.77868C79.2572 7.54135 78.6386 8.15869 77.8759 8.15869C77.1146 8.15869 76.4972 7.54135 76.4972 6.77868Z" fill="#1D1811"/>
<path d="M68.1906 9.46816C68.1906 8.70683 68.8092 8.08949 69.5706 8.08949C70.3319 8.08949 70.9492 8.70683 70.9492 9.46816C70.9492 10.2295 70.3319 10.8481 69.5706 10.8481C68.8092 10.8481 68.1906 10.2295 68.1906 9.46816Z" fill="#1D1811"/>
<path d="M62.7572 16.0414C62.7572 15.2814 63.3732 14.6627 64.1358 14.6627C64.8972 14.6627 65.5146 15.2814 65.5146 16.0414C65.5146 16.8027 64.8972 17.4214 64.1358 17.4214C63.3732 17.4214 62.7572 16.8027 62.7572 16.0414Z" fill="#1D1811"/>
<path d="M61.7079 24.8601C61.7079 24.0974 62.3252 23.4801 63.0879 23.4801C63.8492 23.4801 64.4679 24.0974 64.4679 24.8601C64.4679 25.6214 63.8492 26.2388 63.0879 26.2388C62.3252 26.2388 61.7079 25.6214 61.7079 24.8601Z" fill="#1D1811"/>
<path d="M65.5012 32.5842C65.5012 31.8215 66.1185 31.2042 66.8798 31.2042C67.6425 31.2042 68.2598 31.8215 68.2598 32.5842C68.2598 33.3455 67.6425 33.9629 66.8798 33.9629C66.1185 33.9629 65.5012 33.3455 65.5012 32.5842Z" fill="#1D1811"/>
</svg>
