<svg width="345" height="199" viewBox="0 0 345 199" fill="none" xmlns="http://www.w3.org/2000/svg">
<g clip-path="url(#clip0)">
<path d="M30.9063 93.2765H56.0179V68.9547H30.9063V93.2765ZM58.6125 95.8699H28.3129V66.3601H58.6125V95.8699Z" fill="#E2E2E2"/>
<path d="M56.4116 95.5042L28.7054 68.5866L30.5139 66.7272L58.2189 93.6436L56.4116 95.5042Z" fill="#E2E2E2"/>
<path d="M30.5139 95.5042L28.7054 93.6436L56.4116 66.7272L58.2189 68.5866L30.5139 95.5042Z" fill="#E2E2E2"/>
<path d="M30.9063 120.09H56.0179V95.7667H30.9063V120.09ZM58.6125 122.684H28.3129V93.1733H58.6125V122.684Z" fill="#E2E2E2"/>
<path d="M56.4116 122.316L28.7054 95.401L30.5139 93.5404L58.2189 120.457L56.4116 122.316Z" fill="#E2E2E2"/>
<path d="M30.5139 122.316L28.7054 120.457L56.4116 93.5404L58.2189 95.401L30.5139 122.316Z" fill="#E2E2E2"/>
<path d="M30.9063 146.903H56.0179V122.581H30.9063V146.903ZM58.6125 149.497H28.3129V119.987H58.6125V149.497Z" fill="#E2E2E2"/>
<path d="M56.4116 149.131L28.7054 122.213L30.5139 120.354L58.2189 147.27L56.4116 149.131Z" fill="#E2E2E2"/>
<path d="M30.5139 149.131L28.7054 147.27L56.4116 120.354L58.2189 122.213L30.5139 149.131Z" fill="#E2E2E2"/>
<path d="M30.9063 173.716H56.0179V149.394H30.9063V173.716ZM58.6125 176.31H28.3129V146.801H58.6125V176.31Z" fill="#E2E2E2"/>
<path d="M56.4116 175.943L28.7054 149.027L30.5139 147.167L58.2189 174.083L56.4116 175.943Z" fill="#E2E2E2"/>
<path d="M30.5139 175.943L28.7054 174.083L56.4116 147.167L58.2189 149.027L30.5139 175.943Z" fill="#E2E2E2"/>
<path d="M278.75 93.2765H303.864V68.9547H278.75V93.2765ZM306.455 95.8699H276.158V66.3601H306.455V95.8699Z" fill="#E2E2E2"/>
<path d="M304.255 95.5042L276.55 68.5866L278.358 66.7272L306.064 93.6436L304.255 95.5042Z" fill="#E2E2E2"/>
<path d="M278.358 95.5042L276.55 93.6436L304.255 66.7272L306.064 68.5866L278.358 95.5042Z" fill="#E2E2E2"/>
<path d="M278.75 120.09H303.864V95.7667H278.75V120.09ZM306.455 122.684H276.158V93.1733H306.455V122.684Z" fill="#E2E2E2"/>
<path d="M304.255 122.316L276.55 95.401L278.358 93.5404L306.064 120.457L304.255 122.316Z" fill="#E2E2E2"/>
<path d="M278.358 122.316L276.55 120.457L304.255 93.5404L306.064 95.401L278.358 122.316Z" fill="#E2E2E2"/>
<path d="M278.75 146.903H303.864V122.581H278.75V146.903ZM306.455 149.497H276.158V119.987H306.455V149.497Z" fill="#E2E2E2"/>
<path d="M304.255 149.131L276.55 122.213L278.358 120.354L306.064 147.27L304.255 149.131Z" fill="#E2E2E2"/>
<path d="M278.358 149.131L276.55 147.27L304.255 120.354L306.064 122.213L278.358 149.131Z" fill="#E2E2E2"/>
<path d="M278.75 173.716H303.864V149.394H278.75V173.716ZM306.455 176.31H276.158V146.801H306.455V176.31Z" fill="#E2E2E2"/>
<path d="M304.255 175.943L276.55 149.027L278.358 147.167L306.064 174.083L304.255 175.943Z" fill="#E2E2E2"/>
<path d="M278.358 175.943L276.55 174.083L304.255 147.167L306.064 149.027L278.358 175.943Z" fill="#E2E2E2"/>
<path d="M5.03176 65.1631H56.66V20.6392H5.03176V65.1631ZM61.6941 70.196H0V15.6062H61.6941V70.196Z" fill="#C9C8C8"/>
<path d="M4.17288 69.5735L0.859985 65.7857L57.5199 16.2289L60.834 20.0166L4.17288 69.5735Z" fill="#C9C8C8"/>
<path d="M61.6941 65.1631H113.322V20.6392H61.6941V65.1631ZM118.355 70.196H56.6599V15.6062H118.355V70.196Z" fill="#C9C8C8"/>
<path d="M114.181 69.5735L57.52 20.0166L60.8341 16.2289L117.495 65.7857L114.181 69.5735Z" fill="#C9C8C8"/>
<path d="M118.355 65.1631H169.984V20.6392H118.355V65.1631ZM175.017 70.196H113.322V15.6062H175.017V70.196Z" fill="#C9C8C8"/>
<path d="M117.495 69.5735L114.181 65.7857L170.844 16.2289L174.156 20.0166L117.495 69.5735Z" fill="#C9C8C8"/>
<path d="M175.016 65.1631H226.645V20.6392H175.016V65.1631ZM231.678 70.196H169.983V15.6062H231.678V70.196Z" fill="#C9C8C8"/>
<path d="M227.505 69.5735L170.844 20.0166L174.156 16.2289L230.818 65.7857L227.505 69.5735Z" fill="#C9C8C8"/>
<path d="M231.678 65.1631H283.305V20.6392H231.678V65.1631ZM288.338 70.196H226.645V15.6062H288.338V70.196Z" fill="#C9C8C8"/>
<path d="M230.818 69.5735L227.505 65.7857L284.165 16.2289L287.477 20.0166L230.818 69.5735Z" fill="#C9C8C8"/>
<path d="M288.338 65.1631H339.966V20.6392H288.338V65.1631ZM345 70.196H283.305V15.6062H345V70.196Z" fill="#C9C8C8"/>
<path d="M340.826 69.5735L284.165 20.0166L287.478 16.2289L344.14 65.7857L340.826 69.5735Z" fill="#C9C8C8"/>
<path d="M64.6146 147.572L64.3759 147.889C63.998 148.392 63.8478 149.035 63.9653 149.652L64.7454 153.77C65.1899 156.118 67.0747 157.935 69.4343 158.293L81.8793 160.184C82.0258 160.206 82.1712 160.222 82.3178 160.23L93.7004 160.848L135.473 160.635H262.388L262.907 160.529C284.77 159.238 288.735 158.62 289.649 153.772C289.786 153.05 289.91 152.428 290.016 151.889C290.564 149.126 290.637 148.762 289.78 147.571L288.432 150.265V146.655C288.432 146.215 288.437 145.783 288.442 145.359C288.476 142.047 288.508 139.189 286.218 135.983L286.018 135.689C281.574 129.75 278.692 129.108 256.272 124.119C250.408 122.814 243.109 121.19 234.143 119.098C227.506 117.812 220.354 114.335 212.784 110.658C201.251 105.054 188.18 98.7032 173.781 98.7032C164.625 98.7032 157.216 98.6923 151.2 98.6838C125.311 98.6451 125.313 98.6451 122.578 99.6614L122.368 99.7389L121.673 100.269C120.268 101.341 120.268 101.341 108.643 110.109L94.8948 120.426C93.7913 120.803 92.8501 121.054 91.9331 121.212L78.4913 123.42C73.9646 124.393 70.3137 126.65 67.0444 130.521C66.0948 131.8 64.9816 133.293 65.1851 138.429C65.2081 138.751 65.2069 138.832 65.2057 138.887C65.2045 138.994 65.2069 138.994 65.3292 140.853L65.9422 150.241L64.6146 147.572ZM93.658 162.552L82.2245 161.932C82.0234 161.921 81.8236 161.901 81.6237 161.87L69.1788 159.979C66.1033 159.512 63.6491 157.145 63.0701 154.088L62.2889 149.97C62.0841 148.881 62.347 147.749 63.0132 146.865L63.9326 145.642L63.6274 140.964C63.499 139.008 63.4989 139.008 63.5002 138.865C63.5014 138.826 63.5014 138.773 63.4953 138.597C63.2373 132.778 64.6085 130.938 65.7096 129.461C69.2684 125.248 73.2185 122.809 78.1739 121.745L91.6497 119.53C92.4346 119.395 93.2534 119.179 94.214 118.856L107.616 108.749C119.235 99.986 119.235 99.986 120.637 98.914L121.66 98.1836L121.984 98.0624C125.009 96.9408 125.011 96.9432 151.202 96.9783C157.22 96.9868 164.626 96.9977 173.781 96.9977C188.572 96.9977 201.83 103.439 213.527 109.123C220.996 112.752 228.051 116.179 234.499 117.43C243.489 119.527 250.782 121.15 256.643 122.454C279.107 127.455 282.562 128.221 287.408 134.701L287.618 135.011C290.18 138.595 290.185 141.818 290.148 145.221L290.684 145.931C292.468 148.287 292.41 148.583 291.689 152.221C291.583 152.755 291.46 153.372 291.326 154.088C290.148 160.321 285.034 160.924 263.736 162.189L263.721 162.34H168.991H168.84H135.478L93.658 162.552Z" fill="#789CA6"/>
<path d="M100.086 154.611H94.5228V137.452H100.086V154.611Z" fill="#263236"/>
<path d="M100.32 138.934L94.69 139.879C94.2684 139.951 93.8505 139.763 93.8505 139.502V139.117C93.8505 138.94 94.0468 138.787 94.3314 138.739L99.9615 137.793C100.383 137.723 100.801 137.911 100.801 138.171V138.558C100.801 138.733 100.605 138.887 100.32 138.934Z" fill="#789CA6"/>
<path d="M100.32 141.052L94.69 141.996C94.2684 142.068 93.8505 141.879 93.8505 141.619V141.233C93.8505 141.058 94.0468 140.903 94.3314 140.855L99.9615 139.909C100.383 139.839 100.801 140.027 100.801 140.287V140.674C100.801 140.849 100.605 141.003 100.32 141.052Z" fill="#789CA6"/>
<path d="M100.32 143.168L94.69 144.112C94.2684 144.184 93.8505 143.995 93.8505 143.736V143.349C93.8505 143.174 94.0468 143.02 94.3314 142.971L99.9615 142.027C100.383 141.955 100.801 142.144 100.801 142.403V142.79C100.801 142.965 100.605 143.119 100.32 143.168Z" fill="#789CA6"/>
<path d="M100.32 145.284L94.69 146.23C94.2684 146.3 93.8505 146.111 93.8505 145.852V145.465C93.8505 145.29 94.0468 145.136 94.3314 145.088L99.9615 144.143C100.383 144.071 100.801 144.26 100.801 144.521V144.906C100.801 145.082 100.605 145.237 100.32 145.284Z" fill="#789CA6"/>
<path d="M100.32 147.4L94.69 148.346C94.2684 148.416 93.8505 148.227 93.8505 147.968V147.581C93.8505 147.406 94.0468 147.252 94.3314 147.205L99.9615 146.259C100.383 146.188 100.801 146.376 100.801 146.637V147.022C100.801 147.197 100.605 147.353 100.32 147.4Z" fill="#7F7E7C"/>
<path d="M100.32 149.516L94.69 150.462C94.2684 150.532 93.8505 150.344 93.8505 150.084V149.699C93.8505 149.523 94.0468 149.368 94.3314 149.321L99.9615 148.376C100.383 148.305 100.801 148.492 100.801 148.753V149.139C100.801 149.314 100.605 149.469 100.32 149.516Z" fill="#7F7E7C"/>
<path d="M100.32 151.633L94.69 152.578C94.2684 152.65 93.8505 152.461 93.8505 152.2V151.815C93.8505 151.64 94.0468 151.484 94.3314 151.437L99.9615 150.492C100.383 150.421 100.801 150.61 100.801 150.87V151.256C100.801 151.431 100.605 151.585 100.32 151.633Z" fill="#7F7E7C"/>
<path d="M100.32 153.75L94.69 154.694C94.2684 154.766 93.8505 154.578 93.8505 154.317V153.931C93.8505 153.756 94.0468 153.602 94.3314 153.553L99.9615 152.609C100.383 152.538 100.801 152.726 100.801 152.986V153.372C100.801 153.547 100.605 153.702 100.32 153.75Z" fill="#7F7E7C"/>
<path d="M225.057 157.218H219.493V140.058H225.057V157.218Z" fill="#263236"/>
<path d="M225.29 141.541L219.66 142.487C219.239 142.557 218.821 142.369 218.821 142.109V141.723C218.821 141.547 219.017 141.393 219.302 141.346L224.931 140.401C225.353 140.329 225.771 140.517 225.771 140.778V141.163C225.771 141.339 225.575 141.494 225.29 141.541Z" fill="#789CA6"/>
<path d="M225.29 143.658L219.66 144.603C219.239 144.673 218.821 144.486 218.821 144.225V143.84C218.821 143.664 219.017 143.509 219.302 143.462L224.931 142.517C225.353 142.446 225.771 142.633 225.771 142.895V143.28C225.771 143.456 225.575 143.61 225.29 143.658Z" fill="#789CA6"/>
<path d="M225.29 145.774L219.66 146.719C219.239 146.791 218.821 146.602 218.821 146.341V145.956C218.821 145.78 219.017 145.627 219.302 145.578L224.931 144.633C225.353 144.563 225.771 144.751 225.771 145.011V145.396C225.771 145.572 225.575 145.727 225.29 145.774Z" fill="#789CA6"/>
<path d="M225.29 147.89L219.66 148.835C219.239 148.907 218.821 148.719 218.821 148.459V148.073C218.821 147.898 219.017 147.743 219.302 147.695L224.931 146.749C225.353 146.679 225.771 146.867 225.771 147.127V147.513C225.771 147.688 225.575 147.843 225.29 147.89Z" fill="#789CA6"/>
<path d="M225.29 150.007L219.66 150.953C219.239 151.023 218.821 150.835 218.821 150.575V150.19C218.821 150.014 219.017 149.859 219.302 149.812L224.931 148.866C225.353 148.795 225.771 148.984 225.771 149.244V149.63C225.771 149.806 225.575 149.959 225.29 150.007Z" fill="#7F7E7C"/>
<path d="M225.29 152.124L219.66 153.069C219.239 153.14 218.821 152.952 218.821 152.691V152.306C218.821 152.13 219.017 151.975 219.302 151.928L224.931 150.982C225.353 150.912 225.771 151.101 225.771 151.36V151.746C225.771 151.922 225.575 152.076 225.29 152.124Z" fill="#7F7E7C"/>
<path d="M225.29 154.24L219.66 155.185C219.239 155.256 218.821 155.067 218.821 154.808V154.422C218.821 154.246 219.017 154.092 219.302 154.044L224.931 153.099C225.353 153.028 225.771 153.217 225.771 153.476V153.862C225.771 154.038 225.575 154.192 225.29 154.24Z" fill="#7F7E7C"/>
<path d="M225.29 156.356L219.66 157.302C219.239 157.372 218.821 157.185 218.821 156.924V156.538C218.821 156.362 219.017 156.208 219.302 156.16L224.931 155.215C225.353 155.145 225.771 155.332 225.771 155.593V155.978C225.771 156.154 225.575 156.309 225.29 156.356Z" fill="#7F7E7C"/>
<path d="M287.266 135.466L282.862 135.654L267.772 130.665L258.187 141.805C258.187 141.805 249.804 134.558 241.751 134.885C233.699 135.212 229.67 138.573 229.67 138.573C228.855 138.933 227.984 139.407 227.101 140.019C224.455 141.855 221.704 144.925 220.026 149.835L207.39 155.668H140.876C140.876 155.668 137.359 142.998 126.808 136.894C116.256 130.793 100.588 135.375 95.5791 144.008C90.5691 152.641 83.5944 150.444 79.195 149.304C74.7955 148.165 72.9834 138.573 68.2933 138.573C67.1413 138.573 65.9179 138.618 64.7284 138.686C64.7357 138.83 64.7296 138.95 64.7393 139.1L65.4431 149.913C65.672 153.438 67.9832 156.487 71.3154 157.66L75.0063 159.541C78.6874 160.836 99.0894 161.497 102.991 161.497H220.716H255.63C261.094 161.497 266.542 160.942 271.894 159.84L282.407 157.675C286.632 156.806 289.664 153.086 289.664 148.772V142.963C289.664 139.933 288.787 137.581 287.266 135.466Z" fill="#9AC8D4"/>
<path d="M65.1415 145.971L65.7156 147.114C67.5447 150.762 71.2162 153.126 75.2946 153.28L94.9383 154.017L94.0323 161.714L82.6497 161.095C82.4752 161.085 82.302 161.068 82.13 161.042L69.6851 159.151C66.9621 158.736 64.7975 156.649 64.2851 153.943L63.505 149.825C63.3439 148.97 63.5486 148.087 64.0731 147.391L65.1415 145.971Z" fill="#789CA6"/>
<path d="M290.013 145.971L289.441 147.114C287.618 150.763 283.825 154.257 279.76 154.41H260.562L261.507 161.502C278.825 160.558 285.828 159.099 285.486 159.151C288.198 158.737 290.356 156.649 290.867 153.943L291.644 149.825C291.804 148.97 291.601 148.087 291.079 147.391L290.013 145.971Z" fill="#789CA6"/>
<path d="M251.817 140.506C240.99 135.092 228.366 139.662 223.098 148.186C221.377 150.97 220.546 153.463 220.266 155.741C220.089 157.173 220.026 161.502 220.026 161.502C220.026 161.502 260.721 161.502 263.327 161.502C263.327 161.502 263.576 158.608 263.431 157.076C262.892 151.375 259.762 144.482 251.817 140.506Z" fill="#37484D"/>
<path d="M289.664 142.971C289.664 139.96 288.796 137.618 287.291 135.512L288.298 141.015L287.604 147.992C287.472 149.318 288.154 150.593 289.328 151.219C289.545 150.439 289.664 149.622 289.664 148.781V142.971Z" fill="#48443E"/>
<path d="M269.358 129.825L283.853 135.07C285.011 135.478 285.106 138.733 284.327 139.594C284.041 139.909 283.633 140.062 283.202 140.016L270.504 138.652C269.886 138.587 269.319 138.124 269.066 137.479C268.942 137.808 267.625 134.508 267.533 132.209C267.478 130.804 268.128 129.39 269.358 129.825Z" fill="#789CA6"/>
<path d="M284.407 135.587C284.338 135.466 284.259 135.361 284.172 135.275C284.006 135.094 283.804 134.944 283.567 134.846C283.93 134.997 284.219 135.265 284.417 135.587H284.407Z" fill="#A2DFFC"/>
<path d="M284.688 136.325C284.641 136.133 284.581 135.954 284.511 135.793L284.516 135.794C284.489 135.737 284.461 135.683 284.43 135.628C284.423 135.615 284.415 135.6 284.407 135.587H284.417C284.555 135.814 284.648 136.067 284.688 136.325Z" fill="#DAF8FE"/>
<path d="M283.353 138.089C283.303 138.089 283.252 138.086 283.202 138.08L270.503 136.716C269.886 136.65 269.319 136.188 269.066 135.542L268.61 134.382C268.753 134.423 268.897 134.463 269.046 134.475L284.511 135.793C284.581 135.954 284.641 136.134 284.688 136.325C284.763 136.802 284.656 137.295 284.327 137.659C284.075 137.937 283.727 138.089 283.353 138.089ZM284.43 135.628C284.357 135.502 284.271 135.383 284.172 135.275C284.259 135.361 284.338 135.466 284.407 135.587C284.415 135.601 284.423 135.615 284.43 135.628Z" fill="#CEF3FE"/>
<path d="M283.565 134.844C283.562 134.843 283.561 134.842 283.558 134.84C283.561 134.842 283.562 134.843 283.565 134.844Z" fill="#A2DFFC"/>
<path d="M269.342 129.819C269.338 129.818 269.335 129.817 269.331 129.815H269.33C269.333 129.817 269.338 129.818 269.342 129.819ZM269.329 129.815C269.168 129.761 269.009 129.736 268.859 129.736C269.009 129.736 269.168 129.761 269.329 129.815Z" fill="#A2DFFC"/>
<path d="M283.567 134.846C283.566 134.845 283.565 134.845 283.564 134.845C283.565 134.845 283.566 134.845 283.567 134.846ZM283.558 134.841C283.531 134.831 283.506 134.821 283.478 134.811C283.506 134.821 283.531 134.831 283.558 134.841Z" fill="#DDFBFF"/>
<path d="M268.61 134.382C268.609 134.382 268.609 134.382 268.609 134.382L267.643 131.921C267.638 131.909 267.634 131.896 267.629 131.884C267.634 131.896 267.638 131.909 267.643 131.921L268.61 134.382Z" fill="#CEF3FE"/>
<path d="M267.525 130.951C267.633 130.259 268.164 129.741 268.844 129.735C268.164 129.741 267.633 130.259 267.525 130.951Z" fill="#DDFBFF"/>
<path d="M267.552 131.625C267.52 131.484 267.505 131.348 267.505 131.214C267.505 131.125 267.512 131.036 267.525 130.952C267.492 131.162 267.498 131.39 267.552 131.625Z" fill="#F2FEFF"/>
<path d="M267.607 131.824C267.586 131.757 267.566 131.691 267.552 131.625C267.566 131.691 267.586 131.757 267.607 131.824Z" fill="#CEF3FE"/>
<path d="M284.516 135.794L284.511 135.793C284.486 135.736 284.458 135.681 284.43 135.628C284.461 135.683 284.489 135.738 284.516 135.794Z" fill="#FAFFFF"/>
<path d="M284.172 135.275C284.076 135.182 283.971 135.111 283.853 135.07L278.75 133.223V133.142L283.478 134.811C283.506 134.821 283.531 134.832 283.558 134.841C283.56 134.842 283.561 134.844 283.564 134.845C283.565 134.845 283.566 134.845 283.567 134.846C283.804 134.944 284.006 135.094 284.172 135.275ZM276.158 132.285L269.358 129.825L276.158 132.226V132.285Z" fill="#F3FEFF"/>
<path d="M278.75 133.223L276.158 132.285V132.226L278.75 133.142V133.223Z" fill="#FEFFFF"/>
<path d="M267.525 130.951C267.633 130.259 268.164 129.741 268.844 129.735C268.849 129.735 268.852 129.735 268.856 129.735C268.857 129.735 268.857 129.735 268.859 129.735C269.009 129.735 269.167 129.761 269.329 129.815C269.186 129.767 269.05 129.745 268.923 129.745C268.398 129.745 268.014 130.123 267.784 130.668L267.772 130.664L267.525 130.951Z" fill="#F3FEFF"/>
<path d="M267.552 131.625C267.498 131.39 267.492 131.162 267.525 130.952L267.772 130.664L267.784 130.668C267.664 130.952 267.587 131.281 267.552 131.625Z" fill="#FAFFFF"/>
<path d="M269.343 129.82C269.338 129.819 269.335 129.817 269.331 129.815C269.335 129.817 269.338 129.818 269.342 129.819L269.343 129.82Z" fill="#F3FEFF"/>
<path d="M284.511 135.793L269.046 134.475C268.897 134.463 268.753 134.423 268.61 134.382L267.642 131.921C267.638 131.909 267.634 131.896 267.629 131.884C267.622 131.864 267.615 131.844 267.607 131.824C267.586 131.757 267.566 131.691 267.552 131.625C267.587 131.281 267.664 130.952 267.784 130.668C268.014 130.123 268.398 129.745 268.923 129.745C269.05 129.745 269.186 129.767 269.329 129.815C269.33 129.815 269.33 129.815 269.331 129.815C269.335 129.817 269.338 129.819 269.343 129.82C269.348 129.821 269.353 129.824 269.358 129.825L276.158 132.285L278.75 133.223L283.853 135.07C283.971 135.111 284.076 135.182 284.172 135.275C284.271 135.383 284.357 135.502 284.43 135.628C284.458 135.681 284.486 135.736 284.511 135.793Z" fill="#EDFDFF"/>
<path d="M269.422 154.965L268.818 154.902L270.569 138.057L271.172 138.12L269.422 154.965Z" fill="#789CA6"/>
<path d="M284.546 136.097L284.484 135.493L287.261 135.209L287.321 135.815L284.546 136.097Z" fill="#789CA6"/>
<path d="M136.762 161.497C136.762 161.497 137.637 155.117 135.077 149.598C132.857 144.81 127.217 137.958 118.129 137.041C107.839 136.001 100.273 140.608 96.2285 148.48C92.9131 154.933 94.0323 161.714 94.0323 161.714L136.762 161.497Z" fill="#37484D"/>
<path d="M96.2283 153.019C100.273 145.146 107.839 140.539 118.129 141.578C127.217 142.495 132.857 149.348 135.077 154.136C136.165 156.48 136.629 158.978 136.807 161.077C136.948 159.589 137.253 154.29 135.077 149.599C132.857 144.81 127.217 137.958 118.129 137.041C107.839 136.002 100.273 140.607 96.2283 148.48C93.5041 153.784 93.7742 159.301 93.9571 161.1C94.1727 158.744 94.7735 155.849 96.2283 153.019Z" fill="#263236"/>
<path d="M108.569 154.506C108.569 150.747 111.618 147.698 115.379 147.698C119.139 147.698 122.188 150.747 122.188 154.506C122.188 158.268 119.139 161.316 115.379 161.316C111.618 161.316 108.569 158.268 108.569 154.506Z" fill="#263236"/>
<path d="M222.404 153.019C226.448 145.146 234.015 140.539 244.306 141.578C253.393 142.495 259.034 149.348 261.254 154.136C262.341 156.48 262.804 158.978 262.984 161.077C263.124 159.589 263.43 154.29 261.254 149.599C259.034 144.81 253.393 137.958 244.306 137.041C234.015 136.002 226.448 140.607 222.404 148.48C219.68 153.784 219.95 159.301 220.134 161.1C220.348 158.744 220.949 155.849 222.404 153.019Z" fill="#263236"/>
<path d="M234.745 154.506C234.745 150.747 237.794 147.698 241.555 147.698C245.316 147.698 248.363 150.747 248.363 154.506C248.363 158.268 245.316 161.316 241.555 161.316C237.794 161.316 234.745 158.268 234.745 154.506Z" fill="#263236"/>
<path d="M220.266 161.417H138.19V149.304H220.266V161.417Z" fill="#263236"/>
<path d="M173.277 161.1H171.717V97.8504H173.277V161.1Z" fill="#789CA6"/>
<path d="M17.9769 180.008C17.9769 178.18 19.4607 176.696 21.2886 176.696C23.1188 176.696 24.6015 178.18 24.6015 180.008C24.6015 181.837 23.1188 183.32 21.2886 183.32C19.4607 183.32 17.9769 181.837 17.9769 180.008Z" fill="#201600"/>
<path d="M17.9769 180.008C17.9769 178.18 19.4607 176.696 21.2886 176.696C23.1188 176.696 24.6015 178.18 24.6015 180.008C24.6015 181.837 23.1188 183.32 21.2886 183.32C19.4607 183.32 17.9769 181.837 17.9769 180.008Z" fill="#201600"/>
<path d="M17.9769 180.008C17.9769 178.18 19.4607 176.696 21.2886 176.696C23.1188 176.696 24.6015 178.18 24.6015 180.008C24.6015 181.837 23.1188 183.32 21.2886 183.32C19.4607 183.32 17.9769 181.837 17.9769 180.008Z" fill="#201600"/>
<path d="M38.9155 162.382H304.519C314.255 162.382 322.145 170.274 322.145 180.008C322.145 189.742 314.255 197.635 304.519 197.635H38.9155C29.1803 197.635 21.2886 189.742 21.2886 180.008C21.2886 170.274 29.1803 162.382 38.9155 162.382Z" fill="#BA7000"/>
<path d="M38.9156 163.328C29.7182 163.328 22.2347 170.812 22.2347 180.008C22.2347 189.206 29.7182 196.688 38.9156 196.688H304.521C313.717 196.688 321.199 189.206 321.199 180.008C321.199 170.812 313.717 163.328 304.521 163.328H38.9156ZM304.521 198.58H38.9156C28.674 198.58 20.3427 190.249 20.3427 180.008C20.3427 169.768 28.674 161.436 38.9156 161.436H304.521C314.761 161.436 323.092 169.768 323.092 180.008C323.092 190.249 314.761 198.58 304.521 198.58Z" fill="#201600"/>
<path d="M38.9143 192.903C31.8052 192.903 26.02 187.119 26.02 180.008C26.02 172.899 31.8052 167.115 38.9143 167.115H304.521C311.63 167.115 317.414 172.899 317.414 180.008C317.414 187.119 311.63 192.903 304.521 192.903H38.9143Z" fill="#FFB413"/>
<path d="M38.9155 168.061C32.3261 168.061 26.966 173.42 26.966 180.009C26.966 186.597 32.3261 191.957 38.9155 191.957H304.521C311.108 191.957 316.466 186.597 316.466 180.009C316.466 173.42 311.108 168.061 304.521 168.061H38.9155ZM304.521 193.849H38.9155C31.2831 193.849 25.074 187.641 25.074 180.009C25.074 172.377 31.2831 166.169 38.9155 166.169H304.521C312.151 166.169 318.36 172.377 318.36 180.009C318.36 187.641 312.151 193.849 304.521 193.849Z" fill="#201600"/>
<path d="M38.9144 191.01C32.8482 191.01 27.9133 186.077 27.9133 180.008C27.9133 173.942 32.8482 169.007 38.9144 169.007H304.521C310.587 169.007 315.522 173.942 315.522 180.008C315.522 186.077 310.587 191.01 304.521 191.01H38.9144Z" fill="#FFB413"/>
<path d="M32.6301 180.129C32.6301 176.34 35.7008 173.269 39.4897 173.269C43.2787 173.269 46.3506 176.34 46.3506 180.129C46.3506 183.918 43.2787 186.989 39.4897 186.989C35.7008 186.989 32.6301 183.918 32.6301 180.129Z" fill="#FFB413"/>
<path d="M39.4896 174.216C36.2288 174.216 33.5748 176.869 33.5748 180.129C33.5748 183.39 36.2288 186.043 39.4896 186.043C42.7505 186.043 45.4045 183.39 45.4045 180.129C45.4045 176.869 42.7505 174.216 39.4896 174.216ZM39.4896 187.935C35.1847 187.935 31.6828 184.434 31.6828 180.129C31.6828 175.824 35.1847 172.324 39.4896 172.324C43.7934 172.324 47.2965 175.824 47.2965 180.129C47.2965 184.434 43.7934 187.935 39.4896 187.935Z" fill="#201600"/>
<path d="M36.3354 180.129C36.3354 178.386 37.7478 176.975 39.4897 176.975C41.2315 176.975 42.6439 178.386 42.6439 180.129C42.6439 181.871 41.2315 183.282 39.4897 183.282C37.7478 183.282 36.3354 181.871 36.3354 180.129Z" fill="#201600"/>
<path d="M298.012 180.129C298.012 176.34 301.084 173.269 304.872 173.269C308.661 173.269 311.733 176.34 311.733 180.129C311.733 183.918 308.661 186.989 304.872 186.989C301.084 186.989 298.012 183.918 298.012 180.129Z" fill="#FFB413"/>
<path d="M304.872 174.216C301.611 174.216 298.96 176.869 298.96 180.129C298.96 183.39 301.611 186.043 304.872 186.043C308.133 186.043 310.786 183.39 310.786 180.129C310.786 176.869 308.133 174.216 304.872 174.216ZM304.872 187.935C300.568 187.935 297.065 184.434 297.065 180.129C297.065 175.824 300.568 172.324 304.872 172.324C309.177 172.324 312.679 175.824 312.679 180.129C312.679 184.434 309.177 187.935 304.872 187.935Z" fill="#201600"/>
<path d="M301.718 180.129C301.718 178.386 303.13 176.975 304.872 176.975C306.614 176.975 308.026 178.386 308.026 180.129C308.026 181.871 306.614 183.282 304.872 183.282C303.13 183.282 301.718 181.871 301.718 180.129Z" fill="#201600"/>
<path d="M217.006 180.129C217.006 174.796 221.33 170.472 226.663 170.472C231.996 170.472 236.321 174.796 236.321 180.129C236.321 185.463 231.996 189.787 226.663 189.787C221.33 189.787 217.006 185.463 217.006 180.129Z" fill="#FFB413"/>
<path d="M226.663 171.418C221.859 171.418 217.952 175.327 217.952 180.129C217.952 184.932 221.859 188.84 226.663 188.84C231.467 188.84 235.373 184.932 235.373 180.129C235.373 175.327 231.467 171.418 226.663 171.418ZM226.663 190.732C220.816 190.732 216.058 185.976 216.058 180.129C216.058 174.282 220.816 169.526 226.663 169.526C232.509 169.526 237.267 174.282 237.267 180.129C237.267 185.976 232.509 190.732 226.663 190.732Z" fill="#201600"/>
<path d="M222.222 180.129C222.222 177.678 224.211 175.689 226.663 175.689C229.116 175.689 231.104 177.678 231.104 180.129C231.104 182.581 229.116 184.569 226.663 184.569C224.211 184.569 222.222 182.581 222.222 180.129Z" fill="#201600"/>
<path d="M111.847 180.129C111.847 174.796 116.17 170.472 121.503 170.472C126.838 170.472 131.161 174.796 131.161 180.129C131.161 185.463 126.838 189.787 121.503 189.787C116.17 189.787 111.847 185.463 111.847 180.129Z" fill="#FFB413"/>
<path d="M121.503 171.418C116.701 171.418 112.794 175.327 112.794 180.129C112.794 184.932 116.701 188.84 121.503 188.84C126.307 188.84 130.215 184.932 130.215 180.129C130.215 175.327 126.307 171.418 121.503 171.418ZM121.503 190.732C115.658 190.732 110.901 185.976 110.901 180.129C110.901 174.282 115.658 169.526 121.503 169.526C127.352 169.526 132.108 174.282 132.108 180.129C132.108 185.976 127.352 190.732 121.503 190.732Z" fill="#201600"/>
<path d="M117.064 180.129C117.064 177.678 119.052 175.689 121.503 175.689C123.956 175.689 125.944 177.678 125.944 180.129C125.944 182.581 123.956 184.569 121.503 184.569C119.052 184.569 117.064 182.581 117.064 180.129Z" fill="#201600"/>
<path d="M122.188 136.896H117.064V120.568C117.064 117.739 119.358 115.445 122.188 115.445V136.896Z" fill="#9AC8D4"/>
<path d="M90.196 35.6606C89.6667 35.6606 89.1046 35.588 88.5123 35.4438C81.8901 33.8279 80.0368 24.0564 79.9605 23.6421L80.6764 23.51C80.6933 23.607 82.5224 33.2332 88.6843 34.7376C90.1476 35.0938 91.3359 34.9738 92.3158 34.3646C94.4017 33.0685 95.1478 29.7253 95.7486 27.0374C95.9206 26.2634 96.0842 25.533 96.2659 24.8994L96.9648 25.1005C96.7891 25.7122 96.628 26.4329 96.4573 27.1961C95.8286 30.016 95.0449 33.5251 92.6998 34.9823C91.9718 35.4341 91.1348 35.6606 90.196 35.6606Z" fill="#11A4EE"/>
<path d="M69.3604 70.5149C67.0166 70.5149 65.2892 69.8245 65.2565 69.8099L65.5327 69.1377C65.5921 69.1643 71.4075 71.473 75.9802 67.2456C79.7934 63.7219 78.0552 60.9395 76.6598 58.7047C76.3836 58.2613 76.1207 57.8435 75.9196 57.4449L76.5677 57.1155C76.7555 57.4849 77.0086 57.8907 77.2763 58.3195C78.7335 60.6525 80.7285 63.8467 76.4744 67.7798C74.1318 69.9444 71.4911 70.5149 69.3604 70.5149Z" fill="#11A4EE"/>
<path d="M96.1861 107.79L95.7936 107.16C95.8457 107.126 101.109 103.749 100.34 97.5739C99.6964 92.4295 96.4271 92.2212 93.801 92.0528C93.2789 92.0189 92.7871 91.9886 92.3438 91.9207L92.4577 91.1867C92.8671 91.2485 93.3443 91.2787 93.8482 91.3115C96.5955 91.4871 100.358 91.727 101.076 97.4831C101.907 104.136 96.2442 107.755 96.1861 107.79Z" fill="#11A4EE"/>
<path d="M64.044 69.5046C63.8635 68.2146 62.8412 66.7404 61.7571 65.179C61.1781 64.3445 60.5797 63.4796 60.0867 62.6075C58.7615 60.2636 60.9685 57.2232 64.021 53.0139C67.2443 48.5721 71.2549 43.0425 72.511 36.2531L73.2257 36.3851C71.9393 43.3368 67.8754 48.9391 64.6097 53.4403C61.8249 57.2801 59.6252 60.3132 60.719 62.2489C61.1962 63.0932 61.7849 63.9423 62.3542 64.7648C63.4892 66.3988 64.5588 67.9433 64.7647 69.4029L64.044 69.5046Z" fill="#11A4EE"/>
<path d="M67.9857 67.1487C67.8052 65.8611 66.7816 64.3869 65.7 62.8255C65.1197 61.9897 64.5214 61.1261 64.0283 60.2515C62.7044 57.9077 64.9102 54.8673 67.9627 50.658C71.1847 46.2162 75.1954 40.6865 76.4527 33.8984L77.1674 34.0292C75.881 40.9809 71.817 46.5832 68.5513 51.0856C65.7666 54.9242 63.5668 57.9573 64.6606 59.8942C65.1379 60.7385 65.7278 61.5888 66.2983 62.4113C67.4309 64.0441 68.5005 65.5885 68.7064 67.0482L67.9857 67.1487Z" fill="#CB3124"/>
<path d="M101.206 108.033C100.055 107.429 98.2622 107.402 96.3641 107.373C95.3466 107.357 94.2952 107.34 93.2983 107.232C90.6164 106.943 89.4293 103.375 87.788 98.438C86.0547 93.2318 83.8986 86.7513 79.1151 81.7753L79.6493 81.2605C84.5502 86.3576 86.7366 92.9266 88.4918 98.2042C89.989 102.703 91.1712 106.255 93.377 106.493C94.3412 106.597 95.3757 106.614 96.3762 106.63C98.3652 106.66 100.243 106.689 101.551 107.375L101.206 108.033Z" fill="#CB3124"/>
<path d="M74.4721 41.5974C73.9791 40.3934 72.6261 39.216 71.1931 37.9708C70.4251 37.3021 69.6317 36.6117 68.9389 35.8861C67.0795 33.9396 68.4701 30.451 70.3937 25.6203C72.4238 20.5219 74.9518 14.1759 74.5 7.28601L75.2255 7.23758C75.6882 14.2922 73.1263 20.7218 71.0695 25.8892C69.3131 30.296 67.9274 33.776 69.4646 35.3846C70.1356 36.086 70.9157 36.7643 71.6703 37.4208C73.1699 38.7254 74.5872 39.9573 75.1456 41.3224L74.4721 41.5974Z" fill="#CB3124"/>
<path d="M60.0649 19.0551V2.72425H105.194V19.0551C105.194 25.5101 99.9616 30.7441 93.5066 30.7441H71.7516C65.2966 30.7441 60.0649 25.5101 60.0649 19.0551Z" fill="#1D1811"/>
<path d="M90.5087 31.139V2.72422H108.986C110.106 2.72422 111.015 3.6327 111.015 4.75316V23.0039C111.015 28.6667 106.424 33.2576 100.761 33.2576H92.6261C91.4572 33.2576 90.5087 32.3091 90.5087 31.139Z" fill="#FFB413"/>
<path d="M70.3174 31.139V2.72422H51.8402C50.7198 2.72422 49.8113 3.6327 49.8113 4.75316V23.0039C49.8113 28.6667 54.4021 33.2576 60.065 33.2576H68.1989C69.369 33.2576 70.3174 32.3091 70.3174 31.139Z" fill="#FFB413"/>
<path d="M63.4384 68.4799L65.9979 58.3934L75.6411 60.8414L73.0816 70.928L63.4384 68.4799Z" fill="#1D1811"/>
<path d="M106.681 26.6487V14.0693C106.681 13.4794 107.159 13.0009 107.749 13.0009C108.339 13.0009 108.816 13.4794 108.816 14.0693V26.6487C108.816 27.2386 108.339 27.717 107.749 27.717C107.159 27.717 106.681 27.2386 106.681 26.6487Z" fill="#FFD375"/>
<path d="M66.9354 29.6758V14.0693C66.9354 13.4794 67.4139 13.0009 68.0038 13.0009C68.5937 13.0009 69.0722 13.4794 69.0722 14.0693V29.6758C69.0722 30.2657 68.5937 30.7441 68.0038 30.7441C67.4139 30.7441 66.9354 30.2657 66.9354 29.6758Z" fill="#FFD375"/>
<path d="M89.9731 115.61L96.4233 107.089C96.7564 106.649 96.6692 106.023 96.2295 105.691C95.7898 105.358 95.1636 105.445 94.8317 105.884L88.3815 114.406C88.0496 114.846 88.1356 115.471 88.5753 115.804C89.015 116.137 89.6412 116.051 89.9731 115.61Z" fill="#FFA000"/>
<path d="M98.2925 115.181L99.2276 108.243C99.3003 107.697 98.9175 107.194 98.3712 107.12C97.8237 107.046 97.3223 107.429 97.2484 107.977L96.3132 114.915C96.2394 115.461 96.6233 115.964 97.1696 116.038C97.7159 116.11 98.2186 115.728 98.2925 115.181Z" fill="#FFA000"/>
<path d="M97.4154 121.716L98.158 116.204C98.2318 115.658 97.8479 115.155 97.3016 115.081C96.7553 115.007 96.2526 115.391 96.1787 115.937L95.4362 121.45C95.3635 121.996 95.7462 122.499 96.2925 122.572C96.8388 122.646 97.3415 122.263 97.4154 121.716Z" fill="#FFA000"/>
<path d="M88.82 116.254L92.1135 119.612C92.4987 120.005 93.131 120.011 93.5247 119.626C93.9184 119.24 93.9244 118.607 93.538 118.214L90.2457 114.856C89.8605 114.462 89.2282 114.456 88.8345 114.843C88.4409 115.228 88.4336 115.86 88.82 116.254Z" fill="#FFA000"/>
<path d="M89.4996 113.572C88.6275 113.453 87.8244 114.066 87.7069 114.939C87.5906 115.812 88.2023 116.613 89.0756 116.731C89.9478 116.848 90.7509 116.236 90.8672 115.363C90.9847 114.49 90.373 113.688 89.4996 113.572Z" fill="#1D1811"/>
<path d="M104.74 117.593L100.767 107.673C100.562 107.16 100.812 106.58 101.323 106.374C101.834 106.169 102.416 106.418 102.62 106.93L106.595 116.852C106.799 117.363 106.55 117.945 106.039 118.149C105.526 118.354 104.946 118.106 104.74 117.593Z" fill="#FFA000"/>
<path d="M105.684 118.519L101.622 120.888C101.146 121.167 100.535 121.006 100.256 120.53C99.9787 120.054 100.14 119.442 100.616 119.165L104.677 116.794C105.153 116.517 105.765 116.677 106.042 117.153C106.321 117.629 106.16 118.24 105.684 118.519Z" fill="#FFA000"/>
<path d="M99.1695 101.159C101.482 101.47 103.105 103.596 102.795 105.908C102.485 108.222 100.358 109.845 98.0454 109.535C95.7318 109.223 94.1087 107.096 94.4188 104.784C94.7301 102.472 96.8571 100.849 99.1695 101.159Z" fill="#1D1811"/>
<path d="M105.736 115.751C106.608 115.868 107.221 116.67 107.105 117.544C106.987 118.416 106.184 119.029 105.312 118.911C104.439 118.794 103.827 117.992 103.945 117.118C104.061 116.246 104.864 115.635 105.736 115.751Z" fill="#1D1811"/>
<path d="M97.4893 113.676C98.3614 113.793 98.9731 114.596 98.8556 115.468C98.7394 116.341 97.9375 116.953 97.0641 116.835C96.192 116.719 95.5791 115.916 95.6966 115.044C95.8141 114.172 96.6159 113.559 97.4893 113.676Z" fill="#1D1811"/>
<path d="M104.324 25.7558L100.318 21.75C100.118 21.5502 100.118 21.2267 100.318 21.0269C100.518 20.8282 100.841 20.8282 101.04 21.0269L105.046 25.0326C105.244 25.2325 105.244 25.5559 105.046 25.7558C104.846 25.9544 104.522 25.9544 104.324 25.7558Z" fill="#FFD375"/>
<path d="M104.324 23.2424L100.318 19.2366C100.118 19.0367 100.118 18.7133 100.318 18.5134C100.518 18.3148 100.841 18.3148 101.04 18.5134L105.046 22.5192C105.244 22.7191 105.244 23.0425 105.046 23.2424C104.846 23.441 104.522 23.441 104.324 23.2424Z" fill="#FFD375"/>
<path d="M104.324 20.7289L100.318 16.7232C100.118 16.5233 100.118 16.1999 100.318 16C100.518 15.8014 100.841 15.8014 101.04 16L105.046 20.0058C105.244 20.2057 105.244 20.5291 105.046 20.7289C104.846 20.9276 104.522 20.9276 104.324 20.7289Z" fill="#FFD375"/>
<path d="M101.651 28.2014L100.318 26.8677C100.118 26.6678 100.118 26.3444 100.318 26.1445C100.518 25.9447 100.841 25.9447 101.04 26.1445L102.373 27.4782C102.573 27.678 102.573 28.0015 102.373 28.2014C102.175 28.4 101.851 28.4 101.651 28.2014Z" fill="#FFD375"/>
<path d="M104.324 28.3589L100.318 24.3543C100.118 24.1545 100.118 23.831 100.318 23.6312C100.518 23.4325 100.841 23.4325 101.04 23.6312L105.046 27.637C105.244 27.8368 105.244 28.159 105.046 28.3589C104.846 28.5588 104.522 28.5588 104.324 28.3589Z" fill="#FFD375"/>
<path d="M104.324 18.2155L100.318 14.2098C100.118 14.0099 100.118 13.6864 100.318 13.4866C100.518 13.2879 100.841 13.2879 101.04 13.4866L105.046 17.4924C105.244 17.6922 105.244 18.0156 105.046 18.2155C104.846 18.4142 104.522 18.4142 104.324 18.2155Z" fill="#FFD375"/>
<path d="M104.323 15.5217L102.95 14.1493C102.751 13.9495 102.751 13.626 102.95 13.4262C103.15 13.2275 103.473 13.2275 103.673 13.4262L105.045 14.7998C105.244 14.9985 105.244 15.3219 105.045 15.5217C104.846 15.7216 104.522 15.7216 104.323 15.5217Z" fill="#FFD375"/>
<path d="M102.402 10.3508L98.3978 6.34497C98.1979 6.14511 98.1979 5.8217 98.3978 5.62304C98.5964 5.42318 98.9198 5.42318 99.1197 5.62304L103.125 9.62883C103.324 9.82749 103.324 10.1509 103.125 10.3508C102.926 10.5494 102.602 10.5494 102.402 10.3508Z" fill="#FFCA59"/>
<path d="M65.6066 54.7013L74.1947 20.8586C75.0535 17.4791 78.4888 15.4332 81.8695 16.292C85.2491 17.1484 87.2938 20.5849 86.4362 23.9644L77.848 57.8083C76.9904 61.189 73.5539 63.2337 70.1732 62.3761C66.7937 61.5173 64.749 58.082 65.6066 54.7013Z" fill="#FFB413"/>
<path d="M75.0197 47.0567L81.3814 21.9863C81.5425 21.3528 82.1857 20.9713 82.818 21.1311L83.2275 21.2353C83.8598 21.3952 84.2425 22.0384 84.0826 22.6719L77.7197 47.7423C77.5586 48.3746 76.9153 48.7574 76.283 48.5975L75.8748 48.4933C75.2413 48.3334 74.8586 47.689 75.0197 47.0567Z" fill="#FFD375"/>
<path d="M74.3669 42.3108L71.4694 37.4425C71.3253 37.2003 71.404 36.8865 71.6475 36.7424C71.8897 36.5983 72.2035 36.6782 72.3476 36.9205L75.2438 41.7887C75.388 42.031 75.3092 42.3435 75.067 42.4889C74.8247 42.6318 74.511 42.5531 74.3669 42.3108Z" fill="#FFD375"/>
<path d="M74.9846 39.8735L72.0871 35.0065C71.943 34.7642 72.0229 34.4505 72.2652 34.3063C72.5074 34.1622 72.8212 34.2409 72.9653 34.4832L75.8628 39.3514C76.0069 39.5937 75.927 39.9074 75.6847 40.0515C75.4424 40.1957 75.1287 40.1157 74.9846 39.8735Z" fill="#FFD375"/>
<path d="M75.6034 37.4377L72.706 32.5707C72.5606 32.3272 72.6406 32.0147 72.8828 31.8693C73.1251 31.7264 73.4388 31.8051 73.583 32.0474L76.4804 36.9156C76.6246 37.1579 76.5458 37.4704 76.3024 37.6158C76.0601 37.7599 75.7464 37.68 75.6034 37.4377Z" fill="#FFD375"/>
<path d="M76.2213 35.0018L73.3238 30.1336C73.1797 29.8913 73.2596 29.5776 73.5019 29.4335C73.7441 29.2905 74.0579 29.3693 74.202 29.6115L77.0994 34.4797C77.2436 34.722 77.1636 35.0357 76.9214 35.1787C76.6791 35.3228 76.3654 35.2441 76.2213 35.0018Z" fill="#FFD375"/>
<path d="M76.8391 32.5646L73.9428 27.6976C73.7975 27.4553 73.8775 27.1416 74.1197 26.9974C74.362 26.8533 74.6757 26.9332 74.8198 27.1755L77.7173 32.0438C77.8614 32.2848 77.7815 32.5985 77.5392 32.7427C77.297 32.8868 76.9832 32.8081 76.8391 32.5646Z" fill="#FFD375"/>
<path d="M77.2411 57.9304L77.1491 57.9183C76.9504 57.8686 76.8305 57.6663 76.8801 57.4665C77.2266 56.0989 77.0207 54.6756 76.2963 53.4595C75.572 52.2421 74.42 51.3809 73.0512 51.0345C71.6849 50.688 70.2604 50.8952 69.0442 51.6195C67.8281 52.3427 66.9656 53.4946 66.6192 54.8634C66.5695 55.0608 66.3709 55.1856 66.1674 55.1311C65.9687 55.0814 65.8488 54.8791 65.8997 54.6793C66.7173 51.4548 70.0072 49.4973 73.2341 50.3149C74.7955 50.7098 76.1098 51.6922 76.9347 53.0791C77.7596 54.4661 77.9958 56.0892 77.6009 57.6494C77.5573 57.8178 77.4059 57.9304 77.2411 57.9304Z" fill="#BA7000"/>
<path d="M72.9605 51.3945C75.5951 52.0632 77.1891 54.7414 76.5205 57.376C75.8518 60.0105 73.1737 61.6046 70.5391 60.936C67.9045 60.2674 66.3104 57.5891 66.9803 54.9546C67.6477 52.32 70.3259 50.7259 72.9605 51.3945Z" fill="#1D1811"/>
<path d="M85.7991 24.2065L85.7071 24.1944C85.5084 24.1448 85.3885 23.9425 85.4382 23.7438C86.1565 20.9142 84.4388 18.0289 81.6104 17.3106C80.2404 16.9654 78.8172 17.1713 77.6022 17.8957C76.3861 18.62 75.5248 19.772 75.1772 21.1395C75.1275 21.3382 74.9313 21.4617 74.7266 21.4084C74.5267 21.3576 74.4068 21.1565 74.4577 20.9566C75.2765 17.7321 78.564 15.7735 81.7933 16.5911C85.019 17.4087 86.9765 20.6998 86.1589 23.9268C86.1165 24.0939 85.9639 24.2065 85.7991 24.2065Z" fill="#BA7000"/>
<path d="M81.5183 17.6719C84.1529 18.3393 85.747 21.0175 85.0783 23.6521C84.4097 26.2879 81.7315 27.882 79.0969 27.2121C76.4623 26.5435 74.8694 23.8653 75.5369 21.2319C76.2055 18.5961 78.8837 17.0033 81.5183 17.6719Z" fill="#1D1811"/>
<path d="M95.4834 106.035L90.9603 100.668C89.9525 99.4723 90.1052 97.6844 91.3007 96.6766C92.4975 95.6687 94.2842 95.8214 95.292 97.0181L99.815 102.385C100.823 103.581 100.67 105.368 99.4746 106.377C98.2778 107.384 96.4912 107.232 95.4834 106.035Z" fill="#BA7000"/>
<path d="M86.7876 101.12L64.2876 74.4188C62.0394 71.7527 62.3798 67.7687 65.0471 65.5218C67.7132 63.2736 71.6972 63.614 73.9453 66.28L96.4441 92.9808C98.6923 95.6481 98.3519 99.6309 95.6846 101.879C93.0185 104.126 89.0345 103.786 86.7876 101.12Z" fill="#FFB413"/>
<path d="M86.0595 89.0149L69.3908 69.2355C68.9705 68.7352 69.0334 67.9903 69.5325 67.5688L69.8559 67.2986C70.355 66.8771 71.0999 66.9413 71.5214 67.4404L88.189 87.2198C88.6093 87.7188 88.5463 88.465 88.0473 88.8853L87.7251 89.1566C87.2248 89.5782 86.4798 89.514 86.0595 89.0149Z" fill="#FFD375"/>
<path d="M81.8199 86.7789L76.1765 86.298C75.8955 86.2738 75.6871 86.0267 75.7113 85.7457C75.7356 85.4646 75.9827 85.2563 76.2637 85.2805L81.9071 85.7614C82.1882 85.7857 82.3977 86.0328 82.3735 86.3138C82.3493 86.5948 82.1009 86.8044 81.8199 86.7789Z" fill="#FFD375"/>
<path d="M80.2016 84.8579L74.5569 84.3759C74.2759 84.3516 74.0676 84.1045 74.0918 83.8235C74.116 83.5425 74.3631 83.3341 74.6442 83.3583L80.2876 83.8404C80.5687 83.8634 80.777 84.1106 80.754 84.3916C80.7298 84.6738 80.4827 84.8822 80.2016 84.8579Z" fill="#FFD375"/>
<path d="M78.581 82.9356L72.9375 82.4535C72.6565 82.4305 72.4481 82.1834 72.4724 81.9011C72.4966 81.6201 72.7437 81.4118 73.0247 81.436L78.6682 81.9181C78.9492 81.9423 79.1576 82.1894 79.1333 82.4704C79.1103 82.7515 78.8632 82.9598 78.581 82.9356Z" fill="#FFD375"/>
<path d="M76.9614 81.0132L71.3179 80.5323C71.0369 80.5081 70.8285 80.261 70.8527 79.98C70.8758 79.699 71.1229 79.4894 71.4039 79.5136L77.0486 79.9957C77.3296 80.0199 77.538 80.267 77.5137 80.5481C77.4895 80.8291 77.2424 81.0374 76.9614 81.0132Z" fill="#FFD375"/>
<path d="M75.3419 79.092L69.6984 78.6099C69.4174 78.5857 69.2078 78.3386 69.2321 78.0576C69.2563 77.7765 69.5046 77.5682 69.7844 77.5924L75.4291 78.0733C75.7101 78.0975 75.9185 78.3446 75.8942 78.6269C75.87 78.9067 75.6229 79.115 75.3419 79.092Z" fill="#FFD375"/>
<path d="M65.9639 66.6107C68.0425 64.8579 71.1471 65.1232 72.8999 67.2018C74.6514 69.2804 74.3861 72.3862 72.3075 74.1366C70.2289 75.8893 67.1243 75.624 65.3716 73.5454C63.6213 71.4668 63.8853 68.361 65.9639 66.6107Z" fill="#1D1811"/>
<path d="M88.3816 93.2302C90.4602 91.4787 93.566 91.744 95.3175 93.8226C97.0691 95.9012 96.8038 99.0057 94.7252 100.757C92.6466 102.509 89.542 102.245 87.7905 100.165C86.0377 98.0863 86.303 94.9818 88.3816 93.2302Z" fill="#BA7000"/>
<path d="M64.7636 74.4299L64.4801 74.2979C63.442 73.066 62.9466 71.5034 63.0835 69.8948C63.2216 68.2862 63.975 66.8302 65.2057 65.7921C67.7519 63.6469 71.5675 63.9727 73.7115 66.5189C73.8435 66.6752 73.8229 66.9089 73.6667 67.0422C73.5092 67.1742 73.2754 67.1536 73.1434 66.9974C72.2337 65.9169 70.9558 65.2567 69.5458 65.1368C68.1395 65.0217 66.7634 65.4505 65.6854 66.3602C64.6049 67.2699 63.9447 68.5478 63.8248 69.9578C63.7037 71.3678 64.1385 72.7389 65.0482 73.8182C65.1803 73.9757 65.1597 74.2095 65.0034 74.3415L64.7636 74.4299Z" fill="#FFD375"/>
<path d="M96.6984 20.4601C96.9552 20.4601 97.1624 20.6685 97.1624 20.9253C97.1624 21.182 96.9552 21.3892 96.6984 21.3892C96.4416 21.3892 96.2333 21.182 96.2333 20.9253C96.2333 20.6685 96.4416 20.4601 96.6984 20.4601Z" fill="#1D1811"/>
<path d="M96.6984 21.8847C96.9552 21.8847 97.1624 22.093 97.1624 22.3486C97.1624 22.6054 96.9552 22.8137 96.6984 22.8137C96.4416 22.8137 96.2333 22.6054 96.2333 22.3486C96.2333 22.093 96.4416 21.8847 96.6984 21.8847Z" fill="#1D1811"/>
<path d="M96.6984 23.3092C96.9552 23.3092 97.1624 23.5176 97.1624 23.7732C97.1624 24.0299 96.9552 24.2371 96.6984 24.2371C96.4416 24.2371 96.2333 24.0299 96.2333 23.7732C96.2333 23.5176 96.4416 23.3092 96.6984 23.3092Z" fill="#1D1811"/>
<path d="M96.6984 24.7326C96.9552 24.7326 97.1624 24.9409 97.1624 25.1977C97.1624 25.4533 96.9552 25.6604 96.6984 25.6604C96.4416 25.6604 96.2333 25.4533 96.2333 25.1977C96.2333 24.9409 96.4416 24.7326 96.6984 24.7326Z" fill="#1D1811"/>
<path d="M96.6984 26.1557C96.9552 26.1557 97.1624 26.364 97.1624 26.6208C97.1624 26.8776 96.9552 27.0847 96.6984 27.0847C96.4416 27.0847 96.2333 26.8776 96.2333 26.6208C96.2333 26.364 96.4416 26.1557 96.6984 26.1557Z" fill="#1D1811"/>
<path d="M96.6984 27.5802C96.9552 27.5802 97.1624 27.7886 97.1624 28.0442C97.1624 28.301 96.9552 28.5093 96.6984 28.5093C96.4416 28.5093 96.2333 28.301 96.2333 28.0442C96.2333 27.7886 96.4416 27.5802 96.6984 27.5802Z" fill="#1D1811"/>
<path d="M95.429 20.4601C95.6858 20.4601 95.8929 20.6685 95.8929 20.9253C95.8929 21.182 95.6858 21.3892 95.429 21.3892C95.1722 21.3892 94.965 21.182 94.965 20.9253C94.965 20.6685 95.1722 20.4601 95.429 20.4601Z" fill="#1D1811"/>
<path d="M95.429 21.8847C95.6858 21.8847 95.8929 22.093 95.8929 22.3486C95.8929 22.6054 95.6858 22.8137 95.429 22.8137C95.1722 22.8137 94.965 22.6054 94.965 22.3486C94.965 22.093 95.1722 21.8847 95.429 21.8847Z" fill="#1D1811"/>
<path d="M95.429 23.3092C95.6858 23.3092 95.8929 23.5176 95.8929 23.7732C95.8929 24.0299 95.6858 24.2371 95.429 24.2371C95.1722 24.2371 94.965 24.0299 94.965 23.7732C94.965 23.5176 95.1722 23.3092 95.429 23.3092Z" fill="#1D1811"/>
<path d="M95.429 24.7326C95.6858 24.7326 95.8929 24.9409 95.8929 25.1977C95.8929 25.4533 95.6858 25.6604 95.429 25.6604C95.1722 25.6604 94.965 25.4533 94.965 25.1977C94.965 24.9409 95.1722 24.7326 95.429 24.7326Z" fill="#1D1811"/>
<path d="M95.429 26.1557C95.6858 26.1557 95.8929 26.364 95.8929 26.6208C95.8929 26.8776 95.6858 27.0847 95.429 27.0847C95.1722 27.0847 94.965 26.8776 94.965 26.6208C94.965 26.364 95.1722 26.1557 95.429 26.1557Z" fill="#1D1811"/>
<path d="M95.429 27.5802C95.6858 27.5802 95.8929 27.7886 95.8929 28.0442C95.8929 28.301 95.6858 28.5093 95.429 28.5093C95.1722 28.5093 94.965 28.301 94.965 28.0442C94.965 27.7886 95.1722 27.5802 95.429 27.5802Z" fill="#1D1811"/>
<path d="M94.1595 20.4601C94.4163 20.4601 94.6246 20.6685 94.6246 20.9253C94.6246 21.182 94.4163 21.3892 94.1595 21.3892C93.9039 21.3892 93.6956 21.182 93.6956 20.9253C93.6956 20.6685 93.9039 20.4601 94.1595 20.4601Z" fill="#1D1811"/>
<path d="M94.1595 21.8847C94.4163 21.8847 94.6246 22.093 94.6246 22.3486C94.6246 22.6054 94.4163 22.8137 94.1595 22.8137C93.9039 22.8137 93.6956 22.6054 93.6956 22.3486C93.6956 22.093 93.9039 21.8847 94.1595 21.8847Z" fill="#1D1811"/>
<path d="M94.1595 23.3092C94.4163 23.3092 94.6246 23.5176 94.6246 23.7732C94.6246 24.0299 94.4163 24.2371 94.1595 24.2371C93.9039 24.2371 93.6956 24.0299 93.6956 23.7732C93.6956 23.5176 93.9039 23.3092 94.1595 23.3092Z" fill="#1D1811"/>
<path d="M94.1595 24.7326C94.4163 24.7326 94.6246 24.9409 94.6246 25.1977C94.6246 25.4533 94.4163 25.6604 94.1595 25.6604C93.9039 25.6604 93.6956 25.4533 93.6956 25.1977C93.6956 24.9409 93.9039 24.7326 94.1595 24.7326Z" fill="#1D1811"/>
<path d="M94.1595 26.1557C94.4163 26.1557 94.6246 26.364 94.6246 26.6208C94.6246 26.8776 94.4163 27.0847 94.1595 27.0847C93.9039 27.0847 93.6956 26.8776 93.6956 26.6208C93.6956 26.364 93.9039 26.1557 94.1595 26.1557Z" fill="#1D1811"/>
<path d="M94.1595 27.5802C94.4163 27.5802 94.6246 27.7886 94.6246 28.0442C94.6246 28.301 94.4163 28.5093 94.1595 28.5093C93.9039 28.5093 93.6956 28.301 93.6956 28.0442C93.6956 27.7886 93.9039 27.5802 94.1595 27.5802Z" fill="#1D1811"/>
<path d="M92.8913 20.4601C93.1469 20.4601 93.3552 20.6685 93.3552 20.9253C93.3552 21.182 93.1469 21.3892 92.8913 21.3892C92.6345 21.3892 92.4261 21.182 92.4261 20.9253C92.4261 20.6685 92.6345 20.4601 92.8913 20.4601Z" fill="#1D1811"/>
<path d="M92.8913 21.8847C93.1469 21.8847 93.3552 22.093 93.3552 22.3486C93.3552 22.6054 93.1469 22.8137 92.8913 22.8137C92.6345 22.8137 92.4261 22.6054 92.4261 22.3486C92.4261 22.093 92.6345 21.8847 92.8913 21.8847Z" fill="#1D1811"/>
<path d="M92.8913 23.3092C93.1469 23.3092 93.3552 23.5176 93.3552 23.7732C93.3552 24.0299 93.1469 24.2371 92.8913 24.2371C92.6345 24.2371 92.4261 24.0299 92.4261 23.7732C92.4261 23.5176 92.6345 23.3092 92.8913 23.3092Z" fill="#1D1811"/>
<path d="M92.8913 24.7326C93.1469 24.7326 93.3552 24.9409 93.3552 25.1977C93.3552 25.4533 93.1469 25.6604 92.8913 25.6604C92.6345 25.6604 92.4261 25.4533 92.4261 25.1977C92.4261 24.9409 92.6345 24.7326 92.8913 24.7326Z" fill="#1D1811"/>
<path d="M92.8913 26.1557C93.1469 26.1557 93.3552 26.364 93.3552 26.6208C93.3552 26.8776 93.1469 27.0847 92.8913 27.0847C92.6345 27.0847 92.4261 26.8776 92.4261 26.6208C92.4261 26.364 92.6345 26.1557 92.8913 26.1557Z" fill="#1D1811"/>
<path d="M92.8913 27.5802C93.1469 27.5802 93.3552 27.7886 93.3552 28.0442C93.3552 28.301 93.1469 28.5093 92.8913 28.5093C92.6345 28.5093 92.4261 28.301 92.4261 28.0442C92.4261 27.7886 92.6345 27.5802 92.8913 27.5802Z" fill="#1D1811"/>
<path d="M92.4963 19.4704C92.0058 19.4704 91.606 19.8701 91.606 20.3607V28.3601C91.606 28.8519 92.0058 29.2517 92.4963 29.2517H97.1707C97.6625 29.2517 98.0623 28.8519 98.0623 28.3601V20.3607C98.0623 19.8701 97.6625 19.4704 97.1707 19.4704H92.4963ZM97.1707 29.6235H92.4963C91.801 29.6235 91.2354 29.0566 91.2354 28.3601V20.3607C91.2354 19.6654 91.801 19.0997 92.4963 19.0997H97.1707C97.8672 19.0997 98.4329 19.6654 98.4329 20.3607V28.3601C98.4329 29.0566 97.8672 29.6235 97.1707 29.6235Z" fill="#BA7000"/>
<path d="M92.1814 13.1002C91.864 13.1002 91.606 13.3582 91.606 13.6755V17.2295C91.606 17.5469 91.864 17.8049 92.1814 17.8049H97.4869C97.8043 17.8049 98.0623 17.5469 98.0623 17.2295V13.6755C98.0623 13.3582 97.8043 13.1002 97.4869 13.1002H92.1814ZM97.4869 18.1755H92.1814C91.6593 18.1755 91.2354 17.7516 91.2354 17.2295V13.6755C91.2354 13.1535 91.6593 12.7283 92.1814 12.7283H97.4869C98.009 12.7283 98.4329 13.1535 98.4329 13.6755V17.2295C98.4329 17.7516 98.009 18.1755 97.4869 18.1755Z" fill="#BA7000"/>
<path d="M58.9686 13.0253C58.3436 13.0253 57.8348 13.5352 57.8348 14.159V26.7627C57.8348 27.3877 58.3436 27.8965 58.9686 27.8965H63.1585C63.7823 27.8965 64.2911 27.3877 64.2911 26.7627V14.159C64.2911 13.5352 63.7823 13.0253 63.1585 13.0253H58.9686ZM63.1585 28.2671H58.9686C58.1389 28.2671 57.4642 27.5924 57.4642 26.7627V14.159C57.4642 13.3293 58.1389 12.6546 58.9686 12.6546H63.1585C63.987 12.6546 64.6617 13.3293 64.6617 14.159V26.7627C64.6617 27.5924 63.987 28.2671 63.1585 28.2671Z" fill="#BA7000"/>
<path d="M45.5159 7.23126V1.23773H114.48V7.23126C114.48 9.72049 112.463 11.7373 109.974 11.7373H50.0231C47.5339 11.7373 45.5159 9.72049 45.5159 7.23126Z" fill="#BA7000"/>
<path d="M45.5159 5.99371V0.000152588H114.48V5.99371C114.48 8.48173 112.463 10.4998 109.974 10.4998H50.0231C47.5339 10.4998 45.5159 8.48173 45.5159 5.99371Z" fill="#FFB413"/>
<path d="M111.663 3.58667H48.3807C47.7412 3.58667 47.2227 3.06704 47.2227 2.42869C47.2227 1.78912 47.7412 1.27067 48.3807 1.27067H111.663C112.302 1.27067 112.82 1.78912 112.82 2.42869C112.82 3.06704 112.302 3.58667 111.663 3.58667Z" fill="#FFD375"/>
<path d="M263.919 35.6606C263.39 35.6606 262.828 35.588 262.235 35.4438C255.613 33.8279 253.759 24.0564 253.683 23.6421L254.399 23.51C254.416 23.607 256.244 33.2332 262.407 34.7376C263.874 35.095 265.06 34.9726 266.038 34.3646C268.126 33.0685 268.871 29.7253 269.47 27.0386C269.645 26.2634 269.806 25.533 269.989 24.8994L270.688 25.1005C270.512 25.7122 270.351 26.4342 270.18 27.1961C269.55 30.016 268.768 33.5251 266.422 34.9823C265.696 35.4341 264.856 35.6606 263.919 35.6606Z" fill="#11A4EE"/>
<path d="M263.979 70.5256C261.72 70.5256 258.919 69.9575 256.433 67.7954C251.899 63.8513 254.115 60.513 255.58 58.3048C255.866 57.876 256.134 57.4714 256.334 57.102L256.993 57.4581C256.777 57.8578 256.498 58.2757 256.205 58.7191C254.726 60.9466 252.887 63.7169 256.926 67.2297C261.804 71.4753 267.995 69.1484 268.057 69.1254L268.329 69.8243C268.294 69.8376 266.464 70.5256 263.979 70.5256Z" fill="#11A4EE"/>
<path d="M235.484 107.806C235.423 107.77 229.399 104.148 230.283 97.4786C231.049 91.7164 235.041 91.4753 237.956 91.2997C238.491 91.2682 238.994 91.2379 239.437 91.1749L239.546 91.932C239.078 91.9998 238.557 92.0313 238.002 92.0653C235.206 92.2324 231.726 92.442 231.043 97.5791C230.228 103.737 235.815 107.112 235.872 107.146L235.484 107.806Z" fill="#11A4EE"/>
<path d="M269.614 69.5095L268.873 69.3981C269.092 67.9312 270.231 66.3868 271.437 64.7515C272.042 63.9291 272.669 63.0787 273.177 62.2357C274.33 60.3145 271.996 57.2887 269.041 53.4561C265.57 48.9525 261.25 43.3478 259.882 36.3913L260.616 36.2471C261.952 43.0304 266.212 48.5576 269.636 52.9983C272.886 57.2148 275.235 60.2612 273.818 62.6221C273.293 63.4954 272.656 64.3591 272.039 65.1961C270.891 66.755 269.806 68.2268 269.614 69.5095Z" fill="#11A4EE"/>
<path d="M265.427 67.1536L264.684 67.0433C264.904 65.5765 266.041 64.032 267.248 62.398C267.855 61.5743 268.481 60.7252 268.988 59.8809C270.141 57.9598 267.807 54.9327 264.853 51.1002C261.381 46.5965 257.062 40.993 255.693 34.0365L256.427 33.8912C257.763 40.6745 262.023 46.2028 265.448 50.6435C268.698 54.86 271.046 57.9065 269.63 60.2661C269.105 61.1407 268.467 62.0055 267.851 62.8426C266.703 64.4003 265.616 65.872 265.427 67.1536Z" fill="#CB3124"/>
<path d="M230.121 108.047L229.782 107.36C231.165 106.678 233.158 106.648 235.269 106.618C236.333 106.602 237.432 106.586 238.456 106.482C240.813 106.241 242.068 102.689 243.659 98.1941C245.525 92.9128 247.848 86.3427 253.059 81.2443L253.595 81.7906C248.513 86.7655 246.222 93.2435 244.382 98.4485C242.7 103.2 241.373 106.954 238.536 107.244C237.477 107.352 236.359 107.369 235.279 107.383C233.258 107.413 231.349 107.441 230.121 108.047Z" fill="#CB3124"/>
<path d="M251.435 42.4331C250.942 41.2279 249.589 40.0504 248.155 38.804C247.388 38.1366 246.595 37.4474 245.903 36.7218C244.043 34.7764 245.433 31.2855 247.357 26.456C249.387 21.3564 251.915 15.0116 251.464 8.12171L252.189 8.07324C252.651 15.1279 250.091 21.5575 248.033 26.7249C246.278 31.1304 244.892 34.6117 246.429 36.2203C247.098 36.9205 247.879 37.5988 248.634 38.2553C250.133 39.5599 251.55 40.793 252.109 42.1581L251.435 42.4331Z" fill="#CB3124"/>
<path d="M233.787 19.0551V2.72425H278.919V19.0551C278.919 25.5101 273.686 30.7441 267.229 30.7441H245.474C239.019 30.7441 233.787 25.5101 233.787 19.0551Z" fill="#1D1811"/>
<path d="M264.231 31.139V2.72422H282.709C283.829 2.72422 284.738 3.6327 284.738 4.75316V23.0039C284.738 28.6667 280.146 33.2576 274.484 33.2576H266.35C265.18 33.2576 264.231 32.3091 264.231 31.139Z" fill="#FFB413"/>
<path d="M244.04 31.139V2.72422H225.563C224.443 2.72422 223.534 3.6327 223.534 4.75316V23.0039C223.534 28.6667 228.124 33.2576 233.787 33.2576H241.922C243.092 33.2576 244.04 32.3091 244.04 31.139Z" fill="#FFB413"/>
<path d="M270.271 68.4799L267.552 58.3934L257.303 60.8414L260.023 70.928L270.271 68.4799Z" fill="#1D1811"/>
<path d="M280.403 26.6487V14.0693C280.403 13.4794 280.882 13.0009 281.471 13.0009C282.062 13.0009 282.539 13.4794 282.539 14.0693V26.6487C282.539 27.2386 282.062 27.717 281.471 27.717C280.882 27.717 280.403 27.2386 280.403 26.6487Z" fill="#FFD375"/>
<path d="M240.658 29.6758V14.0693C240.658 13.4794 241.137 13.0009 241.727 13.0009C242.317 13.0009 242.795 13.4794 242.795 14.0693V29.6758C242.795 30.2657 242.317 30.7441 241.727 30.7441C241.137 30.7441 240.658 30.2657 240.658 29.6758Z" fill="#FFD375"/>
<path d="M242.072 115.61L235.217 107.089C234.863 106.649 234.955 106.023 235.423 105.691C235.889 105.358 236.555 105.445 236.909 105.884L243.763 114.406C244.116 114.846 244.024 115.471 243.557 115.804C243.09 116.137 242.425 116.051 242.072 115.61Z" fill="#FFA000"/>
<path d="M233.231 115.181L232.239 108.243C232.159 107.697 232.567 107.194 233.148 107.12C233.727 107.046 234.263 107.429 234.34 107.977L235.333 114.915C235.412 115.461 235.005 115.964 234.424 116.038C233.843 116.11 233.309 115.728 233.231 115.181Z" fill="#FFA000"/>
<path d="M234.163 121.716L233.373 116.204C233.296 115.658 233.703 115.155 234.283 115.081C234.865 115.007 235.398 115.391 235.478 115.937L236.266 121.45C236.344 121.996 235.937 122.499 235.356 122.572C234.775 122.646 234.241 122.263 234.163 121.716Z" fill="#FFA000"/>
<path d="M243.298 116.254L239.798 119.612C239.388 120.005 238.715 120.011 238.297 119.626C237.879 119.24 237.872 118.607 238.283 118.214L241.782 114.856C242.192 114.462 242.864 114.456 243.282 114.843C243.701 115.228 243.706 115.86 243.298 116.254Z" fill="#FFA000"/>
<path d="M242.576 113.572C243.504 113.453 244.355 114.066 244.48 114.939C244.605 115.812 243.954 116.613 243.026 116.731C242.099 116.848 241.246 116.236 241.122 115.363C240.997 114.49 241.648 113.688 242.576 113.572Z" fill="#1D1811"/>
<path d="M226.378 117.593L230.6 107.673C230.819 107.16 230.553 106.58 230.01 106.374C229.466 106.169 228.848 106.418 228.63 106.93L224.409 116.852C224.19 117.363 224.455 117.945 224.998 118.149C225.542 118.354 226.16 118.106 226.378 117.593Z" fill="#FFA000"/>
<path d="M225.376 118.519L229.692 120.888C230.199 121.167 230.848 121.006 231.143 120.53C231.439 120.054 231.268 119.442 230.762 119.165L226.445 116.794C225.94 116.517 225.289 116.677 224.994 117.153C224.699 117.629 224.87 118.24 225.376 118.519Z" fill="#FFA000"/>
<path d="M232.299 101.159C229.84 101.47 228.115 103.596 228.446 105.908C228.775 108.222 231.037 109.845 233.495 109.535C235.951 109.223 237.677 107.096 237.346 104.784C237.017 102.472 234.757 100.849 232.299 101.159Z" fill="#1D1811"/>
<path d="M225.321 115.751C224.393 115.868 223.742 116.67 223.867 117.544C223.991 118.416 224.843 119.029 225.771 118.911C226.698 118.794 227.35 117.992 227.225 117.118C227.1 116.246 226.246 115.635 225.321 115.751Z" fill="#1D1811"/>
<path d="M234.084 113.676C233.157 113.793 232.506 114.596 232.631 115.468C232.756 116.341 233.608 116.953 234.535 116.835C235.463 116.719 236.115 115.916 235.989 115.044C235.865 114.172 235.012 113.559 234.084 113.676Z" fill="#1D1811"/>
<path d="M278.045 25.7558L274.039 21.75C273.841 21.5502 273.841 21.2267 274.039 21.0269C274.241 20.8282 274.563 20.8282 274.763 21.0269L278.768 25.0326C278.968 25.2325 278.968 25.5559 278.768 25.7558C278.569 25.9544 278.245 25.9544 278.045 25.7558Z" fill="#FFD375"/>
<path d="M278.045 23.2424L274.039 19.2366C273.841 19.0367 273.841 18.7133 274.039 18.5134C274.241 18.3148 274.563 18.3148 274.763 18.5134L278.768 22.5192C278.968 22.7191 278.968 23.0425 278.768 23.2424C278.569 23.441 278.245 23.441 278.045 23.2424Z" fill="#FFD375"/>
<path d="M278.045 20.7289L274.039 16.7232C273.841 16.5233 273.841 16.1999 274.039 16C274.241 15.8014 274.563 15.8014 274.763 16L278.768 20.0058C278.968 20.2057 278.968 20.5291 278.768 20.7289C278.569 20.9276 278.245 20.9276 278.045 20.7289Z" fill="#FFD375"/>
<path d="M275.374 28.2014L274.039 26.8677C273.841 26.6678 273.841 26.3444 274.039 26.1445C274.241 25.9447 274.563 25.9447 274.763 26.1445L276.096 27.4782C276.296 27.678 276.296 28.0015 276.096 28.2014C275.898 28.4 275.573 28.4 275.374 28.2014Z" fill="#FFD375"/>
<path d="M278.045 28.3589L274.039 24.3543C273.841 24.1545 273.841 23.831 274.039 23.6312C274.241 23.4325 274.563 23.4325 274.763 23.6312L278.768 27.637C278.968 27.8368 278.968 28.159 278.768 28.3589C278.569 28.5588 278.245 28.5588 278.045 28.3589Z" fill="#FFD375"/>
<path d="M278.045 18.2155L274.039 14.2098C273.841 14.0099 273.841 13.6864 274.039 13.4866C274.241 13.2879 274.563 13.2879 274.763 13.4866L278.768 17.4924C278.968 17.6922 278.968 18.0156 278.768 18.2155C278.569 18.4142 278.245 18.4142 278.045 18.2155Z" fill="#FFD375"/>
<path d="M278.045 15.5217L276.673 14.1493C276.473 13.9495 276.473 13.626 276.673 13.4262C276.871 13.2275 277.196 13.2275 277.395 13.4262L278.768 14.7998C278.968 14.9985 278.968 15.3219 278.768 15.5217C278.568 15.7216 278.245 15.7216 278.045 15.5217Z" fill="#FFD375"/>
<path d="M276.125 10.3508L272.121 6.34497C271.921 6.14511 271.921 5.8217 272.121 5.62304C272.321 5.42318 272.643 5.42318 272.843 5.62304L276.848 9.62883C277.047 9.82749 277.047 10.1509 276.848 10.3508C276.649 10.5494 276.325 10.5494 276.125 10.3508Z" fill="#FFCA59"/>
<path d="M267.967 54.7013L258.84 20.8586C257.929 17.4791 254.277 15.4332 250.684 16.292C247.091 17.1484 244.918 20.5849 245.83 23.9644L254.959 57.8083C255.869 61.189 259.521 63.2337 263.113 62.3761C266.706 61.5173 268.879 58.082 267.967 54.7013Z" fill="#FFB413"/>
<path d="M257.964 47.0567L251.203 21.9863C251.031 21.3528 250.349 20.9713 249.675 21.1311L249.242 21.2353C248.568 21.3952 248.162 22.0384 248.333 22.6719L255.095 47.7423C255.264 48.3746 255.949 48.7574 256.622 48.5975L257.055 48.4933C257.728 48.3334 258.135 47.689 257.964 47.0567Z" fill="#FFD375"/>
<path d="M258.657 42.3108L261.736 37.4425C261.89 37.2003 261.805 36.8865 261.548 36.7424C261.29 36.5983 260.957 36.6782 260.805 36.9205L257.726 41.7887C257.572 42.031 257.657 42.3435 257.913 42.4889C258.171 42.6318 258.504 42.5531 258.657 42.3108Z" fill="#FFD375"/>
<path d="M258 39.8735L261.08 35.0065C261.232 34.7642 261.149 34.4505 260.891 34.3063C260.633 34.1622 260.301 34.2409 260.147 34.4832L257.068 39.3514C256.915 39.5937 256.999 39.9074 257.257 40.0515C257.515 40.1957 257.847 40.1157 258 39.8735Z" fill="#FFD375"/>
<path d="M257.343 37.4377L260.422 32.5707C260.576 32.3272 260.492 32.0147 260.234 31.8693C259.976 31.7264 259.643 31.8051 259.491 32.0474L256.411 36.9156C256.258 37.1579 256.342 37.4704 256.599 37.6158C256.857 37.7599 257.19 37.68 257.343 37.4377Z" fill="#FFD375"/>
<path d="M256.686 35.0018L259.765 30.1336C259.918 29.8913 259.834 29.5776 259.576 29.4335C259.32 29.2905 258.987 29.3693 258.833 29.6115L255.755 34.4797C255.601 34.722 255.685 35.0357 255.943 35.1787C256.201 35.3228 256.532 35.2441 256.686 35.0018Z" fill="#FFD375"/>
<path d="M256.03 32.5646L259.108 27.6976C259.261 27.4553 259.178 27.1416 258.92 26.9974C258.662 26.8533 258.329 26.9332 258.176 27.1755L255.097 32.0438C254.943 32.2848 255.028 32.5985 255.286 32.7427C255.543 32.8868 255.876 32.8081 256.03 32.5646Z" fill="#FFD375"/>
<path d="M255.603 57.9414C255.435 57.9414 255.28 57.8288 255.234 57.658C254.827 56.1487 255.049 54.5679 255.858 53.2064C256.727 51.7444 258.151 50.7124 259.868 50.3029C263.293 49.4841 266.773 51.4464 267.644 54.6709C267.698 54.8768 267.578 55.0864 267.374 55.1409C267.171 55.1954 266.96 55.0755 266.904 54.872C266.139 52.0412 263.053 50.3272 260.046 51.0467C258.533 51.4089 257.279 52.3149 256.517 53.5977C255.813 54.7799 255.619 56.1511 255.973 57.4581C256.027 57.6628 255.909 57.8736 255.704 57.9281L255.603 57.9414Z" fill="#BA7000"/>
<path d="M260.152 51.3945C257.351 52.0632 255.658 54.7414 256.369 57.376C257.08 60.0105 259.925 61.6046 262.726 60.936C265.525 60.2674 267.218 57.5891 266.509 54.9546C265.798 52.32 262.951 50.7259 260.152 51.3945Z" fill="#1D1811"/>
<path d="M246.508 24.2173C246.339 24.2173 246.184 24.1058 246.138 23.9338C245.731 22.4245 245.953 20.8426 246.763 19.4811C247.634 18.019 249.057 16.9882 250.774 16.5788C254.197 15.7612 257.68 17.7235 258.548 20.948C258.603 21.1527 258.481 21.3623 258.278 21.418C258.077 21.4725 257.864 21.3525 257.808 21.1478C257.046 18.3194 253.971 16.6006 250.952 17.3238C249.439 17.6847 248.184 18.5896 247.422 19.8736C246.718 21.0546 246.526 22.427 246.878 23.7352C246.933 23.9399 246.812 24.1494 246.608 24.2052L246.508 24.2173Z" fill="#BA7000"/>
<path d="M251.057 17.6719C248.257 18.3393 246.563 21.0175 247.274 23.6521C247.984 26.2879 250.83 27.882 253.63 27.2121C256.429 26.5435 258.124 23.8653 257.413 21.2319C256.702 18.5961 253.857 17.0033 251.057 17.6719Z" fill="#1D1811"/>
<path d="M236.215 106.035L241.023 100.668C242.094 99.4723 241.933 97.6844 240.661 96.6766C239.389 95.6687 237.491 95.8214 236.419 97.0181L231.612 102.385C230.54 103.581 230.702 105.368 231.974 106.377C233.245 107.384 235.144 107.232 236.215 106.035Z" fill="#BA7000"/>
<path d="M245.459 101.12L269.37 74.4188C271.758 71.7527 271.396 67.7687 268.562 65.5218C265.727 63.2736 261.494 63.614 259.105 66.28L235.194 92.9808C232.805 95.6481 233.167 99.6309 236.002 101.879C238.836 104.126 243.07 103.786 245.459 101.12Z" fill="#FFB413"/>
<path d="M246.231 89.0149L263.944 69.2355C264.392 68.7352 264.325 67.9903 263.793 67.5688L263.451 67.2986C262.921 66.8771 262.127 66.9413 261.68 67.4404L243.967 87.2198C243.52 87.7188 243.588 88.465 244.119 88.8853L244.462 89.1566C244.992 89.5782 245.784 89.514 246.231 89.0149Z" fill="#FFD375"/>
<path d="M250.735 86.7789L256.734 86.298C257.032 86.2738 257.254 86.0267 257.229 85.7457C257.202 85.4646 256.939 85.2563 256.641 85.2805L250.643 85.7614C250.345 85.7857 250.122 86.0328 250.149 86.3138C250.174 86.5948 250.437 86.8044 250.735 86.7789Z" fill="#FFD375"/>
<path d="M252.456 84.8579L258.455 84.3759C258.754 84.3516 258.976 84.1045 258.949 83.8235C258.925 83.5425 258.662 83.3341 258.363 83.3583L252.364 83.8404C252.066 83.8634 251.845 84.1106 251.87 84.3916C251.895 84.6738 252.158 84.8822 252.456 84.8579Z" fill="#FFD375"/>
<path d="M254.179 82.9356L260.176 82.4535C260.475 82.4305 260.697 82.1834 260.67 81.9011C260.646 81.6201 260.383 81.4118 260.084 81.436L254.087 81.9181C253.788 81.9423 253.566 82.1894 253.591 82.4704C253.617 82.7515 253.88 82.9598 254.179 82.9356Z" fill="#FFD375"/>
<path d="M255.9 81.0132L261.897 80.5323C262.196 80.5081 262.418 80.261 262.391 79.98C262.367 79.699 262.104 79.4894 261.805 79.5136L255.808 79.9957C255.509 80.0199 255.287 80.267 255.313 80.5481C255.338 80.8291 255.601 81.0374 255.9 81.0132Z" fill="#FFD375"/>
<path d="M257.621 79.092L263.618 78.6099C263.918 78.5857 264.139 78.3386 264.114 78.0576C264.088 77.7765 263.826 77.5682 263.526 77.5924L257.529 78.0733C257.23 78.0975 257.008 78.3446 257.034 78.6269C257.059 78.9067 257.322 79.115 257.621 79.092Z" fill="#FFD375"/>
<path d="M267.587 66.6107C265.378 64.8579 262.078 65.1232 260.216 67.2018C258.355 69.2804 258.638 72.3862 260.846 74.1366C263.055 75.8893 266.355 75.624 268.217 73.5454C270.077 71.4668 269.796 68.361 267.587 66.6107Z" fill="#1D1811"/>
<path d="M243.763 93.2302C241.553 91.4787 238.255 91.744 236.392 93.8226C234.53 95.9012 234.814 99.0057 237.022 100.757C239.23 102.509 242.531 102.245 244.393 100.165C246.253 98.0863 245.972 94.9818 243.763 93.2302Z" fill="#BA7000"/>
<path d="M268.862 74.4407L268.607 74.3426C268.449 74.202 268.436 73.9598 268.578 73.8023C269.533 72.7352 269.995 71.3809 269.876 69.9879C269.755 68.5731 269.054 67.2903 267.9 66.377C265.518 64.4862 261.948 64.772 259.941 67.0129C259.797 67.1704 259.557 67.1825 259.4 67.0432C259.243 66.9015 259.23 66.6593 259.369 66.5018C261.645 63.9653 265.684 63.6419 268.376 65.7762C269.697 66.8228 270.501 68.2957 270.639 69.9225C270.776 71.5275 270.246 73.0864 269.147 74.3135L268.862 74.4407Z" fill="#FFD375"/>
<path d="M270.421 20.4601C270.677 20.4601 270.885 20.6685 270.885 20.9253C270.885 21.182 270.677 21.3892 270.421 21.3892C270.164 21.3892 269.956 21.182 269.956 20.9253C269.956 20.6685 270.164 20.4601 270.421 20.4601Z" fill="#1D1811"/>
<path d="M270.421 21.8847C270.677 21.8847 270.885 22.093 270.885 22.3486C270.885 22.6054 270.677 22.8137 270.421 22.8137C270.164 22.8137 269.956 22.6054 269.956 22.3486C269.956 22.093 270.164 21.8847 270.421 21.8847Z" fill="#1D1811"/>
<path d="M270.421 23.3092C270.677 23.3092 270.885 23.5176 270.885 23.7732C270.885 24.0299 270.677 24.2371 270.421 24.2371C270.164 24.2371 269.956 24.0299 269.956 23.7732C269.956 23.5176 270.164 23.3092 270.421 23.3092Z" fill="#1D1811"/>
<path d="M270.421 24.7326C270.677 24.7326 270.885 24.9409 270.885 25.1977C270.885 25.4533 270.677 25.6604 270.421 25.6604C270.164 25.6604 269.956 25.4533 269.956 25.1977C269.956 24.9409 270.164 24.7326 270.421 24.7326Z" fill="#1D1811"/>
<path d="M270.421 26.1557C270.677 26.1557 270.885 26.364 270.885 26.6208C270.885 26.8776 270.677 27.0847 270.421 27.0847C270.164 27.0847 269.956 26.8776 269.956 26.6208C269.956 26.364 270.164 26.1557 270.421 26.1557Z" fill="#1D1811"/>
<path d="M270.421 27.5802C270.677 27.5802 270.885 27.7886 270.885 28.0442C270.885 28.301 270.677 28.5093 270.421 28.5093C270.164 28.5093 269.956 28.301 269.956 28.0442C269.956 27.7886 270.164 27.5802 270.421 27.5802Z" fill="#1D1811"/>
<path d="M269.152 20.4601C269.407 20.4601 269.616 20.6685 269.616 20.9253C269.616 21.182 269.407 21.3892 269.152 21.3892C268.895 21.3892 268.688 21.182 268.688 20.9253C268.688 20.6685 268.895 20.4601 269.152 20.4601Z" fill="#1D1811"/>
<path d="M269.152 21.8847C269.407 21.8847 269.616 22.093 269.616 22.3486C269.616 22.6054 269.407 22.8137 269.152 22.8137C268.895 22.8137 268.688 22.6054 268.688 22.3486C268.688 22.093 268.895 21.8847 269.152 21.8847Z" fill="#1D1811"/>
<path d="M269.152 23.3092C269.407 23.3092 269.616 23.5176 269.616 23.7732C269.616 24.0299 269.407 24.2371 269.152 24.2371C268.895 24.2371 268.688 24.0299 268.688 23.7732C268.688 23.5176 268.895 23.3092 269.152 23.3092Z" fill="#1D1811"/>
<path d="M269.152 24.7326C269.407 24.7326 269.616 24.9409 269.616 25.1977C269.616 25.4533 269.407 25.6604 269.152 25.6604C268.895 25.6604 268.688 25.4533 268.688 25.1977C268.688 24.9409 268.895 24.7326 269.152 24.7326Z" fill="#1D1811"/>
<path d="M269.152 26.1557C269.407 26.1557 269.616 26.364 269.616 26.6208C269.616 26.8776 269.407 27.0847 269.152 27.0847C268.895 27.0847 268.688 26.8776 268.688 26.6208C268.688 26.364 268.895 26.1557 269.152 26.1557Z" fill="#1D1811"/>
<path d="M269.152 27.5802C269.407 27.5802 269.616 27.7886 269.616 28.0442C269.616 28.301 269.407 28.5093 269.152 28.5093C268.895 28.5093 268.688 28.301 268.688 28.0442C268.688 27.7886 268.895 27.5802 269.152 27.5802Z" fill="#1D1811"/>
<path d="M267.882 20.4601C268.139 20.4601 268.346 20.6685 268.346 20.9253C268.346 21.182 268.139 21.3892 267.882 21.3892C267.627 21.3892 267.418 21.182 267.418 20.9253C267.418 20.6685 267.627 20.4601 267.882 20.4601Z" fill="#1D1811"/>
<path d="M267.882 21.8847C268.139 21.8847 268.346 22.093 268.346 22.3486C268.346 22.6054 268.139 22.8137 267.882 22.8137C267.627 22.8137 267.418 22.6054 267.418 22.3486C267.418 22.093 267.627 21.8847 267.882 21.8847Z" fill="#1D1811"/>
<path d="M267.882 23.3092C268.139 23.3092 268.346 23.5176 268.346 23.7732C268.346 24.0299 268.139 24.2371 267.882 24.2371C267.627 24.2371 267.418 24.0299 267.418 23.7732C267.418 23.5176 267.627 23.3092 267.882 23.3092Z" fill="#1D1811"/>
<path d="M267.882 24.7326C268.139 24.7326 268.346 24.9409 268.346 25.1977C268.346 25.4533 268.139 25.6604 267.882 25.6604C267.627 25.6604 267.418 25.4533 267.418 25.1977C267.418 24.9409 267.627 24.7326 267.882 24.7326Z" fill="#1D1811"/>
<path d="M267.882 26.1557C268.139 26.1557 268.346 26.364 268.346 26.6208C268.346 26.8776 268.139 27.0847 267.882 27.0847C267.627 27.0847 267.418 26.8776 267.418 26.6208C267.418 26.364 267.627 26.1557 267.882 26.1557Z" fill="#1D1811"/>
<path d="M267.882 27.5802C268.139 27.5802 268.346 27.7886 268.346 28.0442C268.346 28.301 268.139 28.5093 267.882 28.5093C267.627 28.5093 267.418 28.301 267.418 28.0442C267.418 27.7886 267.627 27.5802 267.882 27.5802Z" fill="#1D1811"/>
<path d="M266.614 20.4601C266.871 20.4601 267.077 20.6685 267.077 20.9253C267.077 21.182 266.871 21.3892 266.614 21.3892C266.357 21.3892 266.149 21.182 266.149 20.9253C266.149 20.6685 266.357 20.4601 266.614 20.4601Z" fill="#1D1811"/>
<path d="M266.614 21.8847C266.871 21.8847 267.077 22.093 267.077 22.3486C267.077 22.6054 266.871 22.8137 266.614 22.8137C266.357 22.8137 266.149 22.6054 266.149 22.3486C266.149 22.093 266.357 21.8847 266.614 21.8847Z" fill="#1D1811"/>
<path d="M266.614 23.3092C266.871 23.3092 267.077 23.5176 267.077 23.7732C267.077 24.0299 266.871 24.2371 266.614 24.2371C266.357 24.2371 266.149 24.0299 266.149 23.7732C266.149 23.5176 266.357 23.3092 266.614 23.3092Z" fill="#1D1811"/>
<path d="M266.614 24.7326C266.871 24.7326 267.077 24.9409 267.077 25.1977C267.077 25.4533 266.871 25.6604 266.614 25.6604C266.357 25.6604 266.149 25.4533 266.149 25.1977C266.149 24.9409 266.357 24.7326 266.614 24.7326Z" fill="#1D1811"/>
<path d="M266.614 26.1557C266.871 26.1557 267.077 26.364 267.077 26.6208C267.077 26.8776 266.871 27.0847 266.614 27.0847C266.357 27.0847 266.149 26.8776 266.149 26.6208C266.149 26.364 266.357 26.1557 266.614 26.1557Z" fill="#1D1811"/>
<path d="M266.614 27.5802C266.871 27.5802 267.077 27.7886 267.077 28.0442C267.077 28.301 266.871 28.5093 266.614 28.5093C266.357 28.5093 266.149 28.301 266.149 28.0442C266.149 27.7886 266.357 27.5802 266.614 27.5802Z" fill="#1D1811"/>
<path d="M266.219 19.4704C265.729 19.4704 265.329 19.8701 265.329 20.3607V28.3601C265.329 28.8519 265.729 29.2517 266.219 29.2517H270.894C271.384 29.2517 271.785 28.8519 271.785 28.3601V20.3607C271.785 19.8701 271.384 19.4704 270.894 19.4704H266.219ZM270.894 29.6235H266.219C265.524 29.6235 264.958 29.0566 264.958 28.3601V20.3607C264.958 19.6654 265.524 19.0997 266.219 19.0997H270.894C271.59 19.0997 272.157 19.6654 272.157 20.3607V28.3601C272.157 29.0566 271.59 29.6235 270.894 29.6235Z" fill="#BA7000"/>
<path d="M265.905 13.1002C265.587 13.1002 265.329 13.3582 265.329 13.6755V17.2295C265.329 17.5469 265.587 17.8049 265.905 17.8049H271.21C271.526 17.8049 271.785 17.5469 271.785 17.2295V13.6755C271.785 13.3582 271.526 13.1002 271.21 13.1002H265.905ZM271.21 18.1755H265.905C265.382 18.1755 264.958 17.7516 264.958 17.2295V13.6755C264.958 13.1535 265.382 12.7283 265.905 12.7283H271.21C271.732 12.7283 272.157 13.1535 272.157 13.6755V17.2295C272.157 17.7516 271.732 18.1755 271.21 18.1755Z" fill="#BA7000"/>
<path d="M232.692 13.0253C232.067 13.0253 231.558 13.5352 231.558 14.159V26.7627C231.558 27.3877 232.067 27.8965 232.692 27.8965H236.881C237.505 27.8965 238.014 27.3877 238.014 26.7627V14.159C238.014 13.5352 237.505 13.0253 236.881 13.0253H232.692ZM236.881 28.2671H232.692C231.861 28.2671 231.187 27.5924 231.187 26.7627V14.159C231.187 13.3293 231.861 12.6546 232.692 12.6546H236.881C237.711 12.6546 238.386 13.3293 238.386 14.159V26.7627C238.386 27.5924 237.711 28.2671 236.881 28.2671Z" fill="#BA7000"/>
<path d="M219.239 7.23126V1.23773H288.204V7.23126C288.204 9.72049 286.186 11.7373 283.697 11.7373H223.746C221.256 11.7373 219.239 9.72049 219.239 7.23126Z" fill="#BA7000"/>
<path d="M219.239 5.99371V0.000152588H288.204V5.99371C288.204 8.48173 286.186 10.4998 283.697 10.4998H223.746C221.256 10.4998 219.239 8.48173 219.239 5.99371Z" fill="#FFB413"/>
<path d="M285.386 3.58667H222.104C221.463 3.58667 220.944 3.06704 220.944 2.42869C220.944 1.78912 221.463 1.27067 222.104 1.27067H285.386C286.024 1.27067 286.544 1.78912 286.544 2.42869C286.544 3.06704 286.024 3.58667 285.386 3.58667Z" fill="#FFD375"/>
</g>
<defs>
<clipPath id="clip0">
<rect width="345" height="198.58" fill="white"/>
</clipPath>
</defs>
</svg>
