<svg width="454" height="302" viewBox="0 0 454 302" fill="none" xmlns="http://www.w3.org/2000/svg">
<path d="M381.222 143.997H418.802V107.6H381.222V143.997ZM422.685 147.878H377.341V103.717H422.685V147.878Z" fill="#E2E2E2"/>
<path d="M419.391 147.33L377.928 107.049L380.634 104.267L422.095 144.546L419.391 147.33Z" fill="#E2E2E2"/>
<path d="M380.634 147.33L377.928 144.546L419.391 104.267L422.095 107.049L380.634 147.33Z" fill="#E2E2E2"/>
<path d="M381.222 184.122H418.802V147.724H381.222V184.122ZM422.685 188.005H377.341V143.843H422.685V188.005Z" fill="#E2E2E2"/>
<path d="M419.391 187.454L377.928 147.176L380.634 144.392L422.095 184.671L419.391 187.454Z" fill="#E2E2E2"/>
<path d="M380.634 187.454L377.928 184.671L419.391 144.392L422.095 147.176L380.634 187.454Z" fill="#E2E2E2"/>
<path d="M381.222 224.247H418.802V187.851H381.222V224.247ZM422.685 228.128H377.341V183.968H422.685V228.128Z" fill="#E2E2E2"/>
<path d="M419.391 227.581L377.928 187.3L380.634 184.517L422.095 224.797L419.391 227.581Z" fill="#E2E2E2"/>
<path d="M380.634 227.581L377.928 224.797L419.391 184.517L422.095 187.3L380.634 227.581Z" fill="#E2E2E2"/>
<path d="M381.222 264.37H418.802V227.974H381.222V264.37ZM422.685 268.253H377.341V224.093H422.685V268.253Z" fill="#E2E2E2"/>
<path d="M419.391 267.704L377.928 227.425L380.634 224.642L422.095 264.92L419.391 267.704Z" fill="#E2E2E2"/>
<path d="M380.634 267.704L377.928 264.92L419.391 224.642L422.095 227.425L380.634 267.704Z" fill="#E2E2E2"/>
<path d="M38.6182 143.997H76.1992V107.6H38.6182V143.997ZM80.0801 147.878H34.7373V103.717H80.0801V147.878Z" fill="#E2E2E2"/>
<path d="M76.7863 147.33L35.3252 107.049L38.0301 104.267L79.4912 144.546L76.7863 147.33Z" fill="#E2E2E2"/>
<path d="M38.0301 147.33L35.3252 144.546L76.7863 104.267L79.4912 107.049L38.0301 147.33Z" fill="#E2E2E2"/>
<path d="M38.6182 184.122H76.1992V147.724H38.6182V184.122ZM80.0801 188.005H34.7373V143.843H80.0801V188.005Z" fill="#E2E2E2"/>
<path d="M76.7863 187.454L35.3252 147.176L38.0301 144.392L79.4912 184.671L76.7863 187.454Z" fill="#E2E2E2"/>
<path d="M38.0301 187.454L35.3252 184.671L76.7863 144.392L79.4912 147.176L38.0301 187.454Z" fill="#E2E2E2"/>
<path d="M38.6182 224.247H76.1992V187.851H38.6182V224.247ZM80.0801 228.128H34.7373V183.968H80.0801V228.128Z" fill="#E2E2E2"/>
<path d="M76.7863 227.581L35.3252 187.3L38.0301 184.517L79.4912 224.797L76.7863 227.581Z" fill="#E2E2E2"/>
<path d="M38.0301 227.581L35.3252 224.797L76.7863 184.517L79.4912 187.3L38.0301 227.581Z" fill="#E2E2E2"/>
<path d="M38.6182 264.37H76.1992V227.974H38.6182V264.37ZM80.0801 268.253H34.7373V224.093H80.0801V268.253Z" fill="#E2E2E2"/>
<path d="M76.7863 267.704L35.3252 227.425L38.0301 224.642L79.4912 264.92L76.7863 267.704Z" fill="#E2E2E2"/>
<path d="M38.0301 267.704L35.3252 264.92L76.7863 224.642L79.4912 227.425L38.0301 267.704Z" fill="#E2E2E2"/>
<path d="M20.2996 101.926H97.559V35.2982H20.2996V101.926ZM105.091 109.458H12.7686V27.7665H105.091V109.458Z" fill="#C9C8C8"/>
<path d="M98.8468 108.526L14.0557 34.3663L19.0129 28.6981L103.805 102.858L98.8468 108.526Z" fill="#C9C8C8"/>
<path d="M105.091 101.926H182.351V35.2982H105.091V101.926ZM189.882 109.458H97.5596V27.7665H189.882V109.458Z" fill="#C9C8C8"/>
<path d="M103.804 108.526L98.8467 102.858L183.637 28.6981L188.595 34.3663L103.804 108.526Z" fill="#C9C8C8"/>
<path d="M189.881 101.926H267.141V35.2982H189.881V101.926ZM274.672 109.458H182.35V27.7665H274.672V109.458Z" fill="#C9C8C8"/>
<path d="M268.429 108.526L183.638 34.3663L188.595 28.6981L273.386 102.858L268.429 108.526Z" fill="#C9C8C8"/>
<path d="M274.673 101.926H351.933V35.2982H274.673V101.926ZM359.464 109.458H267.142V27.7665H359.464V109.458Z" fill="#C9C8C8"/>
<path d="M273.385 108.526L268.428 102.858L353.219 28.6981L358.176 34.3663L273.385 108.526Z" fill="#C9C8C8"/>
<path d="M359.463 101.926H436.723V35.2982H359.463V101.926ZM444.253 109.458H351.932V27.7665H444.253V109.458Z" fill="#C9C8C8"/>
<path d="M438.011 108.526L353.22 34.3663L358.177 28.6981L442.968 102.858L438.011 108.526Z" fill="#C9C8C8"/>
<path d="M115.653 247.665L98.5451 246.737C98.2427 246.721 97.9431 246.692 97.6458 246.644L79.0219 243.815C74.4203 243.115 70.746 239.573 69.8786 234.998L68.7116 228.835C68.4037 227.207 68.7988 225.512 69.7951 224.187L71.1716 222.358L70.7148 215.36C70.523 212.432 70.523 212.432 70.5243 212.218C70.525 212.16 70.5265 212.081 70.5172 211.818C70.1315 203.113 72.1813 200.36 73.8297 198.147C79.1537 191.84 85.0653 188.191 92.4817 186.598L112.648 183.285L113.061 185.802L92.9561 189.105C86.1827 190.561 80.72 193.941 75.8271 199.731C74.4061 201.645 72.7399 203.882 73.0452 211.566C73.0805 212.048 73.0776 212.169 73.0771 212.253C73.0756 212.41 73.0791 212.411 73.2611 215.193L74.1723 229.165L72.199 225.241L71.8343 225.723C71.2679 226.475 71.0442 227.437 71.2191 228.36L72.3867 234.523C73.0515 238.036 75.8724 240.755 79.4051 241.292L98.0288 244.121C98.2454 244.154 98.4642 244.177 98.6837 244.19L115.716 245.115L178.231 244.796H368.146L368.927 244.638C401.646 242.706 407.579 241.781 408.947 234.525C409.152 233.443 409.337 232.513 409.497 231.705C410.316 227.575 410.423 227.028 409.143 225.248L407.126 229.285V223.876C407.126 223.218 407.133 222.574 407.14 221.938C407.193 216.982 407.238 212.702 403.81 207.906L403.513 207.464C396.861 198.578 392.55 197.617 358.999 190.151C350.569 188.275 340.155 185.956 327.448 183.002V218.952H324.898V179.786L326.464 180.152C339.868 183.279 350.784 185.708 359.556 187.66C393.172 195.143 398.338 196.29 405.592 205.986L405.908 206.45C409.74 211.814 409.747 216.639 409.694 221.729L410.494 222.79C413.166 226.317 413.079 226.761 412 232.201C411.84 233.002 411.657 233.925 411.456 234.998C409.694 244.326 402.043 245.229 370.187 247.119L368.989 247.348H228.388H228.159H178.238L115.653 247.665Z" fill="#789CA6"/>
<path d="M119.672 225.589H117.12V196.389H119.672V225.589Z" fill="#789CA6"/>
<path d="M72.981 222.852L73.8401 224.563C76.5759 230.023 82.0714 233.559 88.175 233.789L117.569 234.893L116.214 246.411L99.1804 245.485C98.9207 245.47 98.6607 245.445 98.4037 245.405L79.7793 242.575C75.7058 241.955 72.467 238.832 71.6995 234.783L70.5319 228.62C70.2898 227.34 70.5977 226.018 71.3808 224.978L72.981 222.852Z" fill="#789CA6"/>
<path d="M409.491 222.851L408.636 224.562C405.909 230.022 400.23 235.252 394.147 235.48H365.42L366.832 246.093C392.748 244.681 403.229 242.497 402.716 242.575C406.776 241.955 410.004 238.832 410.767 234.782L411.931 228.619C412.174 227.339 411.866 226.018 411.086 224.978L409.491 222.851Z" fill="#789CA6"/>
<path d="M408.97 218.363C408.97 213.857 407.668 210.351 405.419 207.201L406.923 215.436L405.887 225.877C405.689 227.86 406.708 229.769 408.468 230.706C408.792 229.538 408.97 228.315 408.97 227.057V218.363Z" fill="#48443E"/>
<path d="M405.381 207.131C405.381 207.131 401.712 227.248 396.013 228.633C376.077 233.471 368.226 223.056 361.867 216.617C357.178 211.872 349.32 205.772 337.27 206.261C325.219 206.751 319.192 211.781 319.192 211.781C317.97 212.319 316.669 213.028 315.347 213.945C311.386 216.691 307.272 221.287 304.759 228.633L285.848 237.363H186.314C186.314 237.363 181.05 218.403 165.26 209.27C149.47 200.136 126.024 206.996 118.529 219.914C111.032 232.833 100.594 229.545 94.011 227.839C87.4267 226.135 84.7162 211.781 77.6977 211.781C75.9728 211.781 74.1431 211.848 72.3623 211.95C72.373 212.165 72.3645 212.345 72.3793 212.569L73.4316 228.751C73.7749 234.026 77.2331 238.589 82.2209 240.343L87.7431 243.158C91.2778 244.402 105.118 245.255 116.125 245.707C115.856 243.281 115.301 234.78 119.499 226.607C125.553 214.824 136.876 207.933 152.274 209.488C165.873 210.86 174.314 221.114 177.637 228.28C181.465 236.538 180.159 246.086 180.159 246.086H304.759C304.759 246.011 304.855 239.602 305.118 237.472C305.537 234.062 306.781 230.332 309.355 226.166C317.241 213.411 336.131 206.571 352.331 214.674C364.222 220.623 368.906 230.939 369.713 239.469C369.883 241.262 369.693 244.277 369.6 245.515C373.889 245.103 378.154 244.476 382.378 243.606L398.108 240.367C404.432 239.067 408.97 233.499 408.97 227.044V218.35C408.97 213.817 407.655 210.296 405.381 207.131Z" fill="#9AC8D4"/>
<path d="M119.499 233.399C125.553 221.617 136.876 214.724 152.274 216.279C165.873 217.651 174.315 227.905 177.637 235.071C179.263 238.578 179.959 242.316 180.226 245.457C180.436 243.231 180.893 235.301 177.637 228.28C174.315 221.115 165.873 210.861 152.274 209.488C136.876 207.933 125.553 214.825 119.499 226.607C115.423 234.543 115.827 242.8 116.101 245.492C116.425 241.966 117.324 237.634 119.499 233.399Z" fill="#263236"/>
<path d="M308.317 233.399C314.37 221.617 325.692 214.724 341.09 216.279C354.689 217.651 363.131 227.905 366.453 235.071C368.079 238.578 368.775 242.316 369.042 245.457C369.252 243.231 369.709 235.301 366.453 228.28C363.131 221.115 354.689 210.861 341.09 209.488C325.692 207.933 314.37 214.825 308.317 226.607C304.239 234.543 304.645 242.8 304.919 245.492C305.241 241.966 306.14 237.634 308.317 233.399Z" fill="#263236"/>
<path d="M297.605 245.967H184.999L182.296 227.84H305.119L297.605 245.967Z" fill="#263236"/>
<path d="M28.2671 247.411H425.734C440.3 247.411 452.108 259.221 452.108 273.787C452.108 288.354 440.3 300.165 425.734 300.165H28.2671C13.6991 300.165 1.89062 288.354 1.89062 273.787C1.89062 259.221 13.6991 247.411 28.2671 247.411Z" fill="#BA7000"/>
<path d="M28.2666 248.827C14.5037 248.827 3.30618 260.026 3.30618 273.787C3.30618 287.551 14.5037 298.748 28.2666 298.748H425.733C439.495 298.748 450.694 287.551 450.694 273.787C450.694 260.026 439.495 248.827 425.733 248.827H28.2666ZM425.733 301.579H28.2666C12.9425 301.579 0.474609 289.112 0.474609 273.787C0.474609 258.463 12.9425 245.996 28.2666 245.996H425.733C441.058 245.996 453.525 258.463 453.525 273.787C453.525 289.112 441.058 301.579 425.733 301.579Z" fill="#201600"/>
<path d="M28.2661 293.084C17.6272 293.084 8.96973 284.428 8.96973 273.788C8.96973 263.149 17.6272 254.494 28.2661 254.494H425.734C436.372 254.494 445.029 263.149 445.029 273.788C445.029 284.428 436.372 293.084 425.734 293.084H28.2661Z" fill="#FFB413"/>
<path d="M28.2656 255.909C18.4063 255.909 10.3846 263.928 10.3846 273.789C10.3846 283.646 18.4063 291.667 28.2656 291.667H425.733C435.592 291.667 443.613 283.646 443.613 273.789C443.613 263.928 435.592 255.909 425.733 255.909H28.2656ZM425.733 294.499H28.2656C16.8444 294.499 7.55371 285.209 7.55371 273.789C7.55371 262.367 16.8444 253.077 28.2656 253.077H425.733C437.153 253.077 446.445 262.367 446.445 273.789C446.445 285.209 437.153 294.499 425.733 294.499Z" fill="#201600"/>
<path d="M28.2658 290.251C19.1884 290.251 11.8018 282.869 11.8018 273.787C11.8018 264.709 19.1884 257.324 28.2658 257.324H425.733C434.813 257.324 442.198 264.709 442.198 273.787C442.198 282.869 434.813 290.251 425.733 290.251H28.2658Z" fill="#FFB413"/>
<path d="M18.8604 273.969C18.8604 268.299 23.4564 263.702 29.1268 263.702C34.797 263.702 39.393 268.299 39.393 273.969C39.393 279.639 34.797 284.234 29.1268 284.234C23.4564 284.234 18.8604 279.639 18.8604 273.969Z" fill="#FFB413"/>
<path d="M29.1272 265.119C24.2479 265.119 20.2769 269.089 20.2769 273.969C20.2769 278.849 24.2479 282.818 29.1272 282.818C34.0073 282.818 37.9781 278.849 37.9781 273.969C37.9781 269.089 34.0073 265.119 29.1272 265.119ZM29.1272 285.65C22.6865 285.65 17.4453 280.411 17.4453 273.969C17.4453 267.527 22.6865 262.288 29.1272 262.288C35.5693 262.288 40.8097 267.527 40.8097 273.969C40.8097 280.411 35.5693 285.65 29.1272 285.65Z" fill="#201600"/>
<path d="M24.4072 273.969C24.4072 271.361 26.5198 269.25 29.1259 269.25C31.732 269.25 33.8452 271.361 33.8452 273.969C33.8452 276.575 31.732 278.687 29.1259 278.687C26.5198 278.687 24.4072 276.575 24.4072 273.969Z" fill="#201600"/>
<path d="M415.994 273.969C415.994 268.299 420.591 263.702 426.261 263.702C431.931 263.702 436.526 268.299 436.526 273.969C436.526 279.639 431.931 284.234 426.261 284.234C420.591 284.234 415.994 279.639 415.994 273.969Z" fill="#FFB413"/>
<path d="M426.261 265.119C421.381 265.119 417.409 269.089 417.409 273.969C417.409 278.849 421.381 282.818 426.261 282.818C431.14 282.818 435.11 278.849 435.11 273.969C435.11 269.089 431.14 265.119 426.261 265.119ZM426.261 285.65C419.819 285.65 414.578 280.411 414.578 273.969C414.578 267.527 419.819 262.288 426.261 262.288C432.701 262.288 437.942 267.527 437.942 273.969C437.942 280.411 432.701 285.65 426.261 285.65Z" fill="#201600"/>
<path d="M421.54 273.969C421.54 271.361 423.653 269.25 426.26 269.25C428.866 269.25 430.979 271.361 430.979 273.969C430.979 276.575 428.866 278.687 426.26 278.687C423.653 278.687 421.54 276.575 421.54 273.969Z" fill="#201600"/>
<path d="M294.771 273.969C294.771 265.988 301.241 259.517 309.224 259.517C317.205 259.517 323.674 265.988 323.674 273.969C323.674 281.95 317.205 288.421 309.224 288.421C301.241 288.421 294.771 281.95 294.771 273.969Z" fill="#FFB413"/>
<path d="M309.224 260.932C302.035 260.932 296.187 266.782 296.187 273.969C296.187 281.156 302.035 287.004 309.224 287.004C316.411 287.004 322.258 281.156 322.258 273.969C322.258 266.782 316.411 260.932 309.224 260.932ZM309.224 289.835C300.474 289.835 293.355 282.718 293.355 273.969C293.355 265.219 300.474 258.101 309.224 258.101C317.971 258.101 325.09 265.219 325.09 273.969C325.09 282.718 317.971 289.835 309.224 289.835Z" fill="#201600"/>
<path d="M302.579 273.968C302.579 270.299 305.554 267.323 309.224 267.323C312.893 267.323 315.868 270.299 315.868 273.968C315.868 277.637 312.893 280.612 309.224 280.612C305.554 280.612 302.579 277.637 302.579 273.968Z" fill="#201600"/>
<path d="M137.407 273.969C137.407 265.988 143.877 259.517 151.858 259.517C159.839 259.517 166.308 265.988 166.308 273.969C166.308 281.95 159.839 288.421 151.858 288.421C143.877 288.421 137.407 281.95 137.407 273.969Z" fill="#FFB413"/>
<path d="M151.857 260.932C144.67 260.932 138.821 266.782 138.821 273.969C138.821 281.156 144.67 287.004 151.857 287.004C159.046 287.004 164.894 281.156 164.894 273.969C164.894 266.782 159.046 260.932 151.857 260.932ZM151.857 289.835C143.108 289.835 135.989 282.718 135.989 273.969C135.989 265.219 143.108 258.101 151.857 258.101C160.607 258.101 167.725 265.219 167.725 273.969C167.725 282.718 160.607 289.835 151.857 289.835Z" fill="#201600"/>
<path d="M145.213 273.968C145.213 270.299 148.189 267.323 151.858 267.323C155.529 267.323 158.502 270.299 158.502 273.968C158.502 277.637 155.529 280.612 151.858 280.612C148.189 280.612 145.213 277.637 145.213 273.968Z" fill="#201600"/>
<path d="M150.556 112.924C149.037 112.924 147.293 112.63 145.276 111.952C133.867 108.118 132.417 96.1401 132.402 96.0205L133.729 95.8719C133.742 95.9842 135.112 107.129 145.702 110.689C154.528 113.652 157.406 108.524 159.723 104.406C160.181 103.588 160.617 102.818 161.07 102.155L162.17 102.907C161.749 103.521 161.329 104.268 160.885 105.058C158.958 108.486 156.465 112.924 150.556 112.924Z" fill="#11A4EE"/>
<path d="M191.132 93.8098C189.363 81.2408 193.09 69.3841 196.086 59.8567C198.637 51.7396 200.654 45.3282 197.694 42.66C196.404 41.4944 194.915 40.3833 193.476 39.3102C190.614 37.1731 187.911 35.1537 186.729 32.781L187.922 32.1882C188.965 34.2746 191.544 36.2014 194.274 38.2407C195.737 39.3337 197.25 40.463 198.588 41.6685C202.182 44.9113 200.16 51.3481 197.359 60.2591C194.402 69.656 190.726 81.3532 192.454 93.6249L191.132 93.8098Z" fill="#CB3124"/>
<path d="M83.4407 91.4546L82.1082 91.3911C82.5401 82.0849 87.5603 77.8741 91.2268 74.7998C94.5498 72.0119 96.5564 70.3298 94.464 66.5304C93.2185 64.2682 90.2162 61.0145 87.3132 57.8695C84.5962 54.9275 82.0302 52.1469 81.1699 50.423L82.3652 49.8285C83.1383 51.3802 85.6421 54.0955 88.2932 56.9668C91.25 60.1698 94.3089 63.4815 95.6323 65.8887C98.2529 70.647 95.3945 73.0451 92.0827 75.8203C88.4128 78.9001 83.8458 82.7302 83.4407 91.4546Z" fill="#CB3124"/>
<path d="M163.115 95.7529C162.616 95.2001 161.989 94.6182 161.324 94.0001C157.7 90.6376 152.741 86.0316 158.275 77.2112C164.673 67.0167 176.657 68.4088 176.777 68.4252L176.61 69.7484C176.496 69.7285 165.342 68.456 159.404 77.9199C154.457 85.805 158.768 89.8074 162.23 93.023C162.917 93.6593 163.566 94.2611 164.106 94.8593L163.115 95.7529Z" fill="#11A4EE"/>
<path d="M172.29 88.937C171.79 88.3841 171.163 87.8023 170.497 87.1841C166.874 83.8216 161.914 79.2157 167.449 70.3952C173.845 60.2008 185.833 61.5947 185.95 61.6092L185.784 62.9325C185.669 62.9161 174.514 61.6419 168.578 71.104C163.631 78.9909 167.942 82.9915 171.406 86.2071C172.093 86.8434 172.741 87.4452 173.28 88.0433L172.29 88.937Z" fill="#CB3124"/>
<path d="M64.5074 73.8413C64.0082 73.2884 63.3803 72.7047 62.7154 72.0866C59.0949 68.7241 54.1335 64.12 59.6685 55.2995C66.0666 45.1033 78.0536 46.4972 78.1696 46.5135L78.0025 47.8368C77.8892 47.8169 66.7357 46.5443 60.7985 56.0083C55.8499 63.8934 60.1606 67.8957 63.6237 71.1096C64.3105 71.7477 64.9591 72.3513 65.4973 72.9476L64.5074 73.8413Z" fill="#11A4EE"/>
<path d="M104.939 56.0696C97.0583 56.0714 91.534 50.8455 91.4639 50.7784L92.3907 49.8195C92.4742 49.8975 100.649 57.5958 111.066 53.5681C119.75 50.2147 118.691 44.4268 117.84 39.7791C117.671 38.8565 117.512 37.9864 117.438 37.187L118.766 37.0638C118.834 37.8051 118.989 38.6462 119.152 39.5381C120.041 44.3996 121.26 51.0594 111.546 54.8134C109.219 55.7125 106.998 56.0696 104.939 56.0696Z" fill="#11A4EE"/>
<path d="M73.6823 67.0234C73.1826 66.4724 72.5559 65.8887 71.8911 65.2724C68.2684 61.9099 63.3063 57.3039 68.8407 48.4835C75.2394 38.2872 87.2242 39.6812 87.344 39.6975L87.1769 41.0207C87.0678 41.0081 75.9087 39.732 69.9714 49.1923C65.0227 57.0792 69.3341 61.0797 72.7974 64.2954C73.4842 64.9334 74.1328 65.5353 74.671 66.1316L73.6823 67.0234Z" fill="#CB3124"/>
<path d="M114.803 26.0264C119.041 30.2481 119.053 37.1072 114.83 41.3452L72.07 84.2583C67.8477 88.4945 60.9893 88.5072 56.7515 84.2855C52.5136 80.0638 52.5024 73.2046 56.7239 68.9666L99.4844 26.0535C103.707 21.8155 110.566 21.8047 114.803 26.0264Z" fill="#FFB413"/>
<path d="M56.3731 84.6337C60.6109 88.8572 67.4693 88.8445 71.6916 84.6065L80.7159 75.5305L73.4653 67.727C70.3221 64.7361 64.2916 63.3041 60.5344 65.1439L56.347 69.3167C52.124 73.5529 52.136 80.412 56.3731 84.6337Z" fill="#BA7000"/>
<path d="M150.519 37.4751C150.73 42.1155 147.14 46.049 142.5 46.2611C137.86 46.4732 133.926 42.8841 133.714 38.2418C133.502 33.6014 137.093 29.6698 141.733 29.4577C146.372 29.2456 150.305 32.8347 150.519 37.4751Z" fill="#48443E"/>
<path d="M146.909 37.641C147.031 40.289 144.983 42.5328 142.335 42.6542C139.687 42.7738 137.443 40.7276 137.322 38.0796C137.2 35.4317 139.25 33.1879 141.898 33.0647C144.546 32.945 146.79 34.9931 146.909 37.641Z" fill="#FFB20F"/>
<path d="M111.621 126.327L100.93 128.194L99.3164 118.956L110.008 117.089L111.621 126.327Z" fill="#1D1811"/>
<path d="M117.927 196.557L118.868 196.388L115.812 179.354L114.871 179.523L117.927 196.557Z" fill="#D5584D"/>
<path d="M113.777 182.672L117.926 181.932L117.635 180.305L113.486 181.044L113.777 182.672Z" fill="#48443E"/>
<path d="M113.692 181.458L117.586 180.762C118.047 180.68 118.353 180.24 118.271 179.779L118.129 178.987L112.568 179.979L112.709 180.773C112.792 181.233 113.232 181.539 113.692 181.458Z" fill="#FFC240"/>
<path d="M113.162 179.871L117.734 179.055C118.61 178.899 119.194 178.062 119.038 177.184L116.02 160.274C115.863 159.396 115.026 158.813 114.149 158.971L109.577 159.786C108.701 159.942 108.116 160.781 108.274 161.657L111.291 178.567C111.447 179.443 112.286 180.028 113.162 179.871Z" fill="#C78B0C"/>
<path d="M112.568 179.978L118.129 178.987L118.236 179.585L112.675 180.576L112.568 179.978Z" fill="#FFB20F"/>
<path d="M115.904 161.136L108.778 162.381L102.316 125.388L109.443 124.143L115.904 161.136Z" fill="#1D1811"/>
<path d="M110.3 127.289L103.445 130.585C102.931 130.832 102.324 130.52 102.225 129.96L102.08 129.128C102.014 128.749 102.208 128.372 102.555 128.206L109.411 124.909C109.924 124.662 110.531 124.974 110.629 125.534L110.774 126.366C110.84 126.745 110.647 127.122 110.3 127.289Z" fill="#979695"/>
<path d="M111.097 131.851L104.24 135.147C103.727 135.396 103.12 135.082 103.023 134.522L102.878 133.69C102.812 133.311 103.006 132.934 103.351 132.768L110.207 129.471C110.72 129.224 111.328 129.536 111.426 130.098L111.571 130.928C111.637 131.307 111.443 131.684 111.097 131.851Z" fill="#7F7E7C"/>
<path d="M111.894 136.412L105.038 139.711C104.525 139.958 103.917 139.646 103.819 139.084L103.674 138.252C103.608 137.873 103.802 137.498 104.149 137.331L111.004 134.033C111.518 133.786 112.125 134.098 112.222 134.66L112.368 135.492C112.434 135.869 112.24 136.246 111.894 136.412Z" fill="#7F7E7C"/>
<path d="M112.692 140.978L105.835 144.274C105.322 144.521 104.715 144.209 104.617 143.647L104.472 142.815C104.406 142.438 104.598 142.061 104.945 141.895L111.801 138.598C112.315 138.351 112.922 138.663 113.021 139.223L113.166 140.055C113.232 140.434 113.038 140.811 112.692 140.978Z" fill="#7F7E7C"/>
<path d="M113.489 145.54L106.633 148.837C106.119 149.083 105.512 148.773 105.414 148.21L105.269 147.38C105.202 147.001 105.396 146.624 105.743 146.457L112.599 143.16C113.113 142.914 113.719 143.226 113.816 143.787L113.961 144.619C114.028 144.996 113.834 145.373 113.489 145.54Z" fill="#7F7E7C"/>
<path d="M114.285 150.102L107.429 153.398C106.916 153.645 106.309 153.335 106.211 152.773L106.065 151.941C106 151.562 106.193 151.187 106.54 151.02L113.395 147.722C113.908 147.475 114.516 147.787 114.614 148.349L114.76 149.181C114.826 149.56 114.632 149.935 114.285 150.102Z" fill="#7F7E7C"/>
<path d="M115.082 154.667L108.226 157.963C107.712 158.21 107.105 157.898 107.008 157.336L106.863 156.506C106.796 156.127 106.99 155.75 107.336 155.584L114.192 152.287C114.706 152.039 115.312 152.352 115.411 152.912L115.556 153.744C115.622 154.123 115.428 154.5 115.082 154.667Z" fill="#7F7E7C"/>
<path d="M115.879 159.229L109.023 162.526C108.51 162.773 107.903 162.461 107.805 161.901L107.659 161.069C107.593 160.69 107.787 160.313 108.133 160.147L114.99 156.85C115.503 156.603 116.11 156.915 116.208 157.475L116.353 158.307C116.419 158.686 116.226 159.063 115.879 159.229Z" fill="#979695"/>
<path d="M118.333 164.574L107.544 166.459C106.742 166.598 105.978 166.062 105.838 165.259L104.724 158.884C104.585 158.081 105.121 157.318 105.924 157.178L116.712 155.293C117.513 155.153 118.278 155.69 118.418 156.493L119.532 162.868C119.672 163.669 119.134 164.434 118.333 164.574Z" fill="#FFB413"/>
<path d="M111.644 132.152L102.848 133.688C101.606 133.905 100.425 133.075 100.208 131.833L99.2137 126.142C99.0849 125.4 99.5806 124.695 100.321 124.566L110.93 122.714C111.669 122.583 112.375 123.08 112.504 123.82L113.498 129.513C113.715 130.755 112.885 131.935 111.644 132.152Z" fill="#FFB413"/>
<path d="M56.2347 86.2801C51.5832 81.8536 51.4012 74.4706 55.8254 69.8193C60.2523 65.1698 67.6353 64.9867 72.2851 69.4115L72.4113 69.5402L108.806 109.196C111.648 112.29 111.604 117.097 108.707 120.143C105.811 123.184 101.011 123.467 97.7786 120.782L56.2998 86.3418L56.2347 86.2801Z" fill="#FFB413"/>
<path d="M64.2682 69.188C61.9775 69.188 59.6876 70.0871 57.9869 71.8762C54.6949 75.3366 54.8323 80.8289 58.2913 84.1189L99.6853 118.487C101.715 120.173 104.73 119.997 106.546 118.085L106.787 118.313L106.546 118.085C108.364 116.174 108.392 113.154 106.61 111.211L70.2146 71.5571C68.5492 69.9747 66.408 69.188 64.2682 69.188ZM102.896 120.305C101.608 120.305 100.317 119.876 99.2612 118.998L57.8503 84.6138C54.1109 81.0555 53.9635 75.1426 57.506 71.4194C61.0507 67.698 66.9623 67.5511 70.6861 71.0931L107.097 110.763C109.116 112.962 109.083 116.379 107.027 118.541C105.914 119.711 104.408 120.305 102.896 120.305Z" fill="#C78B0C"/>
<path d="M98.5608 108.332L72.9201 80.8651C72.4274 80.3376 72.4557 79.5093 72.9839 79.0162C73.5128 78.5214 74.3412 78.5503 74.8355 79.0778L100.476 106.545C100.968 107.074 100.94 107.903 100.412 108.396C99.8822 108.891 99.0536 108.862 98.5608 108.332Z" fill="#FFD375"/>
<path d="M59.2155 73.0453C61.8828 70.2412 66.3188 70.1324 69.1221 72.7988C71.9261 75.4671 72.0358 79.9027 69.3686 82.7069C66.7005 85.5111 62.2651 85.6198 59.4611 82.9534C56.6573 80.2834 56.5474 75.8477 59.2155 73.0453Z" fill="#1D1811"/>
<path d="M100.582 112.41C101.666 111.27 103.47 111.225 104.61 112.31C105.751 113.394 105.795 115.199 104.71 116.338C103.626 117.478 101.823 117.523 100.682 116.439C99.5417 115.353 99.4976 113.55 100.582 112.41Z" fill="#1D1811"/>
<path d="M171.566 17.3604C165.764 18.8214 162.246 24.709 163.707 30.5095L178.498 89.2563C179.959 95.0586 185.846 98.577 191.647 97.116C197.448 95.655 200.968 89.7692 199.505 83.9669L184.714 25.2202C183.254 19.4196 177.367 15.9012 171.566 17.3604Z" fill="#FFB413"/>
<path d="M191.635 97.6617C185.81 99.0285 179.981 95.4158 178.614 89.5917L175.538 77.4976L186.093 74.6227C190.658 73.488 195.943 75.7248 198.193 78.7483L199.705 84.6413C201.071 90.4654 197.459 96.295 191.635 97.6617Z" fill="#BA7000"/>
<path d="M131.524 112.459L142.353 111.716L141.712 102.36L130.883 103.104L131.524 112.459Z" fill="#1D1811"/>
<path d="M144.14 206.092L143.189 206.153L141.024 176.132L141.978 176.07L144.14 206.092Z" fill="#D5584D"/>
<path d="M143.792 178.865L139.587 179.139L139.48 177.488L143.685 177.216L143.792 178.865Z" fill="#48443E"/>
<path d="M143.586 177.665L139.638 177.923C139.17 177.952 138.768 177.598 138.737 177.132L138.687 176.328L144.323 175.962L144.376 176.766C144.405 177.232 144.051 177.634 143.586 177.665Z" fill="#FFC240"/>
<path d="M143.72 176L139.087 176.3C138.199 176.358 137.43 175.684 137.374 174.796L136.259 157.655C136.203 156.765 136.875 155.999 137.765 155.941L142.399 155.64C143.287 155.582 144.055 156.256 144.112 157.146L145.226 174.287C145.283 175.175 144.61 175.942 143.72 176Z" fill="#C78B0C"/>
<path d="M144.323 175.961L138.687 176.327L138.725 176.935L144.363 176.568L144.323 175.961Z" fill="#FFB20F"/>
<path d="M135.933 153.042L143.152 152.547L140.579 115.081L133.361 115.578L135.933 153.042Z" fill="#1D1811"/>
<path d="M133.279 118.835L140.724 120.398C141.283 120.515 141.797 120.066 141.757 119.499L141.699 118.656C141.674 118.272 141.395 117.953 141.02 117.875L133.574 116.312C133.016 116.195 132.501 116.642 132.541 117.211L132.597 118.054C132.625 118.437 132.902 118.756 133.279 118.835Z" fill="#7F7E7C"/>
<path d="M133.596 123.456L141.042 125.02C141.6 125.136 142.115 124.686 142.075 124.119L142.019 123.278C141.991 122.894 141.714 122.573 141.337 122.495L133.892 120.933C133.333 120.817 132.819 121.265 132.859 121.832L132.917 122.675C132.942 123.057 133.221 123.378 133.596 123.456Z" fill="#7F7E7C"/>
<path d="M133.914 128.078L141.359 129.641C141.917 129.757 142.432 129.309 142.392 128.74L142.334 127.899C142.309 127.515 142.03 127.196 141.655 127.118L134.209 125.554C133.651 125.438 133.136 125.885 133.176 126.454L133.232 127.295C133.259 127.679 133.537 127.998 133.914 128.078Z" fill="#7F7E7C"/>
<path d="M134.231 132.699L141.676 134.261C142.235 134.379 142.749 133.931 142.71 133.362L142.653 132.519C142.626 132.137 142.349 131.818 141.972 131.738L134.526 130.176C133.968 130.058 133.454 130.508 133.493 131.075L133.551 131.918C133.577 132.302 133.856 132.619 134.231 132.699Z" fill="#7F7E7C"/>
<path d="M134.548 137.321L141.994 138.882C142.552 138.999 143.067 138.552 143.027 137.983L142.969 137.142C142.944 136.758 142.664 136.439 142.289 136.359L134.844 134.798C134.286 134.681 133.771 135.128 133.811 135.697L133.867 136.538C133.894 136.922 134.171 137.241 134.548 137.321Z" fill="#7F7E7C"/>
<path d="M134.866 141.941L142.311 143.504C142.869 143.62 143.384 143.172 143.344 142.605L143.288 141.762C143.261 141.378 142.984 141.059 142.607 140.981L135.161 139.418C134.603 139.301 134.088 139.75 134.128 140.317L134.186 141.16C134.212 141.543 134.491 141.863 134.866 141.941Z" fill="#7F7E7C"/>
<path d="M135.182 146.562L142.628 148.126C143.186 148.242 143.701 147.792 143.661 147.225L143.605 146.384C143.577 146 143.3 145.681 142.923 145.601L135.478 144.039C134.921 143.923 134.405 144.371 134.445 144.938L134.503 145.781C134.528 146.165 134.807 146.484 135.182 146.562Z" fill="#7F7E7C"/>
<path d="M135.5 151.184L142.945 152.746C143.503 152.862 144.018 152.415 143.98 151.846L143.92 151.005C143.895 150.622 143.617 150.301 143.24 150.222L135.795 148.661C135.237 148.543 134.722 148.991 134.762 149.56L134.82 150.401C134.845 150.785 135.124 151.104 135.5 151.184Z" fill="#7F7E7C"/>
<path d="M135.043 162.383L145.968 161.633C146.782 161.576 147.394 160.873 147.338 160.061L146.894 153.604C146.84 152.791 146.136 152.178 145.322 152.234L134.397 152.984C133.585 153.041 132.971 153.744 133.027 154.556L133.469 161.013C133.525 161.825 134.231 162.439 135.043 162.383Z" fill="#FFB413"/>
<path d="M132.896 118.121L141.806 117.508C143.062 117.423 144.012 116.335 143.925 115.077L143.529 109.311C143.477 108.561 142.828 107.995 142.078 108.046L131.334 108.784C130.583 108.836 130.018 109.485 130.069 110.236L130.466 116.002C130.551 117.258 131.638 118.208 132.896 118.121Z" fill="#FFB413"/>
<path d="M190.888 99.1348C197.171 97.8115 201.204 91.6249 199.882 85.344C198.559 79.0613 192.372 75.0263 186.092 76.3495L185.916 76.3912L134.117 91.0158C130.075 92.1578 127.586 96.2708 128.451 100.382C129.317 104.493 133.252 107.255 137.414 106.668L190.801 99.1529L190.888 99.1348Z" fill="#FFB413"/>
<path d="M188.508 79.0796C187.91 79.0796 187.306 79.1413 186.706 79.2682L134.927 93.8873C132.39 94.6033 130.825 97.1864 131.371 99.7694C131.915 102.349 134.382 104.082 136.997 103.714L190.295 96.2111C194.947 95.2305 197.947 90.6299 196.964 85.9569C196.485 83.6947 195.157 81.7515 193.221 80.4899C191.796 79.56 190.168 79.0796 188.508 79.0796ZM136.298 104.428C133.648 104.428 131.28 102.563 130.722 99.9054C130.106 96.9834 131.875 94.0595 134.748 93.2492L186.548 78.6246C189.006 78.1026 191.497 78.5721 193.582 79.9334C195.668 81.2929 197.098 83.3847 197.611 85.8209C198.672 90.8511 195.44 95.8051 190.411 96.8637L137.09 104.372C136.823 104.41 136.559 104.428 136.298 104.428Z" fill="#C78B0C"/>
<path d="M143.287 95.6662L179.533 85.7636C180.231 85.5733 180.643 84.8518 180.452 84.1539C180.26 83.4579 179.54 83.0464 178.843 83.2367L142.596 93.1393C141.9 93.3297 141.489 94.0493 141.679 94.7471C141.87 95.445 142.589 95.8565 143.287 95.6662Z" fill="#FFD375"/>
<path d="M195.303 86.3068C194.506 82.5201 190.79 80.0965 187.003 80.8941C183.217 81.6899 180.793 85.4077 181.589 89.1943C182.386 92.981 186.102 95.4063 189.891 94.6087C193.677 93.8112 196.101 90.0934 195.303 86.3068Z" fill="#1D1811"/>
<path d="M139.426 98.0717C139.101 96.5329 137.59 95.547 136.051 95.8714C134.51 96.1958 133.524 97.7074 133.849 99.2461C134.173 100.787 135.685 101.773 137.225 101.448C138.764 101.124 139.75 99.6122 139.426 98.0717Z" fill="#1D1811"/>
<path d="M65.0693 40.6201V6.69243C65.0693 2.99459 68.0658 8.01086e-05 71.7628 8.01086e-05H194.081C197.777 8.01086e-05 200.773 2.99459 200.773 6.69243V40.6201C200.773 44.3162 197.777 47.3125 194.081 47.3125H71.7628C68.0658 47.3125 65.0693 44.3162 65.0693 40.6201Z" fill="#FFB413"/>
<path d="M114.436 41.6284L126.004 30.0599C126.581 29.4835 127.515 29.4835 128.089 30.0599C128.666 30.6364 128.666 31.5699 128.089 32.1463L116.522 43.7129C115.946 44.2894 115.012 44.2894 114.436 43.7129C113.86 43.1383 113.86 42.2048 114.436 41.6284Z" fill="#BA7000"/>
<path d="M121.696 41.6284L133.263 30.0599C133.839 29.4835 134.773 29.4835 135.349 30.0599C135.926 30.6364 135.926 31.5699 135.349 32.1463L123.782 43.7129C123.205 44.2894 122.272 44.2894 121.696 43.7129C121.12 43.1383 121.12 42.2048 121.696 41.6284Z" fill="#BA7000"/>
<path d="M128.957 41.6284L140.523 30.0599C141.1 29.4835 142.033 29.4835 142.61 30.0599C143.186 30.6364 143.186 31.5699 142.61 32.1463L131.041 43.7129C130.467 44.2894 129.531 44.2894 128.957 43.7129C128.38 43.1383 128.38 42.2048 128.957 41.6284Z" fill="#BA7000"/>
<path d="M136.215 41.6284L147.783 30.0599C148.359 29.4835 149.293 29.4835 149.869 30.0599C150.446 30.6364 150.446 31.5699 149.869 32.1463L138.301 43.7129C137.725 44.2894 136.791 44.2894 136.215 43.7129C135.638 43.1383 135.638 42.2048 136.215 41.6284Z" fill="#BA7000"/>
<path d="M143.473 41.6284L155.042 30.0599C155.618 29.4835 156.552 29.4835 157.128 30.0599C157.703 30.6364 157.703 31.5699 157.128 32.1463L145.56 43.7129C144.983 44.2894 144.05 44.2894 143.473 43.7129C142.897 43.1383 142.897 42.2048 143.473 41.6284Z" fill="#BA7000"/>
<path d="M150.734 41.6284L162.303 30.0599C162.877 29.4835 163.812 29.4835 164.387 30.0599C164.964 30.6364 164.964 31.5699 164.387 32.1463L152.82 43.7129C152.244 44.2894 151.309 44.2894 150.734 43.7129C150.158 43.1383 150.158 42.2048 150.734 41.6284Z" fill="#BA7000"/>
<path d="M157.992 41.6284L169.56 30.0599C170.137 29.4835 171.07 29.4835 171.647 30.0599C172.223 30.6364 172.223 31.5699 171.647 32.1463L160.078 43.7129C159.502 44.2894 158.568 44.2894 157.992 43.7129C157.415 43.1383 157.415 42.2048 157.992 41.6284Z" fill="#BA7000"/>
<path d="M165.252 41.6284L176.82 30.0599C177.397 29.4835 178.33 29.4835 178.906 30.0599C179.483 30.6364 179.483 31.5699 178.906 32.1463L167.338 43.7129C166.762 44.2894 165.828 44.2894 165.252 43.7129C164.675 43.1383 164.675 42.2048 165.252 41.6284Z" fill="#BA7000"/>
<path d="M172.509 41.6284L184.079 30.0599C184.656 29.4835 185.589 29.4835 186.166 30.0599C186.74 30.6364 186.74 31.5699 186.166 32.1463L174.595 43.7129C174.021 44.2894 173.086 44.2894 172.509 43.7129C171.934 43.1383 171.934 42.2048 172.509 41.6284Z" fill="#BA7000"/>
<path d="M107.373 33.9118L111.225 30.0604C111.801 29.4841 112.735 29.4841 113.31 30.0604C113.886 30.6368 113.886 31.5702 113.31 32.1465L109.459 35.9979C108.883 36.5743 107.949 36.5743 107.373 35.9979C106.797 35.4216 106.797 34.4882 107.373 33.9118Z" fill="#BA7000"/>
<path d="M106.916 41.6284L118.484 30.0599C119.06 29.4835 119.994 29.4835 120.57 30.0599C121.146 30.6364 121.146 31.5699 120.57 32.1463L109.002 43.7129C108.425 44.2894 107.492 44.2894 106.916 43.7129C106.339 43.1383 106.339 42.2048 106.916 41.6284Z" fill="#BA7000"/>
<path d="M180.186 41.6284L191.756 30.0599C192.331 29.4835 193.266 29.4835 193.841 30.0599C194.417 30.6364 194.417 31.5699 193.841 32.1463L182.272 43.7129C181.698 44.2894 180.762 44.2894 180.186 43.7129C179.611 43.1383 179.611 42.2048 180.186 41.6284Z" fill="#BA7000"/>
<path d="M187.964 41.6287L191.929 37.6631C192.505 37.0886 193.439 37.0886 194.015 37.6631C194.59 38.2395 194.59 39.1747 194.015 39.7492L190.05 43.713C189.473 44.2894 188.54 44.2894 187.964 43.713C187.387 43.1385 187.387 42.2051 187.964 41.6287Z" fill="#BA7000"/>
<path d="M106.483 7.05516C106.483 5.63403 107.588 4.53012 108.951 4.53012H190.835C192.198 4.53012 193.302 5.63406 193.302 6.99718C193.302 8.41831 192.198 9.52222 190.835 9.52222H108.951C107.588 9.52222 106.483 8.41828 106.483 7.05516Z" fill="#FFD375"/>
<path d="M169.821 14.5313C169.821 13.7846 170.427 13.1774 171.177 13.1774C171.924 13.1774 172.531 13.7846 172.531 14.5313C172.531 15.2798 171.924 15.887 171.177 15.887C170.427 15.887 169.821 15.2798 169.821 14.5313Z" fill="#1D1811"/>
<path d="M173.976 14.5313C173.976 13.7846 174.581 13.1774 175.329 13.1774C176.078 13.1774 176.685 13.7846 176.685 14.5313C176.685 15.2798 176.078 15.887 175.329 15.887C174.581 15.887 173.976 15.2798 173.976 14.5313Z" fill="#1D1811"/>
<path d="M178.13 14.5313C178.13 13.7846 178.735 13.1774 179.484 13.1774C180.232 13.1774 180.839 13.7846 180.839 14.5313C180.839 15.2798 180.232 15.887 179.484 15.887C178.735 15.887 178.13 15.2798 178.13 14.5313Z" fill="#1D1811"/>
<path d="M182.283 14.5313C182.283 13.7846 182.89 13.1774 183.639 13.1774C184.387 13.1774 184.993 13.7846 184.993 14.5313C184.993 15.2798 184.387 15.887 183.639 15.887C182.89 15.887 182.283 15.2798 182.283 14.5313Z" fill="#1D1811"/>
<path d="M186.438 14.5313C186.438 13.7846 187.045 13.1774 187.793 13.1774C188.542 13.1774 189.147 13.7846 189.147 14.5313C189.147 15.2798 188.542 15.887 187.793 15.887C187.045 15.887 186.438 15.2798 186.438 14.5313Z" fill="#1D1811"/>
<path d="M190.592 14.5313C190.592 13.7846 191.199 13.1774 191.946 13.1774C192.696 13.1774 193.301 13.7846 193.301 14.5313C193.301 15.2798 192.696 15.887 191.946 15.887C191.199 15.887 190.592 15.2798 190.592 14.5313Z" fill="#1D1811"/>
<path d="M169.821 18.2343C169.821 17.4857 170.427 16.8804 171.177 16.8804C171.924 16.8804 172.531 17.4857 172.531 18.2343C172.531 18.9828 171.924 19.5881 171.177 19.5881C170.427 19.5881 169.821 18.9828 169.821 18.2343Z" fill="#1D1811"/>
<path d="M173.976 18.2343C173.976 17.4857 174.581 16.8804 175.329 16.8804C176.078 16.8804 176.685 17.4857 176.685 18.2343C176.685 18.9828 176.078 19.5881 175.329 19.5881C174.581 19.5881 173.976 18.9828 173.976 18.2343Z" fill="#1D1811"/>
<path d="M178.13 18.2343C178.13 17.4857 178.735 16.8804 179.484 16.8804C180.232 16.8804 180.839 17.4857 180.839 18.2343C180.839 18.9828 180.232 19.5881 179.484 19.5881C178.735 19.5881 178.13 18.9828 178.13 18.2343Z" fill="#1D1811"/>
<path d="M182.283 18.2343C182.283 17.4857 182.89 16.8804 183.639 16.8804C184.387 16.8804 184.993 17.4857 184.993 18.2343C184.993 18.9828 184.387 19.5881 183.639 19.5881C182.89 19.5881 182.283 18.9828 182.283 18.2343Z" fill="#1D1811"/>
<path d="M186.438 18.2343C186.438 17.4857 187.045 16.8804 187.793 16.8804C188.542 16.8804 189.147 17.4857 189.147 18.2343C189.147 18.9828 188.542 19.5881 187.793 19.5881C187.045 19.5881 186.438 18.9828 186.438 18.2343Z" fill="#1D1811"/>
<path d="M190.592 18.2343C190.592 17.4857 191.199 16.8804 191.946 16.8804C192.696 16.8804 193.301 17.4857 193.301 18.2343C193.301 18.9828 192.696 19.5881 191.946 19.5881C191.199 19.5881 190.592 18.9828 190.592 18.2343Z" fill="#1D1811"/>
<path d="M169.821 21.9376C169.821 21.1891 170.427 20.5838 171.177 20.5838C171.924 20.5838 172.531 21.1891 172.531 21.9376C172.531 22.6862 171.924 23.2915 171.177 23.2915C170.427 23.2915 169.821 22.6862 169.821 21.9376Z" fill="#1D1811"/>
<path d="M173.976 21.9376C173.976 21.1891 174.581 20.5838 175.329 20.5838C176.078 20.5838 176.685 21.1891 176.685 21.9376C176.685 22.6862 176.078 23.2915 175.329 23.2915C174.581 23.2915 173.976 22.6862 173.976 21.9376Z" fill="#1D1811"/>
<path d="M178.13 21.9376C178.13 21.1891 178.735 20.5838 179.484 20.5838C180.232 20.5838 180.839 21.1891 180.839 21.9376C180.839 22.6862 180.232 23.2915 179.484 23.2915C178.735 23.2915 178.13 22.6862 178.13 21.9376Z" fill="#1D1811"/>
<path d="M182.283 21.9376C182.283 21.1891 182.89 20.5838 183.639 20.5838C184.387 20.5838 184.993 21.1891 184.993 21.9376C184.993 22.6862 184.387 23.2915 183.639 23.2915C182.89 23.2915 182.283 22.6862 182.283 21.9376Z" fill="#1D1811"/>
<path d="M186.438 21.9376C186.438 21.1891 187.045 20.5838 187.793 20.5838C188.542 20.5838 189.147 21.1891 189.147 21.9376C189.147 22.6862 188.542 23.2915 187.793 23.2915C187.045 23.2915 186.438 22.6862 186.438 21.9376Z" fill="#1D1811"/>
<path d="M190.592 21.9376C190.592 21.1891 191.199 20.5838 191.946 20.5838C192.696 20.5838 193.301 21.1891 193.301 21.9376C193.301 22.6862 192.696 23.2915 191.946 23.2915C191.199 23.2915 190.592 22.6862 190.592 21.9376Z" fill="#1D1811"/>
<path d="M169.821 25.6405C169.821 24.892 170.427 24.2848 171.177 24.2848C171.924 24.2848 172.531 24.892 172.531 25.6405C172.531 26.389 171.924 26.9944 171.177 26.9944C170.427 26.9944 169.821 26.389 169.821 25.6405Z" fill="#1D1811"/>
<path d="M173.976 25.6405C173.976 24.892 174.581 24.2848 175.329 24.2848C176.078 24.2848 176.685 24.892 176.685 25.6405C176.685 26.389 176.078 26.9944 175.329 26.9944C174.581 26.9944 173.976 26.389 173.976 25.6405Z" fill="#1D1811"/>
<path d="M178.13 25.6405C178.13 24.892 178.735 24.2848 179.484 24.2848C180.232 24.2848 180.839 24.892 180.839 25.6405C180.839 26.389 180.232 26.9944 179.484 26.9944C178.735 26.9944 178.13 26.389 178.13 25.6405Z" fill="#1D1811"/>
<path d="M182.283 25.6405C182.283 24.892 182.89 24.2848 183.639 24.2848C184.387 24.2848 184.993 24.892 184.993 25.6405C184.993 26.389 184.387 26.9944 183.639 26.9944C182.89 26.9944 182.283 26.389 182.283 25.6405Z" fill="#1D1811"/>
<path d="M186.438 25.6405C186.438 24.892 187.045 24.2848 187.793 24.2848C188.542 24.2848 189.147 24.892 189.147 25.6405C189.147 26.389 188.542 26.9944 187.793 26.9944C187.045 26.9944 186.438 26.389 186.438 25.6405Z" fill="#1D1811"/>
<path d="M190.592 25.6405C190.592 24.892 191.199 24.2848 191.946 24.2848C192.696 24.2848 193.301 24.892 193.301 25.6405C193.301 26.389 192.696 26.9944 191.946 26.9944C191.199 26.9944 190.592 26.389 190.592 25.6405Z" fill="#1D1811"/>
<path d="M74.8939 5.75204C72.7513 5.75204 71.0066 7.49404 71.0066 9.63662V39.5655C71.0066 41.7081 72.7513 43.4501 74.8939 43.4501H94.9416C97.0842 43.4501 98.8281 41.7081 98.8281 39.5655V9.63662C98.8281 7.49404 97.0842 5.75204 94.9416 5.75204H74.8939ZM94.9416 44.2676H74.8939C72.2996 44.2676 70.1895 42.1576 70.1895 39.5655V9.63662C70.1895 7.0445 72.2996 4.93452 74.8939 4.93452H94.9416C97.5352 4.93452 99.6453 7.0445 99.6453 9.63662V39.5655C99.6453 42.1576 97.5352 44.2676 94.9416 44.2676Z" fill="#BA7000"/>
<path d="M110.349 13.5843C108.553 13.5843 107.093 15.0453 107.093 16.8417V23.3292C107.093 25.1255 108.553 26.5865 110.349 26.5865H161.155C162.95 26.5865 164.411 25.1255 164.411 23.3292V16.8417C164.411 15.0453 162.95 13.5843 161.155 13.5843H110.349ZM161.155 27.4041H110.349C108.102 27.4041 106.275 25.5751 106.275 23.3292V16.8417C106.275 14.5958 108.102 12.7686 110.349 12.7686H161.155C163.399 12.7686 165.228 14.5958 165.228 16.8417V23.3292C165.228 25.5751 163.399 27.4041 161.155 27.4041Z" fill="#BA7000"/>
<path d="M106.941 49.146H76.4238L78.3016 47.3134H108.819L106.941 49.146Z" fill="#BA7000"/>
<path d="M190.743 49.146H168.369L167.927 47.3134H190.301L190.743 49.146Z" fill="#BA7000"/>
</svg>
