<svg width="380" height="225" viewBox="0 0 380 225" fill="none" xmlns="http://www.w3.org/2000/svg">
<path d="M51.0005 106.872H78.6437V80.0987H51.0005V106.872ZM81.4984 109.725H48.1459V77.244H81.4984V109.725Z" fill="#E2E2E2"/>
<path d="M79.076 109.323L48.5787 79.6948L50.5683 77.6481L81.0656 107.275L79.076 109.323Z" fill="#E2E2E2"/>
<path d="M50.5683 109.323L48.5787 107.275L79.076 77.6481L81.0656 79.6948L50.5683 109.323Z" fill="#E2E2E2"/>
<path d="M51.0005 136.385H78.6437V109.612H51.0005V136.385ZM81.4984 139.24H48.1459V106.759H81.4984V139.24Z" fill="#E2E2E2"/>
<path d="M79.076 138.836L48.5787 109.209L50.5683 107.161L81.0656 136.789L79.076 138.836Z" fill="#E2E2E2"/>
<path d="M50.5683 138.836L48.5787 136.789L79.076 107.161L81.0656 109.209L50.5683 138.836Z" fill="#E2E2E2"/>
<path d="M51.0005 165.9H78.6437V139.125H51.0005V165.9ZM81.4984 168.753H48.1459V136.272H81.4984V168.753Z" fill="#E2E2E2"/>
<path d="M79.076 168.35L48.5787 138.723L50.5683 136.675L81.0656 166.302L79.076 168.35Z" fill="#E2E2E2"/>
<path d="M50.5683 168.35L48.5787 166.302L79.076 136.675L81.0656 138.723L50.5683 168.35Z" fill="#E2E2E2"/>
<path d="M51.0005 195.416H78.6437V168.642H51.0005V195.416ZM81.4984 198.268H48.1459V165.787H81.4984V198.268Z" fill="#E2E2E2"/>
<path d="M79.076 197.866L48.5787 168.237L50.5683 166.19L81.0656 195.819L79.076 197.866Z" fill="#E2E2E2"/>
<path d="M50.5683 197.866L48.5787 195.819L79.076 166.19L81.0656 168.237L50.5683 197.866Z" fill="#E2E2E2"/>
<path d="M313.35 106.872H340.993V80.0987H313.35V106.872ZM343.848 109.725H310.496V77.244H343.848V109.725Z" fill="#E2E2E2"/>
<path d="M341.425 109.323L310.928 79.6948L312.918 77.6481L343.416 107.275L341.425 109.323Z" fill="#E2E2E2"/>
<path d="M312.918 109.323L310.928 107.275L341.425 77.6481L343.416 79.6948L312.918 109.323Z" fill="#E2E2E2"/>
<path d="M313.35 136.385H340.993V109.612H313.35V136.385ZM343.848 139.24H310.496V106.759H343.848V139.24Z" fill="#E2E2E2"/>
<path d="M341.425 138.836L310.928 109.209L312.918 107.161L343.416 136.789L341.425 138.836Z" fill="#E2E2E2"/>
<path d="M312.918 138.836L310.928 136.789L341.425 107.161L343.416 109.209L312.918 138.836Z" fill="#E2E2E2"/>
<path d="M313.35 165.9H340.993V139.125H313.35V165.9ZM343.848 168.753H310.496V136.272H343.848V168.753Z" fill="#E2E2E2"/>
<path d="M341.425 168.35L310.928 138.723L312.918 136.675L343.416 166.302L341.425 168.35Z" fill="#E2E2E2"/>
<path d="M312.918 168.35L310.928 166.302L341.425 136.675L343.416 138.723L312.918 168.35Z" fill="#E2E2E2"/>
<path d="M313.35 195.416H340.993V168.642H313.35V195.416ZM343.848 198.268H310.496V165.787H343.848V198.268Z" fill="#E2E2E2"/>
<path d="M341.425 197.866L310.928 168.237L312.918 166.19L343.416 195.819L341.425 197.866Z" fill="#E2E2E2"/>
<path d="M312.918 197.866L310.928 195.819L341.425 166.19L343.416 168.237L312.918 197.866Z" fill="#E2E2E2"/>
<path d="M5.5396 75.2852H62.3688V26.2772H5.5396V75.2852ZM67.9089 80.8252H0V20.7372H67.9089V80.8252Z" fill="#C9C8C8"/>
<path d="M63.3157 80.1414L0.946411 25.5934L4.59281 21.4227L66.9625 75.9707L63.3157 80.1414Z" fill="#C9C8C8"/>
<path d="M67.9089 75.2852H124.738V26.2772H67.9089V75.2852ZM130.278 80.8252H62.3688V20.7372H130.278V80.8252Z" fill="#C9C8C8"/>
<path d="M66.9625 80.1414L63.3157 75.9707L125.685 21.4227L129.331 25.5934L66.9625 80.1414Z" fill="#C9C8C8"/>
<path d="M130.278 75.2852H187.107V26.2772H130.278V75.2852ZM192.647 80.8252H124.738V20.7372H192.647V80.8252Z" fill="#C9C8C8"/>
<path d="M188.054 80.1414L125.685 25.5934L129.331 21.4227L191.701 75.9707L188.054 80.1414Z" fill="#C9C8C8"/>
<path d="M192.647 75.2852H249.477V26.2772H192.647V75.2852ZM255.017 80.8252H187.107V20.7372H255.017V80.8252Z" fill="#C9C8C8"/>
<path d="M191.701 80.1414L188.054 75.9707L250.423 21.4227L254.07 25.5934L191.701 80.1414Z" fill="#C9C8C8"/>
<path d="M255.017 75.2852H311.846V26.2772H255.017V75.2852ZM317.385 80.8252H249.477V20.7372H317.385V80.8252Z" fill="#C9C8C8"/>
<path d="M312.793 80.1414L250.423 25.5934L254.07 21.4227L316.439 75.9707L312.793 80.1414Z" fill="#C9C8C8"/>
<path d="M317.385 75.2852H374.214V26.2772H317.385V75.2852ZM379.755 80.8252H311.846V20.7372H379.755V80.8252Z" fill="#C9C8C8"/>
<path d="M316.439 80.1414L312.793 75.9707L375.161 21.4227L378.809 25.5934L316.439 80.1414Z" fill="#C9C8C8"/>
<path d="M88.8579 181.713C92.9089 183.138 115.367 183.868 119.661 183.868H249.246H287.677C293.692 183.868 299.69 183.256 305.581 182.043L317.152 179.66C321.802 178.704 325.141 174.608 325.141 169.86V163.465C325.141 157.949 322.533 154.457 318.364 150.845C316.093 148.877 313.344 147.54 310.393 146.967L264.656 136.297C260.972 135.583 257.384 134.435 253.969 132.88L225.001 119.684C216.522 115.823 207.314 113.824 198 113.824H147.966C145.573 113.824 143.198 114.247 140.95 115.071L117.049 134.399C114.358 136.575 111.155 138.027 107.746 138.613L92.9579 141.043C83.2541 143.125 78.3855 150.493 78.0792 152.349C77.6724 154.809 77.3808 156.508 77.5563 159.213L78.3313 171.116C78.5833 174.996 81.1276 178.352 84.7953 179.643L88.8579 181.713Z" fill="#9AC8D4"/>
<path d="M252.681 183.872H155.178V175.635H252.681V183.872Z" fill="#789CA6"/>
<path d="M318.364 150.845C316.093 148.877 313.344 147.54 310.394 146.967L264.656 136.297C260.972 135.583 257.384 134.435 253.969 132.88L225.001 119.684C216.522 115.823 207.314 113.824 198 113.824H147.966C145.573 113.824 143.198 114.247 140.95 115.071L117.049 134.399C114.358 136.575 111.155 138.027 107.746 138.613L92.9579 141.043C83.5251 143.125 78.3855 150.493 78.0792 152.349C77.7032 154.625 77.4303 156.261 77.5303 158.636C77.5989 157.18 77.8131 155.891 78.0792 154.279C78.3855 152.425 84.7104 145.361 92.9579 142.973L107.746 140.544C111.155 139.956 114.358 138.505 117.049 136.329L140.95 117.001C143.198 116.176 145.573 115.755 147.966 115.755H198C207.314 115.755 216.522 117.753 225.001 121.615L255.214 134.736C258.629 136.291 260.972 137.513 264.656 138.228L310.394 148.897C313.344 149.469 316.093 150.807 318.364 152.775C322.533 156.388 325.141 159.88 325.141 165.396V163.465C325.141 157.949 322.533 154.457 318.364 150.845Z" fill="#A7D9E6"/>
<path d="M151.577 118.4C152.137 117.7 152.96 117.265 153.857 117.208C155.461 117.104 157.57 117.027 158.652 117.027H196.256L206.802 117.9C212.692 118.387 218.389 120.236 223.444 123.297L244.492 136.048C245.55 136.691 245.068 138.321 243.832 138.281L145.489 137.923C145.129 137.881 144.86 137.749 144.869 137.387L145.281 129.312C145.333 127.276 146.05 125.315 147.321 123.723L151.577 118.4Z" fill="#312A20"/>
<path d="M193.413 136.748L192.856 117.037L193.525 117.016L194.082 136.727L193.413 136.748Z" fill="#312A20"/>
<path d="M77.9995 166.776L78.6308 168.035C80.6443 172.05 84.6855 174.653 89.1756 174.821L110.797 175.635L109.801 184.104L97.2703 183.425C97.0798 183.414 96.8891 183.395 96.6995 183.367L83.0006 181.284C80.0036 180.828 77.6208 178.531 77.0574 175.552L76.1984 171.019C76.0199 170.079 76.2464 169.105 76.8224 168.34L77.9995 166.776Z" fill="#789CA6"/>
<path d="M325.525 166.776L324.896 168.035C322.889 172.05 318.713 175.897 314.238 176.065H293.108L294.146 183.872C313.209 182.833 320.918 181.225 320.541 181.284C323.528 180.828 325.902 178.531 326.464 175.552L327.32 171.019C327.498 170.078 327.272 169.105 326.698 168.34L325.525 166.776Z" fill="#789CA6"/>
<path d="M283.48 160.763C271.564 154.801 257.669 159.831 251.868 169.213C249.974 172.278 249.06 175.023 248.75 177.531C248.557 179.107 248.486 183.872 248.486 183.872C248.486 183.872 293.282 183.872 296.15 183.872C296.15 183.872 296.424 180.687 296.265 178.999C295.672 172.724 292.226 165.137 283.48 160.763Z" fill="#37484D"/>
<path d="M239.47 150.135L158.353 147.764C158.353 147.764 157.038 149.953 162.416 152.073C165.208 153.173 167.462 152.647 176.081 152.544C181.06 152.484 224.72 154.114 229.264 154.504C232.204 154.757 233.718 154.788 235.436 154.208C240.776 152.401 239.47 150.135 239.47 150.135Z" fill="#92BEC9"/>
<path d="M242.521 163.407L169.89 162.942C169.89 162.942 166.209 164.564 181.266 166.132C189.084 166.944 226.41 166.849 231.222 166.42C246.177 165.084 242.521 163.407 242.521 163.407Z" fill="#92BEC9"/>
<path d="M129.05 139.213C120.745 138.876 100.875 145.489 97.3423 151.626C96.2011 153.609 98.024 156.831 99.474 156.053C110.266 150.265 136.405 142.414 153.765 155.487C157.622 158.389 160.82 156.557 153.329 151.738C153.329 151.738 142.382 144.254 146.061 144.364L237.846 147.065C240.344 147.138 242.761 147.971 244.774 149.45C245.753 150.169 247.645 152.661 251.634 150.052C259.588 144.853 270.725 146.992 280.506 148.845C286.921 150.06 291.081 152.52 293.753 154.984C297.534 158.471 296.476 156.1 294.792 153.94C285.688 142.271 257.006 144.412 129.05 139.213Z" fill="#A7D9E6"/>
<path d="M325.141 163.475C325.141 160.16 324.184 157.583 322.528 155.264L323.636 161.323L322.872 169.001C322.728 170.461 323.477 171.864 324.77 172.553C325.009 171.696 325.141 170.796 325.141 169.869V163.475Z" fill="#48443E"/>
<path d="M192.584 183.877L191.268 138.292L191.936 138.272L193.252 183.856L192.584 183.877Z" fill="#789CA6"/>
<path d="M150.137 164.248C148.98 159.13 145.69 154.723 141.11 152.159L138.204 150.53C135.71 149.083 134.522 146.399 135.102 143.521C135.701 140.55 138.002 138.384 140.965 138.004L144.825 137.508L144.91 138.171L141.05 138.667C138.376 139.011 136.298 140.968 135.758 143.654C135.349 145.681 135.865 148.4 138.54 149.949L138.489 150.307L138.653 150.014L141.438 151.576C146.181 154.231 149.59 158.796 150.789 164.1L150.137 164.248Z" fill="#789CA6"/>
<path d="M109.459 165.338L83.5235 164.876C83.5235 164.876 82.2084 166.496 87.585 168.064C90.3766 168.878 103.706 168.781 105.425 168.352C110.765 167.016 109.459 165.338 109.459 165.338Z" fill="#789CA6"/>
<path d="M300.864 150.571L253.558 137.369L253.737 136.725L301.044 149.928L300.864 150.571Z" fill="#789CA6"/>
<path d="M302.789 149.004L318.745 154.777C320.018 155.226 320.124 158.811 319.265 159.759C318.952 160.104 318.502 160.272 318.026 160.221L304.05 158.72C303.369 158.648 302.745 158.138 302.466 157.428C302.33 157.79 300.881 154.157 300.781 151.628C300.72 150.081 301.434 148.526 302.789 149.004Z" fill="#789CA6"/>
<path d="M319.664 156.161C319.612 155.949 319.546 155.752 319.468 155.575H319.473C319.445 155.514 319.414 155.455 319.381 155.396C319.298 155.243 319.202 155.109 319.094 155.004C318.892 154.783 318.641 154.604 318.344 154.497C319.073 154.76 319.552 155.447 319.664 156.161Z" fill="#DAF8FE"/>
<path d="M318.193 158.1C318.137 158.1 318.082 158.097 318.026 158.092L304.05 156.591C303.369 156.516 302.745 156.008 302.466 155.299L301.965 154.021C302.122 154.065 302.281 154.109 302.446 154.123L319.468 155.575C319.546 155.752 319.612 155.949 319.664 156.161C319.745 156.685 319.628 157.226 319.265 157.626C318.989 157.933 318.606 158.1 318.193 158.1ZM319.381 155.396C319.3 155.256 319.205 155.124 319.094 155.004C319.202 155.109 319.298 155.243 319.381 155.396Z" fill="#CEF3FE"/>
<path d="M302.753 148.992C302.577 148.933 302.404 148.907 302.24 148.905C302.404 148.907 302.577 148.933 302.753 148.992Z" fill="#DAF8FE"/>
<path d="M318.344 154.497C318.34 154.496 318.336 154.493 318.332 154.492C318.336 154.493 318.34 154.496 318.344 154.497Z" fill="#F2FEFF"/>
<path d="M301.965 154.021L300.9 151.311L301.965 154.021ZM300.893 151.291C300.888 151.279 300.884 151.268 300.88 151.256C300.884 151.268 300.888 151.279 300.893 151.291ZM300.87 151.229C300.868 151.223 300.866 151.217 300.864 151.212C300.866 151.217 300.868 151.223 300.87 151.229Z" fill="#CEF3FE"/>
<path d="M300.8 150.988C300.765 150.835 300.749 150.684 300.748 150.538C300.749 150.684 300.765 150.835 300.8 150.988ZM300.869 149.88H300.868C301.09 149.307 301.601 148.911 302.224 148.905C301.601 148.911 301.09 149.307 300.869 149.88Z" fill="#F2FEFF"/>
<path d="M300.748 150.538C300.748 150.302 300.79 150.08 300.868 149.88H300.869C300.79 150.08 300.748 150.302 300.748 150.538Z" fill="#CEF3FE"/>
<path d="M302.773 148.999C302.768 148.997 302.764 148.996 302.758 148.993C302.764 148.996 302.768 148.997 302.773 148.999ZM302.757 148.993C302.756 148.993 302.754 148.992 302.753 148.992C302.754 148.992 302.756 148.993 302.757 148.993Z" fill="#F2FEFF"/>
<path d="M302.789 149.004C302.784 149.002 302.778 149 302.773 148.999C302.778 149 302.784 149.002 302.789 149.004ZM302.758 148.993H302.757H302.758Z" fill="#CEF3FE"/>
<path d="M319.473 155.575H319.468C319.441 155.512 319.412 155.453 319.381 155.396C319.414 155.455 319.445 155.514 319.473 155.575ZM319.094 155.004C318.99 154.9 318.873 154.823 318.745 154.777L302.789 149.004L318.332 154.492C318.336 154.493 318.34 154.496 318.344 154.497C318.641 154.604 318.892 154.783 319.094 155.004ZM300.8 150.988C300.765 150.835 300.749 150.684 300.748 150.538L300.864 150.571C300.836 150.707 300.814 150.845 300.8 150.988ZM301.008 150.057L301.044 149.928L300.869 149.88C301.09 149.307 301.601 148.911 302.224 148.905C302.229 148.905 302.233 148.905 302.237 148.905C302.238 148.905 302.238 148.905 302.24 148.905C302.404 148.907 302.577 148.933 302.753 148.992C302.754 148.992 302.756 148.993 302.757 148.993C302.598 148.942 302.45 148.916 302.309 148.916C301.694 148.916 301.254 149.391 301.008 150.057ZM302.773 148.999C302.768 148.997 302.764 148.996 302.758 148.993C302.764 148.996 302.768 148.997 302.773 148.999Z" fill="#FAFFFF"/>
<path d="M300.864 150.571L300.748 150.538C300.748 150.302 300.79 150.08 300.869 149.88L301.044 149.928L301.008 150.057C300.948 150.219 300.9 150.39 300.864 150.571Z" fill="#EDFDFF"/>
<path d="M319.468 155.575L302.446 154.123C302.281 154.109 302.122 154.065 301.965 154.021L300.9 151.311C300.897 151.304 300.894 151.297 300.893 151.291C300.888 151.279 300.884 151.268 300.88 151.256C300.876 151.247 300.873 151.237 300.87 151.229C300.868 151.223 300.866 151.217 300.864 151.212C300.864 151.211 300.864 151.209 300.862 151.208C300.838 151.135 300.817 151.061 300.8 150.988C300.814 150.845 300.836 150.707 300.864 150.571C300.9 150.391 300.948 150.219 301.008 150.057C301.254 149.391 301.694 148.916 302.309 148.916C302.45 148.916 302.598 148.942 302.757 148.993H302.758C302.764 148.996 302.768 148.997 302.773 148.999C302.778 149 302.784 149.003 302.789 149.004L318.745 154.777C318.873 154.823 318.99 154.9 319.094 155.004C319.205 155.124 319.3 155.256 319.381 155.396C319.412 155.453 319.441 155.512 319.468 155.575Z" fill="#EDFDFF"/>
<path d="M302.858 176.676L302.194 176.605L304.122 158.065L304.786 158.135L302.858 176.676Z" fill="#789CA6"/>
<path d="M319.506 155.908L319.438 155.242L322.494 154.932L322.562 155.597L319.506 155.908Z" fill="#789CA6"/>
<path d="M110.79 137.839H122.934C124.628 137.839 126.258 137.192 127.49 136.029L143.632 120.8C145.069 119.443 144.109 117.027 142.133 117.027H138.386L110.79 137.839Z" fill="#312A20"/>
<path d="M118.153 143.46C116.937 143.46 115.948 144.449 115.948 145.664V147.597C115.948 148.812 116.937 149.802 118.153 149.802H121.622C122.84 149.802 123.829 148.812 123.829 147.597V145.664C123.829 144.449 122.84 143.46 121.622 143.46H118.153ZM121.622 150.469H118.153C116.568 150.469 115.279 149.181 115.279 147.597V145.664C115.279 144.08 116.568 142.792 118.153 142.792H121.622C123.208 142.792 124.497 144.08 124.497 145.664V147.597C124.497 149.181 123.208 150.469 121.622 150.469Z" fill="#789CA6"/>
<path d="M83.8521 160.52L93.5693 157.561C94.3969 157.309 95.0062 156.366 95.0062 155.436V154.442C95.0062 153.523 93.7901 151.626 92.974 151.626L84.0765 152.78C81.6385 152.78 79.2208 154.345 79.1396 156.293L77.9994 158.026C77.9172 160.017 81.3369 161.285 83.8521 160.52Z" fill="#789CA6"/>
<path d="M82.8021 159.368L92.5193 156.408C93.3469 156.156 93.9563 155.213 93.9563 154.283V153.29C93.9563 152.371 93.3536 151.626 92.5375 151.626H83.0265C80.588 151.626 78.1713 153.192 78.0901 155.142L78.0016 157.254C77.9193 159.245 80.2869 160.133 82.8021 159.368Z" fill="#D90502"/>
<path d="M87.5172 149.18H79.7932V148.511H87.5172C93.1104 148.511 98.7344 147.256 103.782 144.88C106.475 143.614 108.375 142.664 109.433 142.055C111.308 140.972 112.821 140.433 114.339 140.307L123.532 139.619C129.181 139.148 134.432 136.323 137.936 131.864L152.273 113.617L152.8 114.032L138.461 132.277C134.844 136.88 129.421 139.8 123.584 140.284L114.392 140.972C112.98 141.091 111.553 141.603 109.767 142.633C108.692 143.254 106.775 144.212 104.068 145.487C98.9308 147.902 93.2084 149.18 87.5172 149.18Z" fill="#789CA6"/>
<path d="M141.052 120.768L141.373 120.816L141.816 120.4C142.55 119.709 142.06 118.477 141.052 118.483L136.429 118.501L133.397 120.784L141.052 120.768Z" fill="#2E4E5E"/>
<path d="M194.013 136.47H237.144L234.849 131.86L222.189 124.473C217.149 121.534 211.378 119.732 205.504 119.264L193.486 118.413L194.013 136.47Z" fill="#3D687D"/>
<path d="M206.774 121.549C213.272 122.018 219.65 123.821 225.225 126.76L234.45 131.626L222.189 124.473C217.149 121.534 211.378 119.732 205.504 119.264L193.486 118.413L193.554 120.704L206.774 121.549Z" fill="#2E4E5E"/>
<path d="M222.6 132.476C222.077 132.22 220.86 132.413 220.282 133.125L216.726 136.828L219.742 136.865L222.721 133.761C223.029 133.44 223.164 132.752 222.6 132.476Z" fill="#2E4E5E"/>
<path d="M237.749 134.616H232.313L227.792 137.317H238.308L237.749 134.616Z" fill="#2E4E5E"/>
<path d="M221.036 134.616L225.709 136.865H222.408L219.36 137.317L221.036 134.616Z" fill="#2E4E5E"/>
<path d="M200.536 142.702H199.989C197.674 142.702 195.25 140.847 194.573 138.559L192.55 131.713C191.873 129.425 193.201 127.569 195.516 127.569H196.062C198.377 127.569 200.802 129.425 201.478 131.713L203.502 138.559C204.178 140.847 202.85 142.702 200.536 142.702Z" fill="#2E4E5E"/>
<path d="M196.086 127.948H195.716C193.945 127.948 192.09 126.529 191.572 124.777C191.054 123.026 192.07 121.606 193.842 121.606H194.21C195.981 121.606 197.838 123.026 198.356 124.777C198.873 126.529 197.857 127.948 196.086 127.948Z" fill="#2E4E5E"/>
<path d="M217.07 136.47H212.818L221.493 126.649H225.013C225.084 126.685 225.154 126.722 225.225 126.76L229.018 128.761L223.009 135.565L221.628 134.9L222.721 133.761C223.029 133.44 223.164 132.752 222.6 132.476C222.454 132.404 222.254 132.368 222.029 132.368C221.448 132.368 220.698 132.612 220.282 133.125L217.07 136.47Z" fill="#6BA6BD"/>
<path d="M229.018 128.761L225.225 126.76C225.154 126.723 225.084 126.685 225.013 126.649H225.918L229.196 128.561L229.018 128.761Z" fill="#6096AD"/>
<path d="M219.885 136.47H217.07L220.282 133.125C220.698 132.612 221.448 132.368 222.029 132.368C222.254 132.368 222.454 132.404 222.6 132.476C223.164 132.752 223.029 133.44 222.721 133.761L221.628 134.9L221.036 134.616L219.885 136.47Z" fill="#6096AD"/>
<path d="M222.209 136.47H219.885L221.036 134.616L221.628 134.9L223.009 135.565L222.209 136.47Z" fill="#6096AD"/>
<path d="M210.677 136.47H208.949L217.624 126.649H219.352L210.677 136.47Z" fill="#6BA6BD"/>
<path d="M201.893 133.115L201.478 131.713C200.918 129.819 199.161 128.221 197.26 127.728L197.304 127.678C197.806 127.425 198.17 127.008 198.354 126.488L202.933 121.304L205.354 121.458L205.445 126.649H207.604L201.893 133.115Z" fill="#6BA6BD"/>
<path d="M205.354 121.458L202.933 121.304L204.781 119.212L205.316 119.251L205.354 121.458Z" fill="#6096AD"/>
<path d="M198.929 136.47H194.013L193.87 131.565L197.26 127.728C199.161 128.221 200.918 129.818 201.478 131.713L201.893 133.114L198.929 136.47Z" fill="#6096AD"/>
<path d="M197.304 127.678L198.354 126.488C198.17 127.008 197.806 127.425 197.304 127.678Z" fill="#6096AD"/>
<path d="M193.766 128.008L193.749 127.398C193.973 127.525 194.206 127.632 194.445 127.717C194.2 127.79 193.973 127.888 193.766 128.008ZM198.168 124.276C197.984 123.873 197.73 123.496 197.426 123.157L199.272 121.069L200.908 121.174L198.168 124.276Z" fill="#6BA6BD"/>
<path d="M200.908 121.175L199.272 121.069L201.14 118.955L202.766 119.069L200.908 121.175Z" fill="#6096AD"/>
<path d="M193.802 129.219L193.766 128.008C193.973 127.888 194.2 127.791 194.445 127.717C194.625 127.783 194.808 127.833 194.992 127.872L193.802 129.219Z" fill="#6096AD"/>
<path d="M194.992 127.872C194.808 127.833 194.625 127.783 194.445 127.717C194.206 127.632 193.973 127.525 193.749 127.399L193.746 127.324L197.426 123.157C197.73 123.496 197.984 123.873 198.168 124.276L194.992 127.872Z" fill="#6096AD"/>
<path d="M157.933 118.395C156.61 118.395 155.288 118.469 153.973 118.616C153.456 118.675 152.981 118.952 152.658 119.385L148.334 125.175C147.586 126.261 147.225 127.551 147.166 128.897L146.626 135.677C146.609 136.079 146.886 136.425 147.261 136.471C147.261 136.471 162.361 136.448 163.049 136.471H187.91L189.216 118.395H157.933Z" fill="#3D687D"/>
<path d="M155.12 120.68H189.05L189.216 118.395H157.933C156.61 118.395 155.288 118.469 153.973 118.616C153.456 118.675 152.981 118.951 152.658 119.385L151.569 120.843C152.75 120.744 153.934 120.68 155.12 120.68Z" fill="#2E4E5E"/>
<path d="M156.85 142.916H156.305C153.99 142.916 151.565 141.06 150.889 138.772L148.864 131.927C148.188 129.639 149.516 127.783 151.83 127.783H152.377C154.692 127.783 157.117 129.639 157.793 131.927L159.817 138.772C160.493 141.06 159.166 142.916 156.85 142.916Z" fill="#2E4E5E"/>
<path d="M152.4 128.161H152.032C150.26 128.161 148.404 126.743 147.886 124.991C147.369 123.24 148.385 121.82 150.157 121.82H150.525C152.297 121.82 154.152 123.24 154.67 124.991C155.188 126.743 154.172 128.161 152.4 128.161Z" fill="#2E4E5E"/>
<path d="M150.497 124.059L155.509 138.757H145.282L142.168 127.432L149.345 123.179L150.497 124.059Z" fill="#2E4E5E"/>
<path d="M174.632 136.471H165.241L179.188 120.68H188.58L174.632 136.471ZM189.093 120.099L189.216 118.395L189.093 120.099Z" fill="#6BA6BD"/>
<path d="M188.58 120.68H179.188L181.206 118.395H189.216L189.093 120.099L188.58 120.68Z" fill="#6096AD"/>
<path d="M163.1 136.471H163.049C162.921 136.467 162.304 136.464 161.378 136.463L175.318 120.68H177.048L163.1 136.471Z" fill="#6BA6BD"/>
<path d="M177.048 120.68H175.318L177.337 118.395H179.066L177.048 120.68Z" fill="#6096AD"/>
<path d="M157.825 132.036L157.793 131.927C157.229 130.02 155.452 128.413 153.536 127.931C154.572 127.46 155.064 126.321 154.67 124.991C154.669 124.988 154.668 124.984 154.666 124.98L158.465 120.68H167.856L157.825 132.036Z" fill="#6BA6BD"/>
<path d="M167.856 120.68H158.465L160.482 118.395H169.874L167.856 120.68Z" fill="#6096AD"/>
<path d="M154.501 135.8L151.894 128.159C151.941 128.161 151.986 128.161 152.032 128.161H152.4C152.826 128.161 153.208 128.08 153.536 127.931C155.452 128.413 157.229 130.02 157.793 131.927L157.825 132.036L154.501 135.8Z" fill="#6096AD"/>
<path d="M152.4 128.161H152.032C151.986 128.161 151.941 128.161 151.894 128.159L151.885 128.129L154.666 124.98C154.668 124.984 154.669 124.988 154.67 124.991C155.064 126.321 154.572 127.46 153.536 127.931C153.208 128.08 152.826 128.161 152.4 128.161Z" fill="#6096AD"/>
<path d="M147.261 136.471C146.886 136.425 146.609 136.079 146.626 135.677L146.765 133.924L151.885 128.129L151.894 128.159L154.501 135.8L153.914 136.463C150.421 136.465 147.261 136.471 147.261 136.471Z" fill="#6096AD"/>
<path d="M153.842 123.488C153.565 123.157 153.24 122.863 152.885 122.616L154.592 120.684C154.768 120.681 154.944 120.68 155.12 120.68H156.324L153.842 123.488Z" fill="#6BA6BD"/>
<path d="M154.592 120.684L156.59 118.42C157.038 118.403 157.485 118.395 157.933 118.395H158.342L156.324 120.68H155.12C154.944 120.68 154.768 120.681 154.592 120.684Z" fill="#6096AD"/>
<path d="M151.288 126.38L150.806 124.969L152.885 122.616C153.24 122.863 153.565 123.157 153.842 123.488L151.288 126.38Z" fill="#6096AD"/>
<path d="M146.977 131.261L147.149 129.111L150.806 124.969L151.288 126.38L146.977 131.261Z" fill="#6096AD"/>
<path d="M136.429 118.501L141.052 118.483C142.06 118.477 142.55 119.709 141.816 120.4L127.574 133.769C125.774 135.46 123.398 136.401 120.929 136.401H112.646L136.429 118.501Z" fill="#3D687D"/>
<path d="M141.052 118.483L136.429 118.501L112.646 136.401H120.929C123.398 136.401 125.774 135.46 127.574 133.769L141.816 120.4C142.55 119.709 142.06 118.477 141.052 118.483Z" fill="#3D687D"/>
<path d="M105.66 145.664H136.68V129.985H105.66V145.664Z" fill="#2E4E5E"/>
<path d="M127.358 129.985H121.17L136.429 118.501L137.505 118.497L127.358 129.985Z" fill="#6BA6BD"/>
<path d="M120.929 136.401H112.646L121.17 129.985H127.358L121.721 136.369C121.458 136.391 121.194 136.401 120.929 136.401Z" fill="#6096AD"/>
<path d="M232.906 132.816L238.58 140.514H235.117C234.268 140.514 233.462 140.137 232.92 139.484L230.574 136.664L232.906 132.816Z" fill="#312A20"/>
<path d="M228.256 129.404H226.912V134.293H233.144C233.144 131.593 230.956 129.404 228.256 129.404Z" fill="#A7D9E6"/>
<path d="M228.256 139.181C230.956 139.181 233.144 136.992 233.144 134.293H226.912V139.181H228.256Z" fill="#789CA6"/>
<path d="M254.61 137.205C255.849 136.739 258.078 135.536 259.109 134.871C258.178 133.819 229.629 120.129 218.169 117.027C219.592 121.36 244.954 134.181 249.084 136.94C250.482 137.876 252.558 137.975 254.61 137.205Z" fill="#312A20"/>
<path d="M255.022 135.932C256.262 135.467 257.448 135.007 258.474 134.429C254.04 131.581 228.441 119.797 220.038 117.577C221.782 120.661 245.138 132.969 249.497 135.667C250.928 136.553 252.972 136.701 255.022 135.932Z" fill="#3D687D"/>
<path d="M258.462 134.436C258.466 134.435 258.47 134.432 258.474 134.429C258.47 134.432 258.466 134.435 258.462 134.436ZM258.474 134.429C256.438 133.123 249.945 129.932 242.701 126.649H242.809C250.026 129.927 256.476 133.116 258.474 134.429Z" fill="#3D687D"/>
<path d="M258.448 134.444C258.453 134.441 258.458 134.439 258.462 134.436C258.458 134.439 258.453 134.441 258.448 134.444Z" fill="#62818D"/>
<path d="M256.782 135.215C254.169 133.372 247.121 129.912 239.64 126.649H242.701C249.945 129.932 256.438 133.123 258.474 134.429C258.47 134.432 258.466 134.435 258.462 134.436C258.458 134.439 258.453 134.441 258.448 134.444C257.933 134.731 257.354 134.961 256.782 135.215Z" fill="#6BA6BD"/>
<path d="M156.836 183.868C156.836 183.868 157.797 176.844 154.98 170.769C152.536 165.499 146.328 157.956 136.325 156.947C124.998 155.804 116.67 160.873 112.217 169.54C108.569 176.642 109.801 184.104 109.801 184.104L156.836 183.868Z" fill="#37484D"/>
<path d="M112.217 174.535C116.67 165.868 124.998 160.797 136.325 161.942C146.328 162.95 152.536 170.493 154.98 175.765C156.177 178.345 156.688 181.093 156.885 183.404C157.038 181.767 157.376 175.933 154.98 170.769C152.536 165.499 146.328 157.956 136.325 156.947C124.998 155.803 116.67 160.873 112.217 169.54C109.218 175.377 109.516 181.449 109.717 183.431C109.955 180.835 110.616 177.65 112.217 174.535Z" fill="#263236"/>
<path d="M125.801 176.172C125.801 172.033 129.157 168.678 133.297 168.678C137.437 168.678 140.793 172.033 140.793 176.172C140.793 180.314 137.437 183.668 133.297 183.668C129.157 183.668 125.801 180.314 125.801 176.172Z" fill="#263236"/>
<path d="M251.104 174.535C255.557 165.868 263.885 160.797 275.212 161.942C285.214 162.95 291.424 170.493 293.868 175.765C295.064 178.345 295.576 181.093 295.772 183.404C295.926 181.767 296.262 175.933 293.868 170.769C291.424 165.499 285.214 157.956 275.212 156.947C263.885 155.803 255.557 160.873 251.104 169.54C248.105 175.377 248.404 181.449 248.605 183.431C248.842 180.835 249.504 177.65 251.104 174.535Z" fill="#263236"/>
<path d="M264.689 176.172C264.689 172.033 268.044 168.678 272.184 168.678C276.324 168.678 279.68 172.033 279.68 176.172C279.68 180.314 276.324 183.668 272.184 183.668C268.044 183.668 264.689 180.314 264.689 176.172Z" fill="#263236"/>
<path d="M202.805 148.261H198.106C196.982 148.261 196.072 147.35 196.072 146.226C196.072 145.102 196.982 144.193 198.106 144.193H202.805C203.928 144.193 204.838 145.102 204.838 146.226C204.838 147.35 203.928 148.261 202.805 148.261Z" fill="#A2DFFC"/>
<path d="M198.106 144.532C197.172 144.532 196.412 145.292 196.412 146.226C196.412 147.161 197.172 147.923 198.106 147.923H202.805C203.738 147.923 204.5 147.161 204.5 146.226C204.5 145.292 203.738 144.532 202.805 144.532H198.106ZM202.805 148.6H198.106C196.797 148.6 195.733 147.536 195.733 146.226C195.733 144.919 196.797 143.855 198.106 143.855H202.805C204.113 143.855 205.177 144.919 205.177 146.226C205.177 147.536 204.113 148.6 202.805 148.6Z" fill="#789CA6"/>
<path d="M198.106 148.261H202.805C203.928 148.261 204.838 147.35 204.838 146.226H196.072C196.072 147.35 196.982 148.261 198.106 148.261Z" fill="#789CA6"/>
<path d="M187.182 148.261H182.484C181.361 148.261 180.45 147.35 180.45 146.226C180.45 145.102 181.361 144.193 182.484 144.193H187.182C188.305 144.193 189.216 145.102 189.216 146.226C189.216 147.35 188.305 148.261 187.182 148.261Z" fill="#A2DFFC"/>
<path d="M182.484 144.532C181.55 144.532 180.789 145.292 180.789 146.226C180.789 147.161 181.55 147.923 182.484 147.923H187.182C188.117 147.923 188.877 147.161 188.877 146.226C188.877 145.292 188.117 144.532 187.182 144.532H182.484ZM187.182 148.6H182.484C181.174 148.6 180.112 147.536 180.112 146.226C180.112 144.919 181.174 143.855 182.484 143.855H187.182C188.49 143.855 189.556 144.919 189.556 146.226C189.556 147.536 188.49 148.6 187.182 148.6Z" fill="#789CA6"/>
<path d="M182.484 148.261H187.182C188.306 148.261 189.216 147.35 189.216 146.226H180.45C180.45 147.35 181.361 148.261 182.484 148.261Z" fill="#789CA6"/>
<path d="M250.542 169.469C252.462 165.733 255.761 161.821 259.052 159.632C259.154 157.784 259.16 155.878 258.561 153.433C257.552 149.304 250.752 146.711 248.825 144.805C247.106 143.107 245.546 137.767 245.169 136.6C245.122 136.457 245.028 136.337 244.898 136.26C244.898 136.26 230.62 127.555 225.85 124.629C220.057 121.076 215.928 119.379 212.294 118.676C209.362 118.108 203.105 117.323 198.158 117.016C194.406 116.783 191.361 116.956 191.361 116.956L192.558 171.03H249.832C250.049 170.509 250.276 169.989 250.542 169.469Z" fill="#37484D"/>
<path d="M197.929 125.659C203.956 125.967 211.578 126.752 215.15 127.319C219.578 128.02 224.608 129.717 231.666 133.271C235.052 134.976 242.354 140.708 247.873 143.471C246.56 141.203 245.474 137.545 245.169 136.6C245.122 136.457 245.028 136.337 244.898 136.26C244.898 136.26 230.62 127.555 225.85 124.629C220.057 121.076 215.928 119.379 212.294 118.676C209.362 118.108 203.105 117.323 198.158 117.016C194.406 116.783 191.361 116.956 191.361 116.956L191.597 125.548C193.117 125.527 195.374 125.529 197.929 125.659Z" fill="#263236"/>
<path d="M247.925 183.797C247.925 183.783 247.936 183.087 247.958 182.14C247.845 179.764 247.986 175.447 249.832 171.03H192.558L192.84 183.797H247.925Z" fill="#263236"/>
<path d="M196.272 174.1H192.558L191.597 125.1H195.312L196.272 174.1Z" fill="#263236"/>
<path d="M259.052 159.742C259.154 157.895 259.16 155.878 258.561 153.433C257.552 149.304 250.752 146.711 248.825 144.805C247.673 143.665 246.601 140.908 245.9 138.851L241.345 137.508C241.345 137.508 242.049 143.995 246.82 147.923C251.59 151.848 254.642 153.885 254.798 158.185C254.892 160.772 254.873 162.142 254.842 163.424C256.1 162.021 257.498 160.776 259.052 159.742Z" fill="#263236"/>
<path d="M196.868 144.453H239.998L237.704 139.842L225.042 132.456C220.002 129.516 214.233 127.715 208.357 127.247L196.34 126.396L196.868 144.453Z" fill="#3A4C52"/>
<path d="M22.0626 204.244C22.0626 202.229 23.6943 200.599 25.7074 200.599C27.7203 200.599 29.3527 202.229 29.3527 204.244C29.3527 206.257 27.7203 207.888 25.7074 207.888C23.6943 207.888 22.0626 206.257 22.0626 204.244Z" fill="#201600"/>
<path d="M22.0626 204.244C22.0626 202.229 23.6943 200.599 25.7074 200.599C27.7203 200.599 29.3527 202.229 29.3527 204.244C29.3527 206.257 27.7203 207.888 25.7074 207.888C23.6943 207.888 22.0626 206.257 22.0626 204.244Z" fill="#201600"/>
<path d="M22.0626 204.244C22.0626 202.229 23.6943 200.599 25.7074 200.599C27.7203 200.599 29.3527 202.229 29.3527 204.244C29.3527 206.257 27.7203 207.888 25.7074 207.888C23.6943 207.888 22.0626 206.257 22.0626 204.244Z" fill="#201600"/>
<path d="M45.1089 184.842H337.472C348.186 184.842 356.872 193.528 356.872 204.244C356.872 214.959 348.186 223.645 337.472 223.645H45.1089C34.3937 223.645 25.7073 214.959 25.7073 204.244C25.7073 193.528 34.3937 184.842 45.1089 184.842Z" fill="#BA7000"/>
<path d="M45.1084 185.884C34.9849 185.884 26.7489 194.119 26.7489 204.244C26.7489 214.368 34.9849 222.602 45.1084 222.602H337.472C347.594 222.602 355.83 214.368 355.83 204.244C355.83 194.119 347.594 185.884 337.472 185.884H45.1084ZM337.472 224.687H45.1084C33.8365 224.687 24.6661 215.516 24.6661 204.244C24.6661 192.972 33.8365 183.8 45.1084 183.8H337.472C348.744 183.8 357.913 192.972 357.913 204.244C357.913 215.516 348.744 224.687 337.472 224.687Z" fill="#201600"/>
<path d="M45.1084 218.436C37.2823 218.436 30.9151 212.069 30.9151 204.244C30.9151 196.419 37.2823 190.049 45.1084 190.049H337.472C345.297 190.049 351.665 196.419 351.665 204.244C351.665 212.069 345.297 218.436 337.472 218.436H45.1084Z" fill="#FFB413"/>
<path d="M45.1084 191.093C37.8568 191.093 31.9568 196.99 31.9568 204.244C31.9568 211.495 37.8568 217.395 45.1084 217.395H337.472C344.724 217.395 350.624 211.495 350.624 204.244C350.624 196.99 344.724 191.093 337.472 191.093H45.1084ZM337.472 219.48H45.1084C36.7074 219.48 29.874 212.645 29.874 204.244C29.874 195.842 36.7074 189.008 45.1084 189.008H337.472C345.872 189.008 352.706 195.842 352.706 204.244C352.706 212.645 345.872 219.48 337.472 219.48Z" fill="#201600"/>
<path d="M45.1084 216.354C38.4308 216.354 32.9984 210.923 32.9984 204.244C32.9984 197.566 38.4308 192.133 45.1084 192.133H337.472C344.149 192.133 349.581 197.566 349.581 204.244C349.581 210.923 344.149 216.354 337.472 216.354H45.1084Z" fill="#FFB413"/>
<path d="M38.1907 204.376C38.1907 200.207 41.5713 196.824 45.7423 196.824C49.9125 196.824 53.2932 200.207 53.2932 204.376C53.2932 208.545 49.9125 211.928 45.7423 211.928C41.5713 211.928 38.1907 208.545 38.1907 204.376Z" fill="#FFB413"/>
<path d="M45.7423 197.868C42.1527 197.868 39.2323 200.787 39.2323 204.376C39.2323 207.966 42.1527 210.885 45.7423 210.885C49.3317 210.885 52.2527 207.966 52.2527 204.376C52.2527 200.787 49.3317 197.868 45.7423 197.868ZM45.7423 212.969C41.0041 212.969 37.1495 209.114 37.1495 204.376C37.1495 199.638 41.0041 195.783 45.7423 195.783C50.4803 195.783 54.3349 199.638 54.3349 204.376C54.3349 209.114 50.4803 212.969 45.7423 212.969Z" fill="#201600"/>
<path d="M42.2698 204.376C42.2698 202.459 43.8245 200.904 45.7422 200.904C47.6593 200.904 49.2141 202.459 49.2141 204.376C49.2141 206.293 47.6593 207.848 45.7422 207.848C43.8245 207.848 42.2698 206.293 42.2698 204.376Z" fill="#201600"/>
<path d="M330.308 204.376C330.308 200.207 333.689 196.824 337.86 196.824C342.029 196.824 345.41 200.207 345.41 204.376C345.41 208.545 342.029 211.928 337.86 211.928C333.689 211.928 330.308 208.545 330.308 204.376Z" fill="#FFB413"/>
<path d="M337.86 197.868C334.27 197.868 331.349 200.787 331.349 204.376C331.349 207.966 334.27 210.885 337.86 210.885C341.449 210.885 344.369 207.966 344.369 204.376C344.369 200.787 341.449 197.868 337.86 197.868ZM337.86 212.969C333.121 212.969 329.266 209.114 329.266 204.376C329.266 199.638 333.121 195.783 337.86 195.783C342.597 195.783 346.452 199.638 346.452 204.376C346.452 209.114 342.597 212.969 337.86 212.969Z" fill="#201600"/>
<path d="M334.388 204.376C334.388 202.459 335.941 200.904 337.86 200.904C339.777 200.904 341.332 202.459 341.332 204.376C341.332 206.293 339.777 207.848 337.86 207.848C335.941 207.848 334.388 206.293 334.388 204.376Z" fill="#201600"/>
<path d="M241.141 204.376C241.141 198.505 245.9 193.745 251.772 193.745C257.642 193.745 262.401 198.505 262.401 204.376C262.401 210.247 257.642 215.005 251.772 215.005C245.9 215.005 241.141 210.247 241.141 204.376Z" fill="#FFB413"/>
<path d="M251.772 194.788C246.484 194.788 242.182 199.089 242.182 204.376C242.182 209.663 246.484 213.964 251.772 213.964C257.058 213.964 261.36 209.663 261.36 204.376C261.36 199.089 257.058 194.788 251.772 194.788ZM251.772 216.048C245.336 216.048 240.1 210.813 240.1 204.376C240.1 197.94 245.336 192.704 251.772 192.704C258.208 192.704 263.442 197.94 263.442 204.376C263.442 210.813 258.208 216.048 251.772 216.048Z" fill="#201600"/>
<path d="M246.884 204.376C246.884 201.676 249.072 199.489 251.772 199.489C254.47 199.489 256.658 201.676 256.658 204.376C256.658 207.075 254.47 209.264 251.772 209.264C249.072 209.264 246.884 207.075 246.884 204.376Z" fill="#201600"/>
<path d="M125.388 204.376C125.388 198.505 130.148 193.745 136.018 193.745C141.889 193.745 146.648 198.505 146.648 204.376C146.648 210.247 141.889 215.005 136.018 215.005C130.148 215.005 125.388 210.247 125.388 204.376Z" fill="#FFB413"/>
<path d="M136.018 194.788C130.73 194.788 126.429 199.089 126.429 204.376C126.429 209.663 130.73 213.964 136.018 213.964C141.305 213.964 145.606 209.663 145.606 204.376C145.606 199.089 141.305 194.788 136.018 194.788ZM136.018 216.048C129.582 216.048 124.346 210.813 124.346 204.376C124.346 197.94 129.582 192.704 136.018 192.704C142.454 192.704 147.689 197.94 147.689 204.376C147.689 210.813 142.454 216.048 136.018 216.048Z" fill="#201600"/>
<path d="M131.13 204.376C131.13 201.676 133.318 199.489 136.018 199.489C138.717 199.489 140.905 201.676 140.905 204.376C140.905 207.075 138.717 209.264 136.018 209.264C133.318 209.264 131.13 207.075 131.13 204.376Z" fill="#201600"/>
<path d="M300.885 3.30786V15.2559H314.97V3.30786H300.885Z" fill="#1D1811"/>
<path d="M252.177 4.42541V16.3721H256.201V4.42541H252.177Z" fill="#BA7000"/>
<path d="M260.1 16.26L289.981 48.0054C292.966 51.176 292.814 56.1654 289.645 59.1507C286.473 62.1361 281.484 61.9854 278.498 58.8134L248.617 27.0667C245.633 23.8961 245.784 18.9067 248.954 15.9227C252.125 12.936 257.116 13.0881 260.1 16.26Z" fill="#FFB413"/>
<path d="M264.47 21.9972L264.716 21.1626L260.1 16.2599C257.116 13.0879 252.125 12.9359 248.954 15.9225C245.784 18.9065 245.633 23.8959 248.617 27.0666L251.118 29.7239C256.885 31.1079 262.782 27.7519 264.47 21.9972Z" fill="#BA7000"/>
<path d="M262.037 34.196L275.929 48.9533C276.542 49.6053 276.512 50.632 275.86 51.2453L275.688 51.408C275.036 52.0213 274.01 51.9893 273.396 51.3373L259.505 36.58C258.892 35.928 258.922 34.9013 259.574 34.288L259.746 34.1266C260.398 33.512 261.424 33.544 262.037 34.196Z" fill="#FFD375"/>
<path d="M288.425 57.8559C285.954 60.1825 282.065 60.0639 279.738 57.5932C277.413 55.1212 277.53 51.2319 280.002 48.9065C282.473 46.5799 286.362 46.6985 288.689 49.1692C291.014 51.6412 290.897 55.5305 288.425 57.8559Z" fill="#1D1811"/>
<path d="M274.5 36.4387C274.716 36.2347 275.057 36.2441 275.262 36.4601C275.468 36.6761 275.458 37.0174 275.242 37.2227C275.026 37.4294 274.684 37.4201 274.478 37.2041C274.274 36.9881 274.282 36.6454 274.5 36.4387Z" fill="#1D1811"/>
<path d="M275.638 37.6412C275.856 37.4346 276.197 37.4439 276.402 37.6599C276.608 37.8772 276.598 38.2186 276.382 38.4252C276.166 38.6292 275.824 38.6199 275.618 38.4039C275.414 38.1879 275.422 37.8466 275.638 37.6412Z" fill="#1D1811"/>
<path d="M276.778 38.8426C276.994 38.6373 277.337 38.6466 277.542 38.8626C277.748 39.0786 277.738 39.4213 277.522 39.6253C277.306 39.8306 276.964 39.8226 276.758 39.6053C276.553 39.3893 276.562 39.0466 276.778 38.8426Z" fill="#1D1811"/>
<path d="M277.918 40.044C278.134 39.8373 278.477 39.8467 278.682 40.0627C278.888 40.28 278.878 40.6213 278.662 40.8267C278.445 41.032 278.104 41.0227 277.898 40.8067C277.693 40.5907 277.702 40.2493 277.918 40.044Z" fill="#1D1811"/>
<path d="M279.058 41.2454C279.274 41.0401 279.617 41.0481 279.821 41.2654C280.028 41.4814 280.018 41.8227 279.802 42.0281C279.585 42.2334 279.244 42.2241 279.038 42.0081C278.833 41.7921 278.842 41.4494 279.058 41.2454Z" fill="#1D1811"/>
<path d="M280.198 42.4453C280.414 42.24 280.757 42.2493 280.961 42.4666C281.166 42.6826 281.158 43.024 280.941 43.2293C280.725 43.4333 280.384 43.4266 280.178 43.2093C279.973 42.9919 279.981 42.652 280.198 42.4453Z" fill="#1D1811"/>
<path d="M273.428 37.4559C273.645 37.2505 273.986 37.2599 274.192 37.4759C274.397 37.6919 274.388 38.0345 274.172 38.2385C273.956 38.4439 273.614 38.4345 273.408 38.2185C273.202 38.0025 273.212 37.6599 273.428 37.4559Z" fill="#1D1811"/>
<path d="M274.568 38.656C274.784 38.452 275.126 38.46 275.332 38.6774C275.537 38.8934 275.528 39.2347 275.312 39.44C275.094 39.6454 274.753 39.6374 274.548 39.4214C274.342 39.204 274.352 38.8627 274.568 38.656Z" fill="#1D1811"/>
<path d="M275.708 39.8587C275.924 39.6534 276.266 39.6614 276.472 39.8787C276.677 40.0947 276.668 40.436 276.452 40.6414C276.234 40.8467 275.893 40.8374 275.688 40.6214C275.482 40.4054 275.492 40.0627 275.708 39.8587Z" fill="#1D1811"/>
<path d="M276.848 41.0585C277.064 40.8545 277.406 40.8639 277.612 41.0799C277.816 41.2959 277.808 41.6372 277.59 41.8425C277.374 42.0479 277.033 42.0399 276.828 41.8225C276.622 41.6052 276.632 41.2652 276.848 41.0585Z" fill="#1D1811"/>
<path d="M277.988 42.2613C278.204 42.0547 278.545 42.064 278.752 42.28C278.956 42.496 278.948 42.8387 278.73 43.0453C278.514 43.2493 278.173 43.24 277.968 43.024C277.762 42.808 277.772 42.4667 277.988 42.2613Z" fill="#1D1811"/>
<path d="M279.128 43.4614C279.344 43.2574 279.685 43.2667 279.892 43.4827C280.096 43.6987 280.088 44.04 279.87 44.2454C279.654 44.4507 279.313 44.4414 279.108 44.2254C278.902 44.0094 278.912 43.6667 279.128 43.4614Z" fill="#1D1811"/>
<path d="M272.358 38.472C272.574 38.2667 272.916 38.2747 273.121 38.4907C273.326 38.708 273.317 39.0494 273.101 39.256C272.885 39.46 272.542 39.4507 272.338 39.2347C272.133 39.0187 272.141 38.6774 272.358 38.472Z" fill="#1D1811"/>
<path d="M273.497 39.6721C273.714 39.4681 274.056 39.4774 274.261 39.6934C274.466 39.9094 274.457 40.2507 274.241 40.4561C274.025 40.6614 273.682 40.6534 273.478 40.4361C273.272 40.2201 273.281 39.8787 273.497 39.6721Z" fill="#1D1811"/>
<path d="M274.637 40.8746C274.853 40.6679 275.196 40.6772 275.401 40.8932C275.606 41.1092 275.597 41.4519 275.381 41.6572C275.165 41.8626 274.822 41.8532 274.617 41.6372C274.412 41.4212 274.421 41.0799 274.637 40.8746Z" fill="#1D1811"/>
<path d="M275.777 42.076C275.993 41.8706 276.336 41.8787 276.54 42.096C276.746 42.312 276.737 42.6546 276.521 42.8586C276.304 43.064 275.962 43.0546 275.757 42.8386C275.552 42.6226 275.561 42.28 275.777 42.076Z" fill="#1D1811"/>
<path d="M276.917 43.2761C277.133 43.0707 277.476 43.0801 277.68 43.2961C277.886 43.5134 277.877 43.8547 277.661 44.0601C277.444 44.2654 277.102 44.2561 276.897 44.0401C276.692 43.8227 276.701 43.4827 276.917 43.2761Z" fill="#1D1811"/>
<path d="M278.057 44.4786C278.273 44.2719 278.616 44.2812 278.82 44.4972C279.025 44.7132 279.017 45.0559 278.8 45.2612C278.584 45.4666 278.242 45.4572 278.037 45.2412C277.832 45.0252 277.84 44.6826 278.057 44.4786Z" fill="#1D1811"/>
<path d="M271.286 39.4881C271.504 39.2814 271.845 39.2908 272.05 39.5081C272.256 39.7241 272.246 40.0654 272.03 40.2708C271.814 40.4761 271.473 40.4681 271.266 40.2508C271.062 40.0348 271.07 39.6934 271.286 39.4881Z" fill="#1D1811"/>
<path d="M272.426 40.6893C272.644 40.4839 272.985 40.4919 273.19 40.7093C273.396 40.9253 273.386 41.2666 273.17 41.4719C272.954 41.6773 272.612 41.6679 272.406 41.4519C272.201 41.2359 272.21 40.8933 272.426 40.6893Z" fill="#1D1811"/>
<path d="M273.566 41.8892C273.784 41.6852 274.125 41.6932 274.33 41.9105C274.534 42.1265 274.526 42.4679 274.31 42.6732C274.093 42.8785 273.752 42.8705 273.546 42.6545C273.341 42.4359 273.35 42.0959 273.566 41.8892Z" fill="#1D1811"/>
<path d="M274.706 43.0921C274.924 42.8854 275.265 42.8948 275.47 43.1108C275.674 43.3268 275.666 43.6694 275.45 43.8748C275.233 44.0801 274.892 44.0708 274.686 43.8548C274.481 43.6388 274.49 43.2961 274.706 43.0921Z" fill="#1D1811"/>
<path d="M275.846 44.2919C276.062 44.0879 276.404 44.0973 276.61 44.3133C276.814 44.5293 276.806 44.8706 276.59 45.0759C276.373 45.2813 276.032 45.2719 275.826 45.0559C275.621 44.8386 275.63 44.4973 275.846 44.2919Z" fill="#1D1811"/>
<path d="M276.986 45.4933C277.202 45.288 277.544 45.2973 277.749 45.5133C277.954 45.7293 277.946 46.072 277.729 46.276C277.513 46.4826 277.172 46.4733 276.966 46.2573C276.761 46.0413 276.77 45.7 276.986 45.4933Z" fill="#1D1811"/>
<path d="M243.662 19.0959C243.662 12.9092 248.677 7.89457 254.864 7.89457H317.506C323.693 7.89457 328.706 12.9092 328.706 19.0959C328.706 25.2812 323.693 30.2959 317.506 30.2959H254.864C248.677 30.2959 243.662 25.2812 243.662 19.0959Z" fill="#FFB413"/>
<path d="M255.106 3.53996V3.07596C255.106 2.32129 255.72 1.70796 256.474 1.70796H315.896C316.65 1.70796 317.262 2.32129 317.262 3.07596V3.53996C317.262 4.29596 316.65 4.90796 315.896 4.90796H256.474C255.72 4.90796 255.106 4.29596 255.106 3.53996Z" fill="#FFB413"/>
<path d="M254.189 10.3987C258.992 10.3987 262.886 14.292 262.886 19.096C262.886 23.8987 258.992 27.792 254.189 27.792C249.386 27.792 245.492 23.8987 245.492 19.096C245.492 14.292 249.386 10.3987 254.189 10.3987Z" fill="#1D1811"/>
<path d="M254.189 14.1319C256.93 14.1319 259.152 16.3546 259.152 19.0959C259.152 21.8359 256.93 24.0586 254.189 24.0586C251.448 24.0586 249.226 21.8359 249.226 19.0959C249.226 16.3546 251.448 14.1319 254.189 14.1319Z" fill="#FFA000"/>
<path d="M254.189 8.15392e-05C256.016 8.15392e-05 257.496 1.48141 257.496 3.30807C257.496 5.13474 256.016 6.61475 254.189 6.61475C252.362 6.61475 250.882 5.13474 250.882 3.30807C250.882 1.48141 252.362 8.15392e-05 254.189 8.15392e-05Z" fill="#1D1811"/>
<path d="M254.189 1.42124C255.23 1.42124 256.076 2.26658 256.076 3.30791C256.076 4.35058 255.23 5.19458 254.189 5.19458C253.146 5.19458 252.302 4.35058 252.302 3.30791C252.302 2.26658 253.146 1.42124 254.189 1.42124Z" fill="#FFA000"/>
<path d="M271.032 24.152L278.373 16.8093C278.738 16.4427 279.332 16.4427 279.697 16.8093C280.062 17.1747 280.062 17.7667 279.697 18.1333L272.354 25.476C271.989 25.8413 271.396 25.8413 271.032 25.476C270.665 25.1093 270.665 24.5173 271.032 24.152Z" fill="#1D1811"/>
<path d="M275.638 24.152L282.98 16.8093C283.345 16.4427 283.938 16.4427 284.305 16.8093C284.67 17.1747 284.67 17.7667 284.305 18.1333L276.962 25.476C276.596 25.8413 276.004 25.8413 275.638 25.476C275.273 25.1093 275.273 24.5173 275.638 24.152Z" fill="#1D1811"/>
<path d="M280.245 24.152L287.588 16.8093C287.953 16.4427 288.546 16.4427 288.912 16.8093C289.277 17.1747 289.277 17.7667 288.912 18.1333L281.569 25.476C281.204 25.8413 280.612 25.8413 280.245 25.476C279.88 25.1093 279.88 24.5173 280.245 24.152Z" fill="#1D1811"/>
<path d="M284.853 24.152L292.194 16.8093C292.561 16.4427 293.153 16.4427 293.518 16.8093C293.885 17.1747 293.885 17.7667 293.518 18.1333L286.177 25.476C285.812 25.8413 285.218 25.8413 284.853 25.476C284.486 25.1093 284.486 24.5173 284.853 24.152Z" fill="#1D1811"/>
<path d="M289.46 24.152L296.802 16.8093C297.168 16.4427 297.76 16.4427 298.126 16.8093C298.492 17.1747 298.492 17.7667 298.126 18.1333L290.784 25.476C290.418 25.8413 289.825 25.8413 289.46 25.476C289.094 25.1093 289.094 24.5173 289.46 24.152Z" fill="#1D1811"/>
<path d="M294.066 24.152L301.409 16.8093C301.776 16.4427 302.368 16.4427 302.733 16.8093C303.098 17.1747 303.098 17.7667 302.733 18.1333L295.392 25.476C295.025 25.8413 294.433 25.8413 294.066 25.476C293.701 25.1093 293.701 24.5173 294.066 24.152Z" fill="#1D1811"/>
<path d="M298.674 24.152L306.017 16.8093C306.382 16.4427 306.976 16.4427 307.34 16.8093C307.706 17.1747 307.706 17.7667 307.34 18.1333L299.998 25.476C299.633 25.8413 299.04 25.8413 298.674 25.476C298.309 25.1093 298.309 24.5173 298.674 24.152Z" fill="#1D1811"/>
<path d="M303.282 24.152L310.624 16.8093C310.989 16.4427 311.582 16.4427 311.948 16.8093C312.313 17.1747 312.313 17.7667 311.948 18.1333L304.606 25.476C304.24 25.8413 303.646 25.8413 303.282 25.476C302.916 25.1093 302.916 24.5173 303.282 24.152Z" fill="#1D1811"/>
<path d="M307.889 24.152L315.23 16.8093C315.597 16.4427 316.189 16.4427 316.556 16.8093C316.921 17.1747 316.921 17.7667 316.556 18.1333L309.213 25.476C308.848 25.8413 308.254 25.8413 307.889 25.476C307.524 25.1093 307.524 24.5173 307.889 24.152Z" fill="#1D1811"/>
<path d="M266.548 19.2546L268.993 16.8092C269.358 16.4426 269.95 16.4426 270.316 16.8092C270.682 17.1746 270.682 17.7666 270.316 18.1332L267.872 20.5786C267.506 20.9426 266.913 20.9426 266.548 20.5786C266.182 20.2119 266.182 19.6199 266.548 19.2546Z" fill="#1D1811"/>
<path d="M266.257 24.152L273.6 16.8093C273.965 16.4427 274.558 16.4427 274.924 16.8093C275.289 17.1747 275.289 17.7667 274.924 18.1333L267.582 25.476C267.216 25.8413 266.624 25.8413 266.257 25.476C265.892 25.1093 265.892 24.5173 266.257 24.152Z" fill="#1D1811"/>
<path d="M312.761 24.152L320.104 16.8093C320.469 16.4427 321.062 16.4427 321.426 16.8093C321.793 17.1747 321.793 17.7667 321.426 18.1333L314.085 25.476C313.72 25.8413 313.126 25.8413 312.761 25.476C312.396 25.1093 312.396 24.5173 312.761 24.152Z" fill="#1D1811"/>
<path d="M317.697 24.152L320.214 21.6347C320.58 21.268 321.173 21.268 321.537 21.6347C321.904 22 321.904 22.5933 321.537 22.9587L319.021 25.476C318.656 25.8413 318.062 25.8413 317.697 25.476C317.332 25.1093 317.332 24.5173 317.697 24.152Z" fill="#1D1811"/>
<path d="M200.929 73.4641L210.25 72.4801L210.332 73.2427C210.396 73.8387 210.064 74.4081 209.513 74.6454L204.1 76.1401C202.732 76.7294 201.184 75.8254 201.024 74.3454L200.929 73.4641Z" fill="#494642"/>
<path d="M200.997 74.1508L210.317 73.1641L210.4 73.9294C210.464 74.5254 210.132 75.0948 209.581 75.3308L204.168 76.8254C202.8 77.4161 201.252 76.5121 201.092 75.0308L200.997 74.1508Z" fill="#1D1811"/>
<path d="M213.998 71.6332C214.062 72.2292 213.732 72.7986 213.18 73.0359L207.765 74.5292C206.397 75.1185 204.85 74.2146 204.69 72.7346L213.998 71.6332Z" fill="#FFB413"/>
<path d="M256.32 71.3787L251.889 69.9987L254.564 61.416L258.993 62.796L256.32 71.3787Z" fill="#1D1811"/>
<path d="M250.74 71.9467L260.928 80.1907L261.86 79.0387C262.588 78.1387 262.646 76.872 262.006 75.9147L258.657 70.9093C257.065 68.532 253.622 68.384 251.814 70.6174L250.74 71.9467Z" fill="#1D1811"/>
<path d="M259.116 78.8734L257.117 88.0654L257.869 88.2267C258.457 88.3547 259.06 88.0827 259.356 87.5574L261.434 82.316C262.17 81.0134 261.44 79.3747 259.982 79.06L259.116 78.8734Z" fill="#494642"/>
<path d="M259.777 79.0028L257.78 88.1961L258.532 88.3574C259.117 88.4854 259.721 88.2121 260.017 87.6881L262.096 82.4454C262.832 81.1428 262.101 79.5041 260.644 79.1907L259.777 79.0028Z" fill="#1D1811"/>
<path d="M262.98 76.9986C261.78 75.9186 259.926 76.0199 258.841 77.2252C257.757 78.4332 257.849 80.2866 259.049 81.3679C260.25 82.4479 262.102 82.3466 263.188 81.1412C264.273 79.9346 264.18 78.0812 262.98 76.9986Z" fill="#FFB413"/>
<path d="M261.749 78.368C261.301 77.964 260.608 78.0013 260.202 78.452C259.797 78.9027 259.832 79.596 260.281 79.9987C260.729 80.404 261.421 80.3667 261.826 79.9147C262.232 79.464 262.198 78.7707 261.749 78.368Z" fill="#1D1811"/>
<path d="M255.77 91.9906C256.366 92.1173 256.974 91.8466 257.268 91.3226L259.313 86.0893C260.044 84.7893 259.285 83.1559 257.808 82.8426L255.77 91.9906Z" fill="#FFB413"/>
<path d="M261.681 124.523C261.553 121.868 261.726 116.789 264.264 111.853C266.184 108.116 268.828 105.053 272.118 102.864C272.221 101.016 272.225 98.2613 271.626 95.8173C270.616 91.6866 263.817 89.0946 261.89 87.1893C260.448 85.7626 258.858 81.9893 258.234 80.1079C258.01 79.4333 257.546 78.8759 256.926 78.5266L237.885 67.5706L224.809 62.4359L204.741 59.3386L205.906 126.18H261.648C261.648 126.165 261.657 125.469 261.681 124.523Z" fill="#9AC8D4"/>
<path d="M206.368 125.711H261.185C261.192 125.417 261.2 125.005 261.212 124.529C261.085 121.867 261.262 116.667 263.846 111.639C265.792 107.849 268.421 104.813 271.662 102.605C271.75 100.773 271.728 98.2041 271.172 95.9281C270.521 93.2734 267.208 91.2347 264.544 89.5974C263.285 88.8241 262.2 88.1547 261.561 87.5227C260.084 86.0614 258.464 82.2907 257.788 80.2561C257.602 79.6961 257.214 79.2268 256.697 78.9361L237.649 67.9774L224.638 62.8734L205.22 59.8867L206.368 125.711ZM261.648 126.649H205.445L204.261 58.7907L224.881 61.9734L238.056 67.1334L257.161 78.1201C257.878 78.5241 258.42 79.1774 258.678 79.9601C259.374 82.0561 260.933 85.5814 262.22 86.8561C262.782 87.4121 263.828 88.0534 265.036 88.7974C267.845 90.5254 271.341 92.6747 272.082 95.7054C272.692 98.1907 272.693 100.984 272.586 102.889L272.573 103.124L272.378 103.255C269.181 105.381 266.593 108.347 264.681 112.068C262.192 116.912 262.026 121.936 262.149 124.5C262.126 125.461 262.116 126.148 262.116 126.183L262.112 126.649H261.648Z" fill="#789CA6"/>
<path d="M257.652 78.2372L236.602 65.4866C231.548 62.4239 225.852 60.5759 219.961 60.0892L209.414 59.2132L203.92 58.7119L204.629 80.2786L256.99 80.4706C258.228 80.5079 258.71 78.8786 257.652 78.2372Z" fill="#312A20"/>
<path d="M262.192 88.0813C261.677 87.6467 260.693 86.492 260.25 85.804C246.22 85.0813 228.844 84.5293 205.345 83.7293V87.9093L251.006 89.2533C253.504 89.3266 255.921 90.1587 257.934 91.64C258.913 92.3587 260.804 94.8507 264.794 92.2413C265.618 91.7013 265.998 91.48 266.886 91.0907C266.368 90.7853 263.132 88.8773 262.192 88.0813Z" fill="#A7D9E6"/>
<path d="M206.572 78.936L206.014 59.2254L206.684 59.2054L207.241 78.916L206.572 78.936Z" fill="#312A20"/>
<path d="M207.173 78.6587H250.304L248.009 74.048L235.349 66.6614C230.308 63.7227 224.538 61.9214 218.662 61.452L206.646 60.6014L207.173 78.6587Z" fill="#3D687D"/>
<path d="M219.933 63.7388C226.43 64.2082 232.81 66.0082 238.384 68.9482L247.61 73.8162L235.349 66.6615C230.309 63.7228 224.538 61.9215 218.662 61.4522L206.646 60.6015L206.713 62.8922L219.933 63.7388Z" fill="#2E4E5E"/>
<path d="M235.758 74.6641C235.237 74.4081 234.018 74.6015 233.442 75.3135L229.886 79.0175L232.901 79.0535L235.88 75.9495C236.188 75.6295 236.322 74.9401 235.758 74.6641Z" fill="#2E4E5E"/>
<path d="M250.908 76.8054H245.473L240.952 79.5054H251.466L250.908 76.8054Z" fill="#2E4E5E"/>
<path d="M234.196 76.8054L238.869 79.0534H235.566L232.52 79.5054L234.196 76.8054Z" fill="#2E4E5E"/>
<path d="M213.696 84.8894H213.149C210.834 84.8894 208.409 83.0361 207.733 80.7467L205.709 73.9014C205.033 71.6134 206.361 69.7587 208.674 69.7587H209.222C211.537 69.7587 213.961 71.6134 214.638 73.9014L216.661 80.7467C217.338 83.0361 216.01 84.8894 213.696 84.8894Z" fill="#2E4E5E"/>
<path d="M209.245 70.1375H208.876C207.105 70.1375 205.249 68.7175 204.73 66.9668C204.213 65.2148 205.229 63.7961 207.001 63.7961H207.37C209.141 63.7961 210.997 65.2148 211.514 66.9668C212.033 68.7175 211.016 70.1375 209.245 70.1375Z" fill="#2E4E5E"/>
<path d="M230.23 78.6587H225.977L235.702 67.6494C236.614 68.0534 237.509 68.4867 238.384 68.948L242.178 70.9494L236.168 77.7534L234.786 77.0894L235.88 75.9494C236.188 75.6294 236.322 74.94 235.758 74.664C235.613 74.5934 235.413 74.556 235.188 74.556C234.606 74.556 233.858 74.8 233.442 75.3134L230.23 78.6587Z" fill="#6BA6BD"/>
<path d="M242.178 70.9495L238.384 68.9481C237.509 68.4868 236.614 68.0535 235.702 67.6495L236.157 67.1335L242.354 70.7495L242.178 70.9495Z" fill="#6096AD"/>
<path d="M233.045 78.6587H230.23L233.442 75.3134C233.858 74.8 234.606 74.556 235.188 74.556C235.413 74.556 235.613 74.5934 235.758 74.664C236.322 74.94 236.188 75.6294 235.88 75.9494L234.786 77.0894L234.196 76.8054L233.045 78.6587Z" fill="#6096AD"/>
<path d="M235.368 78.6587H233.045L234.196 76.8054L234.786 77.0894L236.168 77.7534L235.368 78.6587Z" fill="#6096AD"/>
<path d="M223.836 78.6587H222.108L232.85 66.4974C233.284 66.656 233.714 66.82 234.142 66.9907L223.836 78.6587Z" fill="#6BA6BD"/>
<path d="M234.142 66.9907C233.714 66.8201 233.284 66.6561 232.85 66.4974L233.566 65.6854C233.962 65.8881 234.353 66.0987 234.74 66.3147L234.142 66.9907Z" fill="#6096AD"/>
<path d="M215.052 75.3027L214.638 73.9014C214.077 72.0081 212.32 70.4107 210.418 69.9161L210.462 69.8667C210.966 69.6134 211.33 69.1974 211.514 68.6761L216.093 63.4934L219.933 63.7387C221.548 63.8547 223.154 64.0534 224.742 64.3321L215.052 75.3027Z" fill="#6BA6BD"/>
<path d="M224.742 64.332C223.154 64.0534 221.548 63.8547 219.933 63.7387L216.093 63.4934L217.94 61.4014L218.662 61.452C221.182 61.6534 223.684 62.1 226.117 62.776L224.742 64.332Z" fill="#6096AD"/>
<path d="M212.088 78.6587H207.173L207.03 73.7534L210.418 69.916C212.32 70.4107 214.077 72.008 214.638 73.9014L215.052 75.3027L212.088 78.6587Z" fill="#6096AD"/>
<path d="M210.462 69.8667L211.514 68.676C211.33 69.1974 210.966 69.6134 210.462 69.8667Z" fill="#6096AD"/>
<path d="M206.926 70.1975L206.909 69.5882C207.133 69.7148 207.366 69.8215 207.604 69.9068C207.36 69.9788 207.133 70.0762 206.926 70.1975ZM211.326 66.4655C211.142 66.0615 210.889 65.6842 210.586 65.3468L212.43 63.2588L214.066 63.3628L211.326 66.4655Z" fill="#6BA6BD"/>
<path d="M214.066 63.3628L212.43 63.2588L214.298 61.1428L215.925 61.2588L214.066 63.3628Z" fill="#6096AD"/>
<path d="M206.961 71.4067L206.926 70.1974C207.133 70.0761 207.36 69.9787 207.604 69.9067C207.784 69.9707 207.966 70.0227 208.15 70.0614L206.961 71.4067Z" fill="#6096AD"/>
<path d="M208.15 70.0615C207.966 70.0229 207.784 69.9709 207.604 69.9069C207.366 69.8215 207.133 69.7149 206.909 69.5882L206.906 69.5122L210.586 65.3469C210.889 65.6842 211.142 66.0615 211.326 66.4655L208.15 70.0615Z" fill="#6096AD"/>
<path d="M215.964 90.4492H211.265C210.142 90.4492 209.232 89.5386 209.232 88.4159C209.232 87.2919 210.142 86.3812 211.265 86.3812H215.964C217.088 86.3812 217.998 87.2919 217.998 88.4159C217.998 89.5386 217.088 90.4492 215.964 90.4492Z" fill="#A2DFFC"/>
<path d="M211.265 86.7201C210.332 86.7201 209.572 87.4801 209.572 88.4161C209.572 89.3508 210.332 90.1094 211.265 90.1094H215.964C216.898 90.1094 217.658 89.3508 217.658 88.4161C217.658 87.4801 216.898 86.7201 215.964 86.7201H211.265ZM215.964 90.7881H211.265C209.957 90.7881 208.893 89.7241 208.893 88.4161C208.893 87.1068 209.957 86.0428 211.265 86.0428H215.964C217.273 86.0428 218.337 87.1068 218.337 88.4161C218.337 89.7241 217.273 90.7881 215.964 90.7881Z" fill="#789CA6"/>
<path d="M211.265 90.4492H215.964C217.088 90.4492 217.998 89.5386 217.998 88.4159H209.232C209.232 89.5386 210.142 90.4492 211.265 90.4492Z" fill="#789CA6"/>
<path d="M255.68 105.595L205.345 105.273V108.777C219.381 109.061 240.814 108.927 244.381 108.608C259.337 107.272 255.68 105.595 255.68 105.595Z" fill="#92BEC9"/>
<path d="M252.63 92.3226L204.961 90.9306V95.1519C219.644 95.6479 239.444 96.4359 242.424 96.6933C245.364 96.9453 246.877 96.9773 248.596 96.3959C253.936 94.5906 252.63 92.3226 252.63 92.3226Z" fill="#92BEC9"/>
<path d="M205.742 126.065L204.629 80.2788L205.613 80.2828L206.412 126.045L205.742 126.065Z" fill="#789CA6"/>
<path d="M245.864 76.3412L244.558 85.6226L243.797 85.5172C243.202 85.4346 242.73 84.9746 242.634 84.3826L242.498 78.7666C242.257 77.2986 243.509 76.0159 244.985 76.2186L245.864 76.3412Z" fill="#494642"/>
<path d="M256.096 72.7293L243.692 76.9573L243.216 75.5599C242.844 74.4706 243.226 73.2653 244.158 72.5893L249.03 69.0506C251.344 67.372 254.624 68.412 255.546 71.1186L256.096 72.7293Z" fill="#1D1811"/>
<path d="M245.181 76.2399L243.876 85.5212L243.114 85.4159C242.521 85.3333 242.049 84.8746 241.952 84.2812L241.816 78.6666C241.576 77.1973 242.828 75.9146 244.304 76.1186L245.181 76.2399Z" fill="#1D1811"/>
<path d="M242.869 73.2707C244.369 72.6694 246.072 73.3987 246.673 74.8974C247.273 76.3974 246.545 78.1001 245.045 78.7014C243.545 79.3014 241.842 78.5734 241.242 77.0734C240.642 75.5747 241.37 73.872 242.869 73.2707Z" fill="#FFB413"/>
<path d="M243.55 74.9719C244.112 74.7466 244.748 75.0186 244.972 75.5799C245.196 76.1399 244.924 76.7746 244.364 76.9999C243.804 77.2239 243.168 76.9519 242.944 76.3919C242.718 75.8319 242.99 75.1959 243.55 74.9719Z" fill="#1D1811"/>
<path d="M244.469 89.4639C243.876 89.3812 243.404 88.9225 243.308 88.3292L243.172 82.7145C242.93 81.2452 244.182 79.9625 245.658 80.1665L244.469 89.4639Z" fill="#FFB413"/>
<path d="M191.513 67.4839L190.694 72.0505L181.846 70.4625L182.665 65.8959L191.513 67.4839Z" fill="#1D1811"/>
<path d="M192.029 73.1746L201.253 63.8679L200.201 62.8226C199.378 62.0092 198.124 61.8226 197.108 62.3639L191.79 65.1946C189.265 66.5386 188.773 69.9479 190.813 71.9719L192.029 73.1746Z" fill="#1D1811"/>
<path d="M200.208 65.6094L209.612 65.832L209.629 65.0627C209.642 64.4627 209.261 63.9227 208.69 63.7307L203.149 62.6814C201.73 62.2054 200.26 63.232 200.228 64.7227L200.208 65.6094Z" fill="#494642"/>
<path d="M200.21 64.9346L209.614 65.1572L209.632 64.3892C209.645 63.7892 209.264 63.2492 208.693 63.0559L203.152 62.0079C201.733 61.5319 200.262 62.5586 200.23 64.0479L200.21 64.9346Z" fill="#1D1811"/>
<path d="M198.285 61.504C197.089 62.5907 197.004 64.4427 198.094 65.6454C199.185 66.8454 201.04 66.9387 202.236 65.8534C203.432 64.768 203.517 62.9147 202.426 61.7134C201.336 60.5121 199.481 60.4187 198.285 61.504Z" fill="#FFB413"/>
<path d="M199.522 62.8667C199.076 63.272 199.044 63.9654 199.452 64.4134C199.86 64.8627 200.552 64.8974 200.998 64.4907C201.446 64.0867 201.478 63.3934 201.07 62.944C200.662 62.4947 199.969 62.4614 199.522 62.8667Z" fill="#1D1811"/>
<path d="M213.722 66.4119C213.733 65.8039 213.352 65.2585 212.782 65.0679L207.257 64.0492C205.841 63.5785 204.38 64.6319 204.353 66.1439L213.722 66.4119Z" fill="#FFB413"/>
<path d="M191.72 67.112L202.129 75.0734L201.232 76.2454C200.533 77.16 199.318 77.512 198.237 77.1134L192.589 75.0307C189.906 74.0414 188.948 70.736 190.685 68.464L191.72 67.112Z" fill="#1D1811"/>
<path d="M199.521 77.8067C198.188 76.8934 197.846 75.0734 198.76 73.74C199.672 72.4067 201.492 72.0667 202.825 72.9787C204.158 73.8907 204.5 75.712 203.586 77.0454C202.674 78.3787 200.854 78.7174 199.521 77.8067Z" fill="#FFB413"/>
<path d="M200.556 76.2947C200.058 75.9534 199.93 75.272 200.272 74.7747C200.613 74.276 201.292 74.1507 201.79 74.4894C202.288 74.8307 202.416 75.512 202.074 76.0094C201.734 76.508 201.054 76.6347 200.556 76.2947Z" fill="#1D1811"/>
<path d="M189.706 73.1067C187.869 72.1707 187.14 69.9227 188.076 68.0853C189.01 66.248 191.26 65.5173 193.097 66.4533C194.934 67.3893 195.665 69.6387 194.729 71.476C193.792 73.3133 191.544 74.044 189.706 73.1067Z" fill="#FFB413"/>
<path d="M190.765 72.316C189.366 71.964 188.516 70.544 188.868 69.144C189.218 67.744 190.638 66.8933 192.038 67.2453C193.438 67.5973 194.288 69.0173 193.937 70.4173C193.585 71.8173 192.165 72.6667 190.765 72.316Z" fill="#1D1811"/>
<path d="M191.052 71.1774C190.28 70.984 189.812 70.2014 190.005 69.4307C190.2 68.6574 190.981 68.1894 191.753 68.3827C192.524 68.5774 192.992 69.36 192.798 70.1307C192.605 70.9027 191.822 71.3707 191.052 71.1774Z" fill="#D07400"/>
<path d="M285.034 58.5653L258.63 65.7759C255.993 66.4959 253.27 64.9413 252.55 62.3053C251.83 59.6666 253.385 56.9453 256.022 56.2253L282.426 49.0146C285.064 48.2946 287.786 49.8479 288.506 52.4866C289.226 55.1226 287.673 57.8453 285.034 58.5653Z" fill="#FFB413"/>
<path d="M283.737 49.2452C283.336 49.2452 282.932 49.2985 282.534 49.4065L256.129 56.6172C254.958 56.9359 253.982 57.6932 253.381 58.7479C252.78 59.8012 252.624 61.0265 252.944 62.1972C253.264 63.3665 254.02 64.3425 255.073 64.9452C256.125 65.5452 257.352 65.7039 258.522 65.3825L284.928 58.1719C286.098 57.8532 287.074 57.0972 287.676 56.0425C288.278 54.9892 288.433 53.7639 288.113 52.5932C287.793 51.4239 287.037 50.4465 285.984 49.8439C285.288 49.4465 284.517 49.2452 283.737 49.2452ZM257.317 66.3599C256.397 66.3599 255.489 66.1212 254.67 65.6532C253.426 64.9425 252.534 63.7919 252.158 62.4119C251.781 61.0319 251.964 59.5865 252.673 58.3439C253.384 57.0999 254.534 56.2092 255.914 55.8319L282.32 48.6212C283.7 48.2452 285.145 48.4265 286.388 49.1372C287.63 49.8465 288.522 50.9972 288.898 52.3785C289.277 53.7585 289.093 55.2039 288.384 56.4452C287.673 57.6892 286.522 58.5812 285.142 58.9572L258.737 66.1679C258.268 66.2959 257.79 66.3599 257.317 66.3599Z" fill="#BA7000"/>
<path d="M276.184 55.096L256.624 60.4373C256.13 60.572 255.62 60.2813 255.485 59.788L255.398 59.4693C255.264 58.976 255.554 58.4653 256.049 58.3306L275.609 52.9893C276.102 52.8546 276.613 53.1453 276.748 53.6386L276.834 53.9573C276.969 54.4506 276.678 54.9613 276.184 55.096Z" fill="#FFD375"/>
<path d="M273.198 57.3746L270.997 61.2306C270.886 61.4226 270.642 61.4893 270.45 61.3786C270.258 61.2693 270.192 61.0253 270.301 60.8333L272.504 56.9773C272.613 56.7853 272.857 56.7186 273.049 56.828C273.241 56.9373 273.308 57.1826 273.198 57.3746Z" fill="#FFD375"/>
<path d="M271.297 57.8932L269.096 61.7506C268.986 61.9412 268.741 62.0079 268.549 61.8986C268.357 61.7892 268.29 61.5452 268.4 61.3532L270.602 57.4959C270.712 57.3039 270.956 57.2372 271.148 57.3466C271.34 57.4572 271.408 57.7012 271.297 57.8932Z" fill="#FFD375"/>
<path d="M269.397 58.4133L267.196 62.268C267.085 62.4613 266.841 62.528 266.649 62.4187C266.457 62.3093 266.39 62.064 266.5 61.872L268.701 58.016C268.812 57.8227 269.056 57.7573 269.248 57.8667C269.44 57.976 269.506 58.22 269.397 58.4133Z" fill="#FFD375"/>
<path d="M267.496 58.932L265.294 62.788C265.185 62.98 264.94 63.0467 264.748 62.936C264.556 62.8267 264.489 62.5827 264.598 62.3907L266.801 58.5347C266.91 58.3427 267.154 58.2747 267.346 58.3853C267.538 58.4947 267.605 58.74 267.496 58.932Z" fill="#FFD375"/>
<path d="M265.594 59.4506L263.393 63.3079C263.284 63.4986 263.038 63.5653 262.846 63.4559C262.654 63.3466 262.589 63.1013 262.698 62.9093L264.9 59.0533C265.009 58.8613 265.254 58.7946 265.446 58.9039C265.638 59.0146 265.705 59.2586 265.594 59.4506Z" fill="#FFD375"/>
<path d="M253.628 62.0107C253.066 59.9547 254.277 57.8334 256.333 57.2721C258.389 56.7121 260.51 57.9227 261.072 59.9774C261.633 62.0334 260.421 64.1547 258.366 64.7161C256.31 65.2774 254.189 64.0654 253.628 62.0107Z" fill="#1D1811"/>
<path d="M256.142 63.0854C256.704 63.4107 257.36 63.4933 257.985 63.3227C258.609 63.1547 259.128 62.752 259.446 62.192C259.766 61.632 259.849 60.9813 259.68 60.3573C259.51 59.7413 259.112 59.2227 258.557 58.9027C257.996 58.58 257.34 58.4933 256.713 58.664C256.092 58.8333 255.573 59.236 255.253 59.7973C254.933 60.3587 254.85 61.0093 255.02 61.6307C255.189 62.248 255.586 62.7654 256.142 63.0854ZM257.345 63.8813C256.844 63.8813 256.35 63.7507 255.906 63.4933C255.242 63.1093 254.766 62.492 254.565 61.7547C254.362 61.012 254.461 60.2347 254.844 59.564C255.226 58.8933 255.846 58.412 256.589 58.2093C257.34 58.0067 258.122 58.108 258.793 58.4933C259.456 58.8787 259.932 59.496 260.133 60.2347C260.337 60.9787 260.238 61.7573 259.856 62.4253C259.474 63.0933 258.854 63.5747 258.11 63.7787C257.857 63.8467 257.6 63.8813 257.345 63.8813Z" fill="#FFA000"/>
<path d="M279.949 54.832C279.388 52.776 280.598 50.656 282.654 50.0947C284.709 49.532 286.832 50.744 287.393 52.7987C287.953 54.8547 286.742 56.976 284.686 57.5387C282.632 58.1 280.509 56.8867 279.949 54.832Z" fill="#1D1811"/>
<path d="M280.646 54.6413C280.192 52.9719 281.174 51.2479 282.845 50.7919C284.514 50.3359 286.238 51.3213 286.694 52.9893C287.15 54.6586 286.166 56.3826 284.496 56.8386C282.826 57.2946 281.104 56.3119 280.646 54.6413Z" fill="#FFA000"/>
<path d="M282.162 54.2266C281.936 53.3946 282.425 52.5359 283.258 52.3079C284.092 52.0799 284.95 52.5706 285.178 53.4039C285.406 54.2359 284.916 55.0972 284.082 55.3226C283.249 55.5506 282.39 55.0599 282.162 54.2266Z" fill="#1D1811"/>
<path d="M250.574 69.6307C251.321 67.7094 253.484 66.7561 255.406 67.5027C257.328 68.2494 258.281 70.4134 257.534 72.3347C256.788 74.2574 254.624 75.2107 252.702 74.4627C250.78 73.7161 249.828 71.5521 250.574 69.6307Z" fill="#FFB413"/>
<path d="M251.617 70.0372C252.141 68.6906 253.654 68.0239 255.001 68.5466C256.345 69.0692 257.013 70.5839 256.49 71.9292C255.968 73.2746 254.453 73.9412 253.108 73.4186C251.762 72.8959 251.096 71.3812 251.617 70.0372Z" fill="#1D1811"/>
<path d="M252.712 70.4614C253 69.7201 253.834 69.3521 254.576 69.6414C255.317 69.9294 255.684 70.7641 255.396 71.5041C255.109 72.2454 254.274 72.6134 253.533 72.3241C252.792 72.0374 252.424 71.2027 252.712 70.4614Z" fill="#D07400"/>
<path d="M252.788 31.4973H274.4L273.252 30.2306H253.504L252.45 30.0347L251.018 29.6187L252.788 31.4973Z" fill="#BA7000"/>
<path d="M174.228 3.30786V15.2559H188.313V3.30786H174.228Z" fill="#1D1811"/>
<path d="M125.52 4.42541V16.3721H129.542V4.42541H125.52Z" fill="#BA7000"/>
<path d="M133.442 16.26L163.324 48.0054C166.309 51.176 166.157 56.1654 162.986 59.1507C159.816 62.1361 154.826 61.9854 151.841 58.8134L121.96 27.0667C118.976 23.8961 119.126 18.9067 122.297 15.9227C125.468 12.936 130.458 13.0881 133.442 16.26Z" fill="#FFB413"/>
<path d="M137.813 21.9972L138.058 21.1626L133.442 16.2599C130.458 13.0879 125.468 12.9359 122.297 15.9225C119.126 18.9065 118.976 23.8959 121.96 27.0666L124.461 29.7239C130.228 31.1079 136.125 27.7519 137.813 21.9972Z" fill="#BA7000"/>
<path d="M135.38 34.196L149.272 48.9533C149.885 49.6053 149.854 50.632 149.202 51.2453L149.03 51.408C148.378 52.0213 147.353 51.9893 146.738 51.3373L132.848 36.58C132.233 35.928 132.265 34.9013 132.917 34.288L133.089 34.1266C133.741 33.512 134.766 33.544 135.38 34.196Z" fill="#FFD375"/>
<path d="M161.768 57.8559C159.297 60.1825 155.408 60.0639 153.081 57.5932C150.756 55.1212 150.873 51.2319 153.344 48.9065C155.816 46.5799 159.705 46.6985 162.032 49.1692C164.357 51.6412 164.24 55.5305 161.768 57.8559Z" fill="#1D1811"/>
<path d="M147.841 36.4387C148.058 36.2347 148.4 36.2441 148.605 36.4601C148.81 36.6761 148.801 37.0174 148.585 37.2227C148.368 37.4294 148.026 37.4201 147.821 37.2041C147.617 36.9881 147.625 36.6454 147.841 36.4387Z" fill="#1D1811"/>
<path d="M148.981 37.6412C149.198 37.4346 149.54 37.4439 149.745 37.6599C149.95 37.8772 149.941 38.2186 149.725 38.4252C149.508 38.6292 149.166 38.6199 148.961 38.4039C148.757 38.1879 148.765 37.8466 148.981 37.6412Z" fill="#1D1811"/>
<path d="M150.121 38.8426C150.338 38.6373 150.68 38.6466 150.885 38.8626C151.09 39.0786 151.081 39.4213 150.865 39.6253C150.648 39.8306 150.306 39.8226 150.101 39.6053C149.896 39.3893 149.905 39.0466 150.121 38.8426Z" fill="#1D1811"/>
<path d="M151.261 40.044C151.477 39.8373 151.818 39.8467 152.025 40.0627C152.229 40.28 152.221 40.6213 152.005 40.8267C151.788 41.032 151.446 41.0227 151.241 40.8067C151.036 40.5907 151.045 40.2493 151.261 40.044Z" fill="#1D1811"/>
<path d="M152.401 41.2454C152.617 41.0401 152.958 41.0481 153.164 41.2654C153.369 41.4814 153.361 41.8227 153.145 42.0281C152.928 42.2334 152.586 42.2241 152.381 42.0081C152.176 41.7921 152.185 41.4494 152.401 41.2454Z" fill="#1D1811"/>
<path d="M153.541 42.4453C153.757 42.24 154.098 42.2493 154.304 42.4666C154.509 42.6826 154.501 43.024 154.284 43.2293C154.068 43.4333 153.726 43.4266 153.521 43.2093C153.316 42.9919 153.324 42.652 153.541 42.4453Z" fill="#1D1811"/>
<path d="M146.77 37.4559C146.988 37.2505 147.329 37.2599 147.534 37.4759C147.74 37.6919 147.73 38.0345 147.514 38.2385C147.298 38.4439 146.956 38.4345 146.752 38.2185C146.545 38.0025 146.554 37.6599 146.77 37.4559Z" fill="#1D1811"/>
<path d="M147.91 38.656C148.126 38.452 148.469 38.46 148.674 38.6774C148.88 38.8934 148.87 39.2347 148.654 39.44C148.438 39.6454 148.096 39.6374 147.89 39.4214C147.685 39.204 147.694 38.8627 147.91 38.656Z" fill="#1D1811"/>
<path d="M149.05 39.8587C149.266 39.6534 149.609 39.6614 149.813 39.8787C150.02 40.0947 150.01 40.436 149.794 40.6414C149.577 40.8467 149.236 40.8374 149.03 40.6214C148.825 40.4054 148.834 40.0627 149.05 39.8587Z" fill="#1D1811"/>
<path d="M150.19 41.0585C150.406 40.8545 150.749 40.8639 150.953 41.0799C151.158 41.2959 151.15 41.6372 150.934 41.8425C150.717 42.0479 150.376 42.0399 150.17 41.8225C149.965 41.6052 149.974 41.2652 150.19 41.0585Z" fill="#1D1811"/>
<path d="M151.33 42.2613C151.546 42.0547 151.889 42.064 152.093 42.28C152.298 42.496 152.29 42.8387 152.073 43.0453C151.857 43.2493 151.516 43.24 151.31 43.024C151.105 42.808 151.114 42.4667 151.33 42.2613Z" fill="#1D1811"/>
<path d="M152.47 43.4614C152.686 43.2574 153.028 43.2667 153.233 43.4827C153.438 43.6987 153.429 44.04 153.213 44.2454C152.997 44.4507 152.656 44.4414 152.45 44.2254C152.245 44.0094 152.254 43.6667 152.47 43.4614Z" fill="#1D1811"/>
<path d="M145.701 38.472C145.917 38.2667 146.258 38.2747 146.464 38.4907C146.669 38.708 146.66 39.0494 146.444 39.256C146.228 39.46 145.885 39.4507 145.68 39.2347C145.476 39.0187 145.484 38.6774 145.701 38.472Z" fill="#1D1811"/>
<path d="M146.84 39.6721C147.057 39.4681 147.398 39.4774 147.604 39.6934C147.809 39.9094 147.8 40.2507 147.584 40.4561C147.368 40.6614 147.025 40.6534 146.82 40.4361C146.616 40.2201 146.624 39.8787 146.84 39.6721Z" fill="#1D1811"/>
<path d="M147.98 40.8746C148.197 40.6679 148.538 40.6772 148.744 40.8932C148.949 41.1092 148.94 41.4519 148.724 41.6572C148.506 41.8626 148.165 41.8532 147.96 41.6372C147.754 41.4212 147.764 41.0799 147.98 40.8746Z" fill="#1D1811"/>
<path d="M149.12 42.076C149.336 41.8706 149.677 41.8787 149.884 42.096C150.089 42.312 150.08 42.6546 149.864 42.8586C149.646 43.064 149.305 43.0546 149.1 42.8386C148.894 42.6226 148.904 42.28 149.12 42.076Z" fill="#1D1811"/>
<path d="M150.26 43.2761C150.476 43.0707 150.817 43.0801 151.022 43.2961C151.229 43.5134 151.22 43.8547 151.004 44.0601C150.786 44.2654 150.445 44.2561 150.24 44.0401C150.034 43.8227 150.044 43.4827 150.26 43.2761Z" fill="#1D1811"/>
<path d="M151.4 44.4786C151.616 44.2719 151.957 44.2812 152.162 44.4972C152.368 44.7132 152.36 45.0559 152.144 45.2612C151.926 45.4666 151.585 45.4572 151.38 45.2412C151.174 45.0252 151.182 44.6826 151.4 44.4786Z" fill="#1D1811"/>
<path d="M144.629 39.4881C144.846 39.2814 145.188 39.2908 145.393 39.5081C145.598 39.7241 145.589 40.0654 145.373 40.2708C145.157 40.4761 144.814 40.4681 144.61 40.2508C144.404 40.0348 144.413 39.6934 144.629 39.4881Z" fill="#1D1811"/>
<path d="M145.769 40.6893C145.985 40.4839 146.328 40.4919 146.533 40.7093C146.738 40.9253 146.729 41.2666 146.513 41.4719C146.297 41.6773 145.954 41.6679 145.749 41.4519C145.544 41.2359 145.553 40.8933 145.769 40.6893Z" fill="#1D1811"/>
<path d="M146.909 41.8892C147.125 41.6852 147.468 41.6932 147.673 41.9105C147.878 42.1265 147.869 42.4679 147.653 42.6732C147.436 42.8785 147.094 42.8705 146.889 42.6545C146.684 42.4359 146.693 42.0959 146.909 41.8892Z" fill="#1D1811"/>
<path d="M148.049 43.0921C148.265 42.8854 148.608 42.8948 148.812 43.1108C149.017 43.3268 149.009 43.6694 148.792 43.8748C148.576 44.0801 148.234 44.0708 148.029 43.8548C147.824 43.6388 147.833 43.2961 148.049 43.0921Z" fill="#1D1811"/>
<path d="M149.189 44.2919C149.405 44.0879 149.748 44.0973 149.952 44.3133C150.157 44.5293 150.148 44.8706 149.932 45.0759C149.716 45.2813 149.374 45.2719 149.169 45.0559C148.964 44.8386 148.973 44.4973 149.189 44.2919Z" fill="#1D1811"/>
<path d="M150.329 45.4933C150.545 45.288 150.886 45.2973 151.092 45.5133C151.297 45.7293 151.288 46.072 151.072 46.276C150.856 46.4826 150.514 46.4733 150.309 46.2573C150.104 46.0413 150.113 45.7 150.329 45.4933Z" fill="#1D1811"/>
<path d="M117.005 19.0959C117.005 12.9092 122.02 7.89457 128.205 7.89457H190.849C197.034 7.89457 202.049 12.9092 202.049 19.0959C202.049 25.2812 197.034 30.2959 190.849 30.2959H128.205C122.02 30.2959 117.005 25.2812 117.005 19.0959Z" fill="#FFB413"/>
<path d="M128.449 3.53996V3.07596C128.449 2.32129 129.062 1.70796 129.817 1.70796H189.237C189.993 1.70796 190.605 2.32129 190.605 3.07596V3.53996C190.605 4.29596 189.993 4.90796 189.237 4.90796H129.817C129.062 4.90796 128.449 4.29596 128.449 3.53996Z" fill="#FFB413"/>
<path d="M127.532 10.3987C132.334 10.3987 136.229 14.292 136.229 19.096C136.229 23.8987 132.334 27.792 127.532 27.792C122.729 27.792 118.834 23.8987 118.834 19.096C118.834 14.292 122.729 10.3987 127.532 10.3987Z" fill="#1D1811"/>
<path d="M127.532 14.1319C130.273 14.1319 132.494 16.3546 132.494 19.0959C132.494 21.8359 130.273 24.0586 127.532 24.0586C124.79 24.0586 122.568 21.8359 122.568 19.0959C122.568 16.3546 124.79 14.1319 127.532 14.1319Z" fill="#FFA000"/>
<path d="M127.532 8.15392e-05C129.358 8.15392e-05 130.838 1.48141 130.838 3.30807C130.838 5.13474 129.358 6.61475 127.532 6.61475C125.705 6.61475 124.225 5.13474 124.225 3.30807C124.225 1.48141 125.705 8.15392e-05 127.532 8.15392e-05Z" fill="#1D1811"/>
<path d="M127.532 1.42124C128.573 1.42124 129.418 2.26658 129.418 3.30791C129.418 4.35058 128.573 5.19458 127.532 5.19458C126.489 5.19458 125.645 4.35058 125.645 3.30791C125.645 2.26658 126.489 1.42124 127.532 1.42124Z" fill="#FFA000"/>
<path d="M144.373 24.152L151.716 16.8093C152.081 16.4427 152.673 16.4427 153.04 16.8093C153.405 17.1747 153.405 17.7667 153.04 18.1333L145.697 25.476C145.332 25.8413 144.738 25.8413 144.373 25.476C144.008 25.1093 144.008 24.5173 144.373 24.152Z" fill="#1D1811"/>
<path d="M148.981 24.152L156.322 16.8093C156.689 16.4427 157.281 16.4427 157.646 16.8093C158.012 17.1747 158.012 17.7667 157.646 18.1333L150.305 25.476C149.94 25.8413 149.346 25.8413 148.981 25.476C148.616 25.1093 148.616 24.5173 148.981 24.152Z" fill="#1D1811"/>
<path d="M153.588 24.152L160.93 16.8093C161.296 16.4427 161.889 16.4427 162.254 16.8093C162.62 17.1747 162.62 17.7667 162.254 18.1333L154.912 25.476C154.546 25.8413 153.953 25.8413 153.588 25.476C153.222 25.1093 153.222 24.5173 153.588 24.152Z" fill="#1D1811"/>
<path d="M158.196 24.152L165.537 16.8093C165.902 16.4427 166.496 16.4427 166.861 16.8093C167.228 17.1747 167.228 17.7667 166.861 18.1333L159.52 25.476C159.153 25.8413 158.561 25.8413 158.196 25.476C157.829 25.1093 157.829 24.5173 158.196 24.152Z" fill="#1D1811"/>
<path d="M162.802 24.152L170.145 16.8093C170.51 16.4427 171.102 16.4427 171.469 16.8093C171.834 17.1747 171.834 17.7667 171.469 18.1333L164.126 25.476C163.761 25.8413 163.168 25.8413 162.802 25.476C162.437 25.1093 162.437 24.5173 162.802 24.152Z" fill="#1D1811"/>
<path d="M167.409 24.152L174.752 16.8093C175.117 16.4427 175.71 16.4427 176.076 16.8093C176.441 17.1747 176.441 17.7667 176.076 18.1333L168.733 25.476C168.368 25.8413 167.776 25.8413 167.409 25.476C167.044 25.1093 167.044 24.5173 167.409 24.152Z" fill="#1D1811"/>
<path d="M172.017 24.152L179.36 16.8093C179.725 16.4427 180.317 16.4427 180.682 16.8093C181.049 17.1747 181.049 17.7667 180.682 18.1333L173.341 25.476C172.976 25.8413 172.382 25.8413 172.017 25.476C171.652 25.1093 171.652 24.5173 172.017 24.152Z" fill="#1D1811"/>
<path d="M176.624 24.152L183.966 16.8093C184.332 16.4427 184.925 16.4427 185.29 16.8093C185.656 17.1747 185.656 17.7667 185.29 18.1333L177.949 25.476C177.582 25.8413 176.99 25.8413 176.624 25.476C176.258 25.1093 176.258 24.5173 176.624 24.152Z" fill="#1D1811"/>
<path d="M181.232 24.152L188.573 16.8093C188.94 16.4427 189.532 16.4427 189.897 16.8093C190.264 17.1747 190.264 17.7667 189.897 18.1333L182.556 25.476C182.19 25.8413 181.597 25.8413 181.232 25.476C180.866 25.1093 180.866 24.5173 181.232 24.152Z" fill="#1D1811"/>
<path d="M139.89 19.2546L142.336 16.8092C142.701 16.4426 143.293 16.4426 143.66 16.8092C144.025 17.1746 144.025 17.7666 143.66 18.1332L141.214 20.5786C140.849 20.9426 140.256 20.9426 139.89 20.5786C139.525 20.2119 139.525 19.6199 139.89 19.2546Z" fill="#1D1811"/>
<path d="M139.6 24.152L146.942 16.8093C147.308 16.4427 147.901 16.4427 148.266 16.8093C148.632 17.1747 148.632 17.7667 148.266 18.1333L140.924 25.476C140.558 25.8413 139.966 25.8413 139.6 25.476C139.234 25.1093 139.234 24.5173 139.6 24.152Z" fill="#1D1811"/>
<path d="M186.104 24.152L193.446 16.8093C193.812 16.4427 194.404 16.4427 194.769 16.8093C195.136 17.1747 195.136 17.7667 194.769 18.1333L187.428 25.476C187.062 25.8413 186.469 25.8413 186.104 25.476C185.738 25.1093 185.738 24.5173 186.104 24.152Z" fill="#1D1811"/>
<path d="M191.04 24.152L193.557 21.6347C193.922 21.268 194.514 21.268 194.881 21.6347C195.246 22 195.246 22.5933 194.881 22.9587L192.364 25.476C191.998 25.8413 191.405 25.8413 191.04 25.476C190.674 25.1093 190.674 24.5173 191.04 24.152Z" fill="#1D1811"/>
<path d="M160.301 49.4734L183.9 63.3401C186.257 64.7254 187.045 67.7601 185.66 70.1161C184.274 72.4734 181.241 73.2614 178.884 71.8761L155.285 58.0081C152.928 56.6227 152.14 53.5894 153.525 51.2321C154.91 48.8761 157.944 48.0881 160.301 49.4734Z" fill="#FFB413"/>
<path d="M157.8 49.2C156.241 49.2 154.721 50 153.876 51.4387C152.608 53.5987 153.332 56.388 155.49 57.6573L179.09 71.5253C181.25 72.792 184.041 72.0707 185.308 69.9093C186.577 67.7493 185.853 64.9613 183.693 63.692L160.094 49.8227C159.373 49.4 158.582 49.2 157.8 49.2ZM181.382 72.9653C180.461 72.9653 179.528 72.7267 178.677 72.2267L155.078 58.36C152.532 56.864 151.677 53.5733 153.173 51.0253C154.67 48.48 157.96 47.624 160.506 49.1213L184.105 62.9893C186.652 64.4867 187.506 67.7747 186.01 70.3227C185.014 72.0187 183.221 72.9653 181.382 72.9653Z" fill="#BA7000"/>
<path d="M163.997 58.2307L181.478 68.504C181.921 68.764 182.068 69.3307 181.809 69.772L181.641 70.0574C181.382 70.4974 180.813 70.6467 180.372 70.3867L162.89 60.1134C162.449 59.8547 162.302 59.2867 162.561 58.8454L162.729 58.56C162.988 58.1187 163.556 57.972 163.997 58.2307Z" fill="#FFD375"/>
<path d="M167.713 58.7774L172.01 57.66C172.225 57.6054 172.444 57.7334 172.5 57.948C172.556 58.1614 172.426 58.38 172.213 58.436L167.914 59.552C167.701 59.608 167.481 59.48 167.426 59.2667C167.37 59.0507 167.5 58.832 167.713 58.7774Z" fill="#FFD375"/>
<path d="M169.412 59.7745L173.71 58.6585C173.924 58.6025 174.142 58.7319 174.198 58.9452C174.254 59.1599 174.125 59.3785 173.912 59.4332L169.613 60.5505C169.398 60.6052 169.181 60.4785 169.125 60.2639C169.069 60.0492 169.198 59.8305 169.412 59.7745Z" fill="#FFD375"/>
<path d="M171.11 60.7732L175.409 59.6572C175.622 59.6012 175.841 59.7305 175.897 59.9439C175.952 60.1572 175.824 60.3772 175.61 60.4332L171.312 61.5479C171.098 61.6039 170.88 61.4759 170.824 61.2625C170.768 61.0479 170.896 60.8292 171.11 60.7732Z" fill="#FFD375"/>
<path d="M172.81 61.772L177.108 60.656C177.321 60.6 177.54 60.728 177.596 60.9427C177.652 61.156 177.522 61.376 177.309 61.432L173.01 62.5467C172.797 62.6027 172.578 62.4747 172.522 62.2613C172.468 62.0453 172.596 61.8267 172.81 61.772Z" fill="#FFD375"/>
<path d="M174.508 62.7694L178.806 61.6547C179.02 61.5987 179.238 61.7267 179.294 61.9401C179.35 62.1561 179.222 62.3747 179.008 62.4294L174.709 63.5454C174.496 63.6001 174.277 63.4734 174.221 63.2587C174.166 63.0454 174.294 62.8254 174.508 62.7694Z" fill="#FFD375"/>
<path d="M184.697 69.5506C183.617 71.3866 181.253 72.0013 179.416 70.9226C177.578 69.8426 176.965 67.4786 178.044 65.6413C179.124 63.804 181.488 63.1893 183.325 64.2693C185.162 65.3493 185.777 67.7133 184.697 69.5506Z" fill="#1D1811"/>
<path d="M181.374 65.1799C181.172 65.1799 180.966 65.2065 180.764 65.2585C180.14 65.4199 179.616 65.8145 179.288 66.3732C178.964 66.9252 178.873 67.5705 179.03 68.1919C179.19 68.8212 179.588 69.3479 180.146 69.6772C180.701 70.0025 181.352 70.0946 181.978 69.9319C182.602 69.7692 183.126 69.3745 183.453 68.8199C183.778 68.2665 183.869 67.6199 183.71 66.9986C183.55 66.3719 183.153 65.8439 182.594 65.5132C182.218 65.2919 181.8 65.1799 181.374 65.1799ZM181.364 70.4839C180.857 70.4839 180.357 70.3479 179.909 70.0839C179.238 69.6906 178.765 69.0599 178.573 68.3079C178.385 67.5665 178.494 66.7932 178.882 66.1346C179.273 65.4679 179.898 64.9946 180.645 64.8026C181.39 64.6079 182.168 64.7159 182.833 65.1079C183.502 65.4999 183.976 66.1319 184.168 66.8839C184.356 67.6252 184.248 68.3972 183.858 69.0572C183.469 69.7199 182.842 70.1932 182.096 70.3879C181.853 70.4505 181.608 70.4826 181.364 70.4839Z" fill="#FFA000"/>
<path d="M161.18 55.72C160.1 57.5573 157.736 58.1707 155.898 57.092C154.062 56.012 153.448 53.648 154.528 51.8107C155.606 49.9747 157.97 49.36 159.809 50.4387C161.645 51.5187 162.26 53.8827 161.18 55.72Z" fill="#1D1811"/>
<path d="M160.556 55.3533C159.678 56.8453 157.757 57.344 156.265 56.468C154.773 55.5907 154.274 53.6693 155.15 52.1773C156.028 50.6853 157.949 50.1867 159.441 51.0627C160.933 51.94 161.432 53.8613 160.556 55.3533Z" fill="#FFA000"/>
<path d="M159.201 54.5572C158.764 55.3026 157.806 55.5506 157.061 55.1132C156.317 54.6759 156.068 53.7172 156.506 52.9732C156.944 52.2292 157.901 51.9813 158.645 52.4186C159.39 52.8559 159.638 53.8132 159.201 54.5572Z" fill="#1D1811"/>
<path d="M125.276 30.5906C125.821 31.1693 126.581 31.4973 127.376 31.4973H147.742L146.593 30.2306H126.846L125.792 30.0347L124.361 29.6187L125.276 30.5906Z" fill="#BA7000"/>
</svg>
