<svg width="380" height="205" viewBox="0 0 380 205" fill="none" xmlns="http://www.w3.org/2000/svg">
<path d="M57.3821 86.4736H85.0261V59.7002H57.3821V86.4736ZM87.8782 89.3269H54.5288V56.8456H87.8782V89.3269Z" fill="#E2E2E2"/>
<path d="M85.4583 88.9243L54.9609 59.2963L56.9503 57.2497L87.4476 86.8763L85.4583 88.9243Z" fill="#E2E2E2"/>
<path d="M56.9503 88.9243L54.9609 86.8763L85.4583 57.2497L87.4476 59.2963L56.9503 88.9243Z" fill="#E2E2E2"/>
<path d="M57.3821 115.987H85.0261V89.2136H57.3821V115.987ZM87.8782 118.842H54.5288V86.3602H87.8782V118.842Z" fill="#E2E2E2"/>
<path d="M85.4583 118.438L54.9609 88.8108L56.9503 86.7628L87.4476 116.391L85.4583 118.438Z" fill="#E2E2E2"/>
<path d="M56.9503 118.438L54.9609 116.391L85.4583 86.7628L87.4476 88.8108L56.9503 118.438Z" fill="#E2E2E2"/>
<path d="M57.3821 145.501H85.0261V118.727H57.3821V145.501ZM87.8782 148.355H54.5288V115.874H87.8782V148.355Z" fill="#E2E2E2"/>
<path d="M85.4583 147.952L54.9609 118.324L56.9503 116.276L87.4476 145.904L85.4583 147.952Z" fill="#E2E2E2"/>
<path d="M56.9503 147.952L54.9609 145.904L85.4583 116.276L87.4476 118.324L56.9503 147.952Z" fill="#E2E2E2"/>
<path d="M57.3821 175.017H85.0261V148.243H57.3821V175.017ZM87.8782 177.87H54.5288V145.388H87.8782V177.87Z" fill="#E2E2E2"/>
<path d="M85.4583 177.468L54.9609 147.839L56.9503 145.792L87.4476 175.42L85.4583 177.468Z" fill="#E2E2E2"/>
<path d="M56.9503 177.468L54.9609 175.42L85.4583 145.792L87.4476 147.839L56.9503 177.468Z" fill="#E2E2E2"/>
<path d="M311 86.4736H338.645V59.7002H311V86.4736ZM341.498 89.3269H308.145V56.8456H341.498V89.3269Z" fill="#E2E2E2"/>
<path d="M339.077 88.9243L308.578 59.2963L310.568 57.2497L341.066 86.8763L339.077 88.9243Z" fill="#E2E2E2"/>
<path d="M310.568 88.9243L308.578 86.8763L339.077 57.2497L341.066 59.2963L310.568 88.9243Z" fill="#E2E2E2"/>
<path d="M311 115.987H338.644V89.2136H311V115.987ZM341.498 118.842H308.145V86.3602H341.498V118.842Z" fill="#E2E2E2"/>
<path d="M339.077 118.438L308.578 88.8108L310.568 86.7628L341.066 116.391L339.077 118.438Z" fill="#E2E2E2"/>
<path d="M310.568 118.438L308.578 116.391L339.077 86.7628L341.066 88.8108L310.568 118.438Z" fill="#E2E2E2"/>
<path d="M311 145.501H338.644V118.727H311V145.501ZM341.498 148.355H308.145V115.874H341.498V148.355Z" fill="#E2E2E2"/>
<path d="M339.077 147.952L308.578 118.324L310.568 116.276L341.066 145.904L339.077 147.952Z" fill="#E2E2E2"/>
<path d="M310.568 147.952L308.578 145.904L339.077 116.276L341.066 118.324L310.568 147.952Z" fill="#E2E2E2"/>
<path d="M311 175.017H338.645V148.243H311V175.017ZM341.498 177.87H308.145V145.388H341.498V177.87Z" fill="#E2E2E2"/>
<path d="M339.077 177.468L308.578 147.839L310.568 145.792L341.066 175.42L339.077 177.468Z" fill="#E2E2E2"/>
<path d="M310.568 177.468L308.578 175.42L339.077 145.792L341.066 147.839L310.568 177.468Z" fill="#E2E2E2"/>
<path d="M5.53997 54.8868H62.3693V5.87876H5.53997V54.8868ZM67.9107 60.4268H0V0.338757H67.9107V60.4268Z" fill="#C9C8C8"/>
<path d="M63.316 59.7429L0.946655 5.19492L4.59334 1.02425L66.964 55.5722L63.316 59.7429Z" fill="#C9C8C8"/>
<path d="M67.9107 54.8868H124.739V5.87876H67.9107V54.8868ZM130.279 60.4268H62.3694V0.338757H130.279V60.4268Z" fill="#C9C8C8"/>
<path d="M66.964 59.7429L63.316 55.5722L125.685 1.02425L129.332 5.19492L66.964 59.7429Z" fill="#C9C8C8"/>
<path d="M130.279 54.8868H187.109V5.87876H130.279V54.8868ZM192.648 60.4268H124.739V0.338757H192.648V60.4268Z" fill="#C9C8C8"/>
<path d="M188.055 59.7429L125.685 5.19492L129.332 1.02425L191.701 55.5722L188.055 59.7429Z" fill="#C9C8C8"/>
<path d="M192.648 54.8868H249.477V5.87876H192.648V54.8868ZM255.017 60.4268H187.109V0.338757H255.017V60.4268Z" fill="#C9C8C8"/>
<path d="M191.701 59.7429L188.055 55.5722L250.424 1.02425L254.071 5.19492L191.701 59.7429Z" fill="#C9C8C8"/>
<path d="M255.017 54.8868H311.848V5.87876H255.017V54.8868ZM317.387 60.4268H249.477V0.338757H317.387V60.4268Z" fill="#C9C8C8"/>
<path d="M312.795 59.7429L250.424 5.19492L254.071 1.02425L316.441 55.5722L312.795 59.7429Z" fill="#C9C8C8"/>
<path d="M317.387 54.8868H374.216V5.87876H317.387V54.8868ZM379.756 60.4268H311.848V0.338757H379.756V60.4268Z" fill="#C9C8C8"/>
<path d="M316.441 59.7429L312.795 55.5722L375.163 1.02425L378.809 5.19492L316.441 59.7429Z" fill="#C9C8C8"/>
<path d="M94.7488 146.251C98.8008 147.676 121.259 148.404 125.553 148.404H255.138H293.57C299.583 148.404 305.582 147.792 311.471 146.58L323.042 144.198C327.695 143.24 331.033 139.144 331.033 134.396V128.001C331.033 122.485 328.423 118.994 324.255 115.382C321.983 113.414 319.237 112.076 316.286 111.503L270.546 100.834C266.863 100.119 263.275 98.9722 259.861 97.4162L230.891 84.2202C222.414 80.3602 213.206 78.3615 203.891 78.3615H153.858C151.465 78.3615 149.09 78.7828 146.843 79.6068L122.939 98.9362C120.249 101.111 117.046 102.563 113.638 103.15L98.8502 105.58C89.1448 107.662 84.2768 115.03 83.9715 116.886C83.5648 119.346 83.2715 121.044 83.4488 123.751L84.2222 135.652C84.4755 139.534 87.0195 142.888 90.6875 144.18L94.7488 146.251Z" fill="#9AC8D4"/>
<path d="M258.574 148.41H161.07V140.171H258.574V148.41Z" fill="#789CA6"/>
<path d="M324.256 115.381C321.984 113.413 319.237 112.076 316.286 111.503L270.546 100.833C266.864 100.119 263.276 98.9721 259.861 97.4161L230.892 84.2201C222.414 80.3601 213.206 78.3615 203.892 78.3615H153.858C151.465 78.3615 149.09 78.7828 146.844 79.6068L122.94 98.9361C120.249 101.111 117.048 102.563 113.638 103.149L98.8503 105.58C89.4183 107.661 84.277 115.029 83.9716 116.885C83.5943 119.161 83.3209 120.799 83.4209 123.172C83.4903 121.716 83.7036 120.427 83.9716 118.816C84.277 116.961 90.6023 109.897 98.8503 107.509L113.638 105.081C117.048 104.492 120.249 103.041 122.94 100.867L146.844 81.5375C149.09 80.7121 151.465 80.2908 153.858 80.2908H203.892C213.206 80.2908 222.414 82.2895 230.892 86.1508L261.105 99.2721C264.521 100.828 266.864 102.049 270.546 102.764L316.286 113.433C319.237 114.005 321.984 115.343 324.256 117.311C328.424 120.925 331.033 124.416 331.033 129.932V128.001C331.033 122.485 328.424 118.993 324.256 115.381Z" fill="#A7D9E6"/>
<path d="M157.469 82.9363C158.029 82.2363 158.851 81.803 159.749 81.7443C161.353 81.6416 163.462 81.563 164.543 81.563H202.146L212.694 82.4363C218.585 82.9243 224.279 84.7723 229.334 87.835L250.383 100.587C251.442 101.227 250.961 102.858 249.722 102.818L151.379 102.459C151.021 102.419 150.751 102.286 150.759 101.924L151.171 93.8483C151.225 91.8123 151.941 89.851 153.213 88.259L157.469 82.9363Z" fill="#312A20"/>
<path d="M199.305 101.284L198.748 81.5735L199.417 81.5522L199.974 101.263L199.305 101.284Z" fill="#312A20"/>
<path d="M83.8916 131.313L84.5235 132.572C86.5355 136.588 90.5782 139.189 95.0675 139.358L116.689 140.171L115.693 148.643L103.162 147.961C102.972 147.951 102.781 147.931 102.59 147.903L88.8916 145.82C85.8956 145.365 83.5129 143.067 82.9489 140.089L82.0902 135.556C81.9115 134.615 82.1382 133.643 82.7142 132.876L83.8916 131.313Z" fill="#789CA6"/>
<path d="M331.417 131.314L330.788 132.572C328.781 136.588 324.605 140.434 320.13 140.602H298.998L300.037 148.41C319.101 147.37 326.81 145.763 326.432 145.82C329.42 145.366 331.794 143.067 332.356 140.09L333.212 135.556C333.389 134.615 333.164 133.643 332.59 132.877L331.417 131.314Z" fill="#789CA6"/>
<path d="M162.726 148.404C162.726 148.404 163.689 141.38 160.872 135.307C158.428 130.035 152.22 122.492 142.216 121.483C130.889 120.34 122.561 125.41 118.109 134.076C114.461 141.177 115.693 148.643 115.693 148.643L119.3 149.401L162.726 148.404Z" fill="#201600"/>
<path d="M288.12 125.299C276.91 119.338 263.84 124.368 258.382 133.751C256.601 136.815 255.742 139.56 255.452 142.067C255.268 143.644 255.202 148.41 255.202 148.41C255.202 148.41 297.34 148.41 300.037 148.41C300.037 148.41 300.296 145.223 300.145 143.536C299.588 137.261 296.348 129.673 288.12 125.299Z" fill="#201600"/>
<path d="M245.362 114.671L164.246 112.3C164.246 112.3 162.93 114.491 168.307 116.61C171.098 117.71 173.355 117.183 181.973 117.08C186.951 117.02 230.611 118.651 235.155 119.04C238.095 119.294 239.609 119.324 241.327 118.744C246.667 116.938 245.362 114.671 245.362 114.671Z" fill="#92BEC9"/>
<path d="M248.413 127.943L175.782 127.48C175.782 127.48 172.1 129.1 187.157 130.668C194.976 131.482 232.302 131.385 237.114 130.956C252.069 129.62 248.413 127.943 248.413 127.943Z" fill="#92BEC9"/>
<path d="M120.025 145.06C120.025 134.432 128.641 125.816 139.269 125.816C149.897 125.816 158.513 134.432 158.513 145.06C158.513 155.689 149.897 164.304 139.269 164.304C128.641 164.304 120.025 155.689 120.025 145.06Z" fill="#312A20"/>
<path d="M124.941 145.06C124.941 137.147 131.356 130.732 139.269 130.732C147.182 130.732 153.596 137.147 153.596 145.06C153.596 152.973 147.182 159.388 139.269 159.388C131.356 159.388 124.941 152.973 124.941 145.06Z" fill="#7F7E7C"/>
<path d="M139.269 159.388C147.182 159.388 153.596 152.973 153.596 145.06H124.941C124.941 152.973 131.356 159.388 139.269 159.388Z" fill="#706F6E"/>
<path d="M143.986 133.182C142.44 132.664 140.789 132.372 139.068 132.372C137.442 132.372 135.877 132.624 134.406 133.089L139.22 142.716L143.986 133.182Z" fill="#4D4D4B"/>
<path d="M143.986 156.587C142.44 157.104 140.789 157.396 139.068 157.396C137.442 157.396 135.877 157.144 134.406 156.68L139.22 147.051L143.986 156.587Z" fill="#4D4D4B"/>
<path d="M151.722 143.156C151.394 141.559 150.818 139.984 149.954 138.495C149.139 137.091 148.135 135.863 146.995 134.822L141.083 143.816L151.722 143.156Z" fill="#4D4D4B"/>
<path d="M131.478 154.9C130.254 153.82 129.173 152.539 128.309 151.051C127.493 149.646 126.926 148.164 126.589 146.659L137.333 145.992L131.478 154.9Z" fill="#4D4D4B"/>
<path d="M147.516 154.406C148.67 153.256 149.672 151.911 150.442 150.37C151.169 148.918 151.645 147.405 151.889 145.882L141.124 145.875L147.516 154.406Z" fill="#4D4D4B"/>
<path d="M126.589 143.928C126.817 142.313 127.296 140.707 128.066 139.168C128.793 137.715 129.72 136.428 130.793 135.319L137.248 143.935L126.589 143.928Z" fill="#4D4D4B"/>
<path d="M132.809 145.06C132.809 141.492 135.701 138.6 139.269 138.6C142.836 138.6 145.729 141.492 145.729 145.06C145.729 148.628 142.836 151.52 139.269 151.52C135.701 151.52 132.809 148.628 132.809 145.06Z" fill="#5E5E5C"/>
<path d="M137.454 145.06C137.454 144.059 138.266 143.247 139.269 143.247C140.27 143.247 141.084 144.059 141.084 145.06C141.084 146.063 140.27 146.873 139.269 146.873C138.266 146.873 137.454 146.063 137.454 145.06Z" fill="#4D4D4B"/>
<path d="M133.294 145.06C133.294 144.647 133.63 144.31 134.043 144.31C134.459 144.31 134.795 144.647 134.795 145.06C134.795 145.475 134.459 145.812 134.043 145.812C133.63 145.812 133.294 145.475 133.294 145.06Z" fill="#4D4D4B"/>
<path d="M133.294 145.06C133.294 144.647 133.63 144.31 134.043 144.31C134.459 144.31 134.795 144.647 134.795 145.06C134.795 145.475 134.459 145.812 134.043 145.812C133.63 145.812 133.294 145.475 133.294 145.06Z" fill="#4D4D4B"/>
<path d="M133.294 145.06C133.294 144.647 133.63 144.31 134.043 144.31C134.459 144.31 134.795 144.647 134.795 145.06C134.795 145.475 134.459 145.812 134.043 145.812C133.63 145.812 133.294 145.475 133.294 145.06Z" fill="#4D4D4B"/>
<path d="M133.294 145.06C133.294 144.647 133.63 144.31 134.043 144.31C134.459 144.31 134.795 144.647 134.795 145.06C134.795 145.475 134.459 145.812 134.043 145.812C133.63 145.812 133.294 145.475 133.294 145.06Z" fill="#4D4D4B"/>
<path d="M133.294 145.06C133.294 144.647 133.63 144.31 134.043 144.31C134.459 144.31 134.795 144.647 134.795 145.06C134.795 145.475 134.459 145.812 134.043 145.812C133.63 145.812 133.294 145.475 133.294 145.06Z" fill="#4D4D4B"/>
<path d="M133.294 145.06C133.294 144.647 133.63 144.31 134.043 144.31C134.459 144.31 134.795 144.647 134.795 145.06C134.795 145.475 134.459 145.812 134.043 145.812C133.63 145.812 133.294 145.475 133.294 145.06Z" fill="#4D4D4B"/>
<path d="M133.294 145.06C133.294 144.647 133.63 144.31 134.043 144.31C134.459 144.31 134.795 144.647 134.795 145.06C134.795 145.475 134.459 145.812 134.043 145.812C133.63 145.812 133.294 145.475 133.294 145.06Z" fill="#4D4D4B"/>
<path d="M133.294 145.06C133.294 144.647 133.63 144.31 134.043 144.31C134.459 144.31 134.795 144.647 134.795 145.06C134.795 145.475 134.459 145.812 134.043 145.812C133.63 145.812 133.294 145.475 133.294 145.06Z" fill="#4D4D4B"/>
<path d="M133.294 145.06C133.294 144.647 133.63 144.31 134.043 144.31C134.459 144.31 134.795 144.647 134.795 145.06C134.795 145.475 134.459 145.812 134.043 145.812C133.63 145.812 133.294 145.475 133.294 145.06Z" fill="#4D4D4B"/>
<path d="M133.294 145.06C133.294 144.647 133.63 144.31 134.043 144.31C134.459 144.31 134.795 144.647 134.795 145.06C134.795 145.475 134.459 145.812 134.043 145.812C133.63 145.812 133.294 145.475 133.294 145.06Z" fill="#4D4D4B"/>
<path d="M133.294 145.06C133.294 144.647 133.63 144.31 134.043 144.31C134.459 144.31 134.795 144.647 134.795 145.06C134.795 145.475 134.459 145.812 134.043 145.812C133.63 145.812 133.294 145.475 133.294 145.06Z" fill="#4D4D4B"/>
<path d="M133.294 145.06C133.294 144.647 133.63 144.31 134.043 144.31C134.459 144.31 134.795 144.647 134.795 145.06C134.795 145.475 134.459 145.812 134.043 145.812C133.63 145.812 133.294 145.475 133.294 145.06Z" fill="#4D4D4B"/>
<path d="M139.269 129.088C145.553 129.088 151.066 132.359 154.212 137.289C155.761 139.719 156.498 139.155 155.145 136.436C152.23 130.591 146.184 126.62 139.269 126.62C132.18 126.62 126.001 130.795 123.178 136.883C121.968 139.495 122.617 140.198 123.946 137.911C127.016 132.635 132.724 129.088 139.269 129.088Z" fill="#48443E"/>
<path d="M134.942 103.751C126.638 103.412 106.766 110.027 103.234 116.163C102.092 118.147 103.917 121.368 105.366 120.591C116.157 114.802 142.297 106.951 159.657 120.023C163.514 122.925 166.712 121.094 159.221 116.275C159.221 116.275 148.273 108.791 151.952 108.9L243.738 111.602C246.236 111.675 248.652 112.507 250.666 113.987C251.645 114.706 253.536 117.199 257.526 114.59C265.478 109.39 276.616 111.53 286.398 113.382C292.812 114.596 296.973 117.056 299.645 119.52C303.425 123.007 302.368 120.636 300.684 118.478C291.581 106.808 262.897 108.948 134.942 103.751Z" fill="#A7D9E6"/>
<path d="M331.033 128.011C331.033 124.698 330.076 122.119 328.421 119.801L329.528 125.859L328.764 133.537C328.62 134.997 329.368 136.4 330.662 137.091C330.902 136.232 331.033 135.332 331.033 134.406V128.011Z" fill="#48443E"/>
<path d="M264.662 127.204H263.994V120.17C263.994 116.112 260.824 114.167 257.469 112.107C255.486 110.89 253.437 109.631 252.158 107.904L248.538 103.018L249.076 102.62L252.697 107.508C253.898 109.131 255.804 110.299 257.818 111.536C261.184 113.602 264.662 115.739 264.662 120.17V127.204Z" fill="#789CA6"/>
<path d="M198.476 148.413L197.158 102.828L197.828 102.809L199.145 148.392L198.476 148.413Z" fill="#789CA6"/>
<path d="M156.029 128.784C154.87 123.666 151.582 119.259 147.002 116.696L144.096 115.066C141.602 113.619 140.414 110.935 140.994 108.058C141.592 105.088 143.894 102.922 146.857 102.54L150.717 102.044L150.804 102.707L146.941 103.203C144.268 103.547 142.192 105.504 141.649 108.19C141.241 110.218 141.757 112.936 144.432 114.486L144.381 114.843L144.544 114.551L147.329 116.112C152.073 118.767 155.481 123.334 156.681 128.637L156.029 128.784Z" fill="#789CA6"/>
<path d="M115.351 129.875L89.4155 129.412C89.4155 129.412 88.0995 131.034 93.4782 132.6C96.2675 133.415 109.598 133.318 111.315 132.888C116.657 131.552 115.351 129.875 115.351 129.875Z" fill="#789CA6"/>
<path d="M306.754 115.107L259.45 101.906L259.629 101.262L306.934 114.466L306.754 115.107Z" fill="#789CA6"/>
<path d="M308.681 113.54L324.637 119.315C325.91 119.763 326.015 123.347 325.157 124.295C324.843 124.642 324.394 124.81 323.92 124.758L309.941 123.258C309.259 123.184 308.638 122.675 308.358 121.966C308.222 122.327 306.772 118.695 306.673 116.164C306.612 114.618 307.326 113.063 308.681 113.54Z" fill="#789CA6"/>
<path d="M324.224 120.698H325.554V119.03H324.224V120.698Z" fill="#DAF8FE"/>
<path d="M324.085 122.637C324.03 122.637 323.974 122.634 323.92 122.628L309.941 121.127C309.259 121.054 308.637 120.544 308.358 119.835L306.792 115.847L307.857 118.558C308.014 118.602 308.171 118.647 308.337 118.66L325.359 120.111C325.437 120.288 325.502 120.485 325.554 120.698C325.637 121.223 325.519 121.765 325.157 122.164C324.881 122.47 324.498 122.637 324.085 122.637ZM325.278 119.943C325.196 119.798 325.097 119.66 324.984 119.536C325.094 119.646 325.193 119.783 325.278 119.943ZM306.77 115.792C306.765 115.776 306.759 115.76 306.754 115.746C306.759 115.76 306.765 115.776 306.77 115.792ZM306.741 115.707C306.741 115.704 306.74 115.703 306.74 115.7C306.74 115.703 306.741 115.704 306.741 115.707Z" fill="#CEF3FE"/>
<path d="M308.645 113.528C308.468 113.47 308.296 113.443 308.132 113.443C308.296 113.443 308.468 113.47 308.645 113.528Z" fill="#DAF8FE"/>
<path d="M306.692 115.526C306.657 115.372 306.64 115.222 306.64 115.075C306.64 115.222 306.657 115.372 306.692 115.526ZM306.76 114.416C306.982 113.843 307.493 113.448 308.116 113.443C307.493 113.448 306.982 113.843 306.76 114.416Z" fill="#F2FEFF"/>
<path d="M306.64 115.075C306.64 114.84 306.682 114.618 306.76 114.416C306.682 114.618 306.64 114.84 306.64 115.075Z" fill="#CEF3FE"/>
<path d="M308.665 113.535H308.664C308.66 113.534 308.654 113.532 308.65 113.531C308.65 113.53 308.65 113.531 308.65 113.53C308.654 113.532 308.66 113.534 308.665 113.535ZM308.649 113.53C308.648 113.53 308.646 113.53 308.645 113.528C308.646 113.53 308.648 113.53 308.649 113.53Z" fill="#F2FEFF"/>
<path d="M308.681 113.54C308.676 113.539 308.67 113.538 308.664 113.535H308.665C308.67 113.538 308.676 113.539 308.681 113.54ZM308.65 113.531C308.649 113.53 308.649 113.53 308.649 113.53C308.649 113.53 308.649 113.53 308.65 113.53C308.65 113.531 308.65 113.53 308.65 113.531Z" fill="#CEF3FE"/>
<path d="M325.365 120.111H325.36C325.333 120.052 325.306 119.996 325.278 119.943C325.309 119.997 325.338 120.054 325.365 120.111ZM324.984 119.536C324.878 119.435 324.764 119.359 324.637 119.315L308.681 113.54L324.224 119.03C324.524 119.135 324.778 119.314 324.984 119.536ZM306.692 115.526C306.657 115.372 306.64 115.222 306.64 115.075L306.754 115.107C306.728 115.243 306.706 115.383 306.692 115.526ZM306.896 114.603L306.934 114.466L306.76 114.416C306.982 113.843 307.493 113.448 308.116 113.443C308.121 113.443 308.125 113.443 308.129 113.443C308.13 113.443 308.13 113.443 308.132 113.443C308.296 113.443 308.468 113.47 308.645 113.528C308.646 113.53 308.648 113.53 308.649 113.53C308.49 113.478 308.341 113.452 308.201 113.452C307.584 113.452 307.142 113.931 306.896 114.603ZM308.664 113.535C308.66 113.534 308.654 113.532 308.65 113.531C308.654 113.532 308.66 113.534 308.664 113.535Z" fill="#FAFFFF"/>
<path d="M306.754 115.107L306.64 115.075C306.64 114.84 306.682 114.618 306.76 114.416L306.934 114.466L306.896 114.603C306.838 114.762 306.79 114.931 306.754 115.107Z" fill="#EDFDFF"/>
<path d="M325.36 120.111L308.337 118.66C308.172 118.647 308.014 118.602 307.857 118.558L306.792 115.847C306.784 115.828 306.777 115.811 306.77 115.792C306.765 115.776 306.76 115.76 306.754 115.746C306.75 115.732 306.746 115.72 306.741 115.707C306.741 115.704 306.74 115.703 306.74 115.7C306.721 115.642 306.705 115.583 306.692 115.526C306.706 115.383 306.728 115.243 306.754 115.107C306.79 114.931 306.838 114.762 306.896 114.603C307.142 113.931 307.584 113.452 308.201 113.452C308.341 113.452 308.49 113.478 308.649 113.53C308.649 113.53 308.649 113.53 308.65 113.531C308.654 113.532 308.66 113.534 308.664 113.535C308.67 113.538 308.676 113.539 308.681 113.54L324.637 119.315C324.764 119.359 324.878 119.435 324.984 119.536C325.097 119.66 325.196 119.798 325.278 119.943C325.306 119.996 325.333 120.052 325.36 120.111Z" fill="#EDFDFF"/>
<path d="M308.75 141.212L308.086 141.144L310.014 122.601L310.678 122.671L308.75 141.212Z" fill="#789CA6"/>
<path d="M258.574 145.06C258.574 134.356 267.252 125.677 277.957 125.677C288.661 125.677 297.34 134.356 297.34 145.06C297.34 155.766 288.661 164.443 277.957 164.443C267.252 164.443 258.574 155.766 258.574 145.06Z" fill="#312A20"/>
<path d="M263.526 145.06C263.526 137.091 269.986 130.63 277.957 130.63C285.926 130.63 292.388 137.091 292.388 145.06C292.388 153.031 285.926 159.491 277.957 159.491C269.986 159.491 263.526 153.031 263.526 145.06Z" fill="#7F7E7C"/>
<path d="M277.957 159.491C285.926 159.491 292.388 153.031 292.388 145.06H263.526C263.526 153.031 269.986 159.491 277.957 159.491Z" fill="#706F6E"/>
<path d="M282.901 133.096C281.342 132.575 279.681 132.28 277.946 132.28C276.31 132.28 274.733 132.535 273.251 133.002L278.1 142.7L282.901 133.096Z" fill="#4D4D4B"/>
<path d="M282.901 156.67C281.342 157.192 279.681 157.485 277.946 157.485C276.31 157.485 274.733 157.231 273.251 156.765L278.1 147.067L282.901 156.67Z" fill="#4D4D4B"/>
<path d="M290.693 143.144C290.362 141.534 289.782 139.948 288.913 138.448C288.09 137.032 287.081 135.796 285.931 134.748L279.977 143.808L290.693 143.144Z" fill="#4D4D4B"/>
<path d="M270.302 154.971C269.069 153.884 267.978 152.593 267.109 151.093C266.289 149.679 265.717 148.187 265.377 146.671L276.2 145.999L270.302 154.971Z" fill="#4D4D4B"/>
<path d="M286.454 154.475C287.619 153.313 288.626 151.96 289.403 150.41C290.135 148.946 290.614 147.423 290.861 145.887L280.017 145.882L286.454 154.475Z" fill="#4D4D4B"/>
<path d="M265.375 143.922C265.607 142.294 266.089 140.676 266.865 139.125C267.597 137.661 268.531 136.367 269.611 135.249L276.113 143.927L265.375 143.922Z" fill="#4D4D4B"/>
<path d="M271.644 145.06C271.644 141.467 274.556 138.553 278.148 138.553C281.742 138.553 284.654 141.467 284.654 145.06C284.654 148.653 281.742 151.567 278.148 151.567C274.556 151.567 271.644 148.653 271.644 145.06Z" fill="#5E5E5C"/>
<path d="M277.957 128.972C284.286 128.972 289.84 132.265 293.008 137.234C294.569 139.68 295.312 139.112 293.946 136.375C291.013 130.487 284.921 126.487 277.957 126.487C270.816 126.487 264.593 130.692 261.75 136.824C260.532 139.455 261.185 140.161 262.524 137.86C265.614 132.544 271.365 128.972 277.957 128.972Z" fill="#48443E"/>
<path d="M276.321 145.06C276.321 144.051 277.139 143.234 278.147 143.234C279.158 143.234 279.977 144.051 279.977 145.06C279.977 146.07 279.158 146.887 278.147 146.887C277.139 146.887 276.321 146.07 276.321 145.06Z" fill="#4D4D4B"/>
<path d="M272.132 145.06C272.132 144.643 272.47 144.304 272.888 144.304C273.305 144.304 273.644 144.643 273.644 145.06C273.644 145.479 273.305 145.816 272.888 145.816C272.47 145.816 272.132 145.479 272.132 145.06Z" fill="#4D4D4B"/>
<path d="M272.132 145.06C272.132 144.643 272.47 144.304 272.888 144.304C273.305 144.304 273.644 144.643 273.644 145.06C273.644 145.479 273.305 145.816 272.888 145.816C272.47 145.816 272.132 145.479 272.132 145.06Z" fill="#4D4D4B"/>
<path d="M272.132 145.06C272.132 144.643 272.47 144.304 272.888 144.304C273.305 144.304 273.644 144.643 273.644 145.06C273.644 145.479 273.305 145.816 272.888 145.816C272.47 145.816 272.132 145.479 272.132 145.06Z" fill="#4D4D4B"/>
<path d="M272.132 145.06C272.132 144.643 272.47 144.304 272.888 144.304C273.305 144.304 273.644 144.643 273.644 145.06C273.644 145.479 273.305 145.816 272.888 145.816C272.47 145.816 272.132 145.479 272.132 145.06Z" fill="#4D4D4B"/>
<path d="M272.132 145.06C272.132 144.643 272.47 144.304 272.888 144.304C273.305 144.304 273.644 144.643 273.644 145.06C273.644 145.479 273.305 145.816 272.888 145.816C272.47 145.816 272.132 145.479 272.132 145.06Z" fill="#4D4D4B"/>
<path d="M272.132 145.06C272.132 144.643 272.47 144.304 272.888 144.304C273.305 144.304 273.644 144.643 273.644 145.06C273.644 145.479 273.305 145.816 272.888 145.816C272.47 145.816 272.132 145.479 272.132 145.06Z" fill="#4D4D4B"/>
<path d="M272.132 145.06C272.132 144.643 272.47 144.304 272.888 144.304C273.305 144.304 273.644 144.643 273.644 145.06C273.644 145.479 273.305 145.816 272.888 145.816C272.47 145.816 272.132 145.479 272.132 145.06Z" fill="#4D4D4B"/>
<path d="M272.132 145.06C272.132 144.643 272.47 144.304 272.888 144.304C273.305 144.304 273.644 144.643 273.644 145.06C273.644 145.479 273.305 145.816 272.888 145.816C272.47 145.816 272.132 145.479 272.132 145.06Z" fill="#4D4D4B"/>
<path d="M272.132 145.06C272.132 144.643 272.47 144.304 272.888 144.304C273.305 144.304 273.644 144.643 273.644 145.06C273.644 145.479 273.305 145.816 272.888 145.816C272.47 145.816 272.132 145.479 272.132 145.06Z" fill="#4D4D4B"/>
<path d="M272.132 145.06C272.132 144.643 272.47 144.304 272.888 144.304C273.305 144.304 273.644 144.643 273.644 145.06C273.644 145.479 273.305 145.816 272.888 145.816C272.47 145.816 272.132 145.479 272.132 145.06Z" fill="#4D4D4B"/>
<path d="M272.132 145.06C272.132 144.643 272.47 144.304 272.888 144.304C273.305 144.304 273.644 144.643 273.644 145.06C273.644 145.479 273.305 145.816 272.888 145.816C272.47 145.816 272.132 145.479 272.132 145.06Z" fill="#4D4D4B"/>
<path d="M272.132 145.06C272.132 144.643 272.47 144.304 272.888 144.304C273.305 144.304 273.644 144.643 273.644 145.06C273.644 145.479 273.305 145.816 272.888 145.816C272.47 145.816 272.132 145.479 272.132 145.06Z" fill="#4D4D4B"/>
<path d="M325.398 120.444L325.33 119.779L328.385 119.468L328.454 120.134L325.398 120.444Z" fill="#789CA6"/>
<path d="M116.682 102.375H128.825C130.521 102.375 132.149 101.728 133.382 100.565L149.523 85.3361C150.961 83.9801 150.001 81.5628 148.025 81.5628H144.278L116.682 102.375Z" fill="#312A20"/>
<path d="M124.045 107.996C122.829 107.996 121.84 108.986 121.84 110.202V112.134C121.84 113.35 122.829 114.338 124.045 114.338H127.514C128.73 114.338 129.72 113.35 129.72 112.134V110.202C129.72 108.986 128.73 107.996 127.514 107.996H124.045ZM127.514 115.006H124.045C122.461 115.006 121.172 113.718 121.172 112.134V110.202C121.172 108.616 122.461 107.328 124.045 107.328H127.514C129.1 107.328 130.389 108.616 130.389 110.202V112.134C130.389 113.718 129.1 115.006 127.514 115.006Z" fill="#789CA6"/>
<path d="M89.7436 125.056L99.4609 122.098C100.289 121.846 100.898 120.903 100.898 119.973V118.98C100.898 118.059 99.6823 116.163 98.8663 116.163L89.969 117.316C87.5303 117.316 85.1129 118.882 85.0329 120.83L83.8916 122.563C83.8089 124.554 87.2289 125.822 89.7436 125.056Z" fill="#789CA6"/>
<path d="M88.6942 123.904L98.4115 120.944C99.2382 120.694 99.8475 119.751 99.8475 118.82V117.827C99.8475 116.907 99.2462 116.163 98.4288 116.163H88.9182C86.4795 116.163 84.0635 117.728 83.9808 119.677L83.8942 121.791C83.8115 123.782 86.1782 124.67 88.6942 123.904Z" fill="#D90502"/>
<path d="M93.4102 113.716H85.6863V113.047H93.4102C99.0022 113.047 104.626 111.792 109.674 109.418C112.366 108.151 114.266 107.202 115.325 106.591C117.2 105.508 118.712 104.971 120.23 104.843L129.424 104.155C135.073 103.684 140.324 100.859 143.828 96.4003L158.165 78.1536L158.692 78.5683L144.354 96.8136C140.736 101.418 135.312 104.336 129.476 104.82L120.284 105.508C118.87 105.627 117.444 106.14 115.658 107.171C114.585 107.79 112.666 108.75 109.96 110.023C104.822 112.438 99.0996 113.716 93.4102 113.716Z" fill="#789CA6"/>
<path d="M146.942 85.3042L147.264 85.3535L147.706 84.9362C148.441 84.2468 147.95 83.0148 146.942 83.0188L142.32 83.0375L139.289 85.3202L146.942 85.3042Z" fill="#2E4E5E"/>
<path d="M199.905 101.007H243.036L240.742 96.3962L228.081 89.0095C223.04 86.0708 217.27 84.2695 211.394 83.8002L199.378 82.9508L199.905 101.007Z" fill="#3D687D"/>
<path d="M212.666 86.0868C219.162 86.5548 225.542 88.3575 231.117 91.2962L240.342 96.1628L228.081 89.0095C223.04 86.0708 217.27 84.2695 211.394 83.8002L199.378 82.9508L199.445 85.2402L212.666 86.0868Z" fill="#2E4E5E"/>
<path d="M228.49 97.012C227.97 96.756 226.751 96.9494 226.174 97.6614L222.618 101.365L225.634 101.401L228.613 98.2974C228.919 97.9774 229.054 97.288 228.49 97.012Z" fill="#2E4E5E"/>
<path d="M243.641 99.1522H238.204L233.684 101.854H244.2L243.641 99.1522Z" fill="#2E4E5E"/>
<path d="M226.928 99.1522L231.601 101.402H228.3L225.251 101.854L226.928 99.1522Z" fill="#2E4E5E"/>
<path d="M206.428 107.239H205.881C203.566 107.239 201.142 105.383 200.465 103.095L198.441 96.2494C197.765 93.9614 199.092 92.1054 201.408 92.1054H201.954C204.268 92.1054 206.694 93.9614 207.369 96.2494L209.394 103.095C210.07 105.383 208.742 107.239 206.428 107.239Z" fill="#2E4E5E"/>
<path d="M201.977 92.4841H201.607C199.837 92.4841 197.981 91.0655 197.464 89.3148C196.945 87.5628 197.962 86.1428 199.733 86.1428H200.102C201.873 86.1428 203.729 87.5628 204.247 89.3148C204.763 91.0655 203.749 92.4841 201.977 92.4841Z" fill="#2E4E5E"/>
<path d="M218.709 101.007H235.088V89.4818H218.709V101.007Z" fill="#6BA6BD"/>
<path d="M234.91 93.2976L231.117 91.2963C230.242 90.8349 229.346 90.4016 228.434 89.9963L228.889 89.4816L235.088 93.0976L234.91 93.2976Z" fill="#6096AD"/>
<path d="M225.777 101.007H222.962L226.174 97.6615C226.59 97.1482 227.339 96.9042 227.921 96.9042C228.146 96.9042 228.345 96.9415 228.49 97.0122C229.054 97.2882 228.919 97.9775 228.613 98.2975L227.52 99.4375L226.928 99.1522L225.777 101.007Z" fill="#6096AD"/>
<path d="M228.101 101.007H225.777L226.928 99.1522L227.52 99.4375L228.9 100.102L228.101 101.007Z" fill="#6096AD"/>
<path d="M216.569 101.007H214.84L225.581 88.8455C226.016 89.0042 226.446 89.1682 226.874 89.3388L216.569 101.007Z" fill="#6BA6BD"/>
<path d="M226.874 89.3389C226.446 89.1682 226.016 89.0042 225.581 88.8455L226.298 88.0335C226.694 88.2362 227.085 88.4455 227.472 88.6629L226.874 89.3389Z" fill="#6096AD"/>
<path d="M207.784 97.6509L207.369 96.2495C206.81 94.3562 205.053 92.7589 203.152 92.2642L203.196 92.2149C203.698 91.9615 204.062 91.5455 204.246 91.0242L208.825 85.8402L212.666 86.0869C214.28 86.2029 215.888 86.4015 217.476 86.6789L207.784 97.6509Z" fill="#6BA6BD"/>
<path d="M217.476 86.679C215.888 86.4016 214.28 86.203 212.666 86.087L208.825 85.8403L210.673 83.7483L211.394 83.8003C213.916 84.0016 216.417 84.4483 218.849 85.1243L217.476 86.679Z" fill="#6096AD"/>
<path d="M204.82 101.007H199.905L199.762 96.1015L203.152 92.2642C205.053 92.7588 206.81 94.3562 207.369 96.2495L207.784 97.6508L204.82 101.007Z" fill="#6096AD"/>
<path d="M203.196 92.2148L204.246 91.0242C204.062 91.5455 203.698 91.9615 203.196 92.2148Z" fill="#6096AD"/>
<path d="M199.658 92.5442L199.641 91.9349C199.865 92.0615 200.098 92.1682 200.337 92.2535C200.092 92.3269 199.865 92.4242 199.658 92.5442Z" fill="#6BA6BD"/>
<path d="M204.06 88.8135C203.874 88.4095 203.621 88.0321 203.318 87.6935L205.162 85.6055L206.8 85.7108L204.06 88.8135Z" fill="#6BA6BD"/>
<path d="M206.8 85.7109L205.162 85.6056L207.03 83.4909L208.658 83.6069L206.8 85.7109Z" fill="#6096AD"/>
<path d="M199.693 93.7561L199.658 92.5441C199.865 92.4241 200.092 92.3268 200.337 92.2535C200.517 92.3188 200.7 92.3708 200.884 92.4081L199.693 93.7561Z" fill="#6096AD"/>
<path d="M200.883 92.4082C200.699 92.3709 200.517 92.3189 200.337 92.2535C200.098 92.1682 199.865 92.0615 199.641 91.9349L199.638 91.8602L203.318 87.6935C203.621 88.0322 203.874 88.4095 204.059 88.8135L200.883 92.4082Z" fill="#6096AD"/>
<path d="M163.824 82.9308C162.502 82.9308 161.181 83.0055 159.864 83.1522C159.348 83.2108 158.873 83.4882 158.549 83.9228L154.226 89.7108C153.478 90.7988 153.116 92.0882 153.057 93.4335L152.518 100.214C152.5 100.615 152.778 100.962 153.153 101.007C153.153 101.007 168.253 100.984 168.941 101.007H193.802L195.108 82.9308H163.824Z" fill="#3D687D"/>
<path d="M161.013 85.2161H194.942L195.108 82.9308H163.824C162.502 82.9308 161.181 83.0055 159.864 83.1521C159.348 83.2108 158.873 83.4881 158.549 83.9228L157.461 85.3801C158.641 85.2801 159.826 85.2161 161.013 85.2161Z" fill="#2E4E5E"/>
<path d="M162.744 107.452H162.196C159.881 107.452 157.457 105.596 156.78 103.309L154.757 96.4641C154.08 94.1748 155.408 92.3188 157.722 92.3188H158.269C160.582 92.3188 163.009 94.1748 163.685 96.4641L165.709 103.309C166.385 105.596 165.057 107.452 162.744 107.452Z" fill="#2E4E5E"/>
<path d="M158.292 92.6987H157.922C156.152 92.6987 154.297 91.2787 153.778 89.5281C153.26 87.7761 154.277 86.3574 156.048 86.3574H156.418C158.189 86.3574 160.044 87.7761 160.562 89.5281C161.08 91.2787 160.064 92.6987 158.292 92.6987Z" fill="#2E4E5E"/>
<path d="M156.389 88.5948L161.401 103.293H151.173L148.06 91.9695L155.237 87.7148L156.389 88.5948Z" fill="#2E4E5E"/>
<path d="M180.525 101.007H171.134L185.081 85.2162H194.472L180.525 101.007ZM194.985 84.6362L195.108 82.9308L194.985 84.6348V84.6362Z" fill="#6BA6BD"/>
<path d="M194.472 85.2161H185.081L187.1 82.9307H195.108L194.985 84.6361L194.472 85.2161Z" fill="#6096AD"/>
<path d="M168.993 101.007H168.941C168.814 101.003 168.196 101 167.272 100.999L181.212 85.2162H182.94L168.993 101.007Z" fill="#6BA6BD"/>
<path d="M182.94 85.2161H181.212L183.229 82.9307H184.958L182.94 85.2161Z" fill="#6096AD"/>
<path d="M163.717 96.572L163.685 96.464C163.121 94.556 161.344 92.9494 159.428 92.4667C160.464 91.9974 160.956 90.8574 160.562 89.528C160.561 89.524 160.56 89.52 160.558 89.516L164.357 85.216H173.748L163.717 96.572Z" fill="#6BA6BD"/>
<path d="M173.748 85.2161H164.357L166.376 82.9307H175.766L173.748 85.2161Z" fill="#6096AD"/>
<path d="M160.393 100.336L157.788 92.6962C157.833 92.6975 157.878 92.6988 157.922 92.6988H158.292C158.717 92.6988 159.1 92.6162 159.428 92.4668C161.344 92.9495 163.121 94.5562 163.685 96.4642L163.717 96.5722L160.393 100.336Z" fill="#6096AD"/>
<path d="M158.292 92.6987H157.922C157.878 92.6987 157.833 92.6974 157.788 92.6961L157.777 92.6654L160.558 89.5161C160.56 89.5201 160.561 89.5241 160.562 89.5281C160.956 90.8574 160.464 91.9974 159.428 92.4667C159.1 92.6161 158.717 92.6987 158.292 92.6987Z" fill="#6096AD"/>
<path d="M153.153 101.007C152.778 100.962 152.5 100.615 152.518 100.214L152.657 98.4615L157.777 92.6655L157.788 92.6962L160.393 100.336L159.806 100.999C156.313 101.003 153.153 101.007 153.153 101.007Z" fill="#6096AD"/>
<path d="M159.736 88.0242C159.457 87.6948 159.132 87.3988 158.777 87.1522L160.484 85.2202C160.66 85.2175 160.836 85.2162 161.013 85.2162H162.216L159.736 88.0242Z" fill="#6BA6BD"/>
<path d="M160.484 85.2202L162.482 82.9562C162.93 82.9402 163.377 82.9309 163.824 82.9309H164.234L162.216 85.2162H161.013C160.836 85.2162 160.66 85.2175 160.484 85.2202Z" fill="#6096AD"/>
<path d="M157.181 90.916L156.7 89.504L158.777 87.152C159.132 87.3987 159.457 87.6947 159.736 88.024L157.181 90.916Z" fill="#6096AD"/>
<path d="M152.869 95.7974L153.04 93.6467L156.7 89.504L157.181 90.916L152.869 95.7974Z" fill="#6096AD"/>
<path d="M142.32 83.0377L146.942 83.0191C147.95 83.0151 148.442 84.2471 147.706 84.9364L133.466 98.3084C131.666 99.9964 129.29 100.938 126.82 100.938H118.537L142.32 83.0377Z" fill="#3D687D"/>
<path d="M146.942 83.0191L142.32 83.0377L118.537 100.938H126.821C129.29 100.938 131.666 99.9964 133.466 98.3084L147.706 84.9364C148.441 84.2471 147.95 83.0151 146.942 83.0191Z" fill="#3D687D"/>
<path d="M133.25 94.5229H127.061L142.32 83.0376L143.397 83.0336L133.25 94.5229Z" fill="#6BA6BD"/>
<path d="M126.821 100.938H118.537L127.061 94.5231H133.25L127.612 100.906C127.35 100.927 127.086 100.938 126.821 100.938Z" fill="#6096AD"/>
<path d="M238.798 97.3521L244.472 105.051H241.009C240.16 105.051 239.354 104.673 238.812 104.021L236.466 101.201L238.798 97.3521Z" fill="#312A20"/>
<path d="M234.146 93.9416H232.804V98.8296H239.034C239.034 96.1296 236.848 93.9416 234.146 93.9416Z" fill="#A7D9E6"/>
<path d="M234.146 103.718C236.848 103.718 239.034 101.53 239.034 98.8295H232.804V103.718H234.146Z" fill="#789CA6"/>
<path d="M260.501 101.742C261.741 101.275 263.97 100.072 265.001 99.407C264.07 98.3563 235.521 84.6656 224.061 81.563C225.482 85.8976 250.846 98.7176 254.976 101.478C256.374 102.412 258.45 102.511 260.501 101.742Z" fill="#312A20"/>
<path d="M260.914 100.468C262.154 100.003 263.339 99.5428 264.365 98.9668C259.931 96.1174 234.332 84.3334 225.93 82.1134C227.674 85.1988 251.03 97.5068 255.387 100.203C256.818 101.091 258.863 101.239 260.914 100.468Z" fill="#3D687D"/>
<path d="M264.354 98.9722C264.358 98.9708 264.362 98.9682 264.365 98.9668C264.362 98.9682 264.358 98.9708 264.354 98.9722ZM264.365 98.9668C259.931 96.1175 234.332 84.3335 225.93 82.1135C234.332 84.2562 259.997 96.0922 264.365 98.9668Z" fill="#3D687D"/>
<path d="M264.337 98.9829C264.342 98.9789 264.349 98.9762 264.354 98.9722C264.349 98.9762 264.342 98.9789 264.337 98.9829ZM228.933 84.7042C228.93 84.7016 228.926 84.7002 228.922 84.6976C228.926 84.7002 228.93 84.7029 228.933 84.7042ZM225.934 82.1202C225.933 82.1176 225.932 82.1162 225.93 82.1136C225.932 82.1162 225.933 82.1176 225.934 82.1202Z" fill="#62818D"/>
<path d="M262.674 99.7522C257.99 96.4495 239.066 87.9522 228.933 84.7042C228.93 84.7029 228.926 84.7002 228.922 84.6975C227.553 83.7255 226.241 82.6535 225.934 82.1202C225.933 82.1175 225.932 82.1162 225.93 82.1135C234.332 84.3335 259.931 96.1175 264.365 98.9669C264.362 98.9682 264.358 98.9709 264.354 98.9722C264.349 98.9762 264.342 98.9789 264.337 98.9829C263.823 99.2682 263.245 99.4989 262.674 99.7522Z" fill="#6BA6BD"/>
<path d="M208.697 112.798H203.997C202.874 112.798 201.965 111.887 201.965 110.763C201.965 109.642 202.874 108.73 203.997 108.73H208.697C209.82 108.73 210.73 109.642 210.73 110.763C210.73 111.887 209.82 112.798 208.697 112.798Z" fill="#A2DFFC"/>
<path d="M203.997 109.068C203.064 109.068 202.304 109.828 202.304 110.763C202.304 111.699 203.064 112.459 203.997 112.459H208.697C209.63 112.459 210.392 111.699 210.392 110.763C210.392 109.828 209.63 109.068 208.697 109.068H203.997ZM208.697 113.136H203.997C202.689 113.136 201.625 112.072 201.625 110.763C201.625 109.455 202.689 108.391 203.997 108.391H208.697C210.005 108.391 211.069 109.455 211.069 110.763C211.069 112.072 210.005 113.136 208.697 113.136Z" fill="#789CA6"/>
<path d="M203.997 112.798H208.697C209.82 112.798 210.73 111.887 210.73 110.763H201.964C201.964 111.887 202.874 112.798 203.997 112.798Z" fill="#789CA6"/>
<path d="M193.074 112.798H188.376C187.253 112.798 186.342 111.887 186.342 110.763C186.342 109.642 187.253 108.73 188.376 108.73H193.074C194.198 108.73 195.108 109.642 195.108 110.763C195.108 111.887 194.198 112.798 193.074 112.798Z" fill="#A2DFFC"/>
<path d="M188.376 109.068C187.441 109.068 186.681 109.828 186.681 110.763C186.681 111.699 187.441 112.459 188.376 112.459H193.074C194.009 112.459 194.768 111.699 194.768 110.763C194.768 109.828 194.009 109.068 193.074 109.068H188.376ZM193.074 113.136H188.376C187.068 113.136 186.004 112.072 186.004 110.763C186.004 109.455 187.068 108.391 188.376 108.391H193.074C194.382 108.391 195.446 109.455 195.446 110.763C195.446 112.072 194.382 113.136 193.074 113.136Z" fill="#789CA6"/>
<path d="M188.376 112.798H193.074C194.198 112.798 195.108 111.887 195.108 110.763H186.342C186.342 111.887 187.253 112.798 188.376 112.798Z" fill="#789CA6"/>
<path d="M35.4875 183.846C35.4875 181.831 37.1196 180.2 39.1342 180.2C41.1462 180.2 42.7782 181.831 42.7782 183.846C42.7782 185.859 41.1462 187.49 39.1342 187.49C37.1196 187.49 35.4875 185.859 35.4875 183.846Z" fill="#201600"/>
<path d="M35.4875 183.846C35.4875 181.831 37.1196 180.2 39.1342 180.2C41.1462 180.2 42.7782 181.831 42.7782 183.846C42.7782 185.859 41.1462 187.49 39.1342 187.49C37.1196 187.49 35.4875 185.859 35.4875 183.846Z" fill="#201600"/>
<path d="M35.4875 183.846C35.4875 181.831 37.1196 180.2 39.1342 180.2C41.1462 180.2 42.7782 181.831 42.7782 183.846C42.7782 185.859 41.1462 187.49 39.1342 187.49C37.1196 187.49 35.4875 185.859 35.4875 183.846Z" fill="#201600"/>
<path d="M58.5343 164.443H350.897C361.612 164.443 370.298 173.13 370.298 183.846C370.298 194.56 361.612 203.247 350.897 203.247H58.5343C47.8196 203.247 39.1343 194.56 39.1343 183.846C39.1343 173.13 47.8196 164.443 58.5343 164.443Z" fill="#BA7000"/>
<path d="M58.5343 165.485C48.4116 165.485 40.1756 173.72 40.1756 183.846C40.1756 193.97 48.4116 202.204 58.5343 202.204H350.897C361.021 202.204 369.256 193.97 369.256 183.846C369.256 173.72 361.021 165.485 350.897 165.485H58.5343ZM350.897 204.288H58.5343C47.2623 204.288 38.0916 195.118 38.0916 183.846C38.0916 172.573 47.2623 163.401 58.5343 163.401H350.897C362.168 163.401 371.34 172.573 371.34 183.846C371.34 195.118 362.168 204.288 350.897 204.288Z" fill="#201600"/>
<path d="M58.5342 198.037C50.7076 198.037 44.3409 191.671 44.3409 183.846C44.3409 176.02 50.7076 169.651 58.5342 169.651H350.897C358.724 169.651 365.09 176.02 365.09 183.846C365.09 191.671 358.724 198.037 350.897 198.037H58.5342Z" fill="#FFB413"/>
<path d="M58.5343 170.694C51.2823 170.694 45.3836 176.592 45.3836 183.846C45.3836 191.096 51.2823 196.996 58.5343 196.996H350.897C358.149 196.996 364.048 191.096 364.048 183.846C364.048 176.592 358.149 170.694 350.897 170.694H58.5343ZM350.897 199.082H58.5343C50.1343 199.082 43.2996 192.247 43.2996 183.846C43.2996 175.444 50.1343 168.61 58.5343 168.61H350.897C359.298 168.61 366.133 175.444 366.133 183.846C366.133 192.247 359.298 199.082 350.897 199.082Z" fill="#201600"/>
<path d="M58.5343 195.955C51.8569 195.955 46.4236 190.524 46.4236 183.846C46.4236 177.167 51.8569 171.735 58.5343 171.735H350.897C357.576 171.735 363.008 177.167 363.008 183.846C363.008 190.524 357.576 195.955 350.897 195.955H58.5343Z" fill="#FFB413"/>
<path d="M51.6169 183.977C51.6169 179.808 54.9969 176.425 59.1676 176.425C63.3383 176.425 66.7182 179.808 66.7182 183.977C66.7182 188.147 63.3383 191.53 59.1676 191.53C54.9969 191.53 51.6169 188.147 51.6169 183.977Z" fill="#FFB413"/>
<path d="M59.1676 177.47C55.5783 177.47 52.6583 180.388 52.6583 183.977C52.6583 187.567 55.5783 190.487 59.1676 190.487C62.7569 190.487 65.6783 187.567 65.6783 183.977C65.6783 180.388 62.7569 177.47 59.1676 177.47ZM59.1676 192.571C54.4303 192.571 50.5756 188.716 50.5756 183.977C50.5756 179.24 54.4303 175.384 59.1676 175.384C63.9063 175.384 67.761 179.24 67.761 183.977C67.761 188.716 63.9063 192.571 59.1676 192.571Z" fill="#201600"/>
<path d="M55.697 183.977C55.697 182.06 57.2517 180.505 59.1677 180.505C61.0863 180.505 62.641 182.06 62.641 183.977C62.641 185.895 61.0863 187.449 59.1677 187.449C57.2517 187.449 55.697 185.895 55.697 183.977Z" fill="#201600"/>
<path d="M343.734 183.977C343.734 179.808 347.114 176.425 351.285 176.425C355.456 176.425 358.836 179.808 358.836 183.977C358.836 188.147 355.456 191.53 351.285 191.53C347.114 191.53 343.734 188.147 343.734 183.977Z" fill="#FFB413"/>
<path d="M351.285 177.47C347.696 177.47 344.776 180.388 344.776 183.977C344.776 187.567 347.696 190.487 351.285 190.487C354.874 190.487 357.796 187.567 357.796 183.977C357.796 180.388 354.874 177.47 351.285 177.47ZM351.285 192.571C346.546 192.571 342.693 188.716 342.693 183.977C342.693 179.24 346.546 175.384 351.285 175.384C356.024 175.384 359.878 179.24 359.878 183.977C359.878 188.716 356.024 192.571 351.285 192.571Z" fill="#201600"/>
<path d="M347.813 183.977C347.813 182.06 349.368 180.505 351.285 180.505C353.202 180.505 354.757 182.06 354.757 183.977C354.757 185.895 353.202 187.449 351.285 187.449C349.368 187.449 347.813 185.895 347.813 183.977Z" fill="#201600"/>
<path d="M254.568 183.977C254.568 178.107 259.326 173.347 265.198 173.347C271.068 173.347 275.826 178.107 275.826 183.977C275.826 189.848 271.068 194.607 265.198 194.607C259.326 194.607 254.568 189.848 254.568 183.977Z" fill="#FFB413"/>
<path d="M265.198 174.389C259.91 174.389 255.609 178.691 255.609 183.977C255.609 189.264 259.91 193.565 265.198 193.565C270.484 193.565 274.785 189.264 274.785 183.977C274.785 178.691 270.484 174.389 265.198 174.389ZM265.198 195.649C258.76 195.649 253.525 190.415 253.525 183.977C253.525 177.541 258.76 172.305 265.198 172.305C271.633 172.305 276.869 177.541 276.869 183.977C276.869 190.415 271.633 195.649 265.198 195.649Z" fill="#201600"/>
<path d="M260.31 183.977C260.31 181.277 262.498 179.091 265.198 179.091C267.896 179.091 270.085 181.277 270.085 183.977C270.085 186.676 267.896 188.865 265.198 188.865C262.498 188.865 260.31 186.676 260.31 183.977Z" fill="#201600"/>
<path d="M138.813 183.977C138.813 178.107 143.573 173.347 149.444 173.347C155.314 173.347 160.074 178.107 160.074 183.977C160.074 189.848 155.314 194.607 149.444 194.607C143.573 194.607 138.813 189.848 138.813 183.977Z" fill="#FFB413"/>
<path d="M149.444 174.389C144.157 174.389 139.857 178.691 139.857 183.977C139.857 189.264 144.157 193.565 149.444 193.565C154.732 193.565 159.032 189.264 159.032 183.977C159.032 178.691 154.732 174.389 149.444 174.389ZM149.444 195.649C143.009 195.649 137.773 190.415 137.773 183.977C137.773 177.541 143.009 172.305 149.444 172.305C155.88 172.305 161.116 177.541 161.116 183.977C161.116 190.415 155.88 195.649 149.444 195.649Z" fill="#201600"/>
<path d="M144.557 183.977C144.557 181.277 146.745 179.091 149.444 179.091C152.144 179.091 154.332 181.277 154.332 183.977C154.332 186.676 152.144 188.865 149.444 188.865C146.745 188.865 144.557 186.676 144.557 183.977Z" fill="#201600"/>
</svg>
