<svg width="30" height="30" viewBox="0 0 30 30" fill="none" xmlns="http://www.w3.org/2000/svg">
<path fill-rule="evenodd" clip-rule="evenodd" d="M8.5922 3.93556C7.30596 4.10106 6.1239 4.72917 5.26689 5.70262C4.40886 6.67723 3.9355 7.93117 3.93543 9.22966C3.93543 13.6947 5.70915 17.9768 8.86639 21.134C12.0236 24.2912 16.3057 26.065 20.7707 26.065M8.5922 3.93556C8.61467 3.93318 8.63734 3.93799 8.65693 3.94932C8.67698 3.96091 8.69272 3.97871 8.70178 4.00003L11.3281 10.128C11.3352 10.1448 11.3381 10.163 11.3366 10.1811C11.335 10.1992 11.3289 10.2167 11.319 10.2319L9.14795 13.5492C9.14742 13.55 9.1469 13.5508 9.14637 13.5516C8.9591 13.8353 8.84838 14.1626 8.825 14.5018C8.80155 14.8419 8.86672 15.1823 9.01416 15.4897L9.85721 15.0854L9.0173 15.4962C10.1936 17.901 12.1429 19.8415 14.5531 21.0068L14.5597 21.01C14.869 21.1566 15.2111 21.2201 15.5523 21.1942C15.8927 21.1685 16.2205 21.0548 16.5037 20.8643C16.5044 20.8638 16.5052 20.8633 16.506 20.8628L19.773 18.6842C19.7883 18.6741 19.8058 18.6678 19.8241 18.6662C19.8424 18.6645 19.8608 18.6674 19.8777 18.6746L25.9976 21.2974L26.0004 21.2986C26.0217 21.3077 26.0395 21.3234 26.0511 21.3435C26.0627 21.3635 26.0674 21.3868 26.0647 21.4098L26.9929 21.5221L26.0654 21.4036C25.9008 22.6916 25.2724 23.8755 24.2978 24.7335C23.3232 25.5915 22.0692 26.0649 20.7707 26.065M10.6995 14.6794C11.6913 16.7042 13.3328 18.3384 15.3621 19.3209C15.3775 19.3279 15.3944 19.3308 15.4113 19.3296C15.4287 19.3282 15.4456 19.3224 15.4601 19.3126L15.4643 19.3098L18.7356 17.1284C19.0097 16.9456 19.325 16.8341 19.6531 16.804C19.9811 16.7739 20.3115 16.826 20.6143 16.9558L26.7315 19.5775C26.7319 19.5776 26.7323 19.5778 26.7327 19.578C27.1266 19.7456 27.4555 20.0366 27.6698 20.4073C27.8844 20.7783 27.9726 21.209 27.9211 21.6345L27.9204 21.6407C27.6981 23.3799 26.8495 24.9785 25.5335 26.1371C24.2174 27.2957 22.5242 27.9349 20.7708 27.935C15.8099 27.935 11.052 25.9642 7.5441 22.4563C4.03617 18.9484 2.06543 14.1906 2.06543 9.22961C2.06552 7.47624 2.70472 5.78297 3.86333 4.46694C5.02194 3.15091 6.62052 2.30232 8.35975 2.08005L8.36594 2.07926C8.79142 2.02777 9.22211 2.11597 9.59312 2.33054C9.96362 2.54481 10.2546 2.87353 10.4222 3.26728C10.4225 3.26782 10.4227 3.26836 10.4229 3.2689L13.0469 9.39142C13.1755 9.69157 13.2279 10.0189 13.1994 10.3442C13.171 10.6695 13.0625 10.9827 12.8837 11.2559L10.7071 14.5816C10.6975 14.5962 10.6918 14.613 10.6906 14.6304C10.6894 14.6472 10.6925 14.6641 10.6995 14.6794Z" fill="#FCAF17"/>
</svg>
