<svg width="413" height="185" viewBox="0 0 413 185" fill="none" xmlns="http://www.w3.org/2000/svg">
<g clip-path="url(#clip0)">
<g filter="url(#filter0_d)">
<rect x="1" y="1" width="411" height="183" stroke="white" stroke-width="2" shape-rendering="crispEdges"/>
</g>
<g filter="url(#filter1_d)">
<rect x="1" y="1" width="86" height="183" stroke="white" stroke-width="2" shape-rendering="crispEdges"/>
</g>
<path d="M112.968 98.93V101.792C112.968 104.516 112.548 106.67 111.708 108.254H116.532V98.93H112.968ZM111.096 97.184H118.476V108.254H119.988V112.88H118.08V110H110.304V112.88H108.414V108.254H109.53C110.574 106.634 111.096 104.204 111.096 100.964V97.184ZM129.156 105.428C129.156 106.268 129.078 106.97 128.922 107.534C128.766 108.098 128.484 108.596 128.076 109.028C127.38 109.748 126.468 110.108 125.34 110.108C124.224 110.108 123.318 109.748 122.622 109.028C122.214 108.596 121.932 108.098 121.776 107.534C121.62 106.97 121.542 106.268 121.542 105.428C121.542 104.6 121.62 103.904 121.776 103.34C121.932 102.764 122.214 102.266 122.622 101.846C123.318 101.126 124.224 100.766 125.34 100.766C126.468 100.766 127.38 101.126 128.076 101.846C128.484 102.266 128.766 102.764 128.922 103.34C129.078 103.904 129.156 104.6 129.156 105.428ZM126.69 107.93C127.11 107.51 127.32 106.676 127.32 105.428C127.32 104.18 127.11 103.346 126.69 102.926C126.342 102.578 125.892 102.404 125.34 102.404C124.8 102.404 124.356 102.578 124.008 102.926C123.588 103.346 123.378 104.18 123.378 105.428C123.378 106.676 123.588 107.51 124.008 107.93C124.368 108.29 124.812 108.47 125.34 108.47C125.88 108.47 126.33 108.29 126.69 107.93ZM138.364 110H136.528V102.476H133.882V105.122C133.882 106.07 133.816 106.868 133.684 107.516C133.552 108.164 133.354 108.668 133.09 109.028C132.826 109.376 132.52 109.628 132.172 109.784C131.836 109.928 131.434 110 130.966 110H130.102V108.38H130.39C130.582 108.38 130.744 108.368 130.876 108.344C131.008 108.308 131.158 108.224 131.326 108.092C131.506 107.948 131.644 107.756 131.74 107.516C131.848 107.264 131.938 106.898 132.01 106.418C132.082 105.926 132.118 105.344 132.118 104.672V100.874H138.364V110ZM146.116 105.122V102.35H143.974C143.506 102.35 143.14 102.476 142.876 102.728C142.612 102.98 142.48 103.322 142.48 103.754C142.48 104.186 142.612 104.522 142.876 104.762C143.14 105.002 143.506 105.122 143.974 105.122H146.116ZM142.696 110H140.59L142.57 106.256C141.982 106.088 141.52 105.776 141.184 105.32C140.848 104.864 140.68 104.312 140.68 103.664C140.68 102.836 140.95 102.164 141.49 101.648C142.042 101.132 142.756 100.874 143.632 100.874H147.934V110H146.098V106.598H144.424L142.696 110ZM160.183 105.86H154.927V104.15H160.183V105.86ZM174.331 105.716C174.331 106.496 174.259 107.15 174.115 107.678C173.971 108.206 173.683 108.686 173.251 109.118C172.579 109.79 171.679 110.126 170.551 110.126C169.387 110.126 168.475 109.796 167.815 109.136C167.251 108.572 166.927 107.756 166.843 106.688H168.679C168.835 107.876 169.459 108.47 170.551 108.47C171.103 108.47 171.547 108.302 171.883 107.966C172.291 107.558 172.495 106.808 172.495 105.716C172.495 103.928 171.871 103.034 170.623 103.034C169.651 103.034 169.045 103.418 168.805 104.186H167.131V97.184H174.043V98.822H168.787V102.206C169.255 101.714 169.963 101.468 170.911 101.468C171.895 101.468 172.663 101.744 173.215 102.296C173.959 103.04 174.331 104.18 174.331 105.716ZM183.803 106.436C183.803 107.552 183.449 108.446 182.741 109.118C182.033 109.778 181.151 110.108 180.095 110.108C179.051 110.108 178.175 109.778 177.467 109.118C176.759 108.446 176.405 107.552 176.405 106.436V100.748C176.405 99.632 176.759 98.744 177.467 98.084C178.175 97.412 179.051 97.076 180.095 97.076C181.151 97.076 182.033 97.412 182.741 98.084C183.449 98.744 183.803 99.632 183.803 100.748V106.436ZM181.967 106.382V100.802C181.967 100.178 181.799 99.674 181.463 99.29C181.127 98.906 180.671 98.714 180.095 98.714C179.531 98.714 179.081 98.906 178.745 99.29C178.409 99.674 178.241 100.178 178.241 100.802V106.382C178.241 107.006 178.409 107.51 178.745 107.894C179.081 108.278 179.531 108.47 180.095 108.47C180.671 108.47 181.127 108.278 181.463 107.894C181.799 107.51 181.967 107.006 181.967 106.382ZM199.016 107.66C199.016 108.416 198.776 109.016 198.296 109.46C197.816 109.904 197.216 110.126 196.496 110.126C195.776 110.126 195.176 109.904 194.696 109.46C194.216 109.016 193.976 108.416 193.976 107.66V105.842C193.976 105.086 194.216 104.486 194.696 104.042C195.176 103.598 195.776 103.376 196.496 103.376C197.216 103.376 197.816 103.598 198.296 104.042C198.776 104.486 199.016 105.086 199.016 105.842V107.66ZM190.988 101.342C190.988 102.098 190.748 102.698 190.268 103.142C189.788 103.574 189.188 103.79 188.468 103.79C187.748 103.79 187.148 103.574 186.668 103.142C186.188 102.698 185.948 102.098 185.948 101.342V99.524C185.948 98.768 186.188 98.168 186.668 97.724C187.148 97.28 187.748 97.058 188.468 97.058C189.188 97.058 189.788 97.28 190.268 97.724C190.748 98.168 190.988 98.768 190.988 99.524V101.342ZM196.226 97.184L190.196 110H188.72L194.768 97.184H196.226ZM197.63 107.606V105.896C197.63 105.032 197.252 104.6 196.496 104.6C195.74 104.6 195.362 105.032 195.362 105.896V107.606C195.362 108.47 195.74 108.902 196.496 108.902C197.252 108.902 197.63 108.47 197.63 107.606ZM189.602 101.288V99.578C189.602 98.714 189.224 98.282 188.468 98.282C187.712 98.282 187.334 98.714 187.334 99.578V101.288C187.334 102.14 187.712 102.566 188.468 102.566C189.224 102.566 189.602 102.14 189.602 101.288ZM118.728 128.4C118.728 129.504 118.38 130.38 117.684 131.028C117 131.676 116.058 132 114.858 132H109.674V119.184H114.66C115.824 119.184 116.76 119.502 117.468 120.138C118.176 120.762 118.53 121.596 118.53 122.64C118.53 123.936 117.954 124.866 116.802 125.43C118.086 126.03 118.728 127.02 118.728 128.4ZM116.028 124.116C116.4 123.792 116.586 123.342 116.586 122.766C116.586 122.19 116.4 121.74 116.028 121.416C115.656 121.092 115.146 120.93 114.498 120.93H111.618V124.602H114.498C115.146 124.602 115.656 124.44 116.028 124.116ZM116.19 129.732C116.574 129.372 116.766 128.892 116.766 128.292C116.766 127.692 116.574 127.218 116.19 126.87C115.818 126.522 115.308 126.348 114.66 126.348H111.618V130.254H114.66C115.308 130.254 115.818 130.08 116.19 129.732ZM131.69 132H129.854V122.874H131.69V132ZM127.766 127.104C128.318 127.632 128.594 128.316 128.594 129.156C128.594 129.996 128.318 130.68 127.766 131.208C127.226 131.736 126.512 132 125.624 132H121.394V122.874H123.23V126.312H125.624C126.512 126.312 127.226 126.576 127.766 127.104ZM126.38 130.146C126.644 129.906 126.776 129.576 126.776 129.156C126.776 128.736 126.644 128.412 126.38 128.184C126.128 127.944 125.774 127.824 125.318 127.824H123.23V130.506H125.318C125.774 130.506 126.128 130.386 126.38 130.146ZM142.205 127.428C142.205 129.312 141.863 130.602 141.179 131.298C140.639 131.838 139.901 132.108 138.965 132.108C137.945 132.108 137.147 131.76 136.571 131.064V135.69H134.735V122.874H136.535V123.846C137.135 123.126 137.939 122.766 138.947 122.766C139.895 122.766 140.639 123.036 141.179 123.576C141.863 124.272 142.205 125.556 142.205 127.428ZM140.297 128.598C140.345 128.274 140.369 127.884 140.369 127.428C140.369 126.972 140.345 126.582 140.297 126.258C140.261 125.934 140.177 125.622 140.045 125.322C139.925 125.022 139.733 124.794 139.469 124.638C139.205 124.482 138.875 124.404 138.479 124.404C138.071 124.404 137.735 124.482 137.471 124.638C137.207 124.794 137.009 125.022 136.877 125.322C136.757 125.622 136.673 125.934 136.625 126.258C136.589 126.582 136.571 126.972 136.571 127.428C136.571 127.884 136.589 128.274 136.625 128.598C136.673 128.922 136.757 129.24 136.877 129.552C137.009 129.852 137.207 130.08 137.471 130.236C137.747 130.392 138.083 130.47 138.479 130.47C138.875 130.47 139.205 130.392 139.469 130.236C139.733 130.08 139.925 129.852 140.045 129.552C140.177 129.24 140.261 128.922 140.297 128.598ZM151.403 122.874L147.371 133.818C146.939 135.018 146.093 135.618 144.833 135.618H144.095V133.962H144.563C144.947 133.962 145.229 133.896 145.409 133.764C145.589 133.644 145.745 133.392 145.877 133.008L146.381 131.568L143.177 122.874H145.139L147.317 129.318L149.441 122.874H151.403ZM159.626 132H157.79V128.634C156.83 128.826 155.96 128.922 155.18 128.922C154.4 128.922 153.77 128.706 153.29 128.274C152.822 127.83 152.588 127.2 152.588 126.384V122.874H154.424V125.934C154.424 126.834 154.868 127.284 155.756 127.284C156.308 127.284 156.986 127.212 157.79 127.068V122.874H159.626V132ZM164.434 132H162.58V122.874H164.434V132ZM170.392 132H168.142L164.452 127.248L167.926 122.874H170.122L166.486 127.158L170.392 132ZM178.381 132H176.581V131.172C176.245 131.508 175.891 131.748 175.519 131.892C175.159 132.036 174.703 132.108 174.151 132.108C173.071 132.108 172.255 131.832 171.703 131.28C171.223 130.776 170.983 130.122 170.983 129.318C170.983 128.526 171.253 127.89 171.793 127.41C172.345 126.93 173.131 126.69 174.151 126.69H176.545V126.042C176.545 125.454 176.389 125.022 176.077 124.746C175.765 124.47 175.255 124.332 174.547 124.332C174.067 124.332 173.677 124.404 173.377 124.548C173.089 124.68 172.813 124.908 172.549 125.232L171.361 124.098C171.781 123.606 172.231 123.264 172.711 123.072C173.203 122.868 173.839 122.766 174.619 122.766C177.127 122.766 178.381 123.81 178.381 125.898V132ZM176.545 128.706V127.968H174.439C173.323 127.968 172.765 128.406 172.765 129.282C172.765 130.146 173.341 130.578 174.493 130.578C175.225 130.578 175.777 130.404 176.149 130.056C176.413 129.804 176.545 129.354 176.545 128.706ZM190.54 127.86H185.284V126.15H190.54V127.86ZM205.03 130.074H203.662V132H201.88V130.074H196.696V128.364L201.214 119.184H203.194L198.694 128.364H201.88V125.376H203.662V128.364H205.03V130.074ZM214.25 132H206.798V130.362L211.73 124.368C212.186 123.816 212.414 123.246 212.414 122.658C212.414 122.07 212.246 121.602 211.91 121.254C211.586 120.894 211.13 120.714 210.542 120.714C210.002 120.714 209.552 120.876 209.192 121.2C208.832 121.524 208.652 122.022 208.652 122.694H206.816C206.816 121.614 207.164 120.744 207.86 120.084C208.556 119.412 209.45 119.076 210.542 119.076C211.646 119.076 212.54 119.406 213.224 120.066C213.908 120.714 214.25 121.584 214.25 122.676C214.25 123.204 214.154 123.666 213.962 124.062C213.782 124.446 213.476 124.908 213.044 125.448L209.03 130.362H214.25V132ZM228.334 128.382C228.334 129.51 227.956 130.416 227.2 131.1C226.444 131.772 225.502 132.108 224.374 132.108C223.246 132.108 222.304 131.772 221.548 131.1C220.804 130.416 220.432 129.51 220.432 128.382C220.432 127.086 221.02 126.084 222.196 125.376C221.164 124.752 220.648 123.834 220.648 122.622C220.648 121.566 221.002 120.714 221.71 120.066C222.418 119.406 223.306 119.076 224.374 119.076C225.442 119.076 226.33 119.406 227.038 120.066C227.758 120.714 228.118 121.566 228.118 122.622C228.118 123.834 227.602 124.752 226.57 125.376C227.746 126.084 228.334 127.086 228.334 128.382ZM225.868 129.858C226.276 129.45 226.48 128.946 226.48 128.346C226.48 127.746 226.276 127.242 225.868 126.834C225.46 126.414 224.962 126.204 224.374 126.204C223.786 126.204 223.288 126.414 222.88 126.834C222.472 127.242 222.268 127.746 222.268 128.346C222.268 128.946 222.472 129.45 222.88 129.858C223.288 130.266 223.786 130.47 224.374 130.47C224.962 130.47 225.46 130.266 225.868 129.858ZM225.742 124.08C226.102 123.708 226.282 123.24 226.282 122.676C226.282 122.112 226.102 121.644 225.742 121.272C225.382 120.9 224.926 120.714 224.374 120.714C223.822 120.714 223.366 120.9 223.006 121.272C222.658 121.644 222.484 122.112 222.484 122.676C222.484 123.24 222.658 123.708 223.006 124.08C223.366 124.44 223.822 124.62 224.374 124.62C224.926 124.62 225.382 124.44 225.742 124.08ZM238.148 130.074H236.78V132H234.998V130.074H229.814V128.364L234.332 119.184H236.312L231.812 128.364H234.998V125.376H236.78V128.364H238.148V130.074ZM247.547 120.822L243.263 132H241.283L245.585 120.822H241.679V122.838H239.915V119.184H247.547V120.822ZM261.325 127.716C261.325 128.496 261.253 129.15 261.109 129.678C260.965 130.206 260.677 130.686 260.245 131.118C259.573 131.79 258.673 132.126 257.545 132.126C256.381 132.126 255.469 131.796 254.809 131.136C254.245 130.572 253.921 129.756 253.837 128.688H255.673C255.829 129.876 256.453 130.47 257.545 130.47C258.097 130.47 258.541 130.302 258.877 129.966C259.285 129.558 259.489 128.808 259.489 127.716C259.489 125.928 258.865 125.034 257.617 125.034C256.645 125.034 256.039 125.418 255.799 126.186H254.125V119.184H261.037V120.822H255.781V124.206C256.249 123.714 256.957 123.468 257.905 123.468C258.889 123.468 259.657 123.744 260.209 124.296C260.953 125.04 261.325 126.18 261.325 127.716ZM270.797 128.436C270.797 129.552 270.443 130.446 269.735 131.118C269.027 131.778 268.145 132.108 267.089 132.108C266.045 132.108 265.169 131.778 264.461 131.118C263.753 130.446 263.399 129.552 263.399 128.436V122.748C263.399 121.632 263.753 120.744 264.461 120.084C265.169 119.412 266.045 119.076 267.089 119.076C268.145 119.076 269.027 119.412 269.735 120.084C270.443 120.744 270.797 121.632 270.797 122.748V128.436ZM268.961 128.382V122.802C268.961 122.178 268.793 121.674 268.457 121.29C268.121 120.906 267.665 120.714 267.089 120.714C266.525 120.714 266.075 120.906 265.739 121.29C265.403 121.674 265.235 122.178 265.235 122.802V128.382C265.235 129.006 265.403 129.51 265.739 129.894C266.075 130.278 266.525 130.47 267.089 130.47C267.665 130.47 268.121 130.278 268.457 129.894C268.793 129.51 268.961 129.006 268.961 128.382ZM280.394 128.436C280.394 129.552 280.04 130.446 279.332 131.118C278.624 131.778 277.742 132.108 276.686 132.108C275.642 132.108 274.766 131.778 274.058 131.118C273.35 130.446 272.996 129.552 272.996 128.436V122.748C272.996 121.632 273.35 120.744 274.058 120.084C274.766 119.412 275.642 119.076 276.686 119.076C277.742 119.076 278.624 119.412 279.332 120.084C280.04 120.744 280.394 121.632 280.394 122.748V128.436ZM278.558 128.382V122.802C278.558 122.178 278.39 121.674 278.054 121.29C277.718 120.906 277.262 120.714 276.686 120.714C276.122 120.714 275.672 120.906 275.336 121.29C275 121.674 274.832 122.178 274.832 122.802V128.382C274.832 129.006 275 129.51 275.336 129.894C275.672 130.278 276.122 130.47 276.686 130.47C277.262 130.47 277.718 130.278 278.054 129.894C278.39 129.51 278.558 129.006 278.558 128.382ZM294.748 127.428C294.748 129.312 294.406 130.602 293.722 131.298C293.182 131.838 292.444 132.108 291.508 132.108C290.488 132.108 289.69 131.76 289.114 131.064V135.69H287.278V122.874H289.078V123.846C289.678 123.126 290.482 122.766 291.49 122.766C292.438 122.766 293.182 123.036 293.722 123.576C294.406 124.272 294.748 125.556 294.748 127.428ZM292.84 128.598C292.888 128.274 292.912 127.884 292.912 127.428C292.912 126.972 292.888 126.582 292.84 126.258C292.804 125.934 292.72 125.622 292.588 125.322C292.468 125.022 292.276 124.794 292.012 124.638C291.748 124.482 291.418 124.404 291.022 124.404C290.614 124.404 290.278 124.482 290.014 124.638C289.75 124.794 289.552 125.022 289.42 125.322C289.3 125.622 289.216 125.934 289.168 126.258C289.132 126.582 289.114 126.972 289.114 127.428C289.114 127.884 289.132 128.274 289.168 128.598C289.216 128.922 289.3 129.24 289.42 129.552C289.552 129.852 289.75 130.08 290.014 130.236C290.29 130.392 290.626 130.47 291.022 130.47C291.418 130.47 291.748 130.392 292.012 130.236C292.276 130.08 292.468 129.852 292.588 129.552C292.72 129.24 292.804 128.922 292.84 128.598ZM303.946 122.874L299.914 133.818C299.482 135.018 298.636 135.618 297.376 135.618H296.638V133.962H297.106C297.49 133.962 297.772 133.896 297.952 133.764C298.132 133.644 298.288 133.392 298.42 133.008L298.924 131.568L295.72 122.874H297.682L299.86 129.318L301.984 122.874H303.946ZM309.052 130.452C309.628 130.452 310.078 130.272 310.402 129.912C310.786 129.456 310.978 128.646 310.978 127.482C310.978 126.27 310.792 125.454 310.42 125.034C310.072 124.65 309.616 124.458 309.052 124.458C308.464 124.458 308.002 124.65 307.666 125.034C307.258 125.502 307.054 126.306 307.054 127.446C307.054 128.598 307.27 129.42 307.702 129.912C308.05 130.272 308.5 130.452 309.052 130.452ZM309.07 132.108C308.302 132.108 307.63 131.946 307.054 131.622C306.478 131.298 306.052 130.83 305.776 130.218C305.416 129.45 305.236 128.106 305.236 126.186C305.236 124.194 305.32 122.826 305.488 122.082C305.656 121.338 306.028 120.72 306.604 120.228C306.976 119.904 307.462 119.658 308.062 119.49C308.674 119.322 309.232 119.22 309.736 119.184C310.252 119.148 311.032 119.112 312.076 119.076V120.696C311.896 120.708 311.572 120.726 311.104 120.75C310.636 120.774 310.252 120.798 309.952 120.822C309.652 120.846 309.31 120.906 308.926 121.002C308.542 121.098 308.23 121.23 307.99 121.398C307.57 121.674 307.282 122.022 307.126 122.442C306.97 122.85 306.892 123.396 306.892 124.08C307.084 123.72 307.408 123.432 307.864 123.216C308.332 123 308.842 122.892 309.394 122.892C310.33 122.892 311.074 123.15 311.626 123.666C312.418 124.41 312.814 125.658 312.814 127.41C312.814 129.102 312.442 130.326 311.698 131.082C311.038 131.766 310.162 132.108 309.07 132.108ZM317.405 132H315.209V129.804H317.405V132ZM117.972 154H116.028V148.978C114.612 149.254 113.466 149.392 112.59 149.392C111.654 149.392 110.862 149.134 110.214 148.618C109.578 148.09 109.26 147.298 109.26 146.242V141.184H111.222V145.774C111.222 147.022 111.876 147.646 113.184 147.646C113.976 147.646 114.924 147.526 116.028 147.286V141.184H117.972V154ZM128.69 154H126.854V147.718L122.948 154H121.112V144.874H122.948V151.066L126.854 144.874H128.69V154ZM138.212 152.812C137.396 153.676 136.394 154.108 135.206 154.108C134.666 154.108 134.162 154.024 133.694 153.856C133.226 153.676 132.794 153.412 132.398 153.064C132.014 152.704 131.708 152.218 131.48 151.606C131.252 150.982 131.138 150.256 131.138 149.428C131.138 148.6 131.252 147.88 131.48 147.268C131.708 146.644 132.014 146.158 132.398 145.81C132.794 145.45 133.226 145.186 133.694 145.018C134.162 144.85 134.666 144.766 135.206 144.766C136.406 144.766 137.408 145.192 138.212 146.044L136.952 147.268C136.664 146.956 136.388 146.734 136.124 146.602C135.872 146.47 135.566 146.404 135.206 146.404C134.486 146.404 133.922 146.674 133.514 147.214C133.154 147.67 132.974 148.408 132.974 149.428C132.974 150.46 133.154 151.204 133.514 151.66C133.922 152.2 134.486 152.47 135.206 152.47C135.566 152.47 135.872 152.404 136.124 152.272C136.388 152.14 136.664 151.918 136.952 151.606L138.212 152.812ZM146.695 146.476H143.905V154H142.069V146.476H139.171V144.874H146.695V146.476ZM154.985 154H153.185V153.172C152.849 153.508 152.495 153.748 152.123 153.892C151.763 154.036 151.307 154.108 150.755 154.108C149.675 154.108 148.859 153.832 148.307 153.28C147.827 152.776 147.587 152.122 147.587 151.318C147.587 150.526 147.857 149.89 148.397 149.41C148.949 148.93 149.735 148.69 150.755 148.69H153.149V148.042C153.149 147.454 152.993 147.022 152.681 146.746C152.369 146.47 151.859 146.332 151.151 146.332C150.671 146.332 150.281 146.404 149.981 146.548C149.693 146.68 149.417 146.908 149.153 147.232L147.965 146.098C148.385 145.606 148.835 145.264 149.315 145.072C149.807 144.868 150.443 144.766 151.223 144.766C153.731 144.766 154.985 145.81 154.985 147.898V154ZM153.149 150.706V149.968H151.043C149.927 149.968 149.369 150.406 149.369 151.282C149.369 152.146 149.945 152.578 151.097 152.578C151.829 152.578 152.381 152.404 152.753 152.056C153.017 151.804 153.149 151.354 153.149 150.706ZM162.639 149.122V146.35H160.497C160.029 146.35 159.663 146.476 159.399 146.728C159.135 146.98 159.003 147.322 159.003 147.754C159.003 148.186 159.135 148.522 159.399 148.762C159.663 149.002 160.029 149.122 160.497 149.122H162.639ZM159.219 154H157.113L159.093 150.256C158.505 150.088 158.043 149.776 157.707 149.32C157.371 148.864 157.203 148.312 157.203 147.664C157.203 146.836 157.473 146.164 158.013 145.648C158.565 145.132 159.279 144.874 160.155 144.874H164.457V154H162.621V150.598H160.947L159.219 154ZM179.01 154H177.174V146.476H173.538V154H171.702V144.874H179.01V154ZM189.315 149.428C189.315 151.312 188.973 152.602 188.289 153.298C187.749 153.838 187.011 154.108 186.075 154.108C185.055 154.108 184.257 153.76 183.681 153.064V157.69H181.845V144.874H183.645V145.846C184.245 145.126 185.049 144.766 186.057 144.766C187.005 144.766 187.749 145.036 188.289 145.576C188.973 146.272 189.315 147.556 189.315 149.428ZM187.407 150.598C187.455 150.274 187.479 149.884 187.479 149.428C187.479 148.972 187.455 148.582 187.407 148.258C187.371 147.934 187.287 147.622 187.155 147.322C187.035 147.022 186.843 146.794 186.579 146.638C186.315 146.482 185.985 146.404 185.589 146.404C185.181 146.404 184.845 146.482 184.581 146.638C184.317 146.794 184.119 147.022 183.987 147.322C183.867 147.622 183.783 147.934 183.735 148.258C183.699 148.582 183.681 148.972 183.681 149.428C183.681 149.884 183.699 150.274 183.735 150.598C183.783 150.922 183.867 151.24 183.987 151.552C184.119 151.852 184.317 152.08 184.581 152.236C184.857 152.392 185.193 152.47 185.589 152.47C185.985 152.47 186.315 152.392 186.579 152.236C186.843 152.08 187.035 151.852 187.155 151.552C187.287 151.24 187.371 150.922 187.407 150.598ZM199.372 154H197.536V147.718L193.63 154H191.794V144.874H193.63V151.066L197.536 144.874H199.372V154ZM205.816 152.452C206.392 152.452 206.842 152.272 207.166 151.912C207.55 151.456 207.742 150.646 207.742 149.482C207.742 148.27 207.556 147.454 207.184 147.034C206.836 146.65 206.38 146.458 205.816 146.458C205.228 146.458 204.766 146.65 204.43 147.034C204.022 147.502 203.818 148.306 203.818 149.446C203.818 150.598 204.034 151.42 204.466 151.912C204.814 152.272 205.264 152.452 205.816 152.452ZM205.834 154.108C205.066 154.108 204.394 153.946 203.818 153.622C203.242 153.298 202.816 152.83 202.54 152.218C202.18 151.45 202 150.106 202 148.186C202 146.194 202.084 144.826 202.252 144.082C202.42 143.338 202.792 142.72 203.368 142.228C203.74 141.904 204.226 141.658 204.826 141.49C205.438 141.322 205.996 141.22 206.5 141.184C207.016 141.148 207.796 141.112 208.84 141.076V142.696C208.66 142.708 208.336 142.726 207.868 142.75C207.4 142.774 207.016 142.798 206.716 142.822C206.416 142.846 206.074 142.906 205.69 143.002C205.306 143.098 204.994 143.23 204.754 143.398C204.334 143.674 204.046 144.022 203.89 144.442C203.734 144.85 203.656 145.396 203.656 146.08C203.848 145.72 204.172 145.432 204.628 145.216C205.096 145 205.606 144.892 206.158 144.892C207.094 144.892 207.838 145.15 208.39 145.666C209.182 146.41 209.578 147.658 209.578 149.41C209.578 151.102 209.206 152.326 208.462 153.082C207.802 153.766 206.926 154.108 205.834 154.108ZM222.322 154H220.486V144.874H222.322V154ZM218.398 149.104C218.95 149.632 219.226 150.316 219.226 151.156C219.226 151.996 218.95 152.68 218.398 153.208C217.858 153.736 217.144 154 216.256 154H212.026V144.874H213.862V148.312H216.256C217.144 148.312 217.858 148.576 218.398 149.104ZM217.012 152.146C217.276 151.906 217.408 151.576 217.408 151.156C217.408 150.736 217.276 150.412 217.012 150.184C216.76 149.944 216.406 149.824 215.95 149.824H213.862V152.506H215.95C216.406 152.506 216.76 152.386 217.012 152.146ZM232.442 154H230.606V146.476H227.96V149.122C227.96 150.07 227.894 150.868 227.762 151.516C227.63 152.164 227.432 152.668 227.168 153.028C226.904 153.376 226.598 153.628 226.25 153.784C225.914 153.928 225.512 154 225.044 154H224.18V152.38H224.468C224.66 152.38 224.822 152.368 224.954 152.344C225.086 152.308 225.236 152.224 225.404 152.092C225.584 151.948 225.722 151.756 225.818 151.516C225.926 151.264 226.016 150.898 226.088 150.418C226.16 149.926 226.196 149.344 226.196 148.672V144.874H232.442V154ZM241.742 149.104C242.294 149.62 242.57 150.304 242.57 151.156C242.57 152.008 242.294 152.698 241.742 153.226C241.202 153.742 240.494 154 239.618 154H235.37V144.874H237.206V148.312H239.618C240.494 148.312 241.202 148.576 241.742 149.104ZM240.374 152.146C240.626 151.906 240.752 151.576 240.752 151.156C240.752 150.736 240.626 150.412 240.374 150.184C240.122 149.944 239.768 149.824 239.312 149.824H237.206V152.506H239.312C239.768 152.506 240.122 152.386 240.374 152.146ZM254.015 149.86H248.759V148.15H254.015V149.86ZM268.289 150.382C268.289 151.51 267.911 152.416 267.155 153.1C266.399 153.772 265.457 154.108 264.329 154.108C263.201 154.108 262.259 153.772 261.503 153.1C260.759 152.416 260.387 151.51 260.387 150.382C260.387 149.086 260.975 148.084 262.151 147.376C261.119 146.752 260.603 145.834 260.603 144.622C260.603 143.566 260.957 142.714 261.665 142.066C262.373 141.406 263.261 141.076 264.329 141.076C265.397 141.076 266.285 141.406 266.993 142.066C267.713 142.714 268.073 143.566 268.073 144.622C268.073 145.834 267.557 146.752 266.525 147.376C267.701 148.084 268.289 149.086 268.289 150.382ZM265.823 151.858C266.231 151.45 266.435 150.946 266.435 150.346C266.435 149.746 266.231 149.242 265.823 148.834C265.415 148.414 264.917 148.204 264.329 148.204C263.741 148.204 263.243 148.414 262.835 148.834C262.427 149.242 262.223 149.746 262.223 150.346C262.223 150.946 262.427 151.45 262.835 151.858C263.243 152.266 263.741 152.47 264.329 152.47C264.917 152.47 265.415 152.266 265.823 151.858ZM265.697 146.08C266.057 145.708 266.237 145.24 266.237 144.676C266.237 144.112 266.057 143.644 265.697 143.272C265.337 142.9 264.881 142.714 264.329 142.714C263.777 142.714 263.321 142.9 262.961 143.272C262.613 143.644 262.439 144.112 262.439 144.676C262.439 145.24 262.613 145.708 262.961 146.08C263.321 146.44 263.777 146.62 264.329 146.62C264.881 146.62 265.337 146.44 265.697 146.08ZM282.211 150.382C282.211 151.51 281.833 152.416 281.077 153.1C280.321 153.772 279.379 154.108 278.251 154.108C277.123 154.108 276.181 153.772 275.425 153.1C274.681 152.416 274.309 151.51 274.309 150.382C274.309 149.086 274.897 148.084 276.073 147.376C275.041 146.752 274.525 145.834 274.525 144.622C274.525 143.566 274.879 142.714 275.587 142.066C276.295 141.406 277.183 141.076 278.251 141.076C279.319 141.076 280.207 141.406 280.915 142.066C281.635 142.714 281.995 143.566 281.995 144.622C281.995 145.834 281.479 146.752 280.447 147.376C281.623 148.084 282.211 149.086 282.211 150.382ZM279.745 151.858C280.153 151.45 280.357 150.946 280.357 150.346C280.357 149.746 280.153 149.242 279.745 148.834C279.337 148.414 278.839 148.204 278.251 148.204C277.663 148.204 277.165 148.414 276.757 148.834C276.349 149.242 276.145 149.746 276.145 150.346C276.145 150.946 276.349 151.45 276.757 151.858C277.165 152.266 277.663 152.47 278.251 152.47C278.839 152.47 279.337 152.266 279.745 151.858ZM279.619 146.08C279.979 145.708 280.159 145.24 280.159 144.676C280.159 144.112 279.979 143.644 279.619 143.272C279.259 142.9 278.803 142.714 278.251 142.714C277.699 142.714 277.243 142.9 276.883 143.272C276.535 143.644 276.361 144.112 276.361 144.676C276.361 145.24 276.535 145.708 276.883 146.08C277.243 146.44 277.699 146.62 278.251 146.62C278.803 146.62 279.259 146.44 279.619 146.08ZM291.647 150.202C291.647 151.378 291.293 152.326 290.585 153.046C289.889 153.754 288.983 154.108 287.867 154.108C286.739 154.108 285.821 153.766 285.113 153.082C284.417 152.386 284.069 151.45 284.069 150.274C284.069 149.446 284.387 148.396 285.023 147.124L287.939 141.184H289.901L287.147 146.692C287.459 146.56 287.837 146.494 288.281 146.494C289.229 146.494 290.027 146.836 290.675 147.52C291.323 148.204 291.647 149.098 291.647 150.202ZM289.811 150.238C289.811 149.59 289.631 149.062 289.271 148.654C288.923 148.234 288.449 148.024 287.849 148.024C287.261 148.024 286.787 148.222 286.427 148.618C286.079 149.014 285.905 149.554 285.905 150.238C285.905 150.922 286.085 151.468 286.445 151.876C286.805 152.272 287.273 152.47 287.849 152.47C288.437 152.47 288.911 152.266 289.271 151.858C289.631 151.45 289.811 150.91 289.811 150.238ZM301.406 150.382C301.406 151.51 301.028 152.416 300.272 153.1C299.516 153.772 298.574 154.108 297.446 154.108C296.318 154.108 295.376 153.772 294.62 153.1C293.876 152.416 293.504 151.51 293.504 150.382C293.504 149.086 294.092 148.084 295.268 147.376C294.236 146.752 293.72 145.834 293.72 144.622C293.72 143.566 294.074 142.714 294.782 142.066C295.49 141.406 296.378 141.076 297.446 141.076C298.514 141.076 299.402 141.406 300.11 142.066C300.83 142.714 301.19 143.566 301.19 144.622C301.19 145.834 300.674 146.752 299.642 147.376C300.818 148.084 301.406 149.086 301.406 150.382ZM298.94 151.858C299.348 151.45 299.552 150.946 299.552 150.346C299.552 149.746 299.348 149.242 298.94 148.834C298.532 148.414 298.034 148.204 297.446 148.204C296.858 148.204 296.36 148.414 295.952 148.834C295.544 149.242 295.34 149.746 295.34 150.346C295.34 150.946 295.544 151.45 295.952 151.858C296.36 152.266 296.858 152.47 297.446 152.47C298.034 152.47 298.532 152.266 298.94 151.858ZM298.814 146.08C299.174 145.708 299.354 145.24 299.354 144.676C299.354 144.112 299.174 143.644 298.814 143.272C298.454 142.9 297.998 142.714 297.446 142.714C296.894 142.714 296.438 142.9 296.078 143.272C295.73 143.644 295.556 144.112 295.556 144.676C295.556 145.24 295.73 145.708 296.078 146.08C296.438 146.44 296.894 146.62 297.446 146.62C297.998 146.62 298.454 146.44 298.814 146.08ZM315.166 154H307.714V152.362L312.646 146.368C313.102 145.816 313.33 145.246 313.33 144.658C313.33 144.07 313.162 143.602 312.826 143.254C312.502 142.894 312.046 142.714 311.458 142.714C310.918 142.714 310.468 142.876 310.108 143.2C309.748 143.524 309.568 144.022 309.568 144.694H307.732C307.732 143.614 308.08 142.744 308.776 142.084C309.472 141.412 310.366 141.076 311.458 141.076C312.562 141.076 313.456 141.406 314.14 142.066C314.824 142.714 315.166 143.584 315.166 144.676C315.166 145.204 315.07 145.666 314.878 146.062C314.698 146.446 314.392 146.908 313.96 147.448L309.946 152.362H315.166V154ZM324.926 150.382C324.926 151.51 324.548 152.416 323.792 153.1C323.036 153.772 322.094 154.108 320.966 154.108C319.838 154.108 318.896 153.772 318.14 153.1C317.396 152.416 317.024 151.51 317.024 150.382C317.024 149.086 317.612 148.084 318.788 147.376C317.756 146.752 317.24 145.834 317.24 144.622C317.24 143.566 317.594 142.714 318.302 142.066C319.01 141.406 319.898 141.076 320.966 141.076C322.034 141.076 322.922 141.406 323.63 142.066C324.35 142.714 324.71 143.566 324.71 144.622C324.71 145.834 324.194 146.752 323.162 147.376C324.338 148.084 324.926 149.086 324.926 150.382ZM322.46 151.858C322.868 151.45 323.072 150.946 323.072 150.346C323.072 149.746 322.868 149.242 322.46 148.834C322.052 148.414 321.554 148.204 320.966 148.204C320.378 148.204 319.88 148.414 319.472 148.834C319.064 149.242 318.86 149.746 318.86 150.346C318.86 150.946 319.064 151.45 319.472 151.858C319.88 152.266 320.378 152.47 320.966 152.47C321.554 152.47 322.052 152.266 322.46 151.858ZM322.334 146.08C322.694 145.708 322.874 145.24 322.874 144.676C322.874 144.112 322.694 143.644 322.334 143.272C321.974 142.9 321.518 142.714 320.966 142.714C320.414 142.714 319.958 142.9 319.598 143.272C319.25 143.644 319.076 144.112 319.076 144.676C319.076 145.24 319.25 145.708 319.598 146.08C319.958 146.44 320.414 146.62 320.966 146.62C321.518 146.62 321.974 146.44 322.334 146.08ZM334.397 149.716C334.397 150.496 334.325 151.15 334.181 151.678C334.037 152.206 333.749 152.686 333.317 153.118C332.645 153.79 331.745 154.126 330.617 154.126C329.453 154.126 328.541 153.796 327.881 153.136C327.317 152.572 326.993 151.756 326.909 150.688H328.745C328.901 151.876 329.525 152.47 330.617 152.47C331.169 152.47 331.613 152.302 331.949 151.966C332.357 151.558 332.561 150.808 332.561 149.716C332.561 147.928 331.937 147.034 330.689 147.034C329.717 147.034 329.111 147.418 328.871 148.186H327.197V141.184H334.109V142.822H328.853V146.206C329.321 145.714 330.029 145.468 330.977 145.468C331.961 145.468 332.729 145.744 333.281 146.296C334.025 147.04 334.397 148.18 334.397 149.716ZM348.625 149.428C348.625 151.312 348.283 152.602 347.599 153.298C347.059 153.838 346.321 154.108 345.385 154.108C344.365 154.108 343.567 153.76 342.991 153.064V157.69H341.155V144.874H342.955V145.846C343.555 145.126 344.359 144.766 345.367 144.766C346.315 144.766 347.059 145.036 347.599 145.576C348.283 146.272 348.625 147.556 348.625 149.428ZM346.717 150.598C346.765 150.274 346.789 149.884 346.789 149.428C346.789 148.972 346.765 148.582 346.717 148.258C346.681 147.934 346.597 147.622 346.465 147.322C346.345 147.022 346.153 146.794 345.889 146.638C345.625 146.482 345.295 146.404 344.899 146.404C344.491 146.404 344.155 146.482 343.891 146.638C343.627 146.794 343.429 147.022 343.297 147.322C343.177 147.622 343.093 147.934 343.045 148.258C343.009 148.582 342.991 148.972 342.991 149.428C342.991 149.884 343.009 150.274 343.045 150.598C343.093 150.922 343.177 151.24 343.297 151.552C343.429 151.852 343.627 152.08 343.891 152.236C344.167 152.392 344.503 152.47 344.899 152.47C345.295 152.47 345.625 152.392 345.889 152.236C346.153 152.08 346.345 151.852 346.465 151.552C346.597 151.24 346.681 150.922 346.717 150.598ZM357.823 144.874L353.791 155.818C353.359 157.018 352.513 157.618 351.253 157.618H350.515V155.962H350.983C351.367 155.962 351.649 155.896 351.829 155.764C352.009 155.644 352.165 155.392 352.297 155.008L352.801 153.568L349.597 144.874H351.559L353.737 151.318L355.861 144.874H357.823ZM362.929 152.452C363.505 152.452 363.955 152.272 364.279 151.912C364.663 151.456 364.855 150.646 364.855 149.482C364.855 148.27 364.669 147.454 364.297 147.034C363.949 146.65 363.493 146.458 362.929 146.458C362.341 146.458 361.879 146.65 361.543 147.034C361.135 147.502 360.931 148.306 360.931 149.446C360.931 150.598 361.147 151.42 361.579 151.912C361.927 152.272 362.377 152.452 362.929 152.452ZM362.947 154.108C362.179 154.108 361.507 153.946 360.931 153.622C360.355 153.298 359.929 152.83 359.653 152.218C359.293 151.45 359.113 150.106 359.113 148.186C359.113 146.194 359.197 144.826 359.365 144.082C359.533 143.338 359.905 142.72 360.481 142.228C360.853 141.904 361.339 141.658 361.939 141.49C362.551 141.322 363.109 141.22 363.613 141.184C364.129 141.148 364.909 141.112 365.953 141.076V142.696C365.773 142.708 365.449 142.726 364.981 142.75C364.513 142.774 364.129 142.798 363.829 142.822C363.529 142.846 363.187 142.906 362.803 143.002C362.419 143.098 362.107 143.23 361.867 143.398C361.447 143.674 361.159 144.022 361.003 144.442C360.847 144.85 360.769 145.396 360.769 146.08C360.961 145.72 361.285 145.432 361.741 145.216C362.209 145 362.719 144.892 363.271 144.892C364.207 144.892 364.951 145.15 365.503 145.666C366.295 146.41 366.691 147.658 366.691 149.41C366.691 151.102 366.319 152.326 365.575 153.082C364.915 153.766 364.039 154.108 362.947 154.108ZM371.282 154H369.086V151.804H371.282V154Z" fill="white"/>
<path d="M117.714 34.8125H115.931V41H112.16V25.3594H115.931V31.4072H117.381L120.389 25.3594H124.954L120.657 32.5781L125.491 41H121.033L117.714 34.8125ZM139.327 33.502C139.327 35.0273 139.044 36.3773 138.479 37.5518C137.913 38.7262 137.107 39.6322 136.062 40.2695C135.023 40.8997 133.838 41.2148 132.506 41.2148C131.174 41.2148 129.992 40.9105 128.961 40.3018C127.93 39.6859 127.124 38.8086 126.544 37.6699C125.971 36.5312 125.67 35.2243 125.642 33.749V32.8682C125.642 31.3356 125.921 29.9857 126.479 28.8184C127.045 27.6439 127.851 26.738 128.896 26.1006C129.949 25.4632 131.145 25.1445 132.484 25.1445C133.809 25.1445 134.991 25.4596 136.029 26.0898C137.068 26.7201 137.873 27.6188 138.446 28.7861C139.026 29.9463 139.32 31.2783 139.327 32.7822V33.502ZM135.492 32.8467C135.492 31.2926 135.231 30.1146 134.708 29.3125C134.192 28.5033 133.451 28.0986 132.484 28.0986C130.594 28.0986 129.595 29.5166 129.487 32.3525L129.477 33.502C129.477 35.0345 129.731 36.2126 130.239 37.0361C130.748 37.8597 131.503 38.2715 132.506 38.2715C133.458 38.2715 134.192 37.8669 134.708 37.0576C135.224 36.2484 135.485 35.0846 135.492 33.5664V32.8467ZM146.224 25.3594L149.715 36.2412L153.195 25.3594H158.158V41H154.377V37.3477L154.742 29.8711L150.961 41H148.469L144.677 29.8604L145.042 37.3477V41H141.271V25.3594H146.224ZM169.738 25.3594H173.509V41H169.738V31.1387L164.12 41H160.35V25.3594H164.12V35.2314L169.738 25.3594ZM188.473 35.7041C188.423 36.7926 188.129 37.7559 187.592 38.5938C187.055 39.4245 186.299 40.069 185.325 40.5273C184.358 40.9857 183.252 41.2148 182.006 41.2148C179.951 41.2148 178.332 40.5452 177.15 39.2061C175.969 37.8669 175.378 35.9762 175.378 33.5342V32.7607C175.378 31.2282 175.643 29.889 176.173 28.7432C176.71 27.5902 177.48 26.7021 178.482 26.0791C179.485 25.4489 180.645 25.1338 181.963 25.1338C183.861 25.1338 185.386 25.6351 186.539 26.6377C187.692 27.6331 188.347 29.0081 188.505 30.7627H184.745C184.716 29.8102 184.477 29.1263 184.025 28.7109C183.574 28.2956 182.887 28.0879 181.963 28.0879C181.025 28.0879 180.337 28.4388 179.9 29.1406C179.464 29.8424 179.234 30.9632 179.213 32.5029V33.6094C179.213 35.278 179.421 36.4704 179.836 37.1865C180.258 37.9027 180.982 38.2607 182.006 38.2607C182.872 38.2607 183.535 38.0566 183.993 37.6484C184.451 37.2402 184.695 36.5921 184.724 35.7041H188.473ZM202.91 35.7041C202.86 36.7926 202.566 37.7559 202.029 38.5938C201.492 39.4245 200.737 40.069 199.763 40.5273C198.796 40.9857 197.689 41.2148 196.443 41.2148C194.388 41.2148 192.77 40.5452 191.588 39.2061C190.406 37.8669 189.815 35.9762 189.815 33.5342V32.7607C189.815 31.2282 190.08 29.889 190.61 28.7432C191.147 27.5902 191.917 26.7021 192.92 26.0791C193.923 25.4489 195.083 25.1338 196.4 25.1338C198.298 25.1338 199.824 25.6351 200.977 26.6377C202.13 27.6331 202.785 29.0081 202.942 30.7627H199.183C199.154 29.8102 198.914 29.1263 198.463 28.7109C198.012 28.2956 197.324 28.0879 196.4 28.0879C195.462 28.0879 194.775 28.4388 194.338 29.1406C193.901 29.8424 193.672 30.9632 193.65 32.5029V33.6094C193.65 35.278 193.858 36.4704 194.273 37.1865C194.696 37.9027 195.419 38.2607 196.443 38.2607C197.31 38.2607 197.972 38.0566 198.431 37.6484C198.889 37.2402 199.132 36.5921 199.161 35.7041H202.91ZM213.867 25.3594H217.638V41H213.867V31.1387L208.249 41H204.479V25.3594H208.249V35.2314L213.867 25.3594ZM233.192 33.502C233.192 35.0273 232.91 36.3773 232.344 37.5518C231.778 38.7262 230.972 39.6322 229.927 40.2695C228.888 40.8997 227.703 41.2148 226.371 41.2148C225.039 41.2148 223.857 40.9105 222.826 40.3018C221.795 39.6859 220.989 38.8086 220.409 37.6699C219.836 36.5312 219.535 35.2243 219.507 33.749V32.8682C219.507 31.3356 219.786 29.9857 220.345 28.8184C220.91 27.6439 221.716 26.738 222.762 26.1006C223.814 25.4632 225.01 25.1445 226.35 25.1445C227.674 25.1445 228.856 25.4596 229.895 26.0898C230.933 26.7201 231.739 27.6188 232.312 28.7861C232.892 29.9463 233.185 31.2783 233.192 32.7822V33.502ZM229.357 32.8467C229.357 31.2926 229.096 30.1146 228.573 29.3125C228.058 28.5033 227.316 28.0986 226.35 28.0986C224.459 28.0986 223.46 29.5166 223.353 32.3525L223.342 33.502C223.342 35.0345 223.596 36.2126 224.104 37.0361C224.613 37.8597 225.368 38.2715 226.371 38.2715C227.324 38.2715 228.058 37.8669 228.573 37.0576C229.089 36.2484 229.35 35.0846 229.357 33.5664V32.8467ZM248.21 41H244.461V34.4688H238.907V41H235.137V25.3594H238.907V31.5684H244.461V25.3594H248.21V41ZM263.679 41H259.93V34.4688H254.376V41H250.605V25.3594H254.376V31.5684H259.93V25.3594H263.679V41ZM275.151 38.0781H269.984L269.082 41H265.054L270.79 25.3594H274.335L280.114 41H276.064L275.151 38.0781ZM270.887 35.167H274.249L272.562 29.7422L270.887 35.167ZM287.999 41V35.5107H285.829L283.187 41H279.094L282.306 34.2324C280.909 33.3229 280.211 31.9873 280.211 30.2256C280.211 28.6787 280.719 27.4827 281.736 26.6377C282.753 25.7855 284.218 25.3594 286.13 25.3594H291.78V41H287.999ZM283.971 30.5586C283.971 31.3535 284.132 31.93 284.454 32.2881C284.776 32.6462 285.317 32.8252 286.076 32.8252H287.999V28.2705H286.098C285.346 28.2705 284.801 28.4674 284.465 28.8613C284.135 29.248 283.971 29.8138 283.971 30.5586ZM125.319 67H121.549V54.2705H115.931V67H112.16V51.3594H125.319V67ZM131.442 61.6934V67H127.672V51.3594H133.913C135.109 51.3594 136.165 51.5814 137.082 52.0254C138.006 52.4622 138.718 53.0889 139.22 53.9053C139.728 54.7145 139.982 55.6348 139.982 56.666C139.982 58.1914 139.435 59.4124 138.339 60.3291C137.25 61.2386 135.754 61.6934 133.849 61.6934H131.442ZM131.442 58.7822H133.913C134.644 58.7822 135.199 58.5996 135.578 58.2344C135.965 57.8691 136.158 57.3535 136.158 56.6875C136.158 55.957 135.961 55.3734 135.567 54.9365C135.174 54.4997 134.636 54.2777 133.956 54.2705H131.442V58.7822ZM155.247 59.502C155.247 61.0273 154.964 62.3773 154.398 63.5518C153.833 64.7262 153.027 65.6322 151.981 66.2695C150.943 66.8997 149.758 67.2148 148.426 67.2148C147.094 67.2148 145.912 66.9105 144.881 66.3018C143.85 65.6859 143.044 64.8086 142.464 63.6699C141.891 62.5312 141.59 61.2243 141.562 59.749V58.8682C141.562 57.3356 141.841 55.9857 142.399 54.8184C142.965 53.6439 143.771 52.738 144.816 52.1006C145.869 51.4632 147.065 51.1445 148.404 51.1445C149.729 51.1445 150.911 51.4596 151.949 52.0898C152.988 52.7201 153.793 53.6188 154.366 54.7861C154.946 55.9463 155.24 57.2783 155.247 58.7822V59.502ZM151.412 58.8467C151.412 57.2926 151.151 56.1146 150.628 55.3125C150.112 54.5033 149.371 54.0986 148.404 54.0986C146.514 54.0986 145.515 55.5166 145.407 58.3525L145.396 59.502C145.396 61.0345 145.651 62.2126 146.159 63.0361C146.668 63.8597 147.423 64.2715 148.426 64.2715C149.378 64.2715 150.112 63.8669 150.628 63.0576C151.144 62.2484 151.405 61.0846 151.412 59.5664V58.8467ZM171.457 70.8457H168.073V67H159.555V70.835H156.063L155.795 64.0996H156.901C157.481 63.7129 157.947 63.0505 158.298 62.1123C158.656 61.167 158.91 59.8135 159.061 58.0518L159.544 51.3594H170.189V64.0996H171.854L171.457 70.8457ZM161.166 64.0996H166.43V54.2705H163.1L162.81 58.1807C162.595 60.7158 162.047 62.6888 161.166 64.0996ZM182.21 64.0781H177.043L176.141 67H172.112L177.849 51.3594H181.394L187.173 67H183.123L182.21 64.0781ZM177.945 61.167H181.308L179.621 55.7422L177.945 61.167ZM202.556 60.8877H200.644V67H196.895V60.8877H194.95L191.942 67H187.259L191.975 58.46L187.398 51.3594H192.157L195.358 57.4932H196.895V51.3594H200.644V57.4932H202.169L205.23 51.3594H209.979L205.521 58.4385L210.14 67H205.435L202.556 60.8877ZM220.151 64.0781H214.984L214.082 67H210.054L215.79 51.3594H219.335L225.114 67H221.064L220.151 64.0781ZM215.887 61.167H219.249L217.562 55.7422L215.887 61.167Z" fill="white"/>
<path d="M57.9844 122V124H59.9844V122H57.9844ZM38.1797 122H36.1797V124H38.1797V122ZM38.1797 58.9531H40.1797V56.2852L37.6188 57.0334L38.1797 58.9531ZM18.7266 64.6367H16.7266V67.3047L19.2875 66.5565L18.7266 64.6367ZM18.7266 49.6367L18.0728 47.7466L16.7266 48.2122V49.6367H18.7266ZM56.168 36.6875V34.6875H55.8319L55.5143 34.7974L56.168 36.6875ZM57.9844 36.6875H59.9844V34.6875H57.9844V36.6875ZM57.9844 120H38.1797V124H57.9844V120ZM40.1797 122V58.9531H36.1797V122H40.1797ZM37.6188 57.0334L18.1657 62.717L19.2875 66.5565L38.7406 60.8729L37.6188 57.0334ZM20.7266 64.6367V49.6367H16.7266V64.6367H20.7266ZM19.3803 51.5269L56.8217 38.5776L55.5143 34.7974L18.0728 47.7466L19.3803 51.5269ZM56.168 38.6875H57.9844V34.6875H56.168V38.6875ZM55.9844 36.6875V122H59.9844V36.6875H55.9844Z" fill="white"/>
</g>
<g clip-path="url(#clip1)">
<g filter="url(#filter2_d)">
<rect x="1" y="1" width="411" height="183" stroke="#FCAF17" stroke-width="2" shape-rendering="crispEdges"/>
</g>
<g filter="url(#filter3_d)">
<rect x="1" y="1" width="86" height="183" stroke="#FCAF17" stroke-width="2" shape-rendering="crispEdges"/>
</g>
<path d="M112.968 98.93V101.792C112.968 104.516 112.548 106.67 111.708 108.254H116.532V98.93H112.968ZM111.096 97.184H118.476V108.254H119.988V112.88H118.08V110H110.304V112.88H108.414V108.254H109.53C110.574 106.634 111.096 104.204 111.096 100.964V97.184ZM129.156 105.428C129.156 106.268 129.078 106.97 128.922 107.534C128.766 108.098 128.484 108.596 128.076 109.028C127.38 109.748 126.468 110.108 125.34 110.108C124.224 110.108 123.318 109.748 122.622 109.028C122.214 108.596 121.932 108.098 121.776 107.534C121.62 106.97 121.542 106.268 121.542 105.428C121.542 104.6 121.62 103.904 121.776 103.34C121.932 102.764 122.214 102.266 122.622 101.846C123.318 101.126 124.224 100.766 125.34 100.766C126.468 100.766 127.38 101.126 128.076 101.846C128.484 102.266 128.766 102.764 128.922 103.34C129.078 103.904 129.156 104.6 129.156 105.428ZM126.69 107.93C127.11 107.51 127.32 106.676 127.32 105.428C127.32 104.18 127.11 103.346 126.69 102.926C126.342 102.578 125.892 102.404 125.34 102.404C124.8 102.404 124.356 102.578 124.008 102.926C123.588 103.346 123.378 104.18 123.378 105.428C123.378 106.676 123.588 107.51 124.008 107.93C124.368 108.29 124.812 108.47 125.34 108.47C125.88 108.47 126.33 108.29 126.69 107.93ZM138.364 110H136.528V102.476H133.882V105.122C133.882 106.07 133.816 106.868 133.684 107.516C133.552 108.164 133.354 108.668 133.09 109.028C132.826 109.376 132.52 109.628 132.172 109.784C131.836 109.928 131.434 110 130.966 110H130.102V108.38H130.39C130.582 108.38 130.744 108.368 130.876 108.344C131.008 108.308 131.158 108.224 131.326 108.092C131.506 107.948 131.644 107.756 131.74 107.516C131.848 107.264 131.938 106.898 132.01 106.418C132.082 105.926 132.118 105.344 132.118 104.672V100.874H138.364V110ZM146.116 105.122V102.35H143.974C143.506 102.35 143.14 102.476 142.876 102.728C142.612 102.98 142.48 103.322 142.48 103.754C142.48 104.186 142.612 104.522 142.876 104.762C143.14 105.002 143.506 105.122 143.974 105.122H146.116ZM142.696 110H140.59L142.57 106.256C141.982 106.088 141.52 105.776 141.184 105.32C140.848 104.864 140.68 104.312 140.68 103.664C140.68 102.836 140.95 102.164 141.49 101.648C142.042 101.132 142.756 100.874 143.632 100.874H147.934V110H146.098V106.598H144.424L142.696 110ZM160.183 105.86H154.927V104.15H160.183V105.86ZM174.331 105.716C174.331 106.496 174.259 107.15 174.115 107.678C173.971 108.206 173.683 108.686 173.251 109.118C172.579 109.79 171.679 110.126 170.551 110.126C169.387 110.126 168.475 109.796 167.815 109.136C167.251 108.572 166.927 107.756 166.843 106.688H168.679C168.835 107.876 169.459 108.47 170.551 108.47C171.103 108.47 171.547 108.302 171.883 107.966C172.291 107.558 172.495 106.808 172.495 105.716C172.495 103.928 171.871 103.034 170.623 103.034C169.651 103.034 169.045 103.418 168.805 104.186H167.131V97.184H174.043V98.822H168.787V102.206C169.255 101.714 169.963 101.468 170.911 101.468C171.895 101.468 172.663 101.744 173.215 102.296C173.959 103.04 174.331 104.18 174.331 105.716ZM183.803 106.436C183.803 107.552 183.449 108.446 182.741 109.118C182.033 109.778 181.151 110.108 180.095 110.108C179.051 110.108 178.175 109.778 177.467 109.118C176.759 108.446 176.405 107.552 176.405 106.436V100.748C176.405 99.632 176.759 98.744 177.467 98.084C178.175 97.412 179.051 97.076 180.095 97.076C181.151 97.076 182.033 97.412 182.741 98.084C183.449 98.744 183.803 99.632 183.803 100.748V106.436ZM181.967 106.382V100.802C181.967 100.178 181.799 99.674 181.463 99.29C181.127 98.906 180.671 98.714 180.095 98.714C179.531 98.714 179.081 98.906 178.745 99.29C178.409 99.674 178.241 100.178 178.241 100.802V106.382C178.241 107.006 178.409 107.51 178.745 107.894C179.081 108.278 179.531 108.47 180.095 108.47C180.671 108.47 181.127 108.278 181.463 107.894C181.799 107.51 181.967 107.006 181.967 106.382ZM199.016 107.66C199.016 108.416 198.776 109.016 198.296 109.46C197.816 109.904 197.216 110.126 196.496 110.126C195.776 110.126 195.176 109.904 194.696 109.46C194.216 109.016 193.976 108.416 193.976 107.66V105.842C193.976 105.086 194.216 104.486 194.696 104.042C195.176 103.598 195.776 103.376 196.496 103.376C197.216 103.376 197.816 103.598 198.296 104.042C198.776 104.486 199.016 105.086 199.016 105.842V107.66ZM190.988 101.342C190.988 102.098 190.748 102.698 190.268 103.142C189.788 103.574 189.188 103.79 188.468 103.79C187.748 103.79 187.148 103.574 186.668 103.142C186.188 102.698 185.948 102.098 185.948 101.342V99.524C185.948 98.768 186.188 98.168 186.668 97.724C187.148 97.28 187.748 97.058 188.468 97.058C189.188 97.058 189.788 97.28 190.268 97.724C190.748 98.168 190.988 98.768 190.988 99.524V101.342ZM196.226 97.184L190.196 110H188.72L194.768 97.184H196.226ZM197.63 107.606V105.896C197.63 105.032 197.252 104.6 196.496 104.6C195.74 104.6 195.362 105.032 195.362 105.896V107.606C195.362 108.47 195.74 108.902 196.496 108.902C197.252 108.902 197.63 108.47 197.63 107.606ZM189.602 101.288V99.578C189.602 98.714 189.224 98.282 188.468 98.282C187.712 98.282 187.334 98.714 187.334 99.578V101.288C187.334 102.14 187.712 102.566 188.468 102.566C189.224 102.566 189.602 102.14 189.602 101.288ZM118.728 128.4C118.728 129.504 118.38 130.38 117.684 131.028C117 131.676 116.058 132 114.858 132H109.674V119.184H114.66C115.824 119.184 116.76 119.502 117.468 120.138C118.176 120.762 118.53 121.596 118.53 122.64C118.53 123.936 117.954 124.866 116.802 125.43C118.086 126.03 118.728 127.02 118.728 128.4ZM116.028 124.116C116.4 123.792 116.586 123.342 116.586 122.766C116.586 122.19 116.4 121.74 116.028 121.416C115.656 121.092 115.146 120.93 114.498 120.93H111.618V124.602H114.498C115.146 124.602 115.656 124.44 116.028 124.116ZM116.19 129.732C116.574 129.372 116.766 128.892 116.766 128.292C116.766 127.692 116.574 127.218 116.19 126.87C115.818 126.522 115.308 126.348 114.66 126.348H111.618V130.254H114.66C115.308 130.254 115.818 130.08 116.19 129.732ZM131.69 132H129.854V122.874H131.69V132ZM127.766 127.104C128.318 127.632 128.594 128.316 128.594 129.156C128.594 129.996 128.318 130.68 127.766 131.208C127.226 131.736 126.512 132 125.624 132H121.394V122.874H123.23V126.312H125.624C126.512 126.312 127.226 126.576 127.766 127.104ZM126.38 130.146C126.644 129.906 126.776 129.576 126.776 129.156C126.776 128.736 126.644 128.412 126.38 128.184C126.128 127.944 125.774 127.824 125.318 127.824H123.23V130.506H125.318C125.774 130.506 126.128 130.386 126.38 130.146ZM142.205 127.428C142.205 129.312 141.863 130.602 141.179 131.298C140.639 131.838 139.901 132.108 138.965 132.108C137.945 132.108 137.147 131.76 136.571 131.064V135.69H134.735V122.874H136.535V123.846C137.135 123.126 137.939 122.766 138.947 122.766C139.895 122.766 140.639 123.036 141.179 123.576C141.863 124.272 142.205 125.556 142.205 127.428ZM140.297 128.598C140.345 128.274 140.369 127.884 140.369 127.428C140.369 126.972 140.345 126.582 140.297 126.258C140.261 125.934 140.177 125.622 140.045 125.322C139.925 125.022 139.733 124.794 139.469 124.638C139.205 124.482 138.875 124.404 138.479 124.404C138.071 124.404 137.735 124.482 137.471 124.638C137.207 124.794 137.009 125.022 136.877 125.322C136.757 125.622 136.673 125.934 136.625 126.258C136.589 126.582 136.571 126.972 136.571 127.428C136.571 127.884 136.589 128.274 136.625 128.598C136.673 128.922 136.757 129.24 136.877 129.552C137.009 129.852 137.207 130.08 137.471 130.236C137.747 130.392 138.083 130.47 138.479 130.47C138.875 130.47 139.205 130.392 139.469 130.236C139.733 130.08 139.925 129.852 140.045 129.552C140.177 129.24 140.261 128.922 140.297 128.598ZM151.403 122.874L147.371 133.818C146.939 135.018 146.093 135.618 144.833 135.618H144.095V133.962H144.563C144.947 133.962 145.229 133.896 145.409 133.764C145.589 133.644 145.745 133.392 145.877 133.008L146.381 131.568L143.177 122.874H145.139L147.317 129.318L149.441 122.874H151.403ZM159.626 132H157.79V128.634C156.83 128.826 155.96 128.922 155.18 128.922C154.4 128.922 153.77 128.706 153.29 128.274C152.822 127.83 152.588 127.2 152.588 126.384V122.874H154.424V125.934C154.424 126.834 154.868 127.284 155.756 127.284C156.308 127.284 156.986 127.212 157.79 127.068V122.874H159.626V132ZM164.434 132H162.58V122.874H164.434V132ZM170.392 132H168.142L164.452 127.248L167.926 122.874H170.122L166.486 127.158L170.392 132ZM178.381 132H176.581V131.172C176.245 131.508 175.891 131.748 175.519 131.892C175.159 132.036 174.703 132.108 174.151 132.108C173.071 132.108 172.255 131.832 171.703 131.28C171.223 130.776 170.983 130.122 170.983 129.318C170.983 128.526 171.253 127.89 171.793 127.41C172.345 126.93 173.131 126.69 174.151 126.69H176.545V126.042C176.545 125.454 176.389 125.022 176.077 124.746C175.765 124.47 175.255 124.332 174.547 124.332C174.067 124.332 173.677 124.404 173.377 124.548C173.089 124.68 172.813 124.908 172.549 125.232L171.361 124.098C171.781 123.606 172.231 123.264 172.711 123.072C173.203 122.868 173.839 122.766 174.619 122.766C177.127 122.766 178.381 123.81 178.381 125.898V132ZM176.545 128.706V127.968H174.439C173.323 127.968 172.765 128.406 172.765 129.282C172.765 130.146 173.341 130.578 174.493 130.578C175.225 130.578 175.777 130.404 176.149 130.056C176.413 129.804 176.545 129.354 176.545 128.706ZM190.54 127.86H185.284V126.15H190.54V127.86ZM205.03 130.074H203.662V132H201.88V130.074H196.696V128.364L201.214 119.184H203.194L198.694 128.364H201.88V125.376H203.662V128.364H205.03V130.074ZM214.25 132H206.798V130.362L211.73 124.368C212.186 123.816 212.414 123.246 212.414 122.658C212.414 122.07 212.246 121.602 211.91 121.254C211.586 120.894 211.13 120.714 210.542 120.714C210.002 120.714 209.552 120.876 209.192 121.2C208.832 121.524 208.652 122.022 208.652 122.694H206.816C206.816 121.614 207.164 120.744 207.86 120.084C208.556 119.412 209.45 119.076 210.542 119.076C211.646 119.076 212.54 119.406 213.224 120.066C213.908 120.714 214.25 121.584 214.25 122.676C214.25 123.204 214.154 123.666 213.962 124.062C213.782 124.446 213.476 124.908 213.044 125.448L209.03 130.362H214.25V132ZM228.334 128.382C228.334 129.51 227.956 130.416 227.2 131.1C226.444 131.772 225.502 132.108 224.374 132.108C223.246 132.108 222.304 131.772 221.548 131.1C220.804 130.416 220.432 129.51 220.432 128.382C220.432 127.086 221.02 126.084 222.196 125.376C221.164 124.752 220.648 123.834 220.648 122.622C220.648 121.566 221.002 120.714 221.71 120.066C222.418 119.406 223.306 119.076 224.374 119.076C225.442 119.076 226.33 119.406 227.038 120.066C227.758 120.714 228.118 121.566 228.118 122.622C228.118 123.834 227.602 124.752 226.57 125.376C227.746 126.084 228.334 127.086 228.334 128.382ZM225.868 129.858C226.276 129.45 226.48 128.946 226.48 128.346C226.48 127.746 226.276 127.242 225.868 126.834C225.46 126.414 224.962 126.204 224.374 126.204C223.786 126.204 223.288 126.414 222.88 126.834C222.472 127.242 222.268 127.746 222.268 128.346C222.268 128.946 222.472 129.45 222.88 129.858C223.288 130.266 223.786 130.47 224.374 130.47C224.962 130.47 225.46 130.266 225.868 129.858ZM225.742 124.08C226.102 123.708 226.282 123.24 226.282 122.676C226.282 122.112 226.102 121.644 225.742 121.272C225.382 120.9 224.926 120.714 224.374 120.714C223.822 120.714 223.366 120.9 223.006 121.272C222.658 121.644 222.484 122.112 222.484 122.676C222.484 123.24 222.658 123.708 223.006 124.08C223.366 124.44 223.822 124.62 224.374 124.62C224.926 124.62 225.382 124.44 225.742 124.08ZM238.148 130.074H236.78V132H234.998V130.074H229.814V128.364L234.332 119.184H236.312L231.812 128.364H234.998V125.376H236.78V128.364H238.148V130.074ZM247.547 120.822L243.263 132H241.283L245.585 120.822H241.679V122.838H239.915V119.184H247.547V120.822ZM261.325 127.716C261.325 128.496 261.253 129.15 261.109 129.678C260.965 130.206 260.677 130.686 260.245 131.118C259.573 131.79 258.673 132.126 257.545 132.126C256.381 132.126 255.469 131.796 254.809 131.136C254.245 130.572 253.921 129.756 253.837 128.688H255.673C255.829 129.876 256.453 130.47 257.545 130.47C258.097 130.47 258.541 130.302 258.877 129.966C259.285 129.558 259.489 128.808 259.489 127.716C259.489 125.928 258.865 125.034 257.617 125.034C256.645 125.034 256.039 125.418 255.799 126.186H254.125V119.184H261.037V120.822H255.781V124.206C256.249 123.714 256.957 123.468 257.905 123.468C258.889 123.468 259.657 123.744 260.209 124.296C260.953 125.04 261.325 126.18 261.325 127.716ZM270.797 128.436C270.797 129.552 270.443 130.446 269.735 131.118C269.027 131.778 268.145 132.108 267.089 132.108C266.045 132.108 265.169 131.778 264.461 131.118C263.753 130.446 263.399 129.552 263.399 128.436V122.748C263.399 121.632 263.753 120.744 264.461 120.084C265.169 119.412 266.045 119.076 267.089 119.076C268.145 119.076 269.027 119.412 269.735 120.084C270.443 120.744 270.797 121.632 270.797 122.748V128.436ZM268.961 128.382V122.802C268.961 122.178 268.793 121.674 268.457 121.29C268.121 120.906 267.665 120.714 267.089 120.714C266.525 120.714 266.075 120.906 265.739 121.29C265.403 121.674 265.235 122.178 265.235 122.802V128.382C265.235 129.006 265.403 129.51 265.739 129.894C266.075 130.278 266.525 130.47 267.089 130.47C267.665 130.47 268.121 130.278 268.457 129.894C268.793 129.51 268.961 129.006 268.961 128.382ZM280.394 128.436C280.394 129.552 280.04 130.446 279.332 131.118C278.624 131.778 277.742 132.108 276.686 132.108C275.642 132.108 274.766 131.778 274.058 131.118C273.35 130.446 272.996 129.552 272.996 128.436V122.748C272.996 121.632 273.35 120.744 274.058 120.084C274.766 119.412 275.642 119.076 276.686 119.076C277.742 119.076 278.624 119.412 279.332 120.084C280.04 120.744 280.394 121.632 280.394 122.748V128.436ZM278.558 128.382V122.802C278.558 122.178 278.39 121.674 278.054 121.29C277.718 120.906 277.262 120.714 276.686 120.714C276.122 120.714 275.672 120.906 275.336 121.29C275 121.674 274.832 122.178 274.832 122.802V128.382C274.832 129.006 275 129.51 275.336 129.894C275.672 130.278 276.122 130.47 276.686 130.47C277.262 130.47 277.718 130.278 278.054 129.894C278.39 129.51 278.558 129.006 278.558 128.382ZM294.748 127.428C294.748 129.312 294.406 130.602 293.722 131.298C293.182 131.838 292.444 132.108 291.508 132.108C290.488 132.108 289.69 131.76 289.114 131.064V135.69H287.278V122.874H289.078V123.846C289.678 123.126 290.482 122.766 291.49 122.766C292.438 122.766 293.182 123.036 293.722 123.576C294.406 124.272 294.748 125.556 294.748 127.428ZM292.84 128.598C292.888 128.274 292.912 127.884 292.912 127.428C292.912 126.972 292.888 126.582 292.84 126.258C292.804 125.934 292.72 125.622 292.588 125.322C292.468 125.022 292.276 124.794 292.012 124.638C291.748 124.482 291.418 124.404 291.022 124.404C290.614 124.404 290.278 124.482 290.014 124.638C289.75 124.794 289.552 125.022 289.42 125.322C289.3 125.622 289.216 125.934 289.168 126.258C289.132 126.582 289.114 126.972 289.114 127.428C289.114 127.884 289.132 128.274 289.168 128.598C289.216 128.922 289.3 129.24 289.42 129.552C289.552 129.852 289.75 130.08 290.014 130.236C290.29 130.392 290.626 130.47 291.022 130.47C291.418 130.47 291.748 130.392 292.012 130.236C292.276 130.08 292.468 129.852 292.588 129.552C292.72 129.24 292.804 128.922 292.84 128.598ZM303.946 122.874L299.914 133.818C299.482 135.018 298.636 135.618 297.376 135.618H296.638V133.962H297.106C297.49 133.962 297.772 133.896 297.952 133.764C298.132 133.644 298.288 133.392 298.42 133.008L298.924 131.568L295.72 122.874H297.682L299.86 129.318L301.984 122.874H303.946ZM309.052 130.452C309.628 130.452 310.078 130.272 310.402 129.912C310.786 129.456 310.978 128.646 310.978 127.482C310.978 126.27 310.792 125.454 310.42 125.034C310.072 124.65 309.616 124.458 309.052 124.458C308.464 124.458 308.002 124.65 307.666 125.034C307.258 125.502 307.054 126.306 307.054 127.446C307.054 128.598 307.27 129.42 307.702 129.912C308.05 130.272 308.5 130.452 309.052 130.452ZM309.07 132.108C308.302 132.108 307.63 131.946 307.054 131.622C306.478 131.298 306.052 130.83 305.776 130.218C305.416 129.45 305.236 128.106 305.236 126.186C305.236 124.194 305.32 122.826 305.488 122.082C305.656 121.338 306.028 120.72 306.604 120.228C306.976 119.904 307.462 119.658 308.062 119.49C308.674 119.322 309.232 119.22 309.736 119.184C310.252 119.148 311.032 119.112 312.076 119.076V120.696C311.896 120.708 311.572 120.726 311.104 120.75C310.636 120.774 310.252 120.798 309.952 120.822C309.652 120.846 309.31 120.906 308.926 121.002C308.542 121.098 308.23 121.23 307.99 121.398C307.57 121.674 307.282 122.022 307.126 122.442C306.97 122.85 306.892 123.396 306.892 124.08C307.084 123.72 307.408 123.432 307.864 123.216C308.332 123 308.842 122.892 309.394 122.892C310.33 122.892 311.074 123.15 311.626 123.666C312.418 124.41 312.814 125.658 312.814 127.41C312.814 129.102 312.442 130.326 311.698 131.082C311.038 131.766 310.162 132.108 309.07 132.108ZM317.405 132H315.209V129.804H317.405V132ZM117.972 154H116.028V148.978C114.612 149.254 113.466 149.392 112.59 149.392C111.654 149.392 110.862 149.134 110.214 148.618C109.578 148.09 109.26 147.298 109.26 146.242V141.184H111.222V145.774C111.222 147.022 111.876 147.646 113.184 147.646C113.976 147.646 114.924 147.526 116.028 147.286V141.184H117.972V154ZM128.69 154H126.854V147.718L122.948 154H121.112V144.874H122.948V151.066L126.854 144.874H128.69V154ZM138.212 152.812C137.396 153.676 136.394 154.108 135.206 154.108C134.666 154.108 134.162 154.024 133.694 153.856C133.226 153.676 132.794 153.412 132.398 153.064C132.014 152.704 131.708 152.218 131.48 151.606C131.252 150.982 131.138 150.256 131.138 149.428C131.138 148.6 131.252 147.88 131.48 147.268C131.708 146.644 132.014 146.158 132.398 145.81C132.794 145.45 133.226 145.186 133.694 145.018C134.162 144.85 134.666 144.766 135.206 144.766C136.406 144.766 137.408 145.192 138.212 146.044L136.952 147.268C136.664 146.956 136.388 146.734 136.124 146.602C135.872 146.47 135.566 146.404 135.206 146.404C134.486 146.404 133.922 146.674 133.514 147.214C133.154 147.67 132.974 148.408 132.974 149.428C132.974 150.46 133.154 151.204 133.514 151.66C133.922 152.2 134.486 152.47 135.206 152.47C135.566 152.47 135.872 152.404 136.124 152.272C136.388 152.14 136.664 151.918 136.952 151.606L138.212 152.812ZM146.695 146.476H143.905V154H142.069V146.476H139.171V144.874H146.695V146.476ZM154.985 154H153.185V153.172C152.849 153.508 152.495 153.748 152.123 153.892C151.763 154.036 151.307 154.108 150.755 154.108C149.675 154.108 148.859 153.832 148.307 153.28C147.827 152.776 147.587 152.122 147.587 151.318C147.587 150.526 147.857 149.89 148.397 149.41C148.949 148.93 149.735 148.69 150.755 148.69H153.149V148.042C153.149 147.454 152.993 147.022 152.681 146.746C152.369 146.47 151.859 146.332 151.151 146.332C150.671 146.332 150.281 146.404 149.981 146.548C149.693 146.68 149.417 146.908 149.153 147.232L147.965 146.098C148.385 145.606 148.835 145.264 149.315 145.072C149.807 144.868 150.443 144.766 151.223 144.766C153.731 144.766 154.985 145.81 154.985 147.898V154ZM153.149 150.706V149.968H151.043C149.927 149.968 149.369 150.406 149.369 151.282C149.369 152.146 149.945 152.578 151.097 152.578C151.829 152.578 152.381 152.404 152.753 152.056C153.017 151.804 153.149 151.354 153.149 150.706ZM162.639 149.122V146.35H160.497C160.029 146.35 159.663 146.476 159.399 146.728C159.135 146.98 159.003 147.322 159.003 147.754C159.003 148.186 159.135 148.522 159.399 148.762C159.663 149.002 160.029 149.122 160.497 149.122H162.639ZM159.219 154H157.113L159.093 150.256C158.505 150.088 158.043 149.776 157.707 149.32C157.371 148.864 157.203 148.312 157.203 147.664C157.203 146.836 157.473 146.164 158.013 145.648C158.565 145.132 159.279 144.874 160.155 144.874H164.457V154H162.621V150.598H160.947L159.219 154ZM179.01 154H177.174V146.476H173.538V154H171.702V144.874H179.01V154ZM189.315 149.428C189.315 151.312 188.973 152.602 188.289 153.298C187.749 153.838 187.011 154.108 186.075 154.108C185.055 154.108 184.257 153.76 183.681 153.064V157.69H181.845V144.874H183.645V145.846C184.245 145.126 185.049 144.766 186.057 144.766C187.005 144.766 187.749 145.036 188.289 145.576C188.973 146.272 189.315 147.556 189.315 149.428ZM187.407 150.598C187.455 150.274 187.479 149.884 187.479 149.428C187.479 148.972 187.455 148.582 187.407 148.258C187.371 147.934 187.287 147.622 187.155 147.322C187.035 147.022 186.843 146.794 186.579 146.638C186.315 146.482 185.985 146.404 185.589 146.404C185.181 146.404 184.845 146.482 184.581 146.638C184.317 146.794 184.119 147.022 183.987 147.322C183.867 147.622 183.783 147.934 183.735 148.258C183.699 148.582 183.681 148.972 183.681 149.428C183.681 149.884 183.699 150.274 183.735 150.598C183.783 150.922 183.867 151.24 183.987 151.552C184.119 151.852 184.317 152.08 184.581 152.236C184.857 152.392 185.193 152.47 185.589 152.47C185.985 152.47 186.315 152.392 186.579 152.236C186.843 152.08 187.035 151.852 187.155 151.552C187.287 151.24 187.371 150.922 187.407 150.598ZM199.372 154H197.536V147.718L193.63 154H191.794V144.874H193.63V151.066L197.536 144.874H199.372V154ZM205.816 152.452C206.392 152.452 206.842 152.272 207.166 151.912C207.55 151.456 207.742 150.646 207.742 149.482C207.742 148.27 207.556 147.454 207.184 147.034C206.836 146.65 206.38 146.458 205.816 146.458C205.228 146.458 204.766 146.65 204.43 147.034C204.022 147.502 203.818 148.306 203.818 149.446C203.818 150.598 204.034 151.42 204.466 151.912C204.814 152.272 205.264 152.452 205.816 152.452ZM205.834 154.108C205.066 154.108 204.394 153.946 203.818 153.622C203.242 153.298 202.816 152.83 202.54 152.218C202.18 151.45 202 150.106 202 148.186C202 146.194 202.084 144.826 202.252 144.082C202.42 143.338 202.792 142.72 203.368 142.228C203.74 141.904 204.226 141.658 204.826 141.49C205.438 141.322 205.996 141.22 206.5 141.184C207.016 141.148 207.796 141.112 208.84 141.076V142.696C208.66 142.708 208.336 142.726 207.868 142.75C207.4 142.774 207.016 142.798 206.716 142.822C206.416 142.846 206.074 142.906 205.69 143.002C205.306 143.098 204.994 143.23 204.754 143.398C204.334 143.674 204.046 144.022 203.89 144.442C203.734 144.85 203.656 145.396 203.656 146.08C203.848 145.72 204.172 145.432 204.628 145.216C205.096 145 205.606 144.892 206.158 144.892C207.094 144.892 207.838 145.15 208.39 145.666C209.182 146.41 209.578 147.658 209.578 149.41C209.578 151.102 209.206 152.326 208.462 153.082C207.802 153.766 206.926 154.108 205.834 154.108ZM222.322 154H220.486V144.874H222.322V154ZM218.398 149.104C218.95 149.632 219.226 150.316 219.226 151.156C219.226 151.996 218.95 152.68 218.398 153.208C217.858 153.736 217.144 154 216.256 154H212.026V144.874H213.862V148.312H216.256C217.144 148.312 217.858 148.576 218.398 149.104ZM217.012 152.146C217.276 151.906 217.408 151.576 217.408 151.156C217.408 150.736 217.276 150.412 217.012 150.184C216.76 149.944 216.406 149.824 215.95 149.824H213.862V152.506H215.95C216.406 152.506 216.76 152.386 217.012 152.146ZM232.442 154H230.606V146.476H227.96V149.122C227.96 150.07 227.894 150.868 227.762 151.516C227.63 152.164 227.432 152.668 227.168 153.028C226.904 153.376 226.598 153.628 226.25 153.784C225.914 153.928 225.512 154 225.044 154H224.18V152.38H224.468C224.66 152.38 224.822 152.368 224.954 152.344C225.086 152.308 225.236 152.224 225.404 152.092C225.584 151.948 225.722 151.756 225.818 151.516C225.926 151.264 226.016 150.898 226.088 150.418C226.16 149.926 226.196 149.344 226.196 148.672V144.874H232.442V154ZM241.742 149.104C242.294 149.62 242.57 150.304 242.57 151.156C242.57 152.008 242.294 152.698 241.742 153.226C241.202 153.742 240.494 154 239.618 154H235.37V144.874H237.206V148.312H239.618C240.494 148.312 241.202 148.576 241.742 149.104ZM240.374 152.146C240.626 151.906 240.752 151.576 240.752 151.156C240.752 150.736 240.626 150.412 240.374 150.184C240.122 149.944 239.768 149.824 239.312 149.824H237.206V152.506H239.312C239.768 152.506 240.122 152.386 240.374 152.146ZM254.015 149.86H248.759V148.15H254.015V149.86ZM268.289 150.382C268.289 151.51 267.911 152.416 267.155 153.1C266.399 153.772 265.457 154.108 264.329 154.108C263.201 154.108 262.259 153.772 261.503 153.1C260.759 152.416 260.387 151.51 260.387 150.382C260.387 149.086 260.975 148.084 262.151 147.376C261.119 146.752 260.603 145.834 260.603 144.622C260.603 143.566 260.957 142.714 261.665 142.066C262.373 141.406 263.261 141.076 264.329 141.076C265.397 141.076 266.285 141.406 266.993 142.066C267.713 142.714 268.073 143.566 268.073 144.622C268.073 145.834 267.557 146.752 266.525 147.376C267.701 148.084 268.289 149.086 268.289 150.382ZM265.823 151.858C266.231 151.45 266.435 150.946 266.435 150.346C266.435 149.746 266.231 149.242 265.823 148.834C265.415 148.414 264.917 148.204 264.329 148.204C263.741 148.204 263.243 148.414 262.835 148.834C262.427 149.242 262.223 149.746 262.223 150.346C262.223 150.946 262.427 151.45 262.835 151.858C263.243 152.266 263.741 152.47 264.329 152.47C264.917 152.47 265.415 152.266 265.823 151.858ZM265.697 146.08C266.057 145.708 266.237 145.24 266.237 144.676C266.237 144.112 266.057 143.644 265.697 143.272C265.337 142.9 264.881 142.714 264.329 142.714C263.777 142.714 263.321 142.9 262.961 143.272C262.613 143.644 262.439 144.112 262.439 144.676C262.439 145.24 262.613 145.708 262.961 146.08C263.321 146.44 263.777 146.62 264.329 146.62C264.881 146.62 265.337 146.44 265.697 146.08ZM282.211 150.382C282.211 151.51 281.833 152.416 281.077 153.1C280.321 153.772 279.379 154.108 278.251 154.108C277.123 154.108 276.181 153.772 275.425 153.1C274.681 152.416 274.309 151.51 274.309 150.382C274.309 149.086 274.897 148.084 276.073 147.376C275.041 146.752 274.525 145.834 274.525 144.622C274.525 143.566 274.879 142.714 275.587 142.066C276.295 141.406 277.183 141.076 278.251 141.076C279.319 141.076 280.207 141.406 280.915 142.066C281.635 142.714 281.995 143.566 281.995 144.622C281.995 145.834 281.479 146.752 280.447 147.376C281.623 148.084 282.211 149.086 282.211 150.382ZM279.745 151.858C280.153 151.45 280.357 150.946 280.357 150.346C280.357 149.746 280.153 149.242 279.745 148.834C279.337 148.414 278.839 148.204 278.251 148.204C277.663 148.204 277.165 148.414 276.757 148.834C276.349 149.242 276.145 149.746 276.145 150.346C276.145 150.946 276.349 151.45 276.757 151.858C277.165 152.266 277.663 152.47 278.251 152.47C278.839 152.47 279.337 152.266 279.745 151.858ZM279.619 146.08C279.979 145.708 280.159 145.24 280.159 144.676C280.159 144.112 279.979 143.644 279.619 143.272C279.259 142.9 278.803 142.714 278.251 142.714C277.699 142.714 277.243 142.9 276.883 143.272C276.535 143.644 276.361 144.112 276.361 144.676C276.361 145.24 276.535 145.708 276.883 146.08C277.243 146.44 277.699 146.62 278.251 146.62C278.803 146.62 279.259 146.44 279.619 146.08ZM291.647 150.202C291.647 151.378 291.293 152.326 290.585 153.046C289.889 153.754 288.983 154.108 287.867 154.108C286.739 154.108 285.821 153.766 285.113 153.082C284.417 152.386 284.069 151.45 284.069 150.274C284.069 149.446 284.387 148.396 285.023 147.124L287.939 141.184H289.901L287.147 146.692C287.459 146.56 287.837 146.494 288.281 146.494C289.229 146.494 290.027 146.836 290.675 147.52C291.323 148.204 291.647 149.098 291.647 150.202ZM289.811 150.238C289.811 149.59 289.631 149.062 289.271 148.654C288.923 148.234 288.449 148.024 287.849 148.024C287.261 148.024 286.787 148.222 286.427 148.618C286.079 149.014 285.905 149.554 285.905 150.238C285.905 150.922 286.085 151.468 286.445 151.876C286.805 152.272 287.273 152.47 287.849 152.47C288.437 152.47 288.911 152.266 289.271 151.858C289.631 151.45 289.811 150.91 289.811 150.238ZM301.406 150.382C301.406 151.51 301.028 152.416 300.272 153.1C299.516 153.772 298.574 154.108 297.446 154.108C296.318 154.108 295.376 153.772 294.62 153.1C293.876 152.416 293.504 151.51 293.504 150.382C293.504 149.086 294.092 148.084 295.268 147.376C294.236 146.752 293.72 145.834 293.72 144.622C293.72 143.566 294.074 142.714 294.782 142.066C295.49 141.406 296.378 141.076 297.446 141.076C298.514 141.076 299.402 141.406 300.11 142.066C300.83 142.714 301.19 143.566 301.19 144.622C301.19 145.834 300.674 146.752 299.642 147.376C300.818 148.084 301.406 149.086 301.406 150.382ZM298.94 151.858C299.348 151.45 299.552 150.946 299.552 150.346C299.552 149.746 299.348 149.242 298.94 148.834C298.532 148.414 298.034 148.204 297.446 148.204C296.858 148.204 296.36 148.414 295.952 148.834C295.544 149.242 295.34 149.746 295.34 150.346C295.34 150.946 295.544 151.45 295.952 151.858C296.36 152.266 296.858 152.47 297.446 152.47C298.034 152.47 298.532 152.266 298.94 151.858ZM298.814 146.08C299.174 145.708 299.354 145.24 299.354 144.676C299.354 144.112 299.174 143.644 298.814 143.272C298.454 142.9 297.998 142.714 297.446 142.714C296.894 142.714 296.438 142.9 296.078 143.272C295.73 143.644 295.556 144.112 295.556 144.676C295.556 145.24 295.73 145.708 296.078 146.08C296.438 146.44 296.894 146.62 297.446 146.62C297.998 146.62 298.454 146.44 298.814 146.08ZM315.166 154H307.714V152.362L312.646 146.368C313.102 145.816 313.33 145.246 313.33 144.658C313.33 144.07 313.162 143.602 312.826 143.254C312.502 142.894 312.046 142.714 311.458 142.714C310.918 142.714 310.468 142.876 310.108 143.2C309.748 143.524 309.568 144.022 309.568 144.694H307.732C307.732 143.614 308.08 142.744 308.776 142.084C309.472 141.412 310.366 141.076 311.458 141.076C312.562 141.076 313.456 141.406 314.14 142.066C314.824 142.714 315.166 143.584 315.166 144.676C315.166 145.204 315.07 145.666 314.878 146.062C314.698 146.446 314.392 146.908 313.96 147.448L309.946 152.362H315.166V154ZM324.926 150.382C324.926 151.51 324.548 152.416 323.792 153.1C323.036 153.772 322.094 154.108 320.966 154.108C319.838 154.108 318.896 153.772 318.14 153.1C317.396 152.416 317.024 151.51 317.024 150.382C317.024 149.086 317.612 148.084 318.788 147.376C317.756 146.752 317.24 145.834 317.24 144.622C317.24 143.566 317.594 142.714 318.302 142.066C319.01 141.406 319.898 141.076 320.966 141.076C322.034 141.076 322.922 141.406 323.63 142.066C324.35 142.714 324.71 143.566 324.71 144.622C324.71 145.834 324.194 146.752 323.162 147.376C324.338 148.084 324.926 149.086 324.926 150.382ZM322.46 151.858C322.868 151.45 323.072 150.946 323.072 150.346C323.072 149.746 322.868 149.242 322.46 148.834C322.052 148.414 321.554 148.204 320.966 148.204C320.378 148.204 319.88 148.414 319.472 148.834C319.064 149.242 318.86 149.746 318.86 150.346C318.86 150.946 319.064 151.45 319.472 151.858C319.88 152.266 320.378 152.47 320.966 152.47C321.554 152.47 322.052 152.266 322.46 151.858ZM322.334 146.08C322.694 145.708 322.874 145.24 322.874 144.676C322.874 144.112 322.694 143.644 322.334 143.272C321.974 142.9 321.518 142.714 320.966 142.714C320.414 142.714 319.958 142.9 319.598 143.272C319.25 143.644 319.076 144.112 319.076 144.676C319.076 145.24 319.25 145.708 319.598 146.08C319.958 146.44 320.414 146.62 320.966 146.62C321.518 146.62 321.974 146.44 322.334 146.08ZM334.397 149.716C334.397 150.496 334.325 151.15 334.181 151.678C334.037 152.206 333.749 152.686 333.317 153.118C332.645 153.79 331.745 154.126 330.617 154.126C329.453 154.126 328.541 153.796 327.881 153.136C327.317 152.572 326.993 151.756 326.909 150.688H328.745C328.901 151.876 329.525 152.47 330.617 152.47C331.169 152.47 331.613 152.302 331.949 151.966C332.357 151.558 332.561 150.808 332.561 149.716C332.561 147.928 331.937 147.034 330.689 147.034C329.717 147.034 329.111 147.418 328.871 148.186H327.197V141.184H334.109V142.822H328.853V146.206C329.321 145.714 330.029 145.468 330.977 145.468C331.961 145.468 332.729 145.744 333.281 146.296C334.025 147.04 334.397 148.18 334.397 149.716ZM348.625 149.428C348.625 151.312 348.283 152.602 347.599 153.298C347.059 153.838 346.321 154.108 345.385 154.108C344.365 154.108 343.567 153.76 342.991 153.064V157.69H341.155V144.874H342.955V145.846C343.555 145.126 344.359 144.766 345.367 144.766C346.315 144.766 347.059 145.036 347.599 145.576C348.283 146.272 348.625 147.556 348.625 149.428ZM346.717 150.598C346.765 150.274 346.789 149.884 346.789 149.428C346.789 148.972 346.765 148.582 346.717 148.258C346.681 147.934 346.597 147.622 346.465 147.322C346.345 147.022 346.153 146.794 345.889 146.638C345.625 146.482 345.295 146.404 344.899 146.404C344.491 146.404 344.155 146.482 343.891 146.638C343.627 146.794 343.429 147.022 343.297 147.322C343.177 147.622 343.093 147.934 343.045 148.258C343.009 148.582 342.991 148.972 342.991 149.428C342.991 149.884 343.009 150.274 343.045 150.598C343.093 150.922 343.177 151.24 343.297 151.552C343.429 151.852 343.627 152.08 343.891 152.236C344.167 152.392 344.503 152.47 344.899 152.47C345.295 152.47 345.625 152.392 345.889 152.236C346.153 152.08 346.345 151.852 346.465 151.552C346.597 151.24 346.681 150.922 346.717 150.598ZM357.823 144.874L353.791 155.818C353.359 157.018 352.513 157.618 351.253 157.618H350.515V155.962H350.983C351.367 155.962 351.649 155.896 351.829 155.764C352.009 155.644 352.165 155.392 352.297 155.008L352.801 153.568L349.597 144.874H351.559L353.737 151.318L355.861 144.874H357.823ZM362.929 152.452C363.505 152.452 363.955 152.272 364.279 151.912C364.663 151.456 364.855 150.646 364.855 149.482C364.855 148.27 364.669 147.454 364.297 147.034C363.949 146.65 363.493 146.458 362.929 146.458C362.341 146.458 361.879 146.65 361.543 147.034C361.135 147.502 360.931 148.306 360.931 149.446C360.931 150.598 361.147 151.42 361.579 151.912C361.927 152.272 362.377 152.452 362.929 152.452ZM362.947 154.108C362.179 154.108 361.507 153.946 360.931 153.622C360.355 153.298 359.929 152.83 359.653 152.218C359.293 151.45 359.113 150.106 359.113 148.186C359.113 146.194 359.197 144.826 359.365 144.082C359.533 143.338 359.905 142.72 360.481 142.228C360.853 141.904 361.339 141.658 361.939 141.49C362.551 141.322 363.109 141.22 363.613 141.184C364.129 141.148 364.909 141.112 365.953 141.076V142.696C365.773 142.708 365.449 142.726 364.981 142.75C364.513 142.774 364.129 142.798 363.829 142.822C363.529 142.846 363.187 142.906 362.803 143.002C362.419 143.098 362.107 143.23 361.867 143.398C361.447 143.674 361.159 144.022 361.003 144.442C360.847 144.85 360.769 145.396 360.769 146.08C360.961 145.72 361.285 145.432 361.741 145.216C362.209 145 362.719 144.892 363.271 144.892C364.207 144.892 364.951 145.15 365.503 145.666C366.295 146.41 366.691 147.658 366.691 149.41C366.691 151.102 366.319 152.326 365.575 153.082C364.915 153.766 364.039 154.108 362.947 154.108ZM371.282 154H369.086V151.804H371.282V154Z" fill="#FCAF17"/>
<path d="M117.714 34.8125H115.931V41H112.16V25.3594H115.931V31.4072H117.381L120.389 25.3594H124.954L120.657 32.5781L125.491 41H121.033L117.714 34.8125ZM139.327 33.502C139.327 35.0273 139.044 36.3773 138.479 37.5518C137.913 38.7262 137.107 39.6322 136.062 40.2695C135.023 40.8997 133.838 41.2148 132.506 41.2148C131.174 41.2148 129.992 40.9105 128.961 40.3018C127.93 39.6859 127.124 38.8086 126.544 37.6699C125.971 36.5312 125.67 35.2243 125.642 33.749V32.8682C125.642 31.3356 125.921 29.9857 126.479 28.8184C127.045 27.6439 127.851 26.738 128.896 26.1006C129.949 25.4632 131.145 25.1445 132.484 25.1445C133.809 25.1445 134.991 25.4596 136.029 26.0898C137.068 26.7201 137.873 27.6188 138.446 28.7861C139.026 29.9463 139.32 31.2783 139.327 32.7822V33.502ZM135.492 32.8467C135.492 31.2926 135.231 30.1146 134.708 29.3125C134.192 28.5033 133.451 28.0986 132.484 28.0986C130.594 28.0986 129.595 29.5166 129.487 32.3525L129.477 33.502C129.477 35.0345 129.731 36.2126 130.239 37.0361C130.748 37.8597 131.503 38.2715 132.506 38.2715C133.458 38.2715 134.192 37.8669 134.708 37.0576C135.224 36.2484 135.485 35.0846 135.492 33.5664V32.8467ZM146.224 25.3594L149.715 36.2412L153.195 25.3594H158.158V41H154.377V37.3477L154.742 29.8711L150.961 41H148.469L144.677 29.8604L145.042 37.3477V41H141.271V25.3594H146.224ZM169.738 25.3594H173.509V41H169.738V31.1387L164.12 41H160.35V25.3594H164.12V35.2314L169.738 25.3594ZM188.473 35.7041C188.423 36.7926 188.129 37.7559 187.592 38.5938C187.055 39.4245 186.299 40.069 185.325 40.5273C184.358 40.9857 183.252 41.2148 182.006 41.2148C179.951 41.2148 178.332 40.5452 177.15 39.2061C175.969 37.8669 175.378 35.9762 175.378 33.5342V32.7607C175.378 31.2282 175.643 29.889 176.173 28.7432C176.71 27.5902 177.48 26.7021 178.482 26.0791C179.485 25.4489 180.645 25.1338 181.963 25.1338C183.861 25.1338 185.386 25.6351 186.539 26.6377C187.692 27.6331 188.347 29.0081 188.505 30.7627H184.745C184.716 29.8102 184.477 29.1263 184.025 28.7109C183.574 28.2956 182.887 28.0879 181.963 28.0879C181.025 28.0879 180.337 28.4388 179.9 29.1406C179.464 29.8424 179.234 30.9632 179.213 32.5029V33.6094C179.213 35.278 179.421 36.4704 179.836 37.1865C180.258 37.9027 180.982 38.2607 182.006 38.2607C182.872 38.2607 183.535 38.0566 183.993 37.6484C184.451 37.2402 184.695 36.5921 184.724 35.7041H188.473ZM202.91 35.7041C202.86 36.7926 202.566 37.7559 202.029 38.5938C201.492 39.4245 200.737 40.069 199.763 40.5273C198.796 40.9857 197.689 41.2148 196.443 41.2148C194.388 41.2148 192.77 40.5452 191.588 39.2061C190.406 37.8669 189.815 35.9762 189.815 33.5342V32.7607C189.815 31.2282 190.08 29.889 190.61 28.7432C191.147 27.5902 191.917 26.7021 192.92 26.0791C193.923 25.4489 195.083 25.1338 196.4 25.1338C198.298 25.1338 199.824 25.6351 200.977 26.6377C202.13 27.6331 202.785 29.0081 202.942 30.7627H199.183C199.154 29.8102 198.914 29.1263 198.463 28.7109C198.012 28.2956 197.324 28.0879 196.4 28.0879C195.462 28.0879 194.775 28.4388 194.338 29.1406C193.901 29.8424 193.672 30.9632 193.65 32.5029V33.6094C193.65 35.278 193.858 36.4704 194.273 37.1865C194.696 37.9027 195.419 38.2607 196.443 38.2607C197.31 38.2607 197.972 38.0566 198.431 37.6484C198.889 37.2402 199.132 36.5921 199.161 35.7041H202.91ZM213.867 25.3594H217.638V41H213.867V31.1387L208.249 41H204.479V25.3594H208.249V35.2314L213.867 25.3594ZM233.192 33.502C233.192 35.0273 232.91 36.3773 232.344 37.5518C231.778 38.7262 230.972 39.6322 229.927 40.2695C228.888 40.8997 227.703 41.2148 226.371 41.2148C225.039 41.2148 223.857 40.9105 222.826 40.3018C221.795 39.6859 220.989 38.8086 220.409 37.6699C219.836 36.5312 219.535 35.2243 219.507 33.749V32.8682C219.507 31.3356 219.786 29.9857 220.345 28.8184C220.91 27.6439 221.716 26.738 222.762 26.1006C223.814 25.4632 225.01 25.1445 226.35 25.1445C227.674 25.1445 228.856 25.4596 229.895 26.0898C230.933 26.7201 231.739 27.6188 232.312 28.7861C232.892 29.9463 233.185 31.2783 233.192 32.7822V33.502ZM229.357 32.8467C229.357 31.2926 229.096 30.1146 228.573 29.3125C228.058 28.5033 227.316 28.0986 226.35 28.0986C224.459 28.0986 223.46 29.5166 223.353 32.3525L223.342 33.502C223.342 35.0345 223.596 36.2126 224.104 37.0361C224.613 37.8597 225.368 38.2715 226.371 38.2715C227.324 38.2715 228.058 37.8669 228.573 37.0576C229.089 36.2484 229.35 35.0846 229.357 33.5664V32.8467ZM248.21 41H244.461V34.4688H238.907V41H235.137V25.3594H238.907V31.5684H244.461V25.3594H248.21V41ZM263.679 41H259.93V34.4688H254.376V41H250.605V25.3594H254.376V31.5684H259.93V25.3594H263.679V41ZM275.151 38.0781H269.984L269.082 41H265.054L270.79 25.3594H274.335L280.114 41H276.064L275.151 38.0781ZM270.887 35.167H274.249L272.562 29.7422L270.887 35.167ZM287.999 41V35.5107H285.829L283.187 41H279.094L282.306 34.2324C280.909 33.3229 280.211 31.9873 280.211 30.2256C280.211 28.6787 280.719 27.4827 281.736 26.6377C282.753 25.7855 284.218 25.3594 286.13 25.3594H291.78V41H287.999ZM283.971 30.5586C283.971 31.3535 284.132 31.93 284.454 32.2881C284.776 32.6462 285.317 32.8252 286.076 32.8252H287.999V28.2705H286.098C285.346 28.2705 284.801 28.4674 284.465 28.8613C284.135 29.248 283.971 29.8138 283.971 30.5586ZM125.319 67H121.549V54.2705H115.931V67H112.16V51.3594H125.319V67ZM131.442 61.6934V67H127.672V51.3594H133.913C135.109 51.3594 136.165 51.5814 137.082 52.0254C138.006 52.4622 138.718 53.0889 139.22 53.9053C139.728 54.7145 139.982 55.6348 139.982 56.666C139.982 58.1914 139.435 59.4124 138.339 60.3291C137.25 61.2386 135.754 61.6934 133.849 61.6934H131.442ZM131.442 58.7822H133.913C134.644 58.7822 135.199 58.5996 135.578 58.2344C135.965 57.8691 136.158 57.3535 136.158 56.6875C136.158 55.957 135.961 55.3734 135.567 54.9365C135.174 54.4997 134.636 54.2777 133.956 54.2705H131.442V58.7822ZM155.247 59.502C155.247 61.0273 154.964 62.3773 154.398 63.5518C153.833 64.7262 153.027 65.6322 151.981 66.2695C150.943 66.8997 149.758 67.2148 148.426 67.2148C147.094 67.2148 145.912 66.9105 144.881 66.3018C143.85 65.6859 143.044 64.8086 142.464 63.6699C141.891 62.5312 141.59 61.2243 141.562 59.749V58.8682C141.562 57.3356 141.841 55.9857 142.399 54.8184C142.965 53.6439 143.771 52.738 144.816 52.1006C145.869 51.4632 147.065 51.1445 148.404 51.1445C149.729 51.1445 150.911 51.4596 151.949 52.0898C152.988 52.7201 153.793 53.6188 154.366 54.7861C154.946 55.9463 155.24 57.2783 155.247 58.7822V59.502ZM151.412 58.8467C151.412 57.2926 151.151 56.1146 150.628 55.3125C150.112 54.5033 149.371 54.0986 148.404 54.0986C146.514 54.0986 145.515 55.5166 145.407 58.3525L145.396 59.502C145.396 61.0345 145.651 62.2126 146.159 63.0361C146.668 63.8597 147.423 64.2715 148.426 64.2715C149.378 64.2715 150.112 63.8669 150.628 63.0576C151.144 62.2484 151.405 61.0846 151.412 59.5664V58.8467ZM171.457 70.8457H168.073V67H159.555V70.835H156.063L155.795 64.0996H156.901C157.481 63.7129 157.947 63.0505 158.298 62.1123C158.656 61.167 158.91 59.8135 159.061 58.0518L159.544 51.3594H170.189V64.0996H171.854L171.457 70.8457ZM161.166 64.0996H166.43V54.2705H163.1L162.81 58.1807C162.595 60.7158 162.047 62.6888 161.166 64.0996ZM182.21 64.0781H177.043L176.141 67H172.112L177.849 51.3594H181.394L187.173 67H183.123L182.21 64.0781ZM177.945 61.167H181.308L179.621 55.7422L177.945 61.167ZM202.556 60.8877H200.644V67H196.895V60.8877H194.95L191.942 67H187.259L191.975 58.46L187.398 51.3594H192.157L195.358 57.4932H196.895V51.3594H200.644V57.4932H202.169L205.23 51.3594H209.979L205.521 58.4385L210.14 67H205.435L202.556 60.8877ZM220.151 64.0781H214.984L214.082 67H210.054L215.79 51.3594H219.335L225.114 67H221.064L220.151 64.0781ZM215.887 61.167H219.249L217.562 55.7422L215.887 61.167Z" fill="#FCAF17"/>
<path d="M57.9844 122V124H59.9844V122H57.9844ZM38.1797 122H36.1797V124H38.1797V122ZM38.1797 58.9531H40.1797V56.2852L37.6188 57.0334L38.1797 58.9531ZM18.7266 64.6367H16.7266V67.3047L19.2875 66.5565L18.7266 64.6367ZM18.7266 49.6367L18.0728 47.7466L16.7266 48.2122V49.6367H18.7266ZM56.168 36.6875V34.6875H55.8319L55.5143 34.7974L56.168 36.6875ZM57.9844 36.6875H59.9844V34.6875H57.9844V36.6875ZM57.9844 120H38.1797V124H57.9844V120ZM40.1797 122V58.9531H36.1797V122H40.1797ZM37.6188 57.0334L18.1657 62.717L19.2875 66.5565L38.7406 60.8729L37.6188 57.0334ZM20.7266 64.6367V49.6367H16.7266V64.6367H20.7266ZM19.3803 51.5269L56.8217 38.5776L55.5143 34.7974L18.0728 47.7466L19.3803 51.5269ZM56.168 38.6875H57.9844V34.6875H56.168V38.6875ZM55.9844 36.6875V122H59.9844V36.6875H55.9844Z" fill="#FCAF17"/>
</g>
<defs>
<filter id="filter0_d" x="-50" y="-50" width="513" height="285" filterUnits="userSpaceOnUse" color-interpolation-filters="sRGB">
<feFlood flood-opacity="0" result="BackgroundImageFix"/>
<feColorMatrix in="SourceAlpha" type="matrix" values="0 0 0 0 0 0 0 0 0 0 0 0 0 0 0 0 0 0 127 0" result="hardAlpha"/>
<feOffset/>
<feGaussianBlur stdDeviation="25"/>
<feComposite in2="hardAlpha" operator="out"/>
<feColorMatrix type="matrix" values="0 0 0 0 0 0 0 0 0 0 0 0 0 0 0 0 0 0 0.15 0"/>
<feBlend mode="normal" in2="BackgroundImageFix" result="effect1_dropShadow"/>
<feBlend mode="normal" in="SourceGraphic" in2="effect1_dropShadow" result="shape"/>
</filter>
<filter id="filter1_d" x="-50" y="-50" width="188" height="285" filterUnits="userSpaceOnUse" color-interpolation-filters="sRGB">
<feFlood flood-opacity="0" result="BackgroundImageFix"/>
<feColorMatrix in="SourceAlpha" type="matrix" values="0 0 0 0 0 0 0 0 0 0 0 0 0 0 0 0 0 0 127 0" result="hardAlpha"/>
<feOffset/>
<feGaussianBlur stdDeviation="25"/>
<feComposite in2="hardAlpha" operator="out"/>
<feColorMatrix type="matrix" values="0 0 0 0 0 0 0 0 0 0 0 0 0 0 0 0 0 0 0.15 0"/>
<feBlend mode="normal" in2="BackgroundImageFix" result="effect1_dropShadow"/>
<feBlend mode="normal" in="SourceGraphic" in2="effect1_dropShadow" result="shape"/>
</filter>
<filter id="filter2_d" x="-50" y="-50" width="513" height="285" filterUnits="userSpaceOnUse" color-interpolation-filters="sRGB">
<feFlood flood-opacity="0" result="BackgroundImageFix"/>
<feColorMatrix in="SourceAlpha" type="matrix" values="0 0 0 0 0 0 0 0 0 0 0 0 0 0 0 0 0 0 127 0" result="hardAlpha"/>
<feOffset/>
<feGaussianBlur stdDeviation="25"/>
<feComposite in2="hardAlpha" operator="out"/>
<feColorMatrix type="matrix" values="0 0 0 0 0 0 0 0 0 0 0 0 0 0 0 0 0 0 0.15 0"/>
<feBlend mode="normal" in2="BackgroundImageFix" result="effect1_dropShadow"/>
<feBlend mode="normal" in="SourceGraphic" in2="effect1_dropShadow" result="shape"/>
</filter>
<filter id="filter3_d" x="-50" y="-50" width="188" height="285" filterUnits="userSpaceOnUse" color-interpolation-filters="sRGB">
<feFlood flood-opacity="0" result="BackgroundImageFix"/>
<feColorMatrix in="SourceAlpha" type="matrix" values="0 0 0 0 0 0 0 0 0 0 0 0 0 0 0 0 0 0 127 0" result="hardAlpha"/>
<feOffset/>
<feGaussianBlur stdDeviation="25"/>
<feComposite in2="hardAlpha" operator="out"/>
<feColorMatrix type="matrix" values="0 0 0 0 0 0 0 0 0 0 0 0 0 0 0 0 0 0 0.15 0"/>
<feBlend mode="normal" in2="BackgroundImageFix" result="effect1_dropShadow"/>
<feBlend mode="normal" in="SourceGraphic" in2="effect1_dropShadow" result="shape"/>
</filter>
<clipPath id="clip0">
<rect width="413" height="185" fill="white"/>
</clipPath>
<clipPath id="clip1">
<rect width="209" height="185" fill="white"/>
</clipPath>
</defs>
</svg>
