<svg width="413" height="185" viewBox="0 0 413 185" fill="none" xmlns="http://www.w3.org/2000/svg">
<g clip-path="url(#clip0)">
<g filter="url(#filter0_d)">
<rect x="1" y="1" width="411" height="183" stroke="white" stroke-width="2" shape-rendering="crispEdges"/>
</g>
<g filter="url(#filter1_d)">
<rect x="1" y="1" width="86" height="183" stroke="white" stroke-width="2" shape-rendering="crispEdges"/>
</g>
<path d="M112.968 98.93V101.792C112.968 104.516 112.548 106.67 111.708 108.254H116.532V98.93H112.968ZM111.096 97.184H118.476V108.254H119.988V112.88H118.08V110H110.304V112.88H108.414V108.254H109.53C110.574 106.634 111.096 104.204 111.096 100.964V97.184ZM129.156 105.428C129.156 106.268 129.078 106.97 128.922 107.534C128.766 108.098 128.484 108.596 128.076 109.028C127.38 109.748 126.468 110.108 125.34 110.108C124.224 110.108 123.318 109.748 122.622 109.028C122.214 108.596 121.932 108.098 121.776 107.534C121.62 106.97 121.542 106.268 121.542 105.428C121.542 104.6 121.62 103.904 121.776 103.34C121.932 102.764 122.214 102.266 122.622 101.846C123.318 101.126 124.224 100.766 125.34 100.766C126.468 100.766 127.38 101.126 128.076 101.846C128.484 102.266 128.766 102.764 128.922 103.34C129.078 103.904 129.156 104.6 129.156 105.428ZM126.69 107.93C127.11 107.51 127.32 106.676 127.32 105.428C127.32 104.18 127.11 103.346 126.69 102.926C126.342 102.578 125.892 102.404 125.34 102.404C124.8 102.404 124.356 102.578 124.008 102.926C123.588 103.346 123.378 104.18 123.378 105.428C123.378 106.676 123.588 107.51 124.008 107.93C124.368 108.29 124.812 108.47 125.34 108.47C125.88 108.47 126.33 108.29 126.69 107.93ZM138.364 110H136.528V102.476H133.882V105.122C133.882 106.07 133.816 106.868 133.684 107.516C133.552 108.164 133.354 108.668 133.09 109.028C132.826 109.376 132.52 109.628 132.172 109.784C131.836 109.928 131.434 110 130.966 110H130.102V108.38H130.39C130.582 108.38 130.744 108.368 130.876 108.344C131.008 108.308 131.158 108.224 131.326 108.092C131.506 107.948 131.644 107.756 131.74 107.516C131.848 107.264 131.938 106.898 132.01 106.418C132.082 105.926 132.118 105.344 132.118 104.672V100.874H138.364V110ZM146.116 105.122V102.35H143.974C143.506 102.35 143.14 102.476 142.876 102.728C142.612 102.98 142.48 103.322 142.48 103.754C142.48 104.186 142.612 104.522 142.876 104.762C143.14 105.002 143.506 105.122 143.974 105.122H146.116ZM142.696 110H140.59L142.57 106.256C141.982 106.088 141.52 105.776 141.184 105.32C140.848 104.864 140.68 104.312 140.68 103.664C140.68 102.836 140.95 102.164 141.49 101.648C142.042 101.132 142.756 100.874 143.632 100.874H147.934V110H146.098V106.598H144.424L142.696 110ZM160.183 105.86H154.927V104.15H160.183V105.86ZM174.313 106.4C174.313 107.588 173.941 108.506 173.197 109.154C172.453 109.802 171.517 110.126 170.389 110.126C169.285 110.126 168.361 109.826 167.617 109.226C166.885 108.614 166.501 107.714 166.465 106.526H168.301C168.337 107.174 168.547 107.66 168.931 107.984C169.327 108.308 169.813 108.47 170.389 108.47C171.001 108.47 171.499 108.284 171.883 107.912C172.279 107.528 172.477 107.006 172.477 106.346C172.477 105.686 172.297 105.17 171.937 104.798C171.577 104.426 171.043 104.24 170.335 104.24H170.029V102.638H170.335C170.983 102.638 171.469 102.464 171.793 102.116C172.117 101.768 172.279 101.294 172.279 100.694C172.279 100.07 172.099 99.584 171.739 99.236C171.379 98.888 170.929 98.714 170.389 98.714C169.837 98.714 169.387 98.882 169.039 99.218C168.703 99.542 168.511 99.986 168.463 100.55H166.627C166.675 99.482 167.053 98.636 167.761 98.012C168.469 97.376 169.345 97.058 170.389 97.058C171.481 97.058 172.375 97.394 173.071 98.066C173.767 98.726 174.115 99.584 174.115 100.64C174.115 101.936 173.581 102.848 172.513 103.376C173.713 103.904 174.313 104.912 174.313 106.4ZM183.803 106.436C183.803 107.552 183.449 108.446 182.741 109.118C182.033 109.778 181.151 110.108 180.095 110.108C179.051 110.108 178.175 109.778 177.467 109.118C176.759 108.446 176.405 107.552 176.405 106.436V100.748C176.405 99.632 176.759 98.744 177.467 98.084C178.175 97.412 179.051 97.076 180.095 97.076C181.151 97.076 182.033 97.412 182.741 98.084C183.449 98.744 183.803 99.632 183.803 100.748V106.436ZM181.967 106.382V100.802C181.967 100.178 181.799 99.674 181.463 99.29C181.127 98.906 180.671 98.714 180.095 98.714C179.531 98.714 179.081 98.906 178.745 99.29C178.409 99.674 178.241 100.178 178.241 100.802V106.382C178.241 107.006 178.409 107.51 178.745 107.894C179.081 108.278 179.531 108.47 180.095 108.47C180.671 108.47 181.127 108.278 181.463 107.894C181.799 107.51 181.967 107.006 181.967 106.382ZM199.016 107.66C199.016 108.416 198.776 109.016 198.296 109.46C197.816 109.904 197.216 110.126 196.496 110.126C195.776 110.126 195.176 109.904 194.696 109.46C194.216 109.016 193.976 108.416 193.976 107.66V105.842C193.976 105.086 194.216 104.486 194.696 104.042C195.176 103.598 195.776 103.376 196.496 103.376C197.216 103.376 197.816 103.598 198.296 104.042C198.776 104.486 199.016 105.086 199.016 105.842V107.66ZM190.988 101.342C190.988 102.098 190.748 102.698 190.268 103.142C189.788 103.574 189.188 103.79 188.468 103.79C187.748 103.79 187.148 103.574 186.668 103.142C186.188 102.698 185.948 102.098 185.948 101.342V99.524C185.948 98.768 186.188 98.168 186.668 97.724C187.148 97.28 187.748 97.058 188.468 97.058C189.188 97.058 189.788 97.28 190.268 97.724C190.748 98.168 190.988 98.768 190.988 99.524V101.342ZM196.226 97.184L190.196 110H188.72L194.768 97.184H196.226ZM197.63 107.606V105.896C197.63 105.032 197.252 104.6 196.496 104.6C195.74 104.6 195.362 105.032 195.362 105.896V107.606C195.362 108.47 195.74 108.902 196.496 108.902C197.252 108.902 197.63 108.47 197.63 107.606ZM189.602 101.288V99.578C189.602 98.714 189.224 98.282 188.468 98.282C187.712 98.282 187.334 98.714 187.334 99.578V101.288C187.334 102.14 187.712 102.566 188.468 102.566C189.224 102.566 189.602 102.14 189.602 101.288ZM118.728 128.4C118.728 129.504 118.38 130.38 117.684 131.028C117 131.676 116.058 132 114.858 132H109.674V119.184H114.66C115.824 119.184 116.76 119.502 117.468 120.138C118.176 120.762 118.53 121.596 118.53 122.64C118.53 123.936 117.954 124.866 116.802 125.43C118.086 126.03 118.728 127.02 118.728 128.4ZM116.028 124.116C116.4 123.792 116.586 123.342 116.586 122.766C116.586 122.19 116.4 121.74 116.028 121.416C115.656 121.092 115.146 120.93 114.498 120.93H111.618V124.602H114.498C115.146 124.602 115.656 124.44 116.028 124.116ZM116.19 129.732C116.574 129.372 116.766 128.892 116.766 128.292C116.766 127.692 116.574 127.218 116.19 126.87C115.818 126.522 115.308 126.348 114.66 126.348H111.618V130.254H114.66C115.308 130.254 115.818 130.08 116.19 129.732ZM131.69 132H129.854V122.874H131.69V132ZM127.766 127.104C128.318 127.632 128.594 128.316 128.594 129.156C128.594 129.996 128.318 130.68 127.766 131.208C127.226 131.736 126.512 132 125.624 132H121.394V122.874H123.23V126.312H125.624C126.512 126.312 127.226 126.576 127.766 127.104ZM126.38 130.146C126.644 129.906 126.776 129.576 126.776 129.156C126.776 128.736 126.644 128.412 126.38 128.184C126.128 127.944 125.774 127.824 125.318 127.824H123.23V130.506H125.318C125.774 130.506 126.128 130.386 126.38 130.146ZM142.205 127.428C142.205 129.312 141.863 130.602 141.179 131.298C140.639 131.838 139.901 132.108 138.965 132.108C137.945 132.108 137.147 131.76 136.571 131.064V135.69H134.735V122.874H136.535V123.846C137.135 123.126 137.939 122.766 138.947 122.766C139.895 122.766 140.639 123.036 141.179 123.576C141.863 124.272 142.205 125.556 142.205 127.428ZM140.297 128.598C140.345 128.274 140.369 127.884 140.369 127.428C140.369 126.972 140.345 126.582 140.297 126.258C140.261 125.934 140.177 125.622 140.045 125.322C139.925 125.022 139.733 124.794 139.469 124.638C139.205 124.482 138.875 124.404 138.479 124.404C138.071 124.404 137.735 124.482 137.471 124.638C137.207 124.794 137.009 125.022 136.877 125.322C136.757 125.622 136.673 125.934 136.625 126.258C136.589 126.582 136.571 126.972 136.571 127.428C136.571 127.884 136.589 128.274 136.625 128.598C136.673 128.922 136.757 129.24 136.877 129.552C137.009 129.852 137.207 130.08 137.471 130.236C137.747 130.392 138.083 130.47 138.479 130.47C138.875 130.47 139.205 130.392 139.469 130.236C139.733 130.08 139.925 129.852 140.045 129.552C140.177 129.24 140.261 128.922 140.297 128.598ZM151.403 122.874L147.371 133.818C146.939 135.018 146.093 135.618 144.833 135.618H144.095V133.962H144.563C144.947 133.962 145.229 133.896 145.409 133.764C145.589 133.644 145.745 133.392 145.877 133.008L146.381 131.568L143.177 122.874H145.139L147.317 129.318L149.441 122.874H151.403ZM159.626 132H157.79V128.634C156.83 128.826 155.96 128.922 155.18 128.922C154.4 128.922 153.77 128.706 153.29 128.274C152.822 127.83 152.588 127.2 152.588 126.384V122.874H154.424V125.934C154.424 126.834 154.868 127.284 155.756 127.284C156.308 127.284 156.986 127.212 157.79 127.068V122.874H159.626V132ZM164.434 132H162.58V122.874H164.434V132ZM170.392 132H168.142L164.452 127.248L167.926 122.874H170.122L166.486 127.158L170.392 132ZM178.381 132H176.581V131.172C176.245 131.508 175.891 131.748 175.519 131.892C175.159 132.036 174.703 132.108 174.151 132.108C173.071 132.108 172.255 131.832 171.703 131.28C171.223 130.776 170.983 130.122 170.983 129.318C170.983 128.526 171.253 127.89 171.793 127.41C172.345 126.93 173.131 126.69 174.151 126.69H176.545V126.042C176.545 125.454 176.389 125.022 176.077 124.746C175.765 124.47 175.255 124.332 174.547 124.332C174.067 124.332 173.677 124.404 173.377 124.548C173.089 124.68 172.813 124.908 172.549 125.232L171.361 124.098C171.781 123.606 172.231 123.264 172.711 123.072C173.203 122.868 173.839 122.766 174.619 122.766C177.127 122.766 178.381 123.81 178.381 125.898V132ZM176.545 128.706V127.968H174.439C173.323 127.968 172.765 128.406 172.765 129.282C172.765 130.146 173.341 130.578 174.493 130.578C175.225 130.578 175.777 130.404 176.149 130.056C176.413 129.804 176.545 129.354 176.545 128.706ZM190.54 127.86H185.284V126.15H190.54V127.86ZM204.652 132H197.2V130.362L202.132 124.368C202.588 123.816 202.816 123.246 202.816 122.658C202.816 122.07 202.648 121.602 202.312 121.254C201.988 120.894 201.532 120.714 200.944 120.714C200.404 120.714 199.954 120.876 199.594 121.2C199.234 121.524 199.054 122.022 199.054 122.694H197.218C197.218 121.614 197.566 120.744 198.262 120.084C198.958 119.412 199.852 119.076 200.944 119.076C202.048 119.076 202.942 119.406 203.626 120.066C204.31 120.714 204.652 121.584 204.652 122.676C204.652 123.204 204.556 123.666 204.364 124.062C204.184 124.446 203.878 124.908 203.446 125.448L199.432 130.362H204.652V132ZM214.286 127.716C214.286 128.496 214.214 129.15 214.07 129.678C213.926 130.206 213.638 130.686 213.206 131.118C212.534 131.79 211.634 132.126 210.506 132.126C209.342 132.126 208.43 131.796 207.77 131.136C207.206 130.572 206.882 129.756 206.798 128.688H208.634C208.79 129.876 209.414 130.47 210.506 130.47C211.058 130.47 211.502 130.302 211.838 129.966C212.246 129.558 212.45 128.808 212.45 127.716C212.45 125.928 211.826 125.034 210.578 125.034C209.606 125.034 209 125.418 208.76 126.186H207.086V119.184H213.998V120.822H208.742V124.206C209.21 123.714 209.918 123.468 210.866 123.468C211.85 123.468 212.618 123.744 213.17 124.296C213.914 125.04 214.286 126.18 214.286 127.716ZM228.352 120.822L224.068 132H222.088L226.39 120.822H222.484V122.838H220.72V119.184H228.352V120.822ZM237.68 128.436C237.68 129.552 237.326 130.446 236.618 131.118C235.91 131.778 235.028 132.108 233.972 132.108C232.928 132.108 232.052 131.778 231.344 131.118C230.636 130.446 230.282 129.552 230.282 128.436V122.748C230.282 121.632 230.636 120.744 231.344 120.084C232.052 119.412 232.928 119.076 233.972 119.076C235.028 119.076 235.91 119.412 236.618 120.084C237.326 120.744 237.68 121.632 237.68 122.748V128.436ZM235.844 128.382V122.802C235.844 122.178 235.676 121.674 235.34 121.29C235.004 120.906 234.548 120.714 233.972 120.714C233.408 120.714 232.958 120.906 232.622 121.29C232.286 121.674 232.118 122.178 232.118 122.802V128.382C232.118 129.006 232.286 129.51 232.622 129.894C232.958 130.278 233.408 130.47 233.972 130.47C234.548 130.47 235.004 130.278 235.34 129.894C235.676 129.51 235.844 129.006 235.844 128.382ZM247.529 128.382C247.529 129.51 247.151 130.416 246.395 131.1C245.639 131.772 244.697 132.108 243.569 132.108C242.441 132.108 241.499 131.772 240.743 131.1C239.999 130.416 239.627 129.51 239.627 128.382C239.627 127.086 240.215 126.084 241.391 125.376C240.359 124.752 239.843 123.834 239.843 122.622C239.843 121.566 240.197 120.714 240.905 120.066C241.613 119.406 242.501 119.076 243.569 119.076C244.637 119.076 245.525 119.406 246.233 120.066C246.953 120.714 247.313 121.566 247.313 122.622C247.313 123.834 246.797 124.752 245.765 125.376C246.941 126.084 247.529 127.086 247.529 128.382ZM245.063 129.858C245.471 129.45 245.675 128.946 245.675 128.346C245.675 127.746 245.471 127.242 245.063 126.834C244.655 126.414 244.157 126.204 243.569 126.204C242.981 126.204 242.483 126.414 242.075 126.834C241.667 127.242 241.463 127.746 241.463 128.346C241.463 128.946 241.667 129.45 242.075 129.858C242.483 130.266 242.981 130.47 243.569 130.47C244.157 130.47 244.655 130.266 245.063 129.858ZM244.937 124.08C245.297 123.708 245.477 123.24 245.477 122.676C245.477 122.112 245.297 121.644 244.937 121.272C244.577 120.9 244.121 120.714 243.569 120.714C243.017 120.714 242.561 120.9 242.201 121.272C241.853 121.644 241.679 122.112 241.679 122.676C241.679 123.24 241.853 123.708 242.201 124.08C242.561 124.44 243.017 124.62 243.569 124.62C244.121 124.62 244.577 124.44 244.937 124.08ZM261.325 127.716C261.325 128.496 261.253 129.15 261.109 129.678C260.965 130.206 260.677 130.686 260.245 131.118C259.573 131.79 258.673 132.126 257.545 132.126C256.381 132.126 255.469 131.796 254.809 131.136C254.245 130.572 253.921 129.756 253.837 128.688H255.673C255.829 129.876 256.453 130.47 257.545 130.47C258.097 130.47 258.541 130.302 258.877 129.966C259.285 129.558 259.489 128.808 259.489 127.716C259.489 125.928 258.865 125.034 257.617 125.034C256.645 125.034 256.039 125.418 255.799 126.186H254.125V119.184H261.037V120.822H255.781V124.206C256.249 123.714 256.957 123.468 257.905 123.468C258.889 123.468 259.657 123.744 260.209 124.296C260.953 125.04 261.325 126.18 261.325 127.716ZM270.797 128.436C270.797 129.552 270.443 130.446 269.735 131.118C269.027 131.778 268.145 132.108 267.089 132.108C266.045 132.108 265.169 131.778 264.461 131.118C263.753 130.446 263.399 129.552 263.399 128.436V122.748C263.399 121.632 263.753 120.744 264.461 120.084C265.169 119.412 266.045 119.076 267.089 119.076C268.145 119.076 269.027 119.412 269.735 120.084C270.443 120.744 270.797 121.632 270.797 122.748V128.436ZM268.961 128.382V122.802C268.961 122.178 268.793 121.674 268.457 121.29C268.121 120.906 267.665 120.714 267.089 120.714C266.525 120.714 266.075 120.906 265.739 121.29C265.403 121.674 265.235 122.178 265.235 122.802V128.382C265.235 129.006 265.403 129.51 265.739 129.894C266.075 130.278 266.525 130.47 267.089 130.47C267.665 130.47 268.121 130.278 268.457 129.894C268.793 129.51 268.961 129.006 268.961 128.382ZM280.394 128.436C280.394 129.552 280.04 130.446 279.332 131.118C278.624 131.778 277.742 132.108 276.686 132.108C275.642 132.108 274.766 131.778 274.058 131.118C273.35 130.446 272.996 129.552 272.996 128.436V122.748C272.996 121.632 273.35 120.744 274.058 120.084C274.766 119.412 275.642 119.076 276.686 119.076C277.742 119.076 278.624 119.412 279.332 120.084C280.04 120.744 280.394 121.632 280.394 122.748V128.436ZM278.558 128.382V122.802C278.558 122.178 278.39 121.674 278.054 121.29C277.718 120.906 277.262 120.714 276.686 120.714C276.122 120.714 275.672 120.906 275.336 121.29C275 121.674 274.832 122.178 274.832 122.802V128.382C274.832 129.006 275 129.51 275.336 129.894C275.672 130.278 276.122 130.47 276.686 130.47C277.262 130.47 277.718 130.278 278.054 129.894C278.39 129.51 278.558 129.006 278.558 128.382ZM294.748 127.428C294.748 129.312 294.406 130.602 293.722 131.298C293.182 131.838 292.444 132.108 291.508 132.108C290.488 132.108 289.69 131.76 289.114 131.064V135.69H287.278V122.874H289.078V123.846C289.678 123.126 290.482 122.766 291.49 122.766C292.438 122.766 293.182 123.036 293.722 123.576C294.406 124.272 294.748 125.556 294.748 127.428ZM292.84 128.598C292.888 128.274 292.912 127.884 292.912 127.428C292.912 126.972 292.888 126.582 292.84 126.258C292.804 125.934 292.72 125.622 292.588 125.322C292.468 125.022 292.276 124.794 292.012 124.638C291.748 124.482 291.418 124.404 291.022 124.404C290.614 124.404 290.278 124.482 290.014 124.638C289.75 124.794 289.552 125.022 289.42 125.322C289.3 125.622 289.216 125.934 289.168 126.258C289.132 126.582 289.114 126.972 289.114 127.428C289.114 127.884 289.132 128.274 289.168 128.598C289.216 128.922 289.3 129.24 289.42 129.552C289.552 129.852 289.75 130.08 290.014 130.236C290.29 130.392 290.626 130.47 291.022 130.47C291.418 130.47 291.748 130.392 292.012 130.236C292.276 130.08 292.468 129.852 292.588 129.552C292.72 129.24 292.804 128.922 292.84 128.598ZM303.946 122.874L299.914 133.818C299.482 135.018 298.636 135.618 297.376 135.618H296.638V133.962H297.106C297.49 133.962 297.772 133.896 297.952 133.764C298.132 133.644 298.288 133.392 298.42 133.008L298.924 131.568L295.72 122.874H297.682L299.86 129.318L301.984 122.874H303.946ZM309.052 130.452C309.628 130.452 310.078 130.272 310.402 129.912C310.786 129.456 310.978 128.646 310.978 127.482C310.978 126.27 310.792 125.454 310.42 125.034C310.072 124.65 309.616 124.458 309.052 124.458C308.464 124.458 308.002 124.65 307.666 125.034C307.258 125.502 307.054 126.306 307.054 127.446C307.054 128.598 307.27 129.42 307.702 129.912C308.05 130.272 308.5 130.452 309.052 130.452ZM309.07 132.108C308.302 132.108 307.63 131.946 307.054 131.622C306.478 131.298 306.052 130.83 305.776 130.218C305.416 129.45 305.236 128.106 305.236 126.186C305.236 124.194 305.32 122.826 305.488 122.082C305.656 121.338 306.028 120.72 306.604 120.228C306.976 119.904 307.462 119.658 308.062 119.49C308.674 119.322 309.232 119.22 309.736 119.184C310.252 119.148 311.032 119.112 312.076 119.076V120.696C311.896 120.708 311.572 120.726 311.104 120.75C310.636 120.774 310.252 120.798 309.952 120.822C309.652 120.846 309.31 120.906 308.926 121.002C308.542 121.098 308.23 121.23 307.99 121.398C307.57 121.674 307.282 122.022 307.126 122.442C306.97 122.85 306.892 123.396 306.892 124.08C307.084 123.72 307.408 123.432 307.864 123.216C308.332 123 308.842 122.892 309.394 122.892C310.33 122.892 311.074 123.15 311.626 123.666C312.418 124.41 312.814 125.658 312.814 127.41C312.814 129.102 312.442 130.326 311.698 131.082C311.038 131.766 310.162 132.108 309.07 132.108ZM317.405 132H315.209V129.804H317.405V132ZM117.972 154H116.028V148.978C114.612 149.254 113.466 149.392 112.59 149.392C111.654 149.392 110.862 149.134 110.214 148.618C109.578 148.09 109.26 147.298 109.26 146.242V141.184H111.222V145.774C111.222 147.022 111.876 147.646 113.184 147.646C113.976 147.646 114.924 147.526 116.028 147.286V141.184H117.972V154ZM128.69 154H126.854V147.718L122.948 154H121.112V144.874H122.948V151.066L126.854 144.874H128.69V154ZM138.212 152.812C137.396 153.676 136.394 154.108 135.206 154.108C134.666 154.108 134.162 154.024 133.694 153.856C133.226 153.676 132.794 153.412 132.398 153.064C132.014 152.704 131.708 152.218 131.48 151.606C131.252 150.982 131.138 150.256 131.138 149.428C131.138 148.6 131.252 147.88 131.48 147.268C131.708 146.644 132.014 146.158 132.398 145.81C132.794 145.45 133.226 145.186 133.694 145.018C134.162 144.85 134.666 144.766 135.206 144.766C136.406 144.766 137.408 145.192 138.212 146.044L136.952 147.268C136.664 146.956 136.388 146.734 136.124 146.602C135.872 146.47 135.566 146.404 135.206 146.404C134.486 146.404 133.922 146.674 133.514 147.214C133.154 147.67 132.974 148.408 132.974 149.428C132.974 150.46 133.154 151.204 133.514 151.66C133.922 152.2 134.486 152.47 135.206 152.47C135.566 152.47 135.872 152.404 136.124 152.272C136.388 152.14 136.664 151.918 136.952 151.606L138.212 152.812ZM146.695 146.476H143.905V154H142.069V146.476H139.171V144.874H146.695V146.476ZM154.985 154H153.185V153.172C152.849 153.508 152.495 153.748 152.123 153.892C151.763 154.036 151.307 154.108 150.755 154.108C149.675 154.108 148.859 153.832 148.307 153.28C147.827 152.776 147.587 152.122 147.587 151.318C147.587 150.526 147.857 149.89 148.397 149.41C148.949 148.93 149.735 148.69 150.755 148.69H153.149V148.042C153.149 147.454 152.993 147.022 152.681 146.746C152.369 146.47 151.859 146.332 151.151 146.332C150.671 146.332 150.281 146.404 149.981 146.548C149.693 146.68 149.417 146.908 149.153 147.232L147.965 146.098C148.385 145.606 148.835 145.264 149.315 145.072C149.807 144.868 150.443 144.766 151.223 144.766C153.731 144.766 154.985 145.81 154.985 147.898V154ZM153.149 150.706V149.968H151.043C149.927 149.968 149.369 150.406 149.369 151.282C149.369 152.146 149.945 152.578 151.097 152.578C151.829 152.578 152.381 152.404 152.753 152.056C153.017 151.804 153.149 151.354 153.149 150.706ZM162.639 149.122V146.35H160.497C160.029 146.35 159.663 146.476 159.399 146.728C159.135 146.98 159.003 147.322 159.003 147.754C159.003 148.186 159.135 148.522 159.399 148.762C159.663 149.002 160.029 149.122 160.497 149.122H162.639ZM159.219 154H157.113L159.093 150.256C158.505 150.088 158.043 149.776 157.707 149.32C157.371 148.864 157.203 148.312 157.203 147.664C157.203 146.836 157.473 146.164 158.013 145.648C158.565 145.132 159.279 144.874 160.155 144.874H164.457V154H162.621V150.598H160.947L159.219 154ZM179.01 154H177.174V146.476H173.538V154H171.702V144.874H179.01V154ZM189.315 149.428C189.315 151.312 188.973 152.602 188.289 153.298C187.749 153.838 187.011 154.108 186.075 154.108C185.055 154.108 184.257 153.76 183.681 153.064V157.69H181.845V144.874H183.645V145.846C184.245 145.126 185.049 144.766 186.057 144.766C187.005 144.766 187.749 145.036 188.289 145.576C188.973 146.272 189.315 147.556 189.315 149.428ZM187.407 150.598C187.455 150.274 187.479 149.884 187.479 149.428C187.479 148.972 187.455 148.582 187.407 148.258C187.371 147.934 187.287 147.622 187.155 147.322C187.035 147.022 186.843 146.794 186.579 146.638C186.315 146.482 185.985 146.404 185.589 146.404C185.181 146.404 184.845 146.482 184.581 146.638C184.317 146.794 184.119 147.022 183.987 147.322C183.867 147.622 183.783 147.934 183.735 148.258C183.699 148.582 183.681 148.972 183.681 149.428C183.681 149.884 183.699 150.274 183.735 150.598C183.783 150.922 183.867 151.24 183.987 151.552C184.119 151.852 184.317 152.08 184.581 152.236C184.857 152.392 185.193 152.47 185.589 152.47C185.985 152.47 186.315 152.392 186.579 152.236C186.843 152.08 187.035 151.852 187.155 151.552C187.287 151.24 187.371 150.922 187.407 150.598ZM199.372 154H197.536V147.718L193.63 154H191.794V144.874H193.63V151.066L197.536 144.874H199.372V154ZM205.816 152.452C206.392 152.452 206.842 152.272 207.166 151.912C207.55 151.456 207.742 150.646 207.742 149.482C207.742 148.27 207.556 147.454 207.184 147.034C206.836 146.65 206.38 146.458 205.816 146.458C205.228 146.458 204.766 146.65 204.43 147.034C204.022 147.502 203.818 148.306 203.818 149.446C203.818 150.598 204.034 151.42 204.466 151.912C204.814 152.272 205.264 152.452 205.816 152.452ZM205.834 154.108C205.066 154.108 204.394 153.946 203.818 153.622C203.242 153.298 202.816 152.83 202.54 152.218C202.18 151.45 202 150.106 202 148.186C202 146.194 202.084 144.826 202.252 144.082C202.42 143.338 202.792 142.72 203.368 142.228C203.74 141.904 204.226 141.658 204.826 141.49C205.438 141.322 205.996 141.22 206.5 141.184C207.016 141.148 207.796 141.112 208.84 141.076V142.696C208.66 142.708 208.336 142.726 207.868 142.75C207.4 142.774 207.016 142.798 206.716 142.822C206.416 142.846 206.074 142.906 205.69 143.002C205.306 143.098 204.994 143.23 204.754 143.398C204.334 143.674 204.046 144.022 203.89 144.442C203.734 144.85 203.656 145.396 203.656 146.08C203.848 145.72 204.172 145.432 204.628 145.216C205.096 145 205.606 144.892 206.158 144.892C207.094 144.892 207.838 145.15 208.39 145.666C209.182 146.41 209.578 147.658 209.578 149.41C209.578 151.102 209.206 152.326 208.462 153.082C207.802 153.766 206.926 154.108 205.834 154.108ZM222.322 154H220.486V144.874H222.322V154ZM218.398 149.104C218.95 149.632 219.226 150.316 219.226 151.156C219.226 151.996 218.95 152.68 218.398 153.208C217.858 153.736 217.144 154 216.256 154H212.026V144.874H213.862V148.312H216.256C217.144 148.312 217.858 148.576 218.398 149.104ZM217.012 152.146C217.276 151.906 217.408 151.576 217.408 151.156C217.408 150.736 217.276 150.412 217.012 150.184C216.76 149.944 216.406 149.824 215.95 149.824H213.862V152.506H215.95C216.406 152.506 216.76 152.386 217.012 152.146ZM232.442 154H230.606V146.476H227.96V149.122C227.96 150.07 227.894 150.868 227.762 151.516C227.63 152.164 227.432 152.668 227.168 153.028C226.904 153.376 226.598 153.628 226.25 153.784C225.914 153.928 225.512 154 225.044 154H224.18V152.38H224.468C224.66 152.38 224.822 152.368 224.954 152.344C225.086 152.308 225.236 152.224 225.404 152.092C225.584 151.948 225.722 151.756 225.818 151.516C225.926 151.264 226.016 150.898 226.088 150.418C226.16 149.926 226.196 149.344 226.196 148.672V144.874H232.442V154ZM241.742 149.104C242.294 149.62 242.57 150.304 242.57 151.156C242.57 152.008 242.294 152.698 241.742 153.226C241.202 153.742 240.494 154 239.618 154H235.37V144.874H237.206V148.312H239.618C240.494 148.312 241.202 148.576 241.742 149.104ZM240.374 152.146C240.626 151.906 240.752 151.576 240.752 151.156C240.752 150.736 240.626 150.412 240.374 150.184C240.122 149.944 239.768 149.824 239.312 149.824H237.206V152.506H239.312C239.768 152.506 240.122 152.386 240.374 152.146ZM254.015 149.86H248.759V148.15H254.015V149.86ZM268.163 149.716C268.163 150.496 268.091 151.15 267.947 151.678C267.803 152.206 267.515 152.686 267.083 153.118C266.411 153.79 265.511 154.126 264.383 154.126C263.219 154.126 262.307 153.796 261.647 153.136C261.083 152.572 260.759 151.756 260.675 150.688H262.511C262.667 151.876 263.291 152.47 264.383 152.47C264.935 152.47 265.379 152.302 265.715 151.966C266.123 151.558 266.327 150.808 266.327 149.716C266.327 147.928 265.703 147.034 264.455 147.034C263.483 147.034 262.877 147.418 262.637 148.186H260.963V141.184H267.875V142.822H262.619V146.206C263.087 145.714 263.795 145.468 264.743 145.468C265.727 145.468 266.495 145.744 267.047 146.296C267.791 147.04 268.163 148.18 268.163 149.716ZM282.067 150.4C282.067 151.588 281.695 152.506 280.951 153.154C280.207 153.802 279.271 154.126 278.143 154.126C277.039 154.126 276.115 153.826 275.371 153.226C274.639 152.614 274.255 151.714 274.219 150.526H276.055C276.091 151.174 276.301 151.66 276.685 151.984C277.081 152.308 277.567 152.47 278.143 152.47C278.755 152.47 279.253 152.284 279.637 151.912C280.033 151.528 280.231 151.006 280.231 150.346C280.231 149.686 280.051 149.17 279.691 148.798C279.331 148.426 278.797 148.24 278.089 148.24H277.783V146.638H278.089C278.737 146.638 279.223 146.464 279.547 146.116C279.871 145.768 280.033 145.294 280.033 144.694C280.033 144.07 279.853 143.584 279.493 143.236C279.133 142.888 278.683 142.714 278.143 142.714C277.591 142.714 277.141 142.882 276.793 143.218C276.457 143.542 276.265 143.986 276.217 144.55H274.381C274.429 143.482 274.807 142.636 275.515 142.012C276.223 141.376 277.099 141.058 278.143 141.058C279.235 141.058 280.129 141.394 280.825 142.066C281.521 142.726 281.869 143.584 281.869 144.64C281.869 145.936 281.335 146.848 280.267 147.376C281.467 147.904 282.067 148.912 282.067 150.4ZM291.647 154H284.195V152.362L289.127 146.368C289.583 145.816 289.811 145.246 289.811 144.658C289.811 144.07 289.643 143.602 289.307 143.254C288.983 142.894 288.527 142.714 287.939 142.714C287.399 142.714 286.949 142.876 286.589 143.2C286.229 143.524 286.049 144.022 286.049 144.694H284.213C284.213 143.614 284.561 142.744 285.257 142.084C285.953 141.412 286.847 141.076 287.939 141.076C289.043 141.076 289.937 141.406 290.621 142.066C291.305 142.714 291.647 143.584 291.647 144.676C291.647 145.204 291.551 145.666 291.359 146.062C291.179 146.446 290.873 146.908 290.441 147.448L286.427 152.362H291.647V154ZM301.154 150.436C301.154 151.552 300.8 152.446 300.092 153.118C299.384 153.778 298.502 154.108 297.446 154.108C296.402 154.108 295.526 153.778 294.818 153.118C294.11 152.446 293.756 151.552 293.756 150.436V144.748C293.756 143.632 294.11 142.744 294.818 142.084C295.526 141.412 296.402 141.076 297.446 141.076C298.502 141.076 299.384 141.412 300.092 142.084C300.8 142.744 301.154 143.632 301.154 144.748V150.436ZM299.318 150.382V144.802C299.318 144.178 299.15 143.674 298.814 143.29C298.478 142.906 298.022 142.714 297.446 142.714C296.882 142.714 296.432 142.906 296.096 143.29C295.76 143.674 295.592 144.178 295.592 144.802V150.382C295.592 151.006 295.76 151.51 296.096 151.894C296.432 152.278 296.882 152.47 297.446 152.47C298.022 152.47 298.478 152.278 298.814 151.894C299.15 151.51 299.318 151.006 299.318 150.382ZM315.166 144.91C315.166 145.738 314.848 146.788 314.212 148.06L311.296 154H309.334L312.088 148.492C311.776 148.624 311.392 148.69 310.936 148.69C309.988 148.69 309.19 148.348 308.542 147.664C307.906 146.98 307.588 146.086 307.588 144.982C307.588 143.806 307.936 142.864 308.632 142.156C309.34 141.436 310.252 141.076 311.368 141.076C312.496 141.076 313.408 141.424 314.104 142.12C314.812 142.804 315.166 143.734 315.166 144.91ZM313.33 144.946C313.33 144.274 313.15 143.734 312.79 143.326C312.43 142.918 311.956 142.714 311.368 142.714C310.792 142.714 310.324 142.918 309.964 143.326C309.604 143.722 309.424 144.262 309.424 144.946C309.424 145.594 309.598 146.128 309.946 146.548C310.294 146.956 310.768 147.16 311.368 147.16C311.956 147.16 312.43 146.962 312.79 146.566C313.15 146.17 313.33 145.63 313.33 144.946ZM324.944 142.822L320.66 154H318.68L322.982 142.822H319.076V144.838H317.312V141.184H324.944V142.822ZM334.271 150.436C334.271 151.552 333.917 152.446 333.209 153.118C332.501 153.778 331.619 154.108 330.563 154.108C329.519 154.108 328.643 153.778 327.935 153.118C327.227 152.446 326.873 151.552 326.873 150.436V144.748C326.873 143.632 327.227 142.744 327.935 142.084C328.643 141.412 329.519 141.076 330.563 141.076C331.619 141.076 332.501 141.412 333.209 142.084C333.917 142.744 334.271 143.632 334.271 144.748V150.436ZM332.435 150.382V144.802C332.435 144.178 332.267 143.674 331.931 143.29C331.595 142.906 331.139 142.714 330.563 142.714C329.999 142.714 329.549 142.906 329.213 143.29C328.877 143.674 328.709 144.178 328.709 144.802V150.382C328.709 151.006 328.877 151.51 329.213 151.894C329.549 152.278 329.999 152.47 330.563 152.47C331.139 152.47 331.595 152.278 331.931 151.894C332.267 151.51 332.435 151.006 332.435 150.382ZM348.625 149.428C348.625 151.312 348.283 152.602 347.599 153.298C347.059 153.838 346.321 154.108 345.385 154.108C344.365 154.108 343.567 153.76 342.991 153.064V157.69H341.155V144.874H342.955V145.846C343.555 145.126 344.359 144.766 345.367 144.766C346.315 144.766 347.059 145.036 347.599 145.576C348.283 146.272 348.625 147.556 348.625 149.428ZM346.717 150.598C346.765 150.274 346.789 149.884 346.789 149.428C346.789 148.972 346.765 148.582 346.717 148.258C346.681 147.934 346.597 147.622 346.465 147.322C346.345 147.022 346.153 146.794 345.889 146.638C345.625 146.482 345.295 146.404 344.899 146.404C344.491 146.404 344.155 146.482 343.891 146.638C343.627 146.794 343.429 147.022 343.297 147.322C343.177 147.622 343.093 147.934 343.045 148.258C343.009 148.582 342.991 148.972 342.991 149.428C342.991 149.884 343.009 150.274 343.045 150.598C343.093 150.922 343.177 151.24 343.297 151.552C343.429 151.852 343.627 152.08 343.891 152.236C344.167 152.392 344.503 152.47 344.899 152.47C345.295 152.47 345.625 152.392 345.889 152.236C346.153 152.08 346.345 151.852 346.465 151.552C346.597 151.24 346.681 150.922 346.717 150.598ZM357.823 144.874L353.791 155.818C353.359 157.018 352.513 157.618 351.253 157.618H350.515V155.962H350.983C351.367 155.962 351.649 155.896 351.829 155.764C352.009 155.644 352.165 155.392 352.297 155.008L352.801 153.568L349.597 144.874H351.559L353.737 151.318L355.861 144.874H357.823ZM362.929 152.452C363.505 152.452 363.955 152.272 364.279 151.912C364.663 151.456 364.855 150.646 364.855 149.482C364.855 148.27 364.669 147.454 364.297 147.034C363.949 146.65 363.493 146.458 362.929 146.458C362.341 146.458 361.879 146.65 361.543 147.034C361.135 147.502 360.931 148.306 360.931 149.446C360.931 150.598 361.147 151.42 361.579 151.912C361.927 152.272 362.377 152.452 362.929 152.452ZM362.947 154.108C362.179 154.108 361.507 153.946 360.931 153.622C360.355 153.298 359.929 152.83 359.653 152.218C359.293 151.45 359.113 150.106 359.113 148.186C359.113 146.194 359.197 144.826 359.365 144.082C359.533 143.338 359.905 142.72 360.481 142.228C360.853 141.904 361.339 141.658 361.939 141.49C362.551 141.322 363.109 141.22 363.613 141.184C364.129 141.148 364.909 141.112 365.953 141.076V142.696C365.773 142.708 365.449 142.726 364.981 142.75C364.513 142.774 364.129 142.798 363.829 142.822C363.529 142.846 363.187 142.906 362.803 143.002C362.419 143.098 362.107 143.23 361.867 143.398C361.447 143.674 361.159 144.022 361.003 144.442C360.847 144.85 360.769 145.396 360.769 146.08C360.961 145.72 361.285 145.432 361.741 145.216C362.209 145 362.719 144.892 363.271 144.892C364.207 144.892 364.951 145.15 365.503 145.666C366.295 146.41 366.691 147.658 366.691 149.41C366.691 151.102 366.319 152.326 365.575 153.082C364.915 153.766 364.039 154.108 362.947 154.108ZM371.282 154H369.086V151.804H371.282V154Z" fill="white"/>
<path d="M124.836 35.7041C124.786 36.7926 124.492 37.7559 123.955 38.5938C123.418 39.4245 122.662 40.069 121.688 40.5273C120.722 40.9857 119.615 41.2148 118.369 41.2148C116.314 41.2148 114.695 40.5452 113.514 39.2061C112.332 37.8669 111.741 35.9762 111.741 33.5342V32.7607C111.741 31.2282 112.006 29.889 112.536 28.7432C113.073 27.5902 113.843 26.7021 114.846 26.0791C115.848 25.4489 117.008 25.1338 118.326 25.1338C120.224 25.1338 121.749 25.6351 122.902 26.6377C124.055 27.6331 124.711 29.0081 124.868 30.7627H121.108C121.08 29.8102 120.84 29.1263 120.389 28.7109C119.938 28.2956 119.25 28.0879 118.326 28.0879C117.388 28.0879 116.701 28.4388 116.264 29.1406C115.827 29.8424 115.598 30.9632 115.576 32.5029V33.6094C115.576 35.278 115.784 36.4704 116.199 37.1865C116.622 37.9027 117.345 38.2607 118.369 38.2607C119.236 38.2607 119.898 38.0566 120.356 37.6484C120.815 37.2402 121.058 36.5921 121.087 35.7041H124.836ZM130.39 35.6934V41H126.619V25.3594H132.86C134.056 25.3594 135.113 25.5814 136.029 26.0254C136.953 26.4622 137.666 27.0889 138.167 27.9053C138.675 28.7145 138.93 29.6348 138.93 30.666C138.93 32.1914 138.382 33.4124 137.286 34.3291C136.198 35.2386 134.701 35.6934 132.796 35.6934H130.39ZM130.39 32.7822H132.86C133.591 32.7822 134.146 32.5996 134.525 32.2344C134.912 31.8691 135.105 31.3535 135.105 30.6875C135.105 29.957 134.909 29.3734 134.515 28.9365C134.121 28.4997 133.584 28.2777 132.903 28.2705H130.39V32.7822ZM154.194 33.502C154.194 35.0273 153.911 36.3773 153.346 37.5518C152.78 38.7262 151.974 39.6322 150.929 40.2695C149.89 40.8997 148.705 41.2148 147.373 41.2148C146.041 41.2148 144.859 40.9105 143.828 40.3018C142.797 39.6859 141.991 38.8086 141.411 37.6699C140.838 36.5312 140.537 35.2243 140.509 33.749V32.8682C140.509 31.3356 140.788 29.9857 141.347 28.8184C141.912 27.6439 142.718 26.738 143.764 26.1006C144.816 25.4632 146.012 25.1445 147.352 25.1445C148.676 25.1445 149.858 25.4596 150.896 26.0898C151.935 26.7201 152.741 27.6188 153.313 28.7861C153.894 29.9463 154.187 31.2783 154.194 32.7822V33.502ZM150.359 32.8467C150.359 31.2926 150.098 30.1146 149.575 29.3125C149.06 28.5033 148.318 28.0986 147.352 28.0986C145.461 28.0986 144.462 29.5166 144.354 32.3525L144.344 33.502C144.344 35.0345 144.598 36.2126 145.106 37.0361C145.615 37.8597 146.37 38.2715 147.373 38.2715C148.326 38.2715 149.06 37.8669 149.575 37.0576C150.091 36.2484 150.352 35.0846 150.359 33.5664V32.8467ZM169.169 25.3594V41H165.409V35.2207L164.303 35.3604L162.917 35.4463C160.812 35.4463 159.2 34.9915 158.083 34.082C156.966 33.1654 156.4 31.8691 156.386 30.1934V25.3594H160.156V30.1396C160.156 30.9919 160.36 31.6077 160.769 31.9873C161.184 32.3597 161.9 32.5459 162.917 32.5459L163.239 32.5352C164.12 32.4922 164.843 32.4242 165.409 32.3311V25.3594H169.169ZM184.595 41H180.846V34.4688H175.292V41H171.521V25.3594H175.292V31.5684H180.846V25.3594H184.595V41ZM190.761 30.7412H192.705C193.944 30.7412 195.04 30.9525 195.992 31.375C196.945 31.7975 197.675 32.3955 198.184 33.1689C198.699 33.9352 198.957 34.8161 198.957 35.8115C198.957 37.3512 198.384 38.6009 197.238 39.5605C196.1 40.5202 194.567 41 192.641 41H186.979V25.3594H190.761V30.7412ZM203.855 41H200.096V25.3594H203.855V41ZM190.761 33.6416V38.0996H192.694C193.461 38.0996 194.066 37.8848 194.51 37.4551C194.961 37.0254 195.187 36.4704 195.187 35.79C195.187 35.1455 194.965 34.6263 194.521 34.2324C194.076 33.8385 193.461 33.6416 192.673 33.6416H190.761ZM215.35 25.3594H219.12V41H215.35V31.1387L209.731 41H205.961V25.3594H209.731V35.2314L215.35 25.3594ZM216.542 21.1484C216.542 22.1296 216.18 22.9245 215.457 23.5332C214.734 24.1419 213.771 24.4463 212.567 24.4463C211.364 24.4463 210.401 24.1419 209.678 23.5332C208.954 22.9245 208.593 22.1296 208.593 21.1484H211.053C211.053 21.5781 211.185 21.9147 211.45 22.1582C211.722 22.3945 212.095 22.5127 212.567 22.5127C213.04 22.5127 213.405 22.3981 213.663 22.1689C213.928 21.9326 214.061 21.5924 214.061 21.1484H216.542ZM226.908 41V25.3594H232.526C234.539 25.3594 236.068 25.7282 237.113 26.4658C238.166 27.2035 238.692 28.2741 238.692 29.6777C238.692 30.487 238.506 31.1781 238.134 31.751C237.761 32.3239 237.214 32.7464 236.49 33.0186C237.307 33.2334 237.933 33.6344 238.37 34.2217C238.807 34.8089 239.025 35.5251 239.025 36.3701C239.025 37.9027 238.538 39.0557 237.564 39.8291C236.598 40.5954 235.162 40.9857 233.257 41H226.908ZM230.679 34.3506V38.0996H233.149C233.83 38.0996 234.353 37.9456 234.718 37.6377C235.083 37.3226 235.266 36.8822 235.266 36.3164C235.266 35.013 234.618 34.3577 233.321 34.3506H230.679ZM230.679 31.8799H232.645C233.468 31.8727 234.055 31.7223 234.406 31.4287C234.757 31.1351 234.933 30.7018 234.933 30.1289C234.933 29.4701 234.743 28.9974 234.363 28.7109C233.984 28.4173 233.371 28.2705 232.526 28.2705H230.679V31.8799ZM244.88 30.7412H246.824C248.063 30.7412 249.159 30.9525 250.111 31.375C251.064 31.7975 251.794 32.3955 252.303 33.1689C252.818 33.9352 253.076 34.8161 253.076 35.8115C253.076 37.3512 252.503 38.6009 251.357 39.5605C250.219 40.5202 248.686 41 246.76 41H241.099V25.3594H244.88V30.7412ZM257.975 41H254.215V25.3594H257.975V41ZM244.88 33.6416V38.0996H246.813C247.58 38.0996 248.185 37.8848 248.629 37.4551C249.08 37.0254 249.306 36.4704 249.306 35.79C249.306 35.1455 249.084 34.6263 248.64 34.2324C248.196 33.8385 247.58 33.6416 246.792 33.6416H244.88ZM265.827 34.8125H264.044V41H260.273V25.3594H264.044V31.4072H265.494L268.502 25.3594H273.067L268.771 32.5781L273.604 41H269.146L265.827 34.8125ZM280.608 32.1484V32.1592L283.197 25.3594H287.172L281.908 37.7666C281.342 39.0199 280.705 39.9043 279.996 40.4199C279.294 40.9284 278.471 41.1969 277.525 41.2256H276.763L276.183 41.2041L276.118 38.2822C276.204 38.3109 276.455 38.3252 276.87 38.3252C277.443 38.3252 277.873 38.2285 278.159 38.0352C278.453 37.8346 278.689 37.4515 278.868 36.8857L279.051 36.3701L273.4 25.3594H277.407L280.608 32.1484ZM301.599 41H297.828V28.2705H292.21V41H288.439V25.3594H301.599V41ZM121.065 64.0781H115.898L114.996 67H110.968L116.704 51.3594H120.249L126.028 67H121.979L121.065 64.0781ZM116.801 61.167H120.163L118.477 55.7422L116.801 61.167ZM127.178 67V51.3594H132.796C134.808 51.3594 136.337 51.7282 137.383 52.4658C138.436 53.2035 138.962 54.2741 138.962 55.6777C138.962 56.487 138.776 57.1781 138.403 57.751C138.031 58.3239 137.483 58.7464 136.76 59.0186C137.576 59.2334 138.203 59.6344 138.64 60.2217C139.076 60.8089 139.295 61.5251 139.295 62.3701C139.295 63.9027 138.808 65.0557 137.834 65.8291C136.867 66.5954 135.431 66.9857 133.526 67H127.178ZM130.948 60.3506V64.0996H133.419C134.099 64.0996 134.622 63.9456 134.987 63.6377C135.353 63.3226 135.535 62.8822 135.535 62.3164C135.535 61.013 134.887 60.3577 133.591 60.3506H130.948ZM130.948 57.8799H132.914C133.738 57.8727 134.325 57.7223 134.676 57.4287C135.027 57.1351 135.202 56.7018 135.202 56.1289C135.202 55.4701 135.012 54.9974 134.633 54.7109C134.253 54.4173 133.641 54.2705 132.796 54.2705H130.948V57.8799ZM153.356 54.2705H148.662V67H144.892V54.2705H140.283V51.3594H153.356V54.2705ZM167.901 59.502C167.901 61.0273 167.618 62.3773 167.053 63.5518C166.487 64.7262 165.681 65.6322 164.636 66.2695C163.597 66.8997 162.412 67.2148 161.08 67.2148C159.748 67.2148 158.566 66.9105 157.535 66.3018C156.504 65.6859 155.698 64.8086 155.118 63.6699C154.545 62.5312 154.244 61.2243 154.216 59.749V58.8682C154.216 57.3356 154.495 55.9857 155.054 54.8184C155.619 53.6439 156.425 52.738 157.471 52.1006C158.523 51.4632 159.719 51.1445 161.059 51.1445C162.383 51.1445 163.565 51.4596 164.604 52.0898C165.642 52.7201 166.448 53.6188 167.021 54.7861C167.601 55.9463 167.894 57.2783 167.901 58.7822V59.502ZM164.066 58.8467C164.066 57.2926 163.805 56.1146 163.282 55.3125C162.767 54.5033 162.025 54.0986 161.059 54.0986C159.168 54.0986 158.169 55.5166 158.062 58.3525L158.051 59.502C158.051 61.0345 158.305 62.2126 158.813 63.0361C159.322 63.8597 160.077 64.2715 161.08 64.2715C162.033 64.2715 162.767 63.8669 163.282 63.0576C163.798 62.2484 164.059 61.0846 164.066 59.5664V58.8467ZM174.798 51.3594L178.289 62.2412L181.77 51.3594H186.732V67H182.951V63.3477L183.316 55.8711L179.535 67H177.043L173.251 55.8604L173.616 63.3477V67H169.846V51.3594H174.798ZM202.384 59.502C202.384 61.0273 202.101 62.3773 201.535 63.5518C200.969 64.7262 200.164 65.6322 199.118 66.2695C198.08 66.8997 196.895 67.2148 195.562 67.2148C194.23 67.2148 193.049 66.9105 192.018 66.3018C190.986 65.6859 190.181 64.8086 189.601 63.6699C189.028 62.5312 188.727 61.2243 188.698 59.749V58.8682C188.698 57.3356 188.978 55.9857 189.536 54.8184C190.102 53.6439 190.908 52.738 191.953 52.1006C193.006 51.4632 194.202 51.1445 195.541 51.1445C196.866 51.1445 198.048 51.4596 199.086 52.0898C200.124 52.7201 200.93 53.6188 201.503 54.7861C202.083 55.9463 202.377 57.2783 202.384 58.7822V59.502ZM198.549 58.8467C198.549 57.2926 198.287 56.1146 197.765 55.3125C197.249 54.5033 196.508 54.0986 195.541 54.0986C193.65 54.0986 192.651 55.5166 192.544 58.3525L192.533 59.502C192.533 61.0345 192.787 62.2126 193.296 63.0361C193.804 63.8597 194.56 64.2715 195.562 64.2715C196.515 64.2715 197.249 63.8669 197.765 63.0576C198.28 62.2484 198.542 61.0846 198.549 59.5664V58.8467ZM214.898 54.2705H208.12V56.7412H210.064C211.303 56.7412 212.399 56.9525 213.352 57.375C214.304 57.7975 215.035 58.3955 215.543 59.1689C216.059 59.9352 216.316 60.8161 216.316 61.8115C216.316 63.3512 215.743 64.6009 214.598 65.5605C213.459 66.5202 211.926 67 210 67H204.328V51.3594H214.898V54.2705ZM208.12 59.6416V64.0996H210.054C210.82 64.0996 211.425 63.8848 211.869 63.4551C212.32 63.0254 212.546 62.4704 212.546 61.79C212.546 61.1455 212.324 60.6263 211.88 60.2324C211.436 59.8385 210.82 59.6416 210.032 59.6416H208.12ZM227.252 51.3594H231.022V67H227.252V57.1387L221.634 67H217.863V51.3594H221.634V61.2314L227.252 51.3594ZM246.685 51.3594V67H242.914V54.2705H239.401L239.144 59.5234C239.036 61.3353 238.785 62.7819 238.392 63.8633C237.998 64.9447 237.436 65.736 236.705 66.2373C235.982 66.7314 234.993 66.9857 233.74 67H232.73V64.0996L233.257 64.0459C234.009 63.9385 234.553 63.4801 234.89 62.6709C235.226 61.8545 235.445 60.4831 235.545 58.5566L235.813 51.3594H246.685ZM258.737 60.3721H252.808V64.0996H259.812V67H249.037V51.3594H259.833V54.2705H252.808V57.5684H258.737V60.3721ZM270.521 51.3594H274.292V67H270.521V57.1387L264.903 67H261.133V51.3594H264.903V61.2314L270.521 51.3594ZM271.714 47.1484C271.714 48.1296 271.352 48.9245 270.629 49.5332C269.906 50.1419 268.942 50.4463 267.739 50.4463C266.536 50.4463 265.573 50.1419 264.85 49.5332C264.126 48.9245 263.765 48.1296 263.765 47.1484H266.225C266.225 47.5781 266.357 47.9147 266.622 48.1582C266.894 48.3945 267.267 48.5127 267.739 48.5127C268.212 48.5127 268.577 48.3981 268.835 48.1689C269.1 47.9326 269.232 47.5924 269.232 47.1484H271.714Z" fill="white"/>
<path d="M73.7461 122V124H75.7461V122H73.7461ZM14.2148 122H12.2148V124H14.2148V122ZM14.2148 109.109L12.7657 107.731L12.2148 108.31V109.109H14.2148ZM41.6367 80.2812L43.0858 81.6597L43.1133 81.6309L43.1395 81.601L41.6367 80.2812ZM35.0742 54.5586L36.6831 55.7467L36.6874 55.7408L36.6917 55.7349L35.0742 54.5586ZM32.2617 64.1094V66.1094H34.2617V64.1094H32.2617ZM12.457 64.1094H10.457V66.1094H12.457V64.1094ZM16.3828 49.6367L18.1032 50.6567L18.1071 50.6501L16.3828 49.6367ZM64.1367 41.8438L62.8341 43.3614L62.84 43.3665L64.1367 41.8438ZM69.7617 70.0273L71.6218 70.7622L71.6249 70.7544L69.7617 70.0273ZM63.9023 80.0469L62.3066 78.8412L62.3045 78.844L63.9023 80.0469ZM51.1875 94.0508L49.7733 92.6366L49.7227 92.6871L49.6759 92.7412L51.1875 94.0508ZM40.1719 106.766L38.6603 105.456L35.793 108.766H40.1719V106.766ZM73.7461 106.766H75.7461V104.766H73.7461V106.766ZM73.7461 120H14.2148V124H73.7461V120ZM16.2148 122V109.109H12.2148V122H16.2148ZM15.664 110.488L43.0858 81.6597L40.1876 78.9028L12.7657 107.731L15.664 110.488ZM43.1395 81.601C46.5738 77.6903 49.2066 74.1184 50.9897 70.8923C52.7619 67.6858 53.7734 64.6805 53.7734 61.9414H49.7734C49.7734 63.7336 49.0955 66.0505 47.4888 68.9573C45.8931 71.8445 43.4575 75.1769 40.1339 78.9615L43.1395 81.601ZM53.7734 61.9414C53.7734 58.015 52.9215 54.689 50.905 52.2791L47.8372 54.8459C49.0238 56.2641 49.7734 58.5241 49.7734 61.9414H53.7734ZM50.905 52.2791C48.8401 49.8113 45.8941 48.6914 42.3984 48.6914V52.6914C44.9965 52.6914 46.6989 53.4856 47.8372 54.8459L50.905 52.2791ZM42.3984 48.6914C38.7071 48.6914 35.6817 50.323 33.4567 53.3823L36.6917 55.7349C38.2168 53.638 40.0741 52.6914 42.3984 52.6914V48.6914ZM33.4654 53.3705C31.2861 56.3216 30.2617 59.9467 30.2617 64.1094H34.2617C34.2617 60.6158 35.1124 57.8737 36.6831 55.7467L33.4654 53.3705ZM32.2617 62.1094H12.457V66.1094H32.2617V62.1094ZM14.457 64.1094C14.457 59.2264 15.6728 54.7556 18.1031 50.6567L14.6625 48.6167C11.8584 53.3459 10.457 58.5236 10.457 64.1094H14.457ZM18.1071 50.6501C20.5344 46.5199 23.8953 43.2989 28.2286 40.9684L26.3339 37.4456C21.3703 40.1151 17.4656 43.8472 14.6586 48.6233L18.1071 50.6501ZM28.2286 40.9684C32.5607 38.6386 37.4259 37.457 42.8672 37.457V33.457C36.8241 33.457 31.2987 34.7755 26.3339 37.4456L28.2286 40.9684ZM42.8672 37.457C51.8021 37.457 58.36 39.5214 62.8342 43.3614L65.4393 40.3261C59.9916 35.6505 52.3698 33.457 42.8672 33.457V37.457ZM62.84 43.3665C67.2991 47.1636 69.6367 52.664 69.6367 60.1836H73.6367C73.6367 51.7657 70.9743 45.0395 65.4334 40.321L62.84 43.3665ZM69.6367 60.1836C69.6367 63.2883 69.0603 66.3233 67.8986 69.3003L71.6249 70.7544C72.9631 67.3251 73.6367 63.7976 73.6367 60.1836H69.6367ZM67.9016 69.2925C66.7343 72.2474 64.8841 75.4298 62.3066 78.8412L65.4981 81.2525C68.2331 77.6327 70.2892 74.1355 71.6218 70.7622L67.9016 69.2925ZM62.3045 78.844C59.7732 82.2065 55.6143 86.7956 49.7733 92.6366L52.6017 95.465C58.4795 89.5873 62.7972 84.8403 65.5002 81.2497L62.3045 78.844ZM49.6759 92.7412L38.6603 105.456L41.6835 108.075L52.6991 95.3604L49.6759 92.7412ZM40.1719 108.766H73.7461V104.766H40.1719V108.766ZM71.7461 106.766V122H75.7461V106.766H71.7461Z" fill="white"/>
</g>
<g clip-path="url(#clip1)">
<g filter="url(#filter2_d)">
<rect x="1" y="1" width="411" height="183" stroke="#FCAF17" stroke-width="2" shape-rendering="crispEdges"/>
</g>
<g filter="url(#filter3_d)">
<rect x="1" y="1" width="86" height="183" stroke="#FCAF17" stroke-width="2" shape-rendering="crispEdges"/>
</g>
<path d="M112.968 98.93V101.792C112.968 104.516 112.548 106.67 111.708 108.254H116.532V98.93H112.968ZM111.096 97.184H118.476V108.254H119.988V112.88H118.08V110H110.304V112.88H108.414V108.254H109.53C110.574 106.634 111.096 104.204 111.096 100.964V97.184ZM129.156 105.428C129.156 106.268 129.078 106.97 128.922 107.534C128.766 108.098 128.484 108.596 128.076 109.028C127.38 109.748 126.468 110.108 125.34 110.108C124.224 110.108 123.318 109.748 122.622 109.028C122.214 108.596 121.932 108.098 121.776 107.534C121.62 106.97 121.542 106.268 121.542 105.428C121.542 104.6 121.62 103.904 121.776 103.34C121.932 102.764 122.214 102.266 122.622 101.846C123.318 101.126 124.224 100.766 125.34 100.766C126.468 100.766 127.38 101.126 128.076 101.846C128.484 102.266 128.766 102.764 128.922 103.34C129.078 103.904 129.156 104.6 129.156 105.428ZM126.69 107.93C127.11 107.51 127.32 106.676 127.32 105.428C127.32 104.18 127.11 103.346 126.69 102.926C126.342 102.578 125.892 102.404 125.34 102.404C124.8 102.404 124.356 102.578 124.008 102.926C123.588 103.346 123.378 104.18 123.378 105.428C123.378 106.676 123.588 107.51 124.008 107.93C124.368 108.29 124.812 108.47 125.34 108.47C125.88 108.47 126.33 108.29 126.69 107.93ZM138.364 110H136.528V102.476H133.882V105.122C133.882 106.07 133.816 106.868 133.684 107.516C133.552 108.164 133.354 108.668 133.09 109.028C132.826 109.376 132.52 109.628 132.172 109.784C131.836 109.928 131.434 110 130.966 110H130.102V108.38H130.39C130.582 108.38 130.744 108.368 130.876 108.344C131.008 108.308 131.158 108.224 131.326 108.092C131.506 107.948 131.644 107.756 131.74 107.516C131.848 107.264 131.938 106.898 132.01 106.418C132.082 105.926 132.118 105.344 132.118 104.672V100.874H138.364V110ZM146.116 105.122V102.35H143.974C143.506 102.35 143.14 102.476 142.876 102.728C142.612 102.98 142.48 103.322 142.48 103.754C142.48 104.186 142.612 104.522 142.876 104.762C143.14 105.002 143.506 105.122 143.974 105.122H146.116ZM142.696 110H140.59L142.57 106.256C141.982 106.088 141.52 105.776 141.184 105.32C140.848 104.864 140.68 104.312 140.68 103.664C140.68 102.836 140.95 102.164 141.49 101.648C142.042 101.132 142.756 100.874 143.632 100.874H147.934V110H146.098V106.598H144.424L142.696 110ZM160.183 105.86H154.927V104.15H160.183V105.86ZM174.313 106.4C174.313 107.588 173.941 108.506 173.197 109.154C172.453 109.802 171.517 110.126 170.389 110.126C169.285 110.126 168.361 109.826 167.617 109.226C166.885 108.614 166.501 107.714 166.465 106.526H168.301C168.337 107.174 168.547 107.66 168.931 107.984C169.327 108.308 169.813 108.47 170.389 108.47C171.001 108.47 171.499 108.284 171.883 107.912C172.279 107.528 172.477 107.006 172.477 106.346C172.477 105.686 172.297 105.17 171.937 104.798C171.577 104.426 171.043 104.24 170.335 104.24H170.029V102.638H170.335C170.983 102.638 171.469 102.464 171.793 102.116C172.117 101.768 172.279 101.294 172.279 100.694C172.279 100.07 172.099 99.584 171.739 99.236C171.379 98.888 170.929 98.714 170.389 98.714C169.837 98.714 169.387 98.882 169.039 99.218C168.703 99.542 168.511 99.986 168.463 100.55H166.627C166.675 99.482 167.053 98.636 167.761 98.012C168.469 97.376 169.345 97.058 170.389 97.058C171.481 97.058 172.375 97.394 173.071 98.066C173.767 98.726 174.115 99.584 174.115 100.64C174.115 101.936 173.581 102.848 172.513 103.376C173.713 103.904 174.313 104.912 174.313 106.4ZM183.803 106.436C183.803 107.552 183.449 108.446 182.741 109.118C182.033 109.778 181.151 110.108 180.095 110.108C179.051 110.108 178.175 109.778 177.467 109.118C176.759 108.446 176.405 107.552 176.405 106.436V100.748C176.405 99.632 176.759 98.744 177.467 98.084C178.175 97.412 179.051 97.076 180.095 97.076C181.151 97.076 182.033 97.412 182.741 98.084C183.449 98.744 183.803 99.632 183.803 100.748V106.436ZM181.967 106.382V100.802C181.967 100.178 181.799 99.674 181.463 99.29C181.127 98.906 180.671 98.714 180.095 98.714C179.531 98.714 179.081 98.906 178.745 99.29C178.409 99.674 178.241 100.178 178.241 100.802V106.382C178.241 107.006 178.409 107.51 178.745 107.894C179.081 108.278 179.531 108.47 180.095 108.47C180.671 108.47 181.127 108.278 181.463 107.894C181.799 107.51 181.967 107.006 181.967 106.382ZM199.016 107.66C199.016 108.416 198.776 109.016 198.296 109.46C197.816 109.904 197.216 110.126 196.496 110.126C195.776 110.126 195.176 109.904 194.696 109.46C194.216 109.016 193.976 108.416 193.976 107.66V105.842C193.976 105.086 194.216 104.486 194.696 104.042C195.176 103.598 195.776 103.376 196.496 103.376C197.216 103.376 197.816 103.598 198.296 104.042C198.776 104.486 199.016 105.086 199.016 105.842V107.66ZM190.988 101.342C190.988 102.098 190.748 102.698 190.268 103.142C189.788 103.574 189.188 103.79 188.468 103.79C187.748 103.79 187.148 103.574 186.668 103.142C186.188 102.698 185.948 102.098 185.948 101.342V99.524C185.948 98.768 186.188 98.168 186.668 97.724C187.148 97.28 187.748 97.058 188.468 97.058C189.188 97.058 189.788 97.28 190.268 97.724C190.748 98.168 190.988 98.768 190.988 99.524V101.342ZM196.226 97.184L190.196 110H188.72L194.768 97.184H196.226ZM197.63 107.606V105.896C197.63 105.032 197.252 104.6 196.496 104.6C195.74 104.6 195.362 105.032 195.362 105.896V107.606C195.362 108.47 195.74 108.902 196.496 108.902C197.252 108.902 197.63 108.47 197.63 107.606ZM189.602 101.288V99.578C189.602 98.714 189.224 98.282 188.468 98.282C187.712 98.282 187.334 98.714 187.334 99.578V101.288C187.334 102.14 187.712 102.566 188.468 102.566C189.224 102.566 189.602 102.14 189.602 101.288ZM118.728 128.4C118.728 129.504 118.38 130.38 117.684 131.028C117 131.676 116.058 132 114.858 132H109.674V119.184H114.66C115.824 119.184 116.76 119.502 117.468 120.138C118.176 120.762 118.53 121.596 118.53 122.64C118.53 123.936 117.954 124.866 116.802 125.43C118.086 126.03 118.728 127.02 118.728 128.4ZM116.028 124.116C116.4 123.792 116.586 123.342 116.586 122.766C116.586 122.19 116.4 121.74 116.028 121.416C115.656 121.092 115.146 120.93 114.498 120.93H111.618V124.602H114.498C115.146 124.602 115.656 124.44 116.028 124.116ZM116.19 129.732C116.574 129.372 116.766 128.892 116.766 128.292C116.766 127.692 116.574 127.218 116.19 126.87C115.818 126.522 115.308 126.348 114.66 126.348H111.618V130.254H114.66C115.308 130.254 115.818 130.08 116.19 129.732ZM131.69 132H129.854V122.874H131.69V132ZM127.766 127.104C128.318 127.632 128.594 128.316 128.594 129.156C128.594 129.996 128.318 130.68 127.766 131.208C127.226 131.736 126.512 132 125.624 132H121.394V122.874H123.23V126.312H125.624C126.512 126.312 127.226 126.576 127.766 127.104ZM126.38 130.146C126.644 129.906 126.776 129.576 126.776 129.156C126.776 128.736 126.644 128.412 126.38 128.184C126.128 127.944 125.774 127.824 125.318 127.824H123.23V130.506H125.318C125.774 130.506 126.128 130.386 126.38 130.146ZM142.205 127.428C142.205 129.312 141.863 130.602 141.179 131.298C140.639 131.838 139.901 132.108 138.965 132.108C137.945 132.108 137.147 131.76 136.571 131.064V135.69H134.735V122.874H136.535V123.846C137.135 123.126 137.939 122.766 138.947 122.766C139.895 122.766 140.639 123.036 141.179 123.576C141.863 124.272 142.205 125.556 142.205 127.428ZM140.297 128.598C140.345 128.274 140.369 127.884 140.369 127.428C140.369 126.972 140.345 126.582 140.297 126.258C140.261 125.934 140.177 125.622 140.045 125.322C139.925 125.022 139.733 124.794 139.469 124.638C139.205 124.482 138.875 124.404 138.479 124.404C138.071 124.404 137.735 124.482 137.471 124.638C137.207 124.794 137.009 125.022 136.877 125.322C136.757 125.622 136.673 125.934 136.625 126.258C136.589 126.582 136.571 126.972 136.571 127.428C136.571 127.884 136.589 128.274 136.625 128.598C136.673 128.922 136.757 129.24 136.877 129.552C137.009 129.852 137.207 130.08 137.471 130.236C137.747 130.392 138.083 130.47 138.479 130.47C138.875 130.47 139.205 130.392 139.469 130.236C139.733 130.08 139.925 129.852 140.045 129.552C140.177 129.24 140.261 128.922 140.297 128.598ZM151.403 122.874L147.371 133.818C146.939 135.018 146.093 135.618 144.833 135.618H144.095V133.962H144.563C144.947 133.962 145.229 133.896 145.409 133.764C145.589 133.644 145.745 133.392 145.877 133.008L146.381 131.568L143.177 122.874H145.139L147.317 129.318L149.441 122.874H151.403ZM159.626 132H157.79V128.634C156.83 128.826 155.96 128.922 155.18 128.922C154.4 128.922 153.77 128.706 153.29 128.274C152.822 127.83 152.588 127.2 152.588 126.384V122.874H154.424V125.934C154.424 126.834 154.868 127.284 155.756 127.284C156.308 127.284 156.986 127.212 157.79 127.068V122.874H159.626V132ZM164.434 132H162.58V122.874H164.434V132ZM170.392 132H168.142L164.452 127.248L167.926 122.874H170.122L166.486 127.158L170.392 132ZM178.381 132H176.581V131.172C176.245 131.508 175.891 131.748 175.519 131.892C175.159 132.036 174.703 132.108 174.151 132.108C173.071 132.108 172.255 131.832 171.703 131.28C171.223 130.776 170.983 130.122 170.983 129.318C170.983 128.526 171.253 127.89 171.793 127.41C172.345 126.93 173.131 126.69 174.151 126.69H176.545V126.042C176.545 125.454 176.389 125.022 176.077 124.746C175.765 124.47 175.255 124.332 174.547 124.332C174.067 124.332 173.677 124.404 173.377 124.548C173.089 124.68 172.813 124.908 172.549 125.232L171.361 124.098C171.781 123.606 172.231 123.264 172.711 123.072C173.203 122.868 173.839 122.766 174.619 122.766C177.127 122.766 178.381 123.81 178.381 125.898V132ZM176.545 128.706V127.968H174.439C173.323 127.968 172.765 128.406 172.765 129.282C172.765 130.146 173.341 130.578 174.493 130.578C175.225 130.578 175.777 130.404 176.149 130.056C176.413 129.804 176.545 129.354 176.545 128.706ZM190.54 127.86H185.284V126.15H190.54V127.86ZM204.652 132H197.2V130.362L202.132 124.368C202.588 123.816 202.816 123.246 202.816 122.658C202.816 122.07 202.648 121.602 202.312 121.254C201.988 120.894 201.532 120.714 200.944 120.714C200.404 120.714 199.954 120.876 199.594 121.2C199.234 121.524 199.054 122.022 199.054 122.694H197.218C197.218 121.614 197.566 120.744 198.262 120.084C198.958 119.412 199.852 119.076 200.944 119.076C202.048 119.076 202.942 119.406 203.626 120.066C204.31 120.714 204.652 121.584 204.652 122.676C204.652 123.204 204.556 123.666 204.364 124.062C204.184 124.446 203.878 124.908 203.446 125.448L199.432 130.362H204.652V132ZM214.286 127.716C214.286 128.496 214.214 129.15 214.07 129.678C213.926 130.206 213.638 130.686 213.206 131.118C212.534 131.79 211.634 132.126 210.506 132.126C209.342 132.126 208.43 131.796 207.77 131.136C207.206 130.572 206.882 129.756 206.798 128.688H208.634C208.79 129.876 209.414 130.47 210.506 130.47C211.058 130.47 211.502 130.302 211.838 129.966C212.246 129.558 212.45 128.808 212.45 127.716C212.45 125.928 211.826 125.034 210.578 125.034C209.606 125.034 209 125.418 208.76 126.186H207.086V119.184H213.998V120.822H208.742V124.206C209.21 123.714 209.918 123.468 210.866 123.468C211.85 123.468 212.618 123.744 213.17 124.296C213.914 125.04 214.286 126.18 214.286 127.716ZM228.352 120.822L224.068 132H222.088L226.39 120.822H222.484V122.838H220.72V119.184H228.352V120.822ZM237.68 128.436C237.68 129.552 237.326 130.446 236.618 131.118C235.91 131.778 235.028 132.108 233.972 132.108C232.928 132.108 232.052 131.778 231.344 131.118C230.636 130.446 230.282 129.552 230.282 128.436V122.748C230.282 121.632 230.636 120.744 231.344 120.084C232.052 119.412 232.928 119.076 233.972 119.076C235.028 119.076 235.91 119.412 236.618 120.084C237.326 120.744 237.68 121.632 237.68 122.748V128.436ZM235.844 128.382V122.802C235.844 122.178 235.676 121.674 235.34 121.29C235.004 120.906 234.548 120.714 233.972 120.714C233.408 120.714 232.958 120.906 232.622 121.29C232.286 121.674 232.118 122.178 232.118 122.802V128.382C232.118 129.006 232.286 129.51 232.622 129.894C232.958 130.278 233.408 130.47 233.972 130.47C234.548 130.47 235.004 130.278 235.34 129.894C235.676 129.51 235.844 129.006 235.844 128.382ZM247.529 128.382C247.529 129.51 247.151 130.416 246.395 131.1C245.639 131.772 244.697 132.108 243.569 132.108C242.441 132.108 241.499 131.772 240.743 131.1C239.999 130.416 239.627 129.51 239.627 128.382C239.627 127.086 240.215 126.084 241.391 125.376C240.359 124.752 239.843 123.834 239.843 122.622C239.843 121.566 240.197 120.714 240.905 120.066C241.613 119.406 242.501 119.076 243.569 119.076C244.637 119.076 245.525 119.406 246.233 120.066C246.953 120.714 247.313 121.566 247.313 122.622C247.313 123.834 246.797 124.752 245.765 125.376C246.941 126.084 247.529 127.086 247.529 128.382ZM245.063 129.858C245.471 129.45 245.675 128.946 245.675 128.346C245.675 127.746 245.471 127.242 245.063 126.834C244.655 126.414 244.157 126.204 243.569 126.204C242.981 126.204 242.483 126.414 242.075 126.834C241.667 127.242 241.463 127.746 241.463 128.346C241.463 128.946 241.667 129.45 242.075 129.858C242.483 130.266 242.981 130.47 243.569 130.47C244.157 130.47 244.655 130.266 245.063 129.858ZM244.937 124.08C245.297 123.708 245.477 123.24 245.477 122.676C245.477 122.112 245.297 121.644 244.937 121.272C244.577 120.9 244.121 120.714 243.569 120.714C243.017 120.714 242.561 120.9 242.201 121.272C241.853 121.644 241.679 122.112 241.679 122.676C241.679 123.24 241.853 123.708 242.201 124.08C242.561 124.44 243.017 124.62 243.569 124.62C244.121 124.62 244.577 124.44 244.937 124.08ZM261.325 127.716C261.325 128.496 261.253 129.15 261.109 129.678C260.965 130.206 260.677 130.686 260.245 131.118C259.573 131.79 258.673 132.126 257.545 132.126C256.381 132.126 255.469 131.796 254.809 131.136C254.245 130.572 253.921 129.756 253.837 128.688H255.673C255.829 129.876 256.453 130.47 257.545 130.47C258.097 130.47 258.541 130.302 258.877 129.966C259.285 129.558 259.489 128.808 259.489 127.716C259.489 125.928 258.865 125.034 257.617 125.034C256.645 125.034 256.039 125.418 255.799 126.186H254.125V119.184H261.037V120.822H255.781V124.206C256.249 123.714 256.957 123.468 257.905 123.468C258.889 123.468 259.657 123.744 260.209 124.296C260.953 125.04 261.325 126.18 261.325 127.716ZM270.797 128.436C270.797 129.552 270.443 130.446 269.735 131.118C269.027 131.778 268.145 132.108 267.089 132.108C266.045 132.108 265.169 131.778 264.461 131.118C263.753 130.446 263.399 129.552 263.399 128.436V122.748C263.399 121.632 263.753 120.744 264.461 120.084C265.169 119.412 266.045 119.076 267.089 119.076C268.145 119.076 269.027 119.412 269.735 120.084C270.443 120.744 270.797 121.632 270.797 122.748V128.436ZM268.961 128.382V122.802C268.961 122.178 268.793 121.674 268.457 121.29C268.121 120.906 267.665 120.714 267.089 120.714C266.525 120.714 266.075 120.906 265.739 121.29C265.403 121.674 265.235 122.178 265.235 122.802V128.382C265.235 129.006 265.403 129.51 265.739 129.894C266.075 130.278 266.525 130.47 267.089 130.47C267.665 130.47 268.121 130.278 268.457 129.894C268.793 129.51 268.961 129.006 268.961 128.382ZM280.394 128.436C280.394 129.552 280.04 130.446 279.332 131.118C278.624 131.778 277.742 132.108 276.686 132.108C275.642 132.108 274.766 131.778 274.058 131.118C273.35 130.446 272.996 129.552 272.996 128.436V122.748C272.996 121.632 273.35 120.744 274.058 120.084C274.766 119.412 275.642 119.076 276.686 119.076C277.742 119.076 278.624 119.412 279.332 120.084C280.04 120.744 280.394 121.632 280.394 122.748V128.436ZM278.558 128.382V122.802C278.558 122.178 278.39 121.674 278.054 121.29C277.718 120.906 277.262 120.714 276.686 120.714C276.122 120.714 275.672 120.906 275.336 121.29C275 121.674 274.832 122.178 274.832 122.802V128.382C274.832 129.006 275 129.51 275.336 129.894C275.672 130.278 276.122 130.47 276.686 130.47C277.262 130.47 277.718 130.278 278.054 129.894C278.39 129.51 278.558 129.006 278.558 128.382ZM294.748 127.428C294.748 129.312 294.406 130.602 293.722 131.298C293.182 131.838 292.444 132.108 291.508 132.108C290.488 132.108 289.69 131.76 289.114 131.064V135.69H287.278V122.874H289.078V123.846C289.678 123.126 290.482 122.766 291.49 122.766C292.438 122.766 293.182 123.036 293.722 123.576C294.406 124.272 294.748 125.556 294.748 127.428ZM292.84 128.598C292.888 128.274 292.912 127.884 292.912 127.428C292.912 126.972 292.888 126.582 292.84 126.258C292.804 125.934 292.72 125.622 292.588 125.322C292.468 125.022 292.276 124.794 292.012 124.638C291.748 124.482 291.418 124.404 291.022 124.404C290.614 124.404 290.278 124.482 290.014 124.638C289.75 124.794 289.552 125.022 289.42 125.322C289.3 125.622 289.216 125.934 289.168 126.258C289.132 126.582 289.114 126.972 289.114 127.428C289.114 127.884 289.132 128.274 289.168 128.598C289.216 128.922 289.3 129.24 289.42 129.552C289.552 129.852 289.75 130.08 290.014 130.236C290.29 130.392 290.626 130.47 291.022 130.47C291.418 130.47 291.748 130.392 292.012 130.236C292.276 130.08 292.468 129.852 292.588 129.552C292.72 129.24 292.804 128.922 292.84 128.598ZM303.946 122.874L299.914 133.818C299.482 135.018 298.636 135.618 297.376 135.618H296.638V133.962H297.106C297.49 133.962 297.772 133.896 297.952 133.764C298.132 133.644 298.288 133.392 298.42 133.008L298.924 131.568L295.72 122.874H297.682L299.86 129.318L301.984 122.874H303.946ZM309.052 130.452C309.628 130.452 310.078 130.272 310.402 129.912C310.786 129.456 310.978 128.646 310.978 127.482C310.978 126.27 310.792 125.454 310.42 125.034C310.072 124.65 309.616 124.458 309.052 124.458C308.464 124.458 308.002 124.65 307.666 125.034C307.258 125.502 307.054 126.306 307.054 127.446C307.054 128.598 307.27 129.42 307.702 129.912C308.05 130.272 308.5 130.452 309.052 130.452ZM309.07 132.108C308.302 132.108 307.63 131.946 307.054 131.622C306.478 131.298 306.052 130.83 305.776 130.218C305.416 129.45 305.236 128.106 305.236 126.186C305.236 124.194 305.32 122.826 305.488 122.082C305.656 121.338 306.028 120.72 306.604 120.228C306.976 119.904 307.462 119.658 308.062 119.49C308.674 119.322 309.232 119.22 309.736 119.184C310.252 119.148 311.032 119.112 312.076 119.076V120.696C311.896 120.708 311.572 120.726 311.104 120.75C310.636 120.774 310.252 120.798 309.952 120.822C309.652 120.846 309.31 120.906 308.926 121.002C308.542 121.098 308.23 121.23 307.99 121.398C307.57 121.674 307.282 122.022 307.126 122.442C306.97 122.85 306.892 123.396 306.892 124.08C307.084 123.72 307.408 123.432 307.864 123.216C308.332 123 308.842 122.892 309.394 122.892C310.33 122.892 311.074 123.15 311.626 123.666C312.418 124.41 312.814 125.658 312.814 127.41C312.814 129.102 312.442 130.326 311.698 131.082C311.038 131.766 310.162 132.108 309.07 132.108ZM317.405 132H315.209V129.804H317.405V132ZM117.972 154H116.028V148.978C114.612 149.254 113.466 149.392 112.59 149.392C111.654 149.392 110.862 149.134 110.214 148.618C109.578 148.09 109.26 147.298 109.26 146.242V141.184H111.222V145.774C111.222 147.022 111.876 147.646 113.184 147.646C113.976 147.646 114.924 147.526 116.028 147.286V141.184H117.972V154ZM128.69 154H126.854V147.718L122.948 154H121.112V144.874H122.948V151.066L126.854 144.874H128.69V154ZM138.212 152.812C137.396 153.676 136.394 154.108 135.206 154.108C134.666 154.108 134.162 154.024 133.694 153.856C133.226 153.676 132.794 153.412 132.398 153.064C132.014 152.704 131.708 152.218 131.48 151.606C131.252 150.982 131.138 150.256 131.138 149.428C131.138 148.6 131.252 147.88 131.48 147.268C131.708 146.644 132.014 146.158 132.398 145.81C132.794 145.45 133.226 145.186 133.694 145.018C134.162 144.85 134.666 144.766 135.206 144.766C136.406 144.766 137.408 145.192 138.212 146.044L136.952 147.268C136.664 146.956 136.388 146.734 136.124 146.602C135.872 146.47 135.566 146.404 135.206 146.404C134.486 146.404 133.922 146.674 133.514 147.214C133.154 147.67 132.974 148.408 132.974 149.428C132.974 150.46 133.154 151.204 133.514 151.66C133.922 152.2 134.486 152.47 135.206 152.47C135.566 152.47 135.872 152.404 136.124 152.272C136.388 152.14 136.664 151.918 136.952 151.606L138.212 152.812ZM146.695 146.476H143.905V154H142.069V146.476H139.171V144.874H146.695V146.476ZM154.985 154H153.185V153.172C152.849 153.508 152.495 153.748 152.123 153.892C151.763 154.036 151.307 154.108 150.755 154.108C149.675 154.108 148.859 153.832 148.307 153.28C147.827 152.776 147.587 152.122 147.587 151.318C147.587 150.526 147.857 149.89 148.397 149.41C148.949 148.93 149.735 148.69 150.755 148.69H153.149V148.042C153.149 147.454 152.993 147.022 152.681 146.746C152.369 146.47 151.859 146.332 151.151 146.332C150.671 146.332 150.281 146.404 149.981 146.548C149.693 146.68 149.417 146.908 149.153 147.232L147.965 146.098C148.385 145.606 148.835 145.264 149.315 145.072C149.807 144.868 150.443 144.766 151.223 144.766C153.731 144.766 154.985 145.81 154.985 147.898V154ZM153.149 150.706V149.968H151.043C149.927 149.968 149.369 150.406 149.369 151.282C149.369 152.146 149.945 152.578 151.097 152.578C151.829 152.578 152.381 152.404 152.753 152.056C153.017 151.804 153.149 151.354 153.149 150.706ZM162.639 149.122V146.35H160.497C160.029 146.35 159.663 146.476 159.399 146.728C159.135 146.98 159.003 147.322 159.003 147.754C159.003 148.186 159.135 148.522 159.399 148.762C159.663 149.002 160.029 149.122 160.497 149.122H162.639ZM159.219 154H157.113L159.093 150.256C158.505 150.088 158.043 149.776 157.707 149.32C157.371 148.864 157.203 148.312 157.203 147.664C157.203 146.836 157.473 146.164 158.013 145.648C158.565 145.132 159.279 144.874 160.155 144.874H164.457V154H162.621V150.598H160.947L159.219 154ZM179.01 154H177.174V146.476H173.538V154H171.702V144.874H179.01V154ZM189.315 149.428C189.315 151.312 188.973 152.602 188.289 153.298C187.749 153.838 187.011 154.108 186.075 154.108C185.055 154.108 184.257 153.76 183.681 153.064V157.69H181.845V144.874H183.645V145.846C184.245 145.126 185.049 144.766 186.057 144.766C187.005 144.766 187.749 145.036 188.289 145.576C188.973 146.272 189.315 147.556 189.315 149.428ZM187.407 150.598C187.455 150.274 187.479 149.884 187.479 149.428C187.479 148.972 187.455 148.582 187.407 148.258C187.371 147.934 187.287 147.622 187.155 147.322C187.035 147.022 186.843 146.794 186.579 146.638C186.315 146.482 185.985 146.404 185.589 146.404C185.181 146.404 184.845 146.482 184.581 146.638C184.317 146.794 184.119 147.022 183.987 147.322C183.867 147.622 183.783 147.934 183.735 148.258C183.699 148.582 183.681 148.972 183.681 149.428C183.681 149.884 183.699 150.274 183.735 150.598C183.783 150.922 183.867 151.24 183.987 151.552C184.119 151.852 184.317 152.08 184.581 152.236C184.857 152.392 185.193 152.47 185.589 152.47C185.985 152.47 186.315 152.392 186.579 152.236C186.843 152.08 187.035 151.852 187.155 151.552C187.287 151.24 187.371 150.922 187.407 150.598ZM199.372 154H197.536V147.718L193.63 154H191.794V144.874H193.63V151.066L197.536 144.874H199.372V154ZM205.816 152.452C206.392 152.452 206.842 152.272 207.166 151.912C207.55 151.456 207.742 150.646 207.742 149.482C207.742 148.27 207.556 147.454 207.184 147.034C206.836 146.65 206.38 146.458 205.816 146.458C205.228 146.458 204.766 146.65 204.43 147.034C204.022 147.502 203.818 148.306 203.818 149.446C203.818 150.598 204.034 151.42 204.466 151.912C204.814 152.272 205.264 152.452 205.816 152.452ZM205.834 154.108C205.066 154.108 204.394 153.946 203.818 153.622C203.242 153.298 202.816 152.83 202.54 152.218C202.18 151.45 202 150.106 202 148.186C202 146.194 202.084 144.826 202.252 144.082C202.42 143.338 202.792 142.72 203.368 142.228C203.74 141.904 204.226 141.658 204.826 141.49C205.438 141.322 205.996 141.22 206.5 141.184C207.016 141.148 207.796 141.112 208.84 141.076V142.696C208.66 142.708 208.336 142.726 207.868 142.75C207.4 142.774 207.016 142.798 206.716 142.822C206.416 142.846 206.074 142.906 205.69 143.002C205.306 143.098 204.994 143.23 204.754 143.398C204.334 143.674 204.046 144.022 203.89 144.442C203.734 144.85 203.656 145.396 203.656 146.08C203.848 145.72 204.172 145.432 204.628 145.216C205.096 145 205.606 144.892 206.158 144.892C207.094 144.892 207.838 145.15 208.39 145.666C209.182 146.41 209.578 147.658 209.578 149.41C209.578 151.102 209.206 152.326 208.462 153.082C207.802 153.766 206.926 154.108 205.834 154.108ZM222.322 154H220.486V144.874H222.322V154ZM218.398 149.104C218.95 149.632 219.226 150.316 219.226 151.156C219.226 151.996 218.95 152.68 218.398 153.208C217.858 153.736 217.144 154 216.256 154H212.026V144.874H213.862V148.312H216.256C217.144 148.312 217.858 148.576 218.398 149.104ZM217.012 152.146C217.276 151.906 217.408 151.576 217.408 151.156C217.408 150.736 217.276 150.412 217.012 150.184C216.76 149.944 216.406 149.824 215.95 149.824H213.862V152.506H215.95C216.406 152.506 216.76 152.386 217.012 152.146ZM232.442 154H230.606V146.476H227.96V149.122C227.96 150.07 227.894 150.868 227.762 151.516C227.63 152.164 227.432 152.668 227.168 153.028C226.904 153.376 226.598 153.628 226.25 153.784C225.914 153.928 225.512 154 225.044 154H224.18V152.38H224.468C224.66 152.38 224.822 152.368 224.954 152.344C225.086 152.308 225.236 152.224 225.404 152.092C225.584 151.948 225.722 151.756 225.818 151.516C225.926 151.264 226.016 150.898 226.088 150.418C226.16 149.926 226.196 149.344 226.196 148.672V144.874H232.442V154ZM241.742 149.104C242.294 149.62 242.57 150.304 242.57 151.156C242.57 152.008 242.294 152.698 241.742 153.226C241.202 153.742 240.494 154 239.618 154H235.37V144.874H237.206V148.312H239.618C240.494 148.312 241.202 148.576 241.742 149.104ZM240.374 152.146C240.626 151.906 240.752 151.576 240.752 151.156C240.752 150.736 240.626 150.412 240.374 150.184C240.122 149.944 239.768 149.824 239.312 149.824H237.206V152.506H239.312C239.768 152.506 240.122 152.386 240.374 152.146ZM254.015 149.86H248.759V148.15H254.015V149.86ZM268.163 149.716C268.163 150.496 268.091 151.15 267.947 151.678C267.803 152.206 267.515 152.686 267.083 153.118C266.411 153.79 265.511 154.126 264.383 154.126C263.219 154.126 262.307 153.796 261.647 153.136C261.083 152.572 260.759 151.756 260.675 150.688H262.511C262.667 151.876 263.291 152.47 264.383 152.47C264.935 152.47 265.379 152.302 265.715 151.966C266.123 151.558 266.327 150.808 266.327 149.716C266.327 147.928 265.703 147.034 264.455 147.034C263.483 147.034 262.877 147.418 262.637 148.186H260.963V141.184H267.875V142.822H262.619V146.206C263.087 145.714 263.795 145.468 264.743 145.468C265.727 145.468 266.495 145.744 267.047 146.296C267.791 147.04 268.163 148.18 268.163 149.716ZM282.067 150.4C282.067 151.588 281.695 152.506 280.951 153.154C280.207 153.802 279.271 154.126 278.143 154.126C277.039 154.126 276.115 153.826 275.371 153.226C274.639 152.614 274.255 151.714 274.219 150.526H276.055C276.091 151.174 276.301 151.66 276.685 151.984C277.081 152.308 277.567 152.47 278.143 152.47C278.755 152.47 279.253 152.284 279.637 151.912C280.033 151.528 280.231 151.006 280.231 150.346C280.231 149.686 280.051 149.17 279.691 148.798C279.331 148.426 278.797 148.24 278.089 148.24H277.783V146.638H278.089C278.737 146.638 279.223 146.464 279.547 146.116C279.871 145.768 280.033 145.294 280.033 144.694C280.033 144.07 279.853 143.584 279.493 143.236C279.133 142.888 278.683 142.714 278.143 142.714C277.591 142.714 277.141 142.882 276.793 143.218C276.457 143.542 276.265 143.986 276.217 144.55H274.381C274.429 143.482 274.807 142.636 275.515 142.012C276.223 141.376 277.099 141.058 278.143 141.058C279.235 141.058 280.129 141.394 280.825 142.066C281.521 142.726 281.869 143.584 281.869 144.64C281.869 145.936 281.335 146.848 280.267 147.376C281.467 147.904 282.067 148.912 282.067 150.4ZM291.647 154H284.195V152.362L289.127 146.368C289.583 145.816 289.811 145.246 289.811 144.658C289.811 144.07 289.643 143.602 289.307 143.254C288.983 142.894 288.527 142.714 287.939 142.714C287.399 142.714 286.949 142.876 286.589 143.2C286.229 143.524 286.049 144.022 286.049 144.694H284.213C284.213 143.614 284.561 142.744 285.257 142.084C285.953 141.412 286.847 141.076 287.939 141.076C289.043 141.076 289.937 141.406 290.621 142.066C291.305 142.714 291.647 143.584 291.647 144.676C291.647 145.204 291.551 145.666 291.359 146.062C291.179 146.446 290.873 146.908 290.441 147.448L286.427 152.362H291.647V154ZM301.154 150.436C301.154 151.552 300.8 152.446 300.092 153.118C299.384 153.778 298.502 154.108 297.446 154.108C296.402 154.108 295.526 153.778 294.818 153.118C294.11 152.446 293.756 151.552 293.756 150.436V144.748C293.756 143.632 294.11 142.744 294.818 142.084C295.526 141.412 296.402 141.076 297.446 141.076C298.502 141.076 299.384 141.412 300.092 142.084C300.8 142.744 301.154 143.632 301.154 144.748V150.436ZM299.318 150.382V144.802C299.318 144.178 299.15 143.674 298.814 143.29C298.478 142.906 298.022 142.714 297.446 142.714C296.882 142.714 296.432 142.906 296.096 143.29C295.76 143.674 295.592 144.178 295.592 144.802V150.382C295.592 151.006 295.76 151.51 296.096 151.894C296.432 152.278 296.882 152.47 297.446 152.47C298.022 152.47 298.478 152.278 298.814 151.894C299.15 151.51 299.318 151.006 299.318 150.382ZM315.166 144.91C315.166 145.738 314.848 146.788 314.212 148.06L311.296 154H309.334L312.088 148.492C311.776 148.624 311.392 148.69 310.936 148.69C309.988 148.69 309.19 148.348 308.542 147.664C307.906 146.98 307.588 146.086 307.588 144.982C307.588 143.806 307.936 142.864 308.632 142.156C309.34 141.436 310.252 141.076 311.368 141.076C312.496 141.076 313.408 141.424 314.104 142.12C314.812 142.804 315.166 143.734 315.166 144.91ZM313.33 144.946C313.33 144.274 313.15 143.734 312.79 143.326C312.43 142.918 311.956 142.714 311.368 142.714C310.792 142.714 310.324 142.918 309.964 143.326C309.604 143.722 309.424 144.262 309.424 144.946C309.424 145.594 309.598 146.128 309.946 146.548C310.294 146.956 310.768 147.16 311.368 147.16C311.956 147.16 312.43 146.962 312.79 146.566C313.15 146.17 313.33 145.63 313.33 144.946ZM324.944 142.822L320.66 154H318.68L322.982 142.822H319.076V144.838H317.312V141.184H324.944V142.822ZM334.271 150.436C334.271 151.552 333.917 152.446 333.209 153.118C332.501 153.778 331.619 154.108 330.563 154.108C329.519 154.108 328.643 153.778 327.935 153.118C327.227 152.446 326.873 151.552 326.873 150.436V144.748C326.873 143.632 327.227 142.744 327.935 142.084C328.643 141.412 329.519 141.076 330.563 141.076C331.619 141.076 332.501 141.412 333.209 142.084C333.917 142.744 334.271 143.632 334.271 144.748V150.436ZM332.435 150.382V144.802C332.435 144.178 332.267 143.674 331.931 143.29C331.595 142.906 331.139 142.714 330.563 142.714C329.999 142.714 329.549 142.906 329.213 143.29C328.877 143.674 328.709 144.178 328.709 144.802V150.382C328.709 151.006 328.877 151.51 329.213 151.894C329.549 152.278 329.999 152.47 330.563 152.47C331.139 152.47 331.595 152.278 331.931 151.894C332.267 151.51 332.435 151.006 332.435 150.382ZM348.625 149.428C348.625 151.312 348.283 152.602 347.599 153.298C347.059 153.838 346.321 154.108 345.385 154.108C344.365 154.108 343.567 153.76 342.991 153.064V157.69H341.155V144.874H342.955V145.846C343.555 145.126 344.359 144.766 345.367 144.766C346.315 144.766 347.059 145.036 347.599 145.576C348.283 146.272 348.625 147.556 348.625 149.428ZM346.717 150.598C346.765 150.274 346.789 149.884 346.789 149.428C346.789 148.972 346.765 148.582 346.717 148.258C346.681 147.934 346.597 147.622 346.465 147.322C346.345 147.022 346.153 146.794 345.889 146.638C345.625 146.482 345.295 146.404 344.899 146.404C344.491 146.404 344.155 146.482 343.891 146.638C343.627 146.794 343.429 147.022 343.297 147.322C343.177 147.622 343.093 147.934 343.045 148.258C343.009 148.582 342.991 148.972 342.991 149.428C342.991 149.884 343.009 150.274 343.045 150.598C343.093 150.922 343.177 151.24 343.297 151.552C343.429 151.852 343.627 152.08 343.891 152.236C344.167 152.392 344.503 152.47 344.899 152.47C345.295 152.47 345.625 152.392 345.889 152.236C346.153 152.08 346.345 151.852 346.465 151.552C346.597 151.24 346.681 150.922 346.717 150.598ZM357.823 144.874L353.791 155.818C353.359 157.018 352.513 157.618 351.253 157.618H350.515V155.962H350.983C351.367 155.962 351.649 155.896 351.829 155.764C352.009 155.644 352.165 155.392 352.297 155.008L352.801 153.568L349.597 144.874H351.559L353.737 151.318L355.861 144.874H357.823ZM362.929 152.452C363.505 152.452 363.955 152.272 364.279 151.912C364.663 151.456 364.855 150.646 364.855 149.482C364.855 148.27 364.669 147.454 364.297 147.034C363.949 146.65 363.493 146.458 362.929 146.458C362.341 146.458 361.879 146.65 361.543 147.034C361.135 147.502 360.931 148.306 360.931 149.446C360.931 150.598 361.147 151.42 361.579 151.912C361.927 152.272 362.377 152.452 362.929 152.452ZM362.947 154.108C362.179 154.108 361.507 153.946 360.931 153.622C360.355 153.298 359.929 152.83 359.653 152.218C359.293 151.45 359.113 150.106 359.113 148.186C359.113 146.194 359.197 144.826 359.365 144.082C359.533 143.338 359.905 142.72 360.481 142.228C360.853 141.904 361.339 141.658 361.939 141.49C362.551 141.322 363.109 141.22 363.613 141.184C364.129 141.148 364.909 141.112 365.953 141.076V142.696C365.773 142.708 365.449 142.726 364.981 142.75C364.513 142.774 364.129 142.798 363.829 142.822C363.529 142.846 363.187 142.906 362.803 143.002C362.419 143.098 362.107 143.23 361.867 143.398C361.447 143.674 361.159 144.022 361.003 144.442C360.847 144.85 360.769 145.396 360.769 146.08C360.961 145.72 361.285 145.432 361.741 145.216C362.209 145 362.719 144.892 363.271 144.892C364.207 144.892 364.951 145.15 365.503 145.666C366.295 146.41 366.691 147.658 366.691 149.41C366.691 151.102 366.319 152.326 365.575 153.082C364.915 153.766 364.039 154.108 362.947 154.108ZM371.282 154H369.086V151.804H371.282V154Z" fill="#FCAF17"/>
<path d="M124.836 35.7041C124.786 36.7926 124.492 37.7559 123.955 38.5938C123.418 39.4245 122.662 40.069 121.688 40.5273C120.722 40.9857 119.615 41.2148 118.369 41.2148C116.314 41.2148 114.695 40.5452 113.514 39.2061C112.332 37.8669 111.741 35.9762 111.741 33.5342V32.7607C111.741 31.2282 112.006 29.889 112.536 28.7432C113.073 27.5902 113.843 26.7021 114.846 26.0791C115.848 25.4489 117.008 25.1338 118.326 25.1338C120.224 25.1338 121.749 25.6351 122.902 26.6377C124.055 27.6331 124.711 29.0081 124.868 30.7627H121.108C121.08 29.8102 120.84 29.1263 120.389 28.7109C119.938 28.2956 119.25 28.0879 118.326 28.0879C117.388 28.0879 116.701 28.4388 116.264 29.1406C115.827 29.8424 115.598 30.9632 115.576 32.5029V33.6094C115.576 35.278 115.784 36.4704 116.199 37.1865C116.622 37.9027 117.345 38.2607 118.369 38.2607C119.236 38.2607 119.898 38.0566 120.356 37.6484C120.815 37.2402 121.058 36.5921 121.087 35.7041H124.836ZM130.39 35.6934V41H126.619V25.3594H132.86C134.056 25.3594 135.113 25.5814 136.029 26.0254C136.953 26.4622 137.666 27.0889 138.167 27.9053C138.675 28.7145 138.93 29.6348 138.93 30.666C138.93 32.1914 138.382 33.4124 137.286 34.3291C136.198 35.2386 134.701 35.6934 132.796 35.6934H130.39ZM130.39 32.7822H132.86C133.591 32.7822 134.146 32.5996 134.525 32.2344C134.912 31.8691 135.105 31.3535 135.105 30.6875C135.105 29.957 134.909 29.3734 134.515 28.9365C134.121 28.4997 133.584 28.2777 132.903 28.2705H130.39V32.7822ZM154.194 33.502C154.194 35.0273 153.911 36.3773 153.346 37.5518C152.78 38.7262 151.974 39.6322 150.929 40.2695C149.89 40.8997 148.705 41.2148 147.373 41.2148C146.041 41.2148 144.859 40.9105 143.828 40.3018C142.797 39.6859 141.991 38.8086 141.411 37.6699C140.838 36.5312 140.537 35.2243 140.509 33.749V32.8682C140.509 31.3356 140.788 29.9857 141.347 28.8184C141.912 27.6439 142.718 26.738 143.764 26.1006C144.816 25.4632 146.012 25.1445 147.352 25.1445C148.676 25.1445 149.858 25.4596 150.896 26.0898C151.935 26.7201 152.741 27.6188 153.313 28.7861C153.894 29.9463 154.187 31.2783 154.194 32.7822V33.502ZM150.359 32.8467C150.359 31.2926 150.098 30.1146 149.575 29.3125C149.06 28.5033 148.318 28.0986 147.352 28.0986C145.461 28.0986 144.462 29.5166 144.354 32.3525L144.344 33.502C144.344 35.0345 144.598 36.2126 145.106 37.0361C145.615 37.8597 146.37 38.2715 147.373 38.2715C148.326 38.2715 149.06 37.8669 149.575 37.0576C150.091 36.2484 150.352 35.0846 150.359 33.5664V32.8467ZM169.169 25.3594V41H165.409V35.2207L164.303 35.3604L162.917 35.4463C160.812 35.4463 159.2 34.9915 158.083 34.082C156.966 33.1654 156.4 31.8691 156.386 30.1934V25.3594H160.156V30.1396C160.156 30.9919 160.36 31.6077 160.769 31.9873C161.184 32.3597 161.9 32.5459 162.917 32.5459L163.239 32.5352C164.12 32.4922 164.843 32.4242 165.409 32.3311V25.3594H169.169ZM184.595 41H180.846V34.4688H175.292V41H171.521V25.3594H175.292V31.5684H180.846V25.3594H184.595V41ZM190.761 30.7412H192.705C193.944 30.7412 195.04 30.9525 195.992 31.375C196.945 31.7975 197.675 32.3955 198.184 33.1689C198.699 33.9352 198.957 34.8161 198.957 35.8115C198.957 37.3512 198.384 38.6009 197.238 39.5605C196.1 40.5202 194.567 41 192.641 41H186.979V25.3594H190.761V30.7412ZM203.855 41H200.096V25.3594H203.855V41ZM190.761 33.6416V38.0996H192.694C193.461 38.0996 194.066 37.8848 194.51 37.4551C194.961 37.0254 195.187 36.4704 195.187 35.79C195.187 35.1455 194.965 34.6263 194.521 34.2324C194.076 33.8385 193.461 33.6416 192.673 33.6416H190.761ZM215.35 25.3594H219.12V41H215.35V31.1387L209.731 41H205.961V25.3594H209.731V35.2314L215.35 25.3594ZM216.542 21.1484C216.542 22.1296 216.18 22.9245 215.457 23.5332C214.734 24.1419 213.771 24.4463 212.567 24.4463C211.364 24.4463 210.401 24.1419 209.678 23.5332C208.954 22.9245 208.593 22.1296 208.593 21.1484H211.053C211.053 21.5781 211.185 21.9147 211.45 22.1582C211.722 22.3945 212.095 22.5127 212.567 22.5127C213.04 22.5127 213.405 22.3981 213.663 22.1689C213.928 21.9326 214.061 21.5924 214.061 21.1484H216.542ZM226.908 41V25.3594H232.526C234.539 25.3594 236.068 25.7282 237.113 26.4658C238.166 27.2035 238.692 28.2741 238.692 29.6777C238.692 30.487 238.506 31.1781 238.134 31.751C237.761 32.3239 237.214 32.7464 236.49 33.0186C237.307 33.2334 237.933 33.6344 238.37 34.2217C238.807 34.8089 239.025 35.5251 239.025 36.3701C239.025 37.9027 238.538 39.0557 237.564 39.8291C236.598 40.5954 235.162 40.9857 233.257 41H226.908ZM230.679 34.3506V38.0996H233.149C233.83 38.0996 234.353 37.9456 234.718 37.6377C235.083 37.3226 235.266 36.8822 235.266 36.3164C235.266 35.013 234.618 34.3577 233.321 34.3506H230.679ZM230.679 31.8799H232.645C233.468 31.8727 234.055 31.7223 234.406 31.4287C234.757 31.1351 234.933 30.7018 234.933 30.1289C234.933 29.4701 234.743 28.9974 234.363 28.7109C233.984 28.4173 233.371 28.2705 232.526 28.2705H230.679V31.8799ZM244.88 30.7412H246.824C248.063 30.7412 249.159 30.9525 250.111 31.375C251.064 31.7975 251.794 32.3955 252.303 33.1689C252.818 33.9352 253.076 34.8161 253.076 35.8115C253.076 37.3512 252.503 38.6009 251.357 39.5605C250.219 40.5202 248.686 41 246.76 41H241.099V25.3594H244.88V30.7412ZM257.975 41H254.215V25.3594H257.975V41ZM244.88 33.6416V38.0996H246.813C247.58 38.0996 248.185 37.8848 248.629 37.4551C249.08 37.0254 249.306 36.4704 249.306 35.79C249.306 35.1455 249.084 34.6263 248.64 34.2324C248.196 33.8385 247.58 33.6416 246.792 33.6416H244.88ZM265.827 34.8125H264.044V41H260.273V25.3594H264.044V31.4072H265.494L268.502 25.3594H273.067L268.771 32.5781L273.604 41H269.146L265.827 34.8125ZM280.608 32.1484V32.1592L283.197 25.3594H287.172L281.908 37.7666C281.342 39.0199 280.705 39.9043 279.996 40.4199C279.294 40.9284 278.471 41.1969 277.525 41.2256H276.763L276.183 41.2041L276.118 38.2822C276.204 38.3109 276.455 38.3252 276.87 38.3252C277.443 38.3252 277.873 38.2285 278.159 38.0352C278.453 37.8346 278.689 37.4515 278.868 36.8857L279.051 36.3701L273.4 25.3594H277.407L280.608 32.1484ZM301.599 41H297.828V28.2705H292.21V41H288.439V25.3594H301.599V41ZM121.065 64.0781H115.898L114.996 67H110.968L116.704 51.3594H120.249L126.028 67H121.979L121.065 64.0781ZM116.801 61.167H120.163L118.477 55.7422L116.801 61.167ZM127.178 67V51.3594H132.796C134.808 51.3594 136.337 51.7282 137.383 52.4658C138.436 53.2035 138.962 54.2741 138.962 55.6777C138.962 56.487 138.776 57.1781 138.403 57.751C138.031 58.3239 137.483 58.7464 136.76 59.0186C137.576 59.2334 138.203 59.6344 138.64 60.2217C139.076 60.8089 139.295 61.5251 139.295 62.3701C139.295 63.9027 138.808 65.0557 137.834 65.8291C136.867 66.5954 135.431 66.9857 133.526 67H127.178ZM130.948 60.3506V64.0996H133.419C134.099 64.0996 134.622 63.9456 134.987 63.6377C135.353 63.3226 135.535 62.8822 135.535 62.3164C135.535 61.013 134.887 60.3577 133.591 60.3506H130.948ZM130.948 57.8799H132.914C133.738 57.8727 134.325 57.7223 134.676 57.4287C135.027 57.1351 135.202 56.7018 135.202 56.1289C135.202 55.4701 135.012 54.9974 134.633 54.7109C134.253 54.4173 133.641 54.2705 132.796 54.2705H130.948V57.8799ZM153.356 54.2705H148.662V67H144.892V54.2705H140.283V51.3594H153.356V54.2705ZM167.901 59.502C167.901 61.0273 167.618 62.3773 167.053 63.5518C166.487 64.7262 165.681 65.6322 164.636 66.2695C163.597 66.8997 162.412 67.2148 161.08 67.2148C159.748 67.2148 158.566 66.9105 157.535 66.3018C156.504 65.6859 155.698 64.8086 155.118 63.6699C154.545 62.5312 154.244 61.2243 154.216 59.749V58.8682C154.216 57.3356 154.495 55.9857 155.054 54.8184C155.619 53.6439 156.425 52.738 157.471 52.1006C158.523 51.4632 159.719 51.1445 161.059 51.1445C162.383 51.1445 163.565 51.4596 164.604 52.0898C165.642 52.7201 166.448 53.6188 167.021 54.7861C167.601 55.9463 167.894 57.2783 167.901 58.7822V59.502ZM164.066 58.8467C164.066 57.2926 163.805 56.1146 163.282 55.3125C162.767 54.5033 162.025 54.0986 161.059 54.0986C159.168 54.0986 158.169 55.5166 158.062 58.3525L158.051 59.502C158.051 61.0345 158.305 62.2126 158.813 63.0361C159.322 63.8597 160.077 64.2715 161.08 64.2715C162.033 64.2715 162.767 63.8669 163.282 63.0576C163.798 62.2484 164.059 61.0846 164.066 59.5664V58.8467ZM174.798 51.3594L178.289 62.2412L181.77 51.3594H186.732V67H182.951V63.3477L183.316 55.8711L179.535 67H177.043L173.251 55.8604L173.616 63.3477V67H169.846V51.3594H174.798ZM202.384 59.502C202.384 61.0273 202.101 62.3773 201.535 63.5518C200.969 64.7262 200.164 65.6322 199.118 66.2695C198.08 66.8997 196.895 67.2148 195.562 67.2148C194.23 67.2148 193.049 66.9105 192.018 66.3018C190.986 65.6859 190.181 64.8086 189.601 63.6699C189.028 62.5312 188.727 61.2243 188.698 59.749V58.8682C188.698 57.3356 188.978 55.9857 189.536 54.8184C190.102 53.6439 190.908 52.738 191.953 52.1006C193.006 51.4632 194.202 51.1445 195.541 51.1445C196.866 51.1445 198.048 51.4596 199.086 52.0898C200.124 52.7201 200.93 53.6188 201.503 54.7861C202.083 55.9463 202.377 57.2783 202.384 58.7822V59.502ZM198.549 58.8467C198.549 57.2926 198.287 56.1146 197.765 55.3125C197.249 54.5033 196.508 54.0986 195.541 54.0986C193.65 54.0986 192.651 55.5166 192.544 58.3525L192.533 59.502C192.533 61.0345 192.787 62.2126 193.296 63.0361C193.804 63.8597 194.56 64.2715 195.562 64.2715C196.515 64.2715 197.249 63.8669 197.765 63.0576C198.28 62.2484 198.542 61.0846 198.549 59.5664V58.8467ZM214.898 54.2705H208.12V56.7412H210.064C211.303 56.7412 212.399 56.9525 213.352 57.375C214.304 57.7975 215.035 58.3955 215.543 59.1689C216.059 59.9352 216.316 60.8161 216.316 61.8115C216.316 63.3512 215.743 64.6009 214.598 65.5605C213.459 66.5202 211.926 67 210 67H204.328V51.3594H214.898V54.2705ZM208.12 59.6416V64.0996H210.054C210.82 64.0996 211.425 63.8848 211.869 63.4551C212.32 63.0254 212.546 62.4704 212.546 61.79C212.546 61.1455 212.324 60.6263 211.88 60.2324C211.436 59.8385 210.82 59.6416 210.032 59.6416H208.12ZM227.252 51.3594H231.022V67H227.252V57.1387L221.634 67H217.863V51.3594H221.634V61.2314L227.252 51.3594ZM246.685 51.3594V67H242.914V54.2705H239.401L239.144 59.5234C239.036 61.3353 238.785 62.7819 238.392 63.8633C237.998 64.9447 237.436 65.736 236.705 66.2373C235.982 66.7314 234.993 66.9857 233.74 67H232.73V64.0996L233.257 64.0459C234.009 63.9385 234.553 63.4801 234.89 62.6709C235.226 61.8545 235.445 60.4831 235.545 58.5566L235.813 51.3594H246.685ZM258.737 60.3721H252.808V64.0996H259.812V67H249.037V51.3594H259.833V54.2705H252.808V57.5684H258.737V60.3721ZM270.521 51.3594H274.292V67H270.521V57.1387L264.903 67H261.133V51.3594H264.903V61.2314L270.521 51.3594ZM271.714 47.1484C271.714 48.1296 271.352 48.9245 270.629 49.5332C269.906 50.1419 268.942 50.4463 267.739 50.4463C266.536 50.4463 265.573 50.1419 264.85 49.5332C264.126 48.9245 263.765 48.1296 263.765 47.1484H266.225C266.225 47.5781 266.357 47.9147 266.622 48.1582C266.894 48.3945 267.267 48.5127 267.739 48.5127C268.212 48.5127 268.577 48.3981 268.835 48.1689C269.1 47.9326 269.232 47.5924 269.232 47.1484H271.714Z" fill="#FCAF17"/>
<path d="M73.7461 122V124H75.7461V122H73.7461ZM14.2148 122H12.2148V124H14.2148V122ZM14.2148 109.109L12.7657 107.731L12.2148 108.31V109.109H14.2148ZM41.6367 80.2812L43.0858 81.6597L43.1133 81.6309L43.1395 81.601L41.6367 80.2812ZM35.0742 54.5586L36.6831 55.7467L36.6874 55.7408L36.6917 55.7349L35.0742 54.5586ZM32.2617 64.1094V66.1094H34.2617V64.1094H32.2617ZM12.457 64.1094H10.457V66.1094H12.457V64.1094ZM16.3828 49.6367L18.1032 50.6567L18.1071 50.6501L16.3828 49.6367ZM64.1367 41.8438L62.8341 43.3614L62.84 43.3665L64.1367 41.8438ZM69.7617 70.0273L71.6218 70.7622L71.6249 70.7544L69.7617 70.0273ZM63.9023 80.0469L62.3066 78.8412L62.3045 78.844L63.9023 80.0469ZM51.1875 94.0508L49.7733 92.6366L49.7227 92.6871L49.6759 92.7412L51.1875 94.0508ZM40.1719 106.766L38.6603 105.456L35.793 108.766H40.1719V106.766ZM73.7461 106.766H75.7461V104.766H73.7461V106.766ZM73.7461 120H14.2148V124H73.7461V120ZM16.2148 122V109.109H12.2148V122H16.2148ZM15.664 110.488L43.0858 81.6597L40.1876 78.9028L12.7657 107.731L15.664 110.488ZM43.1395 81.601C46.5738 77.6903 49.2066 74.1184 50.9897 70.8923C52.7619 67.6858 53.7734 64.6805 53.7734 61.9414H49.7734C49.7734 63.7336 49.0955 66.0505 47.4888 68.9573C45.8931 71.8445 43.4575 75.1769 40.1339 78.9615L43.1395 81.601ZM53.7734 61.9414C53.7734 58.015 52.9215 54.689 50.905 52.2791L47.8372 54.8459C49.0238 56.2641 49.7734 58.5241 49.7734 61.9414H53.7734ZM50.905 52.2791C48.8401 49.8113 45.8941 48.6914 42.3984 48.6914V52.6914C44.9965 52.6914 46.6989 53.4856 47.8372 54.8459L50.905 52.2791ZM42.3984 48.6914C38.7071 48.6914 35.6817 50.323 33.4567 53.3823L36.6917 55.7349C38.2168 53.638 40.0741 52.6914 42.3984 52.6914V48.6914ZM33.4654 53.3705C31.2861 56.3216 30.2617 59.9467 30.2617 64.1094H34.2617C34.2617 60.6158 35.1124 57.8737 36.6831 55.7467L33.4654 53.3705ZM32.2617 62.1094H12.457V66.1094H32.2617V62.1094ZM14.457 64.1094C14.457 59.2264 15.6728 54.7556 18.1031 50.6567L14.6625 48.6167C11.8584 53.3459 10.457 58.5236 10.457 64.1094H14.457ZM18.1071 50.6501C20.5344 46.5199 23.8953 43.2989 28.2286 40.9684L26.3339 37.4456C21.3703 40.1151 17.4656 43.8472 14.6586 48.6233L18.1071 50.6501ZM28.2286 40.9684C32.5607 38.6386 37.4259 37.457 42.8672 37.457V33.457C36.8241 33.457 31.2987 34.7755 26.3339 37.4456L28.2286 40.9684ZM42.8672 37.457C51.8021 37.457 58.36 39.5214 62.8342 43.3614L65.4393 40.3261C59.9916 35.6505 52.3698 33.457 42.8672 33.457V37.457ZM62.84 43.3665C67.2991 47.1636 69.6367 52.664 69.6367 60.1836H73.6367C73.6367 51.7657 70.9743 45.0395 65.4334 40.321L62.84 43.3665ZM69.6367 60.1836C69.6367 63.2883 69.0603 66.3233 67.8986 69.3003L71.6249 70.7544C72.9631 67.3251 73.6367 63.7976 73.6367 60.1836H69.6367ZM67.9016 69.2925C66.7343 72.2474 64.8841 75.4298 62.3066 78.8412L65.4981 81.2525C68.2331 77.6327 70.2892 74.1355 71.6218 70.7622L67.9016 69.2925ZM62.3045 78.844C59.7732 82.2065 55.6143 86.7956 49.7733 92.6366L52.6017 95.465C58.4795 89.5873 62.7972 84.8403 65.5002 81.2497L62.3045 78.844ZM49.6759 92.7412L38.6603 105.456L41.6835 108.075L52.6991 95.3604L49.6759 92.7412ZM40.1719 108.766H73.7461V104.766H40.1719V108.766ZM71.7461 106.766V122H75.7461V106.766H71.7461Z" fill="#FCAF17"/>
</g>
<defs>
<filter id="filter0_d" x="-50" y="-50" width="513" height="285" filterUnits="userSpaceOnUse" color-interpolation-filters="sRGB">
<feFlood flood-opacity="0" result="BackgroundImageFix"/>
<feColorMatrix in="SourceAlpha" type="matrix" values="0 0 0 0 0 0 0 0 0 0 0 0 0 0 0 0 0 0 127 0" result="hardAlpha"/>
<feOffset/>
<feGaussianBlur stdDeviation="25"/>
<feComposite in2="hardAlpha" operator="out"/>
<feColorMatrix type="matrix" values="0 0 0 0 0 0 0 0 0 0 0 0 0 0 0 0 0 0 0.15 0"/>
<feBlend mode="normal" in2="BackgroundImageFix" result="effect1_dropShadow"/>
<feBlend mode="normal" in="SourceGraphic" in2="effect1_dropShadow" result="shape"/>
</filter>
<filter id="filter1_d" x="-50" y="-50" width="188" height="285" filterUnits="userSpaceOnUse" color-interpolation-filters="sRGB">
<feFlood flood-opacity="0" result="BackgroundImageFix"/>
<feColorMatrix in="SourceAlpha" type="matrix" values="0 0 0 0 0 0 0 0 0 0 0 0 0 0 0 0 0 0 127 0" result="hardAlpha"/>
<feOffset/>
<feGaussianBlur stdDeviation="25"/>
<feComposite in2="hardAlpha" operator="out"/>
<feColorMatrix type="matrix" values="0 0 0 0 0 0 0 0 0 0 0 0 0 0 0 0 0 0 0.15 0"/>
<feBlend mode="normal" in2="BackgroundImageFix" result="effect1_dropShadow"/>
<feBlend mode="normal" in="SourceGraphic" in2="effect1_dropShadow" result="shape"/>
</filter>
<filter id="filter2_d" x="-50" y="-50" width="513" height="285" filterUnits="userSpaceOnUse" color-interpolation-filters="sRGB">
<feFlood flood-opacity="0" result="BackgroundImageFix"/>
<feColorMatrix in="SourceAlpha" type="matrix" values="0 0 0 0 0 0 0 0 0 0 0 0 0 0 0 0 0 0 127 0" result="hardAlpha"/>
<feOffset/>
<feGaussianBlur stdDeviation="25"/>
<feComposite in2="hardAlpha" operator="out"/>
<feColorMatrix type="matrix" values="0 0 0 0 0 0 0 0 0 0 0 0 0 0 0 0 0 0 0.15 0"/>
<feBlend mode="normal" in2="BackgroundImageFix" result="effect1_dropShadow"/>
<feBlend mode="normal" in="SourceGraphic" in2="effect1_dropShadow" result="shape"/>
</filter>
<filter id="filter3_d" x="-50" y="-50" width="188" height="285" filterUnits="userSpaceOnUse" color-interpolation-filters="sRGB">
<feFlood flood-opacity="0" result="BackgroundImageFix"/>
<feColorMatrix in="SourceAlpha" type="matrix" values="0 0 0 0 0 0 0 0 0 0 0 0 0 0 0 0 0 0 127 0" result="hardAlpha"/>
<feOffset/>
<feGaussianBlur stdDeviation="25"/>
<feComposite in2="hardAlpha" operator="out"/>
<feColorMatrix type="matrix" values="0 0 0 0 0 0 0 0 0 0 0 0 0 0 0 0 0 0 0.15 0"/>
<feBlend mode="normal" in2="BackgroundImageFix" result="effect1_dropShadow"/>
<feBlend mode="normal" in="SourceGraphic" in2="effect1_dropShadow" result="shape"/>
</filter>
<clipPath id="clip0">
<rect width="413" height="185" fill="white"/>
</clipPath>
<clipPath id="clip1">
<rect width="204" height="185" fill="white"/>
</clipPath>
</defs>
</svg>
