<svg width="413" height="185" viewBox="0 0 413 185" fill="none" xmlns="http://www.w3.org/2000/svg">
<g clip-path="url(#clip0)">
<g filter="url(#filter0_d)">
<rect x="1" y="1" width="411" height="183" stroke="white" stroke-width="2" shape-rendering="crispEdges"/>
</g>
<g filter="url(#filter1_d)">
<rect x="1" y="1" width="86" height="183" stroke="white" stroke-width="2" shape-rendering="crispEdges"/>
</g>
<path d="M112.968 98.93V101.792C112.968 104.516 112.548 106.67 111.708 108.254H116.532V98.93H112.968ZM111.096 97.184H118.476V108.254H119.988V112.88H118.08V110H110.304V112.88H108.414V108.254H109.53C110.574 106.634 111.096 104.204 111.096 100.964V97.184ZM129.156 105.428C129.156 106.268 129.078 106.97 128.922 107.534C128.766 108.098 128.484 108.596 128.076 109.028C127.38 109.748 126.468 110.108 125.34 110.108C124.224 110.108 123.318 109.748 122.622 109.028C122.214 108.596 121.932 108.098 121.776 107.534C121.62 106.97 121.542 106.268 121.542 105.428C121.542 104.6 121.62 103.904 121.776 103.34C121.932 102.764 122.214 102.266 122.622 101.846C123.318 101.126 124.224 100.766 125.34 100.766C126.468 100.766 127.38 101.126 128.076 101.846C128.484 102.266 128.766 102.764 128.922 103.34C129.078 103.904 129.156 104.6 129.156 105.428ZM126.69 107.93C127.11 107.51 127.32 106.676 127.32 105.428C127.32 104.18 127.11 103.346 126.69 102.926C126.342 102.578 125.892 102.404 125.34 102.404C124.8 102.404 124.356 102.578 124.008 102.926C123.588 103.346 123.378 104.18 123.378 105.428C123.378 106.676 123.588 107.51 124.008 107.93C124.368 108.29 124.812 108.47 125.34 108.47C125.88 108.47 126.33 108.29 126.69 107.93ZM138.364 110H136.528V102.476H133.882V105.122C133.882 106.07 133.816 106.868 133.684 107.516C133.552 108.164 133.354 108.668 133.09 109.028C132.826 109.376 132.52 109.628 132.172 109.784C131.836 109.928 131.434 110 130.966 110H130.102V108.38H130.39C130.582 108.38 130.744 108.368 130.876 108.344C131.008 108.308 131.158 108.224 131.326 108.092C131.506 107.948 131.644 107.756 131.74 107.516C131.848 107.264 131.938 106.898 132.01 106.418C132.082 105.926 132.118 105.344 132.118 104.672V100.874H138.364V110ZM146.116 105.122V102.35H143.974C143.506 102.35 143.14 102.476 142.876 102.728C142.612 102.98 142.48 103.322 142.48 103.754C142.48 104.186 142.612 104.522 142.876 104.762C143.14 105.002 143.506 105.122 143.974 105.122H146.116ZM142.696 110H140.59L142.57 106.256C141.982 106.088 141.52 105.776 141.184 105.32C140.848 104.864 140.68 104.312 140.68 103.664C140.68 102.836 140.95 102.164 141.49 101.648C142.042 101.132 142.756 100.874 143.632 100.874H147.934V110H146.098V106.598H144.424L142.696 110ZM160.183 105.86H154.927V104.15H160.183V105.86ZM174.295 110H166.843V108.362L171.775 102.368C172.231 101.816 172.459 101.246 172.459 100.658C172.459 100.07 172.291 99.602 171.955 99.254C171.631 98.894 171.175 98.714 170.587 98.714C170.047 98.714 169.597 98.876 169.237 99.2C168.877 99.524 168.697 100.022 168.697 100.694H166.861C166.861 99.614 167.209 98.744 167.905 98.084C168.601 97.412 169.495 97.076 170.587 97.076C171.691 97.076 172.585 97.406 173.269 98.066C173.953 98.714 174.295 99.584 174.295 100.676C174.295 101.204 174.199 101.666 174.007 102.062C173.827 102.446 173.521 102.908 173.089 103.448L169.075 108.362H174.295V110ZM183.803 106.436C183.803 107.552 183.449 108.446 182.741 109.118C182.033 109.778 181.151 110.108 180.095 110.108C179.051 110.108 178.175 109.778 177.467 109.118C176.759 108.446 176.405 107.552 176.405 106.436V100.748C176.405 99.632 176.759 98.744 177.467 98.084C178.175 97.412 179.051 97.076 180.095 97.076C181.151 97.076 182.033 97.412 182.741 98.084C183.449 98.744 183.803 99.632 183.803 100.748V106.436ZM181.967 106.382V100.802C181.967 100.178 181.799 99.674 181.463 99.29C181.127 98.906 180.671 98.714 180.095 98.714C179.531 98.714 179.081 98.906 178.745 99.29C178.409 99.674 178.241 100.178 178.241 100.802V106.382C178.241 107.006 178.409 107.51 178.745 107.894C179.081 108.278 179.531 108.47 180.095 108.47C180.671 108.47 181.127 108.278 181.463 107.894C181.799 107.51 181.967 107.006 181.967 106.382ZM199.016 107.66C199.016 108.416 198.776 109.016 198.296 109.46C197.816 109.904 197.216 110.126 196.496 110.126C195.776 110.126 195.176 109.904 194.696 109.46C194.216 109.016 193.976 108.416 193.976 107.66V105.842C193.976 105.086 194.216 104.486 194.696 104.042C195.176 103.598 195.776 103.376 196.496 103.376C197.216 103.376 197.816 103.598 198.296 104.042C198.776 104.486 199.016 105.086 199.016 105.842V107.66ZM190.988 101.342C190.988 102.098 190.748 102.698 190.268 103.142C189.788 103.574 189.188 103.79 188.468 103.79C187.748 103.79 187.148 103.574 186.668 103.142C186.188 102.698 185.948 102.098 185.948 101.342V99.524C185.948 98.768 186.188 98.168 186.668 97.724C187.148 97.28 187.748 97.058 188.468 97.058C189.188 97.058 189.788 97.28 190.268 97.724C190.748 98.168 190.988 98.768 190.988 99.524V101.342ZM196.226 97.184L190.196 110H188.72L194.768 97.184H196.226ZM197.63 107.606V105.896C197.63 105.032 197.252 104.6 196.496 104.6C195.74 104.6 195.362 105.032 195.362 105.896V107.606C195.362 108.47 195.74 108.902 196.496 108.902C197.252 108.902 197.63 108.47 197.63 107.606ZM189.602 101.288V99.578C189.602 98.714 189.224 98.282 188.468 98.282C187.712 98.282 187.334 98.714 187.334 99.578V101.288C187.334 102.14 187.712 102.566 188.468 102.566C189.224 102.566 189.602 102.14 189.602 101.288ZM118.728 128.4C118.728 129.504 118.38 130.38 117.684 131.028C117 131.676 116.058 132 114.858 132H109.674V119.184H114.66C115.824 119.184 116.76 119.502 117.468 120.138C118.176 120.762 118.53 121.596 118.53 122.64C118.53 123.936 117.954 124.866 116.802 125.43C118.086 126.03 118.728 127.02 118.728 128.4ZM116.028 124.116C116.4 123.792 116.586 123.342 116.586 122.766C116.586 122.19 116.4 121.74 116.028 121.416C115.656 121.092 115.146 120.93 114.498 120.93H111.618V124.602H114.498C115.146 124.602 115.656 124.44 116.028 124.116ZM116.19 129.732C116.574 129.372 116.766 128.892 116.766 128.292C116.766 127.692 116.574 127.218 116.19 126.87C115.818 126.522 115.308 126.348 114.66 126.348H111.618V130.254H114.66C115.308 130.254 115.818 130.08 116.19 129.732ZM131.69 132H129.854V122.874H131.69V132ZM127.766 127.104C128.318 127.632 128.594 128.316 128.594 129.156C128.594 129.996 128.318 130.68 127.766 131.208C127.226 131.736 126.512 132 125.624 132H121.394V122.874H123.23V126.312H125.624C126.512 126.312 127.226 126.576 127.766 127.104ZM126.38 130.146C126.644 129.906 126.776 129.576 126.776 129.156C126.776 128.736 126.644 128.412 126.38 128.184C126.128 127.944 125.774 127.824 125.318 127.824H123.23V130.506H125.318C125.774 130.506 126.128 130.386 126.38 130.146ZM142.205 127.428C142.205 129.312 141.863 130.602 141.179 131.298C140.639 131.838 139.901 132.108 138.965 132.108C137.945 132.108 137.147 131.76 136.571 131.064V135.69H134.735V122.874H136.535V123.846C137.135 123.126 137.939 122.766 138.947 122.766C139.895 122.766 140.639 123.036 141.179 123.576C141.863 124.272 142.205 125.556 142.205 127.428ZM140.297 128.598C140.345 128.274 140.369 127.884 140.369 127.428C140.369 126.972 140.345 126.582 140.297 126.258C140.261 125.934 140.177 125.622 140.045 125.322C139.925 125.022 139.733 124.794 139.469 124.638C139.205 124.482 138.875 124.404 138.479 124.404C138.071 124.404 137.735 124.482 137.471 124.638C137.207 124.794 137.009 125.022 136.877 125.322C136.757 125.622 136.673 125.934 136.625 126.258C136.589 126.582 136.571 126.972 136.571 127.428C136.571 127.884 136.589 128.274 136.625 128.598C136.673 128.922 136.757 129.24 136.877 129.552C137.009 129.852 137.207 130.08 137.471 130.236C137.747 130.392 138.083 130.47 138.479 130.47C138.875 130.47 139.205 130.392 139.469 130.236C139.733 130.08 139.925 129.852 140.045 129.552C140.177 129.24 140.261 128.922 140.297 128.598ZM151.403 122.874L147.371 133.818C146.939 135.018 146.093 135.618 144.833 135.618H144.095V133.962H144.563C144.947 133.962 145.229 133.896 145.409 133.764C145.589 133.644 145.745 133.392 145.877 133.008L146.381 131.568L143.177 122.874H145.139L147.317 129.318L149.441 122.874H151.403ZM159.626 132H157.79V128.634C156.83 128.826 155.96 128.922 155.18 128.922C154.4 128.922 153.77 128.706 153.29 128.274C152.822 127.83 152.588 127.2 152.588 126.384V122.874H154.424V125.934C154.424 126.834 154.868 127.284 155.756 127.284C156.308 127.284 156.986 127.212 157.79 127.068V122.874H159.626V132ZM164.434 132H162.58V122.874H164.434V132ZM170.392 132H168.142L164.452 127.248L167.926 122.874H170.122L166.486 127.158L170.392 132ZM178.381 132H176.581V131.172C176.245 131.508 175.891 131.748 175.519 131.892C175.159 132.036 174.703 132.108 174.151 132.108C173.071 132.108 172.255 131.832 171.703 131.28C171.223 130.776 170.983 130.122 170.983 129.318C170.983 128.526 171.253 127.89 171.793 127.41C172.345 126.93 173.131 126.69 174.151 126.69H176.545V126.042C176.545 125.454 176.389 125.022 176.077 124.746C175.765 124.47 175.255 124.332 174.547 124.332C174.067 124.332 173.677 124.404 173.377 124.548C173.089 124.68 172.813 124.908 172.549 125.232L171.361 124.098C171.781 123.606 172.231 123.264 172.711 123.072C173.203 122.868 173.839 122.766 174.619 122.766C177.127 122.766 178.381 123.81 178.381 125.898V132ZM176.545 128.706V127.968H174.439C173.323 127.968 172.765 128.406 172.765 129.282C172.765 130.146 173.341 130.578 174.493 130.578C175.225 130.578 175.777 130.404 176.149 130.056C176.413 129.804 176.545 129.354 176.545 128.706ZM190.54 127.86H185.284V126.15H190.54V127.86ZM202.456 132H200.62V121.182L198.118 123.378V121.344L200.62 119.184H202.456V132ZM214.43 120.822L210.146 132H208.166L212.468 120.822H208.562V122.838H206.798V119.184H214.43V120.822ZM228.172 122.91C228.172 123.738 227.854 124.788 227.218 126.06L224.302 132H222.34L225.094 126.492C224.782 126.624 224.398 126.69 223.942 126.69C222.994 126.69 222.196 126.348 221.548 125.664C220.912 124.98 220.594 124.086 220.594 122.982C220.594 121.806 220.942 120.864 221.638 120.156C222.346 119.436 223.258 119.076 224.374 119.076C225.502 119.076 226.414 119.424 227.11 120.12C227.818 120.804 228.172 121.734 228.172 122.91ZM226.336 122.946C226.336 122.274 226.156 121.734 225.796 121.326C225.436 120.918 224.962 120.714 224.374 120.714C223.798 120.714 223.33 120.918 222.97 121.326C222.61 121.722 222.43 122.262 222.43 122.946C222.43 123.594 222.604 124.128 222.952 124.548C223.3 124.956 223.774 125.16 224.374 125.16C224.962 125.16 225.436 124.962 225.796 124.566C226.156 124.17 226.336 123.63 226.336 122.946ZM237.788 128.4C237.788 129.588 237.416 130.506 236.672 131.154C235.928 131.802 234.992 132.126 233.864 132.126C232.76 132.126 231.836 131.826 231.092 131.226C230.36 130.614 229.976 129.714 229.94 128.526H231.776C231.812 129.174 232.022 129.66 232.406 129.984C232.802 130.308 233.288 130.47 233.864 130.47C234.476 130.47 234.974 130.284 235.358 129.912C235.754 129.528 235.952 129.006 235.952 128.346C235.952 127.686 235.772 127.17 235.412 126.798C235.052 126.426 234.518 126.24 233.81 126.24H233.504V124.638H233.81C234.458 124.638 234.944 124.464 235.268 124.116C235.592 123.768 235.754 123.294 235.754 122.694C235.754 122.07 235.574 121.584 235.214 121.236C234.854 120.888 234.404 120.714 233.864 120.714C233.312 120.714 232.862 120.882 232.514 121.218C232.178 121.542 231.986 121.986 231.938 122.55H230.102C230.15 121.482 230.528 120.636 231.236 120.012C231.944 119.376 232.82 119.058 233.864 119.058C234.956 119.058 235.85 119.394 236.546 120.066C237.242 120.726 237.59 121.584 237.59 122.64C237.59 123.936 237.056 124.848 235.988 125.376C237.188 125.904 237.788 126.912 237.788 128.4ZM247.367 122.91C247.367 123.738 247.049 124.788 246.413 126.06L243.497 132H241.535L244.289 126.492C243.977 126.624 243.593 126.69 243.137 126.69C242.189 126.69 241.391 126.348 240.743 125.664C240.107 124.98 239.789 124.086 239.789 122.982C239.789 121.806 240.137 120.864 240.833 120.156C241.541 119.436 242.453 119.076 243.569 119.076C244.697 119.076 245.609 119.424 246.305 120.12C247.013 120.804 247.367 121.734 247.367 122.91ZM245.531 122.946C245.531 122.274 245.351 121.734 244.991 121.326C244.631 120.918 244.157 120.714 243.569 120.714C242.993 120.714 242.525 120.918 242.165 121.326C241.805 121.722 241.625 122.262 241.625 122.946C241.625 123.594 241.799 124.128 242.147 124.548C242.495 124.956 242.969 125.16 243.569 125.16C244.157 125.16 244.631 124.962 244.991 124.566C245.351 124.17 245.531 123.63 245.531 122.946ZM261.199 128.436C261.199 129.552 260.845 130.446 260.137 131.118C259.429 131.778 258.547 132.108 257.491 132.108C256.447 132.108 255.571 131.778 254.863 131.118C254.155 130.446 253.801 129.552 253.801 128.436V122.748C253.801 121.632 254.155 120.744 254.863 120.084C255.571 119.412 256.447 119.076 257.491 119.076C258.547 119.076 259.429 119.412 260.137 120.084C260.845 120.744 261.199 121.632 261.199 122.748V128.436ZM259.363 128.382V122.802C259.363 122.178 259.195 121.674 258.859 121.29C258.523 120.906 258.067 120.714 257.491 120.714C256.927 120.714 256.477 120.906 256.141 121.29C255.805 121.674 255.637 122.178 255.637 122.802V128.382C255.637 129.006 255.805 129.51 256.141 129.894C256.477 130.278 256.927 130.47 257.491 130.47C258.067 130.47 258.523 130.278 258.859 129.894C259.195 129.51 259.363 129.006 259.363 128.382ZM270.797 128.436C270.797 129.552 270.443 130.446 269.735 131.118C269.027 131.778 268.145 132.108 267.089 132.108C266.045 132.108 265.169 131.778 264.461 131.118C263.753 130.446 263.399 129.552 263.399 128.436V122.748C263.399 121.632 263.753 120.744 264.461 120.084C265.169 119.412 266.045 119.076 267.089 119.076C268.145 119.076 269.027 119.412 269.735 120.084C270.443 120.744 270.797 121.632 270.797 122.748V128.436ZM268.961 128.382V122.802C268.961 122.178 268.793 121.674 268.457 121.29C268.121 120.906 267.665 120.714 267.089 120.714C266.525 120.714 266.075 120.906 265.739 121.29C265.403 121.674 265.235 122.178 265.235 122.802V128.382C265.235 129.006 265.403 129.51 265.739 129.894C266.075 130.278 266.525 130.47 267.089 130.47C267.665 130.47 268.121 130.278 268.457 129.894C268.793 129.51 268.961 129.006 268.961 128.382ZM280.394 128.436C280.394 129.552 280.04 130.446 279.332 131.118C278.624 131.778 277.742 132.108 276.686 132.108C275.642 132.108 274.766 131.778 274.058 131.118C273.35 130.446 272.996 129.552 272.996 128.436V122.748C272.996 121.632 273.35 120.744 274.058 120.084C274.766 119.412 275.642 119.076 276.686 119.076C277.742 119.076 278.624 119.412 279.332 120.084C280.04 120.744 280.394 121.632 280.394 122.748V128.436ZM278.558 128.382V122.802C278.558 122.178 278.39 121.674 278.054 121.29C277.718 120.906 277.262 120.714 276.686 120.714C276.122 120.714 275.672 120.906 275.336 121.29C275 121.674 274.832 122.178 274.832 122.802V128.382C274.832 129.006 275 129.51 275.336 129.894C275.672 130.278 276.122 130.47 276.686 130.47C277.262 130.47 277.718 130.278 278.054 129.894C278.39 129.51 278.558 129.006 278.558 128.382ZM294.748 127.428C294.748 129.312 294.406 130.602 293.722 131.298C293.182 131.838 292.444 132.108 291.508 132.108C290.488 132.108 289.69 131.76 289.114 131.064V135.69H287.278V122.874H289.078V123.846C289.678 123.126 290.482 122.766 291.49 122.766C292.438 122.766 293.182 123.036 293.722 123.576C294.406 124.272 294.748 125.556 294.748 127.428ZM292.84 128.598C292.888 128.274 292.912 127.884 292.912 127.428C292.912 126.972 292.888 126.582 292.84 126.258C292.804 125.934 292.72 125.622 292.588 125.322C292.468 125.022 292.276 124.794 292.012 124.638C291.748 124.482 291.418 124.404 291.022 124.404C290.614 124.404 290.278 124.482 290.014 124.638C289.75 124.794 289.552 125.022 289.42 125.322C289.3 125.622 289.216 125.934 289.168 126.258C289.132 126.582 289.114 126.972 289.114 127.428C289.114 127.884 289.132 128.274 289.168 128.598C289.216 128.922 289.3 129.24 289.42 129.552C289.552 129.852 289.75 130.08 290.014 130.236C290.29 130.392 290.626 130.47 291.022 130.47C291.418 130.47 291.748 130.392 292.012 130.236C292.276 130.08 292.468 129.852 292.588 129.552C292.72 129.24 292.804 128.922 292.84 128.598ZM303.946 122.874L299.914 133.818C299.482 135.018 298.636 135.618 297.376 135.618H296.638V133.962H297.106C297.49 133.962 297.772 133.896 297.952 133.764C298.132 133.644 298.288 133.392 298.42 133.008L298.924 131.568L295.72 122.874H297.682L299.86 129.318L301.984 122.874H303.946ZM309.052 130.452C309.628 130.452 310.078 130.272 310.402 129.912C310.786 129.456 310.978 128.646 310.978 127.482C310.978 126.27 310.792 125.454 310.42 125.034C310.072 124.65 309.616 124.458 309.052 124.458C308.464 124.458 308.002 124.65 307.666 125.034C307.258 125.502 307.054 126.306 307.054 127.446C307.054 128.598 307.27 129.42 307.702 129.912C308.05 130.272 308.5 130.452 309.052 130.452ZM309.07 132.108C308.302 132.108 307.63 131.946 307.054 131.622C306.478 131.298 306.052 130.83 305.776 130.218C305.416 129.45 305.236 128.106 305.236 126.186C305.236 124.194 305.32 122.826 305.488 122.082C305.656 121.338 306.028 120.72 306.604 120.228C306.976 119.904 307.462 119.658 308.062 119.49C308.674 119.322 309.232 119.22 309.736 119.184C310.252 119.148 311.032 119.112 312.076 119.076V120.696C311.896 120.708 311.572 120.726 311.104 120.75C310.636 120.774 310.252 120.798 309.952 120.822C309.652 120.846 309.31 120.906 308.926 121.002C308.542 121.098 308.23 121.23 307.99 121.398C307.57 121.674 307.282 122.022 307.126 122.442C306.97 122.85 306.892 123.396 306.892 124.08C307.084 123.72 307.408 123.432 307.864 123.216C308.332 123 308.842 122.892 309.394 122.892C310.33 122.892 311.074 123.15 311.626 123.666C312.418 124.41 312.814 125.658 312.814 127.41C312.814 129.102 312.442 130.326 311.698 131.082C311.038 131.766 310.162 132.108 309.07 132.108ZM317.405 132H315.209V129.804H317.405V132ZM117.972 154H116.028V148.978C114.612 149.254 113.466 149.392 112.59 149.392C111.654 149.392 110.862 149.134 110.214 148.618C109.578 148.09 109.26 147.298 109.26 146.242V141.184H111.222V145.774C111.222 147.022 111.876 147.646 113.184 147.646C113.976 147.646 114.924 147.526 116.028 147.286V141.184H117.972V154ZM128.69 154H126.854V147.718L122.948 154H121.112V144.874H122.948V151.066L126.854 144.874H128.69V154ZM138.212 152.812C137.396 153.676 136.394 154.108 135.206 154.108C134.666 154.108 134.162 154.024 133.694 153.856C133.226 153.676 132.794 153.412 132.398 153.064C132.014 152.704 131.708 152.218 131.48 151.606C131.252 150.982 131.138 150.256 131.138 149.428C131.138 148.6 131.252 147.88 131.48 147.268C131.708 146.644 132.014 146.158 132.398 145.81C132.794 145.45 133.226 145.186 133.694 145.018C134.162 144.85 134.666 144.766 135.206 144.766C136.406 144.766 137.408 145.192 138.212 146.044L136.952 147.268C136.664 146.956 136.388 146.734 136.124 146.602C135.872 146.47 135.566 146.404 135.206 146.404C134.486 146.404 133.922 146.674 133.514 147.214C133.154 147.67 132.974 148.408 132.974 149.428C132.974 150.46 133.154 151.204 133.514 151.66C133.922 152.2 134.486 152.47 135.206 152.47C135.566 152.47 135.872 152.404 136.124 152.272C136.388 152.14 136.664 151.918 136.952 151.606L138.212 152.812ZM146.695 146.476H143.905V154H142.069V146.476H139.171V144.874H146.695V146.476ZM154.985 154H153.185V153.172C152.849 153.508 152.495 153.748 152.123 153.892C151.763 154.036 151.307 154.108 150.755 154.108C149.675 154.108 148.859 153.832 148.307 153.28C147.827 152.776 147.587 152.122 147.587 151.318C147.587 150.526 147.857 149.89 148.397 149.41C148.949 148.93 149.735 148.69 150.755 148.69H153.149V148.042C153.149 147.454 152.993 147.022 152.681 146.746C152.369 146.47 151.859 146.332 151.151 146.332C150.671 146.332 150.281 146.404 149.981 146.548C149.693 146.68 149.417 146.908 149.153 147.232L147.965 146.098C148.385 145.606 148.835 145.264 149.315 145.072C149.807 144.868 150.443 144.766 151.223 144.766C153.731 144.766 154.985 145.81 154.985 147.898V154ZM153.149 150.706V149.968H151.043C149.927 149.968 149.369 150.406 149.369 151.282C149.369 152.146 149.945 152.578 151.097 152.578C151.829 152.578 152.381 152.404 152.753 152.056C153.017 151.804 153.149 151.354 153.149 150.706ZM162.639 149.122V146.35H160.497C160.029 146.35 159.663 146.476 159.399 146.728C159.135 146.98 159.003 147.322 159.003 147.754C159.003 148.186 159.135 148.522 159.399 148.762C159.663 149.002 160.029 149.122 160.497 149.122H162.639ZM159.219 154H157.113L159.093 150.256C158.505 150.088 158.043 149.776 157.707 149.32C157.371 148.864 157.203 148.312 157.203 147.664C157.203 146.836 157.473 146.164 158.013 145.648C158.565 145.132 159.279 144.874 160.155 144.874H164.457V154H162.621V150.598H160.947L159.219 154ZM179.01 154H177.174V146.476H173.538V154H171.702V144.874H179.01V154ZM189.315 149.428C189.315 151.312 188.973 152.602 188.289 153.298C187.749 153.838 187.011 154.108 186.075 154.108C185.055 154.108 184.257 153.76 183.681 153.064V157.69H181.845V144.874H183.645V145.846C184.245 145.126 185.049 144.766 186.057 144.766C187.005 144.766 187.749 145.036 188.289 145.576C188.973 146.272 189.315 147.556 189.315 149.428ZM187.407 150.598C187.455 150.274 187.479 149.884 187.479 149.428C187.479 148.972 187.455 148.582 187.407 148.258C187.371 147.934 187.287 147.622 187.155 147.322C187.035 147.022 186.843 146.794 186.579 146.638C186.315 146.482 185.985 146.404 185.589 146.404C185.181 146.404 184.845 146.482 184.581 146.638C184.317 146.794 184.119 147.022 183.987 147.322C183.867 147.622 183.783 147.934 183.735 148.258C183.699 148.582 183.681 148.972 183.681 149.428C183.681 149.884 183.699 150.274 183.735 150.598C183.783 150.922 183.867 151.24 183.987 151.552C184.119 151.852 184.317 152.08 184.581 152.236C184.857 152.392 185.193 152.47 185.589 152.47C185.985 152.47 186.315 152.392 186.579 152.236C186.843 152.08 187.035 151.852 187.155 151.552C187.287 151.24 187.371 150.922 187.407 150.598ZM199.372 154H197.536V147.718L193.63 154H191.794V144.874H193.63V151.066L197.536 144.874H199.372V154ZM205.816 152.452C206.392 152.452 206.842 152.272 207.166 151.912C207.55 151.456 207.742 150.646 207.742 149.482C207.742 148.27 207.556 147.454 207.184 147.034C206.836 146.65 206.38 146.458 205.816 146.458C205.228 146.458 204.766 146.65 204.43 147.034C204.022 147.502 203.818 148.306 203.818 149.446C203.818 150.598 204.034 151.42 204.466 151.912C204.814 152.272 205.264 152.452 205.816 152.452ZM205.834 154.108C205.066 154.108 204.394 153.946 203.818 153.622C203.242 153.298 202.816 152.83 202.54 152.218C202.18 151.45 202 150.106 202 148.186C202 146.194 202.084 144.826 202.252 144.082C202.42 143.338 202.792 142.72 203.368 142.228C203.74 141.904 204.226 141.658 204.826 141.49C205.438 141.322 205.996 141.22 206.5 141.184C207.016 141.148 207.796 141.112 208.84 141.076V142.696C208.66 142.708 208.336 142.726 207.868 142.75C207.4 142.774 207.016 142.798 206.716 142.822C206.416 142.846 206.074 142.906 205.69 143.002C205.306 143.098 204.994 143.23 204.754 143.398C204.334 143.674 204.046 144.022 203.89 144.442C203.734 144.85 203.656 145.396 203.656 146.08C203.848 145.72 204.172 145.432 204.628 145.216C205.096 145 205.606 144.892 206.158 144.892C207.094 144.892 207.838 145.15 208.39 145.666C209.182 146.41 209.578 147.658 209.578 149.41C209.578 151.102 209.206 152.326 208.462 153.082C207.802 153.766 206.926 154.108 205.834 154.108ZM222.322 154H220.486V144.874H222.322V154ZM218.398 149.104C218.95 149.632 219.226 150.316 219.226 151.156C219.226 151.996 218.95 152.68 218.398 153.208C217.858 153.736 217.144 154 216.256 154H212.026V144.874H213.862V148.312H216.256C217.144 148.312 217.858 148.576 218.398 149.104ZM217.012 152.146C217.276 151.906 217.408 151.576 217.408 151.156C217.408 150.736 217.276 150.412 217.012 150.184C216.76 149.944 216.406 149.824 215.95 149.824H213.862V152.506H215.95C216.406 152.506 216.76 152.386 217.012 152.146ZM232.442 154H230.606V146.476H227.96V149.122C227.96 150.07 227.894 150.868 227.762 151.516C227.63 152.164 227.432 152.668 227.168 153.028C226.904 153.376 226.598 153.628 226.25 153.784C225.914 153.928 225.512 154 225.044 154H224.18V152.38H224.468C224.66 152.38 224.822 152.368 224.954 152.344C225.086 152.308 225.236 152.224 225.404 152.092C225.584 151.948 225.722 151.756 225.818 151.516C225.926 151.264 226.016 150.898 226.088 150.418C226.16 149.926 226.196 149.344 226.196 148.672V144.874H232.442V154ZM241.742 149.104C242.294 149.62 242.57 150.304 242.57 151.156C242.57 152.008 242.294 152.698 241.742 153.226C241.202 153.742 240.494 154 239.618 154H235.37V144.874H237.206V148.312H239.618C240.494 148.312 241.202 148.576 241.742 149.104ZM240.374 152.146C240.626 151.906 240.752 151.576 240.752 151.156C240.752 150.736 240.626 150.412 240.374 150.184C240.122 149.944 239.768 149.824 239.312 149.824H237.206V152.506H239.312C239.768 152.506 240.122 152.386 240.374 152.146ZM254.015 149.86H248.759V148.15H254.015V149.86ZM268.145 150.4C268.145 151.588 267.773 152.506 267.029 153.154C266.285 153.802 265.349 154.126 264.221 154.126C263.117 154.126 262.193 153.826 261.449 153.226C260.717 152.614 260.333 151.714 260.297 150.526H262.133C262.169 151.174 262.379 151.66 262.763 151.984C263.159 152.308 263.645 152.47 264.221 152.47C264.833 152.47 265.331 152.284 265.715 151.912C266.111 151.528 266.309 151.006 266.309 150.346C266.309 149.686 266.129 149.17 265.769 148.798C265.409 148.426 264.875 148.24 264.167 148.24H263.861V146.638H264.167C264.815 146.638 265.301 146.464 265.625 146.116C265.949 145.768 266.111 145.294 266.111 144.694C266.111 144.07 265.931 143.584 265.571 143.236C265.211 142.888 264.761 142.714 264.221 142.714C263.669 142.714 263.219 142.882 262.871 143.218C262.535 143.542 262.343 143.986 262.295 144.55H260.459C260.507 143.482 260.885 142.636 261.593 142.012C262.301 141.376 263.177 141.058 264.221 141.058C265.313 141.058 266.207 141.394 266.903 142.066C267.599 142.726 267.947 143.584 267.947 144.64C267.947 145.936 267.413 146.848 266.345 147.376C267.545 147.904 268.145 148.912 268.145 150.4ZM282.085 149.716C282.085 150.496 282.013 151.15 281.869 151.678C281.725 152.206 281.437 152.686 281.005 153.118C280.333 153.79 279.433 154.126 278.305 154.126C277.141 154.126 276.229 153.796 275.569 153.136C275.005 152.572 274.681 151.756 274.597 150.688H276.433C276.589 151.876 277.213 152.47 278.305 152.47C278.857 152.47 279.301 152.302 279.637 151.966C280.045 151.558 280.249 150.808 280.249 149.716C280.249 147.928 279.625 147.034 278.377 147.034C277.405 147.034 276.799 147.418 276.559 148.186H274.885V141.184H281.797V142.822H276.541V146.206C277.009 145.714 277.717 145.468 278.665 145.468C279.649 145.468 280.417 145.744 280.969 146.296C281.713 147.04 282.085 148.18 282.085 149.716ZM292.025 152.074H290.657V154H288.875V152.074H283.691V150.364L288.209 141.184H290.189L285.689 150.364H288.875V147.376H290.657V150.364H292.025V152.074ZM301.424 142.822L297.14 154H295.16L299.462 142.822H295.556V144.838H293.792V141.184H301.424V142.822ZM315.184 150.4C315.184 151.588 314.812 152.506 314.068 153.154C313.324 153.802 312.388 154.126 311.26 154.126C310.156 154.126 309.232 153.826 308.488 153.226C307.756 152.614 307.372 151.714 307.336 150.526H309.172C309.208 151.174 309.418 151.66 309.802 151.984C310.198 152.308 310.684 152.47 311.26 152.47C311.872 152.47 312.37 152.284 312.754 151.912C313.15 151.528 313.348 151.006 313.348 150.346C313.348 149.686 313.168 149.17 312.808 148.798C312.448 148.426 311.914 148.24 311.206 148.24H310.9V146.638H311.206C311.854 146.638 312.34 146.464 312.664 146.116C312.988 145.768 313.15 145.294 313.15 144.694C313.15 144.07 312.97 143.584 312.61 143.236C312.25 142.888 311.8 142.714 311.26 142.714C310.708 142.714 310.258 142.882 309.91 143.218C309.574 143.542 309.382 143.986 309.334 144.55H307.498C307.546 143.482 307.924 142.636 308.632 142.012C309.34 141.376 310.216 141.058 311.26 141.058C312.352 141.058 313.246 141.394 313.942 142.066C314.638 142.726 314.986 143.584 314.986 144.64C314.986 145.936 314.452 146.848 313.384 147.376C314.584 147.904 315.184 148.912 315.184 150.4ZM324.674 150.436C324.674 151.552 324.32 152.446 323.612 153.118C322.904 153.778 322.022 154.108 320.966 154.108C319.922 154.108 319.046 153.778 318.338 153.118C317.63 152.446 317.276 151.552 317.276 150.436V144.748C317.276 143.632 317.63 142.744 318.338 142.084C319.046 141.412 319.922 141.076 320.966 141.076C322.022 141.076 322.904 141.412 323.612 142.084C324.32 142.744 324.674 143.632 324.674 144.748V150.436ZM322.838 150.382V144.802C322.838 144.178 322.67 143.674 322.334 143.29C321.998 142.906 321.542 142.714 320.966 142.714C320.402 142.714 319.952 142.906 319.616 143.29C319.28 143.674 319.112 144.178 319.112 144.802V150.382C319.112 151.006 319.28 151.51 319.616 151.894C319.952 152.278 320.402 152.47 320.966 152.47C321.542 152.47 321.998 152.278 322.334 151.894C322.67 151.51 322.838 151.006 322.838 150.382ZM334.271 150.436C334.271 151.552 333.917 152.446 333.209 153.118C332.501 153.778 331.619 154.108 330.563 154.108C329.519 154.108 328.643 153.778 327.935 153.118C327.227 152.446 326.873 151.552 326.873 150.436V144.748C326.873 143.632 327.227 142.744 327.935 142.084C328.643 141.412 329.519 141.076 330.563 141.076C331.619 141.076 332.501 141.412 333.209 142.084C333.917 142.744 334.271 143.632 334.271 144.748V150.436ZM332.435 150.382V144.802C332.435 144.178 332.267 143.674 331.931 143.29C331.595 142.906 331.139 142.714 330.563 142.714C329.999 142.714 329.549 142.906 329.213 143.29C328.877 143.674 328.709 144.178 328.709 144.802V150.382C328.709 151.006 328.877 151.51 329.213 151.894C329.549 152.278 329.999 152.47 330.563 152.47C331.139 152.47 331.595 152.278 331.931 151.894C332.267 151.51 332.435 151.006 332.435 150.382ZM348.625 149.428C348.625 151.312 348.283 152.602 347.599 153.298C347.059 153.838 346.321 154.108 345.385 154.108C344.365 154.108 343.567 153.76 342.991 153.064V157.69H341.155V144.874H342.955V145.846C343.555 145.126 344.359 144.766 345.367 144.766C346.315 144.766 347.059 145.036 347.599 145.576C348.283 146.272 348.625 147.556 348.625 149.428ZM346.717 150.598C346.765 150.274 346.789 149.884 346.789 149.428C346.789 148.972 346.765 148.582 346.717 148.258C346.681 147.934 346.597 147.622 346.465 147.322C346.345 147.022 346.153 146.794 345.889 146.638C345.625 146.482 345.295 146.404 344.899 146.404C344.491 146.404 344.155 146.482 343.891 146.638C343.627 146.794 343.429 147.022 343.297 147.322C343.177 147.622 343.093 147.934 343.045 148.258C343.009 148.582 342.991 148.972 342.991 149.428C342.991 149.884 343.009 150.274 343.045 150.598C343.093 150.922 343.177 151.24 343.297 151.552C343.429 151.852 343.627 152.08 343.891 152.236C344.167 152.392 344.503 152.47 344.899 152.47C345.295 152.47 345.625 152.392 345.889 152.236C346.153 152.08 346.345 151.852 346.465 151.552C346.597 151.24 346.681 150.922 346.717 150.598ZM357.823 144.874L353.791 155.818C353.359 157.018 352.513 157.618 351.253 157.618H350.515V155.962H350.983C351.367 155.962 351.649 155.896 351.829 155.764C352.009 155.644 352.165 155.392 352.297 155.008L352.801 153.568L349.597 144.874H351.559L353.737 151.318L355.861 144.874H357.823ZM362.929 152.452C363.505 152.452 363.955 152.272 364.279 151.912C364.663 151.456 364.855 150.646 364.855 149.482C364.855 148.27 364.669 147.454 364.297 147.034C363.949 146.65 363.493 146.458 362.929 146.458C362.341 146.458 361.879 146.65 361.543 147.034C361.135 147.502 360.931 148.306 360.931 149.446C360.931 150.598 361.147 151.42 361.579 151.912C361.927 152.272 362.377 152.452 362.929 152.452ZM362.947 154.108C362.179 154.108 361.507 153.946 360.931 153.622C360.355 153.298 359.929 152.83 359.653 152.218C359.293 151.45 359.113 150.106 359.113 148.186C359.113 146.194 359.197 144.826 359.365 144.082C359.533 143.338 359.905 142.72 360.481 142.228C360.853 141.904 361.339 141.658 361.939 141.49C362.551 141.322 363.109 141.22 363.613 141.184C364.129 141.148 364.909 141.112 365.953 141.076V142.696C365.773 142.708 365.449 142.726 364.981 142.75C364.513 142.774 364.129 142.798 363.829 142.822C363.529 142.846 363.187 142.906 362.803 143.002C362.419 143.098 362.107 143.23 361.867 143.398C361.447 143.674 361.159 144.022 361.003 144.442C360.847 144.85 360.769 145.396 360.769 146.08C360.961 145.72 361.285 145.432 361.741 145.216C362.209 145 362.719 144.892 363.271 144.892C364.207 144.892 364.951 145.15 365.503 145.666C366.295 146.41 366.691 147.658 366.691 149.41C366.691 151.102 366.319 152.326 365.575 153.082C364.915 153.766 364.039 154.108 362.947 154.108ZM371.282 154H369.086V151.804H371.282V154Z" fill="white"/>
<path d="M121.065 38.0781H115.898L114.996 41H110.968L116.704 25.3594H120.249L126.028 41H121.979L121.065 38.0781ZM116.801 35.167H120.163L118.477 29.7422L116.801 35.167ZM127.178 41V25.3594H132.796C134.808 25.3594 136.337 25.7282 137.383 26.4658C138.436 27.2035 138.962 28.2741 138.962 29.6777C138.962 30.487 138.776 31.1781 138.403 31.751C138.031 32.3239 137.483 32.7464 136.76 33.0186C137.576 33.2334 138.203 33.6344 138.64 34.2217C139.076 34.8089 139.295 35.5251 139.295 36.3701C139.295 37.9027 138.808 39.0557 137.834 39.8291C136.867 40.5954 135.431 40.9857 133.526 41H127.178ZM130.948 34.3506V38.0996H133.419C134.099 38.0996 134.622 37.9456 134.987 37.6377C135.353 37.3226 135.535 36.8822 135.535 36.3164C135.535 35.013 134.887 34.3577 133.591 34.3506H130.948ZM130.948 31.8799H132.914C133.738 31.8727 134.325 31.7223 134.676 31.4287C135.027 31.1351 135.202 30.7018 135.202 30.1289C135.202 29.4701 135.012 28.9974 134.633 28.7109C134.253 28.4173 133.641 28.2705 132.796 28.2705H130.948V31.8799ZM153.356 28.2705H148.662V41H144.892V28.2705H140.283V25.3594H153.356V28.2705ZM167.901 33.502C167.901 35.0273 167.618 36.3773 167.053 37.5518C166.487 38.7262 165.681 39.6322 164.636 40.2695C163.597 40.8997 162.412 41.2148 161.08 41.2148C159.748 41.2148 158.566 40.9105 157.535 40.3018C156.504 39.6859 155.698 38.8086 155.118 37.6699C154.545 36.5312 154.244 35.2243 154.216 33.749V32.8682C154.216 31.3356 154.495 29.9857 155.054 28.8184C155.619 27.6439 156.425 26.738 157.471 26.1006C158.523 25.4632 159.719 25.1445 161.059 25.1445C162.383 25.1445 163.565 25.4596 164.604 26.0898C165.642 26.7201 166.448 27.6188 167.021 28.7861C167.601 29.9463 167.894 31.2783 167.901 32.7822V33.502ZM164.066 32.8467C164.066 31.2926 163.805 30.1146 163.282 29.3125C162.767 28.5033 162.025 28.0986 161.059 28.0986C159.168 28.0986 158.169 29.5166 158.062 32.3525L158.051 33.502C158.051 35.0345 158.305 36.2126 158.813 37.0361C159.322 37.8597 160.077 38.2715 161.08 38.2715C162.033 38.2715 162.767 37.8669 163.282 37.0576C163.798 36.2484 164.059 35.0846 164.066 33.5664V32.8467ZM175.378 34.8125H173.595V41H169.824V25.3594H173.595V31.4072H175.045L178.053 25.3594H182.618L178.321 32.5781L183.155 41H178.697L175.378 34.8125ZM187.86 35.6934V41H184.09V25.3594H190.331C191.527 25.3594 192.583 25.5814 193.5 26.0254C194.424 26.4622 195.136 27.0889 195.638 27.9053C196.146 28.7145 196.4 29.6348 196.4 30.666C196.4 32.1914 195.853 33.4124 194.757 34.3291C193.668 35.2386 192.172 35.6934 190.267 35.6934H187.86ZM187.86 32.7822H190.331C191.062 32.7822 191.617 32.5996 191.996 32.2344C192.383 31.8691 192.576 31.3535 192.576 30.6875C192.576 29.957 192.379 29.3734 191.985 28.9365C191.591 28.4997 191.054 28.2777 190.374 28.2705H187.86V32.7822ZM208.12 34.3721H202.19V38.0996H209.194V41H198.42V25.3594H209.216V28.2705H202.19V31.5684H208.12V34.3721ZM225.361 44.8457H221.978V41H213.459V44.835H209.968L209.699 38.0996H210.806C211.386 37.7129 211.851 37.0505 212.202 36.1123C212.56 35.167 212.814 33.8135 212.965 32.0518L213.448 25.3594H224.094V38.0996H225.759L225.361 44.8457ZM215.07 38.0996H220.334V28.2705H217.004L216.714 32.1807C216.499 34.7158 215.951 36.6888 215.07 38.0996ZM236.232 25.3594H240.003V41H236.232V31.1387L230.614 41H226.844V25.3594H230.614V35.2314L236.232 25.3594ZM254.269 28.2705H249.574V41H245.804V28.2705H241.195V25.3594H254.269V28.2705ZM268.813 33.502C268.813 35.0273 268.531 36.3773 267.965 37.5518C267.399 38.7262 266.593 39.6322 265.548 40.2695C264.509 40.8997 263.324 41.2148 261.992 41.2148C260.66 41.2148 259.479 40.9105 258.447 40.3018C257.416 39.6859 256.61 38.8086 256.03 37.6699C255.457 36.5312 255.157 35.2243 255.128 33.749V32.8682C255.128 31.3356 255.407 29.9857 255.966 28.8184C256.532 27.6439 257.337 26.738 258.383 26.1006C259.436 25.4632 260.632 25.1445 261.971 25.1445C263.296 25.1445 264.477 25.4596 265.516 26.0898C266.554 26.7201 267.36 27.6188 267.933 28.7861C268.513 29.9463 268.806 31.2783 268.813 32.7822V33.502ZM264.979 32.8467C264.979 31.2926 264.717 30.1146 264.194 29.3125C263.679 28.5033 262.938 28.0986 261.971 28.0986C260.08 28.0986 259.081 29.5166 258.974 32.3525L258.963 33.502C258.963 35.0345 259.217 36.2126 259.726 37.0361C260.234 37.8597 260.99 38.2715 261.992 38.2715C262.945 38.2715 263.679 37.8669 264.194 37.0576C264.71 36.2484 264.971 35.0846 264.979 33.5664V32.8467ZM270.758 41V25.3594H276.376C278.388 25.3594 279.917 25.7282 280.963 26.4658C282.016 27.2035 282.542 28.2741 282.542 29.6777C282.542 30.487 282.356 31.1781 281.983 31.751C281.611 32.3239 281.063 32.7464 280.34 33.0186C281.156 33.2334 281.783 33.6344 282.22 34.2217C282.657 34.8089 282.875 35.5251 282.875 36.3701C282.875 37.9027 282.388 39.0557 281.414 39.8291C280.447 40.5954 279.011 40.9857 277.106 41H270.758ZM274.528 34.3506V38.0996H276.999C277.679 38.0996 278.202 37.9456 278.567 37.6377C278.933 37.3226 279.115 36.8822 279.115 36.3164C279.115 35.013 278.467 34.3577 277.171 34.3506H274.528ZM274.528 31.8799H276.494C277.318 31.8727 277.905 31.7223 278.256 31.4287C278.607 31.1351 278.782 30.7018 278.782 30.1289C278.782 29.4701 278.592 28.9974 278.213 28.7109C277.833 28.4173 277.221 28.2705 276.376 28.2705H274.528V31.8799ZM293.843 38.0781H288.676L287.773 41H283.745L289.481 25.3594H293.026L298.806 41H294.756L293.843 38.0781ZM289.578 35.167H292.94L291.254 29.7422L289.578 35.167ZM313.028 41H309.279V34.4688H303.726V41H299.955V25.3594H303.726V31.5684H309.279V25.3594H313.028V41ZM324.598 25.3594H328.368V41H324.598V31.1387L318.979 41H315.209V25.3594H318.979V35.2314L324.598 25.3594ZM340.378 34.3721H334.448V38.0996H341.452V41H330.678V25.3594H341.474V28.2705H334.448V31.5684H340.378V34.3721ZM357.641 25.3594H361.411V41H357.641V31.1387L352.022 41H348.252V25.3594H352.022V35.2314L357.641 25.3594ZM124.836 61.7041C124.786 62.7926 124.492 63.7559 123.955 64.5938C123.418 65.4245 122.662 66.069 121.688 66.5273C120.722 66.9857 119.615 67.2148 118.369 67.2148C116.314 67.2148 114.695 66.5452 113.514 65.2061C112.332 63.8669 111.741 61.9762 111.741 59.5342V58.7607C111.741 57.2282 112.006 55.889 112.536 54.7432C113.073 53.5902 113.843 52.7021 114.846 52.0791C115.848 51.4489 117.008 51.1338 118.326 51.1338C120.224 51.1338 121.749 51.6351 122.902 52.6377C124.055 53.6331 124.711 55.0081 124.868 56.7627H121.108C121.08 55.8102 120.84 55.1263 120.389 54.7109C119.938 54.2956 119.25 54.0879 118.326 54.0879C117.388 54.0879 116.701 54.4388 116.264 55.1406C115.827 55.8424 115.598 56.9632 115.576 58.5029V59.6094C115.576 61.278 115.784 62.4704 116.199 63.1865C116.622 63.9027 117.345 64.2607 118.369 64.2607C119.236 64.2607 119.898 64.0566 120.356 63.6484C120.815 63.2402 121.058 62.5921 121.087 61.7041H124.836ZM138.575 54.2705H133.881V67H130.11V54.2705H125.502V51.3594H138.575V54.2705ZM143.946 61.6934V67H140.176V51.3594H146.417C147.613 51.3594 148.669 51.5814 149.586 52.0254C150.51 52.4622 151.222 53.0889 151.724 53.9053C152.232 54.7145 152.486 55.6348 152.486 56.666C152.486 58.1914 151.938 59.4124 150.843 60.3291C149.754 61.2386 148.257 61.6934 146.353 61.6934H143.946ZM143.946 58.7822H146.417C147.147 58.7822 147.702 58.5996 148.082 58.2344C148.469 57.8691 148.662 57.3535 148.662 56.6875C148.662 55.957 148.465 55.3734 148.071 54.9365C147.677 54.4997 147.14 54.2777 146.46 54.2705H143.946V58.7822ZM161.478 64.0781H156.311L155.408 67H151.38L157.116 51.3594H160.661L166.44 67H162.391L161.478 64.0781ZM157.213 61.167H160.575L158.889 55.7422L157.213 61.167ZM173.423 56.5586L175.979 51.3594H180.287L175.915 59.1152L180.405 67H176.055L173.423 61.7041L170.791 67H166.451L170.931 59.1152L166.569 51.3594H170.866L173.423 56.5586ZM194.606 59.502C194.606 61.0273 194.324 62.3773 193.758 63.5518C193.192 64.7262 192.386 65.6322 191.341 66.2695C190.302 66.8997 189.117 67.2148 187.785 67.2148C186.453 67.2148 185.271 66.9105 184.24 66.3018C183.209 65.6859 182.403 64.8086 181.823 63.6699C181.25 62.5312 180.95 61.2243 180.921 59.749V58.8682C180.921 57.3356 181.2 55.9857 181.759 54.8184C182.325 53.6439 183.13 52.738 184.176 52.1006C185.229 51.4632 186.424 51.1445 187.764 51.1445C189.089 51.1445 190.27 51.4596 191.309 52.0898C192.347 52.7201 193.153 53.6188 193.726 54.7861C194.306 55.9463 194.599 57.2783 194.606 58.7822V59.502ZM190.771 58.8467C190.771 57.2926 190.51 56.1146 189.987 55.3125C189.472 54.5033 188.73 54.0986 187.764 54.0986C185.873 54.0986 184.874 55.5166 184.767 58.3525L184.756 59.502C184.756 61.0345 185.01 62.2126 185.519 63.0361C186.027 63.8597 186.783 64.2715 187.785 64.2715C188.738 64.2715 189.472 63.8669 189.987 63.0576C190.503 62.2484 190.764 61.0846 190.771 59.5664V58.8467ZM196.551 67V51.3594H202.169C204.181 51.3594 205.71 51.7282 206.756 52.4658C207.809 53.2035 208.335 54.2741 208.335 55.6777C208.335 56.487 208.149 57.1781 207.776 57.751C207.404 58.3239 206.856 58.7464 206.133 59.0186C206.949 59.2334 207.576 59.6344 208.013 60.2217C208.45 60.8089 208.668 61.5251 208.668 62.3701C208.668 63.9027 208.181 65.0557 207.207 65.8291C206.24 66.5954 204.804 66.9857 202.899 67H196.551ZM200.321 60.3506V64.0996H202.792C203.472 64.0996 203.995 63.9456 204.36 63.6377C204.726 63.3226 204.908 62.8822 204.908 62.3164C204.908 61.013 204.26 60.3577 202.964 60.3506H200.321ZM200.321 57.8799H202.287C203.111 57.8727 203.698 57.7223 204.049 57.4287C204.4 57.1351 204.575 56.7018 204.575 56.1289C204.575 55.4701 204.385 54.9974 204.006 54.7109C203.626 54.4173 203.014 54.2705 202.169 54.2705H200.321V57.8799ZM219.636 64.0781H214.469L213.566 67H209.538L215.274 51.3594H218.819L224.599 67H220.549L219.636 64.0781ZM215.371 61.167H218.733L217.047 55.7422L215.371 61.167ZM238.821 67H235.072V60.4688H229.519V67H225.748V51.3594H229.519V57.5684H235.072V51.3594H238.821V67ZM250.391 51.3594H254.161V67H250.391V57.1387L244.772 67H241.002V51.3594H244.772V61.2314L250.391 51.3594ZM266.171 60.3721H260.241V64.0996H267.245V67H256.471V51.3594H267.267V54.2705H260.241V57.5684H266.171V60.3721Z" fill="white"/>
<path d="M32.2617 71.082V69.082H30.2617V71.082H32.2617ZM50.0156 53.3867L48.586 54.7853L48.5936 54.7932L48.6014 54.8009L50.0156 53.3867ZM35.7188 52.9766L34.4887 51.3996L34.4809 51.4056L34.4733 51.4117L35.7188 52.9766ZM32.8477 58.6602V60.6602H34.8477V58.6602H32.8477ZM13.1016 58.6602H11.1016V60.6602H13.1016V58.6602ZM27.2227 38.4453L28.0319 40.2743L28.0394 40.2709L27.2227 38.4453ZM64.2539 41.9609L63.0059 43.5238L64.2539 41.9609ZM69 70.2617L67.3542 69.1253L67.3513 69.1295L69 70.2617ZM59.2148 78.1719L58.3601 76.3637L54.0168 78.4169L58.534 80.0524L59.2148 78.1719ZM69.8789 85.6719L68.2923 86.8895L68.2992 86.8985L69.8789 85.6719ZM26.2852 120.008L25.4632 121.831L25.4722 121.835L25.4812 121.839L26.2852 120.008ZM15.4453 111.16L13.768 112.25L13.7732 112.257L15.4453 111.16ZM11.7539 98.2695V96.2695H9.75391V98.2695H11.7539ZM31.6172 98.2695H33.6172V96.2695H31.6172V98.2695ZM50.8945 105.066L52.2522 106.535L52.2596 106.528L52.267 106.521L50.8945 105.066ZM50.7773 88.4844L49.4942 90.0185L50.7773 88.4844ZM32.2617 85.7891H30.2617V87.7891H32.2617V85.7891ZM32.2617 73.082H41.5781V69.082H32.2617V73.082ZM41.5781 73.082C45.5672 73.082 48.9284 72.1059 51.2828 69.8013C53.6451 67.489 54.6523 64.1747 54.6523 60.2422H50.6523C50.6523 63.5362 49.8139 65.6418 48.4848 66.9428C47.1478 68.2515 44.9719 69.082 41.5781 69.082V73.082ZM54.6523 60.2422C54.6523 56.9752 53.6132 54.1559 51.4298 51.9725L48.6014 54.8009C49.9337 56.1332 50.6523 57.8842 50.6523 60.2422H54.6523ZM51.4453 51.9881C49.2149 49.7082 46.16 48.6914 42.5742 48.6914V52.6914C45.3947 52.6914 47.3007 53.4715 48.586 54.7853L51.4453 51.9881ZM42.5742 48.6914C39.5384 48.6914 36.814 49.5858 34.4887 51.3996L36.9488 54.5536C38.5298 53.3204 40.3757 52.6914 42.5742 52.6914V48.6914ZM34.4733 51.4117C32.1261 53.2799 30.8477 55.7315 30.8477 58.6602H34.8477C34.8477 57.0575 35.4833 55.7201 36.9642 54.5414L34.4733 51.4117ZM32.8477 56.6602H13.1016V60.6602H32.8477V56.6602ZM15.1016 58.6602C15.1016 54.5651 16.2326 50.97 18.4815 47.8075L15.2217 45.4894C12.4705 49.3582 11.1016 53.7708 11.1016 58.6602H15.1016ZM18.4815 47.8075C20.7491 44.6186 23.9066 42.0996 28.0319 40.2743L26.4134 36.6164C21.7106 38.6972 17.954 41.647 15.2217 45.4894L18.4815 47.8075ZM28.0394 40.2709C32.2134 38.4036 36.8148 37.457 41.8711 37.457V33.457C36.3024 33.457 31.1381 34.5026 26.4059 36.6197L28.0394 40.2709ZM41.8711 37.457C51.0745 37.457 58.0409 39.5589 63.0059 43.5238L65.5019 40.3981C59.6076 35.6911 51.6521 33.457 41.8711 33.457V37.457ZM63.0059 43.5238C67.9132 47.4425 70.3984 52.799 70.3984 59.832H74.3984C74.3984 51.7088 71.454 45.1512 65.5019 40.3981L63.0059 43.5238ZM70.3984 59.832C70.3984 63.0628 69.41 66.148 67.3542 69.1253L70.6458 71.3981C73.1213 67.8129 74.3984 63.945 74.3984 59.832H70.3984ZM67.3513 69.1295C65.3629 72.0249 62.4038 74.4521 58.3601 76.3637L60.0696 79.98C64.6196 77.8291 68.1839 74.9829 70.6487 71.3939L67.3513 69.1295ZM58.534 80.0524C62.7571 81.5815 65.9775 83.8733 68.2923 86.8895L71.4655 84.4542C68.6241 80.7517 64.7351 78.0435 59.8957 76.2913L58.534 80.0524ZM68.2992 86.8985C70.5601 89.8103 71.7461 93.4785 71.7461 98.0352H75.7461C75.7461 92.7481 74.3539 88.1741 71.4586 84.4453L68.2992 86.8985ZM71.7461 98.0352C71.7461 105.054 69.0864 110.559 63.727 114.739L66.1871 117.893C72.5464 112.933 75.7461 106.251 75.7461 98.0352H71.7461ZM63.727 114.739C58.3078 118.966 51.084 121.172 41.8711 121.172V125.172C51.7207 125.172 59.8876 122.807 66.1871 117.893L63.727 114.739ZM41.8711 121.172C36.5438 121.172 31.6243 120.168 27.0891 118.177L25.4812 121.839C30.5554 124.067 36.0265 125.172 41.8711 125.172V121.172ZM27.1071 118.185C22.6297 116.166 19.3372 113.445 17.1174 110.063L13.7732 112.257C16.4753 116.375 20.4094 119.553 25.4632 121.831L27.1071 118.185ZM17.1226 110.071C14.8859 106.627 13.7539 102.713 13.7539 98.2695H9.75391C9.75391 103.435 11.0829 108.115 13.768 112.25L17.1226 110.071ZM11.7539 100.27H31.6172V96.2695H11.7539V100.27ZM29.6172 98.2695C29.6172 101.504 30.9514 104.292 33.4373 106.548L36.1252 103.585C34.3923 102.013 33.6172 100.269 33.6172 98.2695H29.6172ZM33.4373 106.548C35.9467 108.825 39.0364 109.938 42.5742 109.938V105.938C39.9401 105.938 37.8346 105.136 36.1252 103.585L33.4373 106.548ZM42.5742 109.938C46.4311 109.938 49.731 108.866 52.2522 106.535L49.5368 103.598C47.9174 105.095 45.6704 105.938 42.5742 105.938V109.938ZM52.267 106.521C54.7626 104.167 56 101.148 56 97.625H52C52 100.117 51.1671 102.06 49.5221 103.612L52.267 106.521ZM56 97.625C56 93.0547 54.8613 89.2927 52.0605 86.9502L49.4942 90.0185C50.9903 91.2698 52 93.6016 52 97.625H56ZM52.0605 86.9502C49.4427 84.7609 45.9635 83.7891 41.8711 83.7891V87.7891C45.3568 87.7891 47.8151 88.6141 49.4942 90.0185L52.0605 86.9502ZM41.8711 83.7891H32.2617V87.7891H41.8711V83.7891ZM34.2617 85.7891V71.082H30.2617V85.7891H34.2617Z" fill="white"/>
</g>
<g clip-path="url(#clip1)">
<g filter="url(#filter2_d)">
<rect x="1" y="1" width="411" height="183" stroke="#FCAF17" stroke-width="2" shape-rendering="crispEdges"/>
</g>
<g filter="url(#filter3_d)">
<rect x="1" y="1" width="86" height="183" stroke="#FCAF17" stroke-width="2" shape-rendering="crispEdges"/>
</g>
<path d="M112.968 98.93V101.792C112.968 104.516 112.548 106.67 111.708 108.254H116.532V98.93H112.968ZM111.096 97.184H118.476V108.254H119.988V112.88H118.08V110H110.304V112.88H108.414V108.254H109.53C110.574 106.634 111.096 104.204 111.096 100.964V97.184ZM129.156 105.428C129.156 106.268 129.078 106.97 128.922 107.534C128.766 108.098 128.484 108.596 128.076 109.028C127.38 109.748 126.468 110.108 125.34 110.108C124.224 110.108 123.318 109.748 122.622 109.028C122.214 108.596 121.932 108.098 121.776 107.534C121.62 106.97 121.542 106.268 121.542 105.428C121.542 104.6 121.62 103.904 121.776 103.34C121.932 102.764 122.214 102.266 122.622 101.846C123.318 101.126 124.224 100.766 125.34 100.766C126.468 100.766 127.38 101.126 128.076 101.846C128.484 102.266 128.766 102.764 128.922 103.34C129.078 103.904 129.156 104.6 129.156 105.428ZM126.69 107.93C127.11 107.51 127.32 106.676 127.32 105.428C127.32 104.18 127.11 103.346 126.69 102.926C126.342 102.578 125.892 102.404 125.34 102.404C124.8 102.404 124.356 102.578 124.008 102.926C123.588 103.346 123.378 104.18 123.378 105.428C123.378 106.676 123.588 107.51 124.008 107.93C124.368 108.29 124.812 108.47 125.34 108.47C125.88 108.47 126.33 108.29 126.69 107.93ZM138.364 110H136.528V102.476H133.882V105.122C133.882 106.07 133.816 106.868 133.684 107.516C133.552 108.164 133.354 108.668 133.09 109.028C132.826 109.376 132.52 109.628 132.172 109.784C131.836 109.928 131.434 110 130.966 110H130.102V108.38H130.39C130.582 108.38 130.744 108.368 130.876 108.344C131.008 108.308 131.158 108.224 131.326 108.092C131.506 107.948 131.644 107.756 131.74 107.516C131.848 107.264 131.938 106.898 132.01 106.418C132.082 105.926 132.118 105.344 132.118 104.672V100.874H138.364V110ZM146.116 105.122V102.35H143.974C143.506 102.35 143.14 102.476 142.876 102.728C142.612 102.98 142.48 103.322 142.48 103.754C142.48 104.186 142.612 104.522 142.876 104.762C143.14 105.002 143.506 105.122 143.974 105.122H146.116ZM142.696 110H140.59L142.57 106.256C141.982 106.088 141.52 105.776 141.184 105.32C140.848 104.864 140.68 104.312 140.68 103.664C140.68 102.836 140.95 102.164 141.49 101.648C142.042 101.132 142.756 100.874 143.632 100.874H147.934V110H146.098V106.598H144.424L142.696 110ZM160.183 105.86H154.927V104.15H160.183V105.86ZM174.295 110H166.843V108.362L171.775 102.368C172.231 101.816 172.459 101.246 172.459 100.658C172.459 100.07 172.291 99.602 171.955 99.254C171.631 98.894 171.175 98.714 170.587 98.714C170.047 98.714 169.597 98.876 169.237 99.2C168.877 99.524 168.697 100.022 168.697 100.694H166.861C166.861 99.614 167.209 98.744 167.905 98.084C168.601 97.412 169.495 97.076 170.587 97.076C171.691 97.076 172.585 97.406 173.269 98.066C173.953 98.714 174.295 99.584 174.295 100.676C174.295 101.204 174.199 101.666 174.007 102.062C173.827 102.446 173.521 102.908 173.089 103.448L169.075 108.362H174.295V110ZM183.803 106.436C183.803 107.552 183.449 108.446 182.741 109.118C182.033 109.778 181.151 110.108 180.095 110.108C179.051 110.108 178.175 109.778 177.467 109.118C176.759 108.446 176.405 107.552 176.405 106.436V100.748C176.405 99.632 176.759 98.744 177.467 98.084C178.175 97.412 179.051 97.076 180.095 97.076C181.151 97.076 182.033 97.412 182.741 98.084C183.449 98.744 183.803 99.632 183.803 100.748V106.436ZM181.967 106.382V100.802C181.967 100.178 181.799 99.674 181.463 99.29C181.127 98.906 180.671 98.714 180.095 98.714C179.531 98.714 179.081 98.906 178.745 99.29C178.409 99.674 178.241 100.178 178.241 100.802V106.382C178.241 107.006 178.409 107.51 178.745 107.894C179.081 108.278 179.531 108.47 180.095 108.47C180.671 108.47 181.127 108.278 181.463 107.894C181.799 107.51 181.967 107.006 181.967 106.382ZM199.016 107.66C199.016 108.416 198.776 109.016 198.296 109.46C197.816 109.904 197.216 110.126 196.496 110.126C195.776 110.126 195.176 109.904 194.696 109.46C194.216 109.016 193.976 108.416 193.976 107.66V105.842C193.976 105.086 194.216 104.486 194.696 104.042C195.176 103.598 195.776 103.376 196.496 103.376C197.216 103.376 197.816 103.598 198.296 104.042C198.776 104.486 199.016 105.086 199.016 105.842V107.66ZM190.988 101.342C190.988 102.098 190.748 102.698 190.268 103.142C189.788 103.574 189.188 103.79 188.468 103.79C187.748 103.79 187.148 103.574 186.668 103.142C186.188 102.698 185.948 102.098 185.948 101.342V99.524C185.948 98.768 186.188 98.168 186.668 97.724C187.148 97.28 187.748 97.058 188.468 97.058C189.188 97.058 189.788 97.28 190.268 97.724C190.748 98.168 190.988 98.768 190.988 99.524V101.342ZM196.226 97.184L190.196 110H188.72L194.768 97.184H196.226ZM197.63 107.606V105.896C197.63 105.032 197.252 104.6 196.496 104.6C195.74 104.6 195.362 105.032 195.362 105.896V107.606C195.362 108.47 195.74 108.902 196.496 108.902C197.252 108.902 197.63 108.47 197.63 107.606ZM189.602 101.288V99.578C189.602 98.714 189.224 98.282 188.468 98.282C187.712 98.282 187.334 98.714 187.334 99.578V101.288C187.334 102.14 187.712 102.566 188.468 102.566C189.224 102.566 189.602 102.14 189.602 101.288ZM118.728 128.4C118.728 129.504 118.38 130.38 117.684 131.028C117 131.676 116.058 132 114.858 132H109.674V119.184H114.66C115.824 119.184 116.76 119.502 117.468 120.138C118.176 120.762 118.53 121.596 118.53 122.64C118.53 123.936 117.954 124.866 116.802 125.43C118.086 126.03 118.728 127.02 118.728 128.4ZM116.028 124.116C116.4 123.792 116.586 123.342 116.586 122.766C116.586 122.19 116.4 121.74 116.028 121.416C115.656 121.092 115.146 120.93 114.498 120.93H111.618V124.602H114.498C115.146 124.602 115.656 124.44 116.028 124.116ZM116.19 129.732C116.574 129.372 116.766 128.892 116.766 128.292C116.766 127.692 116.574 127.218 116.19 126.87C115.818 126.522 115.308 126.348 114.66 126.348H111.618V130.254H114.66C115.308 130.254 115.818 130.08 116.19 129.732ZM131.69 132H129.854V122.874H131.69V132ZM127.766 127.104C128.318 127.632 128.594 128.316 128.594 129.156C128.594 129.996 128.318 130.68 127.766 131.208C127.226 131.736 126.512 132 125.624 132H121.394V122.874H123.23V126.312H125.624C126.512 126.312 127.226 126.576 127.766 127.104ZM126.38 130.146C126.644 129.906 126.776 129.576 126.776 129.156C126.776 128.736 126.644 128.412 126.38 128.184C126.128 127.944 125.774 127.824 125.318 127.824H123.23V130.506H125.318C125.774 130.506 126.128 130.386 126.38 130.146ZM142.205 127.428C142.205 129.312 141.863 130.602 141.179 131.298C140.639 131.838 139.901 132.108 138.965 132.108C137.945 132.108 137.147 131.76 136.571 131.064V135.69H134.735V122.874H136.535V123.846C137.135 123.126 137.939 122.766 138.947 122.766C139.895 122.766 140.639 123.036 141.179 123.576C141.863 124.272 142.205 125.556 142.205 127.428ZM140.297 128.598C140.345 128.274 140.369 127.884 140.369 127.428C140.369 126.972 140.345 126.582 140.297 126.258C140.261 125.934 140.177 125.622 140.045 125.322C139.925 125.022 139.733 124.794 139.469 124.638C139.205 124.482 138.875 124.404 138.479 124.404C138.071 124.404 137.735 124.482 137.471 124.638C137.207 124.794 137.009 125.022 136.877 125.322C136.757 125.622 136.673 125.934 136.625 126.258C136.589 126.582 136.571 126.972 136.571 127.428C136.571 127.884 136.589 128.274 136.625 128.598C136.673 128.922 136.757 129.24 136.877 129.552C137.009 129.852 137.207 130.08 137.471 130.236C137.747 130.392 138.083 130.47 138.479 130.47C138.875 130.47 139.205 130.392 139.469 130.236C139.733 130.08 139.925 129.852 140.045 129.552C140.177 129.24 140.261 128.922 140.297 128.598ZM151.403 122.874L147.371 133.818C146.939 135.018 146.093 135.618 144.833 135.618H144.095V133.962H144.563C144.947 133.962 145.229 133.896 145.409 133.764C145.589 133.644 145.745 133.392 145.877 133.008L146.381 131.568L143.177 122.874H145.139L147.317 129.318L149.441 122.874H151.403ZM159.626 132H157.79V128.634C156.83 128.826 155.96 128.922 155.18 128.922C154.4 128.922 153.77 128.706 153.29 128.274C152.822 127.83 152.588 127.2 152.588 126.384V122.874H154.424V125.934C154.424 126.834 154.868 127.284 155.756 127.284C156.308 127.284 156.986 127.212 157.79 127.068V122.874H159.626V132ZM164.434 132H162.58V122.874H164.434V132ZM170.392 132H168.142L164.452 127.248L167.926 122.874H170.122L166.486 127.158L170.392 132ZM178.381 132H176.581V131.172C176.245 131.508 175.891 131.748 175.519 131.892C175.159 132.036 174.703 132.108 174.151 132.108C173.071 132.108 172.255 131.832 171.703 131.28C171.223 130.776 170.983 130.122 170.983 129.318C170.983 128.526 171.253 127.89 171.793 127.41C172.345 126.93 173.131 126.69 174.151 126.69H176.545V126.042C176.545 125.454 176.389 125.022 176.077 124.746C175.765 124.47 175.255 124.332 174.547 124.332C174.067 124.332 173.677 124.404 173.377 124.548C173.089 124.68 172.813 124.908 172.549 125.232L171.361 124.098C171.781 123.606 172.231 123.264 172.711 123.072C173.203 122.868 173.839 122.766 174.619 122.766C177.127 122.766 178.381 123.81 178.381 125.898V132ZM176.545 128.706V127.968H174.439C173.323 127.968 172.765 128.406 172.765 129.282C172.765 130.146 173.341 130.578 174.493 130.578C175.225 130.578 175.777 130.404 176.149 130.056C176.413 129.804 176.545 129.354 176.545 128.706ZM190.54 127.86H185.284V126.15H190.54V127.86ZM202.456 132H200.62V121.182L198.118 123.378V121.344L200.62 119.184H202.456V132ZM214.43 120.822L210.146 132H208.166L212.468 120.822H208.562V122.838H206.798V119.184H214.43V120.822ZM228.172 122.91C228.172 123.738 227.854 124.788 227.218 126.06L224.302 132H222.34L225.094 126.492C224.782 126.624 224.398 126.69 223.942 126.69C222.994 126.69 222.196 126.348 221.548 125.664C220.912 124.98 220.594 124.086 220.594 122.982C220.594 121.806 220.942 120.864 221.638 120.156C222.346 119.436 223.258 119.076 224.374 119.076C225.502 119.076 226.414 119.424 227.11 120.12C227.818 120.804 228.172 121.734 228.172 122.91ZM226.336 122.946C226.336 122.274 226.156 121.734 225.796 121.326C225.436 120.918 224.962 120.714 224.374 120.714C223.798 120.714 223.33 120.918 222.97 121.326C222.61 121.722 222.43 122.262 222.43 122.946C222.43 123.594 222.604 124.128 222.952 124.548C223.3 124.956 223.774 125.16 224.374 125.16C224.962 125.16 225.436 124.962 225.796 124.566C226.156 124.17 226.336 123.63 226.336 122.946ZM237.788 128.4C237.788 129.588 237.416 130.506 236.672 131.154C235.928 131.802 234.992 132.126 233.864 132.126C232.76 132.126 231.836 131.826 231.092 131.226C230.36 130.614 229.976 129.714 229.94 128.526H231.776C231.812 129.174 232.022 129.66 232.406 129.984C232.802 130.308 233.288 130.47 233.864 130.47C234.476 130.47 234.974 130.284 235.358 129.912C235.754 129.528 235.952 129.006 235.952 128.346C235.952 127.686 235.772 127.17 235.412 126.798C235.052 126.426 234.518 126.24 233.81 126.24H233.504V124.638H233.81C234.458 124.638 234.944 124.464 235.268 124.116C235.592 123.768 235.754 123.294 235.754 122.694C235.754 122.07 235.574 121.584 235.214 121.236C234.854 120.888 234.404 120.714 233.864 120.714C233.312 120.714 232.862 120.882 232.514 121.218C232.178 121.542 231.986 121.986 231.938 122.55H230.102C230.15 121.482 230.528 120.636 231.236 120.012C231.944 119.376 232.82 119.058 233.864 119.058C234.956 119.058 235.85 119.394 236.546 120.066C237.242 120.726 237.59 121.584 237.59 122.64C237.59 123.936 237.056 124.848 235.988 125.376C237.188 125.904 237.788 126.912 237.788 128.4ZM247.367 122.91C247.367 123.738 247.049 124.788 246.413 126.06L243.497 132H241.535L244.289 126.492C243.977 126.624 243.593 126.69 243.137 126.69C242.189 126.69 241.391 126.348 240.743 125.664C240.107 124.98 239.789 124.086 239.789 122.982C239.789 121.806 240.137 120.864 240.833 120.156C241.541 119.436 242.453 119.076 243.569 119.076C244.697 119.076 245.609 119.424 246.305 120.12C247.013 120.804 247.367 121.734 247.367 122.91ZM245.531 122.946C245.531 122.274 245.351 121.734 244.991 121.326C244.631 120.918 244.157 120.714 243.569 120.714C242.993 120.714 242.525 120.918 242.165 121.326C241.805 121.722 241.625 122.262 241.625 122.946C241.625 123.594 241.799 124.128 242.147 124.548C242.495 124.956 242.969 125.16 243.569 125.16C244.157 125.16 244.631 124.962 244.991 124.566C245.351 124.17 245.531 123.63 245.531 122.946ZM261.199 128.436C261.199 129.552 260.845 130.446 260.137 131.118C259.429 131.778 258.547 132.108 257.491 132.108C256.447 132.108 255.571 131.778 254.863 131.118C254.155 130.446 253.801 129.552 253.801 128.436V122.748C253.801 121.632 254.155 120.744 254.863 120.084C255.571 119.412 256.447 119.076 257.491 119.076C258.547 119.076 259.429 119.412 260.137 120.084C260.845 120.744 261.199 121.632 261.199 122.748V128.436ZM259.363 128.382V122.802C259.363 122.178 259.195 121.674 258.859 121.29C258.523 120.906 258.067 120.714 257.491 120.714C256.927 120.714 256.477 120.906 256.141 121.29C255.805 121.674 255.637 122.178 255.637 122.802V128.382C255.637 129.006 255.805 129.51 256.141 129.894C256.477 130.278 256.927 130.47 257.491 130.47C258.067 130.47 258.523 130.278 258.859 129.894C259.195 129.51 259.363 129.006 259.363 128.382ZM270.797 128.436C270.797 129.552 270.443 130.446 269.735 131.118C269.027 131.778 268.145 132.108 267.089 132.108C266.045 132.108 265.169 131.778 264.461 131.118C263.753 130.446 263.399 129.552 263.399 128.436V122.748C263.399 121.632 263.753 120.744 264.461 120.084C265.169 119.412 266.045 119.076 267.089 119.076C268.145 119.076 269.027 119.412 269.735 120.084C270.443 120.744 270.797 121.632 270.797 122.748V128.436ZM268.961 128.382V122.802C268.961 122.178 268.793 121.674 268.457 121.29C268.121 120.906 267.665 120.714 267.089 120.714C266.525 120.714 266.075 120.906 265.739 121.29C265.403 121.674 265.235 122.178 265.235 122.802V128.382C265.235 129.006 265.403 129.51 265.739 129.894C266.075 130.278 266.525 130.47 267.089 130.47C267.665 130.47 268.121 130.278 268.457 129.894C268.793 129.51 268.961 129.006 268.961 128.382ZM280.394 128.436C280.394 129.552 280.04 130.446 279.332 131.118C278.624 131.778 277.742 132.108 276.686 132.108C275.642 132.108 274.766 131.778 274.058 131.118C273.35 130.446 272.996 129.552 272.996 128.436V122.748C272.996 121.632 273.35 120.744 274.058 120.084C274.766 119.412 275.642 119.076 276.686 119.076C277.742 119.076 278.624 119.412 279.332 120.084C280.04 120.744 280.394 121.632 280.394 122.748V128.436ZM278.558 128.382V122.802C278.558 122.178 278.39 121.674 278.054 121.29C277.718 120.906 277.262 120.714 276.686 120.714C276.122 120.714 275.672 120.906 275.336 121.29C275 121.674 274.832 122.178 274.832 122.802V128.382C274.832 129.006 275 129.51 275.336 129.894C275.672 130.278 276.122 130.47 276.686 130.47C277.262 130.47 277.718 130.278 278.054 129.894C278.39 129.51 278.558 129.006 278.558 128.382ZM294.748 127.428C294.748 129.312 294.406 130.602 293.722 131.298C293.182 131.838 292.444 132.108 291.508 132.108C290.488 132.108 289.69 131.76 289.114 131.064V135.69H287.278V122.874H289.078V123.846C289.678 123.126 290.482 122.766 291.49 122.766C292.438 122.766 293.182 123.036 293.722 123.576C294.406 124.272 294.748 125.556 294.748 127.428ZM292.84 128.598C292.888 128.274 292.912 127.884 292.912 127.428C292.912 126.972 292.888 126.582 292.84 126.258C292.804 125.934 292.72 125.622 292.588 125.322C292.468 125.022 292.276 124.794 292.012 124.638C291.748 124.482 291.418 124.404 291.022 124.404C290.614 124.404 290.278 124.482 290.014 124.638C289.75 124.794 289.552 125.022 289.42 125.322C289.3 125.622 289.216 125.934 289.168 126.258C289.132 126.582 289.114 126.972 289.114 127.428C289.114 127.884 289.132 128.274 289.168 128.598C289.216 128.922 289.3 129.24 289.42 129.552C289.552 129.852 289.75 130.08 290.014 130.236C290.29 130.392 290.626 130.47 291.022 130.47C291.418 130.47 291.748 130.392 292.012 130.236C292.276 130.08 292.468 129.852 292.588 129.552C292.72 129.24 292.804 128.922 292.84 128.598ZM303.946 122.874L299.914 133.818C299.482 135.018 298.636 135.618 297.376 135.618H296.638V133.962H297.106C297.49 133.962 297.772 133.896 297.952 133.764C298.132 133.644 298.288 133.392 298.42 133.008L298.924 131.568L295.72 122.874H297.682L299.86 129.318L301.984 122.874H303.946ZM309.052 130.452C309.628 130.452 310.078 130.272 310.402 129.912C310.786 129.456 310.978 128.646 310.978 127.482C310.978 126.27 310.792 125.454 310.42 125.034C310.072 124.65 309.616 124.458 309.052 124.458C308.464 124.458 308.002 124.65 307.666 125.034C307.258 125.502 307.054 126.306 307.054 127.446C307.054 128.598 307.27 129.42 307.702 129.912C308.05 130.272 308.5 130.452 309.052 130.452ZM309.07 132.108C308.302 132.108 307.63 131.946 307.054 131.622C306.478 131.298 306.052 130.83 305.776 130.218C305.416 129.45 305.236 128.106 305.236 126.186C305.236 124.194 305.32 122.826 305.488 122.082C305.656 121.338 306.028 120.72 306.604 120.228C306.976 119.904 307.462 119.658 308.062 119.49C308.674 119.322 309.232 119.22 309.736 119.184C310.252 119.148 311.032 119.112 312.076 119.076V120.696C311.896 120.708 311.572 120.726 311.104 120.75C310.636 120.774 310.252 120.798 309.952 120.822C309.652 120.846 309.31 120.906 308.926 121.002C308.542 121.098 308.23 121.23 307.99 121.398C307.57 121.674 307.282 122.022 307.126 122.442C306.97 122.85 306.892 123.396 306.892 124.08C307.084 123.72 307.408 123.432 307.864 123.216C308.332 123 308.842 122.892 309.394 122.892C310.33 122.892 311.074 123.15 311.626 123.666C312.418 124.41 312.814 125.658 312.814 127.41C312.814 129.102 312.442 130.326 311.698 131.082C311.038 131.766 310.162 132.108 309.07 132.108ZM317.405 132H315.209V129.804H317.405V132ZM117.972 154H116.028V148.978C114.612 149.254 113.466 149.392 112.59 149.392C111.654 149.392 110.862 149.134 110.214 148.618C109.578 148.09 109.26 147.298 109.26 146.242V141.184H111.222V145.774C111.222 147.022 111.876 147.646 113.184 147.646C113.976 147.646 114.924 147.526 116.028 147.286V141.184H117.972V154ZM128.69 154H126.854V147.718L122.948 154H121.112V144.874H122.948V151.066L126.854 144.874H128.69V154ZM138.212 152.812C137.396 153.676 136.394 154.108 135.206 154.108C134.666 154.108 134.162 154.024 133.694 153.856C133.226 153.676 132.794 153.412 132.398 153.064C132.014 152.704 131.708 152.218 131.48 151.606C131.252 150.982 131.138 150.256 131.138 149.428C131.138 148.6 131.252 147.88 131.48 147.268C131.708 146.644 132.014 146.158 132.398 145.81C132.794 145.45 133.226 145.186 133.694 145.018C134.162 144.85 134.666 144.766 135.206 144.766C136.406 144.766 137.408 145.192 138.212 146.044L136.952 147.268C136.664 146.956 136.388 146.734 136.124 146.602C135.872 146.47 135.566 146.404 135.206 146.404C134.486 146.404 133.922 146.674 133.514 147.214C133.154 147.67 132.974 148.408 132.974 149.428C132.974 150.46 133.154 151.204 133.514 151.66C133.922 152.2 134.486 152.47 135.206 152.47C135.566 152.47 135.872 152.404 136.124 152.272C136.388 152.14 136.664 151.918 136.952 151.606L138.212 152.812ZM146.695 146.476H143.905V154H142.069V146.476H139.171V144.874H146.695V146.476ZM154.985 154H153.185V153.172C152.849 153.508 152.495 153.748 152.123 153.892C151.763 154.036 151.307 154.108 150.755 154.108C149.675 154.108 148.859 153.832 148.307 153.28C147.827 152.776 147.587 152.122 147.587 151.318C147.587 150.526 147.857 149.89 148.397 149.41C148.949 148.93 149.735 148.69 150.755 148.69H153.149V148.042C153.149 147.454 152.993 147.022 152.681 146.746C152.369 146.47 151.859 146.332 151.151 146.332C150.671 146.332 150.281 146.404 149.981 146.548C149.693 146.68 149.417 146.908 149.153 147.232L147.965 146.098C148.385 145.606 148.835 145.264 149.315 145.072C149.807 144.868 150.443 144.766 151.223 144.766C153.731 144.766 154.985 145.81 154.985 147.898V154ZM153.149 150.706V149.968H151.043C149.927 149.968 149.369 150.406 149.369 151.282C149.369 152.146 149.945 152.578 151.097 152.578C151.829 152.578 152.381 152.404 152.753 152.056C153.017 151.804 153.149 151.354 153.149 150.706ZM162.639 149.122V146.35H160.497C160.029 146.35 159.663 146.476 159.399 146.728C159.135 146.98 159.003 147.322 159.003 147.754C159.003 148.186 159.135 148.522 159.399 148.762C159.663 149.002 160.029 149.122 160.497 149.122H162.639ZM159.219 154H157.113L159.093 150.256C158.505 150.088 158.043 149.776 157.707 149.32C157.371 148.864 157.203 148.312 157.203 147.664C157.203 146.836 157.473 146.164 158.013 145.648C158.565 145.132 159.279 144.874 160.155 144.874H164.457V154H162.621V150.598H160.947L159.219 154ZM179.01 154H177.174V146.476H173.538V154H171.702V144.874H179.01V154ZM189.315 149.428C189.315 151.312 188.973 152.602 188.289 153.298C187.749 153.838 187.011 154.108 186.075 154.108C185.055 154.108 184.257 153.76 183.681 153.064V157.69H181.845V144.874H183.645V145.846C184.245 145.126 185.049 144.766 186.057 144.766C187.005 144.766 187.749 145.036 188.289 145.576C188.973 146.272 189.315 147.556 189.315 149.428ZM187.407 150.598C187.455 150.274 187.479 149.884 187.479 149.428C187.479 148.972 187.455 148.582 187.407 148.258C187.371 147.934 187.287 147.622 187.155 147.322C187.035 147.022 186.843 146.794 186.579 146.638C186.315 146.482 185.985 146.404 185.589 146.404C185.181 146.404 184.845 146.482 184.581 146.638C184.317 146.794 184.119 147.022 183.987 147.322C183.867 147.622 183.783 147.934 183.735 148.258C183.699 148.582 183.681 148.972 183.681 149.428C183.681 149.884 183.699 150.274 183.735 150.598C183.783 150.922 183.867 151.24 183.987 151.552C184.119 151.852 184.317 152.08 184.581 152.236C184.857 152.392 185.193 152.47 185.589 152.47C185.985 152.47 186.315 152.392 186.579 152.236C186.843 152.08 187.035 151.852 187.155 151.552C187.287 151.24 187.371 150.922 187.407 150.598ZM199.372 154H197.536V147.718L193.63 154H191.794V144.874H193.63V151.066L197.536 144.874H199.372V154ZM205.816 152.452C206.392 152.452 206.842 152.272 207.166 151.912C207.55 151.456 207.742 150.646 207.742 149.482C207.742 148.27 207.556 147.454 207.184 147.034C206.836 146.65 206.38 146.458 205.816 146.458C205.228 146.458 204.766 146.65 204.43 147.034C204.022 147.502 203.818 148.306 203.818 149.446C203.818 150.598 204.034 151.42 204.466 151.912C204.814 152.272 205.264 152.452 205.816 152.452ZM205.834 154.108C205.066 154.108 204.394 153.946 203.818 153.622C203.242 153.298 202.816 152.83 202.54 152.218C202.18 151.45 202 150.106 202 148.186C202 146.194 202.084 144.826 202.252 144.082C202.42 143.338 202.792 142.72 203.368 142.228C203.74 141.904 204.226 141.658 204.826 141.49C205.438 141.322 205.996 141.22 206.5 141.184C207.016 141.148 207.796 141.112 208.84 141.076V142.696C208.66 142.708 208.336 142.726 207.868 142.75C207.4 142.774 207.016 142.798 206.716 142.822C206.416 142.846 206.074 142.906 205.69 143.002C205.306 143.098 204.994 143.23 204.754 143.398C204.334 143.674 204.046 144.022 203.89 144.442C203.734 144.85 203.656 145.396 203.656 146.08C203.848 145.72 204.172 145.432 204.628 145.216C205.096 145 205.606 144.892 206.158 144.892C207.094 144.892 207.838 145.15 208.39 145.666C209.182 146.41 209.578 147.658 209.578 149.41C209.578 151.102 209.206 152.326 208.462 153.082C207.802 153.766 206.926 154.108 205.834 154.108ZM222.322 154H220.486V144.874H222.322V154ZM218.398 149.104C218.95 149.632 219.226 150.316 219.226 151.156C219.226 151.996 218.95 152.68 218.398 153.208C217.858 153.736 217.144 154 216.256 154H212.026V144.874H213.862V148.312H216.256C217.144 148.312 217.858 148.576 218.398 149.104ZM217.012 152.146C217.276 151.906 217.408 151.576 217.408 151.156C217.408 150.736 217.276 150.412 217.012 150.184C216.76 149.944 216.406 149.824 215.95 149.824H213.862V152.506H215.95C216.406 152.506 216.76 152.386 217.012 152.146ZM232.442 154H230.606V146.476H227.96V149.122C227.96 150.07 227.894 150.868 227.762 151.516C227.63 152.164 227.432 152.668 227.168 153.028C226.904 153.376 226.598 153.628 226.25 153.784C225.914 153.928 225.512 154 225.044 154H224.18V152.38H224.468C224.66 152.38 224.822 152.368 224.954 152.344C225.086 152.308 225.236 152.224 225.404 152.092C225.584 151.948 225.722 151.756 225.818 151.516C225.926 151.264 226.016 150.898 226.088 150.418C226.16 149.926 226.196 149.344 226.196 148.672V144.874H232.442V154ZM241.742 149.104C242.294 149.62 242.57 150.304 242.57 151.156C242.57 152.008 242.294 152.698 241.742 153.226C241.202 153.742 240.494 154 239.618 154H235.37V144.874H237.206V148.312H239.618C240.494 148.312 241.202 148.576 241.742 149.104ZM240.374 152.146C240.626 151.906 240.752 151.576 240.752 151.156C240.752 150.736 240.626 150.412 240.374 150.184C240.122 149.944 239.768 149.824 239.312 149.824H237.206V152.506H239.312C239.768 152.506 240.122 152.386 240.374 152.146ZM254.015 149.86H248.759V148.15H254.015V149.86ZM268.145 150.4C268.145 151.588 267.773 152.506 267.029 153.154C266.285 153.802 265.349 154.126 264.221 154.126C263.117 154.126 262.193 153.826 261.449 153.226C260.717 152.614 260.333 151.714 260.297 150.526H262.133C262.169 151.174 262.379 151.66 262.763 151.984C263.159 152.308 263.645 152.47 264.221 152.47C264.833 152.47 265.331 152.284 265.715 151.912C266.111 151.528 266.309 151.006 266.309 150.346C266.309 149.686 266.129 149.17 265.769 148.798C265.409 148.426 264.875 148.24 264.167 148.24H263.861V146.638H264.167C264.815 146.638 265.301 146.464 265.625 146.116C265.949 145.768 266.111 145.294 266.111 144.694C266.111 144.07 265.931 143.584 265.571 143.236C265.211 142.888 264.761 142.714 264.221 142.714C263.669 142.714 263.219 142.882 262.871 143.218C262.535 143.542 262.343 143.986 262.295 144.55H260.459C260.507 143.482 260.885 142.636 261.593 142.012C262.301 141.376 263.177 141.058 264.221 141.058C265.313 141.058 266.207 141.394 266.903 142.066C267.599 142.726 267.947 143.584 267.947 144.64C267.947 145.936 267.413 146.848 266.345 147.376C267.545 147.904 268.145 148.912 268.145 150.4ZM282.085 149.716C282.085 150.496 282.013 151.15 281.869 151.678C281.725 152.206 281.437 152.686 281.005 153.118C280.333 153.79 279.433 154.126 278.305 154.126C277.141 154.126 276.229 153.796 275.569 153.136C275.005 152.572 274.681 151.756 274.597 150.688H276.433C276.589 151.876 277.213 152.47 278.305 152.47C278.857 152.47 279.301 152.302 279.637 151.966C280.045 151.558 280.249 150.808 280.249 149.716C280.249 147.928 279.625 147.034 278.377 147.034C277.405 147.034 276.799 147.418 276.559 148.186H274.885V141.184H281.797V142.822H276.541V146.206C277.009 145.714 277.717 145.468 278.665 145.468C279.649 145.468 280.417 145.744 280.969 146.296C281.713 147.04 282.085 148.18 282.085 149.716ZM292.025 152.074H290.657V154H288.875V152.074H283.691V150.364L288.209 141.184H290.189L285.689 150.364H288.875V147.376H290.657V150.364H292.025V152.074ZM301.424 142.822L297.14 154H295.16L299.462 142.822H295.556V144.838H293.792V141.184H301.424V142.822ZM315.184 150.4C315.184 151.588 314.812 152.506 314.068 153.154C313.324 153.802 312.388 154.126 311.26 154.126C310.156 154.126 309.232 153.826 308.488 153.226C307.756 152.614 307.372 151.714 307.336 150.526H309.172C309.208 151.174 309.418 151.66 309.802 151.984C310.198 152.308 310.684 152.47 311.26 152.47C311.872 152.47 312.37 152.284 312.754 151.912C313.15 151.528 313.348 151.006 313.348 150.346C313.348 149.686 313.168 149.17 312.808 148.798C312.448 148.426 311.914 148.24 311.206 148.24H310.9V146.638H311.206C311.854 146.638 312.34 146.464 312.664 146.116C312.988 145.768 313.15 145.294 313.15 144.694C313.15 144.07 312.97 143.584 312.61 143.236C312.25 142.888 311.8 142.714 311.26 142.714C310.708 142.714 310.258 142.882 309.91 143.218C309.574 143.542 309.382 143.986 309.334 144.55H307.498C307.546 143.482 307.924 142.636 308.632 142.012C309.34 141.376 310.216 141.058 311.26 141.058C312.352 141.058 313.246 141.394 313.942 142.066C314.638 142.726 314.986 143.584 314.986 144.64C314.986 145.936 314.452 146.848 313.384 147.376C314.584 147.904 315.184 148.912 315.184 150.4ZM324.674 150.436C324.674 151.552 324.32 152.446 323.612 153.118C322.904 153.778 322.022 154.108 320.966 154.108C319.922 154.108 319.046 153.778 318.338 153.118C317.63 152.446 317.276 151.552 317.276 150.436V144.748C317.276 143.632 317.63 142.744 318.338 142.084C319.046 141.412 319.922 141.076 320.966 141.076C322.022 141.076 322.904 141.412 323.612 142.084C324.32 142.744 324.674 143.632 324.674 144.748V150.436ZM322.838 150.382V144.802C322.838 144.178 322.67 143.674 322.334 143.29C321.998 142.906 321.542 142.714 320.966 142.714C320.402 142.714 319.952 142.906 319.616 143.29C319.28 143.674 319.112 144.178 319.112 144.802V150.382C319.112 151.006 319.28 151.51 319.616 151.894C319.952 152.278 320.402 152.47 320.966 152.47C321.542 152.47 321.998 152.278 322.334 151.894C322.67 151.51 322.838 151.006 322.838 150.382ZM334.271 150.436C334.271 151.552 333.917 152.446 333.209 153.118C332.501 153.778 331.619 154.108 330.563 154.108C329.519 154.108 328.643 153.778 327.935 153.118C327.227 152.446 326.873 151.552 326.873 150.436V144.748C326.873 143.632 327.227 142.744 327.935 142.084C328.643 141.412 329.519 141.076 330.563 141.076C331.619 141.076 332.501 141.412 333.209 142.084C333.917 142.744 334.271 143.632 334.271 144.748V150.436ZM332.435 150.382V144.802C332.435 144.178 332.267 143.674 331.931 143.29C331.595 142.906 331.139 142.714 330.563 142.714C329.999 142.714 329.549 142.906 329.213 143.29C328.877 143.674 328.709 144.178 328.709 144.802V150.382C328.709 151.006 328.877 151.51 329.213 151.894C329.549 152.278 329.999 152.47 330.563 152.47C331.139 152.47 331.595 152.278 331.931 151.894C332.267 151.51 332.435 151.006 332.435 150.382ZM348.625 149.428C348.625 151.312 348.283 152.602 347.599 153.298C347.059 153.838 346.321 154.108 345.385 154.108C344.365 154.108 343.567 153.76 342.991 153.064V157.69H341.155V144.874H342.955V145.846C343.555 145.126 344.359 144.766 345.367 144.766C346.315 144.766 347.059 145.036 347.599 145.576C348.283 146.272 348.625 147.556 348.625 149.428ZM346.717 150.598C346.765 150.274 346.789 149.884 346.789 149.428C346.789 148.972 346.765 148.582 346.717 148.258C346.681 147.934 346.597 147.622 346.465 147.322C346.345 147.022 346.153 146.794 345.889 146.638C345.625 146.482 345.295 146.404 344.899 146.404C344.491 146.404 344.155 146.482 343.891 146.638C343.627 146.794 343.429 147.022 343.297 147.322C343.177 147.622 343.093 147.934 343.045 148.258C343.009 148.582 342.991 148.972 342.991 149.428C342.991 149.884 343.009 150.274 343.045 150.598C343.093 150.922 343.177 151.24 343.297 151.552C343.429 151.852 343.627 152.08 343.891 152.236C344.167 152.392 344.503 152.47 344.899 152.47C345.295 152.47 345.625 152.392 345.889 152.236C346.153 152.08 346.345 151.852 346.465 151.552C346.597 151.24 346.681 150.922 346.717 150.598ZM357.823 144.874L353.791 155.818C353.359 157.018 352.513 157.618 351.253 157.618H350.515V155.962H350.983C351.367 155.962 351.649 155.896 351.829 155.764C352.009 155.644 352.165 155.392 352.297 155.008L352.801 153.568L349.597 144.874H351.559L353.737 151.318L355.861 144.874H357.823ZM362.929 152.452C363.505 152.452 363.955 152.272 364.279 151.912C364.663 151.456 364.855 150.646 364.855 149.482C364.855 148.27 364.669 147.454 364.297 147.034C363.949 146.65 363.493 146.458 362.929 146.458C362.341 146.458 361.879 146.65 361.543 147.034C361.135 147.502 360.931 148.306 360.931 149.446C360.931 150.598 361.147 151.42 361.579 151.912C361.927 152.272 362.377 152.452 362.929 152.452ZM362.947 154.108C362.179 154.108 361.507 153.946 360.931 153.622C360.355 153.298 359.929 152.83 359.653 152.218C359.293 151.45 359.113 150.106 359.113 148.186C359.113 146.194 359.197 144.826 359.365 144.082C359.533 143.338 359.905 142.72 360.481 142.228C360.853 141.904 361.339 141.658 361.939 141.49C362.551 141.322 363.109 141.22 363.613 141.184C364.129 141.148 364.909 141.112 365.953 141.076V142.696C365.773 142.708 365.449 142.726 364.981 142.75C364.513 142.774 364.129 142.798 363.829 142.822C363.529 142.846 363.187 142.906 362.803 143.002C362.419 143.098 362.107 143.23 361.867 143.398C361.447 143.674 361.159 144.022 361.003 144.442C360.847 144.85 360.769 145.396 360.769 146.08C360.961 145.72 361.285 145.432 361.741 145.216C362.209 145 362.719 144.892 363.271 144.892C364.207 144.892 364.951 145.15 365.503 145.666C366.295 146.41 366.691 147.658 366.691 149.41C366.691 151.102 366.319 152.326 365.575 153.082C364.915 153.766 364.039 154.108 362.947 154.108ZM371.282 154H369.086V151.804H371.282V154Z" fill="#FCAF17"/>
<path d="M121.065 38.0781H115.898L114.996 41H110.968L116.704 25.3594H120.249L126.028 41H121.979L121.065 38.0781ZM116.801 35.167H120.163L118.477 29.7422L116.801 35.167ZM127.178 41V25.3594H132.796C134.808 25.3594 136.337 25.7282 137.383 26.4658C138.436 27.2035 138.962 28.2741 138.962 29.6777C138.962 30.487 138.776 31.1781 138.403 31.751C138.031 32.3239 137.483 32.7464 136.76 33.0186C137.576 33.2334 138.203 33.6344 138.64 34.2217C139.076 34.8089 139.295 35.5251 139.295 36.3701C139.295 37.9027 138.808 39.0557 137.834 39.8291C136.867 40.5954 135.431 40.9857 133.526 41H127.178ZM130.948 34.3506V38.0996H133.419C134.099 38.0996 134.622 37.9456 134.987 37.6377C135.353 37.3226 135.535 36.8822 135.535 36.3164C135.535 35.013 134.887 34.3577 133.591 34.3506H130.948ZM130.948 31.8799H132.914C133.738 31.8727 134.325 31.7223 134.676 31.4287C135.027 31.1351 135.202 30.7018 135.202 30.1289C135.202 29.4701 135.012 28.9974 134.633 28.7109C134.253 28.4173 133.641 28.2705 132.796 28.2705H130.948V31.8799ZM153.356 28.2705H148.662V41H144.892V28.2705H140.283V25.3594H153.356V28.2705ZM167.901 33.502C167.901 35.0273 167.618 36.3773 167.053 37.5518C166.487 38.7262 165.681 39.6322 164.636 40.2695C163.597 40.8997 162.412 41.2148 161.08 41.2148C159.748 41.2148 158.566 40.9105 157.535 40.3018C156.504 39.6859 155.698 38.8086 155.118 37.6699C154.545 36.5312 154.244 35.2243 154.216 33.749V32.8682C154.216 31.3356 154.495 29.9857 155.054 28.8184C155.619 27.6439 156.425 26.738 157.471 26.1006C158.523 25.4632 159.719 25.1445 161.059 25.1445C162.383 25.1445 163.565 25.4596 164.604 26.0898C165.642 26.7201 166.448 27.6188 167.021 28.7861C167.601 29.9463 167.894 31.2783 167.901 32.7822V33.502ZM164.066 32.8467C164.066 31.2926 163.805 30.1146 163.282 29.3125C162.767 28.5033 162.025 28.0986 161.059 28.0986C159.168 28.0986 158.169 29.5166 158.062 32.3525L158.051 33.502C158.051 35.0345 158.305 36.2126 158.813 37.0361C159.322 37.8597 160.077 38.2715 161.08 38.2715C162.033 38.2715 162.767 37.8669 163.282 37.0576C163.798 36.2484 164.059 35.0846 164.066 33.5664V32.8467ZM175.378 34.8125H173.595V41H169.824V25.3594H173.595V31.4072H175.045L178.053 25.3594H182.618L178.321 32.5781L183.155 41H178.697L175.378 34.8125ZM187.86 35.6934V41H184.09V25.3594H190.331C191.527 25.3594 192.583 25.5814 193.5 26.0254C194.424 26.4622 195.136 27.0889 195.638 27.9053C196.146 28.7145 196.4 29.6348 196.4 30.666C196.4 32.1914 195.853 33.4124 194.757 34.3291C193.668 35.2386 192.172 35.6934 190.267 35.6934H187.86ZM187.86 32.7822H190.331C191.062 32.7822 191.617 32.5996 191.996 32.2344C192.383 31.8691 192.576 31.3535 192.576 30.6875C192.576 29.957 192.379 29.3734 191.985 28.9365C191.591 28.4997 191.054 28.2777 190.374 28.2705H187.86V32.7822ZM208.12 34.3721H202.19V38.0996H209.194V41H198.42V25.3594H209.216V28.2705H202.19V31.5684H208.12V34.3721ZM225.361 44.8457H221.978V41H213.459V44.835H209.968L209.699 38.0996H210.806C211.386 37.7129 211.851 37.0505 212.202 36.1123C212.56 35.167 212.814 33.8135 212.965 32.0518L213.448 25.3594H224.094V38.0996H225.759L225.361 44.8457ZM215.07 38.0996H220.334V28.2705H217.004L216.714 32.1807C216.499 34.7158 215.951 36.6888 215.07 38.0996ZM236.232 25.3594H240.003V41H236.232V31.1387L230.614 41H226.844V25.3594H230.614V35.2314L236.232 25.3594ZM254.269 28.2705H249.574V41H245.804V28.2705H241.195V25.3594H254.269V28.2705ZM268.813 33.502C268.813 35.0273 268.531 36.3773 267.965 37.5518C267.399 38.7262 266.593 39.6322 265.548 40.2695C264.509 40.8997 263.324 41.2148 261.992 41.2148C260.66 41.2148 259.479 40.9105 258.447 40.3018C257.416 39.6859 256.61 38.8086 256.03 37.6699C255.457 36.5312 255.157 35.2243 255.128 33.749V32.8682C255.128 31.3356 255.407 29.9857 255.966 28.8184C256.532 27.6439 257.337 26.738 258.383 26.1006C259.436 25.4632 260.632 25.1445 261.971 25.1445C263.296 25.1445 264.477 25.4596 265.516 26.0898C266.554 26.7201 267.36 27.6188 267.933 28.7861C268.513 29.9463 268.806 31.2783 268.813 32.7822V33.502ZM264.979 32.8467C264.979 31.2926 264.717 30.1146 264.194 29.3125C263.679 28.5033 262.938 28.0986 261.971 28.0986C260.08 28.0986 259.081 29.5166 258.974 32.3525L258.963 33.502C258.963 35.0345 259.217 36.2126 259.726 37.0361C260.234 37.8597 260.99 38.2715 261.992 38.2715C262.945 38.2715 263.679 37.8669 264.194 37.0576C264.71 36.2484 264.971 35.0846 264.979 33.5664V32.8467ZM270.758 41V25.3594H276.376C278.388 25.3594 279.917 25.7282 280.963 26.4658C282.016 27.2035 282.542 28.2741 282.542 29.6777C282.542 30.487 282.356 31.1781 281.983 31.751C281.611 32.3239 281.063 32.7464 280.34 33.0186C281.156 33.2334 281.783 33.6344 282.22 34.2217C282.657 34.8089 282.875 35.5251 282.875 36.3701C282.875 37.9027 282.388 39.0557 281.414 39.8291C280.447 40.5954 279.011 40.9857 277.106 41H270.758ZM274.528 34.3506V38.0996H276.999C277.679 38.0996 278.202 37.9456 278.567 37.6377C278.933 37.3226 279.115 36.8822 279.115 36.3164C279.115 35.013 278.467 34.3577 277.171 34.3506H274.528ZM274.528 31.8799H276.494C277.318 31.8727 277.905 31.7223 278.256 31.4287C278.607 31.1351 278.782 30.7018 278.782 30.1289C278.782 29.4701 278.592 28.9974 278.213 28.7109C277.833 28.4173 277.221 28.2705 276.376 28.2705H274.528V31.8799ZM293.843 38.0781H288.676L287.773 41H283.745L289.481 25.3594H293.026L298.806 41H294.756L293.843 38.0781ZM289.578 35.167H292.94L291.254 29.7422L289.578 35.167ZM313.028 41H309.279V34.4688H303.726V41H299.955V25.3594H303.726V31.5684H309.279V25.3594H313.028V41ZM324.598 25.3594H328.368V41H324.598V31.1387L318.979 41H315.209V25.3594H318.979V35.2314L324.598 25.3594ZM340.378 34.3721H334.448V38.0996H341.452V41H330.678V25.3594H341.474V28.2705H334.448V31.5684H340.378V34.3721ZM357.641 25.3594H361.411V41H357.641V31.1387L352.022 41H348.252V25.3594H352.022V35.2314L357.641 25.3594ZM124.836 61.7041C124.786 62.7926 124.492 63.7559 123.955 64.5938C123.418 65.4245 122.662 66.069 121.688 66.5273C120.722 66.9857 119.615 67.2148 118.369 67.2148C116.314 67.2148 114.695 66.5452 113.514 65.2061C112.332 63.8669 111.741 61.9762 111.741 59.5342V58.7607C111.741 57.2282 112.006 55.889 112.536 54.7432C113.073 53.5902 113.843 52.7021 114.846 52.0791C115.848 51.4489 117.008 51.1338 118.326 51.1338C120.224 51.1338 121.749 51.6351 122.902 52.6377C124.055 53.6331 124.711 55.0081 124.868 56.7627H121.108C121.08 55.8102 120.84 55.1263 120.389 54.7109C119.938 54.2956 119.25 54.0879 118.326 54.0879C117.388 54.0879 116.701 54.4388 116.264 55.1406C115.827 55.8424 115.598 56.9632 115.576 58.5029V59.6094C115.576 61.278 115.784 62.4704 116.199 63.1865C116.622 63.9027 117.345 64.2607 118.369 64.2607C119.236 64.2607 119.898 64.0566 120.356 63.6484C120.815 63.2402 121.058 62.5921 121.087 61.7041H124.836ZM138.575 54.2705H133.881V67H130.11V54.2705H125.502V51.3594H138.575V54.2705ZM143.946 61.6934V67H140.176V51.3594H146.417C147.613 51.3594 148.669 51.5814 149.586 52.0254C150.51 52.4622 151.222 53.0889 151.724 53.9053C152.232 54.7145 152.486 55.6348 152.486 56.666C152.486 58.1914 151.938 59.4124 150.843 60.3291C149.754 61.2386 148.257 61.6934 146.353 61.6934H143.946ZM143.946 58.7822H146.417C147.147 58.7822 147.702 58.5996 148.082 58.2344C148.469 57.8691 148.662 57.3535 148.662 56.6875C148.662 55.957 148.465 55.3734 148.071 54.9365C147.677 54.4997 147.14 54.2777 146.46 54.2705H143.946V58.7822ZM161.478 64.0781H156.311L155.408 67H151.38L157.116 51.3594H160.661L166.44 67H162.391L161.478 64.0781ZM157.213 61.167H160.575L158.889 55.7422L157.213 61.167ZM173.423 56.5586L175.979 51.3594H180.287L175.915 59.1152L180.405 67H176.055L173.423 61.7041L170.791 67H166.451L170.931 59.1152L166.569 51.3594H170.866L173.423 56.5586ZM194.606 59.502C194.606 61.0273 194.324 62.3773 193.758 63.5518C193.192 64.7262 192.386 65.6322 191.341 66.2695C190.302 66.8997 189.117 67.2148 187.785 67.2148C186.453 67.2148 185.271 66.9105 184.24 66.3018C183.209 65.6859 182.403 64.8086 181.823 63.6699C181.25 62.5312 180.95 61.2243 180.921 59.749V58.8682C180.921 57.3356 181.2 55.9857 181.759 54.8184C182.325 53.6439 183.13 52.738 184.176 52.1006C185.229 51.4632 186.424 51.1445 187.764 51.1445C189.089 51.1445 190.27 51.4596 191.309 52.0898C192.347 52.7201 193.153 53.6188 193.726 54.7861C194.306 55.9463 194.599 57.2783 194.606 58.7822V59.502ZM190.771 58.8467C190.771 57.2926 190.51 56.1146 189.987 55.3125C189.472 54.5033 188.73 54.0986 187.764 54.0986C185.873 54.0986 184.874 55.5166 184.767 58.3525L184.756 59.502C184.756 61.0345 185.01 62.2126 185.519 63.0361C186.027 63.8597 186.783 64.2715 187.785 64.2715C188.738 64.2715 189.472 63.8669 189.987 63.0576C190.503 62.2484 190.764 61.0846 190.771 59.5664V58.8467ZM196.551 67V51.3594H202.169C204.181 51.3594 205.71 51.7282 206.756 52.4658C207.809 53.2035 208.335 54.2741 208.335 55.6777C208.335 56.487 208.149 57.1781 207.776 57.751C207.404 58.3239 206.856 58.7464 206.133 59.0186C206.949 59.2334 207.576 59.6344 208.013 60.2217C208.45 60.8089 208.668 61.5251 208.668 62.3701C208.668 63.9027 208.181 65.0557 207.207 65.8291C206.24 66.5954 204.804 66.9857 202.899 67H196.551ZM200.321 60.3506V64.0996H202.792C203.472 64.0996 203.995 63.9456 204.36 63.6377C204.726 63.3226 204.908 62.8822 204.908 62.3164C204.908 61.013 204.26 60.3577 202.964 60.3506H200.321ZM200.321 57.8799H202.287C203.111 57.8727 203.698 57.7223 204.049 57.4287C204.4 57.1351 204.575 56.7018 204.575 56.1289C204.575 55.4701 204.385 54.9974 204.006 54.7109C203.626 54.4173 203.014 54.2705 202.169 54.2705H200.321V57.8799ZM219.636 64.0781H214.469L213.566 67H209.538L215.274 51.3594H218.819L224.599 67H220.549L219.636 64.0781ZM215.371 61.167H218.733L217.047 55.7422L215.371 61.167ZM238.821 67H235.072V60.4688H229.519V67H225.748V51.3594H229.519V57.5684H235.072V51.3594H238.821V67ZM250.391 51.3594H254.161V67H250.391V57.1387L244.772 67H241.002V51.3594H244.772V61.2314L250.391 51.3594ZM266.171 60.3721H260.241V64.0996H267.245V67H256.471V51.3594H267.267V54.2705H260.241V57.5684H266.171V60.3721Z" fill="#FCAF17"/>
<path d="M32.2617 71.082V69.082H30.2617V71.082H32.2617ZM50.0156 53.3867L48.586 54.7853L48.5936 54.7932L48.6014 54.8009L50.0156 53.3867ZM35.7188 52.9766L34.4887 51.3996L34.4809 51.4056L34.4733 51.4117L35.7188 52.9766ZM32.8477 58.6602V60.6602H34.8477V58.6602H32.8477ZM13.1016 58.6602H11.1016V60.6602H13.1016V58.6602ZM27.2227 38.4453L28.0319 40.2743L28.0394 40.2709L27.2227 38.4453ZM64.2539 41.9609L63.0059 43.5238L64.2539 41.9609ZM69 70.2617L67.3542 69.1253L67.3513 69.1295L69 70.2617ZM59.2148 78.1719L58.3601 76.3637L54.0168 78.4169L58.534 80.0524L59.2148 78.1719ZM69.8789 85.6719L68.2923 86.8895L68.2992 86.8985L69.8789 85.6719ZM26.2852 120.008L25.4632 121.831L25.4722 121.835L25.4812 121.839L26.2852 120.008ZM15.4453 111.16L13.768 112.25L13.7732 112.257L15.4453 111.16ZM11.7539 98.2695V96.2695H9.75391V98.2695H11.7539ZM31.6172 98.2695H33.6172V96.2695H31.6172V98.2695ZM50.8945 105.066L52.2522 106.535L52.2596 106.528L52.267 106.521L50.8945 105.066ZM50.7773 88.4844L49.4942 90.0185L50.7773 88.4844ZM32.2617 85.7891H30.2617V87.7891H32.2617V85.7891ZM32.2617 73.082H41.5781V69.082H32.2617V73.082ZM41.5781 73.082C45.5672 73.082 48.9284 72.1059 51.2828 69.8013C53.6451 67.489 54.6523 64.1747 54.6523 60.2422H50.6523C50.6523 63.5362 49.8139 65.6418 48.4848 66.9428C47.1478 68.2515 44.9719 69.082 41.5781 69.082V73.082ZM54.6523 60.2422C54.6523 56.9752 53.6132 54.1559 51.4298 51.9725L48.6014 54.8009C49.9337 56.1332 50.6523 57.8842 50.6523 60.2422H54.6523ZM51.4453 51.9881C49.2149 49.7082 46.16 48.6914 42.5742 48.6914V52.6914C45.3947 52.6914 47.3007 53.4715 48.586 54.7853L51.4453 51.9881ZM42.5742 48.6914C39.5384 48.6914 36.814 49.5858 34.4887 51.3996L36.9488 54.5536C38.5298 53.3204 40.3757 52.6914 42.5742 52.6914V48.6914ZM34.4733 51.4117C32.1261 53.2799 30.8477 55.7315 30.8477 58.6602H34.8477C34.8477 57.0575 35.4833 55.7201 36.9642 54.5414L34.4733 51.4117ZM32.8477 56.6602H13.1016V60.6602H32.8477V56.6602ZM15.1016 58.6602C15.1016 54.5651 16.2326 50.97 18.4815 47.8075L15.2217 45.4894C12.4705 49.3582 11.1016 53.7708 11.1016 58.6602H15.1016ZM18.4815 47.8075C20.7491 44.6186 23.9066 42.0996 28.0319 40.2743L26.4134 36.6164C21.7106 38.6972 17.954 41.647 15.2217 45.4894L18.4815 47.8075ZM28.0394 40.2709C32.2134 38.4036 36.8148 37.457 41.8711 37.457V33.457C36.3024 33.457 31.1381 34.5026 26.4059 36.6197L28.0394 40.2709ZM41.8711 37.457C51.0745 37.457 58.0409 39.5589 63.0059 43.5238L65.5019 40.3981C59.6076 35.6911 51.6521 33.457 41.8711 33.457V37.457ZM63.0059 43.5238C67.9132 47.4425 70.3984 52.799 70.3984 59.832H74.3984C74.3984 51.7088 71.454 45.1512 65.5019 40.3981L63.0059 43.5238ZM70.3984 59.832C70.3984 63.0628 69.41 66.148 67.3542 69.1253L70.6458 71.3981C73.1213 67.8129 74.3984 63.945 74.3984 59.832H70.3984ZM67.3513 69.1295C65.3629 72.0249 62.4038 74.4521 58.3601 76.3637L60.0696 79.98C64.6196 77.8291 68.1839 74.9829 70.6487 71.3939L67.3513 69.1295ZM58.534 80.0524C62.7571 81.5815 65.9775 83.8733 68.2923 86.8895L71.4655 84.4542C68.6241 80.7517 64.7351 78.0435 59.8957 76.2913L58.534 80.0524ZM68.2992 86.8985C70.5601 89.8103 71.7461 93.4785 71.7461 98.0352H75.7461C75.7461 92.7481 74.3539 88.1741 71.4586 84.4453L68.2992 86.8985ZM71.7461 98.0352C71.7461 105.054 69.0864 110.559 63.727 114.739L66.1871 117.893C72.5464 112.933 75.7461 106.251 75.7461 98.0352H71.7461ZM63.727 114.739C58.3078 118.966 51.084 121.172 41.8711 121.172V125.172C51.7207 125.172 59.8876 122.807 66.1871 117.893L63.727 114.739ZM41.8711 121.172C36.5438 121.172 31.6243 120.168 27.0891 118.177L25.4812 121.839C30.5554 124.067 36.0265 125.172 41.8711 125.172V121.172ZM27.1071 118.185C22.6297 116.166 19.3372 113.445 17.1174 110.063L13.7732 112.257C16.4753 116.375 20.4094 119.553 25.4632 121.831L27.1071 118.185ZM17.1226 110.071C14.8859 106.627 13.7539 102.713 13.7539 98.2695H9.75391C9.75391 103.435 11.0829 108.115 13.768 112.25L17.1226 110.071ZM11.7539 100.27H31.6172V96.2695H11.7539V100.27ZM29.6172 98.2695C29.6172 101.504 30.9514 104.292 33.4373 106.548L36.1252 103.585C34.3923 102.013 33.6172 100.269 33.6172 98.2695H29.6172ZM33.4373 106.548C35.9467 108.825 39.0364 109.938 42.5742 109.938V105.938C39.9401 105.938 37.8346 105.136 36.1252 103.585L33.4373 106.548ZM42.5742 109.938C46.4311 109.938 49.731 108.866 52.2522 106.535L49.5368 103.598C47.9174 105.095 45.6704 105.938 42.5742 105.938V109.938ZM52.267 106.521C54.7626 104.167 56 101.148 56 97.625H52C52 100.117 51.1671 102.06 49.5221 103.612L52.267 106.521ZM56 97.625C56 93.0547 54.8613 89.2927 52.0605 86.9502L49.4942 90.0185C50.9903 91.2698 52 93.6016 52 97.625H56ZM52.0605 86.9502C49.4427 84.7609 45.9635 83.7891 41.8711 83.7891V87.7891C45.3568 87.7891 47.8151 88.6141 49.4942 90.0185L52.0605 86.9502ZM41.8711 83.7891H32.2617V87.7891H41.8711V83.7891ZM34.2617 85.7891V71.082H30.2617V85.7891H34.2617Z" fill="#FCAF17"/>
</g>
<defs>
<filter id="filter0_d" x="-50" y="-50" width="513" height="285" filterUnits="userSpaceOnUse" color-interpolation-filters="sRGB">
<feFlood flood-opacity="0" result="BackgroundImageFix"/>
<feColorMatrix in="SourceAlpha" type="matrix" values="0 0 0 0 0 0 0 0 0 0 0 0 0 0 0 0 0 0 127 0" result="hardAlpha"/>
<feOffset/>
<feGaussianBlur stdDeviation="25"/>
<feComposite in2="hardAlpha" operator="out"/>
<feColorMatrix type="matrix" values="0 0 0 0 0 0 0 0 0 0 0 0 0 0 0 0 0 0 0.15 0"/>
<feBlend mode="normal" in2="BackgroundImageFix" result="effect1_dropShadow"/>
<feBlend mode="normal" in="SourceGraphic" in2="effect1_dropShadow" result="shape"/>
</filter>
<filter id="filter1_d" x="-50" y="-50" width="188" height="285" filterUnits="userSpaceOnUse" color-interpolation-filters="sRGB">
<feFlood flood-opacity="0" result="BackgroundImageFix"/>
<feColorMatrix in="SourceAlpha" type="matrix" values="0 0 0 0 0 0 0 0 0 0 0 0 0 0 0 0 0 0 127 0" result="hardAlpha"/>
<feOffset/>
<feGaussianBlur stdDeviation="25"/>
<feComposite in2="hardAlpha" operator="out"/>
<feColorMatrix type="matrix" values="0 0 0 0 0 0 0 0 0 0 0 0 0 0 0 0 0 0 0.15 0"/>
<feBlend mode="normal" in2="BackgroundImageFix" result="effect1_dropShadow"/>
<feBlend mode="normal" in="SourceGraphic" in2="effect1_dropShadow" result="shape"/>
</filter>
<filter id="filter2_d" x="-50" y="-50" width="513" height="285" filterUnits="userSpaceOnUse" color-interpolation-filters="sRGB">
<feFlood flood-opacity="0" result="BackgroundImageFix"/>
<feColorMatrix in="SourceAlpha" type="matrix" values="0 0 0 0 0 0 0 0 0 0 0 0 0 0 0 0 0 0 127 0" result="hardAlpha"/>
<feOffset/>
<feGaussianBlur stdDeviation="25"/>
<feComposite in2="hardAlpha" operator="out"/>
<feColorMatrix type="matrix" values="0 0 0 0 0 0 0 0 0 0 0 0 0 0 0 0 0 0 0.15 0"/>
<feBlend mode="normal" in2="BackgroundImageFix" result="effect1_dropShadow"/>
<feBlend mode="normal" in="SourceGraphic" in2="effect1_dropShadow" result="shape"/>
</filter>
<filter id="filter3_d" x="-50" y="-50" width="188" height="285" filterUnits="userSpaceOnUse" color-interpolation-filters="sRGB">
<feFlood flood-opacity="0" result="BackgroundImageFix"/>
<feColorMatrix in="SourceAlpha" type="matrix" values="0 0 0 0 0 0 0 0 0 0 0 0 0 0 0 0 0 0 127 0" result="hardAlpha"/>
<feOffset/>
<feGaussianBlur stdDeviation="25"/>
<feComposite in2="hardAlpha" operator="out"/>
<feColorMatrix type="matrix" values="0 0 0 0 0 0 0 0 0 0 0 0 0 0 0 0 0 0 0.15 0"/>
<feBlend mode="normal" in2="BackgroundImageFix" result="effect1_dropShadow"/>
<feBlend mode="normal" in="SourceGraphic" in2="effect1_dropShadow" result="shape"/>
</filter>
<clipPath id="clip0">
<rect width="413" height="185" fill="white"/>
</clipPath>
<clipPath id="clip1">
<rect width="204" height="185" fill="white"/>
</clipPath>
</defs>
</svg>
