<svg width="646" height="477" viewBox="0 0 646 477" fill="none" xmlns="http://www.w3.org/2000/svg">
<path d="M574.192 303.936L575.029 302.315L588.759 309.413L592.473 302.229L578.744 295.131L579.581 293.51L594.761 301.358L589.371 311.783L574.192 303.936Z" fill="#FCAF17"/>
<path d="M570.736 318.897C568.929 317.714 567.881 316.453 567.59 315.115C567.314 313.902 567.557 312.713 568.32 311.548C569.083 310.384 570.076 309.686 571.299 309.454C572.641 309.186 574.216 309.643 576.023 310.827C577.843 312.019 578.892 313.28 579.169 314.609C579.445 315.823 579.201 317.012 578.439 318.176C577.676 319.341 576.683 320.039 575.46 320.27C574.131 320.547 572.556 320.09 570.736 318.897ZM571.683 317.452C573.195 318.443 574.384 318.848 575.248 318.668C576.045 318.502 576.68 318.057 577.154 317.334C577.618 316.625 577.768 315.872 577.601 315.074C577.417 314.188 576.575 313.254 575.076 312.272C573.577 311.29 572.384 310.892 571.498 311.076C570.701 311.243 570.07 311.68 569.605 312.39C569.132 313.113 568.978 313.873 569.144 314.67C569.338 315.543 570.184 316.47 571.683 317.452Z" fill="#FCAF17"/>
<path d="M557.523 326.011L558.568 324.635L566.786 330.878L569.312 327.553L566.063 325.085C564.216 323.681 563.121 322.438 562.779 321.354C562.449 320.28 562.643 319.272 563.359 318.329L563.838 317.698L565.023 318.598L564.791 318.904C564.636 319.108 564.52 319.301 564.442 319.483C564.364 319.665 564.329 319.909 564.336 320.216C564.347 320.546 564.449 320.875 564.642 321.202C564.826 321.543 565.151 321.961 565.618 322.456C566.099 322.962 566.714 323.5 567.466 324.071L571.499 327.134L566.925 333.154L557.523 326.011Z" fill="#FCAF17"/>
<path d="M556.936 344.246L549.421 330.555C548.669 329.177 548.804 327.903 549.824 326.734L550.313 326.173L551.47 327.183L551.123 327.581C550.755 328.003 550.559 328.374 550.536 328.693C550.502 329.024 550.639 329.462 550.948 330.008L552.132 332.156L563.642 336.56L562.411 337.971L553.138 334.18L558.166 342.836L556.936 344.246Z" fill="#FCAF17"/>
<path d="M540.153 344.377L541.349 343.13L544.676 346.317C545.431 345.09 546.14 344.13 546.804 343.437C547.546 342.663 548.329 342.25 549.154 342.198C549.979 342.147 550.796 342.508 551.605 343.283L554.707 346.255L553.511 347.503L550.634 344.747C550.091 344.227 549.582 343.972 549.107 343.982C548.644 344.003 548.174 344.262 547.698 344.759C547.078 345.406 546.429 346.268 545.751 347.347L549.875 351.298L548.68 352.546L540.153 344.377Z" fill="#FCAF17"/>
<path d="M529.459 354.196L530.716 353.01L536.994 359.658L535.131 348.841L536.37 347.671L544.476 356.257L543.237 357.427L536.993 350.813L538.822 361.595L537.566 362.781L529.459 354.196Z" fill="#FCAF17"/>
<path d="M526.449 370.014L529.388 367.505L522.688 359.656L524.002 358.534L530.702 366.383L533.787 363.75L534.753 364.882L527.415 371.145L526.449 370.014Z" fill="#FCAF17"/>
<path d="M514.464 373.977C513.517 373.89 512.711 373.427 512.045 372.586C511.379 371.746 511.113 370.855 511.244 369.914C511.386 368.985 511.896 368.173 512.774 367.477L516.894 364.213L524.226 373.468L522.891 374.526L519.985 370.858L517.2 373.064C516.31 373.77 515.398 374.074 514.464 373.977ZM512.897 369.952C512.825 370.479 512.992 370.999 513.4 371.513C513.807 372.027 514.27 372.303 514.79 372.341C515.307 372.401 515.848 372.207 516.412 371.76L519.046 369.673L516.482 366.438L513.848 368.524C513.284 368.971 512.967 369.447 512.897 369.952Z" fill="#FCAF17"/>
<path d="M493.759 380.946L495.174 379.954L501.097 388.405L505.775 385.126L499.851 376.676L501.246 375.698L508.024 385.367L500.536 390.615L493.759 380.946Z" fill="#FCAF17"/>
<path d="M485.148 393.321C483.976 391.506 483.529 389.928 483.806 388.588C484.046 387.366 484.751 386.378 485.92 385.623C487.09 384.868 488.28 384.633 489.492 384.917C490.828 385.216 492.082 386.273 493.253 388.088C494.433 389.916 494.881 391.494 494.595 392.821C494.355 394.042 493.65 395.03 492.481 395.785C491.311 396.54 490.121 396.776 488.909 396.492C487.581 396.206 486.328 395.149 485.148 393.321ZM486.599 392.383C487.58 393.902 488.502 394.755 489.364 394.941C490.161 395.112 490.922 394.964 491.648 394.495C492.36 394.035 492.802 393.407 492.973 392.611C493.164 391.726 492.773 390.531 491.801 389.025C490.83 387.52 489.901 386.672 489.016 386.481C488.22 386.309 487.466 386.454 486.753 386.914C486.027 387.382 485.579 388.015 485.407 388.811C485.23 389.687 485.627 390.878 486.599 392.383Z" fill="#FCAF17"/>
<path d="M467.553 392.646L468.995 391.784L470.806 394.812L478.345 390.305L476.535 387.277L477.956 386.427L480.53 390.732L479.335 391.447C479.49 392.734 479.744 393.924 480.099 395.016C480.454 396.109 481.132 397.493 482.134 399.168L483.292 401.105L476.926 404.91L471.631 396.052L470.127 396.951L467.553 392.646ZM473.114 395.166L477.646 402.746L481.107 400.677L479.961 398.762C478.744 396.693 477.999 394.575 477.728 392.407L473.114 395.166Z" fill="#FCAF17"/>
<path d="M460.494 407.042C459.353 404.967 458.967 403.271 459.338 401.953C459.609 401.019 460.285 400.255 461.364 399.661C462.598 398.982 463.819 398.895 465.027 399.399L461.811 393.553L463.325 392.72L471.562 407.692L470.048 408.525L469.377 407.305C469.156 408.596 468.428 409.58 467.194 410.259C466.115 410.853 465.108 411.014 464.174 410.743C462.87 410.365 461.643 409.131 460.494 407.042ZM461.292 404.658C461.453 405.118 461.692 405.635 462.008 406.209C462.324 406.784 462.633 407.262 462.935 407.644C463.222 408.034 463.558 408.379 463.942 408.679C464.334 408.993 464.77 409.155 465.25 409.165C465.73 409.174 466.237 409.033 466.769 408.74C467.204 408.501 467.54 408.215 467.778 407.884C468.023 407.566 468.178 407.234 468.243 406.888C468.295 406.549 468.276 406.167 468.188 405.741C468.085 405.322 467.959 404.926 467.808 404.553C467.651 404.201 467.449 403.801 467.202 403.352C466.955 402.903 466.721 402.512 466.501 402.176C466.274 401.863 466.011 401.551 465.712 401.241C465.399 400.938 465.086 400.718 464.773 400.579C464.446 400.449 464.078 400.396 463.671 400.419C463.271 400.456 462.854 400.594 462.42 400.833C461.887 401.126 461.496 401.478 461.248 401.889C460.999 402.3 460.898 402.748 460.946 403.233C461.001 403.732 461.117 404.207 461.292 404.658Z" fill="#FCAF17"/>
<path d="M447.774 413.283C446.8 411.356 446.521 409.74 446.937 408.436C447.304 407.246 448.109 406.337 449.351 405.71C450.594 405.082 451.802 404.973 452.978 405.383C454.275 405.821 455.41 407.004 456.385 408.931C457.366 410.874 457.645 412.489 457.221 413.779C456.854 414.969 456.05 415.877 454.807 416.505C453.565 417.133 452.356 417.242 451.181 416.832C449.891 416.408 448.755 415.225 447.774 413.283ZM449.316 412.504C450.132 414.118 450.959 415.062 451.797 415.338C452.571 415.592 453.343 415.524 454.114 415.134C454.871 414.752 455.377 414.174 455.631 413.4C455.914 412.54 455.651 411.31 454.842 409.711C454.034 408.112 453.2 407.171 452.34 406.888C451.566 406.634 450.801 406.698 450.044 407.08C449.273 407.47 448.76 408.052 448.506 408.826C448.238 409.679 448.508 410.905 449.316 412.504Z" fill="#FCAF17"/>
<path d="M437.959 412.732C437.177 413.099 436.662 413.658 436.413 414.411C436.134 415.284 436.353 416.489 437.073 418.024C437.854 419.691 438.652 420.677 439.467 420.984C440.247 421.29 441.021 421.263 441.788 420.904C442.571 420.537 443.094 419.956 443.357 419.161C443.653 418.245 443.434 417.005 442.7 415.44C441.981 413.905 441.167 412.961 440.26 412.608C439.523 412.318 438.756 412.359 437.959 412.732ZM437.307 411.341C438.293 410.88 439.248 410.732 440.175 410.899C441.108 411.08 441.93 411.552 442.64 412.315C443.288 413.018 444.158 414.536 445.252 416.869C446.277 419.057 446.892 420.597 447.099 421.49C447.305 422.382 447.225 423.286 446.858 424.2C446.69 424.632 446.461 425.031 446.173 425.396C445.884 425.761 445.507 426.105 445.041 426.43C444.567 426.776 444.177 427.038 443.872 427.216C443.559 427.416 443.083 427.683 442.445 428.017C441.792 428.358 441.368 428.584 441.172 428.693L440.51 427.281C440.619 427.212 441.123 426.931 442.023 426.439C442.93 425.961 443.647 425.51 444.173 425.087C444.691 424.685 445.064 424.237 445.291 423.741C445.565 423.118 445.643 422.455 445.525 421.75C445.399 421.067 445.105 420.233 444.643 419.248C444.607 419.848 444.359 420.432 443.901 421C443.443 421.568 442.866 422.015 442.171 422.341C441.069 422.857 440.029 422.956 439.049 422.638C437.715 422.203 436.559 420.942 435.581 418.856C434.637 416.842 434.396 415.197 434.858 413.92C435.245 412.785 436.061 411.925 437.307 411.341Z" fill="#FCAF17"/>
<path d="M420.924 418.576L422.509 417.889L424.638 422.8L429.879 420.528L427.751 415.618L429.314 414.94L434.009 425.775L432.446 426.452L430.47 421.894L425.229 424.165L427.205 428.723L425.619 429.41L420.924 418.576Z" fill="#FCAF17"/>
<path d="M404.392 424.97L405.998 424.333L410.353 435.308L408.747 435.945L404.392 424.97ZM410.986 428.963C410.104 428.607 409.466 427.931 409.07 426.935C408.675 425.938 408.676 425.008 409.073 424.145C409.477 423.296 410.199 422.665 411.24 422.252L416.126 420.314L420.481 431.289L418.897 431.918L417.171 427.568L413.869 428.878C412.813 429.297 411.852 429.325 410.986 428.963ZM410.645 424.657C410.424 425.141 410.434 425.688 410.676 426.297C410.918 426.907 411.283 427.305 411.77 427.49C412.247 427.697 412.821 427.667 413.49 427.401L416.613 426.162L415.091 422.325L411.967 423.565C411.298 423.83 410.858 424.194 410.645 424.657Z" fill="#FCAF17"/>
<path d="M396.738 445.309C396.19 443.365 396.957 442.027 399.04 441.294C401.123 440.562 402.56 441.125 403.349 442.985L401.9 443.494C401.411 442.394 400.594 442.046 399.446 442.449C398.299 442.852 397.879 443.636 398.187 444.8L396.738 445.309ZM389.956 429.784L391.586 429.211L394.619 437.837L397.314 427.197L398.922 426.631L402.839 437.771L401.231 438.336L398.214 429.755L395.503 440.35L393.873 440.923L389.956 429.784Z" fill="#FCAF17"/>
<path d="M375.898 435.443C375.072 435.696 374.483 436.177 374.131 436.887C373.731 437.712 373.778 438.936 374.274 440.558C374.812 442.317 375.463 443.407 376.227 443.826C376.955 444.239 377.725 444.321 378.536 444.073C379.362 443.821 379.962 443.32 380.335 442.57C380.757 441.705 380.715 440.446 380.21 438.794C379.714 437.172 379.042 436.122 378.194 435.645C377.505 435.254 376.74 435.186 375.898 435.443ZM375.449 433.975C376.49 433.657 377.457 433.645 378.35 433.941C379.248 434.252 379.995 434.835 380.591 435.69C381.133 436.478 381.781 438.104 382.534 440.568C383.24 442.878 383.632 444.49 383.711 445.403C383.789 446.316 383.582 447.199 383.09 448.052C382.862 448.456 382.58 448.819 382.243 449.139C381.906 449.46 381.483 449.748 380.976 450.003C380.458 450.279 380.035 450.483 379.708 450.617C379.37 450.77 378.861 450.967 378.182 451.208C377.488 451.454 377.036 451.617 376.826 451.698L376.37 450.206C376.488 450.154 377.027 449.947 377.988 449.586C378.953 449.241 379.726 448.896 380.306 448.551C380.876 448.227 381.309 447.835 381.604 447.377C381.962 446.799 382.133 446.153 382.115 445.439C382.087 444.745 381.914 443.877 381.596 442.837C381.475 443.426 381.148 443.969 380.614 444.467C380.08 444.965 379.446 445.326 378.711 445.551C377.549 445.906 376.505 445.857 375.58 445.404C374.32 444.785 373.353 443.374 372.68 441.17C372.03 439.043 372.023 437.381 372.661 436.182C373.204 435.113 374.133 434.377 375.449 433.975Z" fill="#FCAF17"/>
<path d="M357.89 438.973L359.555 438.511L361.999 447.322L365.407 436.888L367.049 436.433L370.204 447.812L368.562 448.267L366.131 439.502L362.711 449.889L361.046 450.351L357.89 438.973Z" fill="#FCAF17"/>
<path d="M345.365 445.292C345.12 444.281 345.349 443.361 346.054 442.532C346.746 441.722 347.691 441.172 348.889 440.881C350.755 440.429 352.418 440.602 353.879 441.4L353.096 442.751C352.469 442.409 351.883 442.197 351.336 442.115C350.778 442.053 350.141 442.109 349.426 442.282C348.679 442.463 348.054 442.804 347.55 443.305C347.05 443.822 346.871 444.375 347.014 444.966C347.165 445.588 347.498 446.01 348.012 446.23C348.511 446.455 349.118 446.481 349.834 446.307L351.513 445.9L351.852 447.3L350.15 447.713C349.512 447.867 349.039 448.155 348.729 448.576C348.404 449 348.311 449.5 348.451 450.075C348.59 450.651 348.929 451.03 349.467 451.212C349.99 451.398 350.655 451.393 351.464 451.197C352.599 450.922 353.548 450.354 354.311 449.494L355.538 450.382C354.603 451.481 353.304 452.233 351.64 452.636C350.458 452.923 349.418 452.878 348.521 452.503C347.627 452.144 347.063 451.482 346.829 450.518C346.69 449.943 346.727 449.382 346.94 448.836C347.138 448.295 347.5 447.853 348.027 447.511C347.375 447.472 346.812 447.254 346.337 446.859C345.847 446.467 345.523 445.945 345.365 445.292Z" fill="#FCAF17"/>
<path d="M331.421 444.804L333.11 444.437L334.246 449.667L339.827 448.455L338.691 443.224L340.357 442.863L342.863 454.402L341.198 454.763L340.143 449.909L334.561 451.121L335.616 455.976L333.927 456.343L331.421 444.804Z" fill="#FCAF17"/>
<path d="M318.475 452.606L326.309 451.153C326.07 449.863 325.595 448.926 324.885 448.342C324.175 447.758 323.261 447.569 322.144 447.776C321.483 447.898 320.951 448.103 320.549 448.389C320.131 448.678 319.729 449.102 319.345 449.662L318 448.861C318.513 448.115 319.058 447.543 319.634 447.143C320.211 446.743 320.972 446.455 321.915 446.281C323.52 445.983 324.861 446.239 325.939 447.048C327.003 447.876 327.721 449.289 328.091 451.287C328.438 453.159 328.283 454.693 327.626 455.889C326.972 457.1 325.906 457.843 324.427 458.117C322.932 458.394 321.675 458.106 320.654 457.254C319.621 456.421 318.941 455.123 318.615 453.361L318.475 452.606ZM320.386 453.569C320.615 454.454 320.861 455.076 321.122 455.434C321.889 456.496 322.901 456.911 324.16 456.678C325.418 456.444 326.215 455.695 326.55 454.428C326.663 453.984 326.661 453.317 326.545 452.428L320.386 453.569Z" fill="#FCAF17"/>
<path d="M305.342 450.663C305.882 449.881 306.41 449.327 306.926 449.003C307.457 448.676 308.094 448.454 308.837 448.336C310.465 448.079 311.829 448.406 312.929 449.317C314.029 450.228 314.726 451.616 315.021 453.481C315.316 455.346 315.081 456.882 314.316 458.088C313.551 459.294 312.355 460.026 310.727 460.284C309.984 460.401 309.31 460.386 308.703 460.239C308.113 460.09 307.44 459.726 306.684 459.149L307.673 457.875C308.28 458.33 308.777 458.608 309.166 458.708C309.588 458.82 310.037 458.838 310.511 458.763C312.85 458.393 313.784 456.722 313.314 453.751C312.844 450.78 311.448 449.478 309.125 449.846C308.635 449.923 308.22 450.07 307.882 450.285C307.53 450.519 307.129 450.955 306.68 451.593L305.342 450.663Z" fill="#FCAF17"/>
<path d="M295.945 455.847L302.465 454.992L302.674 456.587L296.154 457.441L295.945 455.847Z" fill="#FCAF17"/>
<path d="M281.221 451.631L282.939 451.448L284.028 461.711L289.708 461.108L288.62 450.846L290.314 450.666L291.56 462.408L282.467 463.373L281.221 451.631Z" fill="#FCAF17"/>
<path d="M267.419 452.498L269.142 452.37L269.905 462.662L274.07 462.353L273.768 458.284C273.597 455.971 273.804 454.327 274.389 453.353C274.976 452.395 275.86 451.872 277.041 451.785L277.83 451.726L277.94 453.21L277.558 453.238C277.302 453.257 277.081 453.298 276.893 453.36C276.705 453.422 276.498 453.557 276.273 453.767C276.033 453.993 275.854 454.287 275.737 454.649C275.603 455.012 275.505 455.532 275.443 456.211C275.383 456.905 275.387 457.723 275.457 458.664L275.831 463.715L268.292 464.274L267.419 452.498Z" fill="#FCAF17"/>
<path d="M253.54 452.895L255.267 452.827L255.311 453.954C255.757 453.472 256.231 453.125 256.735 452.913C257.239 452.701 257.883 452.579 258.666 452.548C260.153 452.49 261.279 452.806 262.042 453.496C262.657 454.048 262.984 454.836 263.024 455.859C263.066 456.914 262.747 457.76 262.067 458.395C261.372 459.031 260.369 459.375 259.058 459.426L255.532 459.565L255.577 460.692C255.612 461.572 255.877 462.21 256.373 462.607C256.854 463.02 257.63 463.206 258.701 463.163C259.436 463.134 260.024 463.007 260.463 462.782C260.887 462.557 261.272 462.189 261.62 461.679L262.838 462.712C262.369 463.403 261.82 463.889 261.19 464.17C260.561 464.451 259.743 464.611 258.735 464.651C255.586 464.775 253.959 463.526 253.856 460.904L253.54 452.895ZM255.431 456.999L255.481 458.27L258.767 458.141C260.541 458.071 261.401 457.34 261.347 455.949C261.294 454.606 260.356 453.971 258.533 454.043C257.366 454.089 256.505 454.387 255.95 454.937C255.566 455.337 255.393 456.024 255.431 456.999Z" fill="#FCAF17"/>
<path d="M239.606 452.846L241.334 452.835L241.368 458.187L247.08 458.15L247.045 452.798L248.749 452.787L248.825 464.595L247.121 464.606L247.089 459.638L241.377 459.675L241.409 464.643L239.681 464.654L239.606 452.846Z" fill="#FCAF17"/>
<path d="M180.114 446.617L181.917 446.893L179.577 462.171L187.572 463.395L189.912 448.117L191.715 448.393L189.128 465.284L177.527 463.508L180.114 446.617Z" fill="#FCAF17"/>
<path d="M164.937 449.079C165.385 446.966 166.18 445.532 167.322 444.777C168.353 444.08 169.55 443.876 170.911 444.165C172.273 444.454 173.283 445.126 173.943 446.182C174.679 447.336 174.823 448.969 174.375 451.082C173.923 453.211 173.128 454.645 171.989 455.385C170.958 456.082 169.762 456.286 168.4 455.997C167.038 455.708 166.028 455.036 165.369 453.98C164.629 452.841 164.485 451.208 164.937 449.079ZM166.627 449.438C166.252 451.207 166.304 452.461 166.785 453.201C167.229 453.884 167.874 454.315 168.719 454.495C169.548 454.671 170.305 454.537 170.988 454.093C171.747 453.6 172.312 452.477 172.684 450.724C173.056 448.971 172.996 447.715 172.502 446.956C172.059 446.273 171.422 445.843 170.592 445.667C169.747 445.488 168.983 445.62 168.3 446.064C167.557 446.56 166.999 447.685 166.627 449.438Z" fill="#FCAF17"/>
<path d="M153.597 439.73L155.268 440.171L152.637 450.15L156.675 451.214L157.715 447.269C158.306 445.026 159.038 443.539 159.909 442.809C160.775 442.094 161.781 441.888 162.926 442.19L163.692 442.392L163.313 443.83L162.941 443.733C162.694 443.667 162.471 443.633 162.273 443.631C162.075 443.628 161.836 443.689 161.555 443.814C161.254 443.95 160.989 444.169 160.76 444.473C160.516 444.773 160.254 445.233 159.974 445.854C159.691 446.491 159.428 447.266 159.188 448.179L157.897 453.075L150.587 451.148L153.597 439.73Z" fill="#FCAF17"/>
<path d="M136.81 446.397L146.479 434.132C147.454 432.902 148.679 432.529 150.154 433.011L150.861 433.243L150.384 434.702L149.882 434.538C149.35 434.364 148.932 434.328 148.629 434.431C148.311 434.529 147.961 434.827 147.579 435.325L146.064 437.254L146.504 449.569L144.725 448.987L144.594 438.969L138.589 446.979L136.81 446.397Z" fill="#FCAF17"/>
<path d="M130.082 430.877L131.694 431.499L130.035 435.798C131.458 436.021 132.617 436.306 133.513 436.651C134.513 437.037 135.196 437.601 135.561 438.342C135.927 439.084 135.908 439.977 135.505 441.022L133.958 445.03L132.346 444.407L133.78 440.691C134.051 439.989 134.09 439.421 133.898 438.987C133.699 438.567 133.279 438.233 132.638 437.986C131.802 437.663 130.755 437.397 129.499 437.186L127.442 442.515L125.83 441.893L130.082 430.877Z" fill="#FCAF17"/>
<path d="M116.855 424.504L118.424 425.227L114.598 433.532L123.939 427.768L125.487 428.481L120.546 439.206L118.999 438.493L122.804 430.231L113.484 435.952L111.914 435.229L116.855 424.504Z" fill="#FCAF17"/>
<path d="M100.89 426.908L104.257 428.804L109.321 419.812L110.827 420.66L105.763 429.652L109.297 431.643L108.566 432.939L100.16 428.205L100.89 426.908Z" fill="#FCAF17"/>
<path d="M93.009 416.342C92.7965 415.415 92.9857 414.504 93.5765 413.61C94.1674 412.716 94.9307 412.184 95.8663 412.016C96.7931 411.861 97.7238 412.093 98.6583 412.71L103.044 415.607L96.5354 425.459L95.1136 424.52L97.6932 420.615L94.7294 418.657C93.7816 418.031 93.2081 417.259 93.009 416.342ZM96.3456 413.598C95.8223 413.694 95.3799 414.015 95.0184 414.562C94.6568 415.11 94.5392 415.636 94.6656 416.142C94.7698 416.651 95.1223 417.105 95.723 417.502L98.5266 419.354L100.802 415.909L97.9983 414.057C97.3976 413.66 96.8466 413.507 96.3456 413.598Z" fill="#FCAF17"/>
<path d="M80.7257 397.202L82.0168 398.351L75.1575 406.061L79.4253 409.858L86.2845 402.147L87.5577 403.28L79.7094 412.102L72.8775 406.024L80.7257 397.202Z" fill="#FCAF17"/>
<path d="M66.9859 389.62C68.6159 388.203 70.1141 387.536 71.4805 387.621C72.7236 387.685 73.8018 388.242 74.7152 389.292C75.6286 390.343 76.0306 391.488 75.9214 392.728C75.8148 394.093 74.9466 395.484 73.3166 396.901C71.6746 398.329 70.1764 398.995 68.822 398.901C67.5789 398.837 66.5007 398.28 65.5873 397.229C64.674 396.179 64.2719 395.034 64.3811 393.794C64.4756 392.439 65.3439 391.048 66.9859 389.62ZM68.1198 390.924C66.7554 392.111 66.0425 393.144 65.9811 394.024C65.9244 394.837 66.1795 395.569 66.7464 396.221C67.3029 396.861 67.9874 397.21 68.8 397.266C69.7029 397.329 70.8305 396.773 72.1827 395.597C73.535 394.421 74.2427 393.382 74.3057 392.479C74.3624 391.666 74.1125 390.94 73.5561 390.3C72.9892 389.648 72.2994 389.294 71.4868 389.237C70.5944 389.186 69.472 389.749 68.1198 390.924Z" fill="#FCAF17"/>
<path d="M66.453 370.897L67.3849 372.295L64.4495 374.252L69.3222 381.561L72.2576 379.604L73.1763 380.981L69.0028 383.764L68.2306 382.606C66.9526 382.823 65.7766 383.136 64.7028 383.544C63.6289 383.953 62.2799 384.698 60.6557 385.781L58.7787 387.033L54.6648 380.862L63.2514 375.137L62.2795 373.68L66.453 370.897ZM64.21 376.575L56.8614 381.474L59.0981 384.829L60.9552 383.591C62.961 382.273 65.0399 381.425 67.1922 381.048L64.21 376.575Z" fill="#FCAF17"/>
<path d="M53.0213 362.477C55.1654 361.472 56.8831 361.197 58.1743 361.652C59.0893 361.983 59.8082 362.706 60.3311 363.821C60.9287 365.096 60.9371 366.321 60.3563 367.494L66.3975 364.662L67.1309 366.227L51.6586 373.48L50.9251 371.915L52.1855 371.324C50.912 371.02 49.9764 370.23 49.3788 368.956C48.8559 367.84 48.7599 366.825 49.0908 365.91C49.5526 364.633 50.8627 363.489 53.0213 362.477ZM55.3486 363.427C54.88 363.558 54.3488 363.763 53.7548 364.042C53.1608 364.32 52.6635 364.597 52.2628 364.874C51.8554 365.135 51.4896 365.448 51.1654 365.812C50.8268 366.183 50.6371 366.607 50.5964 367.086C50.5556 367.565 50.6643 368.079 50.9224 368.63C51.1329 369.079 51.3959 369.433 51.7115 369.691C52.0126 369.956 52.3338 370.133 52.6751 370.22C53.0097 370.293 53.3925 370.299 53.8235 370.238C54.2477 370.163 54.6511 370.062 55.0336 369.936C55.3949 369.802 55.8073 369.626 56.2709 369.409C56.7345 369.192 57.1406 368.984 57.4892 368.785C57.8165 368.579 58.1447 368.336 58.4739 368.058C58.7962 367.766 59.0364 367.468 59.1944 367.164C59.3456 366.846 59.4228 366.483 59.4259 366.075C59.4146 365.674 59.3037 365.248 59.0932 364.799C58.8351 364.249 58.5091 363.836 58.1152 363.561C57.7214 363.287 57.2808 363.157 56.7937 363.174C56.2921 363.197 55.8104 363.281 55.3486 363.427Z" fill="#FCAF17"/>
<path d="M49.3245 347.161C51.403 346.574 53.0425 346.609 54.2428 347.268C55.34 347.855 56.078 348.819 56.4566 350.158C56.8353 351.498 56.711 352.705 56.0838 353.78C55.4058 354.97 54.0275 355.858 51.9489 356.446C49.855 357.038 48.2155 357.002 47.0306 356.34C45.9334 355.752 45.1954 354.788 44.8168 353.449C44.4381 352.109 44.5624 350.902 45.1896 349.827C45.8522 348.642 47.2305 347.753 49.3245 347.161ZM49.7945 348.824C48.0547 349.316 46.9694 349.947 46.5387 350.717C46.1411 351.428 46.0598 352.199 46.2948 353.031C46.5255 353.847 46.9963 354.454 47.7073 354.851C48.4973 355.293 49.7544 355.27 51.4789 354.783C53.2033 354.295 54.2864 353.657 54.7282 352.867C55.1258 352.156 55.2092 351.392 54.9785 350.576C54.7435 349.745 54.2705 349.13 53.5596 348.733C52.774 348.306 51.5189 348.337 49.7945 348.824Z" fill="#FCAF17"/>
<path d="M53.0471 335.673C52.9447 334.815 52.5753 334.15 51.9389 333.678C51.1977 333.138 49.9851 332.969 48.301 333.17C46.474 333.388 45.2867 333.835 44.7392 334.513C44.2037 335.157 43.9862 335.9 44.0867 336.742C44.1891 337.6 44.5763 338.279 45.2483 338.779C46.0251 339.347 47.2714 339.528 48.9872 339.324C50.6713 339.123 51.823 338.647 52.4424 337.896C52.9499 337.288 53.1514 336.546 53.0471 335.673ZM54.5723 335.491C54.7013 336.571 54.5412 337.525 54.092 338.352C53.627 339.181 52.9209 339.813 51.9738 340.248C51.1024 340.642 49.3878 340.992 46.8299 341.297C44.4309 341.583 42.7752 341.684 41.8628 341.6C40.9504 341.516 40.1178 341.156 39.3652 340.52C39.0077 340.225 38.701 339.883 38.4451 339.494C38.1893 339.106 37.9805 338.639 37.8188 338.095C37.6394 337.536 37.5129 337.084 37.4394 336.738C37.3481 336.378 37.2439 335.843 37.1268 335.132C37.0078 334.405 36.9271 333.931 36.8847 333.71L38.4337 333.525C38.4647 333.651 38.5727 334.218 38.7576 335.227C38.9266 336.238 39.1295 337.06 39.3661 337.692C39.5849 338.311 39.8937 338.806 40.2926 339.177C40.7981 339.632 41.4038 339.914 42.1097 340.024C42.7978 340.119 43.6821 340.102 44.7624 339.973C44.204 339.749 43.727 339.331 43.3315 338.718C42.9361 338.104 42.6928 337.416 42.6018 336.654C42.4577 335.446 42.6906 334.427 43.3005 333.597C44.1323 332.467 45.6922 331.765 47.9799 331.492C50.1883 331.228 51.8259 331.516 52.8929 332.356C53.8494 333.079 54.4092 334.124 54.5723 335.491Z" fill="#FCAF17"/>
<path d="M54.7858 317.285L54.7516 319.013L49.4006 318.907L49.2874 324.618L54.6383 324.724L54.6045 326.428L42.7988 326.193L42.8326 324.49L47.7996 324.588L47.9129 318.877L42.9459 318.779L42.9801 317.051L54.7858 317.285Z" fill="#FCAF17"/>
<path d="M58.5104 298.803L58.2205 300.506L46.5798 298.525L46.8697 296.822L58.5104 298.803ZM51.6723 302.362C52.4345 301.794 53.3439 301.6 54.4007 301.78C55.4575 301.959 56.2516 302.444 56.7829 303.232C57.2984 304.017 57.4622 304.962 57.2743 306.066L56.3924 311.248L44.7518 309.267L45.0377 307.587L49.6514 308.372L50.2473 304.871C50.4379 303.751 50.9129 302.915 51.6723 302.362ZM55.5284 304.309C55.2301 303.868 54.7575 303.593 54.1108 303.483C53.4641 303.373 52.9351 303.478 52.5236 303.797C52.0991 304.098 51.8264 304.604 51.7056 305.314L51.1419 308.626L55.2114 309.318L55.7751 306.006C55.8959 305.296 55.8137 304.73 55.5284 304.309Z" fill="#FCAF17"/>
<path d="M47.8815 280.299C49.7508 281.065 50.3324 282.494 49.6265 284.586C48.9205 286.678 47.592 287.463 45.6409 286.939L46.132 285.484C47.2997 285.777 48.078 285.347 48.4667 284.195C48.8555 283.043 48.4967 282.229 47.3904 281.755L47.8815 280.299ZM64.2897 284.519L63.7372 286.156L55.0732 283.233L61.7959 291.909L61.251 293.524L50.0628 289.749L50.6076 288.134L59.2262 291.042L52.549 282.381L53.1015 280.743L64.2897 284.519Z" fill="#FCAF17"/>
<path d="M70.675 269.576C71.0718 268.808 71.1392 268.05 70.8774 267.303C70.567 266.44 69.6585 265.619 68.1519 264.84C66.5174 263.995 65.2834 263.699 64.4498 263.953C63.6452 264.185 63.0482 264.678 62.6588 265.432C62.262 266.199 62.2014 266.978 62.477 267.769C62.8011 268.675 63.7307 269.525 65.2657 270.318C66.7723 271.097 67.9926 271.35 68.9266 271.076C69.6881 270.858 70.2709 270.357 70.675 269.576ZM72.0394 270.281C71.5398 271.247 70.872 271.947 70.0361 272.379C69.1859 272.804 68.2468 272.931 67.2186 272.76C66.2762 272.597 64.6609 271.924 62.3725 270.741C60.2264 269.632 58.7994 268.786 58.0916 268.204C57.3839 267.622 56.8968 266.857 56.6305 265.908C56.5006 265.463 56.4387 265.008 56.445 264.543C56.4513 264.078 56.5403 263.574 56.7122 263.033C56.8772 262.47 57.0264 262.024 57.1596 261.697C57.2859 261.348 57.5002 260.847 57.8024 260.192C58.112 259.524 58.3111 259.086 58.3998 258.88L59.7855 259.596C59.741 259.717 59.512 260.247 59.0986 261.187C58.671 262.118 58.3776 262.912 58.2185 263.568C58.0525 264.203 58.0304 264.786 58.152 265.317C58.3148 265.978 58.6578 266.551 59.1808 267.038C59.6969 267.503 60.4382 267.985 61.4047 268.485C61.0679 267.986 60.908 267.372 60.925 266.643C60.942 265.913 61.1268 265.207 61.4795 264.525C62.0379 263.445 62.8025 262.732 63.7732 262.387C65.0963 261.919 66.7811 262.213 68.8278 263.271C70.8034 264.293 71.9972 265.45 72.4091 266.744C72.7946 267.88 72.6713 269.059 72.0394 270.281Z" fill="#FCAF17"/>
<path d="M81.8645 254.296L80.9474 255.76L73.1975 250.907L77.7248 260.907L76.8204 262.351L66.8127 256.084L67.717 254.64L75.4263 259.467L70.9396 249.493L71.8567 248.029L81.8645 254.296Z" fill="#FCAF17"/>
<path d="M86.7242 242.672C87.5617 243.288 87.9772 244.141 87.9708 245.229C87.9611 246.295 87.5909 247.323 86.8605 248.316C85.7221 249.862 84.3367 250.799 82.7044 251.127L82.4363 249.588C83.1359 249.448 83.7213 249.233 84.1923 248.944C84.66 248.633 85.112 248.181 85.5484 247.588C86.0037 246.969 86.2635 246.306 86.3276 245.599C86.3789 244.881 86.1597 244.342 85.6701 243.982C85.1548 243.602 84.629 243.493 84.0928 243.655C83.5661 243.804 83.0845 244.174 82.6481 244.767L81.6236 246.159L80.464 245.305L81.5028 243.894C81.8917 243.366 82.0695 242.841 82.0361 242.32C82.0122 241.785 81.7618 241.343 81.2851 240.992C80.8084 240.641 80.3053 240.568 79.7759 240.775C79.256 240.968 78.7494 241.4 78.2561 242.07C77.5636 243.01 77.2016 244.055 77.1702 245.204L75.6591 245.314C75.6687 243.87 76.1811 242.459 77.1962 241.081C77.9171 240.101 78.742 239.467 79.6706 239.177C80.5864 238.878 81.4437 239.022 82.2426 239.61C82.7193 239.961 83.0513 240.415 83.2386 240.97C83.4354 241.512 83.4421 242.083 83.2586 242.683C83.7831 242.295 84.3542 242.099 84.9718 242.097C85.5989 242.082 86.183 242.273 86.7242 242.672Z" fill="#FCAF17"/>
<path d="M98.2297 234.375L97.1257 235.705L93.0086 232.285L89.359 236.679L93.4761 240.099L92.3874 241.41L83.3039 233.865L84.3926 232.554L88.2143 235.728L91.8639 231.334L88.0422 228.16L89.1463 226.831L98.2297 234.375Z" fill="#FCAF17"/>
<path d="M104.049 220.59L98.593 226.397C99.5492 227.295 100.487 227.77 101.405 227.82C102.323 227.871 103.172 227.482 103.949 226.654C104.409 226.165 104.717 225.685 104.872 225.216C105.038 224.736 105.111 224.156 105.09 223.478L106.647 223.327C106.675 224.232 106.575 225.016 106.347 225.68C106.119 226.343 105.676 227.025 105.018 227.725C103.901 228.914 102.669 229.501 101.321 229.487C99.973 229.45 98.5584 228.736 97.0775 227.344C95.6898 226.04 94.9069 224.712 94.7289 223.36C94.5392 221.996 94.9592 220.766 95.989 219.67C97.0298 218.562 98.2137 218.05 99.5406 218.133C100.867 218.193 102.183 218.837 103.489 220.064L104.049 220.59ZM101.937 220.944C101.229 220.367 100.663 220.011 100.24 219.877C98.9939 219.474 97.9325 219.739 97.056 220.672C96.1796 221.605 95.9811 222.681 96.4606 223.9C96.6323 224.325 97.0283 224.861 97.6484 225.51L101.937 220.944Z" fill="#FCAF17"/>
<path d="M116.841 213.967C116.842 214.917 116.724 215.673 116.485 216.233C116.234 216.805 115.837 217.35 115.293 217.87C114.102 219.009 112.795 219.517 111.372 219.394C109.949 219.271 108.585 218.528 107.28 217.163C105.976 215.798 105.294 214.402 105.236 212.975C105.178 211.548 105.744 210.265 106.936 209.126C107.479 208.606 108.042 208.234 108.624 208.01C109.195 207.796 109.955 207.712 110.905 207.756L110.817 209.366C110.06 209.338 109.493 209.393 109.116 209.532C108.705 209.681 108.326 209.921 107.979 210.253C106.268 211.889 106.451 213.794 108.529 215.969C110.608 218.143 112.497 218.418 114.197 216.793C114.556 216.45 114.813 216.094 114.968 215.724C115.124 215.331 115.205 214.745 115.212 213.964L116.841 213.967Z" fill="#FCAF17"/>
<path d="M121.251 204.954L116.311 209.295L115.25 208.087L120.189 203.746L121.251 204.954Z" fill="#FCAF17"/>
<path d="M135.876 200.454L134.536 201.546L128.016 193.547L123.589 197.156L130.109 205.155L128.788 206.232L121.328 197.079L128.415 191.302L135.876 200.454Z" fill="#FCAF17"/>
<path d="M147.975 191.692L146.586 192.721L140.443 184.429L137.088 186.914L139.516 190.193C140.897 192.057 141.6 193.557 141.626 194.693C141.642 195.817 141.174 196.731 140.222 197.436L139.586 197.907L138.7 196.711L139.009 196.483C139.214 196.33 139.38 196.178 139.506 196.025C139.632 195.872 139.734 195.647 139.812 195.35C139.894 195.03 139.888 194.686 139.794 194.318C139.713 193.94 139.518 193.447 139.208 192.841C138.888 192.221 138.448 191.532 137.886 190.774L134.871 186.705L140.946 182.204L147.975 191.692Z" fill="#FCAF17"/>
<path d="M158.523 184.696L157.095 185.669L156.46 184.737C156.338 185.382 156.12 185.928 155.805 186.375C155.49 186.822 155.009 187.266 154.361 187.708C153.132 188.547 152.01 188.876 150.996 188.695C150.183 188.553 149.487 188.059 148.911 187.213C148.316 186.341 148.138 185.455 148.377 184.556C148.629 183.648 149.297 182.824 150.381 182.085L153.296 180.097L152.66 179.165C152.164 178.438 151.601 178.038 150.97 177.965C150.343 177.87 149.587 178.124 148.701 178.728C148.093 179.142 147.663 179.562 147.41 179.986C147.17 180.401 147.038 180.918 147.014 181.535L145.433 181.305C145.465 180.47 145.672 179.767 146.057 179.195C146.442 178.623 147.05 178.053 147.883 177.485C150.487 175.709 152.528 175.905 154.007 178.073L158.523 184.696ZM154.743 182.219L154.026 181.168L151.309 183.021C149.842 184.021 149.501 185.097 150.285 186.247C151.042 187.357 152.174 187.398 153.681 186.371C154.646 185.713 155.218 185.003 155.396 184.242C155.51 183.7 155.292 183.025 154.743 182.219Z" fill="#FCAF17"/>
<path d="M171.197 176.876L169.734 177.795L166.887 173.263L162.05 176.301L164.897 180.834L163.454 181.74L157.173 171.741L158.616 170.834L161.259 175.041L166.096 172.003L163.453 167.796L164.917 166.877L171.197 176.876Z" fill="#FCAF17"/>
<path d="M225.042 150.151L223.378 150.898L217.042 136.801L209.665 140.116L216.001 154.214L214.338 154.962L207.332 139.376L218.037 134.564L225.042 150.151Z" fill="#FCAF17"/>
<path d="M236.061 139.554C236.871 141.556 237.014 143.19 236.49 144.455C236.025 145.609 235.148 146.448 233.857 146.97C232.567 147.492 231.353 147.499 230.216 146.993C228.96 146.448 227.927 145.174 227.117 143.172C226.301 141.155 226.158 139.521 226.688 138.271C227.153 137.117 228.031 136.278 229.321 135.756C230.612 135.234 231.825 135.227 232.962 135.733C234.212 136.263 235.245 137.537 236.061 139.554ZM234.459 140.202C233.781 138.526 233.036 137.516 232.224 137.171C231.474 136.853 230.698 136.856 229.897 137.18C229.111 137.498 228.559 138.032 228.241 138.782C227.888 139.615 228.047 140.863 228.719 142.524C229.391 144.185 230.144 145.192 230.977 145.546C231.727 145.864 232.495 145.864 233.281 145.546C234.082 145.222 234.642 144.685 234.96 143.935C235.298 143.107 235.131 141.863 234.459 140.202Z" fill="#FCAF17"/>
<path d="M249.044 141.14L247.425 141.745L243.81 132.079L239.899 133.542L241.328 137.363C242.141 139.536 242.402 141.172 242.113 142.271C241.818 143.355 241.116 144.105 240.007 144.519L239.265 144.797L238.744 143.403L239.104 143.269C239.343 143.179 239.545 143.078 239.708 142.966C239.871 142.854 240.031 142.665 240.189 142.402C240.355 142.117 240.445 141.785 240.456 141.405C240.483 141.019 240.431 140.492 240.3 139.823C240.164 139.139 239.931 138.355 239.6 137.471L237.826 132.728L244.907 130.08L249.044 141.14Z" fill="#FCAF17"/>
<path d="M258.963 125.4L258.585 141.013C258.543 142.582 257.787 143.616 256.317 144.115L255.613 144.354L255.119 142.899L255.619 142.73C256.149 142.55 256.505 142.328 256.686 142.063C256.881 141.794 256.983 141.346 256.989 140.718L257.044 138.267L249.304 128.678L251.077 128.076L257.192 136.012L257.19 126.001L258.963 125.4Z" fill="#FCAF17"/>
<path d="M272.317 133.677L270.669 134.197L269.283 129.802C268.032 130.515 266.948 131.016 266.033 131.305C265.01 131.627 264.125 131.612 263.377 131.261C262.629 130.91 262.086 130.2 261.749 129.132L260.458 125.035L262.106 124.515L263.304 128.315C263.53 129.032 263.854 129.5 264.275 129.72C264.692 129.924 265.228 129.923 265.884 129.716C266.739 129.446 267.723 129.002 268.836 128.383L267.119 122.935L268.767 122.416L272.317 133.677Z" fill="#FCAF17"/>
<path d="M287.49 129.44L285.828 129.913L283.327 121.117L279.987 131.573L278.348 132.039L275.119 120.682L276.758 120.216L279.246 128.965L282.598 118.555L284.261 118.082L287.49 129.44Z" fill="#FCAF17"/>
<path d="M297.746 116.338L293.999 117.281L296.518 127.289L294.842 127.71L292.323 117.703L288.39 118.693L288.027 117.25L297.383 114.895L297.746 116.338Z" fill="#FCAF17"/>
<path d="M309.176 118.097C309.992 118.583 310.52 119.349 310.759 120.394C310.998 121.439 310.855 122.358 310.331 123.151C309.803 123.928 308.993 124.441 307.901 124.691L302.777 125.863L300.145 114.352L301.807 113.972L302.85 118.534L306.312 117.742C307.42 117.489 308.374 117.607 309.176 118.097ZM308.856 122.405C309.148 121.96 309.221 121.418 309.075 120.779C308.929 120.139 308.629 119.691 308.176 119.433C307.735 119.157 307.164 119.099 306.462 119.259L303.187 120.008L304.107 124.032L307.382 123.283C308.084 123.123 308.575 122.83 308.856 122.405Z" fill="#FCAF17"/>
<path d="M332.029 120.073L330.33 120.388L328.449 110.241L322.833 111.282L324.713 121.429L323.038 121.74L320.886 110.129L329.877 108.463L332.029 120.073Z" fill="#FCAF17"/>
<path d="M343.716 112.401C344.049 114.535 343.816 116.158 343.018 117.27C342.303 118.289 341.257 118.905 339.882 119.12C338.506 119.334 337.323 119.065 336.331 118.313C335.232 117.497 334.516 116.021 334.184 113.887C333.848 111.737 334.081 110.114 334.882 109.017C335.597 107.999 336.643 107.382 338.018 107.168C339.394 106.954 340.577 107.222 341.569 107.975C342.665 108.775 343.381 110.251 343.716 112.401ZM342.009 112.667C341.73 110.88 341.235 109.727 340.522 109.207C339.864 108.726 339.108 108.553 338.255 108.686C337.417 108.816 336.758 109.211 336.277 109.868C335.744 110.599 335.615 111.85 335.891 113.621C336.167 115.391 336.67 116.544 337.401 117.077C338.059 117.558 338.807 117.733 339.645 117.602C340.499 117.469 341.166 117.073 341.646 116.415C342.164 115.687 342.285 114.437 342.009 112.667Z" fill="#FCAF17"/>
<path d="M359.737 119.986L358.07 120.197L357.627 116.697L348.913 117.799L349.356 121.299L347.713 121.507L347.083 116.531L348.464 116.356C348.839 115.115 349.084 113.923 349.197 112.78C349.311 111.636 349.245 110.097 349 108.16L348.717 105.922L356.074 104.991L357.369 115.229L359.107 115.01L359.737 119.986ZM355.655 115.446L354.546 106.684L350.546 107.19L350.826 109.405C351.112 111.788 350.943 114.026 350.321 116.121L355.655 115.446Z" fill="#FCAF17"/>
<path d="M371.712 109.529C371.935 111.887 371.615 113.597 370.751 114.659C370.131 115.409 369.208 115.842 367.981 115.958C366.579 116.091 365.424 115.686 364.515 114.743L365.144 121.385L363.424 121.548L361.813 104.537L363.533 104.374L363.664 105.759C364.38 104.663 365.439 104.048 366.841 103.916C368.067 103.799 369.055 104.051 369.805 104.671C370.851 105.537 371.487 107.156 371.712 109.529ZM370.033 111.4C370.067 110.915 370.053 110.345 369.991 109.692C369.929 109.039 369.836 108.478 369.711 108.007C369.602 107.535 369.431 107.086 369.198 106.658C368.963 106.214 368.627 105.892 368.19 105.692C367.753 105.493 367.232 105.421 366.627 105.479C366.133 105.526 365.711 105.654 365.362 105.864C365.01 106.058 364.736 106.301 364.539 106.593C364.357 106.883 364.223 107.241 364.134 107.668C364.062 108.092 364.021 108.506 364.011 108.909C364.015 109.294 364.041 109.742 364.09 110.251C364.138 110.761 364.197 111.213 364.267 111.609C364.351 111.986 364.468 112.377 364.619 112.781C364.785 113.183 364.985 113.509 365.218 113.761C365.466 114.01 365.782 114.205 366.165 114.346C366.547 114.47 366.984 114.509 367.478 114.463C368.083 114.405 368.582 114.237 368.973 113.959C369.365 113.681 369.635 113.31 369.784 112.846C369.931 112.366 370.014 111.884 370.033 111.4Z" fill="#FCAF17"/>
<path d="M387.01 108.716C387.14 110.872 386.755 112.466 385.856 113.498C385.048 114.444 383.949 114.96 382.559 115.043C381.17 115.127 380.017 114.748 379.1 113.906C378.083 112.989 377.51 111.453 377.38 109.297C377.249 107.125 377.633 105.531 378.534 104.515C379.342 103.568 380.441 103.053 381.831 102.969C383.22 102.886 384.373 103.265 385.29 104.107C386.306 105.008 386.879 106.544 387.01 108.716ZM385.285 108.82C385.176 107.015 384.792 105.82 384.131 105.235C383.522 104.695 382.786 104.451 381.923 104.503C381.077 104.554 380.383 104.884 379.843 105.494C379.243 106.171 378.997 107.404 379.105 109.193C379.212 110.982 379.605 112.176 380.282 112.776C380.892 113.317 381.62 113.561 382.467 113.51C383.329 113.458 384.03 113.127 384.571 112.518C385.155 111.841 385.393 110.609 385.285 108.82Z" fill="#FCAF17"/>
<path d="M394.856 113.131C395.719 113.105 396.414 112.796 396.941 112.204C397.544 111.514 397.82 110.321 397.769 108.626C397.714 106.787 397.373 105.564 396.747 104.959C396.153 104.368 395.432 104.086 394.584 104.111C393.721 104.137 393.01 104.463 392.453 105.088C391.818 105.811 391.527 107.037 391.579 108.764C391.63 110.459 392.002 111.648 392.695 112.332C393.256 112.891 393.976 113.158 394.856 113.131ZM394.902 114.667C393.814 114.699 392.878 114.455 392.094 113.935C391.31 113.398 390.743 112.639 390.393 111.657C390.078 110.754 389.882 109.015 389.804 106.44C389.732 104.025 389.778 102.367 389.943 101.466C390.108 100.564 390.54 99.767 391.239 99.0737C391.566 98.7437 391.933 98.4685 392.343 98.2481C392.753 98.0277 393.236 97.8611 393.793 97.7483C394.365 97.619 394.827 97.5331 395.178 97.4906C395.544 97.4315 396.087 97.3752 396.805 97.3216C397.54 97.2675 398.019 97.229 398.242 97.2063L398.289 98.7656C398.162 98.7855 397.587 98.8427 396.566 98.9375C395.544 99.0163 394.707 99.1455 394.056 99.3251C393.421 99.4883 392.901 99.752 392.495 100.116C391.997 100.58 391.662 101.158 391.491 101.851C391.335 102.528 391.274 103.411 391.306 104.498C391.578 103.962 392.037 103.524 392.684 103.184C393.33 102.845 394.037 102.663 394.804 102.64C396.02 102.604 397.014 102.926 397.787 103.607C398.839 104.536 399.4 106.152 399.469 108.455C399.536 110.678 399.104 112.283 398.173 113.272C397.368 114.16 396.277 114.625 394.902 114.667Z" fill="#FCAF17"/>
<path d="M413.237 114.551L411.509 114.546L411.526 109.194L405.814 109.176L405.797 114.528L404.093 114.522L404.13 102.714L405.834 102.72L405.819 107.688L411.531 107.706L411.546 102.738L413.274 102.743L413.237 114.551Z" fill="#FCAF17"/>
<path d="M430.661 115.38L428.934 115.311L429.403 103.512L431.13 103.581L430.661 115.38ZM426.252 109.056C426.914 109.738 427.223 110.615 427.181 111.686C427.138 112.758 426.76 113.607 426.047 114.235C425.334 114.848 424.418 115.131 423.299 115.087L418.047 114.878L418.516 103.08L420.218 103.147L420.032 107.824L423.582 107.965C424.717 108.01 425.607 108.373 426.252 109.056ZM424.818 113.13C425.216 112.777 425.428 112.273 425.454 111.618C425.48 110.962 425.308 110.451 424.939 110.084C424.585 109.702 424.049 109.496 423.33 109.468L419.972 109.334L419.809 113.459L423.166 113.593C423.885 113.621 424.436 113.467 424.818 113.13Z" fill="#FCAF17"/>
<path d="M446.053 100.058C445.744 102.054 444.49 102.952 442.291 102.753C440.092 102.554 439.019 101.445 439.074 99.4253L440.604 99.5639C440.591 100.768 441.19 101.424 442.401 101.534C443.612 101.644 444.32 101.106 444.523 99.9191L446.053 100.058ZM445.771 116.997L444.05 116.841L444.876 107.735L438.003 116.293L436.306 116.14L437.372 104.38L439.069 104.534L438.248 113.593L445.116 105.082L446.837 105.238L445.771 116.997Z" fill="#FCAF17"/>
<path d="M461.052 117.973C461.906 118.103 462.646 117.925 463.271 117.438C463.989 116.868 464.477 115.745 464.734 114.069C465.012 112.25 464.898 110.986 464.392 110.277C463.914 109.589 463.256 109.181 462.418 109.053C461.564 108.922 460.806 109.113 460.145 109.627C459.39 110.224 458.882 111.376 458.62 113.084C458.363 114.761 458.514 115.998 459.072 116.795C459.522 117.447 460.182 117.839 461.052 117.973ZM460.82 119.491C459.744 119.326 458.868 118.917 458.191 118.263C457.517 117.593 457.097 116.744 456.93 115.715C456.784 114.77 456.906 113.024 457.295 110.478C457.661 108.089 458.007 106.467 458.332 105.61C458.658 104.754 459.227 104.048 460.04 103.493C460.421 103.227 460.833 103.023 461.275 102.88C461.718 102.738 462.223 102.661 462.792 102.651C463.378 102.628 463.847 102.627 464.2 102.649C464.571 102.657 465.115 102.7 465.832 102.777C466.564 102.857 467.042 102.906 467.266 102.924L467.03 104.466C466.901 104.462 466.325 104.415 465.303 104.323C464.284 104.215 463.438 104.191 462.765 104.25C462.111 104.295 461.551 104.46 461.087 104.745C460.513 105.111 460.079 105.619 459.785 106.27C459.509 106.908 459.289 107.764 459.125 108.84C459.489 108.361 460.02 108.014 460.717 107.797C461.414 107.58 462.142 107.529 462.901 107.645C464.103 107.829 465.022 108.326 465.659 109.136C466.526 110.24 466.785 111.931 466.436 114.208C466.099 116.407 465.384 117.908 464.29 118.711C463.336 119.439 462.18 119.699 460.82 119.491Z" fill="#FCAF17"/>
<path d="M479.813 123.095L478.118 122.756L479.912 113.789L472.164 121.565L470.493 121.231L472.809 109.652L474.48 109.986L472.696 118.906L480.434 111.177L482.129 111.516L479.813 123.095Z" fill="#FCAF17"/>
<path d="M492.566 123.115C492.31 124.123 491.677 124.829 490.667 125.233C489.676 125.626 488.583 125.671 487.389 125.368C485.528 124.895 484.138 123.965 483.219 122.577L484.544 121.749C484.937 122.344 485.357 122.805 485.802 123.133C486.267 123.449 486.856 123.697 487.569 123.878C488.313 124.067 489.026 124.058 489.705 123.851C490.389 123.628 490.806 123.222 490.955 122.633C491.113 122.012 491.016 121.484 490.664 121.048C490.328 120.616 489.803 120.31 489.09 120.129L487.415 119.704L487.769 118.308L489.467 118.739C490.103 118.9 490.656 118.867 491.126 118.64C491.612 118.417 491.928 118.018 492.073 117.444C492.219 116.87 492.097 116.377 491.706 115.964C491.331 115.556 490.74 115.249 489.934 115.044C488.802 114.757 487.697 114.815 486.621 115.219L485.951 113.861C487.291 113.326 488.791 113.269 490.451 113.69C491.629 113.989 492.528 114.514 493.146 115.265C493.768 116.001 493.958 116.849 493.714 117.811C493.568 118.385 493.273 118.863 492.83 119.245C492.402 119.632 491.875 119.853 491.25 119.909C491.808 120.249 492.204 120.704 492.438 121.276C492.689 121.851 492.731 122.464 492.566 123.115Z" fill="#FCAF17"/>
<path d="M504.538 130.428L502.885 129.924L504.448 124.805L498.985 123.137L497.422 128.256L495.792 127.759L499.24 116.465L500.87 116.963L499.419 121.714L504.882 123.382L506.333 118.63L507.985 119.135L504.538 130.428Z" fill="#FCAF17"/>
<path d="M519.415 130.413L511.951 127.624C511.492 128.853 511.416 129.901 511.724 130.767C512.032 131.634 512.719 132.266 513.783 132.664C514.412 132.899 514.973 132.998 515.466 132.96C515.973 132.927 516.536 132.77 517.153 132.489L517.894 133.867C517.07 134.242 516.308 134.453 515.608 134.499C514.908 134.544 514.108 134.399 513.208 134.063C511.68 133.492 510.662 132.582 510.155 131.334C509.668 130.076 509.781 128.495 510.492 126.592C511.159 124.808 512.081 123.573 513.26 122.886C514.445 122.185 515.742 122.097 517.15 122.623C518.574 123.155 519.504 124.05 519.94 125.306C520.396 126.552 520.311 128.015 519.684 129.694L519.415 130.413ZM518.272 128.602C518.532 127.726 518.641 127.066 518.602 126.625C518.491 125.319 517.837 124.443 516.638 123.995C515.439 123.547 514.37 123.779 513.431 124.692C513.105 125.015 512.763 125.587 512.405 126.41L518.272 128.602Z" fill="#FCAF17"/>
<path d="M530.376 139.827C529.496 140.184 528.75 140.357 528.141 140.345C527.518 140.327 526.863 140.163 526.178 139.854C524.675 139.176 523.715 138.154 523.295 136.789C522.876 135.423 523.055 133.88 523.831 132.159C524.608 130.438 525.647 129.284 526.948 128.695C528.25 128.106 529.652 128.151 531.154 128.829C531.839 129.138 532.395 129.521 532.821 129.976C533.233 130.425 533.596 131.099 533.911 131.995L532.385 132.518C532.128 131.805 531.864 131.3 531.594 131.003C531.302 130.678 530.937 130.416 530.5 130.219C528.342 129.245 526.644 130.128 525.406 132.87C524.169 135.612 524.622 137.466 526.766 138.434C527.218 138.638 527.644 138.743 528.046 138.748C528.468 138.746 529.042 138.601 529.769 138.315L530.376 139.827Z" fill="#FCAF17"/>
<path d="M541.51 141.494L535.713 138.388L536.473 136.971L542.269 140.077L541.51 141.494Z" fill="#FCAF17"/>
<path d="M550.974 154.318L549.511 153.399L555.002 144.661L550.166 141.622L544.675 150.36L543.232 149.453L549.515 139.455L557.257 144.32L550.974 154.318Z" fill="#FCAF17"/>
<path d="M561.996 163.358L560.631 162.298L566.961 154.147L563.663 151.586L561.161 154.808C559.738 156.64 558.482 157.722 557.395 158.052C556.318 158.37 555.311 158.166 554.376 157.439L553.751 156.954L554.663 155.778L554.967 156.014C555.169 156.171 555.361 156.29 555.542 156.369C555.723 156.449 555.967 156.487 556.274 156.483C556.604 156.475 556.934 156.377 557.263 156.187C557.606 156.007 558.027 155.686 558.528 155.224C559.038 154.75 559.583 154.14 560.162 153.394L563.268 149.395L569.239 154.032L561.996 163.358Z" fill="#FCAF17"/>
<path d="M571.274 172.919L570.034 171.716L570.819 170.907C570.163 170.917 569.584 170.812 569.083 170.594C568.582 170.375 568.05 169.993 567.487 169.447C566.419 168.411 565.871 167.379 565.844 166.349C565.82 165.524 566.165 164.743 566.878 164.008C567.613 163.25 568.445 162.898 569.374 162.952C570.314 163.017 571.255 163.506 572.196 164.419L574.729 166.875L575.514 166.066C576.127 165.434 576.406 164.802 576.351 164.169C576.319 163.536 575.918 162.846 575.148 162.1C574.62 161.587 574.122 161.25 573.656 161.087C573.201 160.936 572.669 160.91 572.059 161.01L571.967 159.416C572.791 159.279 573.522 159.341 574.16 159.603C574.797 159.865 575.478 160.346 576.201 161.048C578.464 163.243 578.682 165.282 576.855 167.165L571.274 172.919ZM572.941 168.719L573.827 167.806L571.466 165.517C570.192 164.28 569.07 164.161 568.1 165.161C567.165 166.125 567.352 167.243 568.661 168.513C569.499 169.326 570.309 169.743 571.09 169.765C571.645 169.768 572.262 169.419 572.941 168.719Z" fill="#FCAF17"/>
<path d="M580.134 184.457L579.047 183.114L583.208 179.748L579.615 175.307L575.454 178.673L574.382 177.349L583.562 169.922L584.634 171.246L580.772 174.371L584.364 178.812L588.227 175.687L589.313 177.03L580.134 184.457Z" fill="#FCAF17"/>
</svg>
