<svg width="30" height="30" viewBox="0 0 30 30" fill="none" xmlns="http://www.w3.org/2000/svg">
<path d="M25.9779 17.6106L25.9627 17.5971C25.7237 17.3847 24.9914 16.6988 24.7444 16.3991C24.4545 16.0251 24.5214 15.7801 24.7386 15.4129C25.0132 14.9488 25.5632 14.2371 26.1454 13.4834C28.0099 11.0702 29.2136 9.39954 28.9658 8.21286L28.8323 7.57903L21.9466 7.5819C21.9225 7.6444 21.5631 9.16352 20.0468 11.7503C18.9473 13.6259 18.2261 14.2151 17.9721 14.3191L17.9328 14.3076C17.8502 14.2093 17.7058 13.9441 17.6464 13.2605C17.5844 12.5445 17.6393 11.6775 17.6925 10.8391C17.7547 9.85595 17.8083 9.00686 17.6799 8.39933L17.4708 7.40962C17.218 7.37076 16.2928 7.02722 13.7151 7.00111C11.4833 6.97911 10.8277 7.28935 10.5058 7.56278L9.44089 8.46718L10.7869 8.90303C11.2992 9.06894 11.4692 9.26035 11.6087 10.2092C11.6997 10.8276 11.7474 11.8668 11.6491 12.7947C11.5079 14.125 11.1693 14.3726 11.1518 14.3857C11.0935 14.3666 10.5989 14.1583 9.74039 12.4114C9.14481 11.1999 8.62271 9.76672 8.24118 8.72026C7.80454 7.52187 7.88315 7.77701 7.66162 7.21081L1 7.2106L1.43109 8.28379C3.2283 12.7622 4.87726 16.2595 7.08398 18.7714C9.52206 21.5467 12.5521 22.9998 16.6336 22.9998L17.4539 22.9998L17.4539 22.2103C17.4539 21.4723 17.5173 20.9408 17.6534 20.5378C17.7365 20.2924 17.847 20.0894 17.963 19.8767C18.1351 19.5633 18.3035 19.4291 18.3953 19.4091C18.4786 19.3908 18.6252 19.4496 18.7875 19.5662C19.2537 19.9007 19.6237 20.3403 20.0154 20.8057C20.5807 21.4774 21.1652 22.1717 22.0925 22.6262C22.5992 22.8746 23.528 23 24.0392 23C24.1745 23 28.994 22.9998 29 22.9998L28.9648 22.1778C28.9122 20.9488 27.9071 19.412 25.9779 17.6106ZM24.0711 21.4209L24.0578 21.4209C23.7054 21.4264 23.0327 21.3152 22.837 21.2194C22.2205 20.9172 21.7896 20.405 21.2903 19.8121C20.8522 19.2913 20.3991 18.7529 19.7683 18.3004C19.2581 17.9342 18.7948 17.8271 18.4269 17.8271C18.28 17.8271 18.1479 17.8442 18.0347 17.8689C17.6077 17.9614 16.9969 18.257 16.5114 19.1408C16.3744 19.3923 16.2191 19.677 16.0933 20.0496C15.9615 20.4394 15.8795 20.8725 15.8404 21.3995C12.7646 21.2313 10.3646 20.0603 8.33688 17.7521C6.45166 15.6059 4.96847 12.6041 3.39771 8.78893C3.51135 8.78893 6.35916 8.78934 6.52728 8.78934C6.57877 8.92852 6.63431 9.08107 6.69327 9.24267C7.10449 10.3716 7.66782 11.9174 8.33154 13.2357C9.28195 15.1234 10.1499 15.9653 11.1456 15.9653C11.6427 15.9653 12.0885 15.7626 12.4348 15.3787C12.9285 14.8317 13.2152 13.9287 13.3113 12.6181C13.3871 11.5846 13.3167 10.5552 13.2333 9.98793C13.1646 9.52124 13.0665 9.03132 12.8272 8.59238C13.8469 8.54818 15.2121 8.61808 16.0771 8.73753C16.1557 9.14954 16.1044 9.95936 16.0549 10.7429C15.935 12.6355 15.8113 14.5887 16.8523 15.5025C17.0354 15.6633 17.2296 15.7494 17.2351 15.7529L17.7649 15.9094C17.9694 15.8487 19.1535 16.4268 21.3957 12.661C22.1141 11.4544 22.7829 10.064 23.1431 9.15591C23.9784 9.15427 26.824 9.15735 27.1584 9.15776C26.6848 10.1608 25.5624 11.5915 24.8288 12.5412C24.1892 13.3689 23.637 14.0837 23.3129 14.6314C22.7109 15.6489 22.8122 16.5557 23.4392 17.3557L23.449 17.368C23.7989 17.7967 24.663 18.5903 24.8423 18.7502C26.1407 19.9634 26.7664 20.8349 27.0641 21.4206L24.0711 21.4206L24.0711 21.4209Z" fill="black"/>
</svg>
