<svg width="30" height="30" viewBox="0 0 30 30" fill="none" xmlns="http://www.w3.org/2000/svg">
<path fill-rule="evenodd" clip-rule="evenodd" d="M12.6826 10.4234C12.9875 10.2603 13.3574 10.2782 13.645 10.47L19.27 14.22C19.5308 14.3938 19.6875 14.6865 19.6875 15C19.6875 15.3135 19.5308 15.6062 19.27 15.78L13.645 19.53C13.3574 19.7218 12.9875 19.7397 12.6826 19.5766C12.3778 19.4134 12.1875 19.0957 12.1875 18.75L12.1875 11.25C12.1875 10.9043 12.3778 10.5866 12.6826 10.4234ZM14.0625 13.0017L14.0625 16.9983L17.0599 15L14.0625 13.0017Z" fill="black"/>
<path fill-rule="evenodd" clip-rule="evenodd" d="M14.9995 4.73524L14.9837 4.73518C14.97 4.73515 14.9503 4.73512 14.9248 4.73516C14.8737 4.73522 14.7993 4.73553 14.7038 4.73646C14.5129 4.73833 14.2375 4.74271 13.8954 4.75274C13.2117 4.77279 12.2589 4.81551 11.1803 4.9063C9.04698 5.08588 6.33051 5.46017 4.23921 6.26382L4.23442 6.26567C3.81962 6.42768 3.44939 6.6862 3.15441 7.0198C2.86001 7.35276 2.64902 7.75093 2.53884 8.18148C2.24115 9.32535 1.875 11.4523 1.875 15C1.875 18.5477 2.24113 20.6746 2.53881 21.8185C2.64899 22.249 2.85998 22.6472 3.15437 22.9802C3.44935 23.3138 3.81957 23.5723 4.23438 23.7343L4.23916 23.7362C6.33045 24.5398 9.04693 24.9141 11.1802 25.0937C12.2589 25.1845 13.2117 25.2272 13.8954 25.2473C14.2375 25.2573 14.5129 25.2617 14.7038 25.2635C14.7993 25.2645 14.8737 25.2648 14.9248 25.2648C14.9503 25.2649 14.97 25.2649 14.9837 25.2648L14.9995 25.2648L15.0005 25.2648L15.0163 25.2648C15.0207 25.2648 15.0257 25.2648 15.0313 25.2648C15.0432 25.2649 15.0579 25.2649 15.0752 25.2648C15.1263 25.2648 15.2007 25.2645 15.2962 25.2635C15.4871 25.2617 15.7625 25.2573 16.1046 25.2473C16.7883 25.2272 17.7411 25.1845 18.8197 25.0937C20.953 24.9141 23.6695 24.5398 25.7608 23.7362L25.7656 23.7343C26.1804 23.5723 26.5506 23.3138 26.8456 22.9802C27.14 22.6473 27.3509 22.2491 27.4611 21.8186C27.7588 20.6748 28.125 18.5478 28.125 15C28.125 11.4524 27.7589 9.3255 27.4612 8.18161C27.351 7.75103 27.14 7.35281 26.8456 7.01983C26.5506 6.68622 26.1804 6.4277 25.7656 6.26569L25.7608 6.26384C23.6695 5.46018 20.9531 5.08588 18.8198 4.90631C17.7411 4.81551 16.7883 4.7728 16.1046 4.75274C15.7625 4.74271 15.4871 4.73833 15.2962 4.73646C15.2007 4.73553 15.1263 4.73522 15.0752 4.73516C15.0497 4.73512 15.03 4.73515 15.0163 4.73518L15.0005 4.73524L14.9995 4.73524ZM15.006 23.3898L15.0063 23.3898L15.0089 23.3898L15.0212 23.3898C15.0324 23.3899 15.0497 23.3899 15.0727 23.3898C15.1188 23.3898 15.1879 23.3895 15.2779 23.3886C15.4578 23.3869 15.721 23.3827 16.0497 23.3731C16.7076 23.3538 17.6253 23.3126 18.6624 23.2253C20.7596 23.0488 23.2539 22.6903 25.0854 21.987C25.2219 21.9334 25.3438 21.8481 25.4409 21.7382C25.5386 21.6278 25.6085 21.4956 25.6449 21.3528L25.6461 21.3481C25.8961 20.3885 26.25 18.424 26.25 15C26.25 11.576 25.8961 9.61156 25.6462 8.65191L25.6449 8.64721C25.6085 8.50436 25.5386 8.37226 25.441 8.26183C25.3438 8.15195 25.222 8.06668 25.0855 8.013C23.254 7.30976 20.7596 6.95123 18.6625 6.7747C17.6254 6.6874 16.7076 6.64624 16.0497 6.62694C15.721 6.6173 15.4578 6.61313 15.2779 6.61137C15.1879 6.61049 15.1188 6.61022 15.0727 6.61015C15.0497 6.61012 15.0324 6.61015 15.0212 6.61018L15.009 6.61022L15.006 6.61023M14.9941 6.61023L14.991 6.61022L14.9788 6.61018C14.9676 6.61015 14.9503 6.61012 14.9273 6.61015C14.8812 6.61022 14.8121 6.61049 14.7221 6.61137C14.5422 6.61313 14.279 6.6173 13.9503 6.62694C13.2924 6.64623 12.3747 6.6874 11.3376 6.7747C9.24043 6.95123 6.7461 7.30975 4.91454 8.01298C4.77805 8.06665 4.65623 8.15193 4.55906 8.26181C4.46142 8.37224 4.3915 8.50435 4.35508 8.64719L4.35387 8.6519C4.10392 9.61154 3.75 11.576 3.75 15C3.75 18.424 4.10391 20.3884 4.35384 21.3481L4.35506 21.3528C4.39147 21.4956 4.46139 21.6277 4.55903 21.7382C4.6562 21.8481 4.77803 21.9333 4.91452 21.987C6.74605 22.6902 9.24038 23.0488 11.3375 23.2253C12.3746 23.3126 13.2924 23.3538 13.9503 23.3731C14.279 23.3827 14.5422 23.3869 14.7221 23.3886C14.8121 23.3895 14.8812 23.3898 14.9273 23.3898C14.9503 23.3899 14.9676 23.3899 14.9788 23.3898L14.991 23.3898L14.9937 23.3898L14.994 23.3898C14.998 23.3897 15.002 23.3897 15.006 23.3898" fill="black"/>
</svg>
